<svg width="228" height="225" viewBox="0 0 228 225" fill="none" xmlns="http://www.w3.org/2000/svg">
<path d="M93.2521 9.43004C92.5751 9.67214 90.366 10.312 88.3529 10.8827C79.0712 13.4766 76.1317 15.4999 74.2967 20.5322L73.8335 21.8119L69.7004 24.475C67.4201 25.9277 65.5495 27.1036 65.5495 27.0517C65.5495 27.0171 65.8702 26.481 66.2799 25.8931C67.2776 24.3886 68.2752 22.2961 69.0056 20.1864C69.647 18.3014 71.4998 11.4015 71.3751 11.2977C71.3394 11.2631 70.4487 11.7473 69.3976 12.3526C61.4342 17.0044 56.3925 21.8465 54.3259 26.8615C53.2036 29.5592 52.9898 31.8073 53.6133 34.1246L53.9874 35.4735L53.2214 36.1133C51.4577 37.5659 48.3044 40.4712 46.7188 42.0967C45.3114 43.5494 45.0977 43.7223 45.3827 43.1343C46.3982 41.111 47.378 37.5659 47.7343 34.6607C48.055 31.8592 47.8768 26.948 47.2889 22.6939L47.182 21.9503L45.1689 24.4232C41.98 28.3487 40.5726 30.1991 39.1474 32.3261C36.5464 36.1998 35.7803 38.1539 35.2459 42.2524C34.7649 46.0396 35.5665 51.4177 36.7602 52.3688C37.0274 52.5764 37.1343 52.5591 37.5797 52.2478C37.8647 52.0403 38.1497 51.8673 38.2032 51.8673C38.2566 51.8673 37.7044 52.6628 36.9739 53.6312C35.6022 55.4989 32.5736 60.1334 31.4512 62.1049C31.0771 62.762 30.7564 63.2808 30.7386 63.2808C30.703 63.2808 30.7564 62.8658 30.8633 62.3643C30.9524 61.8801 31.0415 60.0643 31.0415 58.3523C31.0415 53.8215 30.7386 52.3343 27.9595 43.7742C27.229 41.5606 26.5877 39.814 26.5342 39.8832C26.4095 40.0216 24.7705 44.9155 23.4344 49.1004C22.5614 51.85 21.4391 56.1214 21.0828 58.0929C20.8868 59.1477 20.7621 60.6695 20.7621 62.3297C20.7621 65.2176 21.065 66.8259 22.1161 69.2296C22.7218 70.5958 24.9309 74.5732 25.1268 74.6597C25.1981 74.6943 25.0556 75.2303 24.8062 75.8702C24.0401 77.7897 22.3299 82.822 21.9735 84.1536C21.7954 84.8453 21.5994 85.416 21.5282 85.416C21.4569 85.416 21.35 85.0528 21.2788 84.5859C21.1006 83.3581 19.4972 78.8619 18.4283 76.5619C17.9117 75.4379 17.11 74.0371 16.6646 73.4146C16.2192 72.792 14.9366 70.8206 13.8142 69.0394C11.231 64.8718 10.8569 64.7334 10.8569 67.8635C10.8569 68.6244 10.7678 70.4574 10.6787 71.9274C9.84141 84.2746 10.3224 89.134 12.7809 93.8031C13.7964 95.7054 15.5066 97.4693 17.4307 98.5587C18.7312 99.3024 18.7312 99.3196 18.6243 99.9422C18.3571 101.55 17.9651 106.375 17.8582 109.315L17.7513 112.566L16.8784 110.975C15.7204 108.9 13.6004 105.58 12.2286 103.747C10.2333 101.049 9.03972 99.7693 7.04442 98.2129C5.9577 97.3655 4.51467 96.2415 3.8555 95.7227C2.0918 94.3219 1.75331 94.4257 2.19869 96.1896C2.34121 96.7776 2.87567 99.4407 3.37449 102.104C4.74626 109.54 5.65484 112.756 7.40073 116.353C9.57418 120.832 13.1016 124.343 17.6445 126.591L18.6599 127.075L18.8559 128.51C19.2835 131.398 20.2098 136.016 20.8334 138.402C21.0115 139.077 21.1362 139.647 21.1184 139.664C21.0828 139.699 20.7977 139.353 20.4771 138.921C19.4438 137.52 17.4129 135.67 15.667 134.528C14.7406 133.923 12.7809 132.609 11.3023 131.589C7.08005 128.683 0.452804 124.498 0.078685 124.498C-0.188543 124.498 0.167761 125.328 2.03836 129.15C4.88879 134.995 8.00644 140.927 9.34258 143.089C12.5671 148.328 17.2347 151.96 23.2919 153.983C24.3073 154.312 25.4297 154.588 25.7682 154.588C26.3561 154.588 26.4095 154.64 26.8549 155.678C27.5319 157.252 31.3443 164.515 32.2173 165.881C33.0011 167.126 32.9655 167.143 31.7541 166.244C29.8122 164.809 25.9285 162.716 22.704 161.35C20.2989 160.33 18.5708 159.776 15.5957 159.085C14.3308 158.791 12.1752 158.151 10.8212 157.701C7.16913 156.439 7.02661 156.681 9.57418 159.707C10.5184 160.849 12.1218 162.82 13.1016 164.1C15.4176 167.091 17.4485 169.27 19.9782 171.484C25.0378 175.911 27.2468 177.225 31.665 178.453C35.2993 179.473 37.1877 179.646 40.145 179.3L41.7306 179.11L42.1938 179.698C43.9753 181.912 48.2331 186.2 51.9209 189.503L53.3461 190.783L50.6382 189.451C47.5918 187.964 47.1286 187.843 41.2318 187.03C32.5914 185.837 23.47 185.111 22.3833 185.509C22.1161 185.63 22.1517 185.716 22.7396 186.252C24.0045 187.428 31.5937 192.789 34.4442 194.536C36.7067 195.919 38.8623 196.939 41.6771 197.96C46.701 199.775 48.732 200.139 53.0967 200.017C56.6953 199.914 57.8711 199.706 60.7394 198.599L62.806 197.804L65.2644 199.291C67.9367 200.917 72.2658 203.269 74.1008 204.099C77.0937 205.447 77.4322 205.62 76.7731 205.517C76.4346 205.465 74.2789 205.378 71.9986 205.309C66.3334 205.171 64.9972 205.326 55.9293 207.056C53.2392 207.575 49.5336 208.249 47.6987 208.578C43.7615 209.252 43.5121 209.442 45.7568 210.065C46.5229 210.272 49.3555 211.12 52.0278 211.932C61.1848 214.699 62.9663 215.011 69.2907 215.028C73.3525 215.028 74.0473 214.993 75.7576 214.63C79.8551 213.8 82.6343 212.52 85.1284 210.341C86.2329 209.373 86.7139 209.044 86.999 209.114C87.1949 209.148 88.5845 209.511 90.0632 209.909C91.5418 210.307 94.0538 210.895 95.6393 211.206C97.2071 211.517 98.5432 211.811 98.5967 211.863C98.6323 211.898 98.2582 212.036 97.7415 212.157C95.3721 212.745 88.9408 215.668 79.4453 220.458C74.0651 223.173 72.4262 224.124 72.729 224.314C73.2813 224.66 82.4561 224.314 87.7294 223.744C94.2319 223.052 102.587 220.233 106.008 217.57C107.273 216.584 108.591 215.305 109.927 213.783L110.568 213.039H114.221H117.891L120.438 215.408C124.838 219.489 125.533 219.853 133.425 222.17C137.95 223.501 139.304 223.709 148.052 224.297C155.908 224.833 156.407 224.833 156.407 224.262C156.407 223.83 151.686 221.357 148.746 220.25C147.82 219.905 146.288 219.144 145.362 218.556C142.939 217.034 140.926 215.979 138.503 214.941C136.294 214.008 130.361 212.002 129.827 212.002C129.649 212.002 129.506 211.95 129.506 211.863C129.506 211.794 130.326 211.587 131.341 211.414C133.497 211.033 137.933 209.961 140.516 209.2C141.513 208.906 142.351 208.699 142.386 208.733C142.404 208.768 142.547 209.027 142.689 209.321C143.58 210.999 149.548 213.99 153.557 214.751C156.674 215.356 163.319 215.305 166.74 214.682C169.822 214.094 180.742 210.86 182.417 210.013C183.148 209.65 183.112 209.148 182.381 208.906C181.455 208.629 175.22 207.402 170.837 206.658C163.711 205.43 161.627 205.188 158.01 205.188C154.821 205.188 154.038 205.275 149.851 206.035C149.584 206.087 149.78 205.949 150.261 205.741C154.501 203.943 161.057 200.432 165.261 197.683C167.345 196.317 167.417 196.299 167.203 196.836C166.775 197.839 167.274 198.444 169.091 199.101C171.158 199.862 173.135 200.139 176.36 200.139C179.585 200.139 180.867 199.948 184.288 198.945C187.405 198.029 189.81 196.974 192.768 195.227C197.703 192.322 204.508 187.791 205.559 186.684C206.093 186.131 205.951 185.768 205.131 185.612C204.08 185.422 192.501 186.269 188.207 186.857C182.952 187.566 178.159 189.036 174.578 191.06L173.599 191.613L174.578 190.783C178.444 187.515 182.275 183.727 185.695 179.802C186.657 178.695 186.728 178.643 187.103 178.868C188.759 179.871 193.338 179.542 198.077 178.072C200.428 177.346 201.907 176.585 204.419 174.839C210.298 170.757 212.543 168.561 216.052 163.477C217.531 161.333 218.724 159.949 220.061 158.894C221.308 157.891 221.628 157.425 221.236 157.165C220.898 156.94 220.15 157.079 217.424 157.874C216.159 158.237 213.95 158.825 212.525 159.188C209.87 159.846 207.911 160.503 205.577 161.558C202.37 162.993 198.094 165.552 195.44 167.627C193.997 168.751 193.961 168.769 194.371 168.129C196.562 164.688 200.001 158.341 201.212 155.488C201.479 154.865 201.729 154.537 201.871 154.588C203.207 155.038 208.196 153.188 211.848 150.87C214.021 149.47 217.121 146.582 218.279 144.818C220.47 141.48 226.652 129.531 227.775 126.453C228.291 125.035 228.024 125.017 225.868 126.262C223.356 127.732 215.536 132.782 213.237 134.442C211.117 135.981 208.516 138.419 207.305 140.045C206.842 140.65 206.468 141.1 206.468 141.065C206.468 141.013 206.699 140.097 207.002 139.007C207.643 136.569 208.481 132.592 208.962 129.513C209.176 128.234 209.354 127.179 209.371 127.179C209.389 127.162 209.728 127.058 210.138 126.954C211.171 126.66 214.591 124.637 215.892 123.547C218.137 121.628 219.74 119.553 221.272 116.544C222.982 113.206 224.069 109.54 225.174 103.366C225.565 101.153 226.153 98.3512 226.456 97.158C227.222 94.1144 227.026 93.7858 225.227 95.2385C222.929 97.1234 216.48 103.885 214.306 106.704C212.988 108.416 211.741 110.543 210.921 112.445L210.262 113.95L210.155 110.197C210.048 106.911 209.728 102.675 209.389 100.081C209.282 99.3196 209.3 99.2851 209.639 99.3715C210.334 99.5445 211.67 98.7144 213.433 97.0197C214.93 95.567 215.251 95.152 215.945 93.7167C217.353 90.846 218.083 88.0445 218.404 84.2573C218.707 80.6085 218.618 77.6168 217.958 69.5063C217.531 64.3011 217.816 64.4567 215.482 68.1402C211.741 74.0717 208.908 79.2769 208.053 81.8709C207.732 82.8739 207.643 83.6002 207.572 86.1596C207.537 87.8543 207.465 89.2205 207.43 89.1859C207.394 89.1513 207.091 88.0272 206.735 86.713C205.933 83.6867 204.259 78.5852 203.101 75.68C202.513 74.1927 202.334 73.5529 202.53 73.7258C203.332 74.4349 204.241 73.7258 205.488 71.374C206.414 69.6274 207.554 66.4281 208 64.3184C208.516 61.7936 208.142 59.0786 206.361 52.6455C205.452 49.3598 203.029 42.114 202.726 41.7509C202.139 41.0591 201.283 42.5982 199.342 47.8035C198.469 50.1726 198.255 51.4523 198.059 56.035C197.916 59.1823 197.899 61.1192 198.041 62.6928C198.13 63.9206 198.201 64.9409 198.184 64.9755C198.148 65.0101 197.685 64.2146 197.15 63.2289C195.102 59.5282 192.055 54.9109 189.383 51.4523C187.975 49.6192 187.922 49.2907 189.276 50.6568C189.668 51.0546 190.381 51.6598 190.862 52.0057L191.734 52.6282L192.144 52.1613C192.999 51.1929 193.516 48.3741 193.516 44.6907C193.516 38.69 191.948 34.9028 186.8 28.4352C185.784 27.1555 181.705 22.2961 181.134 21.6909C180.974 21.5179 181.063 25.3743 181.366 32.8622C181.526 37.1336 181.776 39.105 182.328 40.7133C182.667 41.6817 183.931 44.293 184.644 45.4689C184.911 45.9012 185 46.0914 184.84 45.9185C182.898 43.6012 177.732 38.5689 174.881 36.1652C174.276 35.6637 174.222 35.5772 174.472 35.3351C174.97 34.8682 175.184 33.6577 175.184 31.4615C175.184 28.954 174.953 27.8645 174.097 26.1871C172.548 23.1608 168.913 19.0969 165.172 16.2089C162.945 14.4969 158.58 11.7473 158.064 11.7473C157.529 11.7473 158.046 14.5142 159.525 19.339C160.665 23.0743 161.413 24.5096 163.693 27.3803C164.495 28.3833 164.566 28.5389 164.139 28.2622C163.854 28.0893 162.5 27.3457 161.128 26.6021C158.01 24.942 155.481 23.5239 155.267 23.3337C155.178 23.2472 155.035 22.6939 154.946 22.0886C154.608 19.7021 152.594 16.7969 149.94 14.8428C147.446 13.0097 145.094 12.1105 136.472 9.65485C133.728 8.87666 133.247 8.82478 133.247 9.32628C133.247 10.0872 138.039 16.2781 141.032 19.3563C143.491 21.8984 146.876 23.7314 150.421 24.475C151.561 24.6999 151.953 24.9247 155.374 27.2592C157.405 28.6427 159.061 29.8186 159.026 29.8532C158.99 29.8705 158.046 29.8359 156.941 29.7494C154.501 29.5592 152.345 29.7322 149.495 30.3547C146.911 30.9081 143.295 31.963 141.175 32.7584C136.632 34.4705 137.149 34.7472 146.876 35.7847C149.619 36.0787 151.989 36.3554 152.131 36.39C152.274 36.4419 153.877 36.5456 155.677 36.6494C159.311 36.8569 164.905 36.6321 166.918 36.2344L168.076 35.9923L170.125 37.6178C171.247 38.4998 172.69 39.693 173.331 40.2464L174.489 41.284L172.886 40.8689C169.661 40.0388 167.737 39.8486 162.464 39.8659C157.137 39.8832 156.015 40.0216 155.908 40.7306C155.837 41.2494 156.282 41.5434 158.723 42.5809C159.952 43.0997 162.749 44.3621 164.958 45.3824C168.913 47.2155 172.833 48.7892 174.792 49.3425C176.289 49.7576 179.602 50.2764 181.669 50.4147L183.522 50.5358L185.392 52.9049C186.408 54.2192 187.744 55.9831 188.35 56.8132C189.294 58.1447 189.383 58.3004 188.92 58.0064C184.983 55.4816 176.307 52.4207 172.156 52.0921C170.802 51.9884 170.499 52.1267 170.819 52.7147C171.176 53.3373 183.807 63.7131 186.354 65.4597C190.006 67.9845 194.246 70.3364 195.85 70.7341L196.651 70.9244L197.489 72.7747C198.344 74.6424 200.589 80.2972 200.589 80.5739C200.589 80.6604 199.68 79.8303 198.593 78.7235C196.081 76.2333 194.068 74.7461 190.683 72.8612C185.659 70.0597 182.417 68.6935 182.417 69.368C182.417 69.7311 183.29 70.9589 184.573 72.3597C186.711 74.7461 189.312 78.4814 191.574 82.4589C192.144 83.4446 192.892 84.6551 193.267 85.1393C195.404 87.9408 199.431 91.728 202.406 93.7513C203.279 94.3565 204.116 94.9099 204.259 95.0137C204.65 95.2731 205.417 100.496 205.915 106.168C205.987 107.067 206.04 107.828 206.022 107.862C206.004 107.88 205.719 107.188 205.399 106.306C204.633 104.127 203.475 102 202.281 100.547C201.034 99.043 191.164 89.134 190.897 89.134C190.523 89.134 190.755 90.2062 192.02 94.4084C194.656 103.107 196.384 107.69 198.629 111.961C200.41 115.385 202.584 118.498 204.864 120.919L205.808 121.922L205.684 123.34C205.399 126.47 204.205 134.01 203.973 134.01C203.902 134.01 203.795 133.525 203.742 132.92C203.403 129.41 201.372 124.965 196.527 117.149C194.514 113.88 193.498 112.532 193.142 112.601C192.696 112.687 192.679 114.209 193.017 119.743C193.623 129.894 194.157 135.514 194.745 137.728C195.547 140.875 197.845 145.821 199.359 147.688L199.858 148.311L198.825 150.801C197.15 154.813 193.997 161.194 193.997 160.555C193.997 160.451 194.086 159.258 194.175 157.891C194.531 152.755 193.498 145.821 191.485 139.976C190.701 137.676 190.078 136.604 189.543 136.604C189.062 136.604 188.884 137.019 188.742 138.592C188.581 140.373 187.975 143.434 186.782 148.536C184.822 156.871 184.466 159.258 184.608 163.373C184.715 166.469 184.911 167.524 186.016 170.619L186.586 172.21L185.054 174.164C183.468 176.188 180.101 180.061 179.727 180.286C179.567 180.372 179.549 180.286 179.638 179.992C179.87 179.162 180.457 175.565 180.636 173.801C180.903 171.19 180.849 165.379 180.547 161.592C180.386 159.794 180.244 158.22 180.208 158.134C180.172 158.03 179.531 159.171 178.765 160.641C176.681 164.688 173.955 169.495 172.583 171.588C169.109 176.897 168.307 179.802 167.88 188.569L167.773 191.008L166.668 191.786C164.246 193.55 158.723 197.129 158.456 197.129C158.402 197.129 158.687 196.628 159.079 196.023C161.039 193.031 162.999 188.137 163.961 183.848C164.353 182.136 165.136 177.191 165.029 177.087C164.905 176.948 155.356 186.252 152.612 189.175C147.375 194.778 145.076 198.617 144.56 202.681L144.435 203.649L142.012 204.444C140.053 205.084 135.189 206.468 134.904 206.468C134.868 206.468 135.634 205.69 136.614 204.738C140.32 201.142 143.847 195.902 144.702 192.72C145.29 190.472 145.54 190.558 142.565 192.011C140.213 193.135 138.004 194.051 133.336 195.781C132.552 196.075 130.949 196.784 129.773 197.372C127.849 198.323 127.457 198.599 125.836 200.156C122.879 203.026 120.402 206.589 120.349 208.024L120.331 208.664L119.013 208.785C117.018 208.941 109.446 208.906 108.983 208.733C108.698 208.629 108.448 208.249 108.146 207.488C107.576 206.001 106.471 203.857 105.776 202.871C104.85 201.539 102.801 199.672 101.126 198.617C99.3093 197.458 97.1714 196.455 94.0538 195.314C89.8672 193.792 85.9301 192.045 83.9169 190.869L83.329 190.506L83.4537 191.094C84.3623 195.054 87.6759 200.087 92.5395 204.877C93.6262 205.949 94.3923 206.779 94.2498 206.744C94.0894 206.693 92.8424 206.381 91.4706 206.035C90.0988 205.69 87.8897 205.067 86.5536 204.635L84.1307 203.874L84.006 202.784C83.5072 198.478 82.0998 195.884 77.3788 190.731C75.6863 188.898 63.7502 176.862 63.6789 176.931C63.5186 177.069 64.5518 182.534 65.1932 184.972C66.6362 190.541 68.2752 194.397 70.4843 197.441C70.7337 197.787 70.6268 197.752 69.6292 197.199C68.1149 196.351 63.8392 193.619 62.1112 192.374C61.1135 191.665 60.7394 191.302 60.8285 191.111C60.8819 190.973 61.0244 190.247 61.1135 189.538C61.6123 186.166 60.5434 180.874 58.3343 175.755C57.4436 173.697 56.8201 172.573 55.0207 169.685C53.8449 167.818 50.9767 162.647 49.5871 159.897C49.213 159.171 48.821 158.566 48.6963 158.566C48.3757 158.566 48.2688 160.9 48.2688 167.991C48.2688 176.654 48.3935 177.969 49.6227 181.566C49.8009 182.067 45.8993 177.83 43.4052 174.77L41.8731 172.919L42.3185 171.933C43.2627 169.858 44.1713 164.912 44.1713 161.8C44.1713 158.808 43.5299 155.021 41.6059 146.685C40.4301 141.584 39.7709 138.195 39.6818 136.777C39.6462 136.189 39.5571 135.981 39.3077 135.946C39.0761 135.895 38.8267 136.223 38.3101 137.33C37.1699 139.699 35.8872 144.489 34.7827 150.438C34.1591 153.862 34.1235 157.563 34.6936 160.641C34.9074 161.73 35.0321 162.647 35.0143 162.682C34.9786 162.699 34.0344 160.952 32.9121 158.791C31.1127 155.315 29.1709 151.078 28.4761 149.193L28.2623 148.57L29.349 147.395C31.2018 145.44 33.5356 140.408 34.1057 137.157C34.8361 132.989 36.2079 114.434 35.8694 113.396C35.7269 112.947 35.4062 113.016 34.8005 113.638C32.7874 115.731 27.2825 125.259 26.1067 128.666C25.4831 130.482 24.9487 133.266 24.8062 135.341C24.7527 136.327 24.6636 137.105 24.628 137.071C24.343 136.777 22.8465 128.372 22.4189 124.637L22.2051 122.769L22.6683 122.423C23.9688 121.42 29.7053 113.396 31.0058 110.75C32.5201 107.672 38.1497 90.2926 37.9003 89.5317C37.7934 89.2551 35.3349 91.434 31.7897 94.9445C25.5366 101.101 24.1648 103.245 22.0983 109.972C21.5994 111.563 22.2408 103.193 23.0068 98.161L23.3809 95.6016L24.1114 95.2385C25.3584 94.6332 28.1198 92.5407 29.8835 90.8806C33.1793 87.7851 35.4953 84.9145 39.86 78.4987C41.3743 76.2679 43.3874 73.4146 44.3494 72.1695C45.3114 70.9244 46.1844 69.7311 46.2913 69.5409C46.5763 69.0394 46.5407 68.6417 46.22 68.6417C45.4896 68.6417 38.8267 72.2732 34.5511 75.0228C32.4311 76.3717 29.545 78.9138 28.1198 80.6777C27.6922 81.2138 27.1934 81.819 27.0331 82.0265C26.463 82.701 29.6341 74.3657 30.8633 71.9274C31.2196 71.2529 31.3443 71.1319 32.1282 70.9416C33.2684 70.665 36.2613 69.2642 38.6486 67.8635C42.5145 65.5981 46.1488 62.9522 49.7831 59.753C50.9589 58.7154 52.8829 57.0899 54.0587 56.1387C57.1764 53.6312 57.9246 52.9222 57.8533 52.4899C57.7821 51.9711 57.016 51.9538 54.7713 52.3861C48.9814 53.5275 43.815 55.5508 39.5571 58.3696C38.6486 58.9748 37.8647 59.4763 37.8291 59.4763C37.544 59.4763 43.5477 51.435 44.2782 50.8125C44.5454 50.5876 45.1689 50.5012 46.9326 50.432C52.0634 50.2072 56.4994 48.9102 63.0554 45.7283C64.6765 44.9501 67.2419 43.7742 68.7562 43.1343C70.2705 42.4945 71.7848 41.7682 72.1055 41.5434C73.7623 40.3328 71.8026 39.7622 65.9949 39.7622C60.9175 39.7622 56.4103 40.3674 53.453 41.4569C53.061 41.5952 56.25 38.8629 58.459 37.1509C59.6705 36.2171 60.3475 35.802 60.5434 35.8712C61.4876 36.2344 63.9996 36.6667 65.9949 36.8396C68.8631 37.0644 71.8382 36.8742 78.9109 36.0441C81.7079 35.6983 85.2709 35.3351 86.8386 35.2141C89.6356 34.9893 90.5798 34.7644 90.4373 34.3494C90.1523 33.5021 84.2554 31.3231 79.8016 30.4239C76.3099 29.7322 71.3929 29.5592 68.7562 30.0607C68.3108 30.1472 67.9367 30.1991 67.9011 30.1818C67.8833 30.1472 69.4154 28.954 71.3038 27.5359L74.7421 24.9247L76.7018 24.7344C80.9774 24.3194 83.9526 22.7284 88.1926 18.63C90.5798 16.3127 92.7176 13.8571 94.0538 11.8857C95.1761 10.2601 95.4256 9.60297 95.1049 9.22252C94.8377 8.91124 94.7486 8.92854 93.2521 9.43004Z" fill="white"/>
<path d="M64.8682 96.104C64.8575 95.9867 64.8522 95.8587 64.8522 95.72C64.8522 95.5813 64.8522 95.4213 64.8522 95.24C64.8522 94.7813 64.8629 94.2373 64.8842 93.608C64.9055 92.968 64.9375 92.2907 64.9802 91.576C65.0229 90.8507 65.0655 90.1253 65.1082 89.4C65.1509 88.664 65.1935 87.96 65.2362 87.288C65.2895 86.616 65.3375 86.0133 65.3802 85.48C65.1455 85.5547 64.9375 85.624 64.7562 85.688L64.3402 83C65.5455 82.6587 66.6655 82.4027 67.7002 82.232C68.7455 82.0613 69.6895 81.976 70.5322 81.976C72.2495 81.976 73.5615 82.3013 74.4682 82.952C75.3749 83.6027 75.8282 84.5467 75.8282 85.784C75.8282 86.488 75.6735 87.08 75.3642 87.56C75.0549 88.0293 74.6175 88.4187 74.0522 88.728C75.4389 89.432 76.1322 90.5787 76.1322 92.168C76.1322 92.872 75.9989 93.464 75.7322 93.944C75.4762 94.4133 75.1455 94.792 74.7402 95.08C74.3349 95.368 73.9029 95.5813 73.4442 95.72C72.9962 95.8693 72.5695 95.9653 72.1642 96.008C71.7695 96.0613 71.4602 96.088 71.2362 96.088C70.6815 96.088 70.0895 96.0347 69.4602 95.928C68.8309 95.8213 68.2175 95.6613 67.6202 95.448C67.6202 95.6613 67.6202 95.864 67.6202 96.056L64.8682 96.104ZM70.5962 84.648C70.2122 84.648 69.8069 84.6693 69.3802 84.712C68.9642 84.744 68.5482 84.7973 68.1322 84.872C68.0682 85.6507 68.0042 86.5573 67.9402 87.592C68.0789 87.6027 68.2175 87.608 68.3562 87.608C68.5055 87.608 68.6549 87.608 68.8042 87.608C71.6202 87.608 73.0282 87.032 73.0282 85.88C73.0282 85.496 72.8095 85.1973 72.3722 84.984C71.9455 84.76 71.3535 84.648 70.5962 84.648ZM69.1722 90.136C68.9482 90.136 68.7189 90.136 68.4842 90.136C68.2602 90.136 68.0309 90.1413 67.7962 90.152C67.7749 90.6213 67.7535 91.0907 67.7322 91.56C67.7215 92.0293 67.7055 92.4933 67.6842 92.952C68.2815 93.1333 68.8682 93.2667 69.4442 93.352C70.0202 93.4267 70.5162 93.464 70.9322 93.464C71.8175 93.464 72.4522 93.3573 72.8362 93.144C73.2202 92.92 73.4122 92.5573 73.4122 92.056C73.4122 91.4373 73.0442 90.9627 72.3082 90.632C71.5829 90.3013 70.5375 90.136 69.1722 90.136ZM82.4203 96.28C81.3963 96.28 80.495 96.0773 79.7163 95.672C78.9483 95.2773 78.3456 94.7227 77.9083 94.008C77.4816 93.2933 77.2683 92.4667 77.2683 91.528C77.2683 90.9627 77.3643 90.3707 77.5563 89.752C77.7483 89.1227 78.0576 88.536 78.4843 87.992C78.911 87.448 79.471 87.0053 80.1643 86.664C80.8683 86.3227 81.7216 86.152 82.7243 86.152C83.4496 86.152 84.0576 86.232 84.5483 86.392C85.0496 86.552 85.455 86.76 85.7643 87.016C86.0843 87.272 86.3243 87.544 86.4843 87.832C86.655 88.12 86.767 88.3973 86.8203 88.664C86.8843 88.92 86.9163 89.1333 86.9163 89.304C86.9163 90.3387 86.479 91.1387 85.6043 91.704C84.7403 92.2587 83.5136 92.536 81.9243 92.536C81.5616 92.536 81.215 92.52 80.8843 92.488C80.5643 92.456 80.2656 92.4187 79.9883 92.376C80.191 92.9093 80.527 93.304 80.9963 93.56C81.4656 93.8053 81.951 93.928 82.4523 93.928C83.1776 93.928 83.8176 93.8 84.3723 93.544C84.927 93.2773 85.4496 92.872 85.9403 92.328L87.3643 94.376C87.023 94.6533 86.639 94.9413 86.2123 95.24C85.7963 95.5387 85.2843 95.784 84.6763 95.976C84.0683 96.1787 83.3163 96.28 82.4203 96.28ZM82.7723 88.552C82.143 88.552 81.5883 88.712 81.1083 89.032C80.6283 89.352 80.2763 89.7733 80.0523 90.296C80.319 90.3387 80.5803 90.376 80.8363 90.408C81.103 90.4293 81.3643 90.44 81.6203 90.44C81.855 90.44 82.1216 90.4187 82.4203 90.376C82.7296 90.3333 83.0283 90.2693 83.3163 90.184C83.615 90.0987 83.8603 89.992 84.0523 89.864C84.2443 89.7253 84.3403 89.5653 84.3403 89.384C84.3403 89.2987 84.2976 89.192 84.2123 89.064C84.127 88.936 83.9723 88.8187 83.7483 88.712C83.5243 88.6053 83.199 88.552 82.7723 88.552ZM93.3079 96.328C92.5826 96.328 91.9106 96.2427 91.2919 96.072C90.6733 95.9013 90.1133 95.6827 89.6119 95.416C89.1106 95.1493 88.6626 94.8667 88.2679 94.568L89.7079 92.248C90.1559 92.664 90.5879 92.984 91.0039 93.208C91.4199 93.432 91.8519 93.5867 92.2999 93.672C92.7586 93.7573 93.2546 93.8 93.7879 93.8C94.2466 93.8 94.6146 93.7413 94.8919 93.624C95.1693 93.496 95.3079 93.336 95.3079 93.144C95.3079 92.984 95.1746 92.8613 94.9079 92.776C94.6413 92.68 94.2999 92.6 93.8839 92.536C93.4679 92.4613 93.0306 92.3707 92.5719 92.264C91.9213 92.0933 91.3133 91.896 90.7479 91.672C90.1826 91.448 89.7239 91.144 89.3719 90.76C89.0306 90.376 88.8599 89.864 88.8599 89.224C88.8599 88.712 88.9826 88.264 89.2279 87.88C89.4733 87.4853 89.7986 87.16 90.2039 86.904C90.6199 86.6373 91.0893 86.44 91.6119 86.312C92.1346 86.184 92.6733 86.12 93.2279 86.12C94.1879 86.12 95.0146 86.2373 95.7079 86.472C96.4119 86.696 97.0839 86.9947 97.7239 87.368L96.2679 89.576C95.9479 89.352 95.5799 89.16 95.1639 89C94.7586 88.8293 94.3479 88.7013 93.9319 88.616C93.5266 88.52 93.1479 88.472 92.7959 88.472C92.4119 88.472 92.1079 88.5307 91.8839 88.648C91.6706 88.7653 91.5639 88.9307 91.5639 89.144C91.5639 89.272 91.6973 89.3947 91.9639 89.512C92.2413 89.6187 92.7639 89.7627 93.5319 89.944C93.9906 90.0507 94.4759 90.1627 94.9879 90.28C95.4999 90.3867 95.9799 90.5413 96.4279 90.744C96.8866 90.936 97.2546 91.2187 97.5319 91.592C97.8199 91.9547 97.9639 92.44 97.9639 93.048C97.9639 94.072 97.5533 94.872 96.7319 95.448C95.9106 96.0347 94.7693 96.328 93.3079 96.328ZM103.998 96.264C103.358 96.264 102.851 96.1253 102.478 95.848C102.104 95.5813 101.832 95.208 101.662 94.728C101.491 94.248 101.379 93.6987 101.326 93.08C101.283 92.4613 101.262 91.8107 101.262 91.128C101.262 90.424 101.288 89.6933 101.342 88.936C100.627 89.032 99.939 89.1547 99.2777 89.304L98.7817 86.792C99.667 86.5573 100.611 86.3867 101.614 86.28C101.688 85.736 101.768 85.1653 101.854 84.568C101.939 83.96 102.035 83.32 102.142 82.648L104.894 82.888C104.766 83.4427 104.654 83.9973 104.558 84.552C104.462 85.096 104.376 85.624 104.302 86.136C104.899 86.136 105.459 86.152 105.982 86.184C106.515 86.2053 107.006 86.248 107.454 86.312L107.134 88.824C106.76 88.7813 106.371 88.7547 105.966 88.744C105.571 88.7227 105.171 88.712 104.766 88.712C104.52 88.712 104.275 88.7173 104.03 88.728C103.966 89.5067 103.923 90.1733 103.902 90.728C103.891 91.2827 103.886 91.6773 103.886 91.912C103.886 92.4987 103.918 92.92 103.982 93.176C104.056 93.432 104.174 93.56 104.334 93.56C104.515 93.56 104.718 93.5013 104.942 93.384C105.166 93.256 105.384 93.0853 105.598 92.872C105.822 92.6587 106.008 92.4293 106.158 92.184L107.39 94.76C106.334 95.7627 105.203 96.264 103.998 96.264ZM118.053 95.752C116.943 95.752 116.01 95.5547 115.253 95.16C114.495 94.776 113.887 94.264 113.429 93.624C112.981 92.984 112.655 92.2853 112.453 91.528C112.25 90.7707 112.149 90.0187 112.149 89.272C112.149 88.3867 112.293 87.512 112.581 86.648C112.869 85.784 113.301 85 113.877 84.296C114.463 83.592 115.189 83.0267 116.053 82.6C116.927 82.1733 117.946 81.96 119.109 81.96C120.09 81.96 120.949 82.104 121.685 82.392C122.421 82.6693 123.05 83.0107 123.573 83.416C124.106 83.8107 124.533 84.184 124.853 84.536L122.853 86.696C122.554 86.344 122.234 86.0133 121.893 85.704C121.562 85.3947 121.167 85.144 120.709 84.952C120.25 84.76 119.685 84.664 119.013 84.664C118.287 84.664 117.663 84.7973 117.141 85.064C116.618 85.32 116.191 85.6667 115.861 86.104C115.53 86.5413 115.285 87.032 115.125 87.576C114.975 88.12 114.901 88.68 114.901 89.256C114.901 89.9387 115.013 90.568 115.237 91.144C115.471 91.72 115.818 92.184 116.277 92.536C116.746 92.888 117.327 93.064 118.021 93.064C118.874 93.064 119.578 92.8667 120.133 92.472C120.687 92.0773 121.071 91.512 121.285 90.776C120.826 90.808 120.383 90.8507 119.957 90.904C119.541 90.9467 119.167 90.9947 118.837 91.048L118.565 88.456C119.194 88.3173 119.919 88.216 120.741 88.152C121.573 88.0773 122.367 88.04 123.125 88.04C124.17 88.04 124.954 88.104 125.477 88.232L125.413 90.856C125.189 90.792 124.831 90.744 124.341 90.712C124.341 90.9467 124.341 91.192 124.341 91.448C124.351 91.704 124.357 91.9653 124.357 92.232C124.357 92.968 124.346 93.6933 124.325 94.408C124.303 95.1227 124.282 95.6933 124.261 96.12L121.525 96.056C121.535 95.9173 121.551 95.704 121.573 95.416C121.605 95.128 121.637 94.8027 121.669 94.44C121.306 94.824 120.831 95.1387 120.245 95.384C119.669 95.6293 118.938 95.752 118.053 95.752ZM130.964 96.264C130.164 96.264 129.438 96.056 128.788 95.64C128.137 95.2347 127.62 94.6853 127.236 93.992C126.862 93.288 126.676 92.504 126.676 91.64C126.676 90.8293 126.825 90.0987 127.124 89.448C127.422 88.7867 127.828 88.2213 128.34 87.752C128.862 87.2827 129.454 86.9253 130.116 86.68C130.777 86.424 131.47 86.296 132.196 86.296C132.804 86.296 133.401 86.3813 133.988 86.552C134.03 86.328 134.068 86.104 134.1 85.88L136.836 86.344C136.761 86.5467 136.686 86.8507 136.612 87.256C136.537 87.6613 136.473 88.1147 136.42 88.616C136.377 89.1173 136.34 89.6187 136.308 90.12C136.276 90.6213 136.26 91.0747 136.26 91.48C136.26 91.8107 136.281 92.136 136.324 92.456C136.377 92.7653 136.484 93.0213 136.644 93.224C136.804 93.416 137.049 93.512 137.38 93.512H137.604L137.204 96.296C136.5 96.296 135.918 96.1733 135.46 95.928C135.001 95.6933 134.633 95.3733 134.356 94.968C133.897 95.48 133.374 95.8213 132.788 95.992C132.201 96.1733 131.593 96.264 130.964 96.264ZM129.3 91.96C129.353 92.472 129.561 92.8827 129.924 93.192C130.297 93.4907 130.766 93.64 131.332 93.64C131.876 93.64 132.329 93.496 132.692 93.208C133.054 92.9093 133.353 92.504 133.588 91.992C133.577 91.8213 133.572 91.6453 133.572 91.464C133.572 91.0907 133.582 90.7067 133.604 90.312C133.625 89.9173 133.652 89.528 133.684 89.144C133.236 88.9733 132.766 88.888 132.276 88.888C131.7 88.888 131.182 89.0053 130.724 89.24C130.276 89.464 129.924 89.7787 129.668 90.184C129.412 90.5893 129.284 91.0587 129.284 91.592C129.284 91.656 129.284 91.72 129.284 91.784C129.284 91.848 129.289 91.9067 129.3 91.96ZM138.604 96.248C138.593 96.088 138.583 95.8213 138.572 95.448C138.561 95.0853 138.551 94.648 138.54 94.136C138.529 93.624 138.524 93.0747 138.524 92.488C138.524 91.8907 138.524 91.2933 138.524 90.696C138.524 90.0347 138.524 89.4053 138.524 88.808C138.535 88.2107 138.54 87.6933 138.54 87.256C138.551 86.8187 138.556 86.504 138.556 86.312L141.26 86.264C141.239 86.5627 141.223 86.9253 141.212 87.352C141.489 86.9787 141.809 86.6853 142.172 86.472C142.535 86.2587 142.951 86.152 143.42 86.152C143.985 86.152 144.449 86.3173 144.812 86.648C145.185 86.9787 145.489 87.4107 145.724 87.944C146.492 86.7493 147.436 86.152 148.556 86.152C149.185 86.152 149.703 86.2907 150.108 86.568C150.524 86.8347 150.849 87.1973 151.084 87.656C151.319 88.1147 151.489 88.632 151.596 89.208C151.713 89.784 151.788 90.376 151.82 90.984C151.852 91.592 151.868 92.1787 151.868 92.744C151.868 93.416 151.857 94.0293 151.836 94.584C151.815 95.1387 151.809 95.6667 151.82 96.168H149.052C149.052 95.912 149.052 95.5867 149.052 95.192C149.052 94.808 149.052 94.4187 149.052 94.024C149.063 93.6187 149.068 93.272 149.068 92.984C149.068 92.6853 149.068 92.5093 149.068 92.456C149.068 91.816 149.052 91.2133 149.02 90.648C148.988 90.0827 148.908 89.624 148.78 89.272C148.652 88.92 148.444 88.744 148.156 88.744C147.879 88.744 147.633 88.8773 147.42 89.144C147.207 89.4107 147.015 89.7573 146.844 90.184C146.684 90.6107 146.545 91.064 146.428 91.544C146.449 91.96 146.465 92.376 146.476 92.792C146.487 93.1973 146.492 93.592 146.492 93.976C146.492 94.4133 146.487 94.792 146.476 95.112C146.476 95.4427 146.476 95.7947 146.476 96.168H143.788C143.788 95.304 143.783 94.5413 143.772 93.88C143.761 93.2187 143.74 92.5787 143.708 91.96C143.655 90.8507 143.537 90.04 143.356 89.528C143.185 89.0053 142.945 88.744 142.636 88.744C142.295 88.744 142.007 88.952 141.772 89.368C141.537 89.7733 141.345 90.2693 141.196 90.856C141.207 91.7093 141.228 92.6 141.26 93.528C141.292 94.456 141.335 95.352 141.388 96.216L138.604 96.248ZM158.092 96.28C157.068 96.28 156.167 96.0773 155.388 95.672C154.62 95.2773 154.018 94.7227 153.58 94.008C153.154 93.2933 152.94 92.4667 152.94 91.528C152.94 90.9627 153.036 90.3707 153.228 89.752C153.42 89.1227 153.73 88.536 154.156 87.992C154.583 87.448 155.143 87.0053 155.836 86.664C156.54 86.3227 157.394 86.152 158.396 86.152C159.122 86.152 159.73 86.232 160.22 86.392C160.722 86.552 161.127 86.76 161.436 87.016C161.756 87.272 161.996 87.544 162.156 87.832C162.327 88.12 162.439 88.3973 162.492 88.664C162.556 88.92 162.588 89.1333 162.588 89.304C162.588 90.3387 162.151 91.1387 161.276 91.704C160.412 92.2587 159.186 92.536 157.596 92.536C157.234 92.536 156.887 92.52 156.556 92.488C156.236 92.456 155.938 92.4187 155.66 92.376C155.863 92.9093 156.199 93.304 156.668 93.56C157.138 93.8053 157.623 93.928 158.124 93.928C158.85 93.928 159.49 93.8 160.044 93.544C160.599 93.2773 161.122 92.872 161.612 92.328L163.036 94.376C162.695 94.6533 162.311 94.9413 161.884 95.24C161.468 95.5387 160.956 95.784 160.348 95.976C159.74 96.1787 158.988 96.28 158.092 96.28ZM158.444 88.552C157.815 88.552 157.26 88.712 156.78 89.032C156.3 89.352 155.948 89.7733 155.724 90.296C155.991 90.3387 156.252 90.376 156.508 90.408C156.775 90.4293 157.036 90.44 157.292 90.44C157.527 90.44 157.794 90.4187 158.092 90.376C158.402 90.3333 158.7 90.2693 158.988 90.184C159.287 90.0987 159.532 89.992 159.724 89.864C159.916 89.7253 160.012 89.5653 160.012 89.384C160.012 89.2987 159.97 89.192 159.884 89.064C159.799 88.936 159.644 88.8187 159.42 88.712C159.196 88.6053 158.871 88.552 158.444 88.552ZM48.9857 119.136L46.2497 118.624C46.7617 116.555 47.295 114.683 47.8497 113.008C48.415 111.333 48.9964 109.899 49.5937 108.704C50.191 107.509 50.799 106.592 51.4177 105.952C52.047 105.301 52.6764 104.976 53.3057 104.976C54.575 104.976 55.743 106.155 56.8097 108.512C57.8764 110.859 58.783 114.261 59.5297 118.72L56.6977 119.104C56.5697 118.4 56.431 117.68 56.2817 116.944C56.1324 116.197 55.9777 115.472 55.8177 114.768C55.5617 114.757 55.2844 114.752 54.9857 114.752C54.463 114.752 53.9084 114.763 53.3217 114.784C52.7457 114.805 52.175 114.843 51.6097 114.896C51.055 114.939 50.5377 114.987 50.0577 115.04C49.855 115.723 49.6577 116.416 49.4657 117.12C49.2844 117.813 49.1244 118.485 48.9857 119.136ZM51.9297 109.792C51.695 110.293 51.3804 111.104 50.9857 112.224C51.4444 112.171 51.9297 112.133 52.4417 112.112C52.9537 112.08 53.455 112.064 53.9457 112.064C54.3617 112.064 54.7617 112.075 55.1457 112.096C54.9964 111.552 54.8524 111.067 54.7137 110.64C54.5857 110.213 54.4684 109.877 54.3617 109.632C54.1377 109.056 53.9404 108.651 53.7697 108.416C53.599 108.171 53.423 108.048 53.2417 108.048C53.0497 108.048 52.8577 108.176 52.6657 108.432C52.4737 108.677 52.2284 109.131 51.9297 109.792ZM64.1403 119.312C63.255 119.312 62.503 118.624 61.8843 117.248C61.671 116.757 61.4843 116.219 61.3243 115.632C61.1643 115.045 61.0256 114.448 60.9083 113.84C60.8016 113.232 60.711 112.651 60.6363 112.096C60.5723 111.531 60.519 111.035 60.4763 110.608C60.4443 110.171 60.4176 109.84 60.3963 109.616L63.0203 109.008C63.1483 111.429 63.3403 113.269 63.5963 114.528C63.863 115.787 64.0656 116.416 64.2043 116.416C64.279 116.416 64.3696 116.267 64.4763 115.968C64.5936 115.669 64.7216 115.275 64.8603 114.784C64.999 114.283 65.1323 113.733 65.2603 113.136C65.3883 112.539 65.5003 111.936 65.5963 111.328C65.4683 110.549 65.383 109.931 65.3403 109.472L68.0443 109.376V109.568C68.0443 110.005 68.0763 110.517 68.1403 111.104C68.2043 111.691 68.2843 112.299 68.3803 112.928C68.4763 113.547 68.5776 114.123 68.6843 114.656C68.8016 115.189 68.9136 115.621 69.0203 115.952C69.127 116.283 69.2176 116.448 69.2923 116.448C69.3563 116.448 69.447 116.304 69.5643 116.016C69.6816 115.728 69.8096 115.333 69.9483 114.832C70.0976 114.331 70.247 113.76 70.3963 113.12C70.5456 112.469 70.6896 111.787 70.8283 111.072C70.967 110.347 71.079 109.627 71.1643 108.912L73.8043 109.472C73.623 110.485 73.4043 111.493 73.1483 112.496C72.903 113.488 72.6416 114.411 72.3643 115.264C72.087 116.107 71.815 116.816 71.5483 117.392C70.951 118.661 70.2096 119.296 69.3243 119.296C69.0363 119.296 68.7056 119.205 68.3323 119.024C67.9696 118.853 67.6336 118.491 67.3243 117.936C67.2176 117.733 67.111 117.488 67.0043 117.2C66.8976 116.912 66.7963 116.592 66.7003 116.24C66.5723 116.635 66.4443 116.987 66.3163 117.296C65.751 118.64 65.0256 119.312 64.1403 119.312ZM79.1512 119.264C78.3512 119.264 77.6259 119.056 76.9752 118.64C76.3245 118.235 75.8072 117.685 75.4232 116.992C75.0499 116.288 74.8632 115.504 74.8632 114.64C74.8632 113.829 75.0125 113.099 75.3112 112.448C75.6099 111.787 76.0152 111.221 76.5272 110.752C77.0499 110.283 77.6419 109.925 78.3032 109.68C78.9645 109.424 79.6579 109.296 80.3832 109.296C80.9912 109.296 81.5885 109.381 82.1752 109.552C82.2179 109.328 82.2552 109.104 82.2872 108.88L85.0232 109.344C84.9485 109.547 84.8739 109.851 84.7992 110.256C84.7245 110.661 84.6605 111.115 84.6072 111.616C84.5645 112.117 84.5272 112.619 84.4952 113.12C84.4632 113.621 84.4472 114.075 84.4472 114.48C84.4472 114.811 84.4685 115.136 84.5112 115.456C84.5645 115.765 84.6712 116.021 84.8312 116.224C84.9912 116.416 85.2365 116.512 85.5672 116.512H85.7912L85.3912 119.296C84.6872 119.296 84.1059 119.173 83.6472 118.928C83.1885 118.693 82.8205 118.373 82.5432 117.968C82.0845 118.48 81.5619 118.821 80.9752 118.992C80.3885 119.173 79.7805 119.264 79.1512 119.264ZM77.4872 114.96C77.5405 115.472 77.7485 115.883 78.1112 116.192C78.4845 116.491 78.9539 116.64 79.5192 116.64C80.0632 116.64 80.5165 116.496 80.8792 116.208C81.2419 115.909 81.5405 115.504 81.7752 114.992C81.7645 114.821 81.7592 114.645 81.7592 114.464C81.7592 114.091 81.7699 113.707 81.7912 113.312C81.8125 112.917 81.8392 112.528 81.8712 112.144C81.4232 111.973 80.9539 111.888 80.4632 111.888C79.8872 111.888 79.3699 112.005 78.9112 112.24C78.4632 112.464 78.1112 112.779 77.8552 113.184C77.5992 113.589 77.4712 114.059 77.4712 114.592C77.4712 114.656 77.4712 114.72 77.4712 114.784C77.4712 114.848 77.4765 114.907 77.4872 114.96ZM86.7274 119.248C86.7701 118.363 86.8021 117.477 86.8234 116.592C86.8448 115.707 86.8554 114.832 86.8554 113.968C86.8448 113.179 86.8288 112.4 86.8074 111.632C86.7968 110.853 86.7701 110.101 86.7274 109.376L89.4154 109.296C89.4261 109.691 89.4421 110.096 89.4634 110.512C89.8048 110.085 90.1994 109.744 90.6474 109.488C91.1061 109.221 91.6288 109.088 92.2154 109.088C92.4394 109.088 92.7274 109.12 93.0794 109.184C93.4314 109.248 93.7888 109.371 94.1514 109.552L93.8474 112.256C93.5808 112.096 93.2928 111.984 92.9834 111.92C92.6848 111.845 92.4341 111.808 92.2314 111.808C91.5488 111.808 90.9674 112.117 90.4874 112.736C90.0181 113.344 89.6981 114.192 89.5274 115.28C89.5274 116.027 89.5168 116.741 89.4954 117.424C89.4848 118.096 89.4581 118.704 89.4154 119.248H86.7274ZM98.8391 119.264C98.2844 119.264 97.7404 119.168 97.2071 118.976C96.6844 118.784 96.2097 118.485 95.7831 118.08C95.3671 117.685 95.0364 117.189 94.7911 116.592C94.5457 115.984 94.4231 115.275 94.4231 114.464C94.4231 113.547 94.5617 112.757 94.8391 112.096C95.1271 111.424 95.5057 110.875 95.9751 110.448C96.4444 110.011 96.9671 109.685 97.5431 109.472C98.1191 109.259 98.6951 109.152 99.2711 109.152C99.6124 109.152 99.9377 109.179 100.247 109.232C100.556 109.275 100.844 109.339 101.111 109.424C101.143 108.645 101.18 107.861 101.223 107.072C101.276 106.283 101.335 105.504 101.399 104.736L104.087 104.912C104.002 105.797 103.927 106.752 103.863 107.776C103.799 108.789 103.751 109.824 103.719 110.88C103.698 111.936 103.687 112.965 103.687 113.968C103.687 114.907 103.698 115.803 103.719 116.656C103.751 117.499 103.788 118.267 103.831 118.96L101.063 119.168C101.052 118.965 101.047 118.768 101.047 118.576C100.738 118.779 100.396 118.944 100.023 119.072C99.6604 119.2 99.2657 119.264 98.8391 119.264ZM96.9991 114.32C96.9991 114.875 97.1057 115.312 97.3191 115.632C97.5324 115.941 97.7937 116.16 98.1031 116.288C98.4124 116.416 98.7111 116.48 98.9991 116.48C99.3404 116.48 99.6817 116.405 100.023 116.256C100.364 116.107 100.684 115.845 100.983 115.472C100.983 115.344 100.983 115.221 100.983 115.104C100.983 114.24 100.994 113.355 101.015 112.448C100.514 112.011 99.9697 111.792 99.3831 111.792C99.1377 111.792 98.8764 111.829 98.5991 111.904C98.3217 111.979 98.0604 112.112 97.8151 112.304C97.5804 112.485 97.3831 112.741 97.2231 113.072C97.0737 113.392 96.9991 113.808 96.9991 114.32ZM109.106 115.28L109.058 113.008C109.484 112.965 110.018 112.933 110.658 112.912C111.298 112.891 111.943 112.88 112.594 112.88C113.052 112.88 113.484 112.885 113.89 112.896C114.306 112.907 114.663 112.923 114.962 112.944L114.93 115.184C114.663 115.184 114.375 115.184 114.066 115.184C113.756 115.173 113.431 115.168 113.09 115.168C112.407 115.168 111.714 115.179 111.01 115.2C110.306 115.211 109.671 115.237 109.106 115.28ZM121.478 119.072C121.467 118.731 121.462 118.384 121.462 118.032C121.462 117.691 121.462 117.349 121.462 117.008C121.462 115.44 121.494 113.92 121.558 112.448C121.622 110.965 121.697 109.552 121.782 108.208C121.355 108.315 120.998 108.416 120.71 108.512L120.086 105.952C120.609 105.792 121.158 105.653 121.734 105.536C122.321 105.408 122.891 105.307 123.446 105.232C124.011 105.147 124.529 105.088 124.998 105.056C125.478 105.013 125.873 104.992 126.182 104.992C126.513 104.992 126.918 105.019 127.398 105.072C127.889 105.125 128.39 105.237 128.902 105.408C129.425 105.568 129.91 105.813 130.358 106.144C130.806 106.475 131.169 106.923 131.446 107.488C131.734 108.043 131.878 108.741 131.878 109.584C131.878 110.459 131.686 111.189 131.302 111.776C130.918 112.352 130.411 112.816 129.782 113.168C129.153 113.509 128.459 113.755 127.702 113.904C126.945 114.053 126.198 114.128 125.462 114.128C124.993 114.128 124.545 114.107 124.118 114.064C124.107 114.576 124.102 115.083 124.102 115.584C124.102 116.267 124.107 116.901 124.118 117.488C124.129 118.064 124.15 118.571 124.182 119.008L121.478 119.072ZM126.102 107.616C125.825 107.616 125.537 107.627 125.238 107.648C124.95 107.669 124.662 107.696 124.374 107.728C124.321 108.293 124.278 108.907 124.246 109.568C124.214 110.229 124.187 110.907 124.166 111.6C124.561 111.632 124.971 111.648 125.398 111.648C127.958 111.648 129.238 110.891 129.238 109.376C129.238 108.779 128.982 108.336 128.47 108.048C127.958 107.76 127.169 107.616 126.102 107.616ZM133.274 119.248C133.317 118.363 133.349 117.477 133.37 116.592C133.392 115.707 133.402 114.832 133.402 113.968C133.392 113.179 133.376 112.4 133.354 111.632C133.344 110.853 133.317 110.101 133.274 109.376L135.962 109.296C135.973 109.691 135.989 110.096 136.01 110.512C136.352 110.085 136.746 109.744 137.194 109.488C137.653 109.221 138.176 109.088 138.762 109.088C138.986 109.088 139.274 109.12 139.626 109.184C139.978 109.248 140.336 109.371 140.698 109.552L140.394 112.256C140.128 112.096 139.84 111.984 139.53 111.92C139.232 111.845 138.981 111.808 138.778 111.808C138.096 111.808 137.514 112.117 137.034 112.736C136.565 113.344 136.245 114.192 136.074 115.28C136.074 116.027 136.064 116.741 136.042 117.424C136.032 118.096 136.005 118.704 135.962 119.248H133.274ZM146.186 119.28C145.162 119.28 144.261 119.077 143.482 118.672C142.714 118.277 142.111 117.723 141.674 117.008C141.247 116.293 141.034 115.467 141.034 114.528C141.034 113.963 141.13 113.371 141.322 112.752C141.514 112.123 141.823 111.536 142.25 110.992C142.677 110.448 143.237 110.005 143.93 109.664C144.634 109.323 145.487 109.152 146.49 109.152C147.215 109.152 147.823 109.232 148.314 109.392C148.815 109.552 149.221 109.76 149.53 110.016C149.85 110.272 150.09 110.544 150.25 110.832C150.421 111.12 150.533 111.397 150.586 111.664C150.65 111.92 150.682 112.133 150.682 112.304C150.682 113.339 150.245 114.139 149.37 114.704C148.506 115.259 147.279 115.536 145.69 115.536C145.327 115.536 144.981 115.52 144.65 115.488C144.33 115.456 144.031 115.419 143.754 115.376C143.957 115.909 144.293 116.304 144.762 116.56C145.231 116.805 145.717 116.928 146.218 116.928C146.943 116.928 147.583 116.8 148.138 116.544C148.693 116.277 149.215 115.872 149.706 115.328L151.13 117.376C150.789 117.653 150.405 117.941 149.978 118.24C149.562 118.539 149.05 118.784 148.442 118.976C147.834 119.179 147.082 119.28 146.186 119.28ZM146.538 111.552C145.909 111.552 145.354 111.712 144.874 112.032C144.394 112.352 144.042 112.773 143.818 113.296C144.085 113.339 144.346 113.376 144.602 113.408C144.869 113.429 145.13 113.44 145.386 113.44C145.621 113.44 145.887 113.419 146.186 113.376C146.495 113.333 146.794 113.269 147.082 113.184C147.381 113.099 147.626 112.992 147.818 112.864C148.01 112.725 148.106 112.565 148.106 112.384C148.106 112.299 148.063 112.192 147.978 112.064C147.893 111.936 147.738 111.819 147.514 111.712C147.29 111.605 146.965 111.552 146.538 111.552ZM152.37 119.248C152.359 119.088 152.348 118.821 152.338 118.448C152.327 118.085 152.316 117.648 152.306 117.136C152.295 116.624 152.29 116.075 152.29 115.488C152.29 114.891 152.29 114.293 152.29 113.696C152.29 113.035 152.29 112.405 152.29 111.808C152.3 111.211 152.306 110.693 152.306 110.256C152.316 109.819 152.322 109.504 152.322 109.312L155.026 109.264C155.004 109.563 154.988 109.925 154.978 110.352C155.255 109.979 155.575 109.685 155.938 109.472C156.3 109.259 156.716 109.152 157.186 109.152C157.751 109.152 158.215 109.317 158.578 109.648C158.951 109.979 159.255 110.411 159.49 110.944C160.258 109.749 161.202 109.152 162.322 109.152C162.951 109.152 163.468 109.291 163.874 109.568C164.29 109.835 164.615 110.197 164.85 110.656C165.084 111.115 165.255 111.632 165.362 112.208C165.479 112.784 165.554 113.376 165.586 113.984C165.618 114.592 165.634 115.179 165.634 115.744C165.634 116.416 165.623 117.029 165.602 117.584C165.58 118.139 165.575 118.667 165.586 119.168H162.818C162.818 118.912 162.818 118.587 162.818 118.192C162.818 117.808 162.818 117.419 162.818 117.024C162.828 116.619 162.834 116.272 162.834 115.984C162.834 115.685 162.834 115.509 162.834 115.456C162.834 114.816 162.818 114.213 162.786 113.648C162.754 113.083 162.674 112.624 162.546 112.272C162.418 111.92 162.21 111.744 161.922 111.744C161.644 111.744 161.399 111.877 161.186 112.144C160.972 112.411 160.78 112.757 160.61 113.184C160.45 113.611 160.311 114.064 160.194 114.544C160.215 114.96 160.231 115.376 160.242 115.792C160.252 116.197 160.258 116.592 160.258 116.976C160.258 117.413 160.252 117.792 160.242 118.112C160.242 118.443 160.242 118.795 160.242 119.168H157.554C157.554 118.304 157.548 117.541 157.538 116.88C157.527 116.219 157.506 115.579 157.474 114.96C157.42 113.851 157.303 113.04 157.122 112.528C156.951 112.005 156.711 111.744 156.402 111.744C156.06 111.744 155.772 111.952 155.538 112.368C155.303 112.773 155.111 113.269 154.962 113.856C154.972 114.709 154.994 115.6 155.026 116.528C155.058 117.456 155.1 118.352 155.154 119.216L152.37 119.248ZM166.978 107.664C166.978 107.568 166.972 107.472 166.962 107.376C166.962 107.269 166.962 107.152 166.962 107.024C166.962 106.683 166.972 106.32 166.994 105.936C167.015 105.552 167.036 105.227 167.058 104.96L169.906 105.008C169.874 105.371 169.836 105.781 169.794 106.24C169.762 106.699 169.74 107.173 169.73 107.664H166.978ZM166.914 119.12C166.882 118.459 166.86 117.755 166.85 117.008C166.839 116.251 166.834 115.493 166.834 114.736C166.834 113.744 166.844 112.779 166.866 111.84C166.887 110.901 166.914 110.048 166.946 109.28L169.698 109.264C169.655 109.755 169.628 110.363 169.618 111.088C169.607 111.803 169.602 112.555 169.602 113.344C169.602 114.123 169.607 114.891 169.618 115.648C169.628 116.405 169.639 117.093 169.65 117.712C169.671 118.32 169.687 118.789 169.698 119.12H166.914ZM175.949 119.328C175.223 119.328 174.551 119.243 173.933 119.072C173.314 118.901 172.754 118.683 172.253 118.416C171.751 118.149 171.303 117.867 170.909 117.568L172.349 115.248C172.797 115.664 173.229 115.984 173.645 116.208C174.061 116.432 174.493 116.587 174.941 116.672C175.399 116.757 175.895 116.8 176.429 116.8C176.887 116.8 177.255 116.741 177.533 116.624C177.81 116.496 177.949 116.336 177.949 116.144C177.949 115.984 177.815 115.861 177.549 115.776C177.282 115.68 176.941 115.6 176.525 115.536C176.109 115.461 175.671 115.371 175.213 115.264C174.562 115.093 173.954 114.896 173.389 114.672C172.823 114.448 172.365 114.144 172.013 113.76C171.671 113.376 171.501 112.864 171.501 112.224C171.501 111.712 171.623 111.264 171.869 110.88C172.114 110.485 172.439 110.16 172.845 109.904C173.261 109.637 173.73 109.44 174.253 109.312C174.775 109.184 175.314 109.12 175.869 109.12C176.829 109.12 177.655 109.237 178.349 109.472C179.053 109.696 179.725 109.995 180.365 110.368L178.909 112.576C178.589 112.352 178.221 112.16 177.805 112C177.399 111.829 176.989 111.701 176.573 111.616C176.167 111.52 175.789 111.472 175.437 111.472C175.053 111.472 174.749 111.531 174.525 111.648C174.311 111.765 174.205 111.931 174.205 112.144C174.205 112.272 174.338 112.395 174.605 112.512C174.882 112.619 175.405 112.763 176.173 112.944C176.631 113.051 177.117 113.163 177.629 113.28C178.141 113.387 178.621 113.541 179.069 113.744C179.527 113.936 179.895 114.219 180.173 114.592C180.461 114.955 180.605 115.44 180.605 116.048C180.605 117.072 180.194 117.872 179.373 118.448C178.551 119.035 177.41 119.328 175.949 119.328ZM65.7203 142.072C65.7096 141.731 65.7043 141.384 65.7043 141.032C65.7043 140.691 65.7043 140.349 65.7043 140.008C65.7043 138.44 65.7363 136.92 65.8003 135.448C65.8643 133.965 65.9389 132.552 66.0243 131.208C65.5976 131.315 65.2403 131.416 64.9523 131.512L64.3283 128.952C64.8509 128.792 65.4003 128.653 65.9763 128.536C66.5629 128.408 67.1336 128.307 67.6883 128.232C68.2536 128.147 68.7709 128.088 69.2403 128.056C69.7203 128.013 70.1149 127.992 70.4243 127.992C70.7549 127.992 71.1603 128.019 71.6403 128.072C72.1309 128.125 72.6323 128.237 73.1443 128.408C73.6669 128.568 74.1523 128.813 74.6003 129.144C75.0483 129.475 75.4109 129.923 75.6883 130.488C75.9763 131.043 76.1203 131.741 76.1203 132.584C76.1203 133.459 75.9283 134.189 75.5443 134.776C75.1603 135.352 74.6536 135.816 74.0243 136.168C73.3949 136.509 72.7016 136.755 71.9443 136.904C71.1869 137.053 70.4403 137.128 69.7043 137.128C69.2349 137.128 68.7869 137.107 68.3602 137.064C68.3496 137.576 68.3443 138.083 68.3443 138.584C68.3443 139.267 68.3496 139.901 68.3602 140.488C68.3709 141.064 68.3923 141.571 68.4243 142.008L65.7203 142.072ZM70.3443 130.616C70.0669 130.616 69.7789 130.627 69.4803 130.648C69.1923 130.669 68.9043 130.696 68.6163 130.728C68.5629 131.293 68.5203 131.907 68.4883 132.568C68.4563 133.229 68.4296 133.907 68.4083 134.6C68.8029 134.632 69.2136 134.648 69.6403 134.648C72.2003 134.648 73.4803 133.891 73.4803 132.376C73.4803 131.779 73.2243 131.336 72.7123 131.048C72.2003 130.76 71.4109 130.616 70.3443 130.616ZM77.5325 130.664C77.5325 130.568 77.5272 130.472 77.5165 130.376C77.5165 130.269 77.5165 130.152 77.5165 130.024C77.5165 129.683 77.5272 129.32 77.5485 128.936C77.5698 128.552 77.5912 128.227 77.6125 127.96L80.4605 128.008C80.4285 128.371 80.3912 128.781 80.3485 129.24C80.3165 129.699 80.2952 130.173 80.2845 130.664H77.5325ZM77.4685 142.12C77.4365 141.459 77.4152 140.755 77.4045 140.008C77.3938 139.251 77.3885 138.493 77.3885 137.736C77.3885 136.744 77.3992 135.779 77.4205 134.84C77.4418 133.901 77.4685 133.048 77.5005 132.28L80.2525 132.264C80.2098 132.755 80.1832 133.363 80.1725 134.088C80.1618 134.803 80.1565 135.555 80.1565 136.344C80.1565 137.123 80.1618 137.891 80.1725 138.648C80.1832 139.405 80.1938 140.093 80.2045 140.712C80.2258 141.32 80.2418 141.789 80.2525 142.12H77.4685ZM83.6713 142.36L81.6553 140.616C82.1673 140.019 82.7166 139.416 83.3033 138.808C83.8899 138.189 84.4926 137.576 85.1113 136.968C84.3646 136.317 83.6659 135.736 83.0153 135.224C82.3753 134.701 81.8793 134.333 81.5273 134.12L83.1273 132.008C83.7033 132.424 84.3273 132.899 84.9993 133.432C85.6713 133.965 86.3486 134.531 87.0313 135.128C87.6606 134.552 88.2793 133.992 88.8873 133.448C89.4953 132.893 90.0766 132.371 90.6313 131.88L92.4873 133.8C92.1459 134.045 91.6606 134.451 91.0312 135.016C90.4019 135.571 89.7193 136.189 88.9833 136.872C89.6873 137.512 90.3486 138.147 90.9673 138.776C91.5966 139.395 92.1513 139.971 92.6313 140.504L90.6793 142.28C90.4873 142.045 90.2099 141.741 89.8472 141.368C89.4846 140.995 89.0633 140.579 88.5833 140.12C88.1139 139.661 87.6126 139.192 87.0793 138.712C86.5673 139.213 86.0819 139.699 85.6233 140.168C85.1753 140.637 84.7806 141.059 84.4393 141.432C84.0979 141.816 83.8419 142.125 83.6713 142.36ZM98.725 142.28C97.701 142.28 96.7997 142.077 96.021 141.672C95.253 141.277 94.6503 140.723 94.213 140.008C93.7863 139.293 93.573 138.467 93.573 137.528C93.573 136.963 93.669 136.371 93.861 135.752C94.053 135.123 94.3623 134.536 94.789 133.992C95.2157 133.448 95.7757 133.005 96.469 132.664C97.173 132.323 98.0263 132.152 99.029 132.152C99.7543 132.152 100.362 132.232 100.853 132.392C101.354 132.552 101.76 132.76 102.069 133.016C102.389 133.272 102.629 133.544 102.789 133.832C102.96 134.12 103.072 134.397 103.125 134.664C103.189 134.92 103.221 135.133 103.221 135.304C103.221 136.339 102.784 137.139 101.909 137.704C101.045 138.259 99.8183 138.536 98.229 138.536C97.8663 138.536 97.5197 138.52 97.189 138.488C96.869 138.456 96.5703 138.419 96.293 138.376C96.4957 138.909 96.8317 139.304 97.301 139.56C97.7703 139.805 98.2557 139.928 98.757 139.928C99.4823 139.928 100.122 139.8 100.677 139.544C101.232 139.277 101.754 138.872 102.245 138.328L103.669 140.376C103.328 140.653 102.944 140.941 102.517 141.24C102.101 141.539 101.589 141.784 100.981 141.976C100.373 142.179 99.621 142.28 98.725 142.28ZM99.077 134.552C98.4477 134.552 97.893 134.712 97.413 135.032C96.933 135.352 96.581 135.773 96.357 136.296C96.6237 136.339 96.885 136.376 97.141 136.408C97.4077 136.429 97.669 136.44 97.925 136.44C98.1597 136.44 98.4263 136.419 98.725 136.376C99.0343 136.333 99.333 136.269 99.621 136.184C99.9197 136.099 100.165 135.992 100.357 135.864C100.549 135.725 100.645 135.565 100.645 135.384C100.645 135.299 100.602 135.192 100.517 135.064C100.432 134.936 100.277 134.819 100.053 134.712C99.829 134.605 99.5037 134.552 99.077 134.552ZM108.029 142.264C107.442 142.264 106.957 142.136 106.573 141.88C106.199 141.635 105.901 141.293 105.677 140.856C105.463 140.419 105.303 139.917 105.197 139.352C105.101 138.787 105.037 138.184 105.005 137.544C104.983 136.893 104.973 136.243 104.973 135.592C104.973 135.027 104.989 134.408 105.021 133.736C105.053 133.053 105.09 132.365 105.133 131.672C105.186 130.968 105.239 130.307 105.293 129.688C105.357 129.069 105.415 128.531 105.469 128.072L108.365 128.104C108.279 128.648 108.199 129.267 108.125 129.96C108.05 130.643 107.986 131.336 107.933 132.04C107.89 132.744 107.853 133.395 107.821 133.992C107.799 134.589 107.789 135.064 107.789 135.416C107.789 136.387 107.805 137.149 107.837 137.704C107.879 138.259 107.938 138.653 108.013 138.888C108.098 139.112 108.21 139.224 108.349 139.224C108.53 139.224 108.727 139.112 108.941 138.888C109.154 138.653 109.362 138.392 109.565 138.104L110.925 140.808C110.594 141.171 110.199 141.501 109.741 141.8C109.282 142.109 108.711 142.264 108.029 142.264ZM116.788 142.216C116.681 141.8 116.564 141.373 116.436 140.936C116.318 140.499 116.212 140.115 116.116 139.784C117.3 139.123 118.329 138.408 119.204 137.64C120.089 136.872 120.814 136.109 121.38 135.352C121.956 134.595 122.382 133.907 122.66 133.288C122.948 132.669 123.092 132.184 123.092 131.832C123.092 131.427 122.953 131.112 122.676 130.888C122.409 130.653 122.046 130.536 121.588 130.536C120.958 130.536 120.318 130.76 119.668 131.208C119.028 131.656 118.43 132.291 117.876 133.112L116.196 131.096C116.676 130.52 117.182 130.003 117.716 129.544C118.26 129.085 118.841 128.723 119.46 128.456C120.078 128.179 120.74 128.04 121.444 128.04C122.212 128.04 122.916 128.173 123.556 128.44C124.196 128.707 124.708 129.107 125.092 129.64C125.476 130.173 125.668 130.835 125.668 131.624C125.668 132.371 125.476 133.181 125.092 134.056C124.708 134.92 124.174 135.789 123.492 136.664C122.809 137.528 122.03 138.333 121.156 139.08C121.508 139.069 121.865 139.064 122.228 139.064C122.932 139.064 123.577 139.107 124.164 139.192C124.75 139.267 125.358 139.384 125.988 139.544L125.46 142.008C124.937 141.88 124.382 141.773 123.796 141.688C123.209 141.603 122.537 141.56 121.78 141.56C120.884 141.56 119.993 141.608 119.108 141.704C118.222 141.811 117.449 141.981 116.788 142.216ZM132.809 142.248C131.998 142.248 131.273 142.056 130.633 141.672C129.993 141.299 129.449 140.787 129.001 140.136C128.564 139.485 128.228 138.749 127.993 137.928C127.758 137.107 127.641 136.253 127.641 135.368C127.641 134.312 127.785 133.32 128.073 132.392C128.372 131.453 128.798 130.616 129.353 129.88C129.908 129.144 130.574 128.536 131.353 128.056L131.577 128.536C132.1 128.269 132.665 128.136 133.273 128.136C134.148 128.136 134.91 128.328 135.561 128.712C136.222 129.085 136.766 129.597 137.193 130.248C137.63 130.888 137.956 131.608 138.169 132.408C138.393 133.208 138.505 134.035 138.505 134.888C138.505 136.157 138.34 137.256 138.009 138.184C137.689 139.112 137.257 139.875 136.713 140.472C136.169 141.069 135.556 141.512 134.873 141.8C134.201 142.099 133.513 142.248 132.809 142.248ZM130.265 135.512C130.265 135.896 130.302 136.328 130.377 136.808C130.462 137.288 130.606 137.747 130.809 138.184C131.012 138.611 131.284 138.968 131.625 139.256C131.977 139.533 132.425 139.672 132.969 139.672C133.556 139.672 134.068 139.475 134.505 139.08C134.942 138.675 135.284 138.115 135.529 137.4C135.785 136.685 135.913 135.859 135.913 134.92C135.913 133.981 135.769 133.213 135.481 132.616C135.204 132.008 134.852 131.56 134.425 131.272C134.009 130.973 133.588 130.824 133.161 130.824C132.937 130.824 132.724 130.888 132.521 131.016C132.318 131.144 132.158 131.315 132.041 131.528L131.817 131.048C131.316 131.549 130.958 132.056 130.745 132.568C130.532 133.08 130.398 133.587 130.345 134.088C130.292 134.579 130.265 135.053 130.265 135.512ZM140.788 142.216C140.681 141.8 140.564 141.373 140.436 140.936C140.318 140.499 140.212 140.115 140.116 139.784C141.3 139.123 142.329 138.408 143.204 137.64C144.089 136.872 144.814 136.109 145.38 135.352C145.956 134.595 146.382 133.907 146.66 133.288C146.948 132.669 147.092 132.184 147.092 131.832C147.092 131.427 146.953 131.112 146.676 130.888C146.409 130.653 146.046 130.536 145.588 130.536C144.958 130.536 144.318 130.76 143.668 131.208C143.028 131.656 142.43 132.291 141.876 133.112L140.196 131.096C140.676 130.52 141.182 130.003 141.716 129.544C142.26 129.085 142.841 128.723 143.46 128.456C144.078 128.179 144.74 128.04 145.444 128.04C146.212 128.04 146.916 128.173 147.556 128.44C148.196 128.707 148.708 129.107 149.092 129.64C149.476 130.173 149.668 130.835 149.668 131.624C149.668 132.371 149.476 133.181 149.092 134.056C148.708 134.92 148.174 135.789 147.492 136.664C146.809 137.528 146.03 138.333 145.156 139.08C145.508 139.069 145.865 139.064 146.228 139.064C146.932 139.064 147.577 139.107 148.164 139.192C148.75 139.267 149.358 139.384 149.988 139.544L149.46 142.008C148.937 141.88 148.382 141.773 147.796 141.688C147.209 141.603 146.537 141.56 145.78 141.56C144.884 141.56 143.993 141.608 143.108 141.704C142.222 141.811 141.449 141.981 140.788 142.216ZM155.369 136.552L152.745 136.392C152.798 135.795 152.868 135.149 152.953 134.456C153.038 133.752 153.124 133.037 153.209 132.312C153.305 131.576 153.401 130.856 153.497 130.152C153.593 129.448 153.684 128.797 153.769 128.2L156.409 128.264C156.388 128.371 156.366 128.488 156.345 128.616C156.857 128.584 157.401 128.557 157.977 128.536C158.553 128.504 159.113 128.483 159.657 128.472C160.201 128.461 160.676 128.456 161.081 128.456C161.284 128.456 161.465 128.461 161.625 128.472C161.785 128.472 161.913 128.472 162.009 128.472L161.881 131.096C161.678 131.085 161.47 131.08 161.257 131.08C161.044 131.08 160.814 131.08 160.569 131.08C159.844 131.08 159.081 131.096 158.281 131.128C157.481 131.16 156.708 131.208 155.961 131.272C155.918 131.613 155.876 131.96 155.833 132.312C155.801 132.664 155.764 133.011 155.721 133.352C156.105 133.16 156.494 133.032 156.889 132.968C157.294 132.904 157.678 132.872 158.041 132.872C158.916 132.872 159.678 133.053 160.329 133.416C160.99 133.768 161.502 134.264 161.865 134.904C162.228 135.544 162.409 136.291 162.409 137.144C162.409 138.2 162.196 139.112 161.769 139.88C161.353 140.637 160.75 141.219 159.961 141.624C159.182 142.04 158.249 142.248 157.161 142.248C156.158 142.248 155.193 142.019 154.265 141.56C153.348 141.112 152.601 140.493 152.025 139.704L153.801 137.768C154.857 139.016 155.982 139.64 157.177 139.64C158.03 139.64 158.681 139.427 159.129 139C159.577 138.573 159.801 137.971 159.801 137.192C159.801 136.573 159.62 136.099 159.257 135.768C158.894 135.437 158.372 135.272 157.689 135.272C157.113 135.272 156.665 135.357 156.345 135.528C156.025 135.699 155.79 135.885 155.641 136.088C155.502 136.291 155.412 136.445 155.369 136.552Z" fill="white"/>
</svg>
