<svg width="248" height="236" viewBox="0 0 248 236" fill="none" xmlns="http://www.w3.org/2000/svg">
<path d="M103.252 10.43C102.575 10.6721 100.366 11.312 98.3529 11.8827C89.0712 14.4766 86.1317 16.4999 84.2967 21.5322L83.8335 22.8119L79.7004 25.475C77.4201 26.9277 75.5495 28.1036 75.5495 28.0517C75.5495 28.0171 75.8702 27.481 76.2799 26.8931C77.2776 25.3886 78.2752 23.2961 79.0056 21.1864C79.647 19.3014 81.4998 12.4015 81.3751 12.2977C81.3394 12.2631 80.4487 12.7473 79.3976 13.3526C71.4342 18.0044 66.3925 22.8465 64.3259 27.8615C63.2036 30.5592 62.9898 32.8073 63.6133 35.1246L63.9874 36.4735L63.2214 37.1133C61.4577 38.5659 58.3044 41.4712 56.7188 43.0967C55.3114 44.5494 55.0977 44.7223 55.3827 44.1343C56.3982 42.111 57.378 38.5659 57.7343 35.6607C58.055 32.8592 57.8768 27.948 57.2889 23.6939L57.182 22.9503L55.1689 25.4232C51.98 29.3487 50.5726 31.1991 49.1474 33.3261C46.5464 37.1998 45.7803 39.1539 45.2459 43.2524C44.7649 47.0396 45.5665 52.4177 46.7602 53.3688C47.0274 53.5764 47.1343 53.5591 47.5797 53.2478C47.8647 53.0403 48.1497 52.8673 48.2032 52.8673C48.2566 52.8673 47.7044 53.6628 46.9739 54.6312C45.6022 56.4989 42.5736 61.1334 41.4512 63.1049C41.0771 63.762 40.7564 64.2808 40.7386 64.2808C40.703 64.2808 40.7564 63.8658 40.8633 63.3643C40.9524 62.8801 41.0415 61.0643 41.0415 59.3523C41.0415 54.8215 40.7386 53.3343 37.9595 44.7742C37.229 42.5606 36.5877 40.814 36.5342 40.8832C36.4095 41.0216 34.7705 45.9155 33.4344 50.1004C32.5614 52.85 31.4391 57.1214 31.0828 59.0929C30.8868 60.1477 30.7621 61.6695 30.7621 63.3297C30.7621 66.2176 31.065 67.8259 32.1161 70.2296C32.7218 71.5958 34.9309 75.5732 35.1268 75.6597C35.1981 75.6943 35.0556 76.2303 34.8062 76.8702C34.0401 78.7897 32.3299 83.822 31.9735 85.1536C31.7954 85.8453 31.5994 86.416 31.5282 86.416C31.4569 86.416 31.35 86.0528 31.2788 85.5859C31.1006 84.3581 29.4972 79.8619 28.4283 77.5619C27.9117 76.4379 27.11 75.0371 26.6646 74.4146C26.2192 73.792 24.9366 71.8206 23.8142 70.0394C21.231 65.8718 20.8569 65.7334 20.8569 68.8635C20.8569 69.6244 20.7678 71.4574 20.6787 72.9274C19.8414 85.2746 20.3224 90.134 22.7809 94.8031C23.7964 96.7054 25.5066 98.4693 27.4307 99.5587C28.7312 100.302 28.7312 100.32 28.6243 100.942C28.3571 102.55 27.9651 107.375 27.8582 110.315L27.7513 113.566L26.8784 111.975C25.7204 109.9 23.6004 106.58 22.2286 104.747C20.2333 102.049 19.0397 100.769 17.0444 99.2129C15.9577 98.3655 14.5147 97.2415 13.8555 96.7227C12.0918 95.3219 11.7533 95.4257 12.1987 97.1896C12.3412 97.7776 12.8757 100.441 13.3745 103.104C14.7463 110.54 15.6548 113.756 17.4007 117.353C19.5742 121.832 23.1016 125.343 27.6445 127.591L28.6599 128.075L28.8559 129.51C29.2835 132.398 30.2098 137.016 30.8334 139.402C31.0115 140.077 31.1362 140.647 31.1184 140.664C31.0828 140.699 30.7977 140.353 30.4771 139.921C29.4438 138.52 27.4129 136.67 25.667 135.528C24.7406 134.923 22.7809 133.609 21.3023 132.589C17.0801 129.683 10.4528 125.498 10.0787 125.498C9.81146 125.498 10.1678 126.328 12.0384 130.15C14.8888 135.995 18.0064 141.927 19.3426 144.089C22.5671 149.328 27.2347 152.96 33.2919 154.983C34.3073 155.312 35.4297 155.588 35.7682 155.588C36.3561 155.588 36.4095 155.64 36.8549 156.678C37.5319 158.252 41.3443 165.515 42.2173 166.881C43.0011 168.126 42.9655 168.143 41.7541 167.244C39.8122 165.809 35.9285 163.716 32.704 162.35C30.2989 161.33 28.5708 160.776 25.5957 160.085C24.3308 159.791 22.1752 159.151 20.8212 158.701C17.1691 157.439 17.0266 157.681 19.5742 160.707C20.5184 161.849 22.1218 163.82 23.1016 165.1C25.4176 168.091 27.4485 170.27 29.9782 172.484C35.0378 176.911 37.2468 178.225 41.665 179.453C45.2993 180.473 47.1877 180.646 50.145 180.3L51.7306 180.11L52.1938 180.698C53.9753 182.912 58.2331 187.2 61.9209 190.503L63.3461 191.783L60.6382 190.451C57.5918 188.964 57.1286 188.843 51.2318 188.03C42.5914 186.837 33.47 186.111 32.3833 186.509C32.1161 186.63 32.1517 186.716 32.7396 187.252C34.0045 188.428 41.5937 193.789 44.4442 195.536C46.7067 196.919 48.8623 197.939 51.6771 198.96C56.701 200.775 58.732 201.139 63.0967 201.017C66.6953 200.914 67.8711 200.706 70.7394 199.599L72.806 198.804L75.2644 200.291C77.9367 201.917 82.2658 204.269 84.1008 205.099C87.0937 206.447 87.4322 206.62 86.7731 206.517C86.4346 206.465 84.2789 206.378 81.9986 206.309C76.3334 206.171 74.9972 206.326 65.9293 208.056C63.2392 208.575 59.5336 209.249 57.6987 209.578C53.7615 210.252 53.5121 210.442 55.7568 211.065C56.5229 211.272 59.3555 212.12 62.0278 212.932C71.1848 215.699 72.9663 216.011 79.2907 216.028C83.3525 216.028 84.0473 215.993 85.7576 215.63C89.8551 214.8 92.6343 213.52 95.1284 211.341C96.2329 210.373 96.7139 210.044 96.999 210.114C97.1949 210.148 98.5845 210.511 100.063 210.909C101.542 211.307 104.054 211.895 105.639 212.206C107.207 212.517 108.543 212.811 108.597 212.863C108.632 212.898 108.258 213.036 107.742 213.157C105.372 213.745 98.9408 216.668 89.4453 221.458C84.0651 224.173 82.4262 225.124 82.729 225.314C83.2813 225.66 92.4561 225.314 97.7294 224.744C104.232 224.052 112.587 221.233 116.008 218.57C117.273 217.584 118.591 216.305 119.927 214.783L120.568 214.039H124.221H127.891L130.438 216.408C134.838 220.489 135.533 220.853 143.425 223.17C147.95 224.501 149.304 224.709 158.052 225.297C165.908 225.833 166.407 225.833 166.407 225.262C166.407 224.83 161.686 222.357 158.746 221.25C157.82 220.905 156.288 220.144 155.362 219.556C152.939 218.034 150.926 216.979 148.503 215.941C146.294 215.008 140.361 213.002 139.827 213.002C139.649 213.002 139.506 212.95 139.506 212.863C139.506 212.794 140.326 212.587 141.341 212.414C143.497 212.033 147.933 210.961 150.516 210.2C151.513 209.906 152.351 209.699 152.386 209.733C152.404 209.768 152.547 210.027 152.689 210.321C153.58 211.999 159.548 214.99 163.557 215.751C166.674 216.356 173.319 216.305 176.74 215.682C179.822 215.094 190.742 211.86 192.417 211.013C193.148 210.65 193.112 210.148 192.381 209.906C191.455 209.629 185.22 208.402 180.837 207.658C173.711 206.43 171.627 206.188 168.01 206.188C164.821 206.188 164.038 206.275 159.851 207.035C159.584 207.087 159.78 206.949 160.261 206.741C164.501 204.943 171.057 201.432 175.261 198.683C177.345 197.317 177.417 197.299 177.203 197.836C176.775 198.839 177.274 199.444 179.091 200.101C181.158 200.862 183.135 201.139 186.36 201.139C189.585 201.139 190.867 200.948 194.288 199.945C197.405 199.029 199.81 197.974 202.768 196.227C207.703 193.322 214.508 188.791 215.559 187.684C216.093 187.131 215.951 186.768 215.131 186.612C214.08 186.422 202.501 187.269 198.207 187.857C192.952 188.566 188.159 190.036 184.578 192.06L183.599 192.613L184.578 191.783C188.444 188.515 192.275 184.727 195.695 180.802C196.657 179.695 196.728 179.643 197.103 179.868C198.759 180.871 203.338 180.542 208.077 179.072C210.428 178.346 211.907 177.585 214.419 175.839C220.298 171.757 222.543 169.561 226.052 164.477C227.531 162.333 228.724 160.949 230.061 159.894C231.308 158.891 231.628 158.425 231.236 158.165C230.898 157.94 230.15 158.079 227.424 158.874C226.159 159.237 223.95 159.825 222.525 160.188C219.87 160.846 217.911 161.503 215.577 162.558C212.37 163.993 208.094 166.552 205.44 168.627C203.997 169.751 203.961 169.769 204.371 169.129C206.562 165.688 210.001 159.341 211.212 156.488C211.479 155.865 211.729 155.537 211.871 155.588C213.207 156.038 218.196 154.188 221.848 151.87C224.021 150.47 227.121 147.582 228.279 145.818C230.47 142.48 236.652 130.531 237.775 127.453C238.291 126.035 238.024 126.017 235.868 127.262C233.356 128.732 225.536 133.782 223.237 135.442C221.117 136.981 218.516 139.419 217.305 141.045C216.842 141.65 216.468 142.1 216.468 142.065C216.468 142.013 216.699 141.097 217.002 140.007C217.643 137.569 218.481 133.592 218.962 130.513C219.176 129.234 219.354 128.179 219.371 128.179C219.389 128.162 219.728 128.058 220.138 127.954C221.171 127.66 224.591 125.637 225.892 124.547C228.137 122.628 229.74 120.553 231.272 117.544C232.982 114.206 234.069 110.54 235.174 104.366C235.565 102.153 236.153 99.3512 236.456 98.158C237.222 95.1144 237.026 94.7858 235.227 96.2385C232.929 98.1234 226.48 104.885 224.306 107.704C222.988 109.416 221.741 111.543 220.921 113.445L220.262 114.95L220.155 111.197C220.048 107.911 219.728 103.675 219.389 101.081C219.282 100.32 219.3 100.285 219.639 100.372C220.334 100.544 221.67 99.7144 223.433 98.0197C224.93 96.567 225.251 96.152 225.945 94.7167C227.353 91.846 228.083 89.0445 228.404 85.2573C228.707 81.6085 228.618 78.6168 227.958 70.5063C227.531 65.3011 227.816 65.4567 225.482 69.1402C221.741 75.0717 218.908 80.2769 218.053 82.8709C217.732 83.8739 217.643 84.6002 217.572 87.1596C217.537 88.8543 217.465 90.2205 217.43 90.1859C217.394 90.1513 217.091 89.0272 216.735 87.713C215.933 84.6867 214.259 79.5852 213.101 76.68C212.513 75.1927 212.334 74.5529 212.53 74.7258C213.332 75.4349 214.241 74.7258 215.488 72.374C216.414 70.6274 217.554 67.4281 218 65.3184C218.516 62.7936 218.142 60.0786 216.361 53.6455C215.452 50.3598 213.029 43.114 212.726 42.7509C212.139 42.0591 211.283 43.5982 209.342 48.8035C208.469 51.1726 208.255 52.4523 208.059 57.035C207.916 60.1823 207.899 62.1192 208.041 63.6928C208.13 64.9206 208.201 65.9409 208.184 65.9755C208.148 66.0101 207.685 65.2146 207.15 64.2289C205.102 60.5282 202.055 55.9109 199.383 52.4523C197.975 50.6192 197.922 50.2907 199.276 51.6568C199.668 52.0546 200.381 52.6598 200.862 53.0057L201.734 53.6282L202.144 53.1613C202.999 52.1929 203.516 49.3741 203.516 45.6907C203.516 39.69 201.948 35.9028 196.8 29.4352C195.784 28.1555 191.705 23.2961 191.134 22.6909C190.974 22.5179 191.063 26.3743 191.366 33.8622C191.526 38.1336 191.776 40.105 192.328 41.7133C192.667 42.6817 193.931 45.293 194.644 46.4689C194.911 46.9012 195 47.0914 194.84 46.9185C192.898 44.6012 187.732 39.5689 184.881 37.1652C184.276 36.6637 184.222 36.5772 184.472 36.3351C184.97 35.8682 185.184 34.6577 185.184 32.4615C185.184 29.954 184.953 28.8645 184.097 27.1871C182.548 24.1608 178.913 20.0969 175.172 17.2089C172.945 15.4969 168.58 12.7473 168.064 12.7473C167.529 12.7473 168.046 15.5142 169.525 20.339C170.665 24.0743 171.413 25.5096 173.693 28.3803C174.495 29.3833 174.566 29.5389 174.139 29.2622C173.854 29.0893 172.5 28.3457 171.128 27.6021C168.01 25.942 165.481 24.5239 165.267 24.3337C165.178 24.2472 165.035 23.6939 164.946 23.0886C164.608 20.7021 162.594 17.7969 159.94 15.8428C157.446 14.0097 155.094 13.1105 146.472 10.6548C143.728 9.87666 143.247 9.82478 143.247 10.3263C143.247 11.0872 148.039 17.2781 151.032 20.3563C153.491 22.8984 156.876 24.7314 160.421 25.475C161.561 25.6999 161.953 25.9247 165.374 28.2592C167.405 29.6427 169.061 30.8186 169.026 30.8532C168.99 30.8705 168.046 30.8359 166.941 30.7494C164.501 30.5592 162.345 30.7322 159.495 31.3547C156.911 31.9081 153.295 32.963 151.175 33.7584C146.632 35.4705 147.149 35.7472 156.876 36.7847C159.619 37.0787 161.989 37.3554 162.131 37.39C162.274 37.4419 163.877 37.5456 165.677 37.6494C169.311 37.8569 174.905 37.6321 176.918 37.2344L178.076 36.9923L180.125 38.6178C181.247 39.4998 182.69 40.693 183.331 41.2464L184.489 42.284L182.886 41.8689C179.661 41.0388 177.737 40.8486 172.464 40.8659C167.137 40.8832 166.015 41.0216 165.908 41.7306C165.837 42.2494 166.282 42.5434 168.723 43.5809C169.952 44.0997 172.749 45.3621 174.958 46.3824C178.913 48.2155 182.833 49.7892 184.792 50.3425C186.289 50.7576 189.602 51.2764 191.669 51.4147L193.522 51.5358L195.392 53.9049C196.408 55.2192 197.744 56.9831 198.35 57.8132C199.294 59.1447 199.383 59.3004 198.92 59.0064C194.983 56.4816 186.307 53.4207 182.156 53.0921C180.802 52.9884 180.499 53.1267 180.819 53.7147C181.176 54.3373 193.807 64.7131 196.354 66.4597C200.006 68.9845 204.246 71.3364 205.85 71.7341L206.651 71.9244L207.489 73.7747C208.344 75.6424 210.589 81.2972 210.589 81.5739C210.589 81.6604 209.68 80.8303 208.593 79.7235C206.081 77.2333 204.068 75.7461 200.683 73.8612C195.659 71.0597 192.417 69.6935 192.417 70.368C192.417 70.7311 193.29 71.9589 194.573 73.3597C196.711 75.7461 199.312 79.4814 201.574 83.4589C202.144 84.4446 202.892 85.6551 203.267 86.1393C205.404 88.9408 209.431 92.728 212.406 94.7513C213.279 95.3565 214.116 95.9099 214.259 96.0137C214.65 96.2731 215.417 101.496 215.915 107.168C215.987 108.067 216.04 108.828 216.022 108.862C216.004 108.88 215.719 108.188 215.399 107.306C214.633 105.127 213.475 103 212.281 101.547C211.034 100.043 201.164 90.134 200.897 90.134C200.523 90.134 200.755 91.2062 202.02 95.4084C204.656 104.107 206.384 108.69 208.629 112.961C210.41 116.385 212.584 119.498 214.864 121.919L215.808 122.922L215.684 124.34C215.399 127.47 214.205 135.01 213.973 135.01C213.902 135.01 213.795 134.525 213.742 133.92C213.403 130.41 211.372 125.965 206.527 118.149C204.514 114.88 203.498 113.532 203.142 113.601C202.696 113.687 202.679 115.209 203.017 120.743C203.623 130.894 204.157 136.514 204.745 138.728C205.547 141.875 207.845 146.821 209.359 148.688L209.858 149.311L208.825 151.801C207.15 155.813 203.997 162.194 203.997 161.555C203.997 161.451 204.086 160.258 204.175 158.891C204.531 153.755 203.498 146.821 201.485 140.976C200.701 138.676 200.078 137.604 199.543 137.604C199.062 137.604 198.884 138.019 198.742 139.592C198.581 141.373 197.975 144.434 196.782 149.536C194.822 157.871 194.466 160.258 194.608 164.373C194.715 167.469 194.911 168.524 196.016 171.619L196.586 173.21L195.054 175.164C193.468 177.188 190.101 181.061 189.727 181.286C189.567 181.372 189.549 181.286 189.638 180.992C189.87 180.162 190.457 176.565 190.636 174.801C190.903 172.19 190.849 166.379 190.547 162.592C190.386 160.794 190.244 159.22 190.208 159.134C190.172 159.03 189.531 160.171 188.765 161.641C186.681 165.688 183.955 170.495 182.583 172.588C179.109 177.897 178.307 180.802 177.88 189.569L177.773 192.008L176.668 192.786C174.246 194.55 168.723 198.129 168.456 198.129C168.402 198.129 168.687 197.628 169.079 197.023C171.039 194.031 172.999 189.137 173.961 184.848C174.353 183.136 175.136 178.191 175.029 178.087C174.905 177.948 165.356 187.252 162.612 190.175C157.375 195.778 155.076 199.617 154.56 203.681L154.435 204.649L152.012 205.444C150.053 206.084 145.189 207.468 144.904 207.468C144.868 207.468 145.634 206.69 146.614 205.738C150.32 202.142 153.847 196.902 154.702 193.72C155.29 191.472 155.54 191.558 152.565 193.011C150.213 194.135 148.004 195.051 143.336 196.781C142.552 197.075 140.949 197.784 139.773 198.372C137.849 199.323 137.457 199.599 135.836 201.156C132.879 204.026 130.402 207.589 130.349 209.024L130.331 209.664L129.013 209.785C127.018 209.941 119.446 209.906 118.983 209.733C118.698 209.629 118.448 209.249 118.146 208.488C117.576 207.001 116.471 204.857 115.776 203.871C114.85 202.539 112.801 200.672 111.126 199.617C109.309 198.458 107.171 197.455 104.054 196.314C99.8672 194.792 95.9301 193.045 93.9169 191.869L93.329 191.506L93.4537 192.094C94.3623 196.054 97.6759 201.087 102.539 205.877C103.626 206.949 104.392 207.779 104.25 207.744C104.089 207.693 102.842 207.381 101.471 207.035C100.099 206.69 97.8897 206.067 96.5536 205.635L94.1307 204.874L94.006 203.784C93.5072 199.478 92.0998 196.884 87.3788 191.731C85.6863 189.898 73.7502 177.862 73.6789 177.931C73.5186 178.069 74.5518 183.534 75.1932 185.972C76.6362 191.541 78.2752 195.397 80.4843 198.441C80.7337 198.787 80.6268 198.752 79.6292 198.199C78.1149 197.351 73.8392 194.619 72.1112 193.374C71.1135 192.665 70.7394 192.302 70.8285 192.111C70.8819 191.973 71.0244 191.247 71.1135 190.538C71.6123 187.166 70.5434 181.874 68.3343 176.755C67.4436 174.697 66.8201 173.573 65.0207 170.685C63.8449 168.818 60.9767 163.647 59.5871 160.897C59.213 160.171 58.821 159.566 58.6963 159.566C58.3757 159.566 58.2688 161.9 58.2688 168.991C58.2688 177.654 58.3935 178.969 59.6227 182.566C59.8009 183.067 55.8993 178.83 53.4052 175.77L51.8731 173.919L52.3185 172.933C53.2627 170.858 54.1713 165.912 54.1713 162.8C54.1713 159.808 53.5299 156.021 51.6059 147.685C50.4301 142.584 49.7709 139.195 49.6818 137.777C49.6462 137.189 49.5571 136.981 49.3077 136.946C49.0761 136.895 48.8267 137.223 48.3101 138.33C47.1699 140.699 45.8872 145.489 44.7827 151.438C44.1591 154.862 44.1235 158.563 44.6936 161.641C44.9074 162.73 45.0321 163.647 45.0143 163.682C44.9786 163.699 44.0344 161.952 42.9121 159.791C41.1127 156.315 39.1709 152.078 38.4761 150.193L38.2623 149.57L39.349 148.395C41.2018 146.44 43.5356 141.408 44.1057 138.157C44.8361 133.989 46.2079 115.434 45.8694 114.396C45.7269 113.947 45.4062 114.016 44.8005 114.638C42.7874 116.731 37.2825 126.259 36.1067 129.666C35.4831 131.482 34.9487 134.266 34.8062 136.341C34.7527 137.327 34.6636 138.105 34.628 138.071C34.343 137.777 32.8465 129.372 32.4189 125.637L32.2051 123.769L32.6683 123.423C33.9688 122.42 39.7053 114.396 41.0058 111.75C42.5201 108.672 48.1497 91.2926 47.9003 90.5317C47.7934 90.2551 45.3349 92.434 41.7897 95.9445C35.5366 102.101 34.1648 104.245 32.0983 110.972C31.5994 112.563 32.2408 104.193 33.0068 99.161L33.3809 96.6016L34.1114 96.2385C35.3584 95.6332 38.1198 93.5407 39.8835 91.8806C43.1793 88.7851 45.4953 85.9145 49.86 79.4987C51.3743 77.2679 53.3874 74.4146 54.3494 73.1695C55.3114 71.9244 56.1844 70.7311 56.2913 70.5409C56.5763 70.0394 56.5407 69.6417 56.22 69.6417C55.4896 69.6417 48.8267 73.2732 44.5511 76.0228C42.4311 77.3717 39.545 79.9138 38.1198 81.6777C37.6922 82.2138 37.1934 82.819 37.0331 83.0265C36.463 83.701 39.6341 75.3657 40.8633 72.9274C41.2196 72.2529 41.3443 72.1319 42.1282 71.9416C43.2684 71.665 46.2613 70.2642 48.6486 68.8635C52.5145 66.5981 56.1488 63.9522 59.7831 60.753C60.9589 59.7154 62.8829 58.0899 64.0587 57.1387C67.1764 54.6312 67.9246 53.9222 67.8533 53.4899C67.7821 52.9711 67.016 52.9538 64.7713 53.3861C58.9814 54.5275 53.815 56.5508 49.5571 59.3696C48.6486 59.9748 47.8647 60.4763 47.8291 60.4763C47.544 60.4763 53.5477 52.435 54.2782 51.8125C54.5454 51.5876 55.1689 51.5012 56.9326 51.432C62.0634 51.2072 66.4994 49.9102 73.0554 46.7283C74.6765 45.9501 77.2419 44.7742 78.7562 44.1343C80.2705 43.4945 81.7848 42.7682 82.1055 42.5434C83.7623 41.3328 81.8026 40.7622 75.9949 40.7622C70.9175 40.7622 66.4103 41.3674 63.453 42.4569C63.061 42.5952 66.25 39.8629 68.459 38.1509C69.6705 37.2171 70.3475 36.802 70.5434 36.8712C71.4876 37.2344 73.9996 37.6667 75.9949 37.8396C78.8631 38.0644 81.8382 37.8742 88.9109 37.0441C91.7079 36.6983 95.2709 36.3351 96.8386 36.2141C99.6356 35.9893 100.58 35.7644 100.437 35.3494C100.152 34.5021 94.2554 32.3231 89.8016 31.4239C86.3099 30.7322 81.3929 30.5592 78.7562 31.0607C78.3108 31.1472 77.9367 31.1991 77.9011 31.1818C77.8833 31.1472 79.4154 29.954 81.3038 28.5359L84.7421 25.9247L86.7018 25.7344C90.9774 25.3194 93.9526 23.7284 98.1926 19.63C100.58 17.3127 102.718 14.8571 104.054 12.8857C105.176 11.2601 105.426 10.603 105.105 10.2225C104.838 9.91124 104.749 9.92854 103.252 10.43Z" fill="white"/>
<path d="M74.8682 85.104C74.8575 84.9867 74.8522 84.8587 74.8522 84.72C74.8522 84.5813 74.8522 84.4213 74.8522 84.24C74.8522 83.7813 74.8629 83.2373 74.8842 82.608C74.9055 81.968 74.9375 81.2907 74.9802 80.576C75.0229 79.8507 75.0655 79.1253 75.1082 78.4C75.1509 77.664 75.1935 76.96 75.2362 76.288C75.2895 75.616 75.3375 75.0133 75.3802 74.48C75.1455 74.5547 74.9375 74.624 74.7562 74.688L74.3402 72C75.5455 71.6587 76.6655 71.4027 77.7002 71.232C78.7455 71.0613 79.6895 70.976 80.5322 70.976C82.2495 70.976 83.5615 71.3013 84.4682 71.952C85.3749 72.6027 85.8282 73.5467 85.8282 74.784C85.8282 75.488 85.6735 76.08 85.3642 76.56C85.0549 77.0293 84.6175 77.4187 84.0522 77.728C85.4389 78.432 86.1322 79.5787 86.1322 81.168C86.1322 81.872 85.9989 82.464 85.7322 82.944C85.4762 83.4133 85.1455 83.792 84.7402 84.08C84.3349 84.368 83.9029 84.5813 83.4442 84.72C82.9962 84.8693 82.5695 84.9653 82.1642 85.008C81.7695 85.0613 81.4602 85.088 81.2362 85.088C80.6815 85.088 80.0895 85.0347 79.4602 84.928C78.8309 84.8213 78.2175 84.6613 77.6202 84.448C77.6202 84.6613 77.6202 84.864 77.6202 85.056L74.8682 85.104ZM80.5962 73.648C80.2122 73.648 79.8069 73.6693 79.3802 73.712C78.9642 73.744 78.5482 73.7973 78.1322 73.872C78.0682 74.6507 78.0042 75.5573 77.9402 76.592C78.0789 76.6027 78.2175 76.608 78.3562 76.608C78.5055 76.608 78.6549 76.608 78.8042 76.608C81.6202 76.608 83.0282 76.032 83.0282 74.88C83.0282 74.496 82.8095 74.1973 82.3722 73.984C81.9455 73.76 81.3535 73.648 80.5962 73.648ZM79.1722 79.136C78.9482 79.136 78.7189 79.136 78.4842 79.136C78.2602 79.136 78.0309 79.1413 77.7962 79.152C77.7749 79.6213 77.7535 80.0907 77.7322 80.56C77.7215 81.0293 77.7055 81.4933 77.6842 81.952C78.2815 82.1333 78.8682 82.2667 79.4442 82.352C80.0202 82.4267 80.5162 82.464 80.9322 82.464C81.8175 82.464 82.4522 82.3573 82.8362 82.144C83.2202 81.92 83.4122 81.5573 83.4122 81.056C83.4122 80.4373 83.0442 79.9627 82.3082 79.632C81.5829 79.3013 80.5375 79.136 79.1722 79.136ZM92.4203 85.28C91.3963 85.28 90.495 85.0773 89.7163 84.672C88.9483 84.2773 88.3456 83.7227 87.9083 83.008C87.4816 82.2933 87.2683 81.4667 87.2683 80.528C87.2683 79.9627 87.3643 79.3707 87.5563 78.752C87.7483 78.1227 88.0576 77.536 88.4843 76.992C88.911 76.448 89.471 76.0053 90.1643 75.664C90.8683 75.3227 91.7216 75.152 92.7243 75.152C93.4496 75.152 94.0576 75.232 94.5483 75.392C95.0496 75.552 95.455 75.76 95.7643 76.016C96.0843 76.272 96.3243 76.544 96.4843 76.832C96.655 77.12 96.767 77.3973 96.8203 77.664C96.8843 77.92 96.9163 78.1333 96.9163 78.304C96.9163 79.3387 96.479 80.1387 95.6043 80.704C94.7403 81.2587 93.5136 81.536 91.9243 81.536C91.5616 81.536 91.215 81.52 90.8843 81.488C90.5643 81.456 90.2656 81.4187 89.9883 81.376C90.191 81.9093 90.527 82.304 90.9963 82.56C91.4656 82.8053 91.951 82.928 92.4523 82.928C93.1776 82.928 93.8176 82.8 94.3723 82.544C94.927 82.2773 95.4496 81.872 95.9403 81.328L97.3643 83.376C97.023 83.6533 96.639 83.9413 96.2123 84.24C95.7963 84.5387 95.2843 84.784 94.6763 84.976C94.0683 85.1787 93.3163 85.28 92.4203 85.28ZM92.7723 77.552C92.143 77.552 91.5883 77.712 91.1083 78.032C90.6283 78.352 90.2763 78.7733 90.0523 79.296C90.319 79.3387 90.5803 79.376 90.8363 79.408C91.103 79.4293 91.3643 79.44 91.6203 79.44C91.855 79.44 92.1216 79.4187 92.4203 79.376C92.7296 79.3333 93.0283 79.2693 93.3163 79.184C93.615 79.0987 93.8603 78.992 94.0523 78.864C94.2443 78.7253 94.3403 78.5653 94.3403 78.384C94.3403 78.2987 94.2976 78.192 94.2123 78.064C94.127 77.936 93.9723 77.8187 93.7483 77.712C93.5243 77.6053 93.199 77.552 92.7723 77.552ZM103.308 85.328C102.583 85.328 101.911 85.2427 101.292 85.072C100.673 84.9013 100.113 84.6827 99.6119 84.416C99.1106 84.1493 98.6626 83.8667 98.2679 83.568L99.7079 81.248C100.156 81.664 100.588 81.984 101.004 82.208C101.42 82.432 101.852 82.5867 102.3 82.672C102.759 82.7573 103.255 82.8 103.788 82.8C104.247 82.8 104.615 82.7413 104.892 82.624C105.169 82.496 105.308 82.336 105.308 82.144C105.308 81.984 105.175 81.8613 104.908 81.776C104.641 81.68 104.3 81.6 103.884 81.536C103.468 81.4613 103.031 81.3707 102.572 81.264C101.921 81.0933 101.313 80.896 100.748 80.672C100.183 80.448 99.7239 80.144 99.3719 79.76C99.0306 79.376 98.8599 78.864 98.8599 78.224C98.8599 77.712 98.9826 77.264 99.2279 76.88C99.4733 76.4853 99.7986 76.16 100.204 75.904C100.62 75.6373 101.089 75.44 101.612 75.312C102.135 75.184 102.673 75.12 103.228 75.12C104.188 75.12 105.015 75.2373 105.708 75.472C106.412 75.696 107.084 75.9947 107.724 76.368L106.268 78.576C105.948 78.352 105.58 78.16 105.164 78C104.759 77.8293 104.348 77.7013 103.932 77.616C103.527 77.52 103.148 77.472 102.796 77.472C102.412 77.472 102.108 77.5307 101.884 77.648C101.671 77.7653 101.564 77.9307 101.564 78.144C101.564 78.272 101.697 78.3947 101.964 78.512C102.241 78.6187 102.764 78.7627 103.532 78.944C103.991 79.0507 104.476 79.1627 104.988 79.28C105.5 79.3867 105.98 79.5413 106.428 79.744C106.887 79.936 107.255 80.2187 107.532 80.592C107.82 80.9547 107.964 81.44 107.964 82.048C107.964 83.072 107.553 83.872 106.732 84.448C105.911 85.0347 104.769 85.328 103.308 85.328ZM113.998 85.264C113.358 85.264 112.851 85.1253 112.478 84.848C112.104 84.5813 111.832 84.208 111.662 83.728C111.491 83.248 111.379 82.6987 111.326 82.08C111.283 81.4613 111.262 80.8107 111.262 80.128C111.262 79.424 111.288 78.6933 111.342 77.936C110.627 78.032 109.939 78.1547 109.278 78.304L108.782 75.792C109.667 75.5573 110.611 75.3867 111.614 75.28C111.688 74.736 111.768 74.1653 111.854 73.568C111.939 72.96 112.035 72.32 112.142 71.648L114.894 71.888C114.766 72.4427 114.654 72.9973 114.558 73.552C114.462 74.096 114.376 74.624 114.302 75.136C114.899 75.136 115.459 75.152 115.982 75.184C116.515 75.2053 117.006 75.248 117.454 75.312L117.134 77.824C116.76 77.7813 116.371 77.7547 115.966 77.744C115.571 77.7227 115.171 77.712 114.766 77.712C114.52 77.712 114.275 77.7173 114.03 77.728C113.966 78.5067 113.923 79.1733 113.902 79.728C113.891 80.2827 113.886 80.6773 113.886 80.912C113.886 81.4987 113.918 81.92 113.982 82.176C114.056 82.432 114.174 82.56 114.334 82.56C114.515 82.56 114.718 82.5013 114.942 82.384C115.166 82.256 115.384 82.0853 115.598 81.872C115.822 81.6587 116.008 81.4293 116.158 81.184L117.39 83.76C116.334 84.7627 115.203 85.264 113.998 85.264ZM128.053 84.752C126.943 84.752 126.01 84.5547 125.253 84.16C124.495 83.776 123.887 83.264 123.429 82.624C122.981 81.984 122.655 81.2853 122.453 80.528C122.25 79.7707 122.149 79.0187 122.149 78.272C122.149 77.3867 122.293 76.512 122.581 75.648C122.869 74.784 123.301 74 123.877 73.296C124.463 72.592 125.189 72.0267 126.053 71.6C126.927 71.1733 127.946 70.96 129.109 70.96C130.09 70.96 130.949 71.104 131.685 71.392C132.421 71.6693 133.05 72.0107 133.573 72.416C134.106 72.8107 134.533 73.184 134.853 73.536L132.853 75.696C132.554 75.344 132.234 75.0133 131.893 74.704C131.562 74.3947 131.167 74.144 130.709 73.952C130.25 73.76 129.685 73.664 129.013 73.664C128.287 73.664 127.663 73.7973 127.141 74.064C126.618 74.32 126.191 74.6667 125.861 75.104C125.53 75.5413 125.285 76.032 125.125 76.576C124.975 77.12 124.901 77.68 124.901 78.256C124.901 78.9387 125.013 79.568 125.237 80.144C125.471 80.72 125.818 81.184 126.277 81.536C126.746 81.888 127.327 82.064 128.021 82.064C128.874 82.064 129.578 81.8667 130.133 81.472C130.687 81.0773 131.071 80.512 131.285 79.776C130.826 79.808 130.383 79.8507 129.957 79.904C129.541 79.9467 129.167 79.9947 128.837 80.048L128.565 77.456C129.194 77.3173 129.919 77.216 130.741 77.152C131.573 77.0773 132.367 77.04 133.125 77.04C134.17 77.04 134.954 77.104 135.477 77.232L135.413 79.856C135.189 79.792 134.831 79.744 134.341 79.712C134.341 79.9467 134.341 80.192 134.341 80.448C134.351 80.704 134.357 80.9653 134.357 81.232C134.357 81.968 134.346 82.6933 134.325 83.408C134.303 84.1227 134.282 84.6933 134.261 85.12L131.525 85.056C131.535 84.9173 131.551 84.704 131.573 84.416C131.605 84.128 131.637 83.8027 131.669 83.44C131.306 83.824 130.831 84.1387 130.245 84.384C129.669 84.6293 128.938 84.752 128.053 84.752ZM140.964 85.264C140.164 85.264 139.438 85.056 138.788 84.64C138.137 84.2347 137.62 83.6853 137.236 82.992C136.862 82.288 136.676 81.504 136.676 80.64C136.676 79.8293 136.825 79.0987 137.124 78.448C137.422 77.7867 137.828 77.2213 138.34 76.752C138.862 76.2827 139.454 75.9253 140.116 75.68C140.777 75.424 141.47 75.296 142.196 75.296C142.804 75.296 143.401 75.3813 143.988 75.552C144.03 75.328 144.068 75.104 144.1 74.88L146.836 75.344C146.761 75.5467 146.686 75.8507 146.612 76.256C146.537 76.6613 146.473 77.1147 146.42 77.616C146.377 78.1173 146.34 78.6187 146.308 79.12C146.276 79.6213 146.26 80.0747 146.26 80.48C146.26 80.8107 146.281 81.136 146.324 81.456C146.377 81.7653 146.484 82.0213 146.644 82.224C146.804 82.416 147.049 82.512 147.38 82.512H147.604L147.204 85.296C146.5 85.296 145.918 85.1733 145.46 84.928C145.001 84.6933 144.633 84.3733 144.356 83.968C143.897 84.48 143.374 84.8213 142.788 84.992C142.201 85.1733 141.593 85.264 140.964 85.264ZM139.3 80.96C139.353 81.472 139.561 81.8827 139.924 82.192C140.297 82.4907 140.766 82.64 141.332 82.64C141.876 82.64 142.329 82.496 142.692 82.208C143.054 81.9093 143.353 81.504 143.588 80.992C143.577 80.8213 143.572 80.6453 143.572 80.464C143.572 80.0907 143.582 79.7067 143.604 79.312C143.625 78.9173 143.652 78.528 143.684 78.144C143.236 77.9733 142.766 77.888 142.276 77.888C141.7 77.888 141.182 78.0053 140.724 78.24C140.276 78.464 139.924 78.7787 139.668 79.184C139.412 79.5893 139.284 80.0587 139.284 80.592C139.284 80.656 139.284 80.72 139.284 80.784C139.284 80.848 139.289 80.9067 139.3 80.96ZM148.604 85.248C148.593 85.088 148.583 84.8213 148.572 84.448C148.561 84.0853 148.551 83.648 148.54 83.136C148.529 82.624 148.524 82.0747 148.524 81.488C148.524 80.8907 148.524 80.2933 148.524 79.696C148.524 79.0347 148.524 78.4053 148.524 77.808C148.535 77.2107 148.54 76.6933 148.54 76.256C148.551 75.8187 148.556 75.504 148.556 75.312L151.26 75.264C151.239 75.5627 151.223 75.9253 151.212 76.352C151.489 75.9787 151.809 75.6853 152.172 75.472C152.535 75.2587 152.951 75.152 153.42 75.152C153.985 75.152 154.449 75.3173 154.812 75.648C155.185 75.9787 155.489 76.4107 155.724 76.944C156.492 75.7493 157.436 75.152 158.556 75.152C159.185 75.152 159.703 75.2907 160.108 75.568C160.524 75.8347 160.849 76.1973 161.084 76.656C161.319 77.1147 161.489 77.632 161.596 78.208C161.713 78.784 161.788 79.376 161.82 79.984C161.852 80.592 161.868 81.1787 161.868 81.744C161.868 82.416 161.857 83.0293 161.836 83.584C161.815 84.1387 161.809 84.6667 161.82 85.168H159.052C159.052 84.912 159.052 84.5867 159.052 84.192C159.052 83.808 159.052 83.4187 159.052 83.024C159.063 82.6187 159.068 82.272 159.068 81.984C159.068 81.6853 159.068 81.5093 159.068 81.456C159.068 80.816 159.052 80.2133 159.02 79.648C158.988 79.0827 158.908 78.624 158.78 78.272C158.652 77.92 158.444 77.744 158.156 77.744C157.879 77.744 157.633 77.8773 157.42 78.144C157.207 78.4107 157.015 78.7573 156.844 79.184C156.684 79.6107 156.545 80.064 156.428 80.544C156.449 80.96 156.465 81.376 156.476 81.792C156.487 82.1973 156.492 82.592 156.492 82.976C156.492 83.4133 156.487 83.792 156.476 84.112C156.476 84.4427 156.476 84.7947 156.476 85.168H153.788C153.788 84.304 153.783 83.5413 153.772 82.88C153.761 82.2187 153.74 81.5787 153.708 80.96C153.655 79.8507 153.537 79.04 153.356 78.528C153.185 78.0053 152.945 77.744 152.636 77.744C152.295 77.744 152.007 77.952 151.772 78.368C151.537 78.7733 151.345 79.2693 151.196 79.856C151.207 80.7093 151.228 81.6 151.26 82.528C151.292 83.456 151.335 84.352 151.388 85.216L148.604 85.248ZM168.092 85.28C167.068 85.28 166.167 85.0773 165.388 84.672C164.62 84.2773 164.018 83.7227 163.58 83.008C163.154 82.2933 162.94 81.4667 162.94 80.528C162.94 79.9627 163.036 79.3707 163.228 78.752C163.42 78.1227 163.73 77.536 164.156 76.992C164.583 76.448 165.143 76.0053 165.836 75.664C166.54 75.3227 167.394 75.152 168.396 75.152C169.122 75.152 169.73 75.232 170.22 75.392C170.722 75.552 171.127 75.76 171.436 76.016C171.756 76.272 171.996 76.544 172.156 76.832C172.327 77.12 172.439 77.3973 172.492 77.664C172.556 77.92 172.588 78.1333 172.588 78.304C172.588 79.3387 172.151 80.1387 171.276 80.704C170.412 81.2587 169.186 81.536 167.596 81.536C167.234 81.536 166.887 81.52 166.556 81.488C166.236 81.456 165.938 81.4187 165.66 81.376C165.863 81.9093 166.199 82.304 166.668 82.56C167.138 82.8053 167.623 82.928 168.124 82.928C168.85 82.928 169.49 82.8 170.044 82.544C170.599 82.2773 171.122 81.872 171.612 81.328L173.036 83.376C172.695 83.6533 172.311 83.9413 171.884 84.24C171.468 84.5387 170.956 84.784 170.348 84.976C169.74 85.1787 168.988 85.28 168.092 85.28ZM168.444 77.552C167.815 77.552 167.26 77.712 166.78 78.032C166.3 78.352 165.948 78.7733 165.724 79.296C165.991 79.3387 166.252 79.376 166.508 79.408C166.775 79.4293 167.036 79.44 167.292 79.44C167.527 79.44 167.794 79.4187 168.092 79.376C168.402 79.3333 168.7 79.2693 168.988 79.184C169.287 79.0987 169.532 78.992 169.724 78.864C169.916 78.7253 170.012 78.5653 170.012 78.384C170.012 78.2987 169.97 78.192 169.884 78.064C169.799 77.936 169.644 77.8187 169.42 77.712C169.196 77.6053 168.871 77.552 168.444 77.552ZM65.4466 108.136L62.7106 107.624C63.2226 105.555 63.756 103.683 64.3106 102.008C64.876 100.333 65.4573 98.8987 66.0546 97.704C66.652 96.5093 67.26 95.592 67.8786 94.952C68.508 94.3013 69.1373 93.976 69.7666 93.976C71.036 93.976 72.204 95.1547 73.2706 97.512C74.3373 99.8587 75.244 103.261 75.9906 107.72L73.1586 108.104C73.0306 107.4 72.892 106.68 72.7426 105.944C72.5933 105.197 72.4386 104.472 72.2786 103.768C72.0226 103.757 71.7453 103.752 71.4466 103.752C70.924 103.752 70.3693 103.763 69.7826 103.784C69.2066 103.805 68.636 103.843 68.0706 103.896C67.516 103.939 66.9986 103.987 66.5186 104.04C66.316 104.723 66.1186 105.416 65.9266 106.12C65.7453 106.813 65.5853 107.485 65.4466 108.136ZM68.3906 98.792C68.156 99.2933 67.8413 100.104 67.4466 101.224C67.9053 101.171 68.3906 101.133 68.9026 101.112C69.4146 101.08 69.916 101.064 70.4066 101.064C70.8226 101.064 71.2226 101.075 71.6066 101.096C71.4573 100.552 71.3133 100.067 71.1746 99.64C71.0466 99.2133 70.9293 98.8773 70.8226 98.632C70.5986 98.056 70.4013 97.6507 70.2306 97.416C70.06 97.1707 69.884 97.048 69.7026 97.048C69.5106 97.048 69.3186 97.176 69.1266 97.432C68.9346 97.6773 68.6893 98.1307 68.3906 98.792ZM80.6013 108.312C79.7159 108.312 78.9639 107.624 78.3453 106.248C78.1319 105.757 77.9453 105.219 77.7853 104.632C77.6253 104.045 77.4866 103.448 77.3693 102.84C77.2626 102.232 77.1719 101.651 77.0973 101.096C77.0333 100.531 76.9799 100.035 76.9373 99.608C76.9053 99.1707 76.8786 98.84 76.8573 98.616L79.4813 98.008C79.6093 100.429 79.8013 102.269 80.0573 103.528C80.3239 104.787 80.5266 105.416 80.6653 105.416C80.7399 105.416 80.8306 105.267 80.9373 104.968C81.0546 104.669 81.1826 104.275 81.3213 103.784C81.4599 103.283 81.5933 102.733 81.7213 102.136C81.8493 101.539 81.9613 100.936 82.0573 100.328C81.9293 99.5493 81.8439 98.9307 81.8013 98.472L84.5052 98.376V98.568C84.5052 99.0053 84.5373 99.5173 84.6013 100.104C84.6653 100.691 84.7453 101.299 84.8413 101.928C84.9373 102.547 85.0386 103.123 85.1453 103.656C85.2626 104.189 85.3746 104.621 85.4813 104.952C85.5879 105.283 85.6786 105.448 85.7533 105.448C85.8173 105.448 85.9079 105.304 86.0253 105.016C86.1426 104.728 86.2706 104.333 86.4093 103.832C86.5586 103.331 86.7079 102.76 86.8573 102.12C87.0066 101.469 87.1506 100.787 87.2893 100.072C87.4279 99.3467 87.5399 98.6267 87.6253 97.912L90.2653 98.472C90.0839 99.4853 89.8653 100.493 89.6093 101.496C89.3639 102.488 89.1026 103.411 88.8253 104.264C88.5479 105.107 88.2759 105.816 88.0093 106.392C87.4119 107.661 86.6706 108.296 85.7853 108.296C85.4973 108.296 85.1666 108.205 84.7933 108.024C84.4306 107.853 84.0946 107.491 83.7853 106.936C83.6786 106.733 83.5719 106.488 83.4653 106.2C83.3586 105.912 83.2573 105.592 83.1613 105.24C83.0333 105.635 82.9053 105.987 82.7773 106.296C82.2119 107.64 81.4866 108.312 80.6013 108.312ZM95.6121 108.264C94.8121 108.264 94.0868 108.056 93.4361 107.64C92.7855 107.235 92.2681 106.685 91.8841 105.992C91.5108 105.288 91.3241 104.504 91.3241 103.64C91.3241 102.829 91.4735 102.099 91.7721 101.448C92.0708 100.787 92.4761 100.221 92.9881 99.752C93.5108 99.2827 94.1028 98.9253 94.7641 98.68C95.4255 98.424 96.1188 98.296 96.8441 98.296C97.4521 98.296 98.0495 98.3813 98.6361 98.552C98.6788 98.328 98.7161 98.104 98.7481 97.88L101.484 98.344C101.409 98.5467 101.335 98.8507 101.26 99.256C101.185 99.6613 101.121 100.115 101.068 100.616C101.025 101.117 100.988 101.619 100.956 102.12C100.924 102.621 100.908 103.075 100.908 103.48C100.908 103.811 100.929 104.136 100.972 104.456C101.025 104.765 101.132 105.021 101.292 105.224C101.452 105.416 101.697 105.512 102.028 105.512H102.252L101.852 108.296C101.148 108.296 100.567 108.173 100.108 107.928C99.6495 107.693 99.2815 107.373 99.0041 106.968C98.5455 107.48 98.0228 107.821 97.4361 107.992C96.8495 108.173 96.2415 108.264 95.6121 108.264ZM93.9481 103.96C94.0015 104.472 94.2095 104.883 94.5721 105.192C94.9455 105.491 95.4148 105.64 95.9801 105.64C96.5241 105.64 96.9775 105.496 97.3401 105.208C97.7028 104.909 98.0015 104.504 98.2361 103.992C98.2255 103.821 98.2201 103.645 98.2201 103.464C98.2201 103.091 98.2308 102.707 98.2521 102.312C98.2735 101.917 98.3001 101.528 98.3321 101.144C97.8841 100.973 97.4148 100.888 96.9241 100.888C96.3481 100.888 95.8308 101.005 95.3721 101.24C94.9241 101.464 94.5721 101.779 94.3161 102.184C94.0601 102.589 93.9321 103.059 93.9321 103.592C93.9321 103.656 93.9321 103.72 93.9321 103.784C93.9321 103.848 93.9375 103.907 93.9481 103.96ZM103.188 108.248C103.231 107.363 103.263 106.477 103.284 105.592C103.306 104.707 103.316 103.832 103.316 102.968C103.306 102.179 103.29 101.4 103.268 100.632C103.258 99.8533 103.231 99.1013 103.188 98.376L105.876 98.296C105.887 98.6907 105.903 99.096 105.924 99.512C106.266 99.0853 106.66 98.744 107.108 98.488C107.567 98.2213 108.09 98.088 108.676 98.088C108.9 98.088 109.188 98.12 109.54 98.184C109.892 98.248 110.25 98.3707 110.612 98.552L110.308 101.256C110.042 101.096 109.754 100.984 109.444 100.92C109.146 100.845 108.895 100.808 108.692 100.808C108.01 100.808 107.428 101.117 106.948 101.736C106.479 102.344 106.159 103.192 105.988 104.28C105.988 105.027 105.978 105.741 105.956 106.424C105.946 107.096 105.919 107.704 105.876 108.248H103.188ZM115.3 108.264C114.745 108.264 114.201 108.168 113.668 107.976C113.145 107.784 112.671 107.485 112.244 107.08C111.828 106.685 111.497 106.189 111.252 105.592C111.007 104.984 110.884 104.275 110.884 103.464C110.884 102.547 111.023 101.757 111.3 101.096C111.588 100.424 111.967 99.8747 112.436 99.448C112.905 99.0107 113.428 98.6853 114.004 98.472C114.58 98.2587 115.156 98.152 115.732 98.152C116.073 98.152 116.399 98.1787 116.708 98.232C117.017 98.2747 117.305 98.3387 117.572 98.424C117.604 97.6453 117.641 96.8613 117.684 96.072C117.737 95.2827 117.796 94.504 117.86 93.736L120.548 93.912C120.463 94.7973 120.388 95.752 120.324 96.776C120.26 97.7893 120.212 98.824 120.18 99.88C120.159 100.936 120.148 101.965 120.148 102.968C120.148 103.907 120.159 104.803 120.18 105.656C120.212 106.499 120.249 107.267 120.292 107.96L117.524 108.168C117.513 107.965 117.508 107.768 117.508 107.576C117.199 107.779 116.857 107.944 116.484 108.072C116.121 108.2 115.727 108.264 115.3 108.264ZM113.46 103.32C113.46 103.875 113.567 104.312 113.78 104.632C113.993 104.941 114.255 105.16 114.564 105.288C114.873 105.416 115.172 105.48 115.46 105.48C115.801 105.48 116.143 105.405 116.484 105.256C116.825 105.107 117.145 104.845 117.444 104.472C117.444 104.344 117.444 104.221 117.444 104.104C117.444 103.24 117.455 102.355 117.476 101.448C116.975 101.011 116.431 100.792 115.844 100.792C115.599 100.792 115.337 100.829 115.06 100.904C114.783 100.979 114.521 101.112 114.276 101.304C114.041 101.485 113.844 101.741 113.684 102.072C113.535 102.392 113.46 102.808 113.46 103.32ZM125.567 104.28L125.519 102.008C125.945 101.965 126.479 101.933 127.119 101.912C127.759 101.891 128.404 101.88 129.055 101.88C129.513 101.88 129.945 101.885 130.351 101.896C130.767 101.907 131.124 101.923 131.423 101.944L131.391 104.184C131.124 104.184 130.836 104.184 130.527 104.184C130.217 104.173 129.892 104.168 129.551 104.168C128.868 104.168 128.175 104.179 127.471 104.2C126.767 104.211 126.132 104.237 125.567 104.28ZM142.947 108.28C141.646 108.28 140.515 107.992 139.555 107.416C138.595 106.851 137.854 106.051 137.331 105.016C136.808 103.981 136.547 102.76 136.547 101.352C136.547 100.819 136.611 100.227 136.739 99.576C136.878 98.9147 137.096 98.2587 137.395 97.608C137.694 96.9467 138.094 96.344 138.595 95.8C139.096 95.256 139.71 94.8187 140.435 94.488C141.16 94.1467 142.014 93.976 142.995 93.976C143.838 93.976 144.574 94.0827 145.203 94.296C145.832 94.4987 146.376 94.76 146.835 95.08C147.294 95.3893 147.672 95.7147 147.971 96.056C148.28 96.3973 148.526 96.712 148.707 97C148.888 97.2773 149.022 97.48 149.107 97.608L146.787 99.384C146.552 98.9467 146.275 98.52 145.955 98.104C145.635 97.6773 145.24 97.3253 144.771 97.048C144.302 96.7707 143.72 96.632 143.027 96.632C142.312 96.632 141.72 96.792 141.251 97.112C140.782 97.432 140.408 97.8373 140.131 98.328C139.864 98.8187 139.678 99.3413 139.571 99.896C139.464 100.44 139.411 100.947 139.411 101.416C139.411 101.917 139.464 102.413 139.571 102.904C139.678 103.395 139.859 103.843 140.115 104.248C140.382 104.653 140.734 104.979 141.171 105.224C141.619 105.459 142.179 105.576 142.851 105.576C143.598 105.576 144.206 105.443 144.675 105.176C145.155 104.909 145.555 104.536 145.875 104.056C146.195 103.565 146.494 102.995 146.771 102.344L149.395 103.528C148.926 104.499 148.398 105.341 147.811 106.056C147.224 106.771 146.536 107.32 145.747 107.704C144.958 108.088 144.024 108.28 142.947 108.28ZM151.261 108.104C151.175 107.549 151.101 106.877 151.037 106.088C150.983 105.299 150.941 104.44 150.909 103.512C150.887 102.584 150.877 101.64 150.877 100.68C150.877 99.4747 150.898 98.3013 150.941 97.16C150.983 96.0187 151.047 95.016 151.133 94.152L154.077 94.2C153.959 94.9573 153.869 95.848 153.805 96.872C153.751 97.896 153.725 99.0587 153.725 100.36C153.725 101.683 153.746 103.011 153.789 104.344C153.842 105.677 153.901 106.899 153.965 108.008L151.261 108.104ZM160.381 108.184C160.307 107.256 160.253 106.355 160.221 105.48C160.2 104.605 160.189 103.779 160.189 103C160.189 101.709 160.216 100.552 160.269 99.528C160.323 98.4933 160.376 97.6027 160.429 96.856C159.512 96.9093 158.621 96.9787 157.757 97.064C156.893 97.1493 156.093 97.2613 155.357 97.4L155.389 94.728C156.637 94.504 157.917 94.344 159.229 94.248C160.541 94.1413 161.853 94.088 163.165 94.088C164.104 94.088 165 94.1093 165.853 94.152C166.717 94.1947 167.544 94.2587 168.333 94.344L168.317 97.112C167.571 96.9947 166.76 96.9147 165.885 96.872C165.021 96.8187 164.136 96.792 163.229 96.792C163.176 97.5173 163.128 98.328 163.085 99.224C163.043 100.109 163.021 101.059 163.021 102.072C163.021 102.979 163.043 103.933 163.085 104.936C163.139 105.939 163.203 106.995 163.277 108.104L160.381 108.184ZM169.658 108.168C169.626 107.112 169.61 106.099 169.61 105.128C169.61 103.379 169.664 101.795 169.77 100.376C169.877 98.9573 170.032 97.752 170.234 96.76C170.33 96.3013 170.464 95.8587 170.634 95.432C170.816 95.0053 171.066 94.6587 171.386 94.392C171.717 94.1147 172.149 93.976 172.682 93.976C173.205 93.976 173.648 94.1147 174.01 94.392C174.373 94.6587 174.666 94.984 174.89 95.368C175.125 95.752 175.296 96.12 175.402 96.472C175.68 97.304 175.914 98.136 176.106 98.968C176.298 99.8 176.469 100.595 176.618 101.352C176.725 100.797 176.848 100.216 176.986 99.608C177.125 98.9893 177.264 98.408 177.402 97.864C177.541 97.3093 177.669 96.8507 177.786 96.488C178.33 94.8133 179.168 93.976 180.298 93.976C180.928 93.976 181.461 94.2053 181.898 94.664C182.336 95.112 182.656 95.7627 182.858 96.616C182.954 97 183.05 97.56 183.146 98.296C183.253 99.032 183.349 99.9067 183.434 100.92C183.53 101.923 183.61 103.032 183.674 104.248C183.749 105.464 183.808 106.755 183.85 108.12L181.034 108.056C181.034 107.491 181.018 106.835 180.986 106.088C180.965 105.341 180.928 104.568 180.874 103.768C180.832 102.957 180.778 102.168 180.714 101.4C180.661 100.632 180.602 99.9387 180.538 99.32C180.485 98.7013 180.432 98.2107 180.378 97.848C180.325 97.4747 180.277 97.288 180.234 97.288C180.224 97.288 180.165 97.48 180.058 97.864C179.962 98.2373 179.84 98.7387 179.69 99.368C179.552 99.9973 179.397 100.691 179.226 101.448C179.056 102.205 178.885 102.968 178.714 103.736C178.554 104.493 178.41 105.197 178.282 105.848C178.154 106.488 178.053 107.011 177.978 107.416L175.466 107.48C175.338 106.883 175.184 106.227 175.002 105.512C174.832 104.787 174.65 104.051 174.458 103.304C174.277 102.547 174.096 101.821 173.914 101.128C173.733 100.424 173.562 99.7947 173.402 99.24C173.253 98.6853 173.13 98.248 173.034 97.928C172.938 97.5973 172.88 97.432 172.858 97.432C172.816 97.432 172.768 97.6667 172.714 98.136C172.672 98.5947 172.629 99.2187 172.586 100.008C172.544 100.797 172.506 101.688 172.474 102.68C172.453 103.672 172.442 104.696 172.442 105.752C172.442 106.253 172.442 106.712 172.442 107.128C172.453 107.544 172.464 107.885 172.474 108.152L169.658 108.168ZM83.2479 130.752C82.1385 130.752 81.2052 130.555 80.4479 130.16C79.6905 129.776 79.0825 129.264 78.6239 128.624C78.1759 127.984 77.8505 127.285 77.6479 126.528C77.4452 125.771 77.3439 125.019 77.3439 124.272C77.3439 123.387 77.4879 122.512 77.7759 121.648C78.0639 120.784 78.4959 120 79.0719 119.296C79.6585 118.592 80.3839 118.027 81.2479 117.6C82.1225 117.173 83.1412 116.96 84.3039 116.96C85.2852 116.96 86.1439 117.104 86.8799 117.392C87.6159 117.669 88.2452 118.011 88.7679 118.416C89.3012 118.811 89.7279 119.184 90.0479 119.536L88.0479 121.696C87.7492 121.344 87.4292 121.013 87.0879 120.704C86.7572 120.395 86.3625 120.144 85.9039 119.952C85.4452 119.76 84.8799 119.664 84.2079 119.664C83.4825 119.664 82.8585 119.797 82.3359 120.064C81.8132 120.32 81.3865 120.667 81.0559 121.104C80.7252 121.541 80.4799 122.032 80.3199 122.576C80.1705 123.12 80.0959 123.68 80.0959 124.256C80.0959 124.939 80.2079 125.568 80.4319 126.144C80.6665 126.72 81.0132 127.184 81.4719 127.536C81.9412 127.888 82.5225 128.064 83.2159 128.064C84.0692 128.064 84.7732 127.867 85.3279 127.472C85.8825 127.077 86.2665 126.512 86.4799 125.776C86.0212 125.808 85.5785 125.851 85.1519 125.904C84.7359 125.947 84.3625 125.995 84.0319 126.048L83.7599 123.456C84.3892 123.317 85.1145 123.216 85.9359 123.152C86.7679 123.077 87.5625 123.04 88.3199 123.04C89.3652 123.04 90.1492 123.104 90.6719 123.232L90.6079 125.856C90.3839 125.792 90.0265 125.744 89.5359 125.712C89.5359 125.947 89.5359 126.192 89.5359 126.448C89.5465 126.704 89.5519 126.965 89.5519 127.232C89.5519 127.968 89.5412 128.693 89.5199 129.408C89.4985 130.123 89.4772 130.693 89.4559 131.12L86.7199 131.056C86.7305 130.917 86.7465 130.704 86.7679 130.416C86.7999 130.128 86.8319 129.803 86.8639 129.44C86.5012 129.824 86.0265 130.139 85.4399 130.384C84.8639 130.629 84.1332 130.752 83.2479 130.752ZM96.159 131.264C95.359 131.264 94.6337 131.056 93.983 130.64C93.3323 130.235 92.815 129.685 92.431 128.992C92.0577 128.288 91.871 127.504 91.871 126.64C91.871 125.829 92.0203 125.099 92.319 124.448C92.6177 123.787 93.023 123.221 93.535 122.752C94.0577 122.283 94.6497 121.925 95.311 121.68C95.9723 121.424 96.6657 121.296 97.391 121.296C97.999 121.296 98.5963 121.381 99.183 121.552C99.2257 121.328 99.263 121.104 99.295 120.88L102.031 121.344C101.956 121.547 101.882 121.851 101.807 122.256C101.732 122.661 101.668 123.115 101.615 123.616C101.572 124.117 101.535 124.619 101.503 125.12C101.471 125.621 101.455 126.075 101.455 126.48C101.455 126.811 101.476 127.136 101.519 127.456C101.572 127.765 101.679 128.021 101.839 128.224C101.999 128.416 102.244 128.512 102.575 128.512H102.799L102.399 131.296C101.695 131.296 101.114 131.173 100.655 130.928C100.196 130.693 99.8283 130.373 99.551 129.968C99.0923 130.48 98.5697 130.821 97.983 130.992C97.3963 131.173 96.7883 131.264 96.159 131.264ZM94.495 126.96C94.5483 127.472 94.7563 127.883 95.119 128.192C95.4923 128.491 95.9617 128.64 96.527 128.64C97.071 128.64 97.5243 128.496 97.887 128.208C98.2497 127.909 98.5483 127.504 98.783 126.992C98.7723 126.821 98.767 126.645 98.767 126.464C98.767 126.091 98.7777 125.707 98.799 125.312C98.8203 124.917 98.847 124.528 98.879 124.144C98.431 123.973 97.9617 123.888 97.471 123.888C96.895 123.888 96.3777 124.005 95.919 124.24C95.471 124.464 95.119 124.779 94.863 125.184C94.607 125.589 94.479 126.059 94.479 126.592C94.479 126.656 94.479 126.72 94.479 126.784C94.479 126.848 94.4843 126.907 94.495 126.96ZM103.799 131.248C103.789 131.088 103.778 130.821 103.767 130.448C103.757 130.085 103.746 129.648 103.735 129.136C103.725 128.624 103.719 128.075 103.719 127.488C103.719 126.891 103.719 126.293 103.719 125.696C103.719 125.035 103.719 124.405 103.719 123.808C103.73 123.211 103.735 122.693 103.735 122.256C103.746 121.819 103.751 121.504 103.751 121.312L106.455 121.264C106.434 121.563 106.418 121.925 106.407 122.352C106.685 121.979 107.005 121.685 107.367 121.472C107.73 121.259 108.146 121.152 108.615 121.152C109.181 121.152 109.645 121.317 110.007 121.648C110.381 121.979 110.685 122.411 110.919 122.944C111.687 121.749 112.631 121.152 113.751 121.152C114.381 121.152 114.898 121.291 115.303 121.568C115.719 121.835 116.045 122.197 116.279 122.656C116.514 123.115 116.685 123.632 116.791 124.208C116.909 124.784 116.983 125.376 117.015 125.984C117.047 126.592 117.063 127.179 117.063 127.744C117.063 128.416 117.053 129.029 117.031 129.584C117.01 130.139 117.005 130.667 117.015 131.168H114.247C114.247 130.912 114.247 130.587 114.247 130.192C114.247 129.808 114.247 129.419 114.247 129.024C114.258 128.619 114.263 128.272 114.263 127.984C114.263 127.685 114.263 127.509 114.263 127.456C114.263 126.816 114.247 126.213 114.215 125.648C114.183 125.083 114.103 124.624 113.975 124.272C113.847 123.92 113.639 123.744 113.351 123.744C113.074 123.744 112.829 123.877 112.615 124.144C112.402 124.411 112.21 124.757 112.039 125.184C111.879 125.611 111.741 126.064 111.623 126.544C111.645 126.96 111.661 127.376 111.671 127.792C111.682 128.197 111.687 128.592 111.687 128.976C111.687 129.413 111.682 129.792 111.671 130.112C111.671 130.443 111.671 130.795 111.671 131.168H108.983C108.983 130.304 108.978 129.541 108.967 128.88C108.957 128.219 108.935 127.579 108.903 126.96C108.85 125.851 108.733 125.04 108.551 124.528C108.381 124.005 108.141 123.744 107.831 123.744C107.49 123.744 107.202 123.952 106.967 124.368C106.733 124.773 106.541 125.269 106.391 125.856C106.402 126.709 106.423 127.6 106.455 128.528C106.487 129.456 106.53 130.352 106.583 131.216L103.799 131.248ZM123.288 131.28C122.264 131.28 121.362 131.077 120.584 130.672C119.816 130.277 119.213 129.723 118.776 129.008C118.349 128.293 118.136 127.467 118.136 126.528C118.136 125.963 118.232 125.371 118.424 124.752C118.616 124.123 118.925 123.536 119.352 122.992C119.778 122.448 120.338 122.005 121.032 121.664C121.736 121.323 122.589 121.152 123.592 121.152C124.317 121.152 124.925 121.232 125.416 121.392C125.917 121.552 126.322 121.76 126.632 122.016C126.952 122.272 127.192 122.544 127.352 122.832C127.522 123.12 127.634 123.397 127.688 123.664C127.752 123.92 127.784 124.133 127.784 124.304C127.784 125.339 127.346 126.139 126.472 126.704C125.608 127.259 124.381 127.536 122.792 127.536C122.429 127.536 122.082 127.52 121.752 127.488C121.432 127.456 121.133 127.419 120.856 127.376C121.058 127.909 121.394 128.304 121.864 128.56C122.333 128.805 122.818 128.928 123.32 128.928C124.045 128.928 124.685 128.8 125.24 128.544C125.794 128.277 126.317 127.872 126.808 127.328L128.232 129.376C127.89 129.653 127.506 129.941 127.08 130.24C126.664 130.539 126.152 130.784 125.544 130.976C124.936 131.179 124.184 131.28 123.288 131.28ZM123.64 123.552C123.01 123.552 122.456 123.712 121.976 124.032C121.496 124.352 121.144 124.773 120.92 125.296C121.186 125.339 121.448 125.376 121.704 125.408C121.97 125.429 122.232 125.44 122.488 125.44C122.722 125.44 122.989 125.419 123.288 125.376C123.597 125.333 123.896 125.269 124.184 125.184C124.482 125.099 124.728 124.992 124.92 124.864C125.112 124.725 125.208 124.565 125.208 124.384C125.208 124.299 125.165 124.192 125.08 124.064C124.994 123.936 124.84 123.819 124.616 123.712C124.392 123.605 124.066 123.552 123.64 123.552ZM138.375 131.232C136.957 131.232 135.81 130.805 134.935 129.952C134.071 129.088 133.447 127.776 133.063 126.016L135.815 125.184C136.103 127.392 136.909 128.496 138.231 128.496C138.701 128.496 139.069 128.384 139.335 128.16C139.613 127.925 139.81 127.627 139.927 127.264C140.055 126.901 140.135 126.507 140.167 126.08C140.199 125.653 140.215 125.248 140.215 124.864C140.215 124.32 140.199 123.712 140.167 123.04C140.135 122.368 140.066 121.579 139.959 120.672C139.863 119.765 139.703 118.699 139.479 117.472L142.455 116.976C142.53 117.552 142.61 118.256 142.695 119.088C142.781 119.909 142.855 120.784 142.919 121.712C142.983 122.64 143.015 123.547 143.015 124.432C143.015 124.891 142.994 125.419 142.951 126.016C142.919 126.613 142.829 127.216 142.679 127.824C142.53 128.432 142.29 128.997 141.959 129.52C141.629 130.032 141.17 130.443 140.583 130.752C140.007 131.072 139.271 131.232 138.375 131.232ZM148.8 131.264C148 131.264 147.274 131.056 146.624 130.64C145.973 130.235 145.456 129.685 145.072 128.992C144.698 128.288 144.512 127.504 144.512 126.64C144.512 125.829 144.661 125.099 144.96 124.448C145.258 123.787 145.664 123.221 146.176 122.752C146.698 122.283 147.29 121.925 147.952 121.68C148.613 121.424 149.306 121.296 150.032 121.296C150.64 121.296 151.237 121.381 151.824 121.552C151.866 121.328 151.904 121.104 151.936 120.88L154.672 121.344C154.597 121.547 154.522 121.851 154.448 122.256C154.373 122.661 154.309 123.115 154.256 123.616C154.213 124.117 154.176 124.619 154.144 125.12C154.112 125.621 154.096 126.075 154.096 126.48C154.096 126.811 154.117 127.136 154.16 127.456C154.213 127.765 154.32 128.021 154.48 128.224C154.64 128.416 154.885 128.512 155.216 128.512H155.44L155.04 131.296C154.336 131.296 153.754 131.173 153.296 130.928C152.837 130.693 152.469 130.373 152.192 129.968C151.733 130.48 151.21 130.821 150.624 130.992C150.037 131.173 149.429 131.264 148.8 131.264ZM147.136 126.96C147.189 127.472 147.397 127.883 147.76 128.192C148.133 128.491 148.602 128.64 149.168 128.64C149.712 128.64 150.165 128.496 150.528 128.208C150.89 127.909 151.189 127.504 151.424 126.992C151.413 126.821 151.408 126.645 151.408 126.464C151.408 126.091 151.418 125.707 151.44 125.312C151.461 124.917 151.488 124.528 151.52 124.144C151.072 123.973 150.602 123.888 150.112 123.888C149.536 123.888 149.018 124.005 148.56 124.24C148.112 124.464 147.76 124.779 147.504 125.184C147.248 125.589 147.12 126.059 147.12 126.592C147.12 126.656 147.12 126.72 147.12 126.784C147.12 126.848 147.125 126.907 147.136 126.96ZM156.44 131.248C156.429 131.088 156.419 130.821 156.408 130.448C156.397 130.085 156.387 129.648 156.376 129.136C156.365 128.624 156.36 128.075 156.36 127.488C156.36 126.891 156.36 126.293 156.36 125.696C156.36 125.035 156.36 124.405 156.36 123.808C156.371 123.211 156.376 122.693 156.376 122.256C156.387 121.819 156.392 121.504 156.392 121.312L159.096 121.264C159.075 121.563 159.059 121.925 159.048 122.352C159.325 121.979 159.645 121.685 160.008 121.472C160.371 121.259 160.787 121.152 161.256 121.152C161.821 121.152 162.285 121.317 162.648 121.648C163.021 121.979 163.325 122.411 163.56 122.944C164.328 121.749 165.272 121.152 166.392 121.152C167.021 121.152 167.539 121.291 167.944 121.568C168.36 121.835 168.685 122.197 168.92 122.656C169.155 123.115 169.325 123.632 169.432 124.208C169.549 124.784 169.624 125.376 169.656 125.984C169.688 126.592 169.704 127.179 169.704 127.744C169.704 128.416 169.693 129.029 169.672 129.584C169.651 130.139 169.645 130.667 169.656 131.168H166.888C166.888 130.912 166.888 130.587 166.888 130.192C166.888 129.808 166.888 129.419 166.888 129.024C166.899 128.619 166.904 128.272 166.904 127.984C166.904 127.685 166.904 127.509 166.904 127.456C166.904 126.816 166.888 126.213 166.856 125.648C166.824 125.083 166.744 124.624 166.616 124.272C166.488 123.92 166.28 123.744 165.992 123.744C165.715 123.744 165.469 123.877 165.256 124.144C165.043 124.411 164.851 124.757 164.68 125.184C164.52 125.611 164.381 126.064 164.264 126.544C164.285 126.96 164.301 127.376 164.312 127.792C164.323 128.197 164.328 128.592 164.328 128.976C164.328 129.413 164.323 129.792 164.312 130.112C164.312 130.443 164.312 130.795 164.312 131.168H161.624C161.624 130.304 161.619 129.541 161.608 128.88C161.597 128.219 161.576 127.579 161.544 126.96C161.491 125.851 161.373 125.04 161.192 124.528C161.021 124.005 160.781 123.744 160.472 123.744C160.131 123.744 159.843 123.952 159.608 124.368C159.373 124.773 159.181 125.269 159.032 125.856C159.043 126.709 159.064 127.6 159.096 128.528C159.128 129.456 159.171 130.352 159.224 131.216L156.44 131.248ZM101.217 154.216C101.111 153.8 100.993 153.373 100.865 152.936C100.748 152.499 100.641 152.115 100.545 151.784C101.729 151.123 102.759 150.408 103.633 149.64C104.519 148.872 105.244 148.109 105.809 147.352C106.385 146.595 106.812 145.907 107.089 145.288C107.377 144.669 107.521 144.184 107.521 143.832C107.521 143.427 107.383 143.112 107.105 142.888C106.839 142.653 106.476 142.536 106.017 142.536C105.388 142.536 104.748 142.76 104.097 143.208C103.457 143.656 102.86 144.291 102.305 145.112L100.625 143.096C101.105 142.52 101.612 142.003 102.145 141.544C102.689 141.085 103.271 140.723 103.889 140.456C104.508 140.179 105.169 140.04 105.873 140.04C106.641 140.04 107.345 140.173 107.985 140.44C108.625 140.707 109.137 141.107 109.521 141.64C109.905 142.173 110.097 142.835 110.097 143.624C110.097 144.371 109.905 145.181 109.521 146.056C109.137 146.92 108.604 147.789 107.921 148.664C107.239 149.528 106.46 150.333 105.585 151.08C105.937 151.069 106.295 151.064 106.657 151.064C107.361 151.064 108.007 151.107 108.593 151.192C109.18 151.267 109.788 151.384 110.417 151.544L109.889 154.008C109.367 153.88 108.812 153.773 108.225 153.688C107.639 153.603 106.967 153.56 106.209 153.56C105.313 153.56 104.423 153.608 103.537 153.704C102.652 153.811 101.879 153.981 101.217 154.216ZM117.239 154.248C116.428 154.248 115.703 154.056 115.063 153.672C114.423 153.299 113.879 152.787 113.431 152.136C112.993 151.485 112.657 150.749 112.423 149.928C112.188 149.107 112.071 148.253 112.071 147.368C112.071 146.312 112.215 145.32 112.503 144.392C112.801 143.453 113.228 142.616 113.783 141.88C114.337 141.144 115.004 140.536 115.783 140.056L116.007 140.536C116.529 140.269 117.095 140.136 117.703 140.136C118.577 140.136 119.34 140.328 119.991 140.712C120.652 141.085 121.196 141.597 121.623 142.248C122.06 142.888 122.385 143.608 122.599 144.408C122.823 145.208 122.935 146.035 122.935 146.888C122.935 148.157 122.769 149.256 122.439 150.184C122.119 151.112 121.687 151.875 121.143 152.472C120.599 153.069 119.985 153.512 119.303 153.8C118.631 154.099 117.943 154.248 117.239 154.248ZM114.695 147.512C114.695 147.896 114.732 148.328 114.807 148.808C114.892 149.288 115.036 149.747 115.239 150.184C115.441 150.611 115.713 150.968 116.055 151.256C116.407 151.533 116.855 151.672 117.399 151.672C117.985 151.672 118.497 151.475 118.935 151.08C119.372 150.675 119.713 150.115 119.959 149.4C120.215 148.685 120.343 147.859 120.343 146.92C120.343 145.981 120.199 145.213 119.911 144.616C119.633 144.008 119.281 143.56 118.855 143.272C118.439 142.973 118.017 142.824 117.591 142.824C117.367 142.824 117.153 142.888 116.951 143.016C116.748 143.144 116.588 143.315 116.471 143.528L116.247 143.048C115.745 143.549 115.388 144.056 115.175 144.568C114.961 145.08 114.828 145.587 114.775 146.088C114.721 146.579 114.695 147.053 114.695 147.512ZM125.217 154.216C125.111 153.8 124.993 153.373 124.865 152.936C124.748 152.499 124.641 152.115 124.545 151.784C125.729 151.123 126.759 150.408 127.633 149.64C128.519 148.872 129.244 148.109 129.809 147.352C130.385 146.595 130.812 145.907 131.089 145.288C131.377 144.669 131.521 144.184 131.521 143.832C131.521 143.427 131.383 143.112 131.105 142.888C130.839 142.653 130.476 142.536 130.017 142.536C129.388 142.536 128.748 142.76 128.097 143.208C127.457 143.656 126.86 144.291 126.305 145.112L124.625 143.096C125.105 142.52 125.612 142.003 126.145 141.544C126.689 141.085 127.271 140.723 127.889 140.456C128.508 140.179 129.169 140.04 129.873 140.04C130.641 140.04 131.345 140.173 131.985 140.44C132.625 140.707 133.137 141.107 133.521 141.64C133.905 142.173 134.097 142.835 134.097 143.624C134.097 144.371 133.905 145.181 133.521 146.056C133.137 146.92 132.604 147.789 131.921 148.664C131.239 149.528 130.46 150.333 129.585 151.08C129.937 151.069 130.295 151.064 130.657 151.064C131.361 151.064 132.007 151.107 132.593 151.192C133.18 151.267 133.788 151.384 134.417 151.544L133.889 154.008C133.367 153.88 132.812 153.773 132.225 153.688C131.639 153.603 130.967 153.56 130.209 153.56C129.313 153.56 128.423 153.608 127.537 153.704C126.652 153.811 125.879 153.981 125.217 154.216ZM140.791 150.728C140.247 150.728 139.697 150.717 139.143 150.696C138.588 150.664 138.076 150.579 137.607 150.44C137.148 150.301 136.78 150.072 136.503 149.752C136.225 149.432 136.087 148.984 136.087 148.408C136.087 148.024 136.183 147.555 136.375 147C136.567 146.445 136.812 145.853 137.111 145.224C137.42 144.584 137.751 143.944 138.103 143.304C138.465 142.653 138.817 142.035 139.159 141.448C139.5 140.851 139.799 140.328 140.055 139.88L142.199 141.096C142.209 140.765 142.215 140.456 142.215 140.168L144.807 140.2C144.743 141.288 144.673 142.515 144.599 143.88C144.535 145.245 144.465 146.616 144.391 147.992C144.839 147.949 145.287 147.891 145.735 147.816C146.183 147.741 146.625 147.651 147.063 147.544L147.207 150.2C146.695 150.275 146.188 150.344 145.687 150.408C145.196 150.472 144.716 150.525 144.247 150.568C144.215 151.229 144.183 151.869 144.151 152.488C144.119 153.096 144.087 153.661 144.055 154.184L141.335 154.12C141.399 153.619 141.457 153.08 141.511 152.504C141.575 151.928 141.633 151.331 141.687 150.712C141.377 150.723 141.079 150.728 140.791 150.728ZM139.879 148.168C140.092 148.179 140.3 148.184 140.503 148.184C140.705 148.184 140.903 148.184 141.095 148.184C141.351 148.184 141.607 148.179 141.863 148.168C141.948 146.941 142.017 145.725 142.071 144.52C142.124 143.315 142.167 142.227 142.199 141.256C141.911 141.661 141.596 142.141 141.255 142.696C140.924 143.24 140.599 143.805 140.279 144.392C139.959 144.979 139.676 145.523 139.431 146.024C139.228 146.451 139.063 146.803 138.935 147.08C138.807 147.347 138.743 147.555 138.743 147.704C138.743 147.853 138.828 147.965 138.999 148.04C139.169 148.104 139.463 148.147 139.879 148.168Z" fill="white"/>
</svg>
