<svg width="228" height="223" viewBox="0 0 228 223" fill="none" xmlns="http://www.w3.org/2000/svg">
<path d="M67.7979 85.104C67.7872 84.9867 67.7819 84.8587 67.7819 84.72C67.7819 84.5813 67.7819 84.4213 67.7819 84.24C67.7819 83.7813 67.7925 83.2373 67.8139 82.608C67.8352 81.968 67.8672 81.2907 67.9099 80.576C67.9525 79.8507 67.9952 79.1253 68.0379 78.4C68.0805 77.664 68.1232 76.96 68.1659 76.288C68.2192 75.616 68.2672 75.0133 68.3099 74.48C68.0752 74.5547 67.8672 74.624 67.6859 74.688L67.2699 72C68.4752 71.6587 69.5952 71.4027 70.6299 71.232C71.6752 71.0613 72.6192 70.976 73.4619 70.976C75.1792 70.976 76.4912 71.3013 77.3979 71.952C78.3045 72.6027 78.7579 73.5467 78.7579 74.784C78.7579 75.488 78.6032 76.08 78.2939 76.56C77.9845 77.0293 77.5472 77.4187 76.9819 77.728C78.3685 78.432 79.0619 79.5787 79.0619 81.168C79.0619 81.872 78.9285 82.464 78.6619 82.944C78.4059 83.4133 78.0752 83.792 77.6699 84.08C77.2645 84.368 76.8325 84.5813 76.3739 84.72C75.9259 84.8693 75.4992 84.9653 75.0939 85.008C74.6992 85.0613 74.3899 85.088 74.1659 85.088C73.6112 85.088 73.0192 85.0347 72.3899 84.928C71.7605 84.8213 71.1472 84.6613 70.5499 84.448C70.5499 84.6613 70.5499 84.864 70.5499 85.056L67.7979 85.104ZM73.5259 73.648C73.1419 73.648 72.7365 73.6693 72.3099 73.712C71.8939 73.744 71.4779 73.7973 71.0619 73.872C70.9979 74.6507 70.9339 75.5573 70.8699 76.592C71.0085 76.6027 71.1472 76.608 71.2859 76.608C71.4352 76.608 71.5845 76.608 71.7339 76.608C74.5499 76.608 75.9579 76.032 75.9579 74.88C75.9579 74.496 75.7392 74.1973 75.3019 73.984C74.8752 73.76 74.2832 73.648 73.5259 73.648ZM72.1019 79.136C71.8779 79.136 71.6485 79.136 71.4139 79.136C71.1899 79.136 70.9605 79.1413 70.7259 79.152C70.7045 79.6213 70.6832 80.0907 70.6619 80.56C70.6512 81.0293 70.6352 81.4933 70.6139 81.952C71.2112 82.1333 71.7979 82.2667 72.3739 82.352C72.9499 82.4267 73.4459 82.464 73.8619 82.464C74.7472 82.464 75.3819 82.3573 75.7659 82.144C76.1499 81.92 76.3419 81.5573 76.3419 81.056C76.3419 80.4373 75.9739 79.9627 75.2379 79.632C74.5125 79.3013 73.4672 79.136 72.1019 79.136ZM85.35 85.28C84.326 85.28 83.4247 85.0773 82.646 84.672C81.878 84.2773 81.2753 83.7227 80.838 83.008C80.4113 82.2933 80.198 81.4667 80.198 80.528C80.198 79.9627 80.294 79.3707 80.486 78.752C80.678 78.1227 80.9873 77.536 81.414 76.992C81.8407 76.448 82.4007 76.0053 83.094 75.664C83.798 75.3227 84.6513 75.152 85.654 75.152C86.3793 75.152 86.9873 75.232 87.478 75.392C87.9793 75.552 88.3847 75.76 88.694 76.016C89.014 76.272 89.254 76.544 89.414 76.832C89.5847 77.12 89.6967 77.3973 89.75 77.664C89.814 77.92 89.846 78.1333 89.846 78.304C89.846 79.3387 89.4087 80.1387 88.534 80.704C87.67 81.2587 86.4433 81.536 84.854 81.536C84.4913 81.536 84.1447 81.52 83.814 81.488C83.494 81.456 83.1953 81.4187 82.918 81.376C83.1207 81.9093 83.4567 82.304 83.926 82.56C84.3953 82.8053 84.8807 82.928 85.382 82.928C86.1073 82.928 86.7473 82.8 87.302 82.544C87.8567 82.2773 88.3793 81.872 88.87 81.328L90.294 83.376C89.9527 83.6533 89.5687 83.9413 89.142 84.24C88.726 84.5387 88.214 84.784 87.606 84.976C86.998 85.1787 86.246 85.28 85.35 85.28ZM85.702 77.552C85.0727 77.552 84.518 77.712 84.038 78.032C83.558 78.352 83.206 78.7733 82.982 79.296C83.2487 79.3387 83.51 79.376 83.766 79.408C84.0327 79.4293 84.294 79.44 84.55 79.44C84.7847 79.44 85.0513 79.4187 85.35 79.376C85.6593 79.3333 85.958 79.2693 86.246 79.184C86.5447 79.0987 86.79 78.992 86.982 78.864C87.174 78.7253 87.27 78.5653 87.27 78.384C87.27 78.2987 87.2273 78.192 87.142 78.064C87.0567 77.936 86.902 77.8187 86.678 77.712C86.454 77.6053 86.1287 77.552 85.702 77.552ZM96.2376 85.328C95.5123 85.328 94.8403 85.2427 94.2216 85.072C93.603 84.9013 93.043 84.6827 92.5416 84.416C92.0403 84.1493 91.5923 83.8667 91.1976 83.568L92.6376 81.248C93.0856 81.664 93.5176 81.984 93.9336 82.208C94.3496 82.432 94.7816 82.5867 95.2296 82.672C95.6883 82.7573 96.1843 82.8 96.7176 82.8C97.1763 82.8 97.5443 82.7413 97.8216 82.624C98.099 82.496 98.2376 82.336 98.2376 82.144C98.2376 81.984 98.1043 81.8613 97.8376 81.776C97.571 81.68 97.2296 81.6 96.8136 81.536C96.3976 81.4613 95.9603 81.3707 95.5016 81.264C94.851 81.0933 94.243 80.896 93.6776 80.672C93.1123 80.448 92.6536 80.144 92.3016 79.76C91.9603 79.376 91.7896 78.864 91.7896 78.224C91.7896 77.712 91.9123 77.264 92.1576 76.88C92.403 76.4853 92.7283 76.16 93.1336 75.904C93.5496 75.6373 94.019 75.44 94.5416 75.312C95.0643 75.184 95.603 75.12 96.1576 75.12C97.1176 75.12 97.9443 75.2373 98.6376 75.472C99.3416 75.696 100.014 75.9947 100.654 76.368L99.1976 78.576C98.8776 78.352 98.5096 78.16 98.0936 78C97.6883 77.8293 97.2776 77.7013 96.8616 77.616C96.4563 77.52 96.0776 77.472 95.7256 77.472C95.3416 77.472 95.0376 77.5307 94.8136 77.648C94.6003 77.7653 94.4936 77.9307 94.4936 78.144C94.4936 78.272 94.627 78.3947 94.8936 78.512C95.171 78.6187 95.6936 78.7627 96.4616 78.944C96.9203 79.0507 97.4056 79.1627 97.9176 79.28C98.4296 79.3867 98.9096 79.5413 99.3576 79.744C99.8163 79.936 100.184 80.2187 100.462 80.592C100.75 80.9547 100.894 81.44 100.894 82.048C100.894 83.072 100.483 83.872 99.6616 84.448C98.8403 85.0347 97.699 85.328 96.2376 85.328ZM106.927 85.264C106.287 85.264 105.781 85.1253 105.407 84.848C105.034 84.5813 104.762 84.208 104.591 83.728C104.421 83.248 104.309 82.6987 104.255 82.08C104.213 81.4613 104.191 80.8107 104.191 80.128C104.191 79.424 104.218 78.6933 104.271 77.936C103.557 78.032 102.869 78.1547 102.207 78.304L101.711 75.792C102.597 75.5573 103.541 75.3867 104.543 75.28C104.618 74.736 104.698 74.1653 104.783 73.568C104.869 72.96 104.965 72.32 105.071 71.648L107.823 71.888C107.695 72.4427 107.583 72.9973 107.487 73.552C107.391 74.096 107.306 74.624 107.231 75.136C107.829 75.136 108.389 75.152 108.911 75.184C109.445 75.2053 109.935 75.248 110.383 75.312L110.063 77.824C109.69 77.7813 109.301 77.7547 108.895 77.744C108.501 77.7227 108.101 77.712 107.695 77.712C107.45 77.712 107.205 77.7173 106.959 77.728C106.895 78.5067 106.853 79.1733 106.831 79.728C106.821 80.2827 106.815 80.6773 106.815 80.912C106.815 81.4987 106.847 81.92 106.911 82.176C106.986 82.432 107.103 82.56 107.263 82.56C107.445 82.56 107.647 82.5013 107.871 82.384C108.095 82.256 108.314 82.0853 108.527 81.872C108.751 81.6587 108.938 81.4293 109.087 81.184L110.319 83.76C109.263 84.7627 108.133 85.264 106.927 85.264ZM120.006 85.184C119.932 84.256 119.878 83.3547 119.846 82.48C119.825 81.6053 119.814 80.7787 119.814 80C119.814 78.7093 119.841 77.552 119.894 76.528C119.948 75.4933 120.001 74.6027 120.054 73.856C119.137 73.9093 118.246 73.9787 117.382 74.064C116.518 74.1493 115.718 74.2613 114.982 74.4L115.014 71.728C116.262 71.504 117.542 71.344 118.854 71.248C120.166 71.1413 121.478 71.088 122.79 71.088C123.729 71.088 124.625 71.1093 125.478 71.152C126.342 71.1947 127.169 71.2587 127.958 71.344L127.942 74.112C127.196 73.9947 126.385 73.9147 125.51 73.872C124.646 73.8187 123.761 73.792 122.854 73.792C122.801 74.5173 122.753 75.328 122.71 76.224C122.668 77.1093 122.646 78.0587 122.646 79.072C122.646 79.9787 122.668 80.9333 122.71 81.936C122.764 82.9387 122.828 83.9947 122.902 85.104L120.006 85.184ZM134.131 85.28C133.107 85.28 132.206 85.0773 131.427 84.672C130.659 84.2773 130.057 83.7227 129.619 83.008C129.193 82.2933 128.979 81.4667 128.979 80.528C128.979 79.9627 129.075 79.3707 129.267 78.752C129.459 78.1227 129.769 77.536 130.195 76.992C130.622 76.448 131.182 76.0053 131.875 75.664C132.579 75.3227 133.433 75.152 134.435 75.152C135.161 75.152 135.769 75.232 136.259 75.392C136.761 75.552 137.166 75.76 137.475 76.016C137.795 76.272 138.035 76.544 138.195 76.832C138.366 77.12 138.478 77.3973 138.531 77.664C138.595 77.92 138.627 78.1333 138.627 78.304C138.627 79.3387 138.19 80.1387 137.315 80.704C136.451 81.2587 135.225 81.536 133.635 81.536C133.273 81.536 132.926 81.52 132.595 81.488C132.275 81.456 131.977 81.4187 131.699 81.376C131.902 81.9093 132.238 82.304 132.707 82.56C133.177 82.8053 133.662 82.928 134.163 82.928C134.889 82.928 135.529 82.8 136.083 82.544C136.638 82.2773 137.161 81.872 137.651 81.328L139.075 83.376C138.734 83.6533 138.35 83.9413 137.923 84.24C137.507 84.5387 136.995 84.784 136.387 84.976C135.779 85.1787 135.027 85.28 134.131 85.28ZM134.483 77.552C133.854 77.552 133.299 77.712 132.819 78.032C132.339 78.352 131.987 78.7733 131.763 79.296C132.03 79.3387 132.291 79.376 132.547 79.408C132.814 79.4293 133.075 79.44 133.331 79.44C133.566 79.44 133.833 79.4187 134.131 79.376C134.441 79.3333 134.739 79.2693 135.027 79.184C135.326 79.0987 135.571 78.992 135.763 78.864C135.955 78.7253 136.051 78.5653 136.051 78.384C136.051 78.2987 136.009 78.192 135.923 78.064C135.838 77.936 135.683 77.8187 135.459 77.712C135.235 77.6053 134.91 77.552 134.483 77.552ZM145.019 85.296C144.123 85.296 143.296 85.1093 142.539 84.736C141.782 84.3627 141.174 83.8293 140.715 83.136C140.256 82.432 140.027 81.5947 140.027 80.624C140.027 79.536 140.24 78.5813 140.667 77.76C141.094 76.9387 141.691 76.304 142.459 75.856C143.227 75.3973 144.123 75.168 145.147 75.168C146.128 75.168 146.96 75.3707 147.643 75.776C148.326 76.1707 148.934 76.8 149.467 77.664L147.243 79.2C146.944 78.72 146.64 78.3573 146.331 78.112C146.022 77.856 145.6 77.728 145.067 77.728C144.342 77.728 143.755 77.984 143.307 78.496C142.859 78.9973 142.635 79.6693 142.635 80.512C142.635 81.0027 142.752 81.4027 142.987 81.712C143.232 82.0213 143.531 82.2507 143.883 82.4C144.235 82.5493 144.566 82.624 144.875 82.624C145.195 82.624 145.504 82.5867 145.803 82.512C146.102 82.4267 146.384 82.2453 146.651 81.968C146.918 81.6907 147.158 81.2693 147.371 80.704L149.771 81.984C149.451 82.5707 149.094 83.1147 148.699 83.616C148.304 84.1173 147.814 84.5227 147.227 84.832C146.651 85.1413 145.915 85.296 145.019 85.296ZM150.863 85.104C150.863 84.4533 150.863 83.6213 150.863 82.608C150.873 81.584 150.884 80.448 150.895 79.2C150.916 77.952 150.943 76.64 150.975 75.264C151.017 73.888 151.065 72.512 151.118 71.136L153.839 71.12C153.796 71.728 153.753 72.4693 153.711 73.344C153.668 74.2187 153.631 75.1573 153.599 76.16C154.335 75.4773 155.177 75.136 156.127 75.136C156.777 75.136 157.316 75.2533 157.743 75.488C158.18 75.7227 158.532 76.032 158.799 76.416C159.065 76.7893 159.268 77.2 159.407 77.648C159.545 78.096 159.641 78.5387 159.695 78.976C159.748 79.4027 159.775 79.7813 159.775 80.112C159.775 80.816 159.769 81.5147 159.759 82.208C159.748 82.9013 159.737 83.5093 159.727 84.032C159.727 84.5547 159.727 84.9227 159.727 85.136L156.927 85.152C156.969 84.736 156.996 84.256 157.007 83.712C157.028 83.168 157.039 82.608 157.039 82.032C157.049 81.4453 157.055 80.8907 157.055 80.368C157.055 78.64 156.649 77.776 155.839 77.776C155.593 77.776 155.321 77.84 155.023 77.968C154.724 78.096 154.436 78.2987 154.159 78.576C153.892 78.8533 153.679 79.2213 153.519 79.68C153.508 80.384 153.503 81.0667 153.503 81.728C153.503 82.336 153.508 82.9067 153.519 83.44C153.54 83.9627 153.556 84.4907 153.567 85.024L150.863 85.104ZM55.4466 108.136L52.7106 107.624C53.2226 105.555 53.756 103.683 54.3106 102.008C54.876 100.333 55.4573 98.8987 56.0546 97.704C56.652 96.5093 57.26 95.592 57.8786 94.952C58.508 94.3013 59.1373 93.976 59.7666 93.976C61.036 93.976 62.204 95.1547 63.2706 97.512C64.3373 99.8587 65.244 103.261 65.9906 107.72L63.1586 108.104C63.0306 107.4 62.892 106.68 62.7426 105.944C62.5933 105.197 62.4386 104.472 62.2786 103.768C62.0226 103.757 61.7453 103.752 61.4466 103.752C60.924 103.752 60.3693 103.763 59.7826 103.784C59.2066 103.805 58.636 103.843 58.0706 103.896C57.516 103.939 56.9986 103.987 56.5186 104.04C56.316 104.723 56.1186 105.416 55.9266 106.12C55.7453 106.813 55.5853 107.485 55.4466 108.136ZM58.3906 98.792C58.156 99.2933 57.8413 100.104 57.4466 101.224C57.9053 101.171 58.3906 101.133 58.9026 101.112C59.4146 101.08 59.916 101.064 60.4066 101.064C60.8226 101.064 61.2226 101.075 61.6066 101.096C61.4573 100.552 61.3133 100.067 61.1746 99.64C61.0466 99.2133 60.9293 98.8773 60.8226 98.632C60.5986 98.056 60.4013 97.6507 60.2306 97.416C60.06 97.1707 59.884 97.048 59.7026 97.048C59.5106 97.048 59.3186 97.176 59.1266 97.432C58.9346 97.6773 58.6893 98.1307 58.3906 98.792ZM70.6013 108.312C69.7159 108.312 68.9639 107.624 68.3453 106.248C68.1319 105.757 67.9453 105.219 67.7853 104.632C67.6253 104.045 67.4866 103.448 67.3693 102.84C67.2626 102.232 67.1719 101.651 67.0973 101.096C67.0333 100.531 66.9799 100.035 66.9373 99.608C66.9053 99.1707 66.8786 98.84 66.8573 98.616L69.4813 98.008C69.6093 100.429 69.8013 102.269 70.0573 103.528C70.3239 104.787 70.5266 105.416 70.6653 105.416C70.7399 105.416 70.8306 105.267 70.9373 104.968C71.0546 104.669 71.1826 104.275 71.3213 103.784C71.4599 103.283 71.5933 102.733 71.7213 102.136C71.8493 101.539 71.9613 100.936 72.0573 100.328C71.9293 99.5493 71.8439 98.9307 71.8013 98.472L74.5052 98.376V98.568C74.5052 99.0053 74.5373 99.5173 74.6013 100.104C74.6653 100.691 74.7453 101.299 74.8413 101.928C74.9373 102.547 75.0386 103.123 75.1453 103.656C75.2626 104.189 75.3746 104.621 75.4813 104.952C75.5879 105.283 75.6786 105.448 75.7533 105.448C75.8173 105.448 75.9079 105.304 76.0253 105.016C76.1426 104.728 76.2706 104.333 76.4093 103.832C76.5586 103.331 76.7079 102.76 76.8573 102.12C77.0066 101.469 77.1506 100.787 77.2893 100.072C77.4279 99.3467 77.5399 98.6267 77.6253 97.912L80.2653 98.472C80.0839 99.4853 79.8653 100.493 79.6093 101.496C79.3639 102.488 79.1026 103.411 78.8253 104.264C78.5479 105.107 78.2759 105.816 78.0093 106.392C77.4119 107.661 76.6706 108.296 75.7853 108.296C75.4973 108.296 75.1666 108.205 74.7933 108.024C74.4306 107.853 74.0946 107.491 73.7853 106.936C73.6786 106.733 73.5719 106.488 73.4653 106.2C73.3586 105.912 73.2573 105.592 73.1613 105.24C73.0333 105.635 72.9053 105.987 72.7773 106.296C72.2119 107.64 71.4866 108.312 70.6013 108.312ZM85.6121 108.264C84.8121 108.264 84.0868 108.056 83.4361 107.64C82.7855 107.235 82.2681 106.685 81.8841 105.992C81.5108 105.288 81.3241 104.504 81.3241 103.64C81.3241 102.829 81.4735 102.099 81.7721 101.448C82.0708 100.787 82.4761 100.221 82.9881 99.752C83.5108 99.2827 84.1028 98.9253 84.7641 98.68C85.4255 98.424 86.1188 98.296 86.8441 98.296C87.4521 98.296 88.0495 98.3813 88.6361 98.552C88.6788 98.328 88.7161 98.104 88.7481 97.88L91.4841 98.344C91.4095 98.5467 91.3348 98.8507 91.2601 99.256C91.1855 99.6613 91.1215 100.115 91.0681 100.616C91.0255 101.117 90.9881 101.619 90.9561 102.12C90.9241 102.621 90.9081 103.075 90.9081 103.48C90.9081 103.811 90.9295 104.136 90.9721 104.456C91.0255 104.765 91.1321 105.021 91.2921 105.224C91.4521 105.416 91.6975 105.512 92.0281 105.512H92.2521L91.8521 108.296C91.1481 108.296 90.5668 108.173 90.1081 107.928C89.6495 107.693 89.2815 107.373 89.0041 106.968C88.5455 107.48 88.0228 107.821 87.4361 107.992C86.8495 108.173 86.2415 108.264 85.6121 108.264ZM83.9481 103.96C84.0015 104.472 84.2095 104.883 84.5721 105.192C84.9455 105.491 85.4148 105.64 85.9801 105.64C86.5241 105.64 86.9775 105.496 87.3401 105.208C87.7028 104.909 88.0015 104.504 88.2361 103.992C88.2255 103.821 88.2201 103.645 88.2201 103.464C88.2201 103.091 88.2308 102.707 88.2521 102.312C88.2735 101.917 88.3001 101.528 88.3321 101.144C87.8841 100.973 87.4148 100.888 86.9241 100.888C86.3481 100.888 85.8308 101.005 85.3721 101.24C84.9241 101.464 84.5721 101.779 84.3161 102.184C84.0601 102.589 83.9321 103.059 83.9321 103.592C83.9321 103.656 83.9321 103.72 83.9321 103.784C83.9321 103.848 83.9375 103.907 83.9481 103.96ZM93.1884 108.248C93.231 107.363 93.263 106.477 93.2844 105.592C93.3057 104.707 93.3164 103.832 93.3164 102.968C93.3057 102.179 93.2897 101.4 93.2684 100.632C93.2577 99.8533 93.231 99.1013 93.1884 98.376L95.8764 98.296C95.887 98.6907 95.903 99.096 95.9244 99.512C96.2657 99.0853 96.6604 98.744 97.1084 98.488C97.567 98.2213 98.0897 98.088 98.6764 98.088C98.9004 98.088 99.1884 98.12 99.5404 98.184C99.8924 98.248 100.25 98.3707 100.612 98.552L100.308 101.256C100.042 101.096 99.7537 100.984 99.4444 100.92C99.1457 100.845 98.895 100.808 98.6924 100.808C98.0097 100.808 97.4284 101.117 96.9484 101.736C96.479 102.344 96.159 103.192 95.9884 104.28C95.9884 105.027 95.9777 105.741 95.9564 106.424C95.9457 107.096 95.919 107.704 95.8764 108.248H93.1884ZM105.3 108.264C104.745 108.264 104.201 108.168 103.668 107.976C103.145 107.784 102.671 107.485 102.244 107.08C101.828 106.685 101.497 106.189 101.252 105.592C101.007 104.984 100.884 104.275 100.884 103.464C100.884 102.547 101.023 101.757 101.3 101.096C101.588 100.424 101.967 99.8747 102.436 99.448C102.905 99.0107 103.428 98.6853 104.004 98.472C104.58 98.2587 105.156 98.152 105.732 98.152C106.073 98.152 106.399 98.1787 106.708 98.232C107.017 98.2747 107.305 98.3387 107.572 98.424C107.604 97.6453 107.641 96.8613 107.684 96.072C107.737 95.2827 107.796 94.504 107.86 93.736L110.548 93.912C110.463 94.7973 110.388 95.752 110.324 96.776C110.26 97.7893 110.212 98.824 110.18 99.88C110.159 100.936 110.148 101.965 110.148 102.968C110.148 103.907 110.159 104.803 110.18 105.656C110.212 106.499 110.249 107.267 110.292 107.96L107.524 108.168C107.513 107.965 107.508 107.768 107.508 107.576C107.199 107.779 106.857 107.944 106.484 108.072C106.121 108.2 105.727 108.264 105.3 108.264ZM103.46 103.32C103.46 103.875 103.567 104.312 103.78 104.632C103.993 104.941 104.255 105.16 104.564 105.288C104.873 105.416 105.172 105.48 105.46 105.48C105.801 105.48 106.143 105.405 106.484 105.256C106.825 105.107 107.145 104.845 107.444 104.472C107.444 104.344 107.444 104.221 107.444 104.104C107.444 103.24 107.455 102.355 107.476 101.448C106.975 101.011 106.431 100.792 105.844 100.792C105.599 100.792 105.337 100.829 105.06 100.904C104.783 100.979 104.521 101.112 104.276 101.304C104.041 101.485 103.844 101.741 103.684 102.072C103.535 102.392 103.46 102.808 103.46 103.32ZM115.567 104.28L115.519 102.008C115.945 101.965 116.479 101.933 117.119 101.912C117.759 101.891 118.404 101.88 119.055 101.88C119.513 101.88 119.945 101.885 120.351 101.896C120.767 101.907 121.124 101.923 121.423 101.944L121.391 104.184C121.124 104.184 120.836 104.184 120.527 104.184C120.217 104.173 119.892 104.168 119.551 104.168C118.868 104.168 118.175 104.179 117.471 104.2C116.767 104.211 116.132 104.237 115.567 104.28ZM132.947 108.28C131.646 108.28 130.515 107.992 129.555 107.416C128.595 106.851 127.854 106.051 127.331 105.016C126.808 103.981 126.547 102.76 126.547 101.352C126.547 100.819 126.611 100.227 126.739 99.576C126.878 98.9147 127.096 98.2587 127.395 97.608C127.694 96.9467 128.094 96.344 128.595 95.8C129.096 95.256 129.71 94.8187 130.435 94.488C131.16 94.1467 132.014 93.976 132.995 93.976C133.838 93.976 134.574 94.0827 135.203 94.296C135.832 94.4987 136.376 94.76 136.835 95.08C137.294 95.3893 137.672 95.7147 137.971 96.056C138.28 96.3973 138.526 96.712 138.707 97C138.888 97.2773 139.022 97.48 139.107 97.608L136.787 99.384C136.552 98.9467 136.275 98.52 135.955 98.104C135.635 97.6773 135.24 97.3253 134.771 97.048C134.302 96.7707 133.72 96.632 133.027 96.632C132.312 96.632 131.72 96.792 131.251 97.112C130.782 97.432 130.408 97.8373 130.131 98.328C129.864 98.8187 129.678 99.3413 129.571 99.896C129.464 100.44 129.411 100.947 129.411 101.416C129.411 101.917 129.464 102.413 129.571 102.904C129.678 103.395 129.859 103.843 130.115 104.248C130.382 104.653 130.734 104.979 131.171 105.224C131.619 105.459 132.179 105.576 132.851 105.576C133.598 105.576 134.206 105.443 134.675 105.176C135.155 104.909 135.555 104.536 135.875 104.056C136.195 103.565 136.494 102.995 136.771 102.344L139.395 103.528C138.926 104.499 138.398 105.341 137.811 106.056C137.224 106.771 136.536 107.32 135.747 107.704C134.958 108.088 134.024 108.28 132.947 108.28ZM141.261 108.104C141.175 107.549 141.101 106.877 141.037 106.088C140.983 105.299 140.941 104.44 140.909 103.512C140.887 102.584 140.877 101.64 140.877 100.68C140.877 99.4747 140.898 98.3013 140.941 97.16C140.983 96.0187 141.047 95.016 141.133 94.152L144.077 94.2C143.959 94.9573 143.869 95.848 143.805 96.872C143.751 97.896 143.725 99.0587 143.725 100.36C143.725 101.683 143.746 103.011 143.789 104.344C143.842 105.677 143.901 106.899 143.965 108.008L141.261 108.104ZM150.381 108.184C150.307 107.256 150.253 106.355 150.221 105.48C150.2 104.605 150.189 103.779 150.189 103C150.189 101.709 150.216 100.552 150.269 99.528C150.323 98.4933 150.376 97.6027 150.429 96.856C149.512 96.9093 148.621 96.9787 147.757 97.064C146.893 97.1493 146.093 97.2613 145.357 97.4L145.389 94.728C146.637 94.504 147.917 94.344 149.229 94.248C150.541 94.1413 151.853 94.088 153.165 94.088C154.104 94.088 155 94.1093 155.853 94.152C156.717 94.1947 157.544 94.2587 158.333 94.344L158.317 97.112C157.571 96.9947 156.76 96.9147 155.885 96.872C155.021 96.8187 154.136 96.792 153.229 96.792C153.176 97.5173 153.128 98.328 153.085 99.224C153.043 100.109 153.021 101.059 153.021 102.072C153.021 102.979 153.043 103.933 153.085 104.936C153.139 105.939 153.203 106.995 153.277 108.104L150.381 108.184ZM159.658 108.168C159.626 107.112 159.61 106.099 159.61 105.128C159.61 103.379 159.664 101.795 159.77 100.376C159.877 98.9573 160.032 97.752 160.234 96.76C160.33 96.3013 160.464 95.8587 160.634 95.432C160.816 95.0053 161.066 94.6587 161.386 94.392C161.717 94.1147 162.149 93.976 162.682 93.976C163.205 93.976 163.648 94.1147 164.01 94.392C164.373 94.6587 164.666 94.984 164.89 95.368C165.125 95.752 165.296 96.12 165.402 96.472C165.68 97.304 165.914 98.136 166.106 98.968C166.298 99.8 166.469 100.595 166.618 101.352C166.725 100.797 166.848 100.216 166.986 99.608C167.125 98.9893 167.264 98.408 167.402 97.864C167.541 97.3093 167.669 96.8507 167.786 96.488C168.33 94.8133 169.168 93.976 170.298 93.976C170.928 93.976 171.461 94.2053 171.898 94.664C172.336 95.112 172.656 95.7627 172.858 96.616C172.954 97 173.05 97.56 173.146 98.296C173.253 99.032 173.349 99.9067 173.434 100.92C173.53 101.923 173.61 103.032 173.674 104.248C173.749 105.464 173.808 106.755 173.85 108.12L171.034 108.056C171.034 107.491 171.018 106.835 170.986 106.088C170.965 105.341 170.928 104.568 170.874 103.768C170.832 102.957 170.778 102.168 170.714 101.4C170.661 100.632 170.602 99.9387 170.538 99.32C170.485 98.7013 170.432 98.2107 170.378 97.848C170.325 97.4747 170.277 97.288 170.234 97.288C170.224 97.288 170.165 97.48 170.058 97.864C169.962 98.2373 169.84 98.7387 169.69 99.368C169.552 99.9973 169.397 100.691 169.226 101.448C169.056 102.205 168.885 102.968 168.714 103.736C168.554 104.493 168.41 105.197 168.282 105.848C168.154 106.488 168.053 107.011 167.978 107.416L165.466 107.48C165.338 106.883 165.184 106.227 165.002 105.512C164.832 104.787 164.65 104.051 164.458 103.304C164.277 102.547 164.096 101.821 163.914 101.128C163.733 100.424 163.562 99.7947 163.402 99.24C163.253 98.6853 163.13 98.248 163.034 97.928C162.938 97.5973 162.88 97.432 162.858 97.432C162.816 97.432 162.768 97.6667 162.714 98.136C162.672 98.5947 162.629 99.2187 162.586 100.008C162.544 100.797 162.506 101.688 162.474 102.68C162.453 103.672 162.442 104.696 162.442 105.752C162.442 106.253 162.442 106.712 162.442 107.128C162.453 107.544 162.464 107.885 162.474 108.152L159.658 108.168ZM73.2479 130.752C72.1385 130.752 71.2052 130.555 70.4479 130.16C69.6905 129.776 69.0825 129.264 68.6239 128.624C68.1759 127.984 67.8505 127.285 67.6479 126.528C67.4452 125.771 67.3439 125.019 67.3439 124.272C67.3439 123.387 67.4879 122.512 67.7759 121.648C68.0639 120.784 68.4959 120 69.0719 119.296C69.6585 118.592 70.3839 118.027 71.2479 117.6C72.1225 117.173 73.1412 116.96 74.3039 116.96C75.2852 116.96 76.1439 117.104 76.8799 117.392C77.6159 117.669 78.2452 118.011 78.7679 118.416C79.3012 118.811 79.7279 119.184 80.0479 119.536L78.0479 121.696C77.7492 121.344 77.4292 121.013 77.0879 120.704C76.7572 120.395 76.3625 120.144 75.9039 119.952C75.4452 119.76 74.8799 119.664 74.2079 119.664C73.4825 119.664 72.8585 119.797 72.3359 120.064C71.8132 120.32 71.3865 120.667 71.0559 121.104C70.7252 121.541 70.4799 122.032 70.3199 122.576C70.1705 123.12 70.0959 123.68 70.0959 124.256C70.0959 124.939 70.2079 125.568 70.4319 126.144C70.6665 126.72 71.0132 127.184 71.4719 127.536C71.9412 127.888 72.5225 128.064 73.2159 128.064C74.0692 128.064 74.7732 127.867 75.3279 127.472C75.8825 127.077 76.2665 126.512 76.4799 125.776C76.0212 125.808 75.5785 125.851 75.1519 125.904C74.7359 125.947 74.3625 125.995 74.0319 126.048L73.7599 123.456C74.3892 123.317 75.1145 123.216 75.9359 123.152C76.7679 123.077 77.5625 123.04 78.3199 123.04C79.3652 123.04 80.1492 123.104 80.6719 123.232L80.6079 125.856C80.3839 125.792 80.0265 125.744 79.5359 125.712C79.5359 125.947 79.5359 126.192 79.5359 126.448C79.5465 126.704 79.5519 126.965 79.5519 127.232C79.5519 127.968 79.5412 128.693 79.5199 129.408C79.4985 130.123 79.4772 130.693 79.4559 131.12L76.7199 131.056C76.7305 130.917 76.7465 130.704 76.7679 130.416C76.7999 130.128 76.8319 129.803 76.8639 129.44C76.5012 129.824 76.0265 130.139 75.4399 130.384C74.8639 130.629 74.1332 130.752 73.2479 130.752ZM86.159 131.264C85.359 131.264 84.6337 131.056 83.983 130.64C83.3323 130.235 82.815 129.685 82.431 128.992C82.0577 128.288 81.871 127.504 81.871 126.64C81.871 125.829 82.0203 125.099 82.319 124.448C82.6177 123.787 83.023 123.221 83.535 122.752C84.0577 122.283 84.6497 121.925 85.311 121.68C85.9723 121.424 86.6657 121.296 87.391 121.296C87.999 121.296 88.5963 121.381 89.183 121.552C89.2257 121.328 89.263 121.104 89.295 120.88L92.031 121.344C91.9563 121.547 91.8817 121.851 91.807 122.256C91.7323 122.661 91.6683 123.115 91.615 123.616C91.5723 124.117 91.535 124.619 91.503 125.12C91.471 125.621 91.455 126.075 91.455 126.48C91.455 126.811 91.4763 127.136 91.519 127.456C91.5723 127.765 91.679 128.021 91.839 128.224C91.999 128.416 92.2443 128.512 92.575 128.512H92.799L92.399 131.296C91.695 131.296 91.1137 131.173 90.655 130.928C90.1963 130.693 89.8283 130.373 89.551 129.968C89.0923 130.48 88.5697 130.821 87.983 130.992C87.3963 131.173 86.7883 131.264 86.159 131.264ZM84.495 126.96C84.5483 127.472 84.7563 127.883 85.119 128.192C85.4923 128.491 85.9617 128.64 86.527 128.64C87.071 128.64 87.5243 128.496 87.887 128.208C88.2497 127.909 88.5483 127.504 88.783 126.992C88.7723 126.821 88.767 126.645 88.767 126.464C88.767 126.091 88.7777 125.707 88.799 125.312C88.8203 124.917 88.847 124.528 88.879 124.144C88.431 123.973 87.9617 123.888 87.471 123.888C86.895 123.888 86.3777 124.005 85.919 124.24C85.471 124.464 85.119 124.779 84.863 125.184C84.607 125.589 84.479 126.059 84.479 126.592C84.479 126.656 84.479 126.72 84.479 126.784C84.479 126.848 84.4843 126.907 84.495 126.96ZM93.7993 131.248C93.7886 131.088 93.7779 130.821 93.7673 130.448C93.7566 130.085 93.7459 129.648 93.7353 129.136C93.7246 128.624 93.7193 128.075 93.7193 127.488C93.7193 126.891 93.7193 126.293 93.7193 125.696C93.7193 125.035 93.7193 124.405 93.7193 123.808C93.7299 123.211 93.7353 122.693 93.7353 122.256C93.7459 121.819 93.7513 121.504 93.7513 121.312L96.4553 121.264C96.4339 121.563 96.4179 121.925 96.4073 122.352C96.6846 121.979 97.0046 121.685 97.3673 121.472C97.7299 121.259 98.1459 121.152 98.6153 121.152C99.1806 121.152 99.6446 121.317 100.007 121.648C100.381 121.979 100.685 122.411 100.919 122.944C101.687 121.749 102.631 121.152 103.751 121.152C104.381 121.152 104.898 121.291 105.303 121.568C105.719 121.835 106.045 122.197 106.279 122.656C106.514 123.115 106.685 123.632 106.791 124.208C106.909 124.784 106.983 125.376 107.015 125.984C107.047 126.592 107.063 127.179 107.063 127.744C107.063 128.416 107.053 129.029 107.031 129.584C107.01 130.139 107.005 130.667 107.015 131.168H104.247C104.247 130.912 104.247 130.587 104.247 130.192C104.247 129.808 104.247 129.419 104.247 129.024C104.258 128.619 104.263 128.272 104.263 127.984C104.263 127.685 104.263 127.509 104.263 127.456C104.263 126.816 104.247 126.213 104.215 125.648C104.183 125.083 104.103 124.624 103.975 124.272C103.847 123.92 103.639 123.744 103.351 123.744C103.074 123.744 102.829 123.877 102.615 124.144C102.402 124.411 102.21 124.757 102.039 125.184C101.879 125.611 101.741 126.064 101.623 126.544C101.645 126.96 101.661 127.376 101.671 127.792C101.682 128.197 101.687 128.592 101.687 128.976C101.687 129.413 101.682 129.792 101.671 130.112C101.671 130.443 101.671 130.795 101.671 131.168H98.9833C98.9833 130.304 98.9779 129.541 98.9673 128.88C98.9566 128.219 98.9353 127.579 98.9033 126.96C98.8499 125.851 98.7326 125.04 98.5513 124.528C98.3806 124.005 98.1406 123.744 97.8313 123.744C97.4899 123.744 97.2019 123.952 96.9673 124.368C96.7326 124.773 96.5406 125.269 96.3913 125.856C96.4019 126.709 96.4233 127.6 96.4553 128.528C96.4873 129.456 96.5299 130.352 96.5833 131.216L93.7993 131.248ZM113.288 131.28C112.264 131.28 111.362 131.077 110.584 130.672C109.816 130.277 109.213 129.723 108.776 129.008C108.349 128.293 108.136 127.467 108.136 126.528C108.136 125.963 108.232 125.371 108.424 124.752C108.616 124.123 108.925 123.536 109.352 122.992C109.778 122.448 110.338 122.005 111.032 121.664C111.736 121.323 112.589 121.152 113.592 121.152C114.317 121.152 114.925 121.232 115.416 121.392C115.917 121.552 116.322 121.76 116.632 122.016C116.952 122.272 117.192 122.544 117.352 122.832C117.522 123.12 117.634 123.397 117.688 123.664C117.752 123.92 117.784 124.133 117.784 124.304C117.784 125.339 117.346 126.139 116.472 126.704C115.608 127.259 114.381 127.536 112.792 127.536C112.429 127.536 112.082 127.52 111.752 127.488C111.432 127.456 111.133 127.419 110.856 127.376C111.058 127.909 111.394 128.304 111.864 128.56C112.333 128.805 112.818 128.928 113.32 128.928C114.045 128.928 114.685 128.8 115.24 128.544C115.794 128.277 116.317 127.872 116.808 127.328L118.232 129.376C117.89 129.653 117.506 129.941 117.08 130.24C116.664 130.539 116.152 130.784 115.544 130.976C114.936 131.179 114.184 131.28 113.288 131.28ZM113.64 123.552C113.01 123.552 112.456 123.712 111.976 124.032C111.496 124.352 111.144 124.773 110.92 125.296C111.186 125.339 111.448 125.376 111.704 125.408C111.97 125.429 112.232 125.44 112.488 125.44C112.722 125.44 112.989 125.419 113.288 125.376C113.597 125.333 113.896 125.269 114.184 125.184C114.482 125.099 114.728 124.992 114.92 124.864C115.112 124.725 115.208 124.565 115.208 124.384C115.208 124.299 115.165 124.192 115.08 124.064C114.994 123.936 114.84 123.819 114.616 123.712C114.392 123.605 114.066 123.552 113.64 123.552ZM128.375 131.232C126.957 131.232 125.81 130.805 124.935 129.952C124.071 129.088 123.447 127.776 123.063 126.016L125.815 125.184C126.103 127.392 126.909 128.496 128.231 128.496C128.701 128.496 129.069 128.384 129.335 128.16C129.613 127.925 129.81 127.627 129.927 127.264C130.055 126.901 130.135 126.507 130.167 126.08C130.199 125.653 130.215 125.248 130.215 124.864C130.215 124.32 130.199 123.712 130.167 123.04C130.135 122.368 130.066 121.579 129.959 120.672C129.863 119.765 129.703 118.699 129.479 117.472L132.455 116.976C132.53 117.552 132.61 118.256 132.695 119.088C132.781 119.909 132.855 120.784 132.919 121.712C132.983 122.64 133.015 123.547 133.015 124.432C133.015 124.891 132.994 125.419 132.951 126.016C132.919 126.613 132.829 127.216 132.679 127.824C132.53 128.432 132.29 128.997 131.959 129.52C131.629 130.032 131.17 130.443 130.583 130.752C130.007 131.072 129.271 131.232 128.375 131.232ZM138.8 131.264C138 131.264 137.274 131.056 136.624 130.64C135.973 130.235 135.456 129.685 135.072 128.992C134.698 128.288 134.512 127.504 134.512 126.64C134.512 125.829 134.661 125.099 134.96 124.448C135.258 123.787 135.664 123.221 136.176 122.752C136.698 122.283 137.29 121.925 137.952 121.68C138.613 121.424 139.306 121.296 140.032 121.296C140.64 121.296 141.237 121.381 141.824 121.552C141.866 121.328 141.904 121.104 141.936 120.88L144.672 121.344C144.597 121.547 144.522 121.851 144.448 122.256C144.373 122.661 144.309 123.115 144.256 123.616C144.213 124.117 144.176 124.619 144.144 125.12C144.112 125.621 144.096 126.075 144.096 126.48C144.096 126.811 144.117 127.136 144.16 127.456C144.213 127.765 144.32 128.021 144.48 128.224C144.64 128.416 144.885 128.512 145.216 128.512H145.44L145.04 131.296C144.336 131.296 143.754 131.173 143.296 130.928C142.837 130.693 142.469 130.373 142.192 129.968C141.733 130.48 141.21 130.821 140.624 130.992C140.037 131.173 139.429 131.264 138.8 131.264ZM137.136 126.96C137.189 127.472 137.397 127.883 137.76 128.192C138.133 128.491 138.602 128.64 139.168 128.64C139.712 128.64 140.165 128.496 140.528 128.208C140.89 127.909 141.189 127.504 141.424 126.992C141.413 126.821 141.408 126.645 141.408 126.464C141.408 126.091 141.418 125.707 141.44 125.312C141.461 124.917 141.488 124.528 141.52 124.144C141.072 123.973 140.602 123.888 140.112 123.888C139.536 123.888 139.018 124.005 138.56 124.24C138.112 124.464 137.76 124.779 137.504 125.184C137.248 125.589 137.12 126.059 137.12 126.592C137.12 126.656 137.12 126.72 137.12 126.784C137.12 126.848 137.125 126.907 137.136 126.96ZM146.44 131.248C146.429 131.088 146.419 130.821 146.408 130.448C146.397 130.085 146.387 129.648 146.376 129.136C146.365 128.624 146.36 128.075 146.36 127.488C146.36 126.891 146.36 126.293 146.36 125.696C146.36 125.035 146.36 124.405 146.36 123.808C146.371 123.211 146.376 122.693 146.376 122.256C146.387 121.819 146.392 121.504 146.392 121.312L149.096 121.264C149.075 121.563 149.059 121.925 149.048 122.352C149.325 121.979 149.645 121.685 150.008 121.472C150.371 121.259 150.787 121.152 151.256 121.152C151.821 121.152 152.285 121.317 152.648 121.648C153.021 121.979 153.325 122.411 153.56 122.944C154.328 121.749 155.272 121.152 156.392 121.152C157.021 121.152 157.539 121.291 157.944 121.568C158.36 121.835 158.685 122.197 158.92 122.656C159.155 123.115 159.325 123.632 159.432 124.208C159.549 124.784 159.624 125.376 159.656 125.984C159.688 126.592 159.704 127.179 159.704 127.744C159.704 128.416 159.693 129.029 159.672 129.584C159.651 130.139 159.645 130.667 159.656 131.168H156.888C156.888 130.912 156.888 130.587 156.888 130.192C156.888 129.808 156.888 129.419 156.888 129.024C156.899 128.619 156.904 128.272 156.904 127.984C156.904 127.685 156.904 127.509 156.904 127.456C156.904 126.816 156.888 126.213 156.856 125.648C156.824 125.083 156.744 124.624 156.616 124.272C156.488 123.92 156.28 123.744 155.992 123.744C155.715 123.744 155.469 123.877 155.256 124.144C155.043 124.411 154.851 124.757 154.68 125.184C154.52 125.611 154.381 126.064 154.264 126.544C154.285 126.96 154.301 127.376 154.312 127.792C154.323 128.197 154.328 128.592 154.328 128.976C154.328 129.413 154.323 129.792 154.312 130.112C154.312 130.443 154.312 130.795 154.312 131.168H151.624C151.624 130.304 151.619 129.541 151.608 128.88C151.597 128.219 151.576 127.579 151.544 126.96C151.491 125.851 151.373 125.04 151.192 124.528C151.021 124.005 150.781 123.744 150.472 123.744C150.131 123.744 149.843 123.952 149.608 124.368C149.373 124.773 149.181 125.269 149.032 125.856C149.043 126.709 149.064 127.6 149.096 128.528C149.128 129.456 149.171 130.352 149.224 131.216L146.44 131.248ZM91.0219 154.216C90.9152 153.8 90.7979 153.373 90.6699 152.936C90.5525 152.499 90.4459 152.115 90.3499 151.784C91.5339 151.123 92.5632 150.408 93.4379 149.64C94.3232 148.872 95.0485 148.109 95.6139 147.352C96.1899 146.595 96.6165 145.907 96.8939 145.288C97.1819 144.669 97.3259 144.184 97.3259 143.832C97.3259 143.427 97.1872 143.112 96.9099 142.888C96.6432 142.653 96.2805 142.536 95.8219 142.536C95.1925 142.536 94.5525 142.76 93.9019 143.208C93.2619 143.656 92.6645 144.291 92.1099 145.112L90.4299 143.096C90.9099 142.52 91.4165 142.003 91.9499 141.544C92.4939 141.085 93.0752 140.723 93.6939 140.456C94.3125 140.179 94.9739 140.04 95.6779 140.04C96.4459 140.04 97.1499 140.173 97.7899 140.44C98.4299 140.707 98.9419 141.107 99.3259 141.64C99.7099 142.173 99.9019 142.835 99.9019 143.624C99.9019 144.371 99.7099 145.181 99.3259 146.056C98.9419 146.92 98.4085 147.789 97.7259 148.664C97.0432 149.528 96.2645 150.333 95.3899 151.08C95.7419 151.069 96.0992 151.064 96.4619 151.064C97.1659 151.064 97.8112 151.107 98.3979 151.192C98.9845 151.267 99.5925 151.384 100.222 151.544L99.6939 154.008C99.1712 153.88 98.6165 153.773 98.0299 153.688C97.4432 153.603 96.7712 153.56 96.0139 153.56C95.1179 153.56 94.2272 153.608 93.3419 153.704C92.4565 153.811 91.6832 153.981 91.0219 154.216ZM107.044 154.248C106.233 154.248 105.508 154.056 104.868 153.672C104.228 153.299 103.684 152.787 103.236 152.136C102.798 151.485 102.462 150.749 102.228 149.928C101.993 149.107 101.876 148.253 101.876 147.368C101.876 146.312 102.02 145.32 102.308 144.392C102.606 143.453 103.033 142.616 103.588 141.88C104.142 141.144 104.809 140.536 105.588 140.056L105.812 140.536C106.334 140.269 106.9 140.136 107.508 140.136C108.382 140.136 109.145 140.328 109.796 140.712C110.457 141.085 111.001 141.597 111.428 142.248C111.865 142.888 112.19 143.608 112.404 144.408C112.628 145.208 112.74 146.035 112.74 146.888C112.74 148.157 112.574 149.256 112.244 150.184C111.924 151.112 111.492 151.875 110.948 152.472C110.404 153.069 109.79 153.512 109.108 153.8C108.436 154.099 107.748 154.248 107.044 154.248ZM104.5 147.512C104.5 147.896 104.537 148.328 104.612 148.808C104.697 149.288 104.841 149.747 105.044 150.184C105.246 150.611 105.518 150.968 105.86 151.256C106.212 151.533 106.66 151.672 107.204 151.672C107.79 151.672 108.302 151.475 108.74 151.08C109.177 150.675 109.518 150.115 109.764 149.4C110.02 148.685 110.148 147.859 110.148 146.92C110.148 145.981 110.004 145.213 109.716 144.616C109.438 144.008 109.086 143.56 108.66 143.272C108.244 142.973 107.822 142.824 107.396 142.824C107.172 142.824 106.958 142.888 106.756 143.016C106.553 143.144 106.393 143.315 106.276 143.528L106.052 143.048C105.55 143.549 105.193 144.056 104.98 144.568C104.766 145.08 104.633 145.587 104.58 146.088C104.526 146.579 104.5 147.053 104.5 147.512ZM115.022 154.216C114.915 153.8 114.798 153.373 114.67 152.936C114.553 152.499 114.446 152.115 114.35 151.784C115.534 151.123 116.563 150.408 117.438 149.64C118.323 148.872 119.049 148.109 119.614 147.352C120.19 146.595 120.617 145.907 120.894 145.288C121.182 144.669 121.326 144.184 121.326 143.832C121.326 143.427 121.187 143.112 120.91 142.888C120.643 142.653 120.281 142.536 119.822 142.536C119.193 142.536 118.553 142.76 117.902 143.208C117.262 143.656 116.665 144.291 116.11 145.112L114.43 143.096C114.91 142.52 115.417 142.003 115.95 141.544C116.494 141.085 117.075 140.723 117.694 140.456C118.313 140.179 118.974 140.04 119.678 140.04C120.446 140.04 121.15 140.173 121.79 140.44C122.43 140.707 122.942 141.107 123.326 141.64C123.71 142.173 123.902 142.835 123.902 143.624C123.902 144.371 123.71 145.181 123.326 146.056C122.942 146.92 122.409 147.789 121.726 148.664C121.043 149.528 120.265 150.333 119.39 151.08C119.742 151.069 120.099 151.064 120.462 151.064C121.166 151.064 121.811 151.107 122.398 151.192C122.985 151.267 123.593 151.384 124.222 151.544L123.694 154.008C123.171 153.88 122.617 153.773 122.03 153.688C121.443 153.603 120.771 153.56 120.014 153.56C119.118 153.56 118.227 153.608 117.342 153.704C116.457 153.811 115.683 153.981 115.022 154.216ZM129.604 148.552L126.98 148.392C127.033 147.795 127.102 147.149 127.188 146.456C127.273 145.752 127.358 145.037 127.444 144.312C127.54 143.576 127.636 142.856 127.732 142.152C127.828 141.448 127.918 140.797 128.004 140.2L130.644 140.264C130.622 140.371 130.601 140.488 130.58 140.616C131.092 140.584 131.636 140.557 132.212 140.536C132.788 140.504 133.348 140.483 133.892 140.472C134.436 140.461 134.91 140.456 135.316 140.456C135.518 140.456 135.7 140.461 135.86 140.472C136.02 140.472 136.148 140.472 136.244 140.472L136.116 143.096C135.913 143.085 135.705 143.08 135.492 143.08C135.278 143.08 135.049 143.08 134.804 143.08C134.078 143.08 133.316 143.096 132.516 143.128C131.716 143.16 130.942 143.208 130.196 143.272C130.153 143.613 130.11 143.96 130.068 144.312C130.036 144.664 129.998 145.011 129.956 145.352C130.34 145.16 130.729 145.032 131.124 144.968C131.529 144.904 131.913 144.872 132.276 144.872C133.15 144.872 133.913 145.053 134.564 145.416C135.225 145.768 135.737 146.264 136.1 146.904C136.462 147.544 136.644 148.291 136.644 149.144C136.644 150.2 136.43 151.112 136.004 151.88C135.588 152.637 134.985 153.219 134.196 153.624C133.417 154.04 132.484 154.248 131.396 154.248C130.393 154.248 129.428 154.019 128.5 153.56C127.582 153.112 126.836 152.493 126.26 151.704L128.036 149.768C129.092 151.016 130.217 151.64 131.412 151.64C132.265 151.64 132.916 151.427 133.364 151C133.812 150.573 134.036 149.971 134.036 149.192C134.036 148.573 133.854 148.099 133.492 147.768C133.129 147.437 132.606 147.272 131.924 147.272C131.348 147.272 130.9 147.357 130.58 147.528C130.26 147.699 130.025 147.885 129.876 148.088C129.737 148.291 129.646 148.445 129.604 148.552Z" fill="white"/>
<path d="M93.2521 7.43004C92.5751 7.67214 90.366 8.31199 88.3529 8.88266C79.0712 11.4766 76.1317 13.4999 74.2967 18.5322L73.8335 19.8119L69.7004 22.475C67.4201 23.9277 65.5495 25.1036 65.5495 25.0517C65.5495 25.0171 65.8702 24.481 66.2799 23.8931C67.2776 22.3886 68.2752 20.2961 69.0056 18.1864C69.647 16.3014 71.4998 9.40145 71.3751 9.29769C71.3394 9.26311 70.4487 9.74731 69.3976 10.3526C61.4342 15.0044 56.3925 19.8465 54.3259 24.8615C53.2036 27.5592 52.9898 29.8073 53.6133 32.1246L53.9874 33.4735L53.2214 34.1133C51.4577 35.5659 48.3044 38.4712 46.7188 40.0967C45.3114 41.5494 45.0977 41.7223 45.3827 41.1343C46.3982 39.111 47.378 35.5659 47.7343 32.6607C48.055 29.8592 47.8768 24.948 47.2889 20.6939L47.182 19.9503L45.1689 22.4232C41.98 26.3487 40.5726 28.1991 39.1474 30.3261C36.5464 34.1998 35.7803 36.1539 35.2459 40.2524C34.7649 44.0396 35.5665 49.4177 36.7602 50.3688C37.0274 50.5764 37.1343 50.5591 37.5797 50.2478C37.8647 50.0403 38.1497 49.8673 38.2032 49.8673C38.2566 49.8673 37.7044 50.6628 36.9739 51.6312C35.6022 53.4989 32.5736 58.1334 31.4512 60.1049C31.0771 60.762 30.7564 61.2808 30.7386 61.2808C30.703 61.2808 30.7564 60.8658 30.8633 60.3643C30.9524 59.8801 31.0415 58.0643 31.0415 56.3523C31.0415 51.8215 30.7386 50.3343 27.9595 41.7742C27.229 39.5606 26.5877 37.814 26.5342 37.8832C26.4095 38.0216 24.7705 42.9155 23.4344 47.1004C22.5614 49.85 21.4391 54.1214 21.0828 56.0929C20.8868 57.1477 20.7621 58.6695 20.7621 60.3297C20.7621 63.2176 21.065 64.8259 22.1161 67.2296C22.7218 68.5958 24.9309 72.5732 25.1268 72.6597C25.1981 72.6943 25.0556 73.2303 24.8062 73.8702C24.0401 75.7897 22.3299 80.822 21.9735 82.1536C21.7954 82.8453 21.5994 83.416 21.5282 83.416C21.4569 83.416 21.35 83.0528 21.2788 82.5859C21.1006 81.3581 19.4972 76.8619 18.4283 74.5619C17.9117 73.4379 17.11 72.0371 16.6646 71.4146C16.2192 70.792 14.9366 68.8206 13.8142 67.0394C11.231 62.8718 10.8569 62.7334 10.8569 65.8635C10.8569 66.6244 10.7678 68.4574 10.6787 69.9274C9.84141 82.2746 10.3224 87.134 12.7809 91.8031C13.7964 93.7054 15.5066 95.4693 17.4307 96.5587C18.7312 97.3024 18.7312 97.3196 18.6243 97.9422C18.3571 99.5505 17.9651 104.375 17.8582 107.315L17.7513 110.566L16.8784 108.975C15.7204 106.9 13.6004 103.58 12.2286 101.747C10.2333 99.049 9.03972 97.7693 7.04442 96.2129C5.9577 95.3655 4.51467 94.2415 3.8555 93.7227C2.0918 92.3219 1.75331 92.4257 2.19869 94.1896C2.34121 94.7776 2.87567 97.4407 3.37449 100.104C4.74626 107.54 5.65484 110.756 7.40073 114.353C9.57418 118.832 13.1016 122.343 17.6445 124.591L18.6599 125.075L18.8559 126.51C19.2835 129.398 20.2098 134.016 20.8334 136.402C21.0115 137.077 21.1362 137.647 21.1184 137.664C21.0828 137.699 20.7977 137.353 20.4771 136.921C19.4438 135.52 17.4129 133.67 15.667 132.528C14.7406 131.923 12.7809 130.609 11.3023 129.589C7.08005 126.683 0.452804 122.498 0.078685 122.498C-0.188543 122.498 0.167761 123.328 2.03836 127.15C4.88879 132.995 8.00644 138.927 9.34258 141.089C12.5671 146.328 17.2347 149.96 23.2919 151.983C24.3073 152.312 25.4297 152.588 25.7682 152.588C26.3561 152.588 26.4095 152.64 26.8549 153.678C27.5319 155.252 31.3443 162.515 32.2173 163.881C33.0011 165.126 32.9655 165.143 31.7541 164.244C29.8122 162.809 25.9285 160.716 22.704 159.35C20.2989 158.33 18.5708 157.776 15.5957 157.085C14.3308 156.791 12.1752 156.151 10.8212 155.701C7.16913 154.439 7.02661 154.681 9.57418 157.707C10.5184 158.849 12.1218 160.82 13.1016 162.1C15.4176 165.091 17.4485 167.27 19.9782 169.484C25.0378 173.911 27.2468 175.225 31.665 176.453C35.2993 177.473 37.1877 177.646 40.145 177.3L41.7306 177.11L42.1938 177.698C43.9753 179.912 48.2331 184.2 51.9209 187.503L53.3461 188.783L50.6382 187.451C47.5918 185.964 47.1286 185.843 41.2318 185.03C32.5914 183.837 23.47 183.111 22.3833 183.509C22.1161 183.63 22.1517 183.716 22.7396 184.252C24.0045 185.428 31.5937 190.789 34.4442 192.536C36.7067 193.919 38.8623 194.939 41.6771 195.96C46.701 197.775 48.732 198.139 53.0967 198.017C56.6953 197.914 57.8711 197.706 60.7394 196.599L62.806 195.804L65.2644 197.291C67.9367 198.917 72.2658 201.269 74.1008 202.099C77.0937 203.447 77.4322 203.62 76.7731 203.517C76.4346 203.465 74.2789 203.378 71.9986 203.309C66.3334 203.171 64.9972 203.326 55.9293 205.056C53.2392 205.575 49.5336 206.249 47.6987 206.578C43.7615 207.252 43.5121 207.442 45.7568 208.065C46.5229 208.272 49.3555 209.12 52.0278 209.932C61.1848 212.699 62.9663 213.011 69.2907 213.028C73.3525 213.028 74.0473 212.993 75.7576 212.63C79.8551 211.8 82.6343 210.52 85.1284 208.341C86.2329 207.373 86.7139 207.044 86.999 207.114C87.1949 207.148 88.5845 207.511 90.0632 207.909C91.5418 208.307 94.0538 208.895 95.6393 209.206C97.2071 209.517 98.5432 209.811 98.5967 209.863C98.6323 209.898 98.2582 210.036 97.7415 210.157C95.3721 210.745 88.9408 213.668 79.4453 218.458C74.0651 221.173 72.4262 222.124 72.729 222.314C73.2813 222.66 82.4561 222.314 87.7294 221.744C94.2319 221.052 102.587 218.233 106.008 215.57C107.273 214.584 108.591 213.305 109.927 211.783L110.568 211.039H114.221H117.891L120.438 213.408C124.838 217.489 125.533 217.853 133.425 220.17C137.95 221.501 139.304 221.709 148.052 222.297C155.908 222.833 156.407 222.833 156.407 222.262C156.407 221.83 151.686 219.357 148.746 218.25C147.82 217.905 146.288 217.144 145.362 216.556C142.939 215.034 140.926 213.979 138.503 212.941C136.294 212.008 130.361 210.002 129.827 210.002C129.649 210.002 129.506 209.95 129.506 209.863C129.506 209.794 130.326 209.587 131.341 209.414C133.497 209.033 137.933 207.961 140.516 207.2C141.513 206.906 142.351 206.699 142.386 206.733C142.404 206.768 142.547 207.027 142.689 207.321C143.58 208.999 149.548 211.99 153.557 212.751C156.674 213.356 163.319 213.305 166.74 212.682C169.822 212.094 180.742 208.86 182.417 208.013C183.148 207.65 183.112 207.148 182.381 206.906C181.455 206.629 175.22 205.402 170.837 204.658C163.711 203.43 161.627 203.188 158.01 203.188C154.821 203.188 154.038 203.275 149.851 204.035C149.584 204.087 149.78 203.949 150.261 203.741C154.501 201.943 161.057 198.432 165.261 195.683C167.345 194.317 167.417 194.299 167.203 194.836C166.775 195.839 167.274 196.444 169.091 197.101C171.158 197.862 173.135 198.139 176.36 198.139C179.585 198.139 180.867 197.948 184.288 196.945C187.405 196.029 189.81 194.974 192.768 193.227C197.703 190.322 204.508 185.791 205.559 184.684C206.093 184.131 205.951 183.768 205.131 183.612C204.08 183.422 192.501 184.269 188.207 184.857C182.952 185.566 178.159 187.036 174.578 189.06L173.599 189.613L174.578 188.783C178.444 185.515 182.275 181.727 185.695 177.802C186.657 176.695 186.728 176.643 187.103 176.868C188.759 177.871 193.338 177.542 198.077 176.072C200.428 175.346 201.907 174.585 204.419 172.839C210.298 168.757 212.543 166.561 216.052 161.477C217.531 159.333 218.724 157.949 220.061 156.894C221.308 155.891 221.628 155.425 221.236 155.165C220.898 154.94 220.15 155.079 217.424 155.874C216.159 156.237 213.95 156.825 212.525 157.188C209.87 157.846 207.911 158.503 205.577 159.558C202.37 160.993 198.094 163.552 195.44 165.627C193.997 166.751 193.961 166.769 194.371 166.129C196.562 162.688 200.001 156.341 201.212 153.488C201.479 152.865 201.729 152.537 201.871 152.588C203.207 153.038 208.196 151.188 211.848 148.87C214.021 147.47 217.121 144.582 218.279 142.818C220.47 139.48 226.652 127.531 227.775 124.453C228.291 123.035 228.024 123.017 225.868 124.262C223.356 125.732 215.536 130.782 213.237 132.442C211.117 133.981 208.516 136.419 207.305 138.045C206.842 138.65 206.468 139.1 206.468 139.065C206.468 139.013 206.699 138.097 207.002 137.007C207.643 134.569 208.481 130.592 208.962 127.513C209.176 126.234 209.354 125.179 209.371 125.179C209.389 125.162 209.728 125.058 210.138 124.954C211.171 124.66 214.591 122.637 215.892 121.547C218.137 119.628 219.74 117.553 221.272 114.544C222.982 111.206 224.069 107.54 225.174 101.366C225.565 99.1527 226.153 96.3512 226.456 95.158C227.222 92.1144 227.026 91.7858 225.227 93.2385C222.929 95.1234 216.48 101.885 214.306 104.704C212.988 106.416 211.741 108.543 210.921 110.445L210.262 111.95L210.155 108.197C210.048 104.911 209.728 100.675 209.389 98.0805C209.282 97.3196 209.3 97.2851 209.639 97.3715C210.334 97.5445 211.67 96.7144 213.433 95.0197C214.93 93.567 215.251 93.152 215.945 91.7167C217.353 88.846 218.083 86.0445 218.404 82.2573C218.707 78.6085 218.618 75.6168 217.958 67.5063C217.531 62.3011 217.816 62.4567 215.482 66.1402C211.741 72.0717 208.908 77.2769 208.053 79.8709C207.732 80.8739 207.643 81.6002 207.572 84.1596C207.537 85.8543 207.465 87.2205 207.43 87.1859C207.394 87.1513 207.091 86.0272 206.735 84.713C205.933 81.6867 204.259 76.5852 203.101 73.68C202.513 72.1927 202.334 71.5529 202.53 71.7258C203.332 72.4349 204.241 71.7258 205.488 69.374C206.414 67.6274 207.554 64.4281 208 62.3184C208.516 59.7936 208.142 57.0786 206.361 50.6455C205.452 47.3598 203.029 40.114 202.726 39.7509C202.139 39.0591 201.283 40.5982 199.342 45.8035C198.469 48.1726 198.255 49.4523 198.059 54.035C197.916 57.1823 197.899 59.1192 198.041 60.6928C198.13 61.9206 198.201 62.9409 198.184 62.9755C198.148 63.0101 197.685 62.2146 197.15 61.2289C195.102 57.5282 192.055 52.9109 189.383 49.4523C187.975 47.6192 187.922 47.2907 189.276 48.6568C189.668 49.0546 190.381 49.6598 190.862 50.0057L191.734 50.6282L192.144 50.1613C192.999 49.1929 193.516 46.3741 193.516 42.6907C193.516 36.69 191.948 32.9028 186.8 26.4352C185.784 25.1555 181.705 20.2961 181.134 19.6909C180.974 19.5179 181.063 23.3743 181.366 30.8622C181.526 35.1336 181.776 37.105 182.328 38.7133C182.667 39.6817 183.931 42.293 184.644 43.4689C184.911 43.9012 185 44.0914 184.84 43.9185C182.898 41.6012 177.732 36.5689 174.881 34.1652C174.276 33.6637 174.222 33.5772 174.472 33.3351C174.97 32.8682 175.184 31.6577 175.184 29.4615C175.184 26.954 174.953 25.8645 174.097 24.1871C172.548 21.1608 168.913 17.0969 165.172 14.2089C162.945 12.4969 158.58 9.74731 158.064 9.74731C157.529 9.74731 158.046 12.5142 159.525 17.339C160.665 21.0743 161.413 22.5096 163.693 25.3803C164.495 26.3833 164.566 26.5389 164.139 26.2622C163.854 26.0893 162.5 25.3457 161.128 24.6021C158.01 22.942 155.481 21.5239 155.267 21.3337C155.178 21.2472 155.035 20.6939 154.946 20.0886C154.608 17.7021 152.594 14.7969 149.94 12.8428C147.446 11.0097 145.094 10.1105 136.472 7.65485C133.728 6.87666 133.247 6.82478 133.247 7.32628C133.247 8.08718 138.039 14.2781 141.032 17.3563C143.491 19.8984 146.876 21.7314 150.421 22.475C151.561 22.6999 151.953 22.9247 155.374 25.2592C157.405 26.6427 159.061 27.8186 159.026 27.8532C158.99 27.8705 158.046 27.8359 156.941 27.7494C154.501 27.5592 152.345 27.7322 149.495 28.3547C146.911 28.9081 143.295 29.963 141.175 30.7584C136.632 32.4705 137.149 32.7472 146.876 33.7847C149.619 34.0787 151.989 34.3554 152.131 34.39C152.274 34.4419 153.877 34.5456 155.677 34.6494C159.311 34.8569 164.905 34.6321 166.918 34.2344L168.076 33.9923L170.125 35.6178C171.247 36.4998 172.69 37.693 173.331 38.2464L174.489 39.284L172.886 38.8689C169.661 38.0388 167.737 37.8486 162.464 37.8659C157.137 37.8832 156.015 38.0216 155.908 38.7306C155.837 39.2494 156.282 39.5434 158.723 40.5809C159.952 41.0997 162.749 42.3621 164.958 43.3824C168.913 45.2155 172.833 46.7892 174.792 47.3425C176.289 47.7576 179.602 48.2764 181.669 48.4147L183.522 48.5358L185.392 50.9049C186.408 52.2192 187.744 53.9831 188.35 54.8132C189.294 56.1447 189.383 56.3004 188.92 56.0064C184.983 53.4816 176.307 50.4207 172.156 50.0921C170.802 49.9884 170.499 50.1267 170.819 50.7147C171.176 51.3373 183.807 61.7131 186.354 63.4597C190.006 65.9845 194.246 68.3364 195.85 68.7341L196.651 68.9244L197.489 70.7747C198.344 72.6424 200.589 78.2972 200.589 78.5739C200.589 78.6604 199.68 77.8303 198.593 76.7235C196.081 74.2333 194.068 72.7461 190.683 70.8612C185.659 68.0597 182.417 66.6935 182.417 67.368C182.417 67.7311 183.29 68.9589 184.573 70.3597C186.711 72.7461 189.312 76.4814 191.574 80.4589C192.144 81.4446 192.892 82.6551 193.267 83.1393C195.404 85.9408 199.431 89.728 202.406 91.7513C203.279 92.3565 204.116 92.9099 204.259 93.0137C204.65 93.2731 205.417 98.4956 205.915 104.168C205.987 105.067 206.04 105.828 206.022 105.862C206.004 105.88 205.719 105.188 205.399 104.306C204.633 102.127 203.475 100 202.281 98.5475C201.034 97.043 191.164 87.134 190.897 87.134C190.523 87.134 190.755 88.2062 192.02 92.4084C194.656 101.107 196.384 105.69 198.629 109.961C200.41 113.385 202.584 116.498 204.864 118.919L205.808 119.922L205.684 121.34C205.399 124.47 204.205 132.01 203.973 132.01C203.902 132.01 203.795 131.525 203.742 130.92C203.403 127.41 201.372 122.965 196.527 115.149C194.514 111.88 193.498 110.532 193.142 110.601C192.696 110.687 192.679 112.209 193.017 117.743C193.623 127.894 194.157 133.514 194.745 135.728C195.547 138.875 197.845 143.821 199.359 145.688L199.858 146.311L198.825 148.801C197.15 152.813 193.997 159.194 193.997 158.555C193.997 158.451 194.086 157.258 194.175 155.891C194.531 150.755 193.498 143.821 191.485 137.976C190.701 135.676 190.078 134.604 189.543 134.604C189.062 134.604 188.884 135.019 188.742 136.592C188.581 138.373 187.975 141.434 186.782 146.536C184.822 154.871 184.466 157.258 184.608 161.373C184.715 164.469 184.911 165.524 186.016 168.619L186.586 170.21L185.054 172.164C183.468 174.188 180.101 178.061 179.727 178.286C179.567 178.372 179.549 178.286 179.638 177.992C179.87 177.162 180.457 173.565 180.636 171.801C180.903 169.19 180.849 163.379 180.547 159.592C180.386 157.794 180.244 156.22 180.208 156.134C180.172 156.03 179.531 157.171 178.765 158.641C176.681 162.688 173.955 167.495 172.583 169.588C169.109 174.897 168.307 177.802 167.88 186.569L167.773 189.008L166.668 189.786C164.246 191.55 158.723 195.129 158.456 195.129C158.402 195.129 158.687 194.628 159.079 194.023C161.039 191.031 162.999 186.137 163.961 181.848C164.353 180.136 165.136 175.191 165.029 175.087C164.905 174.948 155.356 184.252 152.612 187.175C147.375 192.778 145.076 196.617 144.56 200.681L144.435 201.649L142.012 202.444C140.053 203.084 135.189 204.468 134.904 204.468C134.868 204.468 135.634 203.69 136.614 202.738C140.32 199.142 143.847 193.902 144.702 190.72C145.29 188.472 145.54 188.558 142.565 190.011C140.213 191.135 138.004 192.051 133.336 193.781C132.552 194.075 130.949 194.784 129.773 195.372C127.849 196.323 127.457 196.599 125.836 198.156C122.879 201.026 120.402 204.589 120.349 206.024L120.331 206.664L119.013 206.785C117.018 206.941 109.446 206.906 108.983 206.733C108.698 206.629 108.448 206.249 108.146 205.488C107.576 204.001 106.471 201.857 105.776 200.871C104.85 199.539 102.801 197.672 101.126 196.617C99.3093 195.458 97.1714 194.455 94.0538 193.314C89.8672 191.792 85.9301 190.045 83.9169 188.869L83.329 188.506L83.4537 189.094C84.3623 193.054 87.6759 198.087 92.5395 202.877C93.6262 203.949 94.3923 204.779 94.2498 204.744C94.0894 204.693 92.8424 204.381 91.4706 204.035C90.0988 203.69 87.8897 203.067 86.5536 202.635L84.1307 201.874L84.006 200.784C83.5072 196.478 82.0998 193.884 77.3788 188.731C75.6863 186.898 63.7502 174.862 63.6789 174.931C63.5186 175.069 64.5518 180.534 65.1932 182.972C66.6362 188.541 68.2752 192.397 70.4843 195.441C70.7337 195.787 70.6268 195.752 69.6292 195.199C68.1149 194.351 63.8392 191.619 62.1112 190.374C61.1135 189.665 60.7394 189.302 60.8285 189.111C60.8819 188.973 61.0244 188.247 61.1135 187.538C61.6123 184.166 60.5434 178.874 58.3343 173.755C57.4436 171.697 56.8201 170.573 55.0207 167.685C53.8449 165.818 50.9767 160.647 49.5871 157.897C49.213 157.171 48.821 156.566 48.6963 156.566C48.3757 156.566 48.2688 158.9 48.2688 165.991C48.2688 174.654 48.3935 175.969 49.6227 179.566C49.8009 180.067 45.8993 175.83 43.4052 172.77L41.8731 170.919L42.3185 169.933C43.2627 167.858 44.1713 162.912 44.1713 159.8C44.1713 156.808 43.5299 153.021 41.6059 144.685C40.4301 139.584 39.7709 136.195 39.6818 134.777C39.6462 134.189 39.5571 133.981 39.3077 133.946C39.0761 133.895 38.8267 134.223 38.3101 135.33C37.1699 137.699 35.8872 142.489 34.7827 148.438C34.1591 151.862 34.1235 155.563 34.6936 158.641C34.9074 159.73 35.0321 160.647 35.0143 160.682C34.9786 160.699 34.0344 158.952 32.9121 156.791C31.1127 153.315 29.1709 149.078 28.4761 147.193L28.2623 146.57L29.349 145.395C31.2018 143.44 33.5356 138.408 34.1057 135.157C34.8361 130.989 36.2079 112.434 35.8694 111.396C35.7269 110.947 35.4062 111.016 34.8005 111.638C32.7874 113.731 27.2825 123.259 26.1067 126.666C25.4831 128.482 24.9487 131.266 24.8062 133.341C24.7527 134.327 24.6636 135.105 24.628 135.071C24.343 134.777 22.8465 126.372 22.4189 122.637L22.2051 120.769L22.6683 120.423C23.9688 119.42 29.7053 111.396 31.0058 108.75C32.5201 105.672 38.1497 88.2926 37.9003 87.5317C37.7934 87.2551 35.3349 89.434 31.7897 92.9445C25.5366 99.1008 24.1648 101.245 22.0983 107.972C21.5994 109.563 22.2408 101.193 23.0068 96.161L23.3809 93.6016L24.1114 93.2385C25.3584 92.6332 28.1198 90.5407 29.8835 88.8806C33.1793 85.7851 35.4953 82.9145 39.86 76.4987C41.3743 74.2679 43.3874 71.4146 44.3494 70.1695C45.3114 68.9244 46.1844 67.7311 46.2913 67.5409C46.5763 67.0394 46.5407 66.6417 46.22 66.6417C45.4896 66.6417 38.8267 70.2732 34.5511 73.0228C32.4311 74.3717 29.545 76.9138 28.1198 78.6777C27.6922 79.2138 27.1934 79.819 27.0331 80.0265C26.463 80.701 29.6341 72.3657 30.8633 69.9274C31.2196 69.2529 31.3443 69.1319 32.1282 68.9416C33.2684 68.665 36.2613 67.2642 38.6486 65.8635C42.5145 63.5981 46.1488 60.9522 49.7831 57.753C50.9589 56.7154 52.8829 55.0899 54.0587 54.1387C57.1764 51.6312 57.9246 50.9222 57.8533 50.4899C57.7821 49.9711 57.016 49.9538 54.7713 50.3861C48.9814 51.5275 43.815 53.5508 39.5571 56.3696C38.6486 56.9748 37.8647 57.4763 37.8291 57.4763C37.544 57.4763 43.5477 49.435 44.2782 48.8125C44.5454 48.5876 45.1689 48.5012 46.9326 48.432C52.0634 48.2072 56.4994 46.9102 63.0554 43.7283C64.6765 42.9501 67.2419 41.7742 68.7562 41.1343C70.2705 40.4945 71.7848 39.7682 72.1055 39.5434C73.7623 38.3328 71.8026 37.7622 65.9949 37.7622C60.9175 37.7622 56.4103 38.3674 53.453 39.4569C53.061 39.5952 56.25 36.8629 58.459 35.1509C59.6705 34.2171 60.3475 33.802 60.5434 33.8712C61.4876 34.2344 63.9996 34.6667 65.9949 34.8396C68.8631 35.0644 71.8382 34.8742 78.9109 34.0441C81.7079 33.6983 85.2709 33.3351 86.8386 33.2141C89.6356 32.9893 90.5798 32.7644 90.4373 32.3494C90.1523 31.5021 84.2554 29.3231 79.8016 28.4239C76.3099 27.7322 71.3929 27.5592 68.7562 28.0607C68.3108 28.1472 67.9367 28.1991 67.9011 28.1818C67.8833 28.1472 69.4154 26.954 71.3038 25.5359L74.7421 22.9247L76.7018 22.7344C80.9774 22.3194 83.9526 20.7284 88.1926 16.63C90.5798 14.3127 92.7176 11.8571 94.0538 9.88566C95.1761 8.26011 95.4256 7.60297 95.1049 7.22252C94.8377 6.91124 94.7486 6.92854 93.2521 7.43004Z" fill="white"/>
</svg>
