<svg width="228" height="229" viewBox="0 0 228 229" fill="none" xmlns="http://www.w3.org/2000/svg">
<path d="M93.2521 13.43C92.5751 13.6721 90.366 14.312 88.3529 14.8827C79.0712 17.4766 76.1317 19.4999 74.2967 24.5322L73.8335 25.8119L69.7004 28.475C67.4201 29.9277 65.5495 31.1036 65.5495 31.0517C65.5495 31.0171 65.8702 30.481 66.2799 29.8931C67.2776 28.3886 68.2752 26.2961 69.0056 24.1864C69.647 22.3014 71.4998 15.4015 71.3751 15.2977C71.3394 15.2631 70.4487 15.7473 69.3976 16.3526C61.4342 21.0044 56.3925 25.8465 54.3259 30.8615C53.2036 33.5592 52.9898 35.8073 53.6133 38.1246L53.9874 39.4735L53.2214 40.1133C51.4577 41.5659 48.3044 44.4712 46.7188 46.0967C45.3114 47.5494 45.0977 47.7223 45.3827 47.1343C46.3982 45.111 47.378 41.5659 47.7343 38.6607C48.055 35.8592 47.8768 30.948 47.2889 26.6939L47.182 25.9503L45.1689 28.4232C41.98 32.3487 40.5726 34.1991 39.1474 36.3261C36.5464 40.1998 35.7803 42.1539 35.2459 46.2524C34.7649 50.0396 35.5665 55.4177 36.7602 56.3688C37.0274 56.5764 37.1343 56.5591 37.5797 56.2478C37.8647 56.0403 38.1497 55.8673 38.2032 55.8673C38.2566 55.8673 37.7044 56.6628 36.9739 57.6312C35.6022 59.4989 32.5736 64.1334 31.4512 66.1049C31.0771 66.762 30.7564 67.2808 30.7386 67.2808C30.703 67.2808 30.7564 66.8658 30.8633 66.3643C30.9524 65.8801 31.0415 64.0643 31.0415 62.3523C31.0415 57.8215 30.7386 56.3343 27.9595 47.7742C27.229 45.5606 26.5877 43.814 26.5342 43.8832C26.4095 44.0216 24.7705 48.9155 23.4344 53.1004C22.5614 55.85 21.4391 60.1214 21.0828 62.0929C20.8868 63.1477 20.7621 64.6695 20.7621 66.3297C20.7621 69.2176 21.065 70.8259 22.1161 73.2296C22.7218 74.5958 24.9309 78.5732 25.1268 78.6597C25.1981 78.6943 25.0556 79.2303 24.8062 79.8702C24.0401 81.7897 22.3299 86.822 21.9735 88.1536C21.7954 88.8453 21.5994 89.416 21.5282 89.416C21.4569 89.416 21.35 89.0528 21.2788 88.5859C21.1006 87.3581 19.4972 82.8619 18.4283 80.5619C17.9117 79.4379 17.11 78.0371 16.6646 77.4146C16.2192 76.792 14.9366 74.8206 13.8142 73.0394C11.231 68.8718 10.8569 68.7334 10.8569 71.8635C10.8569 72.6244 10.7678 74.4574 10.6787 75.9274C9.84141 88.2746 10.3224 93.134 12.7809 97.8031C13.7964 99.7054 15.5066 101.469 17.4307 102.559C18.7312 103.302 18.7312 103.32 18.6243 103.942C18.3571 105.55 17.9651 110.375 17.8582 113.315L17.7513 116.566L16.8784 114.975C15.7204 112.9 13.6004 109.58 12.2286 107.747C10.2333 105.049 9.03972 103.769 7.04442 102.213C5.9577 101.366 4.51467 100.241 3.8555 99.7227C2.0918 98.3219 1.75331 98.4257 2.19869 100.19C2.34121 100.778 2.87567 103.441 3.37449 106.104C4.74626 113.54 5.65484 116.756 7.40073 120.353C9.57418 124.832 13.1016 128.343 17.6445 130.591L18.6599 131.075L18.8559 132.51C19.2835 135.398 20.2098 140.016 20.8334 142.402C21.0115 143.077 21.1362 143.647 21.1184 143.664C21.0828 143.699 20.7977 143.353 20.4771 142.921C19.4438 141.52 17.4129 139.67 15.667 138.528C14.7406 137.923 12.7809 136.609 11.3023 135.589C7.08005 132.683 0.452804 128.498 0.078685 128.498C-0.188543 128.498 0.167761 129.328 2.03836 133.15C4.88879 138.995 8.00644 144.927 9.34258 147.089C12.5671 152.328 17.2347 155.96 23.2919 157.983C24.3073 158.312 25.4297 158.588 25.7682 158.588C26.3561 158.588 26.4095 158.64 26.8549 159.678C27.5319 161.252 31.3443 168.515 32.2173 169.881C33.0011 171.126 32.9655 171.143 31.7541 170.244C29.8122 168.809 25.9285 166.716 22.704 165.35C20.2989 164.33 18.5708 163.776 15.5957 163.085C14.3308 162.791 12.1752 162.151 10.8212 161.701C7.16913 160.439 7.02661 160.681 9.57418 163.707C10.5184 164.849 12.1218 166.82 13.1016 168.1C15.4176 171.091 17.4485 173.27 19.9782 175.484C25.0378 179.911 27.2468 181.225 31.665 182.453C35.2993 183.473 37.1877 183.646 40.145 183.3L41.7306 183.11L42.1938 183.698C43.9753 185.912 48.2331 190.2 51.9209 193.503L53.3461 194.783L50.6382 193.451C47.5918 191.964 47.1286 191.843 41.2318 191.03C32.5914 189.837 23.47 189.111 22.3833 189.509C22.1161 189.63 22.1517 189.716 22.7396 190.252C24.0045 191.428 31.5937 196.789 34.4442 198.536C36.7067 199.919 38.8623 200.939 41.6771 201.96C46.701 203.775 48.732 204.139 53.0967 204.017C56.6953 203.914 57.8711 203.706 60.7394 202.599L62.806 201.804L65.2644 203.291C67.9367 204.917 72.2658 207.269 74.1008 208.099C77.0937 209.447 77.4322 209.62 76.7731 209.517C76.4346 209.465 74.2789 209.378 71.9986 209.309C66.3334 209.171 64.9972 209.326 55.9293 211.056C53.2392 211.575 49.5336 212.249 47.6987 212.578C43.7615 213.252 43.5121 213.442 45.7568 214.065C46.5229 214.272 49.3555 215.12 52.0278 215.932C61.1848 218.699 62.9663 219.011 69.2907 219.028C73.3525 219.028 74.0473 218.993 75.7576 218.63C79.8551 217.8 82.6343 216.52 85.1284 214.341C86.2329 213.373 86.7139 213.044 86.999 213.114C87.1949 213.148 88.5845 213.511 90.0632 213.909C91.5418 214.307 94.0538 214.895 95.6393 215.206C97.2071 215.517 98.5432 215.811 98.5967 215.863C98.6323 215.898 98.2582 216.036 97.7415 216.157C95.3721 216.745 88.9408 219.668 79.4453 224.458C74.0651 227.173 72.4262 228.124 72.729 228.314C73.2813 228.66 82.4561 228.314 87.7294 227.744C94.2319 227.052 102.587 224.233 106.008 221.57C107.273 220.584 108.591 219.305 109.927 217.783L110.568 217.039H114.221H117.891L120.438 219.408C124.838 223.489 125.533 223.853 133.425 226.17C137.95 227.501 139.304 227.709 148.052 228.297C155.908 228.833 156.407 228.833 156.407 228.262C156.407 227.83 151.686 225.357 148.746 224.25C147.82 223.905 146.288 223.144 145.362 222.556C142.939 221.034 140.926 219.979 138.503 218.941C136.294 218.008 130.361 216.002 129.827 216.002C129.649 216.002 129.506 215.95 129.506 215.863C129.506 215.794 130.326 215.587 131.341 215.414C133.497 215.033 137.933 213.961 140.516 213.2C141.513 212.906 142.351 212.699 142.386 212.733C142.404 212.768 142.547 213.027 142.689 213.321C143.58 214.999 149.548 217.99 153.557 218.751C156.674 219.356 163.319 219.305 166.74 218.682C169.822 218.094 180.742 214.86 182.417 214.013C183.148 213.65 183.112 213.148 182.381 212.906C181.455 212.629 175.22 211.402 170.837 210.658C163.711 209.43 161.627 209.188 158.01 209.188C154.821 209.188 154.038 209.275 149.851 210.035C149.584 210.087 149.78 209.949 150.261 209.741C154.501 207.943 161.057 204.432 165.261 201.683C167.345 200.317 167.417 200.299 167.203 200.836C166.775 201.839 167.274 202.444 169.091 203.101C171.158 203.862 173.135 204.139 176.36 204.139C179.585 204.139 180.867 203.948 184.288 202.945C187.405 202.029 189.81 200.974 192.768 199.227C197.703 196.322 204.508 191.791 205.559 190.684C206.093 190.131 205.951 189.768 205.131 189.612C204.08 189.422 192.501 190.269 188.207 190.857C182.952 191.566 178.159 193.036 174.578 195.06L173.599 195.613L174.578 194.783C178.444 191.515 182.275 187.727 185.695 183.802C186.657 182.695 186.728 182.643 187.103 182.868C188.759 183.871 193.338 183.542 198.077 182.072C200.428 181.346 201.907 180.585 204.419 178.839C210.298 174.757 212.543 172.561 216.052 167.477C217.531 165.333 218.724 163.949 220.061 162.894C221.308 161.891 221.628 161.425 221.236 161.165C220.898 160.94 220.15 161.079 217.424 161.874C216.159 162.237 213.95 162.825 212.525 163.188C209.87 163.846 207.911 164.503 205.577 165.558C202.37 166.993 198.094 169.552 195.44 171.627C193.997 172.751 193.961 172.769 194.371 172.129C196.562 168.688 200.001 162.341 201.212 159.488C201.479 158.865 201.729 158.537 201.871 158.588C203.207 159.038 208.196 157.188 211.848 154.87C214.021 153.47 217.121 150.582 218.279 148.818C220.47 145.48 226.652 133.531 227.775 130.453C228.291 129.035 228.024 129.017 225.868 130.262C223.356 131.732 215.536 136.782 213.237 138.442C211.117 139.981 208.516 142.419 207.305 144.045C206.842 144.65 206.468 145.1 206.468 145.065C206.468 145.013 206.699 144.097 207.002 143.007C207.643 140.569 208.481 136.592 208.962 133.513C209.176 132.234 209.354 131.179 209.371 131.179C209.389 131.162 209.728 131.058 210.138 130.954C211.171 130.66 214.591 128.637 215.892 127.547C218.137 125.628 219.74 123.553 221.272 120.544C222.982 117.206 224.069 113.54 225.174 107.366C225.565 105.153 226.153 102.351 226.456 101.158C227.222 98.1144 227.026 97.7858 225.227 99.2385C222.929 101.123 216.48 107.885 214.306 110.704C212.988 112.416 211.741 114.543 210.921 116.445L210.262 117.95L210.155 114.197C210.048 110.911 209.728 106.675 209.389 104.081C209.282 103.32 209.3 103.285 209.639 103.372C210.334 103.544 211.67 102.714 213.433 101.02C214.93 99.567 215.251 99.152 215.945 97.7167C217.353 94.846 218.083 92.0445 218.404 88.2573C218.707 84.6085 218.618 81.6168 217.958 73.5063C217.531 68.3011 217.816 68.4567 215.482 72.1402C211.741 78.0717 208.908 83.2769 208.053 85.8709C207.732 86.8739 207.643 87.6002 207.572 90.1596C207.537 91.8543 207.465 93.2205 207.43 93.1859C207.394 93.1513 207.091 92.0272 206.735 90.713C205.933 87.6867 204.259 82.5852 203.101 79.68C202.513 78.1927 202.334 77.5529 202.53 77.7258C203.332 78.4349 204.241 77.7258 205.488 75.374C206.414 73.6274 207.554 70.4281 208 68.3184C208.516 65.7936 208.142 63.0786 206.361 56.6455C205.452 53.3598 203.029 46.114 202.726 45.7509C202.139 45.0591 201.283 46.5982 199.342 51.8035C198.469 54.1726 198.255 55.4523 198.059 60.035C197.916 63.1823 197.899 65.1192 198.041 66.6928C198.13 67.9206 198.201 68.9409 198.184 68.9755C198.148 69.0101 197.685 68.2146 197.15 67.2289C195.102 63.5282 192.055 58.9109 189.383 55.4523C187.975 53.6192 187.922 53.2907 189.276 54.6568C189.668 55.0546 190.381 55.6598 190.862 56.0057L191.734 56.6282L192.144 56.1613C192.999 55.1929 193.516 52.3741 193.516 48.6907C193.516 42.69 191.948 38.9028 186.8 32.4352C185.784 31.1555 181.705 26.2961 181.134 25.6909C180.974 25.5179 181.063 29.3743 181.366 36.8622C181.526 41.1336 181.776 43.105 182.328 44.7133C182.667 45.6817 183.931 48.293 184.644 49.4689C184.911 49.9012 185 50.0914 184.84 49.9185C182.898 47.6012 177.732 42.5689 174.881 40.1652C174.276 39.6637 174.222 39.5772 174.472 39.3351C174.97 38.8682 175.184 37.6577 175.184 35.4615C175.184 32.954 174.953 31.8645 174.097 30.1871C172.548 27.1608 168.913 23.0969 165.172 20.2089C162.945 18.4969 158.58 15.7473 158.064 15.7473C157.529 15.7473 158.046 18.5142 159.525 23.339C160.665 27.0743 161.413 28.5096 163.693 31.3803C164.495 32.3833 164.566 32.5389 164.139 32.2622C163.854 32.0893 162.5 31.3457 161.128 30.6021C158.01 28.942 155.481 27.5239 155.267 27.3337C155.178 27.2472 155.035 26.6939 154.946 26.0886C154.608 23.7021 152.594 20.7969 149.94 18.8428C147.446 17.0097 145.094 16.1105 136.472 13.6548C133.728 12.8767 133.247 12.8248 133.247 13.3263C133.247 14.0872 138.039 20.2781 141.032 23.3563C143.491 25.8984 146.876 27.7314 150.421 28.475C151.561 28.6999 151.953 28.9247 155.374 31.2592C157.405 32.6427 159.061 33.8186 159.026 33.8532C158.99 33.8705 158.046 33.8359 156.941 33.7494C154.501 33.5592 152.345 33.7322 149.495 34.3547C146.911 34.9081 143.295 35.963 141.175 36.7584C136.632 38.4705 137.149 38.7472 146.876 39.7847C149.619 40.0787 151.989 40.3554 152.131 40.39C152.274 40.4419 153.877 40.5456 155.677 40.6494C159.311 40.8569 164.905 40.6321 166.918 40.2344L168.076 39.9923L170.125 41.6178C171.247 42.4998 172.69 43.693 173.331 44.2464L174.489 45.284L172.886 44.8689C169.661 44.0388 167.737 43.8486 162.464 43.8659C157.137 43.8832 156.015 44.0216 155.908 44.7306C155.837 45.2494 156.282 45.5434 158.723 46.5809C159.952 47.0997 162.749 48.3621 164.958 49.3824C168.913 51.2155 172.833 52.7892 174.792 53.3425C176.289 53.7576 179.602 54.2764 181.669 54.4147L183.522 54.5358L185.392 56.9049C186.408 58.2192 187.744 59.9831 188.35 60.8132C189.294 62.1447 189.383 62.3004 188.92 62.0064C184.983 59.4816 176.307 56.4207 172.156 56.0921C170.802 55.9884 170.499 56.1267 170.819 56.7147C171.176 57.3373 183.807 67.7131 186.354 69.4597C190.006 71.9845 194.246 74.3364 195.85 74.7341L196.651 74.9244L197.489 76.7747C198.344 78.6424 200.589 84.2972 200.589 84.5739C200.589 84.6604 199.68 83.8303 198.593 82.7235C196.081 80.2333 194.068 78.7461 190.683 76.8612C185.659 74.0597 182.417 72.6935 182.417 73.368C182.417 73.7311 183.29 74.9589 184.573 76.3597C186.711 78.7461 189.312 82.4814 191.574 86.4589C192.144 87.4446 192.892 88.6551 193.267 89.1393C195.404 91.9408 199.431 95.728 202.406 97.7513C203.279 98.3565 204.116 98.9099 204.259 99.0137C204.65 99.2731 205.417 104.496 205.915 110.168C205.987 111.067 206.04 111.828 206.022 111.862C206.004 111.88 205.719 111.188 205.399 110.306C204.633 108.127 203.475 106 202.281 104.547C201.034 103.043 191.164 93.134 190.897 93.134C190.523 93.134 190.755 94.2062 192.02 98.4084C194.656 107.107 196.384 111.69 198.629 115.961C200.41 119.385 202.584 122.498 204.864 124.919L205.808 125.922L205.684 127.34C205.399 130.47 204.205 138.01 203.973 138.01C203.902 138.01 203.795 137.525 203.742 136.92C203.403 133.41 201.372 128.965 196.527 121.149C194.514 117.88 193.498 116.532 193.142 116.601C192.696 116.687 192.679 118.209 193.017 123.743C193.623 133.894 194.157 139.514 194.745 141.728C195.547 144.875 197.845 149.821 199.359 151.688L199.858 152.311L198.825 154.801C197.15 158.813 193.997 165.194 193.997 164.555C193.997 164.451 194.086 163.258 194.175 161.891C194.531 156.755 193.498 149.821 191.485 143.976C190.701 141.676 190.078 140.604 189.543 140.604C189.062 140.604 188.884 141.019 188.742 142.592C188.581 144.373 187.975 147.434 186.782 152.536C184.822 160.871 184.466 163.258 184.608 167.373C184.715 170.469 184.911 171.524 186.016 174.619L186.586 176.21L185.054 178.164C183.468 180.188 180.101 184.061 179.727 184.286C179.567 184.372 179.549 184.286 179.638 183.992C179.87 183.162 180.457 179.565 180.636 177.801C180.903 175.19 180.849 169.379 180.547 165.592C180.386 163.794 180.244 162.22 180.208 162.134C180.172 162.03 179.531 163.171 178.765 164.641C176.681 168.688 173.955 173.495 172.583 175.588C169.109 180.897 168.307 183.802 167.88 192.569L167.773 195.008L166.668 195.786C164.246 197.55 158.723 201.129 158.456 201.129C158.402 201.129 158.687 200.628 159.079 200.023C161.039 197.031 162.999 192.137 163.961 187.848C164.353 186.136 165.136 181.191 165.029 181.087C164.905 180.948 155.356 190.252 152.612 193.175C147.375 198.778 145.076 202.617 144.56 206.681L144.435 207.649L142.012 208.444C140.053 209.084 135.189 210.468 134.904 210.468C134.868 210.468 135.634 209.69 136.614 208.738C140.32 205.142 143.847 199.902 144.702 196.72C145.29 194.472 145.54 194.558 142.565 196.011C140.213 197.135 138.004 198.051 133.336 199.781C132.552 200.075 130.949 200.784 129.773 201.372C127.849 202.323 127.457 202.599 125.836 204.156C122.879 207.026 120.402 210.589 120.349 212.024L120.331 212.664L119.013 212.785C117.018 212.941 109.446 212.906 108.983 212.733C108.698 212.629 108.448 212.249 108.146 211.488C107.576 210.001 106.471 207.857 105.776 206.871C104.85 205.539 102.801 203.672 101.126 202.617C99.3093 201.458 97.1714 200.455 94.0538 199.314C89.8672 197.792 85.9301 196.045 83.9169 194.869L83.329 194.506L83.4537 195.094C84.3623 199.054 87.6759 204.087 92.5395 208.877C93.6262 209.949 94.3923 210.779 94.2498 210.744C94.0894 210.693 92.8424 210.381 91.4706 210.035C90.0988 209.69 87.8897 209.067 86.5536 208.635L84.1307 207.874L84.006 206.784C83.5072 202.478 82.0998 199.884 77.3788 194.731C75.6863 192.898 63.7502 180.862 63.6789 180.931C63.5186 181.069 64.5518 186.534 65.1932 188.972C66.6362 194.541 68.2752 198.397 70.4843 201.441C70.7337 201.787 70.6268 201.752 69.6292 201.199C68.1149 200.351 63.8392 197.619 62.1112 196.374C61.1135 195.665 60.7394 195.302 60.8285 195.111C60.8819 194.973 61.0244 194.247 61.1135 193.538C61.6123 190.166 60.5434 184.874 58.3343 179.755C57.4436 177.697 56.8201 176.573 55.0207 173.685C53.8449 171.818 50.9767 166.647 49.5871 163.897C49.213 163.171 48.821 162.566 48.6963 162.566C48.3757 162.566 48.2688 164.9 48.2688 171.991C48.2688 180.654 48.3935 181.969 49.6227 185.566C49.8009 186.067 45.8993 181.83 43.4052 178.77L41.8731 176.919L42.3185 175.933C43.2627 173.858 44.1713 168.912 44.1713 165.8C44.1713 162.808 43.5299 159.021 41.6059 150.685C40.4301 145.584 39.7709 142.195 39.6818 140.777C39.6462 140.189 39.5571 139.981 39.3077 139.946C39.0761 139.895 38.8267 140.223 38.3101 141.33C37.1699 143.699 35.8872 148.489 34.7827 154.438C34.1591 157.862 34.1235 161.563 34.6936 164.641C34.9074 165.73 35.0321 166.647 35.0143 166.682C34.9786 166.699 34.0344 164.952 32.9121 162.791C31.1127 159.315 29.1709 155.078 28.4761 153.193L28.2623 152.57L29.349 151.395C31.2018 149.44 33.5356 144.408 34.1057 141.157C34.8361 136.989 36.2079 118.434 35.8694 117.396C35.7269 116.947 35.4062 117.016 34.8005 117.638C32.7874 119.731 27.2825 129.259 26.1067 132.666C25.4831 134.482 24.9487 137.266 24.8062 139.341C24.7527 140.327 24.6636 141.105 24.628 141.071C24.343 140.777 22.8465 132.372 22.4189 128.637L22.2051 126.769L22.6683 126.423C23.9688 125.42 29.7053 117.396 31.0058 114.75C32.5201 111.672 38.1497 94.2926 37.9003 93.5317C37.7934 93.2551 35.3349 95.434 31.7897 98.9445C25.5366 105.101 24.1648 107.245 22.0983 113.972C21.5994 115.563 22.2408 107.193 23.0068 102.161L23.3809 99.6016L24.1114 99.2385C25.3584 98.6332 28.1198 96.5407 29.8835 94.8806C33.1793 91.7851 35.4953 88.9145 39.86 82.4987C41.3743 80.2679 43.3874 77.4146 44.3494 76.1695C45.3114 74.9244 46.1844 73.7311 46.2913 73.5409C46.5763 73.0394 46.5407 72.6417 46.22 72.6417C45.4896 72.6417 38.8267 76.2732 34.5511 79.0228C32.4311 80.3717 29.545 82.9138 28.1198 84.6777C27.6922 85.2138 27.1934 85.819 27.0331 86.0265C26.463 86.701 29.6341 78.3657 30.8633 75.9274C31.2196 75.2529 31.3443 75.1319 32.1282 74.9416C33.2684 74.665 36.2613 73.2642 38.6486 71.8635C42.5145 69.5981 46.1488 66.9522 49.7831 63.753C50.9589 62.7154 52.8829 61.0899 54.0587 60.1387C57.1764 57.6312 57.9246 56.9222 57.8533 56.4899C57.7821 55.9711 57.016 55.9538 54.7713 56.3861C48.9814 57.5275 43.815 59.5508 39.5571 62.3696C38.6486 62.9748 37.8647 63.4763 37.8291 63.4763C37.544 63.4763 43.5477 55.435 44.2782 54.8125C44.5454 54.5876 45.1689 54.5012 46.9326 54.432C52.0634 54.2072 56.4994 52.9102 63.0554 49.7283C64.6765 48.9501 67.2419 47.7742 68.7562 47.1343C70.2705 46.4945 71.7848 45.7682 72.1055 45.5434C73.7623 44.3328 71.8026 43.7622 65.9949 43.7622C60.9175 43.7622 56.4103 44.3674 53.453 45.4569C53.061 45.5952 56.25 42.8629 58.459 41.1509C59.6705 40.2171 60.3475 39.802 60.5434 39.8712C61.4876 40.2344 63.9996 40.6667 65.9949 40.8396C68.8631 41.0644 71.8382 40.8742 78.9109 40.0441C81.7079 39.6983 85.2709 39.3351 86.8386 39.2141C89.6356 38.9893 90.5798 38.7644 90.4373 38.3494C90.1523 37.5021 84.2554 35.3231 79.8016 34.4239C76.3099 33.7322 71.3929 33.5592 68.7562 34.0607C68.3108 34.1472 67.9367 34.1991 67.9011 34.1818C67.8833 34.1472 69.4154 32.954 71.3038 31.5359L74.7421 28.9247L76.7018 28.7344C80.9774 28.3194 83.9526 26.7284 88.1926 22.63C90.5798 20.3127 92.7176 17.8571 94.0538 15.8857C95.1761 14.2601 95.4256 13.603 95.1049 13.2225C94.8377 12.9112 94.7486 12.9285 93.2521 13.43Z" fill="white"/>
<path d="M91.3458 73.168C91.3138 72.112 91.2978 71.0987 91.2978 70.128C91.2978 68.3787 91.3511 66.7947 91.4578 65.376C91.5644 63.9573 91.7191 62.752 91.9218 61.76C92.0178 61.3013 92.1511 60.8587 92.3218 60.432C92.5031 60.0053 92.7538 59.6587 93.0738 59.392C93.4044 59.1147 93.8364 58.976 94.3698 58.976C94.8924 58.976 95.3351 59.1147 95.6978 59.392C96.0604 59.6587 96.3538 59.984 96.5778 60.368C96.8124 60.752 96.9831 61.12 97.0898 61.472C97.3671 62.304 97.6018 63.136 97.7938 63.968C97.9858 64.8 98.1564 65.5947 98.3058 66.352C98.4124 65.7973 98.5351 65.216 98.6737 64.608C98.8124 63.9893 98.9511 63.408 99.0898 62.864C99.2284 62.3093 99.3564 61.8507 99.4738 61.488C100.018 59.8133 100.855 58.976 101.986 58.976C102.615 58.976 103.148 59.2053 103.586 59.664C104.023 60.112 104.343 60.7627 104.546 61.616C104.642 62 104.738 62.56 104.834 63.296C104.94 64.032 105.036 64.9067 105.122 65.92C105.218 66.9227 105.298 68.032 105.362 69.248C105.436 70.464 105.495 71.7547 105.538 73.12L102.722 73.056C102.722 72.4907 102.706 71.8347 102.674 71.088C102.652 70.3413 102.615 69.568 102.562 68.768C102.519 67.9573 102.466 67.168 102.402 66.4C102.348 65.632 102.29 64.9387 102.226 64.32C102.172 63.7013 102.119 63.2107 102.066 62.848C102.012 62.4747 101.964 62.288 101.922 62.288C101.911 62.288 101.852 62.48 101.746 62.864C101.65 63.2373 101.527 63.7387 101.378 64.368C101.239 64.9973 101.084 65.6907 100.914 66.448C100.743 67.2053 100.572 67.968 100.402 68.736C100.242 69.4933 100.098 70.1973 99.9698 70.848C99.8418 71.488 99.7404 72.0107 99.6658 72.416L97.1538 72.48C97.0258 71.8827 96.8711 71.2267 96.6898 70.512C96.5191 69.7867 96.3378 69.0507 96.1458 68.304C95.9644 67.5467 95.7831 66.8213 95.6018 66.128C95.4204 65.424 95.2498 64.7947 95.0898 64.24C94.9404 63.6853 94.8178 63.248 94.7218 62.928C94.6258 62.5973 94.5671 62.432 94.5458 62.432C94.5031 62.432 94.4551 62.6667 94.4018 63.136C94.3591 63.5947 94.3164 64.2187 94.2738 65.008C94.2311 65.7973 94.1938 66.688 94.1618 67.68C94.1404 68.672 94.1298 69.696 94.1298 70.752C94.1298 71.2533 94.1298 71.712 94.1298 72.128C94.1404 72.544 94.1511 72.8853 94.1618 73.152L91.3458 73.168ZM111.817 73.312C110.964 73.312 110.217 73.1733 109.577 72.896C108.948 72.6187 108.425 72.24 108.009 71.76C107.593 71.2693 107.284 70.7093 107.081 70.08C106.878 69.4507 106.777 68.7893 106.777 68.096C106.777 67.392 106.9 66.7413 107.145 66.144C107.401 65.536 107.748 65.008 108.185 64.56C108.633 64.112 109.156 63.7653 109.753 63.52C110.35 63.264 111.001 63.136 111.705 63.136C112.441 63.136 113.124 63.264 113.753 63.52C114.382 63.776 114.932 64.1333 115.401 64.592C115.87 65.0507 116.233 65.5893 116.489 66.208C116.756 66.8267 116.889 67.4987 116.889 68.224C116.889 69.8347 116.446 71.088 115.561 71.984C114.676 72.8693 113.428 73.312 111.817 73.312ZM111.801 70.72C112.58 70.72 113.172 70.5013 113.577 70.064C113.993 69.6267 114.201 68.9973 114.201 68.176C114.201 67.44 113.977 66.848 113.529 66.4C113.081 65.952 112.494 65.728 111.769 65.728C111.332 65.728 110.932 65.8453 110.569 66.08C110.206 66.304 109.913 66.608 109.689 66.992C109.476 67.3653 109.369 67.7813 109.369 68.24C109.369 68.6453 109.449 69.04 109.609 69.424C109.78 69.808 110.046 70.1227 110.409 70.368C110.772 70.6027 111.236 70.72 111.801 70.72ZM118.079 73.248C118.122 72.3627 118.154 71.4773 118.175 70.592C118.196 69.7067 118.207 68.832 118.207 67.968C118.196 67.1787 118.18 66.4 118.159 65.632C118.148 64.8533 118.122 64.1013 118.079 63.376L120.767 63.296C120.778 63.6907 120.794 64.096 120.815 64.512C121.156 64.0853 121.551 63.744 121.999 63.488C122.458 63.2213 122.98 63.088 123.567 63.088C123.791 63.088 124.079 63.12 124.431 63.184C124.783 63.248 125.14 63.3707 125.503 63.552L125.199 66.256C124.932 66.096 124.644 65.984 124.335 65.92C124.036 65.8453 123.786 65.808 123.583 65.808C122.9 65.808 122.319 66.1173 121.839 66.736C121.37 67.344 121.05 68.192 120.879 69.28C120.879 70.0267 120.868 70.7413 120.847 71.424C120.836 72.096 120.81 72.704 120.767 73.248H118.079ZM130.991 73.28C129.967 73.28 129.065 73.0773 128.287 72.672C127.519 72.2773 126.916 71.7227 126.479 71.008C126.052 70.2933 125.839 69.4667 125.839 68.528C125.839 67.9627 125.935 67.3707 126.127 66.752C126.319 66.1227 126.628 65.536 127.055 64.992C127.481 64.448 128.041 64.0053 128.735 63.664C129.439 63.3227 130.292 63.152 131.295 63.152C132.02 63.152 132.628 63.232 133.119 63.392C133.62 63.552 134.025 63.76 134.335 64.016C134.655 64.272 134.895 64.544 135.055 64.832C135.225 65.12 135.337 65.3973 135.391 65.664C135.455 65.92 135.487 66.1333 135.487 66.304C135.487 67.3387 135.049 68.1387 134.175 68.704C133.311 69.2587 132.084 69.536 130.495 69.536C130.132 69.536 129.785 69.52 129.455 69.488C129.135 69.456 128.836 69.4187 128.559 69.376C128.761 69.9093 129.097 70.304 129.567 70.56C130.036 70.8053 130.521 70.928 131.023 70.928C131.748 70.928 132.388 70.8 132.943 70.544C133.497 70.2773 134.02 69.872 134.511 69.328L135.935 71.376C135.593 71.6533 135.209 71.9413 134.783 72.24C134.367 72.5387 133.855 72.784 133.247 72.976C132.639 73.1787 131.887 73.28 130.991 73.28ZM131.343 65.552C130.713 65.552 130.159 65.712 129.679 66.032C129.199 66.352 128.847 66.7733 128.623 67.296C128.889 67.3387 129.151 67.376 129.407 67.408C129.673 67.4293 129.935 67.44 130.191 67.44C130.425 67.44 130.692 67.4187 130.991 67.376C131.3 67.3333 131.599 67.2693 131.887 67.184C132.185 67.0987 132.431 66.992 132.623 66.864C132.815 66.7253 132.911 66.5653 132.911 66.384C132.911 66.2987 132.868 66.192 132.783 66.064C132.697 65.936 132.543 65.8187 132.319 65.712C132.095 65.6053 131.769 65.552 131.343 65.552ZM66.8703 96.264C66.3156 96.264 65.7716 96.168 65.2383 95.976C64.7156 95.784 64.241 95.4853 63.8143 95.08C63.3983 94.6853 63.0676 94.1893 62.8223 93.592C62.577 92.984 62.4543 92.2747 62.4543 91.464C62.4543 90.5467 62.593 89.7573 62.8703 89.096C63.1583 88.424 63.537 87.8747 64.0063 87.448C64.4756 87.0107 64.9983 86.6853 65.5743 86.472C66.1503 86.2587 66.7263 86.152 67.3023 86.152C67.6436 86.152 67.969 86.1787 68.2783 86.232C68.5876 86.2747 68.8756 86.3387 69.1423 86.424C69.1743 85.6453 69.2116 84.8613 69.2543 84.072C69.3076 83.2827 69.3663 82.504 69.4303 81.736L72.1183 81.912C72.033 82.7973 71.9583 83.752 71.8943 84.776C71.8303 85.7893 71.7823 86.824 71.7503 87.88C71.729 88.936 71.7183 89.9653 71.7183 90.968C71.7183 91.9067 71.729 92.8027 71.7503 93.656C71.7823 94.4987 71.8196 95.2667 71.8623 95.96L69.0943 96.168C69.0836 95.9653 69.0783 95.768 69.0783 95.576C68.769 95.7787 68.4276 95.944 68.0543 96.072C67.6916 96.2 67.297 96.264 66.8703 96.264ZM65.0303 91.32C65.0303 91.8747 65.137 92.312 65.3503 92.632C65.5636 92.9413 65.825 93.16 66.1343 93.288C66.4436 93.416 66.7423 93.48 67.0303 93.48C67.3716 93.48 67.713 93.4053 68.0543 93.256C68.3956 93.1067 68.7156 92.8453 69.0143 92.472C69.0143 92.344 69.0143 92.2213 69.0143 92.104C69.0143 91.24 69.025 90.3547 69.0463 89.448C68.545 89.0107 68.001 88.792 67.4143 88.792C67.169 88.792 66.9076 88.8293 66.6303 88.904C66.353 88.9787 66.0916 89.112 65.8463 89.304C65.6116 89.4853 65.4143 89.7413 65.2543 90.072C65.105 90.392 65.0303 90.808 65.0303 91.32ZM73.3528 84.664C73.3528 84.568 73.3475 84.472 73.3368 84.376C73.3368 84.2693 73.3368 84.152 73.3368 84.024C73.3368 83.6827 73.3475 83.32 73.3688 82.936C73.3901 82.552 73.4115 82.2267 73.4328 81.96L76.2808 82.008C76.2488 82.3707 76.2115 82.7813 76.1688 83.24C76.1368 83.6987 76.1155 84.1733 76.1048 84.664H73.3528ZM73.2888 96.12C73.2568 95.4587 73.2355 94.7547 73.2248 94.008C73.2141 93.2507 73.2088 92.4933 73.2088 91.736C73.2088 90.744 73.2195 89.7787 73.2408 88.84C73.2621 87.9013 73.2888 87.048 73.3208 86.28L76.0728 86.264C76.0301 86.7547 76.0035 87.3627 75.9928 88.088C75.9821 88.8027 75.9768 89.5547 75.9768 90.344C75.9768 91.1227 75.9821 91.8907 75.9928 92.648C76.0035 93.4053 76.0141 94.0933 76.0248 94.712C76.0461 95.32 76.0621 95.7893 76.0728 96.12H73.2888ZM82.2116 96.248C81.7742 96.248 81.3956 96.12 81.0756 95.864C80.7556 95.608 80.4782 95.2933 80.2436 94.92C80.0089 94.5467 79.8009 94.184 79.6196 93.832C79.2889 93.16 78.9742 92.424 78.6756 91.624C78.3769 90.824 78.1156 89.992 77.8916 89.128C77.6676 88.264 77.4969 87.4107 77.3796 86.568L80.2756 86.152C80.3609 87.144 80.4942 88.0773 80.6756 88.952C80.8569 89.8267 81.0702 90.6053 81.3156 91.288C81.5609 91.9707 81.8116 92.5253 82.0676 92.952C82.1209 93.0267 82.1689 93.1013 82.2116 93.176C82.2649 93.2507 82.2916 93.288 82.2916 93.288C82.3129 93.288 82.3982 93.176 82.5476 92.952C83.0169 92.1307 83.4542 91.1707 83.8596 90.072C84.2649 88.9733 84.6169 87.6453 84.9156 86.088L87.7316 86.648C87.4542 87.6507 87.1982 88.5253 86.9636 89.272C86.7289 90.008 86.4996 90.6533 86.2756 91.208C86.0516 91.7627 85.8276 92.264 85.6036 92.712C85.3796 93.1493 85.1449 93.576 84.8996 93.992C84.7396 94.28 84.5316 94.6 84.2756 94.952C84.0302 95.304 83.7369 95.608 83.3956 95.864C83.0542 96.12 82.6596 96.248 82.2116 96.248ZM93.8578 96.28C92.8338 96.28 91.9325 96.0773 91.1538 95.672C90.3858 95.2773 89.7831 94.7227 89.3458 94.008C88.9191 93.2933 88.7058 92.4667 88.7058 91.528C88.7058 90.9627 88.8018 90.3707 88.9938 89.752C89.1858 89.1227 89.4951 88.536 89.9218 87.992C90.3485 87.448 90.9085 87.0053 91.6018 86.664C92.3058 86.3227 93.1591 86.152 94.1618 86.152C94.8871 86.152 95.4951 86.232 95.9858 86.392C96.4871 86.552 96.8925 86.76 97.2018 87.016C97.5218 87.272 97.7618 87.544 97.9218 87.832C98.0925 88.12 98.2045 88.3973 98.2578 88.664C98.3218 88.92 98.3538 89.1333 98.3538 89.304C98.3538 90.3387 97.9165 91.1387 97.0418 91.704C96.1778 92.2587 94.9511 92.536 93.3618 92.536C92.9991 92.536 92.6525 92.52 92.3218 92.488C92.0018 92.456 91.7031 92.4187 91.4258 92.376C91.6285 92.9093 91.9645 93.304 92.4338 93.56C92.9031 93.8053 93.3885 93.928 93.8898 93.928C94.6151 93.928 95.2551 93.8 95.8098 93.544C96.3645 93.2773 96.8871 92.872 97.3778 92.328L98.8018 94.376C98.4605 94.6533 98.0765 94.9413 97.6498 95.24C97.2338 95.5387 96.7218 95.784 96.1138 95.976C95.5058 96.1787 94.7538 96.28 93.8578 96.28ZM94.2098 88.552C93.5805 88.552 93.0258 88.712 92.5458 89.032C92.0658 89.352 91.7138 89.7733 91.4898 90.296C91.7565 90.3387 92.0178 90.376 92.2738 90.408C92.5405 90.4293 92.8018 90.44 93.0578 90.44C93.2925 90.44 93.5591 90.4187 93.8578 90.376C94.1671 90.3333 94.4658 90.2693 94.7538 90.184C95.0525 90.0987 95.2978 89.992 95.4898 89.864C95.6818 89.7253 95.7778 89.5653 95.7778 89.384C95.7778 89.2987 95.7351 89.192 95.6498 89.064C95.5645 88.936 95.4098 88.8187 95.1858 88.712C94.9618 88.6053 94.6365 88.552 94.2098 88.552ZM99.9774 96.248C100.02 95.3627 100.052 94.4773 100.073 93.592C100.095 92.7067 100.105 91.832 100.105 90.968C100.095 90.1787 100.079 89.4 100.057 88.632C100.047 87.8533 100.02 87.1013 99.9774 86.376L102.665 86.296C102.676 86.6907 102.692 87.096 102.713 87.512C103.055 87.0853 103.449 86.744 103.897 86.488C104.356 86.2213 104.879 86.088 105.465 86.088C105.689 86.088 105.977 86.12 106.329 86.184C106.681 86.248 107.039 86.3707 107.401 86.552L107.097 89.256C106.831 89.096 106.543 88.984 106.233 88.92C105.935 88.8453 105.684 88.808 105.481 88.808C104.799 88.808 104.217 89.1173 103.737 89.736C103.268 90.344 102.948 91.192 102.777 92.28C102.777 93.0267 102.767 93.7413 102.745 94.424C102.735 95.096 102.708 95.704 102.665 96.248H99.9774ZM112.761 96.328C112.036 96.328 111.364 96.2427 110.745 96.072C110.126 95.9013 109.566 95.6827 109.065 95.416C108.564 95.1493 108.116 94.8667 107.721 94.568L109.161 92.248C109.609 92.664 110.041 92.984 110.457 93.208C110.873 93.432 111.305 93.5867 111.753 93.672C112.212 93.7573 112.708 93.8 113.241 93.8C113.7 93.8 114.068 93.7413 114.345 93.624C114.622 93.496 114.761 93.336 114.761 93.144C114.761 92.984 114.628 92.8613 114.361 92.776C114.094 92.68 113.753 92.6 113.337 92.536C112.921 92.4613 112.484 92.3707 112.025 92.264C111.374 92.0933 110.766 91.896 110.201 91.672C109.636 91.448 109.177 91.144 108.825 90.76C108.484 90.376 108.313 89.864 108.313 89.224C108.313 88.712 108.436 88.264 108.681 87.88C108.926 87.4853 109.252 87.16 109.657 86.904C110.073 86.6373 110.542 86.44 111.065 86.312C111.588 86.184 112.126 86.12 112.681 86.12C113.641 86.12 114.468 86.2373 115.161 86.472C115.865 86.696 116.537 86.9947 117.177 87.368L115.721 89.576C115.401 89.352 115.033 89.16 114.617 89C114.212 88.8293 113.801 88.7013 113.385 88.616C112.98 88.52 112.601 88.472 112.249 88.472C111.865 88.472 111.561 88.5307 111.337 88.648C111.124 88.7653 111.017 88.9307 111.017 89.144C111.017 89.272 111.15 89.3947 111.417 89.512C111.694 89.6187 112.217 89.7627 112.985 89.944C113.444 90.0507 113.929 90.1627 114.441 90.28C114.953 90.3867 115.433 90.5413 115.881 90.744C116.34 90.936 116.708 91.2187 116.985 91.592C117.273 91.9547 117.417 92.44 117.417 93.048C117.417 94.072 117.006 94.872 116.185 95.448C115.364 96.0347 114.222 96.328 112.761 96.328ZM118.603 84.664C118.603 84.568 118.597 84.472 118.587 84.376C118.587 84.2693 118.587 84.152 118.587 84.024C118.587 83.6827 118.597 83.32 118.619 82.936C118.64 82.552 118.661 82.2267 118.683 81.96L121.531 82.008C121.499 82.3707 121.461 82.7813 121.419 83.24C121.387 83.6987 121.365 84.1733 121.355 84.664H118.603ZM118.539 96.12C118.507 95.4587 118.485 94.7547 118.475 94.008C118.464 93.2507 118.459 92.4933 118.459 91.736C118.459 90.744 118.469 89.7787 118.491 88.84C118.512 87.9013 118.539 87.048 118.571 86.28L121.323 86.264C121.28 86.7547 121.253 87.3627 121.243 88.088C121.232 88.8027 121.227 89.5547 121.227 90.344C121.227 91.1227 121.232 91.8907 121.243 92.648C121.253 93.4053 121.264 94.0933 121.275 94.712C121.296 95.32 121.312 95.7893 121.323 96.12H118.539ZM125.126 96.152C125.115 95.5547 125.11 94.9467 125.11 94.328C125.11 93.6987 125.11 93.0907 125.11 92.504V88.712C124.662 88.744 124.23 88.792 123.814 88.856C123.408 88.92 123.03 89 122.678 89.096L122.342 86.536C122.726 86.4507 123.163 86.376 123.654 86.312C124.155 86.248 124.672 86.2 125.206 86.168C125.27 85.5813 125.376 85.0107 125.526 84.456C125.686 83.9013 125.91 83.4053 126.198 82.968C126.486 82.52 126.864 82.1627 127.334 81.896C127.803 81.6293 128.384 81.496 129.078 81.496C129.963 81.496 130.816 81.6773 131.638 82.04L131.094 84.584C130.39 84.264 129.808 84.104 129.35 84.104C128.859 84.104 128.518 84.28 128.326 84.632C128.134 84.9733 128.011 85.4587 127.958 86.088C128.534 86.0987 129.078 86.1253 129.59 86.168C130.112 86.2 130.566 86.2427 130.95 86.296L130.694 88.808C130.32 88.744 129.883 88.696 129.382 88.664C128.891 88.6213 128.374 88.6 127.83 88.6C127.808 89.144 127.792 89.6773 127.782 90.2C127.771 90.712 127.766 91.224 127.766 91.736C127.766 92.4187 127.771 93.1227 127.782 93.848C127.803 94.5627 127.824 95.3307 127.846 96.152H125.126ZM131.806 84.664C131.806 84.568 131.801 84.472 131.79 84.376C131.79 84.2693 131.79 84.152 131.79 84.024C131.79 83.6827 131.801 83.32 131.822 82.936C131.843 82.552 131.865 82.2267 131.886 81.96L134.734 82.008C134.702 82.3707 134.665 82.7813 134.622 83.24C134.59 83.6987 134.569 84.1733 134.558 84.664H131.806ZM131.742 96.12C131.71 95.4587 131.689 94.7547 131.678 94.008C131.667 93.2507 131.662 92.4933 131.662 91.736C131.662 90.744 131.673 89.7787 131.694 88.84C131.715 87.9013 131.742 87.048 131.774 86.28L134.526 86.264C134.483 86.7547 134.457 87.3627 134.446 88.088C134.435 88.8027 134.43 89.5547 134.43 90.344C134.43 91.1227 134.435 91.8907 134.446 92.648C134.457 93.4053 134.467 94.0933 134.478 94.712C134.499 95.32 134.515 95.7893 134.526 96.12H131.742ZM140.905 96.28C139.881 96.28 138.979 96.0773 138.201 95.672C137.433 95.2773 136.83 94.7227 136.393 94.008C135.966 93.2933 135.753 92.4667 135.753 91.528C135.753 90.9627 135.849 90.3707 136.041 89.752C136.233 89.1227 136.542 88.536 136.969 87.992C137.395 87.448 137.955 87.0053 138.649 86.664C139.353 86.3227 140.206 86.152 141.209 86.152C141.934 86.152 142.542 86.232 143.033 86.392C143.534 86.552 143.939 86.76 144.249 87.016C144.569 87.272 144.809 87.544 144.969 87.832C145.139 88.12 145.251 88.3973 145.305 88.664C145.369 88.92 145.401 89.1333 145.401 89.304C145.401 90.3387 144.963 91.1387 144.089 91.704C143.225 92.2587 141.998 92.536 140.409 92.536C140.046 92.536 139.699 92.52 139.369 92.488C139.049 92.456 138.75 92.4187 138.473 92.376C138.675 92.9093 139.011 93.304 139.481 93.56C139.95 93.8053 140.435 93.928 140.937 93.928C141.662 93.928 142.302 93.8 142.857 93.544C143.411 93.2773 143.934 92.872 144.425 92.328L145.849 94.376C145.507 94.6533 145.123 94.9413 144.697 95.24C144.281 95.5387 143.769 95.784 143.161 95.976C142.553 96.1787 141.801 96.28 140.905 96.28ZM141.257 88.552C140.627 88.552 140.073 88.712 139.593 89.032C139.113 89.352 138.761 89.7733 138.537 90.296C138.803 90.3387 139.065 90.376 139.321 90.408C139.587 90.4293 139.849 90.44 140.105 90.44C140.339 90.44 140.606 90.4187 140.905 90.376C141.214 90.3333 141.513 90.2693 141.801 90.184C142.099 90.0987 142.345 89.992 142.537 89.864C142.729 89.7253 142.825 89.5653 142.825 89.384C142.825 89.2987 142.782 89.192 142.697 89.064C142.611 88.936 142.457 88.8187 142.233 88.712C142.009 88.6053 141.683 88.552 141.257 88.552ZM147.024 96.248C147.067 95.3627 147.099 94.4773 147.12 93.592C147.142 92.7067 147.152 91.832 147.152 90.968C147.142 90.1787 147.126 89.4 147.104 88.632C147.094 87.8533 147.067 87.1013 147.024 86.376L149.712 86.296C149.723 86.6907 149.739 87.096 149.76 87.512C150.102 87.0853 150.496 86.744 150.944 86.488C151.403 86.2213 151.926 86.088 152.512 86.088C152.736 86.088 153.024 86.12 153.376 86.184C153.728 86.248 154.086 86.3707 154.448 86.552L154.144 89.256C153.878 89.096 153.59 88.984 153.28 88.92C152.982 88.8453 152.731 88.808 152.528 88.808C151.846 88.808 151.264 89.1173 150.784 89.736C150.315 90.344 149.995 91.192 149.824 92.28C149.824 93.0267 149.814 93.7413 149.792 94.424C149.782 95.096 149.755 95.704 149.712 96.248H147.024ZM159.808 96.328C159.083 96.328 158.411 96.2427 157.792 96.072C157.173 95.9013 156.613 95.6827 156.112 95.416C155.611 95.1493 155.163 94.8667 154.768 94.568L156.208 92.248C156.656 92.664 157.088 92.984 157.504 93.208C157.92 93.432 158.352 93.5867 158.8 93.672C159.259 93.7573 159.755 93.8 160.288 93.8C160.747 93.8 161.115 93.7413 161.392 93.624C161.669 93.496 161.808 93.336 161.808 93.144C161.808 92.984 161.675 92.8613 161.408 92.776C161.141 92.68 160.8 92.6 160.384 92.536C159.968 92.4613 159.531 92.3707 159.072 92.264C158.421 92.0933 157.813 91.896 157.248 91.672C156.683 91.448 156.224 91.144 155.872 90.76C155.531 90.376 155.36 89.864 155.36 89.224C155.36 88.712 155.483 88.264 155.728 87.88C155.973 87.4853 156.299 87.16 156.704 86.904C157.12 86.6373 157.589 86.44 158.112 86.312C158.635 86.184 159.173 86.12 159.728 86.12C160.688 86.12 161.515 86.2373 162.208 86.472C162.912 86.696 163.584 86.9947 164.224 87.368L162.768 89.576C162.448 89.352 162.08 89.16 161.664 89C161.259 88.8293 160.848 88.7013 160.432 88.616C160.027 88.52 159.648 88.472 159.296 88.472C158.912 88.472 158.608 88.5307 158.384 88.648C158.171 88.7653 158.064 88.9307 158.064 89.144C158.064 89.272 158.197 89.3947 158.464 89.512C158.741 89.6187 159.264 89.7627 160.032 89.944C160.491 90.0507 160.976 90.1627 161.488 90.28C162 90.3867 162.48 90.5413 162.928 90.744C163.387 90.936 163.755 91.2187 164.032 91.592C164.32 91.9547 164.464 92.44 164.464 93.048C164.464 94.072 164.053 94.872 163.232 95.448C162.411 96.0347 161.269 96.328 159.808 96.328ZM81.6419 119.136L78.9059 118.624C79.4179 116.555 79.9513 114.683 80.5059 113.008C81.0713 111.333 81.6526 109.899 82.2499 108.704C82.8473 107.509 83.4553 106.592 84.0739 105.952C84.7033 105.301 85.3326 104.976 85.9619 104.976C87.2313 104.976 88.3993 106.155 89.4659 108.512C90.5326 110.859 91.4393 114.261 92.1859 118.72L89.3539 119.104C89.2259 118.4 89.0873 117.68 88.9379 116.944C88.7886 116.197 88.6339 115.472 88.4739 114.768C88.2179 114.757 87.9406 114.752 87.6419 114.752C87.1193 114.752 86.5646 114.763 85.9779 114.784C85.4019 114.805 84.8313 114.843 84.2659 114.896C83.7113 114.939 83.1939 114.987 82.7139 115.04C82.5113 115.723 82.3139 116.416 82.1219 117.12C81.9406 117.813 81.7806 118.485 81.6419 119.136ZM84.5859 109.792C84.3513 110.293 84.0366 111.104 83.6419 112.224C84.1006 112.171 84.5859 112.133 85.0979 112.112C85.6099 112.08 86.1113 112.064 86.6019 112.064C87.0179 112.064 87.4179 112.075 87.8019 112.096C87.6526 111.552 87.5086 111.067 87.3699 110.64C87.2419 110.213 87.1246 109.877 87.0179 109.632C86.7939 109.056 86.5966 108.651 86.4259 108.416C86.2553 108.171 86.0793 108.048 85.8979 108.048C85.7059 108.048 85.5139 108.176 85.3219 108.432C85.1299 108.677 84.8846 109.131 84.5859 109.792ZM96.7966 119.312C95.9112 119.312 95.1592 118.624 94.5406 117.248C94.3272 116.757 94.1406 116.219 93.9806 115.632C93.8206 115.045 93.6819 114.448 93.5646 113.84C93.4579 113.232 93.3672 112.651 93.2926 112.096C93.2286 111.531 93.1752 111.035 93.1326 110.608C93.1006 110.171 93.0739 109.84 93.0526 109.616L95.6766 109.008C95.8046 111.429 95.9966 113.269 96.2526 114.528C96.5192 115.787 96.7219 116.416 96.8606 116.416C96.9352 116.416 97.0259 116.267 97.1326 115.968C97.2499 115.669 97.3779 115.275 97.5166 114.784C97.6552 114.283 97.7886 113.733 97.9166 113.136C98.0446 112.539 98.1566 111.936 98.2526 111.328C98.1246 110.549 98.0392 109.931 97.9966 109.472L100.701 109.376V109.568C100.701 110.005 100.733 110.517 100.797 111.104C100.861 111.691 100.941 112.299 101.037 112.928C101.133 113.547 101.234 114.123 101.341 114.656C101.458 115.189 101.57 115.621 101.677 115.952C101.783 116.283 101.874 116.448 101.949 116.448C102.013 116.448 102.103 116.304 102.221 116.016C102.338 115.728 102.466 115.333 102.605 114.832C102.754 114.331 102.903 113.76 103.053 113.12C103.202 112.469 103.346 111.787 103.485 111.072C103.623 110.347 103.735 109.627 103.821 108.912L106.461 109.472C106.279 110.485 106.061 111.493 105.805 112.496C105.559 113.488 105.298 114.411 105.021 115.264C104.743 116.107 104.471 116.816 104.205 117.392C103.607 118.661 102.866 119.296 101.981 119.296C101.693 119.296 101.362 119.205 100.989 119.024C100.626 118.853 100.29 118.491 99.9806 117.936C99.8739 117.733 99.7672 117.488 99.6606 117.2C99.5539 116.912 99.4526 116.592 99.3566 116.24C99.2286 116.635 99.1006 116.987 98.9726 117.296C98.4072 118.64 97.6819 119.312 96.7966 119.312ZM111.807 119.264C111.007 119.264 110.282 119.056 109.631 118.64C108.981 118.235 108.463 117.685 108.079 116.992C107.706 116.288 107.519 115.504 107.519 114.64C107.519 113.829 107.669 113.099 107.967 112.448C108.266 111.787 108.671 111.221 109.183 110.752C109.706 110.283 110.298 109.925 110.959 109.68C111.621 109.424 112.314 109.296 113.039 109.296C113.647 109.296 114.245 109.381 114.831 109.552C114.874 109.328 114.911 109.104 114.943 108.88L117.679 109.344C117.605 109.547 117.53 109.851 117.455 110.256C117.381 110.661 117.317 111.115 117.263 111.616C117.221 112.117 117.183 112.619 117.151 113.12C117.119 113.621 117.103 114.075 117.103 114.48C117.103 114.811 117.125 115.136 117.167 115.456C117.221 115.765 117.327 116.021 117.487 116.224C117.647 116.416 117.893 116.512 118.223 116.512H118.447L118.047 119.296C117.343 119.296 116.762 119.173 116.303 118.928C115.845 118.693 115.477 118.373 115.199 117.968C114.741 118.48 114.218 118.821 113.631 118.992C113.045 119.173 112.437 119.264 111.807 119.264ZM110.143 114.96C110.197 115.472 110.405 115.883 110.767 116.192C111.141 116.491 111.61 116.64 112.175 116.64C112.719 116.64 113.173 116.496 113.535 116.208C113.898 115.909 114.197 115.504 114.431 114.992C114.421 114.821 114.415 114.645 114.415 114.464C114.415 114.091 114.426 113.707 114.447 113.312C114.469 112.917 114.495 112.528 114.527 112.144C114.079 111.973 113.61 111.888 113.119 111.888C112.543 111.888 112.026 112.005 111.567 112.24C111.119 112.464 110.767 112.779 110.511 113.184C110.255 113.589 110.127 114.059 110.127 114.592C110.127 114.656 110.127 114.72 110.127 114.784C110.127 114.848 110.133 114.907 110.143 114.96ZM119.384 119.248C119.426 118.363 119.458 117.477 119.48 116.592C119.501 115.707 119.512 114.832 119.512 113.968C119.501 113.179 119.485 112.4 119.464 111.632C119.453 110.853 119.426 110.101 119.384 109.376L122.072 109.296C122.082 109.691 122.098 110.096 122.12 110.512C122.461 110.085 122.856 109.744 123.304 109.488C123.762 109.221 124.285 109.088 124.872 109.088C125.096 109.088 125.384 109.12 125.736 109.184C126.088 109.248 126.445 109.371 126.808 109.552L126.504 112.256C126.237 112.096 125.949 111.984 125.64 111.92C125.341 111.845 125.09 111.808 124.888 111.808C124.205 111.808 123.624 112.117 123.144 112.736C122.674 113.344 122.354 114.192 122.184 115.28C122.184 116.027 122.173 116.741 122.152 117.424C122.141 118.096 122.114 118.704 122.072 119.248H119.384ZM131.495 119.264C130.941 119.264 130.397 119.168 129.863 118.976C129.341 118.784 128.866 118.485 128.439 118.08C128.023 117.685 127.693 117.189 127.447 116.592C127.202 115.984 127.079 115.275 127.079 114.464C127.079 113.547 127.218 112.757 127.495 112.096C127.783 111.424 128.162 110.875 128.631 110.448C129.101 110.011 129.623 109.685 130.199 109.472C130.775 109.259 131.351 109.152 131.927 109.152C132.269 109.152 132.594 109.179 132.903 109.232C133.213 109.275 133.501 109.339 133.767 109.424C133.799 108.645 133.837 107.861 133.879 107.072C133.933 106.283 133.991 105.504 134.055 104.736L136.743 104.912C136.658 105.797 136.583 106.752 136.519 107.776C136.455 108.789 136.407 109.824 136.375 110.88C136.354 111.936 136.343 112.965 136.343 113.968C136.343 114.907 136.354 115.803 136.375 116.656C136.407 117.499 136.445 118.267 136.487 118.96L133.719 119.168C133.709 118.965 133.703 118.768 133.703 118.576C133.394 118.779 133.053 118.944 132.679 119.072C132.317 119.2 131.922 119.264 131.495 119.264ZM129.655 114.32C129.655 114.875 129.762 115.312 129.975 115.632C130.189 115.941 130.45 116.16 130.759 116.288C131.069 116.416 131.367 116.48 131.655 116.48C131.997 116.48 132.338 116.405 132.679 116.256C133.021 116.107 133.341 115.845 133.639 115.472C133.639 115.344 133.639 115.221 133.639 115.104C133.639 114.24 133.65 113.355 133.671 112.448C133.17 112.011 132.626 111.792 132.039 111.792C131.794 111.792 131.533 111.829 131.255 111.904C130.978 111.979 130.717 112.112 130.471 112.304C130.237 112.485 130.039 112.741 129.879 113.072C129.73 113.392 129.655 113.808 129.655 114.32ZM141.762 115.28L141.714 113.008C142.141 112.965 142.674 112.933 143.314 112.912C143.954 112.891 144.599 112.88 145.25 112.88C145.709 112.88 146.141 112.885 146.546 112.896C146.962 112.907 147.319 112.923 147.618 112.944L147.586 115.184C147.319 115.184 147.031 115.184 146.722 115.184C146.413 115.173 146.087 115.168 145.746 115.168C145.063 115.168 144.37 115.179 143.666 115.2C142.962 115.211 142.327 115.237 141.762 115.28ZM62.6591 142.104C62.5737 141.549 62.4991 140.877 62.4351 140.088C62.3817 139.299 62.3391 138.44 62.3071 137.512C62.2857 136.584 62.2751 135.64 62.2751 134.68C62.2751 133.475 62.2964 132.301 62.3391 131.16C62.3817 130.019 62.4457 129.016 62.5311 128.152L65.4751 128.2C65.3577 128.957 65.2671 129.848 65.2031 130.872C65.1497 131.896 65.1231 133.059 65.1231 134.36C65.1231 135.683 65.1444 137.011 65.1871 138.344C65.2404 139.677 65.2991 140.899 65.3631 142.008L62.6591 142.104ZM67.0757 142.152C67.0437 141.213 67.017 140.344 66.9957 139.544C66.985 138.744 66.9797 137.955 66.9797 137.176C66.9797 136.397 66.985 135.619 66.9957 134.84C67.017 134.051 67.049 133.208 67.0917 132.312H69.7957C69.753 132.792 69.7157 133.277 69.6837 133.768C70.0464 133.309 70.4784 132.931 70.9797 132.632C71.481 132.323 72.073 132.168 72.7557 132.168C73.4277 132.168 73.977 132.28 74.4037 132.504C74.841 132.728 75.1824 133.037 75.4277 133.432C75.6837 133.827 75.865 134.28 75.9717 134.792C76.089 135.293 76.1637 135.837 76.1957 136.424C76.2277 137 76.2437 137.581 76.2437 138.168C76.2437 138.808 76.233 139.421 76.2117 140.008C76.1904 140.595 76.169 141.085 76.1477 141.48C76.1264 141.875 76.1104 142.109 76.0997 142.184H73.4117C73.433 141.747 73.4544 141.283 73.4757 140.792C73.497 140.291 73.5184 139.8 73.5397 139.32C73.561 138.829 73.5717 138.387 73.5717 137.992C73.5717 135.72 73.2037 134.584 72.4677 134.584C71.8597 134.584 71.305 134.851 70.8037 135.384C70.313 135.907 69.9024 136.568 69.5717 137.368C69.5717 137.475 69.5717 137.581 69.5717 137.688C69.5717 138.2 69.5717 138.733 69.5717 139.288C69.5824 139.832 69.593 140.355 69.6037 140.856C69.625 141.347 69.641 141.773 69.6517 142.136L67.0757 142.152ZM81.8391 142.264C81.2844 142.264 80.7404 142.168 80.2071 141.976C79.6844 141.784 79.2097 141.485 78.7831 141.08C78.3671 140.685 78.0364 140.189 77.7911 139.592C77.5457 138.984 77.4231 138.275 77.4231 137.464C77.4231 136.547 77.5617 135.757 77.8391 135.096C78.1271 134.424 78.5057 133.875 78.9751 133.448C79.4444 133.011 79.9671 132.685 80.5431 132.472C81.1191 132.259 81.6951 132.152 82.2711 132.152C82.6124 132.152 82.9377 132.179 83.2471 132.232C83.5564 132.275 83.8444 132.339 84.1111 132.424C84.1431 131.645 84.1804 130.861 84.2231 130.072C84.2764 129.283 84.3351 128.504 84.3991 127.736L87.0871 127.912C87.0017 128.797 86.9271 129.752 86.8631 130.776C86.7991 131.789 86.7511 132.824 86.7191 133.88C86.6977 134.936 86.6871 135.965 86.6871 136.968C86.6871 137.907 86.6977 138.803 86.7191 139.656C86.7511 140.499 86.7884 141.267 86.8311 141.96L84.0631 142.168C84.0524 141.965 84.0471 141.768 84.0471 141.576C83.7377 141.779 83.3964 141.944 83.0231 142.072C82.6604 142.2 82.2657 142.264 81.8391 142.264ZM79.9991 137.32C79.9991 137.875 80.1057 138.312 80.3191 138.632C80.5324 138.941 80.7937 139.16 81.1031 139.288C81.4124 139.416 81.7111 139.48 81.9991 139.48C82.3404 139.48 82.6817 139.405 83.0231 139.256C83.3644 139.107 83.6844 138.845 83.9831 138.472C83.9831 138.344 83.9831 138.221 83.9831 138.104C83.9831 137.24 83.9937 136.355 84.0151 135.448C83.5137 135.011 82.9697 134.792 82.3831 134.792C82.1377 134.792 81.8764 134.829 81.5991 134.904C81.3217 134.979 81.0604 135.112 80.8151 135.304C80.5804 135.485 80.3831 135.741 80.2231 136.072C80.0737 136.392 79.9991 136.808 79.9991 137.32ZM88.3216 130.664C88.3216 130.568 88.3162 130.472 88.3056 130.376C88.3056 130.269 88.3056 130.152 88.3056 130.024C88.3056 129.683 88.3162 129.32 88.3376 128.936C88.3589 128.552 88.3802 128.227 88.4016 127.96L91.2496 128.008C91.2176 128.371 91.1802 128.781 91.1376 129.24C91.1056 129.699 91.0842 130.173 91.0736 130.664H88.3216ZM88.2576 142.12C88.2256 141.459 88.2042 140.755 88.1936 140.008C88.1829 139.251 88.1776 138.493 88.1776 137.736C88.1776 136.744 88.1882 135.779 88.2096 134.84C88.2309 133.901 88.2576 133.048 88.2896 132.28L91.0416 132.264C90.9989 132.755 90.9722 133.363 90.9616 134.088C90.9509 134.803 90.9456 135.555 90.9456 136.344C90.9456 137.123 90.9509 137.891 90.9616 138.648C90.9722 139.405 90.9829 140.093 90.9936 140.712C91.0149 141.32 91.0309 141.789 91.0416 142.12H88.2576ZM97.4203 142.28C96.3963 142.28 95.495 142.077 94.7163 141.672C93.9483 141.277 93.3456 140.723 92.9083 140.008C92.4816 139.293 92.2683 138.467 92.2683 137.528C92.2683 136.963 92.3643 136.371 92.5563 135.752C92.7483 135.123 93.0576 134.536 93.4843 133.992C93.911 133.448 94.471 133.005 95.1643 132.664C95.8683 132.323 96.7216 132.152 97.7243 132.152C98.4496 132.152 99.0576 132.232 99.5483 132.392C100.05 132.552 100.455 132.76 100.764 133.016C101.084 133.272 101.324 133.544 101.484 133.832C101.655 134.12 101.767 134.397 101.82 134.664C101.884 134.92 101.916 135.133 101.916 135.304C101.916 136.339 101.479 137.139 100.604 137.704C99.7403 138.259 98.5136 138.536 96.9243 138.536C96.5616 138.536 96.215 138.52 95.8843 138.488C95.5643 138.456 95.2656 138.419 94.9883 138.376C95.191 138.909 95.527 139.304 95.9963 139.56C96.4656 139.805 96.951 139.928 97.4523 139.928C98.1776 139.928 98.8176 139.8 99.3723 139.544C99.927 139.277 100.45 138.872 100.94 138.328L102.364 140.376C102.023 140.653 101.639 140.941 101.212 141.24C100.796 141.539 100.284 141.784 99.6763 141.976C99.0683 142.179 98.3163 142.28 97.4203 142.28ZM97.7723 134.552C97.143 134.552 96.5883 134.712 96.1083 135.032C95.6283 135.352 95.2763 135.773 95.0523 136.296C95.319 136.339 95.5803 136.376 95.8363 136.408C96.103 136.429 96.3643 136.44 96.6203 136.44C96.855 136.44 97.1216 136.419 97.4203 136.376C97.7296 136.333 98.0283 136.269 98.3163 136.184C98.615 136.099 98.8603 135.992 99.0523 135.864C99.2443 135.725 99.3403 135.565 99.3403 135.384C99.3403 135.299 99.2976 135.192 99.2123 135.064C99.127 134.936 98.9723 134.819 98.7483 134.712C98.5243 134.605 98.199 134.552 97.7723 134.552ZM109.412 141.752C108.303 141.752 107.369 141.555 106.612 141.16C105.855 140.776 105.247 140.264 104.788 139.624C104.34 138.984 104.015 138.285 103.812 137.528C103.609 136.771 103.508 136.019 103.508 135.272C103.508 134.387 103.652 133.512 103.94 132.648C104.228 131.784 104.66 131 105.236 130.296C105.823 129.592 106.548 129.027 107.412 128.6C108.287 128.173 109.305 127.96 110.468 127.96C111.449 127.96 112.308 128.104 113.044 128.392C113.78 128.669 114.409 129.011 114.932 129.416C115.465 129.811 115.892 130.184 116.212 130.536L114.212 132.696C113.913 132.344 113.593 132.013 113.252 131.704C112.921 131.395 112.527 131.144 112.068 130.952C111.609 130.76 111.044 130.664 110.372 130.664C109.647 130.664 109.023 130.797 108.5 131.064C107.977 131.32 107.551 131.667 107.22 132.104C106.889 132.541 106.644 133.032 106.484 133.576C106.335 134.12 106.26 134.68 106.26 135.256C106.26 135.939 106.372 136.568 106.596 137.144C106.831 137.72 107.177 138.184 107.636 138.536C108.105 138.888 108.687 139.064 109.38 139.064C110.233 139.064 110.937 138.867 111.492 138.472C112.047 138.077 112.431 137.512 112.644 136.776C112.185 136.808 111.743 136.851 111.316 136.904C110.9 136.947 110.527 136.995 110.196 137.048L109.924 134.456C110.553 134.317 111.279 134.216 112.1 134.152C112.932 134.077 113.727 134.04 114.484 134.04C115.529 134.04 116.313 134.104 116.836 134.232L116.772 136.856C116.548 136.792 116.191 136.744 115.7 136.712C115.7 136.947 115.7 137.192 115.7 137.448C115.711 137.704 115.716 137.965 115.716 138.232C115.716 138.968 115.705 139.693 115.684 140.408C115.663 141.123 115.641 141.693 115.62 142.12L112.884 142.056C112.895 141.917 112.911 141.704 112.932 141.416C112.964 141.128 112.996 140.803 113.028 140.44C112.665 140.824 112.191 141.139 111.604 141.384C111.028 141.629 110.297 141.752 109.412 141.752ZM122.323 142.264C121.523 142.264 120.798 142.056 120.147 141.64C119.496 141.235 118.979 140.685 118.595 139.992C118.222 139.288 118.035 138.504 118.035 137.64C118.035 136.829 118.184 136.099 118.483 135.448C118.782 134.787 119.187 134.221 119.699 133.752C120.222 133.283 120.814 132.925 121.475 132.68C122.136 132.424 122.83 132.296 123.555 132.296C124.163 132.296 124.76 132.381 125.347 132.552C125.39 132.328 125.427 132.104 125.459 131.88L128.195 132.344C128.12 132.547 128.046 132.851 127.971 133.256C127.896 133.661 127.832 134.115 127.779 134.616C127.736 135.117 127.699 135.619 127.667 136.12C127.635 136.621 127.619 137.075 127.619 137.48C127.619 137.811 127.64 138.136 127.683 138.456C127.736 138.765 127.843 139.021 128.003 139.224C128.163 139.416 128.408 139.512 128.739 139.512H128.963L128.563 142.296C127.859 142.296 127.278 142.173 126.819 141.928C126.36 141.693 125.992 141.373 125.715 140.968C125.256 141.48 124.734 141.821 124.147 141.992C123.56 142.173 122.952 142.264 122.323 142.264ZM120.659 137.96C120.712 138.472 120.92 138.883 121.283 139.192C121.656 139.491 122.126 139.64 122.691 139.64C123.235 139.64 123.688 139.496 124.051 139.208C124.414 138.909 124.712 138.504 124.947 137.992C124.936 137.821 124.931 137.645 124.931 137.464C124.931 137.091 124.942 136.707 124.963 136.312C124.984 135.917 125.011 135.528 125.043 135.144C124.595 134.973 124.126 134.888 123.635 134.888C123.059 134.888 122.542 135.005 122.083 135.24C121.635 135.464 121.283 135.779 121.027 136.184C120.771 136.589 120.643 137.059 120.643 137.592C120.643 137.656 120.643 137.72 120.643 137.784C120.643 137.848 120.648 137.907 120.659 137.96ZM129.963 142.248C129.953 142.088 129.942 141.821 129.931 141.448C129.921 141.085 129.91 140.648 129.899 140.136C129.889 139.624 129.883 139.075 129.883 138.488C129.883 137.891 129.883 137.293 129.883 136.696C129.883 136.035 129.883 135.405 129.883 134.808C129.894 134.211 129.899 133.693 129.899 133.256C129.91 132.819 129.915 132.504 129.915 132.312L132.619 132.264C132.598 132.563 132.582 132.925 132.571 133.352C132.849 132.979 133.169 132.685 133.531 132.472C133.894 132.259 134.31 132.152 134.779 132.152C135.345 132.152 135.809 132.317 136.171 132.648C136.545 132.979 136.849 133.411 137.083 133.944C137.851 132.749 138.795 132.152 139.915 132.152C140.545 132.152 141.062 132.291 141.467 132.568C141.883 132.835 142.209 133.197 142.443 133.656C142.678 134.115 142.849 134.632 142.955 135.208C143.073 135.784 143.147 136.376 143.179 136.984C143.211 137.592 143.227 138.179 143.227 138.744C143.227 139.416 143.217 140.029 143.195 140.584C143.174 141.139 143.169 141.667 143.179 142.168H140.411C140.411 141.912 140.411 141.587 140.411 141.192C140.411 140.808 140.411 140.419 140.411 140.024C140.422 139.619 140.427 139.272 140.427 138.984C140.427 138.685 140.427 138.509 140.427 138.456C140.427 137.816 140.411 137.213 140.379 136.648C140.347 136.083 140.267 135.624 140.139 135.272C140.011 134.92 139.803 134.744 139.515 134.744C139.238 134.744 138.993 134.877 138.779 135.144C138.566 135.411 138.374 135.757 138.203 136.184C138.043 136.611 137.905 137.064 137.787 137.544C137.809 137.96 137.825 138.376 137.835 138.792C137.846 139.197 137.851 139.592 137.851 139.976C137.851 140.413 137.846 140.792 137.835 141.112C137.835 141.443 137.835 141.795 137.835 142.168H135.147C135.147 141.304 135.142 140.541 135.131 139.88C135.121 139.219 135.099 138.579 135.067 137.96C135.014 136.851 134.897 136.04 134.715 135.528C134.545 135.005 134.305 134.744 133.995 134.744C133.654 134.744 133.366 134.952 133.131 135.368C132.897 135.773 132.705 136.269 132.555 136.856C132.566 137.709 132.587 138.6 132.619 139.528C132.651 140.456 132.694 141.352 132.747 142.216L129.963 142.248ZM149.452 142.28C148.428 142.28 147.526 142.077 146.748 141.672C145.98 141.277 145.377 140.723 144.94 140.008C144.513 139.293 144.3 138.467 144.3 137.528C144.3 136.963 144.396 136.371 144.588 135.752C144.78 135.123 145.089 134.536 145.516 133.992C145.942 133.448 146.502 133.005 147.196 132.664C147.9 132.323 148.753 132.152 149.756 132.152C150.481 132.152 151.089 132.232 151.58 132.392C152.081 132.552 152.486 132.76 152.796 133.016C153.116 133.272 153.356 133.544 153.516 133.832C153.686 134.12 153.798 134.397 153.852 134.664C153.916 134.92 153.948 135.133 153.948 135.304C153.948 136.339 153.51 137.139 152.636 137.704C151.772 138.259 150.545 138.536 148.956 138.536C148.593 138.536 148.246 138.52 147.916 138.488C147.596 138.456 147.297 138.419 147.02 138.376C147.222 138.909 147.558 139.304 148.028 139.56C148.497 139.805 148.982 139.928 149.484 139.928C150.209 139.928 150.849 139.8 151.404 139.544C151.958 139.277 152.481 138.872 152.972 138.328L154.396 140.376C154.054 140.653 153.67 140.941 153.244 141.24C152.828 141.539 152.316 141.784 151.708 141.976C151.1 142.179 150.348 142.28 149.452 142.28ZM149.804 134.552C149.174 134.552 148.62 134.712 148.14 135.032C147.66 135.352 147.308 135.773 147.084 136.296C147.35 136.339 147.612 136.376 147.868 136.408C148.134 136.429 148.396 136.44 148.652 136.44C148.886 136.44 149.153 136.419 149.452 136.376C149.761 136.333 150.06 136.269 150.348 136.184C150.646 136.099 150.892 135.992 151.084 135.864C151.276 135.725 151.372 135.565 151.372 135.384C151.372 135.299 151.329 135.192 151.244 135.064C151.158 134.936 151.004 134.819 150.78 134.712C150.556 134.605 150.23 134.552 149.804 134.552ZM160.339 142.328C159.614 142.328 158.942 142.243 158.323 142.072C157.705 141.901 157.145 141.683 156.643 141.416C156.142 141.149 155.694 140.867 155.299 140.568L156.739 138.248C157.187 138.664 157.619 138.984 158.035 139.208C158.451 139.432 158.883 139.587 159.331 139.672C159.79 139.757 160.286 139.8 160.819 139.8C161.278 139.8 161.646 139.741 161.923 139.624C162.201 139.496 162.339 139.336 162.339 139.144C162.339 138.984 162.206 138.861 161.939 138.776C161.673 138.68 161.331 138.6 160.915 138.536C160.499 138.461 160.062 138.371 159.603 138.264C158.953 138.093 158.345 137.896 157.779 137.672C157.214 137.448 156.755 137.144 156.403 136.76C156.062 136.376 155.891 135.864 155.891 135.224C155.891 134.712 156.014 134.264 156.259 133.88C156.505 133.485 156.83 133.16 157.235 132.904C157.651 132.637 158.121 132.44 158.643 132.312C159.166 132.184 159.705 132.12 160.259 132.12C161.219 132.12 162.046 132.237 162.739 132.472C163.443 132.696 164.115 132.995 164.755 133.368L163.299 135.576C162.979 135.352 162.611 135.16 162.195 135C161.79 134.829 161.379 134.701 160.963 134.616C160.558 134.52 160.179 134.472 159.827 134.472C159.443 134.472 159.139 134.531 158.915 134.648C158.702 134.765 158.595 134.931 158.595 135.144C158.595 135.272 158.729 135.395 158.995 135.512C159.273 135.619 159.795 135.763 160.563 135.944C161.022 136.051 161.507 136.163 162.019 136.28C162.531 136.387 163.011 136.541 163.459 136.744C163.918 136.936 164.286 137.219 164.563 137.592C164.851 137.955 164.995 138.44 164.995 139.048C164.995 140.072 164.585 140.872 163.763 141.448C162.942 142.035 161.801 142.328 160.339 142.328ZM72.9516 165.184C72.8769 164.256 72.8236 163.355 72.7916 162.48C72.7702 161.605 72.7596 160.779 72.7596 160C72.7596 158.709 72.7862 157.552 72.8396 156.528C72.8929 155.493 72.9462 154.603 72.9996 153.856C72.0822 153.909 71.1916 153.979 70.3276 154.064C69.4636 154.149 68.6636 154.261 67.9276 154.4L67.9596 151.728C69.2076 151.504 70.4876 151.344 71.7996 151.248C73.1116 151.141 74.4236 151.088 75.7356 151.088C76.6742 151.088 77.5702 151.109 78.4236 151.152C79.2876 151.195 80.1142 151.259 80.9036 151.344L80.8876 154.112C80.1409 153.995 79.3302 153.915 78.4556 153.872C77.5916 153.819 76.7062 153.792 75.7996 153.792C75.7462 154.517 75.6982 155.328 75.6556 156.224C75.6129 157.109 75.5916 158.059 75.5916 159.072C75.5916 159.979 75.6129 160.933 75.6556 161.936C75.7089 162.939 75.7729 163.995 75.8476 165.104L72.9516 165.184ZM83.4766 165.104C83.4446 164.379 83.4286 163.579 83.4286 162.704C83.4286 161.861 83.4446 160.965 83.4766 160.016C83.5086 159.067 83.5566 158.107 83.6206 157.136C83.6846 156.155 83.7699 155.2 83.8766 154.272C83.7059 154.315 83.5406 154.357 83.3806 154.4C83.2312 154.432 83.0926 154.469 82.9646 154.512L82.1486 151.968C84.7299 151.36 86.8792 151.056 88.5966 151.056C92.0846 151.056 93.8286 152.384 93.8286 155.04C93.8286 156.288 93.4126 157.28 92.5806 158.016C91.7486 158.741 90.5272 159.2 88.9166 159.392C89.8872 160.213 90.8632 160.891 91.8446 161.424C92.8366 161.947 93.8392 162.389 94.8526 162.752L93.0926 165.104C92.5272 164.901 91.9352 164.619 91.3166 164.256C90.6979 163.893 90.0846 163.493 89.4766 163.056C88.8686 162.619 88.2872 162.176 87.7326 161.728C87.1886 161.28 86.7032 160.864 86.2766 160.48C86.2659 161.216 86.2552 161.963 86.2446 162.72C86.2446 163.467 86.2446 164.24 86.2446 165.04L86.1486 165.136C85.7432 165.136 85.3059 165.136 84.8366 165.136C84.3779 165.147 83.9619 165.168 83.5886 165.2L83.4766 165.104ZM88.4526 153.6C88.1539 153.6 87.8446 153.616 87.5246 153.648C87.2046 153.669 86.8846 153.701 86.5646 153.744C86.5219 154.341 86.4846 154.933 86.4526 155.52C86.4206 156.096 86.3939 156.672 86.3726 157.248C86.8419 157.237 87.3486 157.211 87.8926 157.168C88.4472 157.115 88.9699 157.019 89.4606 156.88C89.9512 156.731 90.3512 156.517 90.6606 156.24C90.9806 155.963 91.1406 155.595 91.1406 155.136C91.1406 154.603 90.9219 154.213 90.4846 153.968C90.0472 153.723 89.3699 153.6 88.4526 153.6ZM102.23 165.28C101.334 165.28 100.502 165.147 99.7344 164.88C98.9664 164.613 98.2731 164.261 97.6544 163.824C97.0464 163.376 96.5131 162.896 96.0544 162.384L97.6544 159.84C97.7931 160.203 98.0224 160.549 98.3424 160.88C98.6731 161.211 99.0571 161.504 99.4944 161.76C99.9318 162.016 100.39 162.219 100.87 162.368C101.361 162.517 101.841 162.592 102.31 162.592C103.014 162.592 103.574 162.48 103.99 162.256C104.406 162.021 104.614 161.712 104.614 161.328C104.614 161.029 104.518 160.784 104.326 160.592C104.145 160.389 103.932 160.229 103.686 160.112C103.452 159.984 103.249 159.872 103.078 159.776C102.95 159.712 102.716 159.616 102.374 159.488C102.044 159.349 101.67 159.2 101.254 159.04C100.838 158.88 100.444 158.731 100.07 158.592C99.6971 158.443 99.4038 158.32 99.1904 158.224C97.6011 157.509 96.8064 156.405 96.8064 154.912C96.8064 154.432 96.8971 153.963 97.0784 153.504C97.2704 153.035 97.5584 152.608 97.9424 152.224C98.3264 151.84 98.8171 151.536 99.4144 151.312C100.012 151.088 100.726 150.976 101.558 150.976C102.465 150.976 103.27 151.077 103.974 151.28C104.678 151.472 105.297 151.717 105.83 152.016C106.374 152.315 106.838 152.629 107.222 152.96L105.75 155.424C104.566 154.251 103.228 153.664 101.734 153.664C101.105 153.664 100.625 153.733 100.294 153.872C99.9744 154 99.7558 154.149 99.6384 154.32C99.5318 154.48 99.4784 154.613 99.4784 154.72C99.4784 154.901 99.5424 155.083 99.6704 155.264C99.8091 155.445 100.113 155.637 100.582 155.84C100.774 155.925 101.03 156.032 101.35 156.16C101.681 156.277 102.044 156.411 102.438 156.56C102.844 156.709 103.238 156.869 103.622 157.04C104.017 157.2 104.374 157.365 104.694 157.536C105.078 157.749 105.473 158.011 105.878 158.32C106.284 158.629 106.625 159.013 106.902 159.472C107.19 159.92 107.334 160.469 107.334 161.12C107.334 161.515 107.26 161.952 107.11 162.432C106.961 162.901 106.7 163.355 106.326 163.792C105.953 164.229 105.436 164.587 104.774 164.864C104.113 165.141 103.265 165.28 102.23 165.28ZM113.28 165.216C113.173 164.8 113.056 164.373 112.928 163.936C112.81 163.499 112.704 163.115 112.608 162.784C113.792 162.123 114.821 161.408 115.696 160.64C116.581 159.872 117.306 159.109 117.872 158.352C118.448 157.595 118.874 156.907 119.152 156.288C119.44 155.669 119.584 155.184 119.584 154.832C119.584 154.427 119.445 154.112 119.168 153.888C118.901 153.653 118.538 153.536 118.08 153.536C117.45 153.536 116.81 153.76 116.16 154.208C115.52 154.656 114.922 155.291 114.368 156.112L112.688 154.096C113.168 153.52 113.674 153.003 114.208 152.544C114.752 152.085 115.333 151.723 115.952 151.456C116.57 151.179 117.232 151.04 117.936 151.04C118.704 151.04 119.408 151.173 120.048 151.44C120.688 151.707 121.2 152.107 121.584 152.64C121.968 153.173 122.16 153.835 122.16 154.624C122.16 155.371 121.968 156.181 121.584 157.056C121.2 157.92 120.666 158.789 119.984 159.664C119.301 160.528 118.522 161.333 117.648 162.08C118 162.069 118.357 162.064 118.72 162.064C119.424 162.064 120.069 162.107 120.656 162.192C121.242 162.267 121.85 162.384 122.48 162.544L121.952 165.008C121.429 164.88 120.874 164.773 120.288 164.688C119.701 164.603 119.029 164.56 118.272 164.56C117.376 164.56 116.485 164.608 115.6 164.704C114.714 164.811 113.941 164.981 113.28 165.216ZM129.301 165.248C128.491 165.248 127.765 165.056 127.125 164.672C126.485 164.299 125.941 163.787 125.493 163.136C125.056 162.485 124.72 161.749 124.485 160.928C124.251 160.107 124.133 159.253 124.133 158.368C124.133 157.312 124.277 156.32 124.565 155.392C124.864 154.453 125.291 153.616 125.845 152.88C126.4 152.144 127.067 151.536 127.845 151.056L128.069 151.536C128.592 151.269 129.157 151.136 129.765 151.136C130.64 151.136 131.403 151.328 132.053 151.712C132.715 152.085 133.259 152.597 133.685 153.248C134.123 153.888 134.448 154.608 134.661 155.408C134.885 156.208 134.997 157.035 134.997 157.888C134.997 159.157 134.832 160.256 134.501 161.184C134.181 162.112 133.749 162.875 133.205 163.472C132.661 164.069 132.048 164.512 131.365 164.8C130.693 165.099 130.005 165.248 129.301 165.248ZM126.757 158.512C126.757 158.896 126.795 159.328 126.869 159.808C126.955 160.288 127.099 160.747 127.301 161.184C127.504 161.611 127.776 161.968 128.117 162.256C128.469 162.533 128.917 162.672 129.461 162.672C130.048 162.672 130.56 162.475 130.997 162.08C131.435 161.675 131.776 161.115 132.021 160.4C132.277 159.685 132.405 158.859 132.405 157.92C132.405 156.981 132.261 156.213 131.973 155.616C131.696 155.008 131.344 154.56 130.917 154.272C130.501 153.973 130.08 153.824 129.653 153.824C129.429 153.824 129.216 153.888 129.013 154.016C128.811 154.144 128.651 154.315 128.533 154.528L128.309 154.048C127.808 154.549 127.451 155.056 127.237 155.568C127.024 156.08 126.891 156.587 126.837 157.088C126.784 157.579 126.757 158.053 126.757 158.512ZM137.28 165.216C137.173 164.8 137.056 164.373 136.928 163.936C136.81 163.499 136.704 163.115 136.608 162.784C137.792 162.123 138.821 161.408 139.696 160.64C140.581 159.872 141.306 159.109 141.872 158.352C142.448 157.595 142.874 156.907 143.152 156.288C143.44 155.669 143.584 155.184 143.584 154.832C143.584 154.427 143.445 154.112 143.168 153.888C142.901 153.653 142.538 153.536 142.08 153.536C141.45 153.536 140.81 153.76 140.16 154.208C139.52 154.656 138.922 155.291 138.368 156.112L136.688 154.096C137.168 153.52 137.674 153.003 138.208 152.544C138.752 152.085 139.333 151.723 139.952 151.456C140.57 151.179 141.232 151.04 141.936 151.04C142.704 151.04 143.408 151.173 144.048 151.44C144.688 151.707 145.2 152.107 145.584 152.64C145.968 153.173 146.16 153.835 146.16 154.624C146.16 155.371 145.968 156.181 145.584 157.056C145.2 157.92 144.666 158.789 143.984 159.664C143.301 160.528 142.522 161.333 141.648 162.08C142 162.069 142.357 162.064 142.72 162.064C143.424 162.064 144.069 162.107 144.656 162.192C145.242 162.267 145.85 162.384 146.48 162.544L145.952 165.008C145.429 164.88 144.874 164.773 144.288 164.688C143.701 164.603 143.029 164.56 142.272 164.56C141.376 164.56 140.485 164.608 139.6 164.704C138.714 164.811 137.941 164.981 137.28 165.216ZM153.493 165.232C152.352 165.232 151.376 165.045 150.565 164.672C149.755 164.309 149.051 163.888 148.453 163.408L149.717 161.12C150.08 161.504 150.485 161.808 150.933 162.032C151.392 162.245 151.845 162.4 152.293 162.496C152.752 162.581 153.152 162.624 153.493 162.624C154.155 162.624 154.699 162.469 155.125 162.16C155.563 161.84 155.781 161.435 155.781 160.944C155.781 160.592 155.659 160.277 155.413 160C155.179 159.723 154.853 159.509 154.437 159.36C154.021 159.2 153.547 159.12 153.013 159.12H152.789C152.608 159.12 152.421 159.125 152.229 159.136C152.048 159.147 151.867 159.163 151.685 159.184L151.637 158L151.525 156.656C152.827 156.603 153.824 156.405 154.517 156.064C155.211 155.712 155.557 155.248 155.557 154.672C155.557 154.363 155.36 154.107 154.965 153.904C154.581 153.691 154.085 153.584 153.477 153.584C152.368 153.584 151.264 153.984 150.165 154.784L148.853 152.48C149.323 152.139 149.829 151.861 150.373 151.648C150.917 151.424 151.461 151.259 152.005 151.152C152.549 151.045 153.051 150.992 153.509 150.992C154.448 150.992 155.264 151.141 155.957 151.44C156.651 151.728 157.189 152.139 157.573 152.672C157.957 153.205 158.149 153.835 158.149 154.56C158.149 155.392 157.968 156.064 157.605 156.576C157.253 157.088 156.768 157.488 156.149 157.776C156.853 158.075 157.424 158.501 157.861 159.056C158.309 159.611 158.533 160.267 158.533 161.024C158.533 161.675 158.395 162.261 158.117 162.784C157.84 163.296 157.461 163.733 156.981 164.096C156.512 164.469 155.973 164.752 155.365 164.944C154.768 165.136 154.144 165.232 153.493 165.232Z" fill="white"/>
</svg>
