<svg width="228" height="223" viewBox="0 0 228 223" fill="none" xmlns="http://www.w3.org/2000/svg">
<path d="M93.2521 4.43004C92.5751 4.67214 90.366 5.31199 88.3529 5.88266C79.0712 8.47663 76.1317 10.4999 74.2967 15.5322L73.8335 16.8119L69.7004 19.475C67.4201 20.9277 65.5495 22.1036 65.5495 22.0517C65.5495 22.0171 65.8702 21.481 66.2799 20.8931C67.2776 19.3886 68.2752 17.2961 69.0056 15.1864C69.647 13.3014 71.4998 6.40145 71.3751 6.29769C71.3394 6.26311 70.4487 6.74731 69.3976 7.35257C61.4342 12.0044 56.3925 16.8465 54.3259 21.8615C53.2036 24.5592 52.9898 26.8073 53.6133 29.1246L53.9874 30.4735L53.2214 31.1133C51.4577 32.5659 48.3044 35.4712 46.7188 37.0967C45.3114 38.5494 45.0977 38.7223 45.3827 38.1343C46.3982 36.111 47.378 32.5659 47.7343 29.6607C48.055 26.8592 47.8768 21.948 47.2889 17.6939L47.182 16.9503L45.1689 19.4232C41.98 23.3487 40.5726 25.1991 39.1474 27.3261C36.5464 31.1998 35.7803 33.1539 35.2459 37.2524C34.7649 41.0396 35.5665 46.4177 36.7602 47.3688C37.0274 47.5764 37.1343 47.5591 37.5797 47.2478C37.8647 47.0403 38.1497 46.8673 38.2032 46.8673C38.2566 46.8673 37.7044 47.6628 36.9739 48.6312C35.6022 50.4989 32.5736 55.1334 31.4512 57.1049C31.0771 57.762 30.7564 58.2808 30.7386 58.2808C30.703 58.2808 30.7564 57.8658 30.8633 57.3643C30.9524 56.8801 31.0415 55.0643 31.0415 53.3523C31.0415 48.8215 30.7386 47.3343 27.9595 38.7742C27.229 36.5606 26.5877 34.814 26.5342 34.8832C26.4095 35.0216 24.7705 39.9155 23.4344 44.1004C22.5614 46.85 21.4391 51.1214 21.0828 53.0929C20.8868 54.1477 20.7621 55.6695 20.7621 57.3297C20.7621 60.2176 21.065 61.8259 22.1161 64.2296C22.7218 65.5958 24.9309 69.5732 25.1268 69.6597C25.1981 69.6943 25.0556 70.2303 24.8062 70.8702C24.0401 72.7897 22.3299 77.822 21.9735 79.1536C21.7954 79.8453 21.5994 80.416 21.5282 80.416C21.4569 80.416 21.35 80.0528 21.2788 79.5859C21.1006 78.3581 19.4972 73.8619 18.4283 71.5619C17.9117 70.4379 17.11 69.0371 16.6646 68.4146C16.2192 67.792 14.9366 65.8206 13.8142 64.0394C11.231 59.8718 10.8569 59.7334 10.8569 62.8635C10.8569 63.6244 10.7678 65.4574 10.6787 66.9274C9.84141 79.2746 10.3224 84.134 12.7809 88.8031C13.7964 90.7054 15.5066 92.4693 17.4307 93.5587C18.7312 94.3024 18.7312 94.3196 18.6243 94.9422C18.3571 96.5505 17.9651 101.375 17.8582 104.315L17.7513 107.566L16.8784 105.975C15.7204 103.9 13.6004 100.58 12.2286 98.7467C10.2333 96.049 9.03972 94.7693 7.04442 93.2129C5.9577 92.3655 4.51467 91.2415 3.8555 90.7227C2.0918 89.3219 1.75331 89.4257 2.19869 91.1896C2.34121 91.7776 2.87567 94.4407 3.37449 97.1038C4.74626 104.54 5.65484 107.756 7.40073 111.353C9.57418 115.832 13.1016 119.343 17.6445 121.591L18.6599 122.075L18.8559 123.51C19.2835 126.398 20.2098 131.016 20.8334 133.402C21.0115 134.077 21.1362 134.647 21.1184 134.664C21.0828 134.699 20.7977 134.353 20.4771 133.921C19.4438 132.52 17.4129 130.67 15.667 129.528C14.7406 128.923 12.7809 127.609 11.3023 126.589C7.08005 123.683 0.452804 119.498 0.078685 119.498C-0.188543 119.498 0.167761 120.328 2.03836 124.15C4.88879 129.995 8.00644 135.927 9.34258 138.089C12.5671 143.328 17.2347 146.96 23.2919 148.983C24.3073 149.312 25.4297 149.588 25.7682 149.588C26.3561 149.588 26.4095 149.64 26.8549 150.678C27.5319 152.252 31.3443 159.515 32.2173 160.881C33.0011 162.126 32.9655 162.143 31.7541 161.244C29.8122 159.809 25.9285 157.716 22.704 156.35C20.2989 155.33 18.5708 154.776 15.5957 154.085C14.3308 153.791 12.1752 153.151 10.8212 152.701C7.16913 151.439 7.02661 151.681 9.57418 154.707C10.5184 155.849 12.1218 157.82 13.1016 159.1C15.4176 162.091 17.4485 164.27 19.9782 166.484C25.0378 170.911 27.2468 172.225 31.665 173.453C35.2993 174.473 37.1877 174.646 40.145 174.3L41.7306 174.11L42.1938 174.698C43.9753 176.912 48.2331 181.2 51.9209 184.503L53.3461 185.783L50.6382 184.451C47.5918 182.964 47.1286 182.843 41.2318 182.03C32.5914 180.837 23.47 180.111 22.3833 180.509C22.1161 180.63 22.1517 180.716 22.7396 181.252C24.0045 182.428 31.5937 187.789 34.4442 189.536C36.7067 190.919 38.8623 191.939 41.6771 192.96C46.701 194.775 48.732 195.139 53.0967 195.017C56.6953 194.914 57.8711 194.706 60.7394 193.599L62.806 192.804L65.2644 194.291C67.9367 195.917 72.2658 198.269 74.1008 199.099C77.0937 200.447 77.4322 200.62 76.7731 200.517C76.4346 200.465 74.2789 200.378 71.9986 200.309C66.3334 200.171 64.9972 200.326 55.9293 202.056C53.2392 202.575 49.5336 203.249 47.6987 203.578C43.7615 204.252 43.5121 204.442 45.7568 205.065C46.5229 205.272 49.3555 206.12 52.0278 206.932C61.1848 209.699 62.9663 210.011 69.2907 210.028C73.3525 210.028 74.0473 209.993 75.7576 209.63C79.8551 208.8 82.6343 207.52 85.1284 205.341C86.2329 204.373 86.7139 204.044 86.999 204.114C87.1949 204.148 88.5845 204.511 90.0632 204.909C91.5418 205.307 94.0538 205.895 95.6393 206.206C97.2071 206.517 98.5432 206.811 98.5967 206.863C98.6323 206.898 98.2582 207.036 97.7415 207.157C95.3721 207.745 88.9408 210.668 79.4453 215.458C74.0651 218.173 72.4262 219.124 72.729 219.314C73.2813 219.66 82.4561 219.314 87.7294 218.744C94.2319 218.052 102.587 215.233 106.008 212.57C107.273 211.584 108.591 210.305 109.927 208.783L110.568 208.039H114.221H117.891L120.438 210.408C124.838 214.489 125.533 214.853 133.425 217.17C137.95 218.501 139.304 218.709 148.052 219.297C155.908 219.833 156.407 219.833 156.407 219.262C156.407 218.83 151.686 216.357 148.746 215.25C147.82 214.905 146.288 214.144 145.362 213.556C142.939 212.034 140.926 210.979 138.503 209.941C136.294 209.008 130.361 207.002 129.827 207.002C129.649 207.002 129.506 206.95 129.506 206.863C129.506 206.794 130.326 206.587 131.341 206.414C133.497 206.033 137.933 204.961 140.516 204.2C141.513 203.906 142.351 203.699 142.386 203.733C142.404 203.768 142.547 204.027 142.689 204.321C143.58 205.999 149.548 208.99 153.557 209.751C156.674 210.356 163.319 210.305 166.74 209.682C169.822 209.094 180.742 205.86 182.417 205.013C183.148 204.65 183.112 204.148 182.381 203.906C181.455 203.629 175.22 202.402 170.837 201.658C163.711 200.43 161.627 200.188 158.01 200.188C154.821 200.188 154.038 200.275 149.851 201.035C149.584 201.087 149.78 200.949 150.261 200.741C154.501 198.943 161.057 195.432 165.261 192.683C167.345 191.317 167.417 191.299 167.203 191.836C166.775 192.839 167.274 193.444 169.091 194.101C171.158 194.862 173.135 195.139 176.36 195.139C179.585 195.139 180.867 194.948 184.288 193.945C187.405 193.029 189.81 191.974 192.768 190.227C197.703 187.322 204.508 182.791 205.559 181.684C206.093 181.131 205.951 180.768 205.131 180.612C204.08 180.422 192.501 181.269 188.207 181.857C182.952 182.566 178.159 184.036 174.578 186.06L173.599 186.613L174.578 185.783C178.444 182.515 182.275 178.727 185.695 174.802C186.657 173.695 186.728 173.643 187.103 173.868C188.759 174.871 193.338 174.542 198.077 173.072C200.428 172.346 201.907 171.585 204.419 169.839C210.298 165.757 212.543 163.561 216.052 158.477C217.531 156.333 218.724 154.949 220.061 153.894C221.308 152.891 221.628 152.425 221.236 152.165C220.898 151.94 220.15 152.079 217.424 152.874C216.159 153.237 213.95 153.825 212.525 154.188C209.87 154.846 207.911 155.503 205.577 156.558C202.37 157.993 198.094 160.552 195.44 162.627C193.997 163.751 193.961 163.769 194.371 163.129C196.562 159.688 200.001 153.341 201.212 150.488C201.479 149.865 201.729 149.537 201.871 149.588C203.207 150.038 208.196 148.188 211.848 145.87C214.021 144.47 217.121 141.582 218.279 139.818C220.47 136.48 226.652 124.531 227.775 121.453C228.291 120.035 228.024 120.017 225.868 121.262C223.356 122.732 215.536 127.782 213.237 129.442C211.117 130.981 208.516 133.419 207.305 135.045C206.842 135.65 206.468 136.1 206.468 136.065C206.468 136.013 206.699 135.097 207.002 134.007C207.643 131.569 208.481 127.592 208.962 124.513C209.176 123.234 209.354 122.179 209.371 122.179C209.389 122.162 209.728 122.058 210.138 121.954C211.171 121.66 214.591 119.637 215.892 118.547C218.137 116.628 219.74 114.553 221.272 111.544C222.982 108.206 224.069 104.54 225.174 98.3662C225.565 96.1527 226.153 93.3512 226.456 92.158C227.222 89.1144 227.026 88.7858 225.227 90.2385C222.929 92.1234 216.48 98.885 214.306 101.704C212.988 103.416 211.741 105.543 210.921 107.445L210.262 108.95L210.155 105.197C210.048 101.911 209.728 97.6745 209.389 95.0805C209.282 94.3196 209.3 94.2851 209.639 94.3715C210.334 94.5445 211.67 93.7144 213.433 92.0197C214.93 90.567 215.251 90.152 215.945 88.7167C217.353 85.846 218.083 83.0445 218.404 79.2573C218.707 75.6085 218.618 72.6168 217.958 64.5063C217.531 59.3011 217.816 59.4567 215.482 63.1402C211.741 69.0717 208.908 74.2769 208.053 76.8709C207.732 77.8739 207.643 78.6002 207.572 81.1596C207.537 82.8543 207.465 84.2205 207.43 84.1859C207.394 84.1513 207.091 83.0272 206.735 81.713C205.933 78.6867 204.259 73.5852 203.101 70.68C202.513 69.1927 202.334 68.5529 202.53 68.7258C203.332 69.4349 204.241 68.7258 205.488 66.374C206.414 64.6274 207.554 61.4281 208 59.3184C208.516 56.7936 208.142 54.0786 206.361 47.6455C205.452 44.3598 203.029 37.114 202.726 36.7509C202.139 36.0591 201.283 37.5982 199.342 42.8035C198.469 45.1726 198.255 46.4523 198.059 51.035C197.916 54.1823 197.899 56.1192 198.041 57.6928C198.13 58.9206 198.201 59.9409 198.184 59.9755C198.148 60.0101 197.685 59.2146 197.15 58.2289C195.102 54.5282 192.055 49.9109 189.383 46.4523C187.975 44.6192 187.922 44.2907 189.276 45.6568C189.668 46.0546 190.381 46.6598 190.862 47.0057L191.734 47.6282L192.144 47.1613C192.999 46.1929 193.516 43.3741 193.516 39.6907C193.516 33.69 191.948 29.9028 186.8 23.4352C185.784 22.1555 181.705 17.2961 181.134 16.6909C180.974 16.5179 181.063 20.3743 181.366 27.8622C181.526 32.1336 181.776 34.105 182.328 35.7133C182.667 36.6817 183.931 39.293 184.644 40.4689C184.911 40.9012 185 41.0914 184.84 40.9185C182.898 38.6012 177.732 33.5689 174.881 31.1652C174.276 30.6637 174.222 30.5772 174.472 30.3351C174.97 29.8682 175.184 28.6577 175.184 26.4615C175.184 23.954 174.953 22.8645 174.097 21.1871C172.548 18.1608 168.913 14.0969 165.172 11.2089C162.945 9.49692 158.58 6.74731 158.064 6.74731C157.529 6.74731 158.046 9.51421 159.525 14.339C160.665 18.0743 161.413 19.5096 163.693 22.3803C164.495 23.3833 164.566 23.5389 164.139 23.2622C163.854 23.0893 162.5 22.3457 161.128 21.6021C158.01 19.942 155.481 18.5239 155.267 18.3337C155.178 18.2472 155.035 17.6939 154.946 17.0886C154.608 14.7021 152.594 11.7969 149.94 9.84278C147.446 8.00971 145.094 7.11047 136.472 4.65485C133.728 3.87666 133.247 3.82478 133.247 4.32628C133.247 5.08718 138.039 11.2781 141.032 14.3563C143.491 16.8984 146.876 18.7314 150.421 19.475C151.561 19.6999 151.953 19.9247 155.374 22.2592C157.405 23.6427 159.061 24.8186 159.026 24.8532C158.99 24.8705 158.046 24.8359 156.941 24.7494C154.501 24.5592 152.345 24.7322 149.495 25.3547C146.911 25.9081 143.295 26.963 141.175 27.7584C136.632 29.4705 137.149 29.7472 146.876 30.7847C149.619 31.0787 151.989 31.3554 152.131 31.39C152.274 31.4419 153.877 31.5456 155.677 31.6494C159.311 31.8569 164.905 31.6321 166.918 31.2344L168.076 30.9923L170.125 32.6178C171.247 33.4998 172.69 34.693 173.331 35.2464L174.489 36.284L172.886 35.8689C169.661 35.0388 167.737 34.8486 162.464 34.8659C157.137 34.8832 156.015 35.0216 155.908 35.7306C155.837 36.2494 156.282 36.5434 158.723 37.5809C159.952 38.0997 162.749 39.3621 164.958 40.3824C168.913 42.2155 172.833 43.7892 174.792 44.3425C176.289 44.7576 179.602 45.2764 181.669 45.4147L183.522 45.5358L185.392 47.9049C186.408 49.2192 187.744 50.9831 188.35 51.8132C189.294 53.1447 189.383 53.3004 188.92 53.0064C184.983 50.4816 176.307 47.4207 172.156 47.0921C170.802 46.9884 170.499 47.1267 170.819 47.7147C171.176 48.3373 183.807 58.7131 186.354 60.4597C190.006 62.9845 194.246 65.3364 195.85 65.7341L196.651 65.9244L197.489 67.7747C198.344 69.6424 200.589 75.2972 200.589 75.5739C200.589 75.6604 199.68 74.8303 198.593 73.7235C196.081 71.2333 194.068 69.7461 190.683 67.8612C185.659 65.0597 182.417 63.6935 182.417 64.368C182.417 64.7311 183.29 65.9589 184.573 67.3597C186.711 69.7461 189.312 73.4814 191.574 77.4589C192.144 78.4446 192.892 79.6551 193.267 80.1393C195.404 82.9408 199.431 86.728 202.406 88.7513C203.279 89.3565 204.116 89.9099 204.259 90.0137C204.65 90.2731 205.417 95.4956 205.915 101.168C205.987 102.067 206.04 102.828 206.022 102.862C206.004 102.88 205.719 102.188 205.399 101.306C204.633 99.1271 203.475 97.0001 202.281 95.5475C201.034 94.043 191.164 84.134 190.897 84.134C190.523 84.134 190.755 85.2062 192.02 89.4084C194.656 98.1068 196.384 102.69 198.629 106.961C200.41 110.385 202.584 113.498 204.864 115.919L205.808 116.922L205.684 118.34C205.399 121.47 204.205 129.01 203.973 129.01C203.902 129.01 203.795 128.525 203.742 127.92C203.403 124.41 201.372 119.965 196.527 112.149C194.514 108.88 193.498 107.532 193.142 107.601C192.696 107.687 192.679 109.209 193.017 114.743C193.623 124.894 194.157 130.514 194.745 132.728C195.547 135.875 197.845 140.821 199.359 142.688L199.858 143.311L198.825 145.801C197.15 149.813 193.997 156.194 193.997 155.555C193.997 155.451 194.086 154.258 194.175 152.891C194.531 147.755 193.498 140.821 191.485 134.976C190.701 132.676 190.078 131.604 189.543 131.604C189.062 131.604 188.884 132.019 188.742 133.592C188.581 135.373 187.975 138.434 186.782 143.536C184.822 151.871 184.466 154.258 184.608 158.373C184.715 161.469 184.911 162.524 186.016 165.619L186.586 167.21L185.054 169.164C183.468 171.188 180.101 175.061 179.727 175.286C179.567 175.372 179.549 175.286 179.638 174.992C179.87 174.162 180.457 170.565 180.636 168.801C180.903 166.19 180.849 160.379 180.547 156.592C180.386 154.794 180.244 153.22 180.208 153.134C180.172 153.03 179.531 154.171 178.765 155.641C176.681 159.688 173.955 164.495 172.583 166.588C169.109 171.897 168.307 174.802 167.88 183.569L167.773 186.008L166.668 186.786C164.246 188.55 158.723 192.129 158.456 192.129C158.402 192.129 158.687 191.628 159.079 191.023C161.039 188.031 162.999 183.137 163.961 178.848C164.353 177.136 165.136 172.191 165.029 172.087C164.905 171.948 155.356 181.252 152.612 184.175C147.375 189.778 145.076 193.617 144.56 197.681L144.435 198.649L142.012 199.444C140.053 200.084 135.189 201.468 134.904 201.468C134.868 201.468 135.634 200.69 136.614 199.738C140.32 196.142 143.847 190.902 144.702 187.72C145.29 185.472 145.54 185.558 142.565 187.011C140.213 188.135 138.004 189.051 133.336 190.781C132.552 191.075 130.949 191.784 129.773 192.372C127.849 193.323 127.457 193.599 125.836 195.156C122.879 198.026 120.402 201.589 120.349 203.024L120.331 203.664L119.013 203.785C117.018 203.941 109.446 203.906 108.983 203.733C108.698 203.629 108.448 203.249 108.146 202.488C107.576 201.001 106.471 198.857 105.776 197.871C104.85 196.539 102.801 194.672 101.126 193.617C99.3093 192.458 97.1714 191.455 94.0538 190.314C89.8672 188.792 85.9301 187.045 83.9169 185.869L83.329 185.506L83.4537 186.094C84.3623 190.054 87.6759 195.087 92.5395 199.877C93.6262 200.949 94.3923 201.779 94.2498 201.744C94.0894 201.693 92.8424 201.381 91.4706 201.035C90.0988 200.69 87.8897 200.067 86.5536 199.635L84.1307 198.874L84.006 197.784C83.5072 193.478 82.0998 190.884 77.3788 185.731C75.6863 183.898 63.7502 171.862 63.6789 171.931C63.5186 172.069 64.5518 177.534 65.1932 179.972C66.6362 185.541 68.2752 189.397 70.4843 192.441C70.7337 192.787 70.6268 192.752 69.6292 192.199C68.1149 191.351 63.8392 188.619 62.1112 187.374C61.1135 186.665 60.7394 186.302 60.8285 186.111C60.8819 185.973 61.0244 185.247 61.1135 184.538C61.6123 181.166 60.5434 175.874 58.3343 170.755C57.4436 168.697 56.8201 167.573 55.0207 164.685C53.8449 162.818 50.9767 157.647 49.5871 154.897C49.213 154.171 48.821 153.566 48.6963 153.566C48.3757 153.566 48.2688 155.9 48.2688 162.991C48.2688 171.654 48.3935 172.969 49.6227 176.566C49.8009 177.067 45.8993 172.83 43.4052 169.77L41.8731 167.919L42.3185 166.933C43.2627 164.858 44.1713 159.912 44.1713 156.8C44.1713 153.808 43.5299 150.021 41.6059 141.685C40.4301 136.584 39.7709 133.195 39.6818 131.777C39.6462 131.189 39.5571 130.981 39.3077 130.946C39.0761 130.895 38.8267 131.223 38.3101 132.33C37.1699 134.699 35.8872 139.489 34.7827 145.438C34.1591 148.862 34.1235 152.563 34.6936 155.641C34.9074 156.73 35.0321 157.647 35.0143 157.682C34.9786 157.699 34.0344 155.952 32.9121 153.791C31.1127 150.315 29.1709 146.078 28.4761 144.193L28.2623 143.57L29.349 142.395C31.2018 140.44 33.5356 135.408 34.1057 132.157C34.8361 127.989 36.2079 109.434 35.8694 108.396C35.7269 107.947 35.4062 108.016 34.8005 108.638C32.7874 110.731 27.2825 120.259 26.1067 123.666C25.4831 125.482 24.9487 128.266 24.8062 130.341C24.7527 131.327 24.6636 132.105 24.628 132.071C24.343 131.777 22.8465 123.372 22.4189 119.637L22.2051 117.769L22.6683 117.423C23.9688 116.42 29.7053 108.396 31.0058 105.75C32.5201 102.672 38.1497 85.2926 37.9003 84.5317C37.7934 84.2551 35.3349 86.434 31.7897 89.9445C25.5366 96.1008 24.1648 98.2452 22.0983 104.972C21.5994 106.563 22.2408 98.1933 23.0068 93.161L23.3809 90.6016L24.1114 90.2385C25.3584 89.6332 28.1198 87.5407 29.8835 85.8806C33.1793 82.7851 35.4953 79.9145 39.86 73.4987C41.3743 71.2679 43.3874 68.4146 44.3494 67.1695C45.3114 65.9244 46.1844 64.7311 46.2913 64.5409C46.5763 64.0394 46.5407 63.6417 46.22 63.6417C45.4896 63.6417 38.8267 67.2732 34.5511 70.0228C32.4311 71.3717 29.545 73.9138 28.1198 75.6777C27.6922 76.2138 27.1934 76.819 27.0331 77.0265C26.463 77.701 29.6341 69.3657 30.8633 66.9274C31.2196 66.2529 31.3443 66.1319 32.1282 65.9416C33.2684 65.665 36.2613 64.2642 38.6486 62.8635C42.5145 60.5981 46.1488 57.9522 49.7831 54.753C50.9589 53.7154 52.8829 52.0899 54.0587 51.1387C57.1764 48.6312 57.9246 47.9222 57.8533 47.4899C57.7821 46.9711 57.016 46.9538 54.7713 47.3861C48.9814 48.5275 43.815 50.5508 39.5571 53.3696C38.6486 53.9748 37.8647 54.4763 37.8291 54.4763C37.544 54.4763 43.5477 46.435 44.2782 45.8125C44.5454 45.5876 45.1689 45.5012 46.9326 45.432C52.0634 45.2072 56.4994 43.9102 63.0554 40.7283C64.6765 39.9501 67.2419 38.7742 68.7562 38.1343C70.2705 37.4945 71.7848 36.7682 72.1055 36.5434C73.7623 35.3328 71.8026 34.7622 65.9949 34.7622C60.9175 34.7622 56.4103 35.3674 53.453 36.4569C53.061 36.5952 56.25 33.8629 58.459 32.1509C59.6705 31.2171 60.3475 30.802 60.5434 30.8712C61.4876 31.2344 63.9996 31.6667 65.9949 31.8396C68.8631 32.0644 71.8382 31.8742 78.9109 31.0441C81.7079 30.6983 85.2709 30.3351 86.8386 30.2141C89.6356 29.9893 90.5798 29.7644 90.4373 29.3494C90.1523 28.5021 84.2554 26.3231 79.8016 25.4239C76.3099 24.7322 71.3929 24.5592 68.7562 25.0607C68.3108 25.1472 67.9367 25.1991 67.9011 25.1818C67.8833 25.1472 69.4154 23.954 71.3038 22.5359L74.7421 19.9247L76.7018 19.7344C80.9774 19.3194 83.9526 17.7284 88.1926 13.63C90.5798 11.3127 92.7176 8.85707 94.0538 6.88566C95.1761 5.26011 95.4256 4.60297 95.1049 4.22252C94.8377 3.91124 94.7486 3.92854 93.2521 4.43004Z" fill="white"/>
<path d="M49.1431 85.104C49.1324 85.0187 49.1217 84.9067 49.1111 84.768C49.1111 84.6293 49.1111 84.4693 49.1111 84.288C49.1111 83.8507 49.1217 83.3173 49.1431 82.688C49.1751 82.048 49.2124 81.3547 49.2551 80.608C49.2977 79.8507 49.3457 79.088 49.3991 78.32C49.4524 77.5413 49.5057 76.7947 49.5591 76.08C49.6231 75.3547 49.6817 74.7093 49.7351 74.144C49.5644 74.1653 49.3991 74.1867 49.2391 74.208L48.8871 71.488C49.9964 71.3387 51.1751 71.232 52.4231 71.168C53.6817 71.104 54.9084 71.072 56.1031 71.072C56.9991 71.072 57.8577 71.0933 58.6791 71.136C59.5111 71.168 60.2577 71.216 60.9191 71.28L60.6791 73.936C60.1884 73.84 59.6284 73.776 58.9991 73.744C58.3697 73.7013 57.6924 73.68 56.9671 73.68C56.2204 73.68 55.4471 73.7013 54.6471 73.744C53.8577 73.776 53.0897 73.8187 52.3431 73.872C52.3004 74.2987 52.2577 74.7413 52.2151 75.2C52.1831 75.6587 52.1511 76.1333 52.1191 76.624C52.6737 76.5493 53.2871 76.496 53.9591 76.464C54.6417 76.432 55.3191 76.416 55.9911 76.416C56.7591 76.416 57.4791 76.4373 58.1511 76.48C58.8337 76.5227 59.3564 76.5973 59.7191 76.704L59.5271 79.28C58.7804 79.1947 58.0817 79.136 57.4311 79.104C56.7804 79.0613 56.1457 79.04 55.5271 79.04C54.3217 79.04 53.1324 79.12 51.9591 79.28C51.8951 80.4 51.8417 81.4667 51.7991 82.48C51.7671 83.4933 51.7404 84.3467 51.7191 85.04L49.1431 85.104ZM62.2122 73.664C62.2122 73.568 62.2069 73.472 62.1962 73.376C62.1962 73.2693 62.1962 73.152 62.1962 73.024C62.1962 72.6827 62.2069 72.32 62.2282 71.936C62.2495 71.552 62.2709 71.2267 62.2922 70.96L65.1402 71.008C65.1082 71.3707 65.0709 71.7813 65.0282 72.24C64.9962 72.6987 64.9749 73.1733 64.9642 73.664H62.2122ZM62.1482 85.12C62.1162 84.4587 62.0949 83.7547 62.0842 83.008C62.0735 82.2507 62.0682 81.4933 62.0682 80.736C62.0682 79.744 62.0789 78.7787 62.1002 77.84C62.1215 76.9013 62.1482 76.048 62.1802 75.28L64.9322 75.264C64.8895 75.7547 64.8629 76.3627 64.8522 77.088C64.8415 77.8027 64.8362 78.5547 64.8362 79.344C64.8362 80.1227 64.8415 80.8907 64.8522 81.648C64.8629 82.4053 64.8735 83.0933 64.8842 83.712C64.9055 84.32 64.9215 84.7893 64.9322 85.12H62.1482ZM66.6069 85.152C66.5749 84.2133 66.5483 83.344 66.5269 82.544C66.5163 81.744 66.5109 80.9547 66.5109 80.176C66.5109 79.3973 66.5163 78.6187 66.5269 77.84C66.5483 77.0507 66.5803 76.208 66.6229 75.312H69.3269C69.2843 75.792 69.2469 76.2773 69.2149 76.768C69.5776 76.3093 70.0096 75.9307 70.5109 75.632C71.0123 75.3227 71.6043 75.168 72.2869 75.168C72.9589 75.168 73.5083 75.28 73.9349 75.504C74.3723 75.728 74.7136 76.0373 74.9589 76.432C75.2149 76.8267 75.3963 77.28 75.5029 77.792C75.6203 78.2933 75.6949 78.8373 75.7269 79.424C75.7589 80 75.7749 80.5813 75.7749 81.168C75.7749 81.808 75.7643 82.4213 75.7429 83.008C75.7216 83.5947 75.7003 84.0853 75.6789 84.48C75.6576 84.8747 75.6416 85.1093 75.6309 85.184H72.9429C72.9643 84.7467 72.9856 84.2827 73.0069 83.792C73.0283 83.2907 73.0496 82.8 73.0709 82.32C73.0923 81.8293 73.1029 81.3867 73.1029 80.992C73.1029 78.72 72.7349 77.584 71.9989 77.584C71.3909 77.584 70.8363 77.8507 70.3349 78.384C69.8443 78.9067 69.4336 79.568 69.1029 80.368C69.1029 80.4747 69.1029 80.5813 69.1029 80.688C69.1029 81.2 69.1029 81.7333 69.1029 82.288C69.1136 82.832 69.1243 83.3547 69.1349 83.856C69.1563 84.3467 69.1723 84.7733 69.1829 85.136L66.6069 85.152ZM81.3543 85.264C80.5543 85.264 79.829 85.056 79.1783 84.64C78.5276 84.2347 78.0103 83.6853 77.6263 82.992C77.253 82.288 77.0663 81.504 77.0663 80.64C77.0663 79.8293 77.2156 79.0987 77.5143 78.448C77.813 77.7867 78.2183 77.2213 78.7303 76.752C79.253 76.2827 79.845 75.9253 80.5063 75.68C81.1676 75.424 81.861 75.296 82.5863 75.296C83.1943 75.296 83.7916 75.3813 84.3783 75.552C84.421 75.328 84.4583 75.104 84.4903 74.88L87.2263 75.344C87.1516 75.5467 87.077 75.8507 87.0023 76.256C86.9276 76.6613 86.8636 77.1147 86.8103 77.616C86.7676 78.1173 86.7303 78.6187 86.6983 79.12C86.6663 79.6213 86.6503 80.0747 86.6503 80.48C86.6503 80.8107 86.6716 81.136 86.7143 81.456C86.7676 81.7653 86.8743 82.0213 87.0343 82.224C87.1943 82.416 87.4396 82.512 87.7703 82.512H87.9943L87.5943 85.296C86.8903 85.296 86.309 85.1733 85.8503 84.928C85.3916 84.6933 85.0236 84.3733 84.7463 83.968C84.2876 84.48 83.765 84.8213 83.1783 84.992C82.5916 85.1733 81.9836 85.264 81.3543 85.264ZM79.6903 80.96C79.7436 81.472 79.9516 81.8827 80.3143 82.192C80.6876 82.4907 81.157 82.64 81.7223 82.64C82.2663 82.64 82.7196 82.496 83.0823 82.208C83.445 81.9093 83.7436 81.504 83.9783 80.992C83.9676 80.8213 83.9623 80.6453 83.9623 80.464C83.9623 80.0907 83.973 79.7067 83.9943 79.312C84.0156 78.9173 84.0423 78.528 84.0743 78.144C83.6263 77.9733 83.157 77.888 82.6663 77.888C82.0903 77.888 81.573 78.0053 81.1143 78.24C80.6663 78.464 80.3143 78.7787 80.0583 79.184C79.8023 79.5893 79.6743 80.0587 79.6743 80.592C79.6743 80.656 79.6743 80.72 79.6743 80.784C79.6743 80.848 79.6796 80.9067 79.6903 80.96ZM92.1146 85.264C91.5279 85.264 91.0426 85.136 90.6586 84.88C90.2852 84.6347 89.9866 84.2933 89.7626 83.856C89.5492 83.4187 89.3892 82.9173 89.2826 82.352C89.1866 81.7867 89.1226 81.184 89.0906 80.544C89.0692 79.8933 89.0586 79.2427 89.0586 78.592C89.0586 78.0267 89.0746 77.408 89.1066 76.736C89.1386 76.0533 89.1759 75.3653 89.2186 74.672C89.2719 73.968 89.3252 73.3067 89.3786 72.688C89.4426 72.0693 89.5012 71.5307 89.5546 71.072L92.4506 71.104C92.3652 71.648 92.2852 72.2667 92.2106 72.96C92.1359 73.6427 92.0719 74.336 92.0186 75.04C91.9759 75.744 91.9386 76.3947 91.9066 76.992C91.8852 77.5893 91.8746 78.064 91.8746 78.416C91.8746 79.3867 91.8906 80.1493 91.9226 80.704C91.9652 81.2587 92.0239 81.6533 92.0986 81.888C92.1839 82.112 92.2959 82.224 92.4346 82.224C92.6159 82.224 92.8132 82.112 93.0266 81.888C93.2399 81.6533 93.4479 81.392 93.6506 81.104L95.0106 83.808C94.6799 84.1707 94.2852 84.5013 93.8266 84.8C93.3679 85.1093 92.7972 85.264 92.1146 85.264ZM96.3372 73.664C96.3372 73.568 96.3319 73.472 96.3212 73.376C96.3212 73.2693 96.3212 73.152 96.3212 73.024C96.3212 72.6827 96.3319 72.32 96.3532 71.936C96.3745 71.552 96.3959 71.2267 96.4172 70.96L99.2652 71.008C99.2332 71.3707 99.1959 71.7813 99.1532 72.24C99.1212 72.6987 99.0999 73.1733 99.0892 73.664H96.3372ZM96.2732 85.12C96.2412 84.4587 96.2199 83.7547 96.2092 83.008C96.1985 82.2507 96.1932 81.4933 96.1932 80.736C96.1932 79.744 96.2039 78.7787 96.2252 77.84C96.2465 76.9013 96.2732 76.048 96.3052 75.28L99.0572 75.264C99.0145 75.7547 98.9879 76.3627 98.9772 77.088C98.9665 77.8027 98.9612 78.5547 98.9612 79.344C98.9612 80.1227 98.9665 80.8907 98.9772 81.648C98.9879 82.4053 98.9985 83.0933 99.0092 83.712C99.0305 84.32 99.0465 84.7893 99.0572 85.12H96.2732ZM105.308 85.328C104.583 85.328 103.911 85.2427 103.292 85.072C102.673 84.9013 102.113 84.6827 101.612 84.416C101.111 84.1493 100.663 83.8667 100.268 83.568L101.708 81.248C102.156 81.664 102.588 81.984 103.004 82.208C103.42 82.432 103.852 82.5867 104.3 82.672C104.759 82.7573 105.255 82.8 105.788 82.8C106.247 82.8 106.615 82.7413 106.892 82.624C107.169 82.496 107.308 82.336 107.308 82.144C107.308 81.984 107.175 81.8613 106.908 81.776C106.641 81.68 106.3 81.6 105.884 81.536C105.468 81.4613 105.031 81.3707 104.572 81.264C103.921 81.0933 103.313 80.896 102.748 80.672C102.183 80.448 101.724 80.144 101.372 79.76C101.031 79.376 100.86 78.864 100.86 78.224C100.86 77.712 100.983 77.264 101.228 76.88C101.473 76.4853 101.799 76.16 102.204 75.904C102.62 75.6373 103.089 75.44 103.612 75.312C104.135 75.184 104.673 75.12 105.228 75.12C106.188 75.12 107.015 75.2373 107.708 75.472C108.412 75.696 109.084 75.9947 109.724 76.368L108.268 78.576C107.948 78.352 107.58 78.16 107.164 78C106.759 77.8293 106.348 77.7013 105.932 77.616C105.527 77.52 105.148 77.472 104.796 77.472C104.412 77.472 104.108 77.5307 103.884 77.648C103.671 77.7653 103.564 77.9307 103.564 78.144C103.564 78.272 103.697 78.3947 103.964 78.512C104.241 78.6187 104.764 78.7627 105.532 78.944C105.991 79.0507 106.476 79.1627 106.988 79.28C107.5 79.3867 107.98 79.5413 108.428 79.744C108.887 79.936 109.255 80.2187 109.532 80.592C109.82 80.9547 109.964 81.44 109.964 82.048C109.964 83.072 109.553 83.872 108.732 84.448C107.911 85.0347 106.769 85.328 105.308 85.328ZM115.998 85.264C115.358 85.264 114.851 85.1253 114.478 84.848C114.104 84.5813 113.832 84.208 113.662 83.728C113.491 83.248 113.379 82.6987 113.326 82.08C113.283 81.4613 113.262 80.8107 113.262 80.128C113.262 79.424 113.288 78.6933 113.342 77.936C112.627 78.032 111.939 78.1547 111.278 78.304L110.782 75.792C111.667 75.5573 112.611 75.3867 113.614 75.28C113.688 74.736 113.768 74.1653 113.854 73.568C113.939 72.96 114.035 72.32 114.142 71.648L116.894 71.888C116.766 72.4427 116.654 72.9973 116.558 73.552C116.462 74.096 116.376 74.624 116.302 75.136C116.899 75.136 117.459 75.152 117.982 75.184C118.515 75.2053 119.006 75.248 119.454 75.312L119.134 77.824C118.76 77.7813 118.371 77.7547 117.966 77.744C117.571 77.7227 117.171 77.712 116.766 77.712C116.52 77.712 116.275 77.7173 116.03 77.728C115.966 78.5067 115.923 79.1733 115.902 79.728C115.891 80.2827 115.886 80.6773 115.886 80.912C115.886 81.4987 115.918 81.92 115.982 82.176C116.056 82.432 116.174 82.56 116.334 82.56C116.515 82.56 116.718 82.5013 116.942 82.384C117.166 82.256 117.384 82.0853 117.598 81.872C117.822 81.6587 118.008 81.4293 118.158 81.184L119.39 83.76C118.334 84.7627 117.203 85.264 115.998 85.264ZM124.325 81.28L124.277 79.008C124.703 78.9653 125.237 78.9333 125.877 78.912C126.517 78.8907 127.162 78.88 127.813 78.88C128.271 78.88 128.703 78.8853 129.109 78.896C129.525 78.9067 129.882 78.9227 130.181 78.944L130.149 81.184C129.882 81.184 129.594 81.184 129.285 81.184C128.975 81.1733 128.65 81.168 128.309 81.168C127.626 81.168 126.933 81.1787 126.229 81.2C125.525 81.2107 124.89 81.2373 124.325 81.28ZM136.009 85.104C135.998 84.9867 135.993 84.8587 135.993 84.72C135.993 84.5813 135.993 84.4213 135.993 84.24C135.993 83.7813 136.003 83.2373 136.025 82.608C136.046 81.968 136.078 81.2907 136.121 80.576C136.163 79.8507 136.206 79.1253 136.249 78.4C136.291 77.664 136.334 76.96 136.377 76.288C136.43 75.616 136.478 75.0133 136.521 74.48C136.286 74.5547 136.078 74.624 135.897 74.688L135.481 72C136.686 71.6587 137.806 71.4027 138.841 71.232C139.886 71.0613 140.83 70.976 141.673 70.976C143.39 70.976 144.702 71.3013 145.609 71.952C146.515 72.6027 146.969 73.5467 146.969 74.784C146.969 75.488 146.814 76.08 146.505 76.56C146.195 77.0293 145.758 77.4187 145.193 77.728C146.579 78.432 147.273 79.5787 147.273 81.168C147.273 81.872 147.139 82.464 146.873 82.944C146.617 83.4133 146.286 83.792 145.881 84.08C145.475 84.368 145.043 84.5813 144.585 84.72C144.137 84.8693 143.71 84.9653 143.305 85.008C142.91 85.0613 142.601 85.088 142.377 85.088C141.822 85.088 141.23 85.0347 140.601 84.928C139.971 84.8213 139.358 84.6613 138.761 84.448C138.761 84.6613 138.761 84.864 138.761 85.056L136.009 85.104ZM141.737 73.648C141.353 73.648 140.947 73.6693 140.521 73.712C140.105 73.744 139.689 73.7973 139.273 73.872C139.209 74.6507 139.145 75.5573 139.081 76.592C139.219 76.6027 139.358 76.608 139.497 76.608C139.646 76.608 139.795 76.608 139.945 76.608C142.761 76.608 144.169 76.032 144.169 74.88C144.169 74.496 143.95 74.1973 143.513 73.984C143.086 73.76 142.494 73.648 141.737 73.648ZM140.313 79.136C140.089 79.136 139.859 79.136 139.625 79.136C139.401 79.136 139.171 79.1413 138.937 79.152C138.915 79.6213 138.894 80.0907 138.873 80.56C138.862 81.0293 138.846 81.4933 138.825 81.952C139.422 82.1333 140.009 82.2667 140.585 82.352C141.161 82.4267 141.657 82.464 142.073 82.464C142.958 82.464 143.593 82.3573 143.977 82.144C144.361 81.92 144.553 81.5573 144.553 81.056C144.553 80.4373 144.185 79.9627 143.449 79.632C142.723 79.3013 141.678 79.136 140.313 79.136ZM153.561 85.28C152.537 85.28 151.636 85.0773 150.857 84.672C150.089 84.2773 149.486 83.7227 149.049 83.008C148.622 82.2933 148.409 81.4667 148.409 80.528C148.409 79.9627 148.505 79.3707 148.697 78.752C148.889 78.1227 149.198 77.536 149.625 76.992C150.052 76.448 150.612 76.0053 151.305 75.664C152.009 75.3227 152.862 75.152 153.865 75.152C154.59 75.152 155.198 75.232 155.689 75.392C156.19 75.552 156.596 75.76 156.905 76.016C157.225 76.272 157.465 76.544 157.625 76.832C157.796 77.12 157.908 77.3973 157.961 77.664C158.025 77.92 158.057 78.1333 158.057 78.304C158.057 79.3387 157.62 80.1387 156.745 80.704C155.881 81.2587 154.654 81.536 153.065 81.536C152.702 81.536 152.356 81.52 152.025 81.488C151.705 81.456 151.406 81.4187 151.129 81.376C151.332 81.9093 151.668 82.304 152.137 82.56C152.606 82.8053 153.092 82.928 153.593 82.928C154.318 82.928 154.958 82.8 155.513 82.544C156.068 82.2773 156.59 81.872 157.081 81.328L158.505 83.376C158.164 83.6533 157.78 83.9413 157.353 84.24C156.937 84.5387 156.425 84.784 155.817 84.976C155.209 85.1787 154.457 85.28 153.561 85.28ZM153.913 77.552C153.284 77.552 152.729 77.712 152.249 78.032C151.769 78.352 151.417 78.7733 151.193 79.296C151.46 79.3387 151.721 79.376 151.977 79.408C152.244 79.4293 152.505 79.44 152.761 79.44C152.996 79.44 153.262 79.4187 153.561 79.376C153.87 79.3333 154.169 79.2693 154.457 79.184C154.756 79.0987 155.001 78.992 155.193 78.864C155.385 78.7253 155.481 78.5653 155.481 78.384C155.481 78.2987 155.438 78.192 155.353 78.064C155.268 77.936 155.113 77.8187 154.889 77.712C154.665 77.6053 154.34 77.552 153.913 77.552ZM164.449 85.328C163.723 85.328 163.051 85.2427 162.433 85.072C161.814 84.9013 161.254 84.6827 160.753 84.416C160.251 84.1493 159.803 83.8667 159.409 83.568L160.849 81.248C161.297 81.664 161.729 81.984 162.145 82.208C162.561 82.432 162.993 82.5867 163.441 82.672C163.899 82.7573 164.395 82.8 164.929 82.8C165.387 82.8 165.755 82.7413 166.033 82.624C166.31 82.496 166.449 82.336 166.449 82.144C166.449 81.984 166.315 81.8613 166.049 81.776C165.782 81.68 165.441 81.6 165.025 81.536C164.609 81.4613 164.171 81.3707 163.713 81.264C163.062 81.0933 162.454 80.896 161.889 80.672C161.323 80.448 160.865 80.144 160.513 79.76C160.171 79.376 160.001 78.864 160.001 78.224C160.001 77.712 160.123 77.264 160.369 76.88C160.614 76.4853 160.939 76.16 161.345 75.904C161.761 75.6373 162.23 75.44 162.753 75.312C163.275 75.184 163.814 75.12 164.369 75.12C165.329 75.12 166.155 75.2373 166.849 75.472C167.553 75.696 168.225 75.9947 168.865 76.368L167.409 78.576C167.089 78.352 166.721 78.16 166.305 78C165.899 77.8293 165.489 77.7013 165.073 77.616C164.667 77.52 164.289 77.472 163.937 77.472C163.553 77.472 163.249 77.5307 163.025 77.648C162.811 77.7653 162.705 77.9307 162.705 78.144C162.705 78.272 162.838 78.3947 163.105 78.512C163.382 78.6187 163.905 78.7627 164.673 78.944C165.131 79.0507 165.617 79.1627 166.129 79.28C166.641 79.3867 167.121 79.5413 167.569 79.744C168.027 79.936 168.395 80.2187 168.673 80.592C168.961 80.9547 169.105 81.44 169.105 82.048C169.105 83.072 168.694 83.872 167.873 84.448C167.051 85.0347 165.91 85.328 164.449 85.328ZM175.138 85.264C174.498 85.264 173.992 85.1253 173.618 84.848C173.245 84.5813 172.973 84.208 172.802 83.728C172.632 83.248 172.52 82.6987 172.466 82.08C172.424 81.4613 172.402 80.8107 172.402 80.128C172.402 79.424 172.429 78.6933 172.482 77.936C171.768 78.032 171.08 78.1547 170.418 78.304L169.922 75.792C170.808 75.5573 171.752 75.3867 172.754 75.28C172.829 74.736 172.909 74.1653 172.994 73.568C173.08 72.96 173.176 72.32 173.282 71.648L176.034 71.888C175.906 72.4427 175.794 72.9973 175.698 73.552C175.602 74.096 175.517 74.624 175.442 75.136C176.04 75.136 176.6 75.152 177.122 75.184C177.656 75.2053 178.146 75.248 178.594 75.312L178.274 77.824C177.901 77.7813 177.512 77.7547 177.106 77.744C176.712 77.7227 176.312 77.712 175.906 77.712C175.661 77.712 175.416 77.7173 175.17 77.728C175.106 78.5067 175.064 79.1733 175.042 79.728C175.032 80.2827 175.026 80.6773 175.026 80.912C175.026 81.4987 175.058 81.92 175.122 82.176C175.197 82.432 175.314 82.56 175.474 82.56C175.656 82.56 175.858 82.5013 176.082 82.384C176.306 82.256 176.525 82.0853 176.738 81.872C176.962 81.6587 177.149 81.4293 177.298 81.184L178.53 83.76C177.474 84.7627 176.344 85.264 175.138 85.264ZM55.3987 108.264L52.7107 108.024L53.3027 97.032C53.0254 97.096 52.7694 97.1707 52.5347 97.256L52.0547 94.536C52.62 94.4187 53.3187 94.296 54.1507 94.168C54.9827 94.04 55.8414 93.976 56.7267 93.976C57.4094 93.976 58.1027 94.0507 58.8067 94.2C59.5107 94.3387 60.1827 94.5733 60.8227 94.904C61.4734 95.224 62.0494 95.656 62.5507 96.2C63.0627 96.744 63.4627 97.4107 63.7507 98.2C64.0494 98.9893 64.1987 99.9227 64.1987 101C64.1987 102.515 63.9534 103.811 63.4627 104.888C62.9827 105.955 62.2787 106.771 61.3507 107.336C60.4334 107.901 59.324 108.184 58.0227 108.184C57.1587 108.184 56.3054 108.024 55.4627 107.704C55.4414 107.917 55.42 108.104 55.3987 108.264ZM56.6147 96.664C56.4654 96.664 56.3107 96.664 56.1507 96.664C56.044 98.648 55.948 100.339 55.8627 101.736C55.7774 103.123 55.7027 104.28 55.6387 105.208C55.9587 105.315 56.3107 105.411 56.6947 105.496C57.0894 105.571 57.5 105.608 57.9267 105.608C58.7907 105.608 59.484 105.389 60.0067 104.952C60.54 104.515 60.924 103.939 61.1587 103.224C61.3934 102.499 61.5107 101.715 61.5107 100.872C61.5107 100.2 61.4094 99.6293 61.2067 99.16C61.004 98.6907 60.7374 98.3013 60.4067 97.992C60.0867 97.6827 59.7347 97.4427 59.3507 97.272C58.9667 97.0907 58.588 96.9573 58.2147 96.872C57.852 96.7867 57.5267 96.7333 57.2387 96.712C56.9507 96.68 56.7427 96.664 56.6147 96.664ZM70.4047 108.28C69.3807 108.28 68.4794 108.077 67.7007 107.672C66.9327 107.277 66.33 106.723 65.8927 106.008C65.466 105.293 65.2527 104.467 65.2527 103.528C65.2527 102.963 65.3487 102.371 65.5407 101.752C65.7327 101.123 66.042 100.536 66.4687 99.992C66.8954 99.448 67.4554 99.0053 68.1487 98.664C68.8527 98.3227 69.706 98.152 70.7087 98.152C71.434 98.152 72.042 98.232 72.5327 98.392C73.034 98.552 73.4394 98.76 73.7487 99.016C74.0687 99.272 74.3087 99.544 74.4687 99.832C74.6394 100.12 74.7514 100.397 74.8047 100.664C74.8687 100.92 74.9007 101.133 74.9007 101.304C74.9007 102.339 74.4634 103.139 73.5887 103.704C72.7247 104.259 71.498 104.536 69.9087 104.536C69.546 104.536 69.1994 104.52 68.8687 104.488C68.5487 104.456 68.25 104.419 67.9727 104.376C68.1754 104.909 68.5114 105.304 68.9807 105.56C69.45 105.805 69.9354 105.928 70.4367 105.928C71.162 105.928 71.802 105.8 72.3567 105.544C72.9114 105.277 73.434 104.872 73.9247 104.328L75.3487 106.376C75.0074 106.653 74.6234 106.941 74.1967 107.24C73.7807 107.539 73.2687 107.784 72.6607 107.976C72.0527 108.179 71.3007 108.28 70.4047 108.28ZM70.7567 100.552C70.1274 100.552 69.5727 100.712 69.0927 101.032C68.6127 101.352 68.2607 101.773 68.0367 102.296C68.3034 102.339 68.5647 102.376 68.8207 102.408C69.0874 102.429 69.3487 102.44 69.6047 102.44C69.8394 102.44 70.106 102.419 70.4047 102.376C70.714 102.333 71.0127 102.269 71.3007 102.184C71.5994 102.099 71.8447 101.992 72.0367 101.864C72.2287 101.725 72.3247 101.565 72.3247 101.384C72.3247 101.299 72.282 101.192 72.1967 101.064C72.1114 100.936 71.9567 100.819 71.7327 100.712C71.5087 100.605 71.1834 100.552 70.7567 100.552ZM81.2923 108.328C80.567 108.328 79.895 108.243 79.2763 108.072C78.6576 107.901 78.0976 107.683 77.5963 107.416C77.095 107.149 76.647 106.867 76.2523 106.568L77.6923 104.248C78.1403 104.664 78.5723 104.984 78.9883 105.208C79.4043 105.432 79.8363 105.587 80.2843 105.672C80.743 105.757 81.239 105.8 81.7723 105.8C82.231 105.8 82.599 105.741 82.8763 105.624C83.1536 105.496 83.2923 105.336 83.2923 105.144C83.2923 104.984 83.159 104.861 82.8923 104.776C82.6256 104.68 82.2843 104.6 81.8683 104.536C81.4523 104.461 81.015 104.371 80.5563 104.264C79.9056 104.093 79.2976 103.896 78.7323 103.672C78.167 103.448 77.7083 103.144 77.3563 102.76C77.015 102.376 76.8443 101.864 76.8443 101.224C76.8443 100.712 76.967 100.264 77.2123 99.88C77.4576 99.4853 77.783 99.16 78.1883 98.904C78.6043 98.6373 79.0736 98.44 79.5963 98.312C80.119 98.184 80.6576 98.12 81.2123 98.12C82.1723 98.12 82.999 98.2373 83.6923 98.472C84.3963 98.696 85.0683 98.9947 85.7083 99.368L84.2523 101.576C83.9323 101.352 83.5643 101.16 83.1483 101C82.743 100.829 82.3323 100.701 81.9163 100.616C81.511 100.52 81.1323 100.472 80.7803 100.472C80.3963 100.472 80.0923 100.531 79.8683 100.648C79.655 100.765 79.5483 100.931 79.5483 101.144C79.5483 101.272 79.6816 101.395 79.9483 101.512C80.2256 101.619 80.7483 101.763 81.5163 101.944C81.975 102.051 82.4603 102.163 82.9723 102.28C83.4843 102.387 83.9643 102.541 84.4123 102.744C84.871 102.936 85.239 103.219 85.5163 103.592C85.8043 103.955 85.9483 104.44 85.9483 105.048C85.9483 106.072 85.5376 106.872 84.7163 107.448C83.895 108.035 82.7536 108.328 81.2923 108.328ZM87.1341 96.664C87.1341 96.568 87.1287 96.472 87.1181 96.376C87.1181 96.2693 87.1181 96.152 87.1181 96.024C87.1181 95.6827 87.1287 95.32 87.1501 94.936C87.1714 94.552 87.1927 94.2267 87.2141 93.96L90.0621 94.008C90.0301 94.3707 89.9927 94.7813 89.9501 95.24C89.9181 95.6987 89.8967 96.1733 89.8861 96.664H87.1341ZM87.0701 108.12C87.0381 107.459 87.0167 106.755 87.0061 106.008C86.9954 105.251 86.9901 104.493 86.9901 103.736C86.9901 102.744 87.0007 101.779 87.0221 100.84C87.0434 99.9013 87.0701 99.048 87.1021 98.28L89.8541 98.264C89.8114 98.7547 89.7847 99.3627 89.7741 100.088C89.7634 100.803 89.7581 101.555 89.7581 102.344C89.7581 103.123 89.7634 103.891 89.7741 104.648C89.7847 105.405 89.7954 106.093 89.8061 106.712C89.8274 107.32 89.8434 107.789 89.8541 108.12H87.0701ZM95.1128 107.08C94.4408 107.08 93.8701 106.979 93.4008 106.776C92.9315 106.573 92.5421 106.312 92.2328 105.992C91.9341 105.661 91.6995 105.309 91.5288 104.936C91.3581 104.552 91.2408 104.184 91.1768 103.832C91.1128 103.469 91.0808 103.155 91.0808 102.888C91.0808 102.376 91.1501 101.848 91.2888 101.304C91.4381 100.76 91.6835 100.253 92.0248 99.784C92.3768 99.3147 92.8515 98.936 93.4488 98.648C94.0568 98.36 94.8195 98.216 95.7368 98.216C96.0141 98.216 96.2701 98.2373 96.5048 98.28C96.7395 98.3227 96.9581 98.3813 97.1608 98.456V97.928H99.9288C99.9181 98.568 99.9075 99.2933 99.8968 100.104C99.8861 100.904 99.8808 101.811 99.8808 102.824C99.8808 103.347 99.8808 103.896 99.8808 104.472C99.8915 105.037 99.8968 105.656 99.8968 106.328C99.8968 107.245 99.7741 107.997 99.5288 108.584C99.2835 109.171 98.9688 109.624 98.5848 109.944C98.2008 110.264 97.8008 110.493 97.3848 110.632C96.9795 110.781 96.6008 110.867 96.2488 110.888C95.9075 110.92 95.6515 110.936 95.4808 110.936C95.0648 110.936 94.6061 110.888 94.1048 110.792C93.6035 110.707 93.1021 110.563 92.6008 110.36C92.0995 110.168 91.6408 109.917 91.2248 109.608L92.3928 107.176C92.6595 107.4 92.9261 107.603 93.1928 107.784C93.4595 107.976 93.7688 108.125 94.1208 108.232C94.4728 108.349 94.9101 108.408 95.4328 108.408C95.9661 108.408 96.3608 108.312 96.6168 108.12C96.8728 107.939 97.0381 107.693 97.1128 107.384C97.1981 107.085 97.2461 106.755 97.2568 106.392C96.8941 106.659 96.5261 106.84 96.1528 106.936C95.7795 107.032 95.4328 107.08 95.1128 107.08ZM93.4808 102.664C93.4808 103.272 93.6461 103.752 93.9768 104.104C94.3181 104.456 94.7821 104.632 95.3688 104.632C96.1901 104.632 96.8035 104.157 97.2088 103.208C97.2088 102.867 97.2035 102.52 97.1928 102.168C97.1928 101.805 97.1875 101.453 97.1768 101.112C96.7501 100.835 96.2595 100.696 95.7048 100.696C95.0221 100.696 94.4781 100.877 94.0728 101.24C93.6781 101.592 93.4808 102.067 93.4808 102.664ZM101.435 108.152C101.403 107.213 101.376 106.344 101.355 105.544C101.344 104.744 101.339 103.955 101.339 103.176C101.339 102.397 101.344 101.619 101.355 100.84C101.376 100.051 101.408 99.208 101.451 98.312H104.155C104.112 98.792 104.075 99.2773 104.043 99.768C104.406 99.3093 104.838 98.9307 105.339 98.632C105.84 98.3227 106.432 98.168 107.115 98.168C107.787 98.168 108.336 98.28 108.763 98.504C109.2 98.728 109.542 99.0373 109.787 99.432C110.043 99.8267 110.224 100.28 110.331 100.792C110.448 101.293 110.523 101.837 110.555 102.424C110.587 103 110.603 103.581 110.603 104.168C110.603 104.808 110.592 105.421 110.571 106.008C110.55 106.595 110.528 107.085 110.507 107.48C110.486 107.875 110.47 108.109 110.459 108.184H107.771C107.792 107.747 107.814 107.283 107.835 106.792C107.856 106.291 107.878 105.8 107.899 105.32C107.92 104.829 107.931 104.387 107.931 103.992C107.931 101.72 107.563 100.584 106.827 100.584C106.219 100.584 105.664 100.851 105.163 101.384C104.672 101.907 104.262 102.568 103.931 103.368C103.931 103.475 103.931 103.581 103.931 103.688C103.931 104.2 103.931 104.733 103.931 105.288C103.942 105.832 103.952 106.355 103.963 106.856C103.984 107.347 104 107.773 104.011 108.136L101.435 108.152ZM115.903 104.28L115.855 102.008C116.281 101.965 116.815 101.933 117.455 101.912C118.095 101.891 118.74 101.88 119.391 101.88C119.849 101.88 120.281 101.885 120.687 101.896C121.103 101.907 121.46 101.923 121.759 101.944L121.727 104.184C121.46 104.184 121.172 104.184 120.863 104.184C120.553 104.173 120.228 104.168 119.887 104.168C119.204 104.168 118.511 104.179 117.807 104.2C117.103 104.211 116.468 104.237 115.903 104.28ZM133.283 108.28C131.982 108.28 130.851 107.992 129.891 107.416C128.931 106.851 128.19 106.051 127.667 105.016C127.144 103.981 126.883 102.76 126.883 101.352C126.883 100.819 126.947 100.227 127.075 99.576C127.214 98.9147 127.432 98.2587 127.731 97.608C128.03 96.9467 128.43 96.344 128.931 95.8C129.432 95.256 130.046 94.8187 130.771 94.488C131.496 94.1467 132.35 93.976 133.331 93.976C134.174 93.976 134.91 94.0827 135.539 94.296C136.168 94.4987 136.712 94.76 137.171 95.08C137.63 95.3893 138.008 95.7147 138.307 96.056C138.616 96.3973 138.862 96.712 139.043 97C139.224 97.2773 139.358 97.48 139.443 97.608L137.123 99.384C136.888 98.9467 136.611 98.52 136.291 98.104C135.971 97.6773 135.576 97.3253 135.107 97.048C134.638 96.7707 134.056 96.632 133.363 96.632C132.648 96.632 132.056 96.792 131.587 97.112C131.118 97.432 130.744 97.8373 130.467 98.328C130.2 98.8187 130.014 99.3413 129.907 99.896C129.8 100.44 129.747 100.947 129.747 101.416C129.747 101.917 129.8 102.413 129.907 102.904C130.014 103.395 130.195 103.843 130.451 104.248C130.718 104.653 131.07 104.979 131.507 105.224C131.955 105.459 132.515 105.576 133.187 105.576C133.934 105.576 134.542 105.443 135.011 105.176C135.491 104.909 135.891 104.536 136.211 104.056C136.531 103.565 136.83 102.995 137.107 102.344L139.731 103.528C139.262 104.499 138.734 105.341 138.147 106.056C137.56 106.771 136.872 107.32 136.083 107.704C135.294 108.088 134.36 108.28 133.283 108.28ZM141.597 108.104C141.511 107.549 141.437 106.877 141.373 106.088C141.319 105.299 141.277 104.44 141.245 103.512C141.223 102.584 141.213 101.64 141.213 100.68C141.213 99.4747 141.234 98.3013 141.277 97.16C141.319 96.0187 141.383 95.016 141.469 94.152L144.413 94.2C144.295 94.9573 144.205 95.848 144.141 96.872C144.087 97.896 144.061 99.0587 144.061 100.36C144.061 101.683 144.082 103.011 144.125 104.344C144.178 105.677 144.237 106.899 144.301 108.008L141.597 108.104ZM150.717 108.184C150.643 107.256 150.589 106.355 150.557 105.48C150.536 104.605 150.525 103.779 150.525 103C150.525 101.709 150.552 100.552 150.605 99.528C150.659 98.4933 150.712 97.6027 150.765 96.856C149.848 96.9093 148.957 96.9787 148.093 97.064C147.229 97.1493 146.429 97.2613 145.693 97.4L145.725 94.728C146.973 94.504 148.253 94.344 149.565 94.248C150.877 94.1413 152.189 94.088 153.501 94.088C154.44 94.088 155.336 94.1093 156.189 94.152C157.053 94.1947 157.88 94.2587 158.669 94.344L158.653 97.112C157.907 96.9947 157.096 96.9147 156.221 96.872C155.357 96.8187 154.472 96.792 153.565 96.792C153.512 97.5173 153.464 98.328 153.421 99.224C153.379 100.109 153.357 101.059 153.357 102.072C153.357 102.979 153.379 103.933 153.421 104.936C153.475 105.939 153.539 106.995 153.613 108.104L150.717 108.184ZM159.994 108.168C159.962 107.112 159.946 106.099 159.946 105.128C159.946 103.379 160 101.795 160.106 100.376C160.213 98.9573 160.368 97.752 160.57 96.76C160.666 96.3013 160.8 95.8587 160.97 95.432C161.152 95.0053 161.402 94.6587 161.722 94.392C162.053 94.1147 162.485 93.976 163.018 93.976C163.541 93.976 163.984 94.1147 164.346 94.392C164.709 94.6587 165.002 94.984 165.226 95.368C165.461 95.752 165.632 96.12 165.738 96.472C166.016 97.304 166.25 98.136 166.442 98.968C166.634 99.8 166.805 100.595 166.954 101.352C167.061 100.797 167.184 100.216 167.322 99.608C167.461 98.9893 167.6 98.408 167.738 97.864C167.877 97.3093 168.005 96.8507 168.122 96.488C168.666 94.8133 169.504 93.976 170.634 93.976C171.264 93.976 171.797 94.2053 172.234 94.664C172.672 95.112 172.992 95.7627 173.194 96.616C173.29 97 173.386 97.56 173.482 98.296C173.589 99.032 173.685 99.9067 173.77 100.92C173.866 101.923 173.946 103.032 174.01 104.248C174.085 105.464 174.144 106.755 174.186 108.12L171.37 108.056C171.37 107.491 171.354 106.835 171.322 106.088C171.301 105.341 171.264 104.568 171.21 103.768C171.168 102.957 171.114 102.168 171.05 101.4C170.997 100.632 170.938 99.9387 170.874 99.32C170.821 98.7013 170.768 98.2107 170.714 97.848C170.661 97.4747 170.613 97.288 170.57 97.288C170.56 97.288 170.501 97.48 170.394 97.864C170.298 98.2373 170.176 98.7387 170.026 99.368C169.888 99.9973 169.733 100.691 169.562 101.448C169.392 102.205 169.221 102.968 169.05 103.736C168.89 104.493 168.746 105.197 168.618 105.848C168.49 106.488 168.389 107.011 168.314 107.416L165.802 107.48C165.674 106.883 165.52 106.227 165.338 105.512C165.168 104.787 164.986 104.051 164.794 103.304C164.613 102.547 164.432 101.821 164.25 101.128C164.069 100.424 163.898 99.7947 163.738 99.24C163.589 98.6853 163.466 98.248 163.37 97.928C163.274 97.5973 163.216 97.432 163.194 97.432C163.152 97.432 163.104 97.6667 163.05 98.136C163.008 98.5947 162.965 99.2187 162.922 100.008C162.88 100.797 162.842 101.688 162.81 102.68C162.789 103.672 162.778 104.696 162.778 105.752C162.778 106.253 162.778 106.712 162.778 107.128C162.789 107.544 162.8 107.885 162.81 108.152L159.994 108.168ZM73.2479 130.752C72.1385 130.752 71.2052 130.555 70.4479 130.16C69.6905 129.776 69.0825 129.264 68.6239 128.624C68.1759 127.984 67.8505 127.285 67.6479 126.528C67.4452 125.771 67.3439 125.019 67.3439 124.272C67.3439 123.387 67.4879 122.512 67.7759 121.648C68.0639 120.784 68.4959 120 69.0719 119.296C69.6585 118.592 70.3839 118.027 71.2479 117.6C72.1225 117.173 73.1412 116.96 74.3039 116.96C75.2852 116.96 76.1439 117.104 76.8799 117.392C77.6159 117.669 78.2452 118.011 78.7679 118.416C79.3012 118.811 79.7279 119.184 80.0479 119.536L78.0479 121.696C77.7492 121.344 77.4292 121.013 77.0879 120.704C76.7572 120.395 76.3625 120.144 75.9039 119.952C75.4452 119.76 74.8799 119.664 74.2079 119.664C73.4825 119.664 72.8585 119.797 72.3359 120.064C71.8132 120.32 71.3865 120.667 71.0559 121.104C70.7252 121.541 70.4799 122.032 70.3199 122.576C70.1705 123.12 70.0959 123.68 70.0959 124.256C70.0959 124.939 70.2079 125.568 70.4319 126.144C70.6665 126.72 71.0132 127.184 71.4719 127.536C71.9412 127.888 72.5225 128.064 73.2159 128.064C74.0692 128.064 74.7732 127.867 75.3279 127.472C75.8825 127.077 76.2665 126.512 76.4799 125.776C76.0212 125.808 75.5785 125.851 75.1519 125.904C74.7359 125.947 74.3625 125.995 74.0319 126.048L73.7599 123.456C74.3892 123.317 75.1145 123.216 75.9359 123.152C76.7679 123.077 77.5625 123.04 78.3199 123.04C79.3652 123.04 80.1492 123.104 80.6719 123.232L80.6079 125.856C80.3839 125.792 80.0265 125.744 79.5359 125.712C79.5359 125.947 79.5359 126.192 79.5359 126.448C79.5465 126.704 79.5519 126.965 79.5519 127.232C79.5519 127.968 79.5412 128.693 79.5199 129.408C79.4985 130.123 79.4772 130.693 79.4559 131.12L76.7199 131.056C76.7305 130.917 76.7465 130.704 76.7679 130.416C76.7999 130.128 76.8319 129.803 76.8639 129.44C76.5012 129.824 76.0265 130.139 75.4399 130.384C74.8639 130.629 74.1332 130.752 73.2479 130.752ZM86.159 131.264C85.359 131.264 84.6337 131.056 83.983 130.64C83.3323 130.235 82.815 129.685 82.431 128.992C82.0577 128.288 81.871 127.504 81.871 126.64C81.871 125.829 82.0203 125.099 82.319 124.448C82.6177 123.787 83.023 123.221 83.535 122.752C84.0577 122.283 84.6497 121.925 85.311 121.68C85.9723 121.424 86.6657 121.296 87.391 121.296C87.999 121.296 88.5963 121.381 89.183 121.552C89.2257 121.328 89.263 121.104 89.295 120.88L92.031 121.344C91.9563 121.547 91.8817 121.851 91.807 122.256C91.7323 122.661 91.6683 123.115 91.615 123.616C91.5723 124.117 91.535 124.619 91.503 125.12C91.471 125.621 91.455 126.075 91.455 126.48C91.455 126.811 91.4763 127.136 91.519 127.456C91.5723 127.765 91.679 128.021 91.839 128.224C91.999 128.416 92.2443 128.512 92.575 128.512H92.799L92.399 131.296C91.695 131.296 91.1137 131.173 90.655 130.928C90.1963 130.693 89.8283 130.373 89.551 129.968C89.0923 130.48 88.5697 130.821 87.983 130.992C87.3963 131.173 86.7883 131.264 86.159 131.264ZM84.495 126.96C84.5483 127.472 84.7563 127.883 85.119 128.192C85.4923 128.491 85.9617 128.64 86.527 128.64C87.071 128.64 87.5243 128.496 87.887 128.208C88.2497 127.909 88.5483 127.504 88.783 126.992C88.7723 126.821 88.767 126.645 88.767 126.464C88.767 126.091 88.7777 125.707 88.799 125.312C88.8203 124.917 88.847 124.528 88.879 124.144C88.431 123.973 87.9617 123.888 87.471 123.888C86.895 123.888 86.3777 124.005 85.919 124.24C85.471 124.464 85.119 124.779 84.863 125.184C84.607 125.589 84.479 126.059 84.479 126.592C84.479 126.656 84.479 126.72 84.479 126.784C84.479 126.848 84.4843 126.907 84.495 126.96ZM93.7993 131.248C93.7886 131.088 93.7779 130.821 93.7673 130.448C93.7566 130.085 93.7459 129.648 93.7353 129.136C93.7246 128.624 93.7193 128.075 93.7193 127.488C93.7193 126.891 93.7193 126.293 93.7193 125.696C93.7193 125.035 93.7193 124.405 93.7193 123.808C93.7299 123.211 93.7353 122.693 93.7353 122.256C93.7459 121.819 93.7513 121.504 93.7513 121.312L96.4553 121.264C96.4339 121.563 96.4179 121.925 96.4073 122.352C96.6846 121.979 97.0046 121.685 97.3673 121.472C97.7299 121.259 98.1459 121.152 98.6153 121.152C99.1806 121.152 99.6446 121.317 100.007 121.648C100.381 121.979 100.685 122.411 100.919 122.944C101.687 121.749 102.631 121.152 103.751 121.152C104.381 121.152 104.898 121.291 105.303 121.568C105.719 121.835 106.045 122.197 106.279 122.656C106.514 123.115 106.685 123.632 106.791 124.208C106.909 124.784 106.983 125.376 107.015 125.984C107.047 126.592 107.063 127.179 107.063 127.744C107.063 128.416 107.053 129.029 107.031 129.584C107.01 130.139 107.005 130.667 107.015 131.168H104.247C104.247 130.912 104.247 130.587 104.247 130.192C104.247 129.808 104.247 129.419 104.247 129.024C104.258 128.619 104.263 128.272 104.263 127.984C104.263 127.685 104.263 127.509 104.263 127.456C104.263 126.816 104.247 126.213 104.215 125.648C104.183 125.083 104.103 124.624 103.975 124.272C103.847 123.92 103.639 123.744 103.351 123.744C103.074 123.744 102.829 123.877 102.615 124.144C102.402 124.411 102.21 124.757 102.039 125.184C101.879 125.611 101.741 126.064 101.623 126.544C101.645 126.96 101.661 127.376 101.671 127.792C101.682 128.197 101.687 128.592 101.687 128.976C101.687 129.413 101.682 129.792 101.671 130.112C101.671 130.443 101.671 130.795 101.671 131.168H98.9833C98.9833 130.304 98.9779 129.541 98.9673 128.88C98.9566 128.219 98.9353 127.579 98.9033 126.96C98.8499 125.851 98.7326 125.04 98.5513 124.528C98.3806 124.005 98.1406 123.744 97.8313 123.744C97.4899 123.744 97.2019 123.952 96.9673 124.368C96.7326 124.773 96.5406 125.269 96.3913 125.856C96.4019 126.709 96.4233 127.6 96.4553 128.528C96.4873 129.456 96.5299 130.352 96.5833 131.216L93.7993 131.248ZM113.288 131.28C112.264 131.28 111.362 131.077 110.584 130.672C109.816 130.277 109.213 129.723 108.776 129.008C108.349 128.293 108.136 127.467 108.136 126.528C108.136 125.963 108.232 125.371 108.424 124.752C108.616 124.123 108.925 123.536 109.352 122.992C109.778 122.448 110.338 122.005 111.032 121.664C111.736 121.323 112.589 121.152 113.592 121.152C114.317 121.152 114.925 121.232 115.416 121.392C115.917 121.552 116.322 121.76 116.632 122.016C116.952 122.272 117.192 122.544 117.352 122.832C117.522 123.12 117.634 123.397 117.688 123.664C117.752 123.92 117.784 124.133 117.784 124.304C117.784 125.339 117.346 126.139 116.472 126.704C115.608 127.259 114.381 127.536 112.792 127.536C112.429 127.536 112.082 127.52 111.752 127.488C111.432 127.456 111.133 127.419 110.856 127.376C111.058 127.909 111.394 128.304 111.864 128.56C112.333 128.805 112.818 128.928 113.32 128.928C114.045 128.928 114.685 128.8 115.24 128.544C115.794 128.277 116.317 127.872 116.808 127.328L118.232 129.376C117.89 129.653 117.506 129.941 117.08 130.24C116.664 130.539 116.152 130.784 115.544 130.976C114.936 131.179 114.184 131.28 113.288 131.28ZM113.64 123.552C113.01 123.552 112.456 123.712 111.976 124.032C111.496 124.352 111.144 124.773 110.92 125.296C111.186 125.339 111.448 125.376 111.704 125.408C111.97 125.429 112.232 125.44 112.488 125.44C112.722 125.44 112.989 125.419 113.288 125.376C113.597 125.333 113.896 125.269 114.184 125.184C114.482 125.099 114.728 124.992 114.92 124.864C115.112 124.725 115.208 124.565 115.208 124.384C115.208 124.299 115.165 124.192 115.08 124.064C114.994 123.936 114.84 123.819 114.616 123.712C114.392 123.605 114.066 123.552 113.64 123.552ZM128.375 131.232C126.957 131.232 125.81 130.805 124.935 129.952C124.071 129.088 123.447 127.776 123.063 126.016L125.815 125.184C126.103 127.392 126.909 128.496 128.231 128.496C128.701 128.496 129.069 128.384 129.335 128.16C129.613 127.925 129.81 127.627 129.927 127.264C130.055 126.901 130.135 126.507 130.167 126.08C130.199 125.653 130.215 125.248 130.215 124.864C130.215 124.32 130.199 123.712 130.167 123.04C130.135 122.368 130.066 121.579 129.959 120.672C129.863 119.765 129.703 118.699 129.479 117.472L132.455 116.976C132.53 117.552 132.61 118.256 132.695 119.088C132.781 119.909 132.855 120.784 132.919 121.712C132.983 122.64 133.015 123.547 133.015 124.432C133.015 124.891 132.994 125.419 132.951 126.016C132.919 126.613 132.829 127.216 132.679 127.824C132.53 128.432 132.29 128.997 131.959 129.52C131.629 130.032 131.17 130.443 130.583 130.752C130.007 131.072 129.271 131.232 128.375 131.232ZM138.8 131.264C138 131.264 137.274 131.056 136.624 130.64C135.973 130.235 135.456 129.685 135.072 128.992C134.698 128.288 134.512 127.504 134.512 126.64C134.512 125.829 134.661 125.099 134.96 124.448C135.258 123.787 135.664 123.221 136.176 122.752C136.698 122.283 137.29 121.925 137.952 121.68C138.613 121.424 139.306 121.296 140.032 121.296C140.64 121.296 141.237 121.381 141.824 121.552C141.866 121.328 141.904 121.104 141.936 120.88L144.672 121.344C144.597 121.547 144.522 121.851 144.448 122.256C144.373 122.661 144.309 123.115 144.256 123.616C144.213 124.117 144.176 124.619 144.144 125.12C144.112 125.621 144.096 126.075 144.096 126.48C144.096 126.811 144.117 127.136 144.16 127.456C144.213 127.765 144.32 128.021 144.48 128.224C144.64 128.416 144.885 128.512 145.216 128.512H145.44L145.04 131.296C144.336 131.296 143.754 131.173 143.296 130.928C142.837 130.693 142.469 130.373 142.192 129.968C141.733 130.48 141.21 130.821 140.624 130.992C140.037 131.173 139.429 131.264 138.8 131.264ZM137.136 126.96C137.189 127.472 137.397 127.883 137.76 128.192C138.133 128.491 138.602 128.64 139.168 128.64C139.712 128.64 140.165 128.496 140.528 128.208C140.89 127.909 141.189 127.504 141.424 126.992C141.413 126.821 141.408 126.645 141.408 126.464C141.408 126.091 141.418 125.707 141.44 125.312C141.461 124.917 141.488 124.528 141.52 124.144C141.072 123.973 140.602 123.888 140.112 123.888C139.536 123.888 139.018 124.005 138.56 124.24C138.112 124.464 137.76 124.779 137.504 125.184C137.248 125.589 137.12 126.059 137.12 126.592C137.12 126.656 137.12 126.72 137.12 126.784C137.12 126.848 137.125 126.907 137.136 126.96ZM146.44 131.248C146.429 131.088 146.419 130.821 146.408 130.448C146.397 130.085 146.387 129.648 146.376 129.136C146.365 128.624 146.36 128.075 146.36 127.488C146.36 126.891 146.36 126.293 146.36 125.696C146.36 125.035 146.36 124.405 146.36 123.808C146.371 123.211 146.376 122.693 146.376 122.256C146.387 121.819 146.392 121.504 146.392 121.312L149.096 121.264C149.075 121.563 149.059 121.925 149.048 122.352C149.325 121.979 149.645 121.685 150.008 121.472C150.371 121.259 150.787 121.152 151.256 121.152C151.821 121.152 152.285 121.317 152.648 121.648C153.021 121.979 153.325 122.411 153.56 122.944C154.328 121.749 155.272 121.152 156.392 121.152C157.021 121.152 157.539 121.291 157.944 121.568C158.36 121.835 158.685 122.197 158.92 122.656C159.155 123.115 159.325 123.632 159.432 124.208C159.549 124.784 159.624 125.376 159.656 125.984C159.688 126.592 159.704 127.179 159.704 127.744C159.704 128.416 159.693 129.029 159.672 129.584C159.651 130.139 159.645 130.667 159.656 131.168H156.888C156.888 130.912 156.888 130.587 156.888 130.192C156.888 129.808 156.888 129.419 156.888 129.024C156.899 128.619 156.904 128.272 156.904 127.984C156.904 127.685 156.904 127.509 156.904 127.456C156.904 126.816 156.888 126.213 156.856 125.648C156.824 125.083 156.744 124.624 156.616 124.272C156.488 123.92 156.28 123.744 155.992 123.744C155.715 123.744 155.469 123.877 155.256 124.144C155.043 124.411 154.851 124.757 154.68 125.184C154.52 125.611 154.381 126.064 154.264 126.544C154.285 126.96 154.301 127.376 154.312 127.792C154.323 128.197 154.328 128.592 154.328 128.976C154.328 129.413 154.323 129.792 154.312 130.112C154.312 130.443 154.312 130.795 154.312 131.168H151.624C151.624 130.304 151.619 129.541 151.608 128.88C151.597 128.219 151.576 127.579 151.544 126.96C151.491 125.851 151.373 125.04 151.192 124.528C151.021 124.005 150.781 123.744 150.472 123.744C150.131 123.744 149.843 123.952 149.608 124.368C149.373 124.773 149.181 125.269 149.032 125.856C149.043 126.709 149.064 127.6 149.096 128.528C149.128 129.456 149.171 130.352 149.224 131.216L146.44 131.248ZM91.0219 154.216C90.9152 153.8 90.7979 153.373 90.6699 152.936C90.5525 152.499 90.4459 152.115 90.3499 151.784C91.5339 151.123 92.5632 150.408 93.4379 149.64C94.3232 148.872 95.0485 148.109 95.6139 147.352C96.1899 146.595 96.6165 145.907 96.8939 145.288C97.1819 144.669 97.3259 144.184 97.3259 143.832C97.3259 143.427 97.1872 143.112 96.9099 142.888C96.6432 142.653 96.2805 142.536 95.8219 142.536C95.1925 142.536 94.5525 142.76 93.9019 143.208C93.2619 143.656 92.6645 144.291 92.1099 145.112L90.4299 143.096C90.9099 142.52 91.4165 142.003 91.9499 141.544C92.4939 141.085 93.0752 140.723 93.6939 140.456C94.3125 140.179 94.9739 140.04 95.6779 140.04C96.4459 140.04 97.1499 140.173 97.7899 140.44C98.4299 140.707 98.9419 141.107 99.3259 141.64C99.7099 142.173 99.9019 142.835 99.9019 143.624C99.9019 144.371 99.7099 145.181 99.3259 146.056C98.9419 146.92 98.4085 147.789 97.7259 148.664C97.0432 149.528 96.2645 150.333 95.3899 151.08C95.7419 151.069 96.0992 151.064 96.4619 151.064C97.1659 151.064 97.8112 151.107 98.3979 151.192C98.9845 151.267 99.5925 151.384 100.222 151.544L99.6939 154.008C99.1712 153.88 98.6165 153.773 98.0299 153.688C97.4432 153.603 96.7712 153.56 96.0139 153.56C95.1179 153.56 94.2272 153.608 93.3419 153.704C92.4565 153.811 91.6832 153.981 91.0219 154.216ZM107.044 154.248C106.233 154.248 105.508 154.056 104.868 153.672C104.228 153.299 103.684 152.787 103.236 152.136C102.798 151.485 102.462 150.749 102.228 149.928C101.993 149.107 101.876 148.253 101.876 147.368C101.876 146.312 102.02 145.32 102.308 144.392C102.606 143.453 103.033 142.616 103.588 141.88C104.142 141.144 104.809 140.536 105.588 140.056L105.812 140.536C106.334 140.269 106.9 140.136 107.508 140.136C108.382 140.136 109.145 140.328 109.796 140.712C110.457 141.085 111.001 141.597 111.428 142.248C111.865 142.888 112.19 143.608 112.404 144.408C112.628 145.208 112.74 146.035 112.74 146.888C112.74 148.157 112.574 149.256 112.244 150.184C111.924 151.112 111.492 151.875 110.948 152.472C110.404 153.069 109.79 153.512 109.108 153.8C108.436 154.099 107.748 154.248 107.044 154.248ZM104.5 147.512C104.5 147.896 104.537 148.328 104.612 148.808C104.697 149.288 104.841 149.747 105.044 150.184C105.246 150.611 105.518 150.968 105.86 151.256C106.212 151.533 106.66 151.672 107.204 151.672C107.79 151.672 108.302 151.475 108.74 151.08C109.177 150.675 109.518 150.115 109.764 149.4C110.02 148.685 110.148 147.859 110.148 146.92C110.148 145.981 110.004 145.213 109.716 144.616C109.438 144.008 109.086 143.56 108.66 143.272C108.244 142.973 107.822 142.824 107.396 142.824C107.172 142.824 106.958 142.888 106.756 143.016C106.553 143.144 106.393 143.315 106.276 143.528L106.052 143.048C105.55 143.549 105.193 144.056 104.98 144.568C104.766 145.08 104.633 145.587 104.58 146.088C104.526 146.579 104.5 147.053 104.5 147.512ZM115.022 154.216C114.915 153.8 114.798 153.373 114.67 152.936C114.553 152.499 114.446 152.115 114.35 151.784C115.534 151.123 116.563 150.408 117.438 149.64C118.323 148.872 119.049 148.109 119.614 147.352C120.19 146.595 120.617 145.907 120.894 145.288C121.182 144.669 121.326 144.184 121.326 143.832C121.326 143.427 121.187 143.112 120.91 142.888C120.643 142.653 120.281 142.536 119.822 142.536C119.193 142.536 118.553 142.76 117.902 143.208C117.262 143.656 116.665 144.291 116.11 145.112L114.43 143.096C114.91 142.52 115.417 142.003 115.95 141.544C116.494 141.085 117.075 140.723 117.694 140.456C118.313 140.179 118.974 140.04 119.678 140.04C120.446 140.04 121.15 140.173 121.79 140.44C122.43 140.707 122.942 141.107 123.326 141.64C123.71 142.173 123.902 142.835 123.902 143.624C123.902 144.371 123.71 145.181 123.326 146.056C122.942 146.92 122.409 147.789 121.726 148.664C121.043 149.528 120.265 150.333 119.39 151.08C119.742 151.069 120.099 151.064 120.462 151.064C121.166 151.064 121.811 151.107 122.398 151.192C122.985 151.267 123.593 151.384 124.222 151.544L123.694 154.008C123.171 153.88 122.617 153.773 122.03 153.688C121.443 153.603 120.771 153.56 120.014 153.56C119.118 153.56 118.227 153.608 117.342 153.704C116.457 153.811 115.683 153.981 115.022 154.216ZM129.604 148.552L126.98 148.392C127.033 147.795 127.102 147.149 127.188 146.456C127.273 145.752 127.358 145.037 127.444 144.312C127.54 143.576 127.636 142.856 127.732 142.152C127.828 141.448 127.918 140.797 128.004 140.2L130.644 140.264C130.622 140.371 130.601 140.488 130.58 140.616C131.092 140.584 131.636 140.557 132.212 140.536C132.788 140.504 133.348 140.483 133.892 140.472C134.436 140.461 134.91 140.456 135.316 140.456C135.518 140.456 135.7 140.461 135.86 140.472C136.02 140.472 136.148 140.472 136.244 140.472L136.116 143.096C135.913 143.085 135.705 143.08 135.492 143.08C135.278 143.08 135.049 143.08 134.804 143.08C134.078 143.08 133.316 143.096 132.516 143.128C131.716 143.16 130.942 143.208 130.196 143.272C130.153 143.613 130.11 143.96 130.068 144.312C130.036 144.664 129.998 145.011 129.956 145.352C130.34 145.16 130.729 145.032 131.124 144.968C131.529 144.904 131.913 144.872 132.276 144.872C133.15 144.872 133.913 145.053 134.564 145.416C135.225 145.768 135.737 146.264 136.1 146.904C136.462 147.544 136.644 148.291 136.644 149.144C136.644 150.2 136.43 151.112 136.004 151.88C135.588 152.637 134.985 153.219 134.196 153.624C133.417 154.04 132.484 154.248 131.396 154.248C130.393 154.248 129.428 154.019 128.5 153.56C127.582 153.112 126.836 152.493 126.26 151.704L128.036 149.768C129.092 151.016 130.217 151.64 131.412 151.64C132.265 151.64 132.916 151.427 133.364 151C133.812 150.573 134.036 149.971 134.036 149.192C134.036 148.573 133.854 148.099 133.492 147.768C133.129 147.437 132.606 147.272 131.924 147.272C131.348 147.272 130.9 147.357 130.58 147.528C130.26 147.699 130.025 147.885 129.876 148.088C129.737 148.291 129.646 148.445 129.604 148.552Z" fill="white"/>
</svg>
