<svg width="228" height="223" viewBox="0 0 228 223" fill="none" xmlns="http://www.w3.org/2000/svg">
<path d="M49.1431 85.104C49.1324 85.0187 49.1217 84.9067 49.1111 84.768C49.1111 84.6293 49.1111 84.4693 49.1111 84.288C49.1111 83.8507 49.1217 83.3173 49.1431 82.688C49.1751 82.048 49.2124 81.3547 49.2551 80.608C49.2977 79.8507 49.3457 79.088 49.3991 78.32C49.4524 77.5413 49.5057 76.7947 49.5591 76.08C49.6231 75.3547 49.6817 74.7093 49.7351 74.144C49.5644 74.1653 49.3991 74.1867 49.2391 74.208L48.8871 71.488C49.9964 71.3387 51.1751 71.232 52.4231 71.168C53.6817 71.104 54.9084 71.072 56.1031 71.072C56.9991 71.072 57.8577 71.0933 58.6791 71.136C59.5111 71.168 60.2577 71.216 60.9191 71.28L60.6791 73.936C60.1884 73.84 59.6284 73.776 58.9991 73.744C58.3697 73.7013 57.6924 73.68 56.9671 73.68C56.2204 73.68 55.4471 73.7013 54.6471 73.744C53.8577 73.776 53.0897 73.8187 52.3431 73.872C52.3004 74.2987 52.2577 74.7413 52.2151 75.2C52.1831 75.6587 52.1511 76.1333 52.1191 76.624C52.6737 76.5493 53.2871 76.496 53.9591 76.464C54.6417 76.432 55.3191 76.416 55.9911 76.416C56.7591 76.416 57.4791 76.4373 58.1511 76.48C58.8337 76.5227 59.3564 76.5973 59.7191 76.704L59.5271 79.28C58.7804 79.1947 58.0817 79.136 57.4311 79.104C56.7804 79.0613 56.1457 79.04 55.5271 79.04C54.3217 79.04 53.1324 79.12 51.9591 79.28C51.8951 80.4 51.8417 81.4667 51.7991 82.48C51.7671 83.4933 51.7404 84.3467 51.7191 85.04L49.1431 85.104ZM62.2122 73.664C62.2122 73.568 62.2069 73.472 62.1962 73.376C62.1962 73.2693 62.1962 73.152 62.1962 73.024C62.1962 72.6827 62.2069 72.32 62.2282 71.936C62.2495 71.552 62.2709 71.2267 62.2922 70.96L65.1402 71.008C65.1082 71.3707 65.0709 71.7813 65.0282 72.24C64.9962 72.6987 64.9749 73.1733 64.9642 73.664H62.2122ZM62.1482 85.12C62.1162 84.4587 62.0949 83.7547 62.0842 83.008C62.0735 82.2507 62.0682 81.4933 62.0682 80.736C62.0682 79.744 62.0789 78.7787 62.1002 77.84C62.1215 76.9013 62.1482 76.048 62.1802 75.28L64.9322 75.264C64.8895 75.7547 64.8629 76.3627 64.8522 77.088C64.8415 77.8027 64.8362 78.5547 64.8362 79.344C64.8362 80.1227 64.8415 80.8907 64.8522 81.648C64.8629 82.4053 64.8735 83.0933 64.8842 83.712C64.9055 84.32 64.9215 84.7893 64.9322 85.12H62.1482ZM66.6069 85.152C66.5749 84.2133 66.5483 83.344 66.5269 82.544C66.5163 81.744 66.5109 80.9547 66.5109 80.176C66.5109 79.3973 66.5163 78.6187 66.5269 77.84C66.5483 77.0507 66.5803 76.208 66.6229 75.312H69.3269C69.2843 75.792 69.2469 76.2773 69.2149 76.768C69.5776 76.3093 70.0096 75.9307 70.5109 75.632C71.0123 75.3227 71.6043 75.168 72.2869 75.168C72.9589 75.168 73.5083 75.28 73.9349 75.504C74.3723 75.728 74.7136 76.0373 74.9589 76.432C75.2149 76.8267 75.3963 77.28 75.5029 77.792C75.6203 78.2933 75.6949 78.8373 75.7269 79.424C75.7589 80 75.7749 80.5813 75.7749 81.168C75.7749 81.808 75.7643 82.4213 75.7429 83.008C75.7216 83.5947 75.7003 84.0853 75.6789 84.48C75.6576 84.8747 75.6416 85.1093 75.6309 85.184H72.9429C72.9643 84.7467 72.9856 84.2827 73.0069 83.792C73.0283 83.2907 73.0496 82.8 73.0709 82.32C73.0923 81.8293 73.1029 81.3867 73.1029 80.992C73.1029 78.72 72.7349 77.584 71.9989 77.584C71.3909 77.584 70.8363 77.8507 70.3349 78.384C69.8443 78.9067 69.4336 79.568 69.1029 80.368C69.1029 80.4747 69.1029 80.5813 69.1029 80.688C69.1029 81.2 69.1029 81.7333 69.1029 82.288C69.1136 82.832 69.1243 83.3547 69.1349 83.856C69.1563 84.3467 69.1723 84.7733 69.1829 85.136L66.6069 85.152ZM81.3543 85.264C80.5543 85.264 79.829 85.056 79.1783 84.64C78.5276 84.2347 78.0103 83.6853 77.6263 82.992C77.253 82.288 77.0663 81.504 77.0663 80.64C77.0663 79.8293 77.2156 79.0987 77.5143 78.448C77.813 77.7867 78.2183 77.2213 78.7303 76.752C79.253 76.2827 79.845 75.9253 80.5063 75.68C81.1676 75.424 81.861 75.296 82.5863 75.296C83.1943 75.296 83.7916 75.3813 84.3783 75.552C84.421 75.328 84.4583 75.104 84.4903 74.88L87.2263 75.344C87.1516 75.5467 87.077 75.8507 87.0023 76.256C86.9276 76.6613 86.8636 77.1147 86.8103 77.616C86.7676 78.1173 86.7303 78.6187 86.6983 79.12C86.6663 79.6213 86.6503 80.0747 86.6503 80.48C86.6503 80.8107 86.6716 81.136 86.7143 81.456C86.7676 81.7653 86.8743 82.0213 87.0343 82.224C87.1943 82.416 87.4396 82.512 87.7703 82.512H87.9943L87.5943 85.296C86.8903 85.296 86.309 85.1733 85.8503 84.928C85.3916 84.6933 85.0236 84.3733 84.7463 83.968C84.2876 84.48 83.765 84.8213 83.1783 84.992C82.5916 85.1733 81.9836 85.264 81.3543 85.264ZM79.6903 80.96C79.7436 81.472 79.9516 81.8827 80.3143 82.192C80.6876 82.4907 81.157 82.64 81.7223 82.64C82.2663 82.64 82.7196 82.496 83.0823 82.208C83.445 81.9093 83.7436 81.504 83.9783 80.992C83.9676 80.8213 83.9623 80.6453 83.9623 80.464C83.9623 80.0907 83.973 79.7067 83.9943 79.312C84.0156 78.9173 84.0423 78.528 84.0743 78.144C83.6263 77.9733 83.157 77.888 82.6663 77.888C82.0903 77.888 81.573 78.0053 81.1143 78.24C80.6663 78.464 80.3143 78.7787 80.0583 79.184C79.8023 79.5893 79.6743 80.0587 79.6743 80.592C79.6743 80.656 79.6743 80.72 79.6743 80.784C79.6743 80.848 79.6796 80.9067 79.6903 80.96ZM92.1146 85.264C91.5279 85.264 91.0426 85.136 90.6586 84.88C90.2852 84.6347 89.9866 84.2933 89.7626 83.856C89.5492 83.4187 89.3892 82.9173 89.2826 82.352C89.1866 81.7867 89.1226 81.184 89.0906 80.544C89.0692 79.8933 89.0586 79.2427 89.0586 78.592C89.0586 78.0267 89.0746 77.408 89.1066 76.736C89.1386 76.0533 89.1759 75.3653 89.2186 74.672C89.2719 73.968 89.3252 73.3067 89.3786 72.688C89.4426 72.0693 89.5012 71.5307 89.5546 71.072L92.4506 71.104C92.3652 71.648 92.2852 72.2667 92.2106 72.96C92.1359 73.6427 92.0719 74.336 92.0186 75.04C91.9759 75.744 91.9386 76.3947 91.9066 76.992C91.8852 77.5893 91.8746 78.064 91.8746 78.416C91.8746 79.3867 91.8906 80.1493 91.9226 80.704C91.9652 81.2587 92.0239 81.6533 92.0986 81.888C92.1839 82.112 92.2959 82.224 92.4346 82.224C92.6159 82.224 92.8132 82.112 93.0266 81.888C93.2399 81.6533 93.4479 81.392 93.6506 81.104L95.0106 83.808C94.6799 84.1707 94.2852 84.5013 93.8266 84.8C93.3679 85.1093 92.7972 85.264 92.1146 85.264ZM96.3372 73.664C96.3372 73.568 96.3319 73.472 96.3212 73.376C96.3212 73.2693 96.3212 73.152 96.3212 73.024C96.3212 72.6827 96.3319 72.32 96.3532 71.936C96.3745 71.552 96.3959 71.2267 96.4172 70.96L99.2652 71.008C99.2332 71.3707 99.1959 71.7813 99.1532 72.24C99.1212 72.6987 99.0999 73.1733 99.0892 73.664H96.3372ZM96.2732 85.12C96.2412 84.4587 96.2199 83.7547 96.2092 83.008C96.1985 82.2507 96.1932 81.4933 96.1932 80.736C96.1932 79.744 96.2039 78.7787 96.2252 77.84C96.2465 76.9013 96.2732 76.048 96.3052 75.28L99.0572 75.264C99.0145 75.7547 98.9879 76.3627 98.9772 77.088C98.9665 77.8027 98.9612 78.5547 98.9612 79.344C98.9612 80.1227 98.9665 80.8907 98.9772 81.648C98.9879 82.4053 98.9985 83.0933 99.0092 83.712C99.0305 84.32 99.0465 84.7893 99.0572 85.12H96.2732ZM105.308 85.328C104.583 85.328 103.911 85.2427 103.292 85.072C102.673 84.9013 102.113 84.6827 101.612 84.416C101.111 84.1493 100.663 83.8667 100.268 83.568L101.708 81.248C102.156 81.664 102.588 81.984 103.004 82.208C103.42 82.432 103.852 82.5867 104.3 82.672C104.759 82.7573 105.255 82.8 105.788 82.8C106.247 82.8 106.615 82.7413 106.892 82.624C107.169 82.496 107.308 82.336 107.308 82.144C107.308 81.984 107.175 81.8613 106.908 81.776C106.641 81.68 106.3 81.6 105.884 81.536C105.468 81.4613 105.031 81.3707 104.572 81.264C103.921 81.0933 103.313 80.896 102.748 80.672C102.183 80.448 101.724 80.144 101.372 79.76C101.031 79.376 100.86 78.864 100.86 78.224C100.86 77.712 100.983 77.264 101.228 76.88C101.473 76.4853 101.799 76.16 102.204 75.904C102.62 75.6373 103.089 75.44 103.612 75.312C104.135 75.184 104.673 75.12 105.228 75.12C106.188 75.12 107.015 75.2373 107.708 75.472C108.412 75.696 109.084 75.9947 109.724 76.368L108.268 78.576C107.948 78.352 107.58 78.16 107.164 78C106.759 77.8293 106.348 77.7013 105.932 77.616C105.527 77.52 105.148 77.472 104.796 77.472C104.412 77.472 104.108 77.5307 103.884 77.648C103.671 77.7653 103.564 77.9307 103.564 78.144C103.564 78.272 103.697 78.3947 103.964 78.512C104.241 78.6187 104.764 78.7627 105.532 78.944C105.991 79.0507 106.476 79.1627 106.988 79.28C107.5 79.3867 107.98 79.5413 108.428 79.744C108.887 79.936 109.255 80.2187 109.532 80.592C109.82 80.9547 109.964 81.44 109.964 82.048C109.964 83.072 109.553 83.872 108.732 84.448C107.911 85.0347 106.769 85.328 105.308 85.328ZM115.998 85.264C115.358 85.264 114.851 85.1253 114.478 84.848C114.104 84.5813 113.832 84.208 113.662 83.728C113.491 83.248 113.379 82.6987 113.326 82.08C113.283 81.4613 113.262 80.8107 113.262 80.128C113.262 79.424 113.288 78.6933 113.342 77.936C112.627 78.032 111.939 78.1547 111.278 78.304L110.782 75.792C111.667 75.5573 112.611 75.3867 113.614 75.28C113.688 74.736 113.768 74.1653 113.854 73.568C113.939 72.96 114.035 72.32 114.142 71.648L116.894 71.888C116.766 72.4427 116.654 72.9973 116.558 73.552C116.462 74.096 116.376 74.624 116.302 75.136C116.899 75.136 117.459 75.152 117.982 75.184C118.515 75.2053 119.006 75.248 119.454 75.312L119.134 77.824C118.76 77.7813 118.371 77.7547 117.966 77.744C117.571 77.7227 117.171 77.712 116.766 77.712C116.52 77.712 116.275 77.7173 116.03 77.728C115.966 78.5067 115.923 79.1733 115.902 79.728C115.891 80.2827 115.886 80.6773 115.886 80.912C115.886 81.4987 115.918 81.92 115.982 82.176C116.056 82.432 116.174 82.56 116.334 82.56C116.515 82.56 116.718 82.5013 116.942 82.384C117.166 82.256 117.384 82.0853 117.598 81.872C117.822 81.6587 118.008 81.4293 118.158 81.184L119.39 83.76C118.334 84.7627 117.203 85.264 115.998 85.264ZM124.325 81.28L124.277 79.008C124.703 78.9653 125.237 78.9333 125.877 78.912C126.517 78.8907 127.162 78.88 127.813 78.88C128.271 78.88 128.703 78.8853 129.109 78.896C129.525 78.9067 129.882 78.9227 130.181 78.944L130.149 81.184C129.882 81.184 129.594 81.184 129.285 81.184C128.975 81.1733 128.65 81.168 128.309 81.168C127.626 81.168 126.933 81.1787 126.229 81.2C125.525 81.2107 124.89 81.2373 124.325 81.28ZM136.009 85.104C135.998 84.9867 135.993 84.8587 135.993 84.72C135.993 84.5813 135.993 84.4213 135.993 84.24C135.993 83.7813 136.003 83.2373 136.025 82.608C136.046 81.968 136.078 81.2907 136.121 80.576C136.163 79.8507 136.206 79.1253 136.249 78.4C136.291 77.664 136.334 76.96 136.377 76.288C136.43 75.616 136.478 75.0133 136.521 74.48C136.286 74.5547 136.078 74.624 135.897 74.688L135.481 72C136.686 71.6587 137.806 71.4027 138.841 71.232C139.886 71.0613 140.83 70.976 141.673 70.976C143.39 70.976 144.702 71.3013 145.609 71.952C146.515 72.6027 146.969 73.5467 146.969 74.784C146.969 75.488 146.814 76.08 146.505 76.56C146.195 77.0293 145.758 77.4187 145.193 77.728C146.579 78.432 147.273 79.5787 147.273 81.168C147.273 81.872 147.139 82.464 146.873 82.944C146.617 83.4133 146.286 83.792 145.881 84.08C145.475 84.368 145.043 84.5813 144.585 84.72C144.137 84.8693 143.71 84.9653 143.305 85.008C142.91 85.0613 142.601 85.088 142.377 85.088C141.822 85.088 141.23 85.0347 140.601 84.928C139.971 84.8213 139.358 84.6613 138.761 84.448C138.761 84.6613 138.761 84.864 138.761 85.056L136.009 85.104ZM141.737 73.648C141.353 73.648 140.947 73.6693 140.521 73.712C140.105 73.744 139.689 73.7973 139.273 73.872C139.209 74.6507 139.145 75.5573 139.081 76.592C139.219 76.6027 139.358 76.608 139.497 76.608C139.646 76.608 139.795 76.608 139.945 76.608C142.761 76.608 144.169 76.032 144.169 74.88C144.169 74.496 143.95 74.1973 143.513 73.984C143.086 73.76 142.494 73.648 141.737 73.648ZM140.313 79.136C140.089 79.136 139.859 79.136 139.625 79.136C139.401 79.136 139.171 79.1413 138.937 79.152C138.915 79.6213 138.894 80.0907 138.873 80.56C138.862 81.0293 138.846 81.4933 138.825 81.952C139.422 82.1333 140.009 82.2667 140.585 82.352C141.161 82.4267 141.657 82.464 142.073 82.464C142.958 82.464 143.593 82.3573 143.977 82.144C144.361 81.92 144.553 81.5573 144.553 81.056C144.553 80.4373 144.185 79.9627 143.449 79.632C142.723 79.3013 141.678 79.136 140.313 79.136ZM153.561 85.28C152.537 85.28 151.636 85.0773 150.857 84.672C150.089 84.2773 149.486 83.7227 149.049 83.008C148.622 82.2933 148.409 81.4667 148.409 80.528C148.409 79.9627 148.505 79.3707 148.697 78.752C148.889 78.1227 149.198 77.536 149.625 76.992C150.052 76.448 150.612 76.0053 151.305 75.664C152.009 75.3227 152.862 75.152 153.865 75.152C154.59 75.152 155.198 75.232 155.689 75.392C156.19 75.552 156.596 75.76 156.905 76.016C157.225 76.272 157.465 76.544 157.625 76.832C157.796 77.12 157.908 77.3973 157.961 77.664C158.025 77.92 158.057 78.1333 158.057 78.304C158.057 79.3387 157.62 80.1387 156.745 80.704C155.881 81.2587 154.654 81.536 153.065 81.536C152.702 81.536 152.356 81.52 152.025 81.488C151.705 81.456 151.406 81.4187 151.129 81.376C151.332 81.9093 151.668 82.304 152.137 82.56C152.606 82.8053 153.092 82.928 153.593 82.928C154.318 82.928 154.958 82.8 155.513 82.544C156.068 82.2773 156.59 81.872 157.081 81.328L158.505 83.376C158.164 83.6533 157.78 83.9413 157.353 84.24C156.937 84.5387 156.425 84.784 155.817 84.976C155.209 85.1787 154.457 85.28 153.561 85.28ZM153.913 77.552C153.284 77.552 152.729 77.712 152.249 78.032C151.769 78.352 151.417 78.7733 151.193 79.296C151.46 79.3387 151.721 79.376 151.977 79.408C152.244 79.4293 152.505 79.44 152.761 79.44C152.996 79.44 153.262 79.4187 153.561 79.376C153.87 79.3333 154.169 79.2693 154.457 79.184C154.756 79.0987 155.001 78.992 155.193 78.864C155.385 78.7253 155.481 78.5653 155.481 78.384C155.481 78.2987 155.438 78.192 155.353 78.064C155.268 77.936 155.113 77.8187 154.889 77.712C154.665 77.6053 154.34 77.552 153.913 77.552ZM164.449 85.328C163.723 85.328 163.051 85.2427 162.433 85.072C161.814 84.9013 161.254 84.6827 160.753 84.416C160.251 84.1493 159.803 83.8667 159.409 83.568L160.849 81.248C161.297 81.664 161.729 81.984 162.145 82.208C162.561 82.432 162.993 82.5867 163.441 82.672C163.899 82.7573 164.395 82.8 164.929 82.8C165.387 82.8 165.755 82.7413 166.033 82.624C166.31 82.496 166.449 82.336 166.449 82.144C166.449 81.984 166.315 81.8613 166.049 81.776C165.782 81.68 165.441 81.6 165.025 81.536C164.609 81.4613 164.171 81.3707 163.713 81.264C163.062 81.0933 162.454 80.896 161.889 80.672C161.323 80.448 160.865 80.144 160.513 79.76C160.171 79.376 160.001 78.864 160.001 78.224C160.001 77.712 160.123 77.264 160.369 76.88C160.614 76.4853 160.939 76.16 161.345 75.904C161.761 75.6373 162.23 75.44 162.753 75.312C163.275 75.184 163.814 75.12 164.369 75.12C165.329 75.12 166.155 75.2373 166.849 75.472C167.553 75.696 168.225 75.9947 168.865 76.368L167.409 78.576C167.089 78.352 166.721 78.16 166.305 78C165.899 77.8293 165.489 77.7013 165.073 77.616C164.667 77.52 164.289 77.472 163.937 77.472C163.553 77.472 163.249 77.5307 163.025 77.648C162.811 77.7653 162.705 77.9307 162.705 78.144C162.705 78.272 162.838 78.3947 163.105 78.512C163.382 78.6187 163.905 78.7627 164.673 78.944C165.131 79.0507 165.617 79.1627 166.129 79.28C166.641 79.3867 167.121 79.5413 167.569 79.744C168.027 79.936 168.395 80.2187 168.673 80.592C168.961 80.9547 169.105 81.44 169.105 82.048C169.105 83.072 168.694 83.872 167.873 84.448C167.051 85.0347 165.91 85.328 164.449 85.328ZM175.138 85.264C174.498 85.264 173.992 85.1253 173.618 84.848C173.245 84.5813 172.973 84.208 172.802 83.728C172.632 83.248 172.52 82.6987 172.466 82.08C172.424 81.4613 172.402 80.8107 172.402 80.128C172.402 79.424 172.429 78.6933 172.482 77.936C171.768 78.032 171.08 78.1547 170.418 78.304L169.922 75.792C170.808 75.5573 171.752 75.3867 172.754 75.28C172.829 74.736 172.909 74.1653 172.994 73.568C173.08 72.96 173.176 72.32 173.282 71.648L176.034 71.888C175.906 72.4427 175.794 72.9973 175.698 73.552C175.602 74.096 175.517 74.624 175.442 75.136C176.04 75.136 176.6 75.152 177.122 75.184C177.656 75.2053 178.146 75.248 178.594 75.312L178.274 77.824C177.901 77.7813 177.512 77.7547 177.106 77.744C176.712 77.7227 176.312 77.712 175.906 77.712C175.661 77.712 175.416 77.7173 175.17 77.728C175.106 78.5067 175.064 79.1733 175.042 79.728C175.032 80.2827 175.026 80.6773 175.026 80.912C175.026 81.4987 175.058 81.92 175.122 82.176C175.197 82.432 175.314 82.56 175.474 82.56C175.656 82.56 175.858 82.5013 176.082 82.384C176.306 82.256 176.525 82.0853 176.738 81.872C176.962 81.6587 177.149 81.4293 177.298 81.184L178.53 83.76C177.474 84.7627 176.344 85.264 175.138 85.264ZM57.3182 107.752C56.2089 107.752 55.2755 107.555 54.5182 107.16C53.7609 106.776 53.1529 106.264 52.6942 105.624C52.2462 104.984 51.9209 104.285 51.7182 103.528C51.5155 102.771 51.4142 102.019 51.4142 101.272C51.4142 100.387 51.5582 99.512 51.8462 98.648C52.1342 97.784 52.5662 97 53.1422 96.296C53.7289 95.592 54.4542 95.0267 55.3182 94.6C56.1929 94.1733 57.2115 93.96 58.3742 93.96C59.3555 93.96 60.2142 94.104 60.9502 94.392C61.6862 94.6693 62.3155 95.0107 62.8382 95.416C63.3715 95.8107 63.7982 96.184 64.1182 96.536L62.1182 98.696C61.8195 98.344 61.4995 98.0133 61.1582 97.704C60.8275 97.3947 60.4329 97.144 59.9742 96.952C59.5155 96.76 58.9502 96.664 58.2782 96.664C57.5529 96.664 56.9289 96.7973 56.4062 97.064C55.8835 97.32 55.4569 97.6667 55.1262 98.104C54.7955 98.5413 54.5502 99.032 54.3902 99.576C54.2409 100.12 54.1662 100.68 54.1662 101.256C54.1662 101.939 54.2782 102.568 54.5022 103.144C54.7369 103.72 55.0835 104.184 55.5422 104.536C56.0115 104.888 56.5929 105.064 57.2862 105.064C58.1395 105.064 58.8435 104.867 59.3982 104.472C59.9529 104.077 60.3369 103.512 60.5502 102.776C60.0915 102.808 59.6489 102.851 59.2222 102.904C58.8062 102.947 58.4329 102.995 58.1022 103.048L57.8302 100.456C58.4595 100.317 59.1849 100.216 60.0062 100.152C60.8382 100.077 61.6329 100.04 62.3902 100.04C63.4355 100.04 64.2195 100.104 64.7422 100.232L64.6782 102.856C64.4542 102.792 64.0969 102.744 63.6062 102.712C63.6062 102.947 63.6062 103.192 63.6062 103.448C63.6169 103.704 63.6222 103.965 63.6222 104.232C63.6222 104.968 63.6115 105.693 63.5902 106.408C63.5689 107.123 63.5475 107.693 63.5262 108.12L60.7902 108.056C60.8009 107.917 60.8169 107.704 60.8382 107.416C60.8702 107.128 60.9022 106.803 60.9342 106.44C60.5715 106.824 60.0969 107.139 59.5102 107.384C58.9342 107.629 58.2035 107.752 57.3182 107.752ZM70.2293 108.264C69.4293 108.264 68.704 108.056 68.0533 107.64C67.4026 107.235 66.8853 106.685 66.5013 105.992C66.128 105.288 65.9413 104.504 65.9413 103.64C65.9413 102.829 66.0906 102.099 66.3893 101.448C66.688 100.787 67.0933 100.221 67.6053 99.752C68.128 99.2827 68.72 98.9253 69.3813 98.68C70.0426 98.424 70.736 98.296 71.4613 98.296C72.0693 98.296 72.6666 98.3813 73.2533 98.552C73.296 98.328 73.3333 98.104 73.3653 97.88L76.1013 98.344C76.0266 98.5467 75.952 98.8507 75.8773 99.256C75.8026 99.6613 75.7386 100.115 75.6853 100.616C75.6426 101.117 75.6053 101.619 75.5733 102.12C75.5413 102.621 75.5253 103.075 75.5253 103.48C75.5253 103.811 75.5466 104.136 75.5893 104.456C75.6426 104.765 75.7493 105.021 75.9093 105.224C76.0693 105.416 76.3146 105.512 76.6453 105.512H76.8693L76.4693 108.296C75.7653 108.296 75.184 108.173 74.7253 107.928C74.2666 107.693 73.8986 107.373 73.6213 106.968C73.1626 107.48 72.64 107.821 72.0533 107.992C71.4666 108.173 70.8586 108.264 70.2293 108.264ZM68.5653 103.96C68.6186 104.472 68.8266 104.883 69.1893 105.192C69.5626 105.491 70.032 105.64 70.5973 105.64C71.1413 105.64 71.5946 105.496 71.9573 105.208C72.32 104.909 72.6186 104.504 72.8533 103.992C72.8426 103.821 72.8373 103.645 72.8373 103.464C72.8373 103.091 72.848 102.707 72.8693 102.312C72.8906 101.917 72.9173 101.528 72.9493 101.144C72.5013 100.973 72.032 100.888 71.5413 100.888C70.9653 100.888 70.448 101.005 69.9893 101.24C69.5413 101.464 69.1893 101.779 68.9333 102.184C68.6773 102.589 68.5493 103.059 68.5493 103.592C68.5493 103.656 68.5493 103.72 68.5493 103.784C68.5493 103.848 68.5546 103.907 68.5653 103.96ZM77.8696 108.248C77.8589 108.088 77.8482 107.821 77.8376 107.448C77.8269 107.085 77.8162 106.648 77.8056 106.136C77.7949 105.624 77.7896 105.075 77.7896 104.488C77.7896 103.891 77.7896 103.293 77.7896 102.696C77.7896 102.035 77.7896 101.405 77.7896 100.808C77.8002 100.211 77.8056 99.6933 77.8056 99.256C77.8162 98.8187 77.8216 98.504 77.8216 98.312L80.5256 98.264C80.5042 98.5627 80.4882 98.9253 80.4776 99.352C80.7549 98.9787 81.0749 98.6853 81.4376 98.472C81.8002 98.2587 82.2162 98.152 82.6856 98.152C83.2509 98.152 83.7149 98.3173 84.0776 98.648C84.4509 98.9787 84.7549 99.4107 84.9896 99.944C85.7576 98.7493 86.7016 98.152 87.8216 98.152C88.4509 98.152 88.9682 98.2907 89.3736 98.568C89.7896 98.8347 90.1149 99.1973 90.3496 99.656C90.5842 100.115 90.7549 100.632 90.8616 101.208C90.9789 101.784 91.0536 102.376 91.0856 102.984C91.1176 103.592 91.1336 104.179 91.1336 104.744C91.1336 105.416 91.1229 106.029 91.1016 106.584C91.0802 107.139 91.0749 107.667 91.0856 108.168H88.3176C88.3176 107.912 88.3176 107.587 88.3176 107.192C88.3176 106.808 88.3176 106.419 88.3176 106.024C88.3282 105.619 88.3336 105.272 88.3336 104.984C88.3336 104.685 88.3336 104.509 88.3336 104.456C88.3336 103.816 88.3176 103.213 88.2856 102.648C88.2536 102.083 88.1736 101.624 88.0456 101.272C87.9176 100.92 87.7096 100.744 87.4216 100.744C87.1442 100.744 86.8989 100.877 86.6856 101.144C86.4722 101.411 86.2802 101.757 86.1096 102.184C85.9496 102.611 85.8109 103.064 85.6936 103.544C85.7149 103.96 85.7309 104.376 85.7416 104.792C85.7522 105.197 85.7576 105.592 85.7576 105.976C85.7576 106.413 85.7522 106.792 85.7416 107.112C85.7416 107.443 85.7416 107.795 85.7416 108.168H83.0536C83.0536 107.304 83.0482 106.541 83.0376 105.88C83.0269 105.219 83.0056 104.579 82.9736 103.96C82.9202 102.851 82.8029 102.04 82.6216 101.528C82.4509 101.005 82.2109 100.744 81.9016 100.744C81.5602 100.744 81.2722 100.952 81.0376 101.368C80.8029 101.773 80.6109 102.269 80.4616 102.856C80.4722 103.709 80.4936 104.6 80.5256 105.528C80.5576 106.456 80.6002 107.352 80.6536 108.216L77.8696 108.248ZM97.3578 108.28C96.3338 108.28 95.4325 108.077 94.6538 107.672C93.8858 107.277 93.2831 106.723 92.8458 106.008C92.4191 105.293 92.2058 104.467 92.2058 103.528C92.2058 102.963 92.3018 102.371 92.4938 101.752C92.6858 101.123 92.9951 100.536 93.4218 99.992C93.8485 99.448 94.4085 99.0053 95.1018 98.664C95.8058 98.3227 96.6591 98.152 97.6618 98.152C98.3871 98.152 98.9951 98.232 99.4858 98.392C99.9871 98.552 100.392 98.76 100.702 99.016C101.022 99.272 101.262 99.544 101.422 99.832C101.592 100.12 101.704 100.397 101.758 100.664C101.822 100.92 101.854 101.133 101.854 101.304C101.854 102.339 101.416 103.139 100.542 103.704C99.6778 104.259 98.4511 104.536 96.8618 104.536C96.4991 104.536 96.1525 104.52 95.8218 104.488C95.5018 104.456 95.2031 104.419 94.9258 104.376C95.1285 104.909 95.4645 105.304 95.9338 105.56C96.4031 105.805 96.8885 105.928 97.3898 105.928C98.1151 105.928 98.7551 105.8 99.3098 105.544C99.8645 105.277 100.387 104.872 100.878 104.328L102.302 106.376C101.96 106.653 101.576 106.941 101.15 107.24C100.734 107.539 100.222 107.784 99.6138 107.976C99.0058 108.179 98.2538 108.28 97.3578 108.28ZM97.7098 100.552C97.0805 100.552 96.5258 100.712 96.0458 101.032C95.5658 101.352 95.2138 101.773 94.9898 102.296C95.2565 102.339 95.5178 102.376 95.7738 102.408C96.0405 102.429 96.3018 102.44 96.5578 102.44C96.7925 102.44 97.0591 102.419 97.3578 102.376C97.6671 102.333 97.9658 102.269 98.2538 102.184C98.5525 102.099 98.7978 101.992 98.9898 101.864C99.1818 101.725 99.2778 101.565 99.2778 101.384C99.2778 101.299 99.2351 101.192 99.1498 101.064C99.0645 100.936 98.9098 100.819 98.6858 100.712C98.4618 100.605 98.1365 100.552 97.7098 100.552ZM109.486 108.136L106.75 107.624C107.262 105.555 107.795 103.683 108.35 102.008C108.915 100.333 109.496 98.8987 110.094 97.704C110.691 96.5093 111.299 95.592 111.918 94.952C112.547 94.3013 113.176 93.976 113.806 93.976C115.075 93.976 116.243 95.1547 117.31 97.512C118.376 99.8587 119.283 103.261 120.03 107.72L117.198 108.104C117.07 107.4 116.931 106.68 116.782 105.944C116.632 105.197 116.478 104.472 116.318 103.768C116.062 103.757 115.784 103.752 115.486 103.752C114.963 103.752 114.408 103.763 113.822 103.784C113.246 103.805 112.675 103.843 112.11 103.896C111.555 103.939 111.038 103.987 110.558 104.04C110.355 104.723 110.158 105.416 109.966 106.12C109.784 106.813 109.624 107.485 109.486 108.136ZM112.43 98.792C112.195 99.2933 111.88 100.104 111.486 101.224C111.944 101.171 112.43 101.133 112.942 101.112C113.454 101.08 113.955 101.064 114.446 101.064C114.862 101.064 115.262 101.075 115.646 101.096C115.496 100.552 115.352 100.067 115.214 99.64C115.086 99.2133 114.968 98.8773 114.862 98.632C114.638 98.056 114.44 97.6507 114.27 97.416C114.099 97.1707 113.923 97.048 113.742 97.048C113.55 97.048 113.358 97.176 113.166 97.432C112.974 97.6773 112.728 98.1307 112.43 98.792ZM124.64 108.312C123.755 108.312 123.003 107.624 122.384 106.248C122.171 105.757 121.984 105.219 121.824 104.632C121.664 104.045 121.526 103.448 121.408 102.84C121.302 102.232 121.211 101.651 121.136 101.096C121.072 100.531 121.019 100.035 120.976 99.608C120.944 99.1707 120.918 98.84 120.896 98.616L123.52 98.008C123.648 100.429 123.84 102.269 124.096 103.528C124.363 104.787 124.566 105.416 124.704 105.416C124.779 105.416 124.87 105.267 124.976 104.968C125.094 104.669 125.222 104.275 125.36 103.784C125.499 103.283 125.632 102.733 125.76 102.136C125.888 101.539 126 100.936 126.096 100.328C125.968 99.5493 125.883 98.9307 125.84 98.472L128.544 98.376V98.568C128.544 99.0053 128.576 99.5173 128.64 100.104C128.704 100.691 128.784 101.299 128.88 101.928C128.976 102.547 129.078 103.123 129.184 103.656C129.302 104.189 129.414 104.621 129.52 104.952C129.627 105.283 129.718 105.448 129.792 105.448C129.856 105.448 129.947 105.304 130.064 105.016C130.182 104.728 130.31 104.333 130.448 103.832C130.598 103.331 130.747 102.76 130.896 102.12C131.046 101.469 131.19 100.787 131.328 100.072C131.467 99.3467 131.579 98.6267 131.664 97.912L134.304 98.472C134.123 99.4853 133.904 100.493 133.648 101.496C133.403 102.488 133.142 103.411 132.864 104.264C132.587 105.107 132.315 105.816 132.048 106.392C131.451 107.661 130.71 108.296 129.824 108.296C129.536 108.296 129.206 108.205 128.832 108.024C128.47 107.853 128.134 107.491 127.824 106.936C127.718 106.733 127.611 106.488 127.504 106.2C127.398 105.912 127.296 105.592 127.2 105.24C127.072 105.635 126.944 105.987 126.816 106.296C126.251 107.64 125.526 108.312 124.64 108.312ZM139.651 108.264C138.851 108.264 138.126 108.056 137.475 107.64C136.825 107.235 136.307 106.685 135.923 105.992C135.55 105.288 135.363 104.504 135.363 103.64C135.363 102.829 135.513 102.099 135.811 101.448C136.11 100.787 136.515 100.221 137.027 99.752C137.55 99.2827 138.142 98.9253 138.803 98.68C139.465 98.424 140.158 98.296 140.883 98.296C141.491 98.296 142.089 98.3813 142.675 98.552C142.718 98.328 142.755 98.104 142.787 97.88L145.523 98.344C145.449 98.5467 145.374 98.8507 145.299 99.256C145.225 99.6613 145.161 100.115 145.107 100.616C145.065 101.117 145.027 101.619 144.995 102.12C144.963 102.621 144.947 103.075 144.947 103.48C144.947 103.811 144.969 104.136 145.011 104.456C145.065 104.765 145.171 105.021 145.331 105.224C145.491 105.416 145.737 105.512 146.067 105.512H146.291L145.891 108.296C145.187 108.296 144.606 108.173 144.147 107.928C143.689 107.693 143.321 107.373 143.043 106.968C142.585 107.48 142.062 107.821 141.475 107.992C140.889 108.173 140.281 108.264 139.651 108.264ZM137.987 103.96C138.041 104.472 138.249 104.883 138.611 105.192C138.985 105.491 139.454 105.64 140.019 105.64C140.563 105.64 141.017 105.496 141.379 105.208C141.742 104.909 142.041 104.504 142.275 103.992C142.265 103.821 142.259 103.645 142.259 103.464C142.259 103.091 142.27 102.707 142.291 102.312C142.313 101.917 142.339 101.528 142.371 101.144C141.923 100.973 141.454 100.888 140.963 100.888C140.387 100.888 139.87 101.005 139.411 101.24C138.963 101.464 138.611 101.779 138.355 102.184C138.099 102.589 137.971 103.059 137.971 103.592C137.971 103.656 137.971 103.72 137.971 103.784C137.971 103.848 137.977 103.907 137.987 103.96ZM147.227 108.248C147.27 107.363 147.302 106.477 147.323 105.592C147.345 104.707 147.355 103.832 147.355 102.968C147.345 102.179 147.329 101.4 147.307 100.632C147.297 99.8533 147.27 99.1013 147.227 98.376L149.915 98.296C149.926 98.6907 149.942 99.096 149.963 99.512C150.305 99.0853 150.699 98.744 151.147 98.488C151.606 98.2213 152.129 98.088 152.715 98.088C152.939 98.088 153.227 98.12 153.579 98.184C153.931 98.248 154.289 98.3707 154.651 98.552L154.347 101.256C154.081 101.096 153.793 100.984 153.483 100.92C153.185 100.845 152.934 100.808 152.731 100.808C152.049 100.808 151.467 101.117 150.987 101.736C150.518 102.344 150.198 103.192 150.027 104.28C150.027 105.027 150.017 105.741 149.995 106.424C149.985 107.096 149.958 107.704 149.915 108.248H147.227ZM159.339 108.264C158.784 108.264 158.24 108.168 157.707 107.976C157.184 107.784 156.71 107.485 156.283 107.08C155.867 106.685 155.536 106.189 155.291 105.592C155.046 104.984 154.923 104.275 154.923 103.464C154.923 102.547 155.062 101.757 155.339 101.096C155.627 100.424 156.006 99.8747 156.475 99.448C156.944 99.0107 157.467 98.6853 158.043 98.472C158.619 98.2587 159.195 98.152 159.771 98.152C160.112 98.152 160.438 98.1787 160.747 98.232C161.056 98.2747 161.344 98.3387 161.611 98.424C161.643 97.6453 161.68 96.8613 161.723 96.072C161.776 95.2827 161.835 94.504 161.899 93.736L164.587 93.912C164.502 94.7973 164.427 95.752 164.363 96.776C164.299 97.7893 164.251 98.824 164.219 99.88C164.198 100.936 164.187 101.965 164.187 102.968C164.187 103.907 164.198 104.803 164.219 105.656C164.251 106.499 164.288 107.267 164.331 107.96L161.563 108.168C161.552 107.965 161.547 107.768 161.547 107.576C161.238 107.779 160.896 107.944 160.523 108.072C160.16 108.2 159.766 108.264 159.339 108.264ZM157.499 103.32C157.499 103.875 157.606 104.312 157.819 104.632C158.032 104.941 158.294 105.16 158.603 105.288C158.912 105.416 159.211 105.48 159.499 105.48C159.84 105.48 160.182 105.405 160.523 105.256C160.864 105.107 161.184 104.845 161.483 104.472C161.483 104.344 161.483 104.221 161.483 104.104C161.483 103.24 161.494 102.355 161.515 101.448C161.014 101.011 160.47 100.792 159.883 100.792C159.638 100.792 159.376 100.829 159.099 100.904C158.822 100.979 158.56 101.112 158.315 101.304C158.08 101.485 157.883 101.741 157.723 102.072C157.574 102.392 157.499 102.808 157.499 103.32ZM169.606 104.28L169.558 102.008C169.984 101.965 170.518 101.933 171.158 101.912C171.798 101.891 172.443 101.88 173.094 101.88C173.552 101.88 173.984 101.885 174.39 101.896C174.806 101.907 175.163 101.923 175.462 101.944L175.43 104.184C175.163 104.184 174.875 104.184 174.566 104.184C174.256 104.173 173.931 104.168 173.59 104.168C172.907 104.168 172.214 104.179 171.51 104.2C170.806 104.211 170.171 104.237 169.606 104.28ZM68.3611 131.28C67.0597 131.28 65.9291 130.992 64.9691 130.416C64.0091 129.851 63.2677 129.051 62.7451 128.016C62.2224 126.981 61.9611 125.76 61.9611 124.352C61.9611 123.819 62.0251 123.227 62.1531 122.576C62.2917 121.915 62.5104 121.259 62.8091 120.608C63.1077 119.947 63.5077 119.344 64.0091 118.8C64.5104 118.256 65.1237 117.819 65.8491 117.488C66.5744 117.147 67.4277 116.976 68.4091 116.976C69.2517 116.976 69.9877 117.083 70.6171 117.296C71.2464 117.499 71.7904 117.76 72.2491 118.08C72.7077 118.389 73.0864 118.715 73.3851 119.056C73.6944 119.397 73.9397 119.712 74.1211 120C74.3024 120.277 74.4357 120.48 74.5211 120.608L72.2011 122.384C71.9664 121.947 71.6891 121.52 71.3691 121.104C71.0491 120.677 70.6544 120.325 70.1851 120.048C69.7157 119.771 69.1344 119.632 68.4411 119.632C67.7264 119.632 67.1344 119.792 66.6651 120.112C66.1957 120.432 65.8224 120.837 65.5451 121.328C65.2784 121.819 65.0917 122.341 64.9851 122.896C64.8784 123.44 64.8251 123.947 64.8251 124.416C64.8251 124.917 64.8784 125.413 64.9851 125.904C65.0917 126.395 65.2731 126.843 65.5291 127.248C65.7957 127.653 66.1477 127.979 66.5851 128.224C67.0331 128.459 67.5931 128.576 68.2651 128.576C69.0117 128.576 69.6197 128.443 70.0891 128.176C70.5691 127.909 70.9691 127.536 71.2891 127.056C71.6091 126.565 71.9077 125.995 72.1851 125.344L74.8091 126.528C74.3397 127.499 73.8117 128.341 73.2251 129.056C72.6384 129.771 71.9504 130.32 71.1611 130.704C70.3717 131.088 69.4384 131.28 68.3611 131.28ZM76.6747 131.104C76.5894 130.549 76.5147 129.877 76.4507 129.088C76.3974 128.299 76.3547 127.44 76.3227 126.512C76.3014 125.584 76.2907 124.64 76.2907 123.68C76.2907 122.475 76.312 121.301 76.3547 120.16C76.3974 119.019 76.4614 118.016 76.5467 117.152L79.4907 117.2C79.3734 117.957 79.2827 118.848 79.2187 119.872C79.1654 120.896 79.1387 122.059 79.1387 123.36C79.1387 124.683 79.16 126.011 79.2027 127.344C79.256 128.677 79.3147 129.899 79.3787 131.008L76.6747 131.104ZM85.7953 131.184C85.7206 130.256 85.6673 129.355 85.6353 128.48C85.614 127.605 85.6033 126.779 85.6033 126C85.6033 124.709 85.63 123.552 85.6833 122.528C85.7366 121.493 85.79 120.603 85.8433 119.856C84.926 119.909 84.0353 119.979 83.1713 120.064C82.3073 120.149 81.5073 120.261 80.7713 120.4L80.8033 117.728C82.0513 117.504 83.3313 117.344 84.6433 117.248C85.9553 117.141 87.2673 117.088 88.5793 117.088C89.518 117.088 90.414 117.109 91.2673 117.152C92.1313 117.195 92.958 117.259 93.7473 117.344L93.7313 120.112C92.9846 119.995 92.174 119.915 91.2993 119.872C90.4353 119.819 89.55 119.792 88.6433 119.792C88.59 120.517 88.542 121.328 88.4993 122.224C88.4566 123.109 88.4353 124.059 88.4353 125.072C88.4353 125.979 88.4566 126.933 88.4993 127.936C88.5526 128.939 88.6166 129.995 88.6913 131.104L85.7953 131.184ZM95.0723 131.168C95.0403 130.112 95.0243 129.099 95.0243 128.128C95.0243 126.379 95.0776 124.795 95.1843 123.376C95.291 121.957 95.4456 120.752 95.6483 119.76C95.7443 119.301 95.8776 118.859 96.0483 118.432C96.2296 118.005 96.4803 117.659 96.8003 117.392C97.131 117.115 97.563 116.976 98.0963 116.976C98.619 116.976 99.0616 117.115 99.4243 117.392C99.787 117.659 100.08 117.984 100.304 118.368C100.539 118.752 100.71 119.12 100.816 119.472C101.094 120.304 101.328 121.136 101.52 121.968C101.712 122.8 101.883 123.595 102.032 124.352C102.139 123.797 102.262 123.216 102.4 122.608C102.539 121.989 102.678 121.408 102.816 120.864C102.955 120.309 103.083 119.851 103.2 119.488C103.744 117.813 104.582 116.976 105.712 116.976C106.342 116.976 106.875 117.205 107.312 117.664C107.75 118.112 108.07 118.763 108.272 119.616C108.368 120 108.464 120.56 108.56 121.296C108.667 122.032 108.763 122.907 108.848 123.92C108.944 124.923 109.024 126.032 109.088 127.248C109.163 128.464 109.222 129.755 109.264 131.12L106.448 131.056C106.448 130.491 106.432 129.835 106.4 129.088C106.379 128.341 106.342 127.568 106.288 126.768C106.246 125.957 106.192 125.168 106.128 124.4C106.075 123.632 106.016 122.939 105.952 122.32C105.899 121.701 105.846 121.211 105.792 120.848C105.739 120.475 105.691 120.288 105.648 120.288C105.638 120.288 105.579 120.48 105.472 120.864C105.376 121.237 105.254 121.739 105.104 122.368C104.966 122.997 104.811 123.691 104.64 124.448C104.47 125.205 104.299 125.968 104.128 126.736C103.968 127.493 103.824 128.197 103.696 128.848C103.568 129.488 103.467 130.011 103.392 130.416L100.88 130.48C100.752 129.883 100.598 129.227 100.416 128.512C100.246 127.787 100.064 127.051 99.8723 126.304C99.691 125.547 99.5096 124.821 99.3283 124.128C99.147 123.424 98.9763 122.795 98.8163 122.24C98.667 121.685 98.5443 121.248 98.4483 120.928C98.3523 120.597 98.2936 120.432 98.2723 120.432C98.2296 120.432 98.1816 120.667 98.1283 121.136C98.0856 121.595 98.043 122.219 98.0003 123.008C97.9576 123.797 97.9203 124.688 97.8883 125.68C97.867 126.672 97.8563 127.696 97.8563 128.752C97.8563 129.253 97.8563 129.712 97.8563 130.128C97.867 130.544 97.8776 130.885 97.8883 131.152L95.0723 131.168ZM120.256 130.752C119.146 130.752 118.213 130.555 117.456 130.16C116.698 129.776 116.09 129.264 115.632 128.624C115.184 127.984 114.858 127.285 114.656 126.528C114.453 125.771 114.352 125.019 114.352 124.272C114.352 123.387 114.496 122.512 114.784 121.648C115.072 120.784 115.504 120 116.08 119.296C116.666 118.592 117.392 118.027 118.256 117.6C119.13 117.173 120.149 116.96 121.312 116.96C122.293 116.96 123.152 117.104 123.888 117.392C124.624 117.669 125.253 118.011 125.776 118.416C126.309 118.811 126.736 119.184 127.056 119.536L125.056 121.696C124.757 121.344 124.437 121.013 124.096 120.704C123.765 120.395 123.37 120.144 122.912 119.952C122.453 119.76 121.888 119.664 121.216 119.664C120.49 119.664 119.866 119.797 119.344 120.064C118.821 120.32 118.394 120.667 118.064 121.104C117.733 121.541 117.488 122.032 117.328 122.576C117.178 123.12 117.104 123.68 117.104 124.256C117.104 124.939 117.216 125.568 117.44 126.144C117.674 126.72 118.021 127.184 118.48 127.536C118.949 127.888 119.53 128.064 120.224 128.064C121.077 128.064 121.781 127.867 122.336 127.472C122.89 127.077 123.274 126.512 123.488 125.776C123.029 125.808 122.586 125.851 122.16 125.904C121.744 125.947 121.37 125.995 121.04 126.048L120.768 123.456C121.397 123.317 122.122 123.216 122.944 123.152C123.776 123.077 124.57 123.04 125.328 123.04C126.373 123.04 127.157 123.104 127.68 123.232L127.616 125.856C127.392 125.792 127.034 125.744 126.544 125.712C126.544 125.947 126.544 126.192 126.544 126.448C126.554 126.704 126.56 126.965 126.56 127.232C126.56 127.968 126.549 128.693 126.528 129.408C126.506 130.123 126.485 130.693 126.464 131.12L123.728 131.056C123.738 130.917 123.754 130.704 123.776 130.416C123.808 130.128 123.84 129.803 123.872 129.44C123.509 129.824 123.034 130.139 122.448 130.384C121.872 130.629 121.141 130.752 120.256 130.752ZM133.167 131.264C132.367 131.264 131.641 131.056 130.991 130.64C130.34 130.235 129.823 129.685 129.439 128.992C129.065 128.288 128.879 127.504 128.879 126.64C128.879 125.829 129.028 125.099 129.327 124.448C129.625 123.787 130.031 123.221 130.543 122.752C131.065 122.283 131.657 121.925 132.319 121.68C132.98 121.424 133.673 121.296 134.399 121.296C135.007 121.296 135.604 121.381 136.191 121.552C136.233 121.328 136.271 121.104 136.303 120.88L139.039 121.344C138.964 121.547 138.889 121.851 138.815 122.256C138.74 122.661 138.676 123.115 138.623 123.616C138.58 124.117 138.543 124.619 138.511 125.12C138.479 125.621 138.463 126.075 138.463 126.48C138.463 126.811 138.484 127.136 138.527 127.456C138.58 127.765 138.687 128.021 138.847 128.224C139.007 128.416 139.252 128.512 139.583 128.512H139.807L139.407 131.296C138.703 131.296 138.121 131.173 137.663 130.928C137.204 130.693 136.836 130.373 136.559 129.968C136.1 130.48 135.577 130.821 134.991 130.992C134.404 131.173 133.796 131.264 133.167 131.264ZM131.503 126.96C131.556 127.472 131.764 127.883 132.127 128.192C132.5 128.491 132.969 128.64 133.535 128.64C134.079 128.64 134.532 128.496 134.895 128.208C135.257 127.909 135.556 127.504 135.791 126.992C135.78 126.821 135.775 126.645 135.775 126.464C135.775 126.091 135.785 125.707 135.807 125.312C135.828 124.917 135.855 124.528 135.887 124.144C135.439 123.973 134.969 123.888 134.479 123.888C133.903 123.888 133.385 124.005 132.927 124.24C132.479 124.464 132.127 124.779 131.871 125.184C131.615 125.589 131.487 126.059 131.487 126.592C131.487 126.656 131.487 126.72 131.487 126.784C131.487 126.848 131.492 126.907 131.503 126.96ZM140.807 131.248C140.796 131.088 140.786 130.821 140.775 130.448C140.764 130.085 140.754 129.648 140.743 129.136C140.732 128.624 140.727 128.075 140.727 127.488C140.727 126.891 140.727 126.293 140.727 125.696C140.727 125.035 140.727 124.405 140.727 123.808C140.738 123.211 140.743 122.693 140.743 122.256C140.754 121.819 140.759 121.504 140.759 121.312L143.463 121.264C143.442 121.563 143.426 121.925 143.415 122.352C143.692 121.979 144.012 121.685 144.375 121.472C144.738 121.259 145.154 121.152 145.623 121.152C146.188 121.152 146.652 121.317 147.015 121.648C147.388 121.979 147.692 122.411 147.927 122.944C148.695 121.749 149.639 121.152 150.759 121.152C151.388 121.152 151.906 121.291 152.311 121.568C152.727 121.835 153.052 122.197 153.287 122.656C153.522 123.115 153.692 123.632 153.799 124.208C153.916 124.784 153.991 125.376 154.023 125.984C154.055 126.592 154.071 127.179 154.071 127.744C154.071 128.416 154.06 129.029 154.039 129.584C154.018 130.139 154.012 130.667 154.023 131.168H151.255C151.255 130.912 151.255 130.587 151.255 130.192C151.255 129.808 151.255 129.419 151.255 129.024C151.266 128.619 151.271 128.272 151.271 127.984C151.271 127.685 151.271 127.509 151.271 127.456C151.271 126.816 151.255 126.213 151.223 125.648C151.191 125.083 151.111 124.624 150.983 124.272C150.855 123.92 150.647 123.744 150.359 123.744C150.082 123.744 149.836 123.877 149.623 124.144C149.41 124.411 149.218 124.757 149.047 125.184C148.887 125.611 148.748 126.064 148.631 126.544C148.652 126.96 148.668 127.376 148.679 127.792C148.69 128.197 148.695 128.592 148.695 128.976C148.695 129.413 148.69 129.792 148.679 130.112C148.679 130.443 148.679 130.795 148.679 131.168H145.991C145.991 130.304 145.986 129.541 145.975 128.88C145.964 128.219 145.943 127.579 145.911 126.96C145.858 125.851 145.74 125.04 145.559 124.528C145.388 124.005 145.148 123.744 144.839 123.744C144.498 123.744 144.21 123.952 143.975 124.368C143.74 124.773 143.548 125.269 143.399 125.856C143.41 126.709 143.431 127.6 143.463 128.528C143.495 129.456 143.538 130.352 143.591 131.216L140.807 131.248ZM160.295 131.28C159.271 131.28 158.37 131.077 157.591 130.672C156.823 130.277 156.221 129.723 155.783 129.008C155.357 128.293 155.143 127.467 155.143 126.528C155.143 125.963 155.239 125.371 155.431 124.752C155.623 124.123 155.933 123.536 156.359 122.992C156.786 122.448 157.346 122.005 158.039 121.664C158.743 121.323 159.597 121.152 160.599 121.152C161.325 121.152 161.933 121.232 162.423 121.392C162.925 121.552 163.33 121.76 163.639 122.016C163.959 122.272 164.199 122.544 164.359 122.832C164.53 123.12 164.642 123.397 164.695 123.664C164.759 123.92 164.791 124.133 164.791 124.304C164.791 125.339 164.354 126.139 163.479 126.704C162.615 127.259 161.389 127.536 159.799 127.536C159.437 127.536 159.09 127.52 158.759 127.488C158.439 127.456 158.141 127.419 157.863 127.376C158.066 127.909 158.402 128.304 158.871 128.56C159.341 128.805 159.826 128.928 160.327 128.928C161.053 128.928 161.693 128.8 162.247 128.544C162.802 128.277 163.325 127.872 163.815 127.328L165.239 129.376C164.898 129.653 164.514 129.941 164.087 130.24C163.671 130.539 163.159 130.784 162.551 130.976C161.943 131.179 161.191 131.28 160.295 131.28ZM160.647 123.552C160.018 123.552 159.463 123.712 158.983 124.032C158.503 124.352 158.151 124.773 157.927 125.296C158.194 125.339 158.455 125.376 158.711 125.408C158.978 125.429 159.239 125.44 159.495 125.44C159.73 125.44 159.997 125.419 160.295 125.376C160.605 125.333 160.903 125.269 161.191 125.184C161.49 125.099 161.735 124.992 161.927 124.864C162.119 124.725 162.215 124.565 162.215 124.384C162.215 124.299 162.173 124.192 162.087 124.064C162.002 123.936 161.847 123.819 161.623 123.712C161.399 123.605 161.074 123.552 160.647 123.552ZM74.6254 154.232C73.2067 154.232 72.06 153.805 71.1854 152.952C70.3214 152.088 69.6974 150.776 69.3134 149.016L72.0654 148.184C72.3534 150.392 73.1587 151.496 74.4814 151.496C74.9507 151.496 75.3187 151.384 75.5854 151.16C75.8627 150.925 76.06 150.627 76.1774 150.264C76.3054 149.901 76.3854 149.507 76.4174 149.08C76.4494 148.653 76.4654 148.248 76.4654 147.864C76.4654 147.32 76.4494 146.712 76.4174 146.04C76.3854 145.368 76.316 144.579 76.2094 143.672C76.1134 142.765 75.9534 141.699 75.7294 140.472L78.7054 139.976C78.78 140.552 78.86 141.256 78.9454 142.088C79.0307 142.909 79.1054 143.784 79.1694 144.712C79.2334 145.64 79.2654 146.547 79.2654 147.432C79.2654 147.891 79.244 148.419 79.2014 149.016C79.1694 149.613 79.0787 150.216 78.9294 150.824C78.78 151.432 78.54 151.997 78.2094 152.52C77.8787 153.032 77.42 153.443 76.8334 153.752C76.2574 154.072 75.5214 154.232 74.6254 154.232ZM85.0496 154.264C84.2496 154.264 83.5243 154.056 82.8736 153.64C82.223 153.235 81.7056 152.685 81.3216 151.992C80.9483 151.288 80.7616 150.504 80.7616 149.64C80.7616 148.829 80.911 148.099 81.2096 147.448C81.5083 146.787 81.9136 146.221 82.4256 145.752C82.9483 145.283 83.5403 144.925 84.2016 144.68C84.863 144.424 85.5563 144.296 86.2816 144.296C86.8896 144.296 87.487 144.381 88.0736 144.552C88.1163 144.328 88.1536 144.104 88.1856 143.88L90.9216 144.344C90.847 144.547 90.7723 144.851 90.6976 145.256C90.623 145.661 90.559 146.115 90.5056 146.616C90.463 147.117 90.4256 147.619 90.3936 148.12C90.3616 148.621 90.3456 149.075 90.3456 149.48C90.3456 149.811 90.367 150.136 90.4096 150.456C90.463 150.765 90.5696 151.021 90.7296 151.224C90.8896 151.416 91.135 151.512 91.4656 151.512H91.6896L91.2896 154.296C90.5856 154.296 90.0043 154.173 89.5456 153.928C89.087 153.693 88.719 153.373 88.4416 152.968C87.983 153.48 87.4603 153.821 86.8736 153.992C86.287 154.173 85.679 154.264 85.0496 154.264ZM83.3856 149.96C83.439 150.472 83.647 150.883 84.0096 151.192C84.383 151.491 84.8523 151.64 85.4176 151.64C85.9616 151.64 86.415 151.496 86.7776 151.208C87.1403 150.909 87.439 150.504 87.6736 149.992C87.663 149.821 87.6576 149.645 87.6576 149.464C87.6576 149.091 87.6683 148.707 87.6896 148.312C87.711 147.917 87.7376 147.528 87.7696 147.144C87.3216 146.973 86.8523 146.888 86.3616 146.888C85.7856 146.888 85.2683 147.005 84.8096 147.24C84.3616 147.464 84.0096 147.779 83.7536 148.184C83.4976 148.589 83.3696 149.059 83.3696 149.592C83.3696 149.656 83.3696 149.72 83.3696 149.784C83.3696 149.848 83.375 149.907 83.3856 149.96ZM92.6899 154.248C92.6792 154.088 92.6685 153.821 92.6579 153.448C92.6472 153.085 92.6365 152.648 92.6259 152.136C92.6152 151.624 92.6099 151.075 92.6099 150.488C92.6099 149.891 92.6099 149.293 92.6099 148.696C92.6099 148.035 92.6099 147.405 92.6099 146.808C92.6205 146.211 92.6259 145.693 92.6259 145.256C92.6365 144.819 92.6419 144.504 92.6419 144.312L95.3459 144.264C95.3245 144.563 95.3085 144.925 95.2979 145.352C95.5752 144.979 95.8952 144.685 96.2579 144.472C96.6205 144.259 97.0365 144.152 97.5059 144.152C98.0712 144.152 98.5352 144.317 98.8979 144.648C99.2712 144.979 99.5752 145.411 99.8099 145.944C100.578 144.749 101.522 144.152 102.642 144.152C103.271 144.152 103.789 144.291 104.194 144.568C104.61 144.835 104.935 145.197 105.17 145.656C105.405 146.115 105.575 146.632 105.682 147.208C105.799 147.784 105.874 148.376 105.906 148.984C105.938 149.592 105.954 150.179 105.954 150.744C105.954 151.416 105.943 152.029 105.922 152.584C105.901 153.139 105.895 153.667 105.906 154.168H103.138C103.138 153.912 103.138 153.587 103.138 153.192C103.138 152.808 103.138 152.419 103.138 152.024C103.149 151.619 103.154 151.272 103.154 150.984C103.154 150.685 103.154 150.509 103.154 150.456C103.154 149.816 103.138 149.213 103.106 148.648C103.074 148.083 102.994 147.624 102.866 147.272C102.738 146.92 102.53 146.744 102.242 146.744C101.965 146.744 101.719 146.877 101.506 147.144C101.293 147.411 101.101 147.757 100.93 148.184C100.77 148.611 100.631 149.064 100.514 149.544C100.535 149.96 100.551 150.376 100.562 150.792C100.573 151.197 100.578 151.592 100.578 151.976C100.578 152.413 100.573 152.792 100.562 153.112C100.562 153.443 100.562 153.795 100.562 154.168H97.8739C97.8739 153.304 97.8685 152.541 97.8579 151.88C97.8472 151.219 97.8259 150.579 97.7939 149.96C97.7405 148.851 97.6232 148.04 97.4419 147.528C97.2712 147.005 97.0312 146.744 96.7219 146.744C96.3805 146.744 96.0925 146.952 95.8579 147.368C95.6232 147.773 95.4312 148.269 95.2819 148.856C95.2925 149.709 95.3139 150.6 95.3459 151.528C95.3779 152.456 95.4205 153.352 95.4739 154.216L92.6899 154.248ZM111.834 154.216C111.728 153.8 111.61 153.373 111.482 152.936C111.365 152.499 111.258 152.115 111.162 151.784C112.346 151.123 113.376 150.408 114.25 149.64C115.136 148.872 115.861 148.109 116.426 147.352C117.002 146.595 117.429 145.907 117.706 145.288C117.994 144.669 118.138 144.184 118.138 143.832C118.138 143.427 118 143.112 117.722 142.888C117.456 142.653 117.093 142.536 116.634 142.536C116.005 142.536 115.365 142.76 114.714 143.208C114.074 143.656 113.477 144.291 112.922 145.112L111.242 143.096C111.722 142.52 112.229 142.003 112.762 141.544C113.306 141.085 113.888 140.723 114.506 140.456C115.125 140.179 115.786 140.04 116.49 140.04C117.258 140.04 117.962 140.173 118.602 140.44C119.242 140.707 119.754 141.107 120.138 141.64C120.522 142.173 120.714 142.835 120.714 143.624C120.714 144.371 120.522 145.181 120.138 146.056C119.754 146.92 119.221 147.789 118.538 148.664C117.856 149.528 117.077 150.333 116.202 151.08C116.554 151.069 116.912 151.064 117.274 151.064C117.978 151.064 118.624 151.107 119.21 151.192C119.797 151.267 120.405 151.384 121.034 151.544L120.506 154.008C119.984 153.88 119.429 153.773 118.842 153.688C118.256 153.603 117.584 153.56 116.826 153.56C115.93 153.56 115.04 153.608 114.154 153.704C113.269 153.811 112.496 153.981 111.834 154.216ZM127.856 154.248C127.045 154.248 126.32 154.056 125.68 153.672C125.04 153.299 124.496 152.787 124.048 152.136C123.611 151.485 123.275 150.749 123.04 149.928C122.805 149.107 122.688 148.253 122.688 147.368C122.688 146.312 122.832 145.32 123.12 144.392C123.419 143.453 123.845 142.616 124.4 141.88C124.955 141.144 125.621 140.536 126.4 140.056L126.624 140.536C127.147 140.269 127.712 140.136 128.32 140.136C129.195 140.136 129.957 140.328 130.608 140.712C131.269 141.085 131.813 141.597 132.24 142.248C132.677 142.888 133.003 143.608 133.216 144.408C133.44 145.208 133.552 146.035 133.552 146.888C133.552 148.157 133.387 149.256 133.056 150.184C132.736 151.112 132.304 151.875 131.76 152.472C131.216 153.069 130.603 153.512 129.92 153.8C129.248 154.099 128.56 154.248 127.856 154.248ZM125.312 147.512C125.312 147.896 125.349 148.328 125.424 148.808C125.509 149.288 125.653 149.747 125.856 150.184C126.059 150.611 126.331 150.968 126.672 151.256C127.024 151.533 127.472 151.672 128.016 151.672C128.603 151.672 129.115 151.475 129.552 151.08C129.989 150.675 130.331 150.115 130.576 149.4C130.832 148.685 130.96 147.859 130.96 146.92C130.96 145.981 130.816 145.213 130.528 144.616C130.251 144.008 129.899 143.56 129.472 143.272C129.056 142.973 128.635 142.824 128.208 142.824C127.984 142.824 127.771 142.888 127.568 143.016C127.365 143.144 127.205 143.315 127.088 143.528L126.864 143.048C126.363 143.549 126.005 144.056 125.792 144.568C125.579 145.08 125.445 145.587 125.392 146.088C125.339 146.579 125.312 147.053 125.312 147.512ZM135.834 154.216C135.728 153.8 135.61 153.373 135.482 152.936C135.365 152.499 135.258 152.115 135.162 151.784C136.346 151.123 137.376 150.408 138.25 149.64C139.136 148.872 139.861 148.109 140.426 147.352C141.002 146.595 141.429 145.907 141.706 145.288C141.994 144.669 142.138 144.184 142.138 143.832C142.138 143.427 142 143.112 141.722 142.888C141.456 142.653 141.093 142.536 140.634 142.536C140.005 142.536 139.365 142.76 138.714 143.208C138.074 143.656 137.477 144.291 136.922 145.112L135.242 143.096C135.722 142.52 136.229 142.003 136.762 141.544C137.306 141.085 137.888 140.723 138.506 140.456C139.125 140.179 139.786 140.04 140.49 140.04C141.258 140.04 141.962 140.173 142.602 140.44C143.242 140.707 143.754 141.107 144.138 141.64C144.522 142.173 144.714 142.835 144.714 143.624C144.714 144.371 144.522 145.181 144.138 146.056C143.754 146.92 143.221 147.789 142.538 148.664C141.856 149.528 141.077 150.333 140.202 151.08C140.554 151.069 140.912 151.064 141.274 151.064C141.978 151.064 142.624 151.107 143.21 151.192C143.797 151.267 144.405 151.384 145.034 151.544L144.506 154.008C143.984 153.88 143.429 153.773 142.842 153.688C142.256 153.603 141.584 153.56 140.826 153.56C139.93 153.56 139.04 153.608 138.154 153.704C137.269 153.811 136.496 153.981 135.834 154.216ZM150.416 148.552L147.792 148.392C147.845 147.795 147.915 147.149 148 146.456C148.085 145.752 148.171 145.037 148.256 144.312C148.352 143.576 148.448 142.856 148.544 142.152C148.64 141.448 148.731 140.797 148.816 140.2L151.456 140.264C151.435 140.371 151.413 140.488 151.392 140.616C151.904 140.584 152.448 140.557 153.024 140.536C153.6 140.504 154.16 140.483 154.704 140.472C155.248 140.461 155.723 140.456 156.128 140.456C156.331 140.456 156.512 140.461 156.672 140.472C156.832 140.472 156.96 140.472 157.056 140.472L156.928 143.096C156.725 143.085 156.517 143.08 156.304 143.08C156.091 143.08 155.861 143.08 155.616 143.08C154.891 143.08 154.128 143.096 153.328 143.128C152.528 143.16 151.755 143.208 151.008 143.272C150.965 143.613 150.923 143.96 150.88 144.312C150.848 144.664 150.811 145.011 150.768 145.352C151.152 145.16 151.541 145.032 151.936 144.968C152.341 144.904 152.725 144.872 153.088 144.872C153.963 144.872 154.725 145.053 155.376 145.416C156.037 145.768 156.549 146.264 156.912 146.904C157.275 147.544 157.456 148.291 157.456 149.144C157.456 150.2 157.243 151.112 156.816 151.88C156.4 152.637 155.797 153.219 155.008 153.624C154.229 154.04 153.296 154.248 152.208 154.248C151.205 154.248 150.24 154.019 149.312 153.56C148.395 153.112 147.648 152.493 147.072 151.704L148.848 149.768C149.904 151.016 151.029 151.64 152.224 151.64C153.077 151.64 153.728 151.427 154.176 151C154.624 150.573 154.848 149.971 154.848 149.192C154.848 148.573 154.667 148.099 154.304 147.768C153.941 147.437 153.419 147.272 152.736 147.272C152.16 147.272 151.712 147.357 151.392 147.528C151.072 147.699 150.837 147.885 150.688 148.088C150.549 148.291 150.459 148.445 150.416 148.552Z" fill="white"/>
<path d="M93.2521 7.43004C92.5751 7.67214 90.366 8.31199 88.3529 8.88266C79.0712 11.4766 76.1317 13.4999 74.2967 18.5322L73.8335 19.8119L69.7004 22.475C67.4201 23.9277 65.5495 25.1036 65.5495 25.0517C65.5495 25.0171 65.8702 24.481 66.2799 23.8931C67.2776 22.3886 68.2752 20.2961 69.0056 18.1864C69.647 16.3014 71.4998 9.40145 71.3751 9.29769C71.3394 9.26311 70.4487 9.74731 69.3976 10.3526C61.4342 15.0044 56.3925 19.8465 54.3259 24.8615C53.2036 27.5592 52.9898 29.8073 53.6133 32.1246L53.9874 33.4735L53.2214 34.1133C51.4577 35.5659 48.3044 38.4712 46.7188 40.0967C45.3114 41.5494 45.0977 41.7223 45.3827 41.1343C46.3982 39.111 47.378 35.5659 47.7343 32.6607C48.055 29.8592 47.8768 24.948 47.2889 20.6939L47.182 19.9503L45.1689 22.4232C41.98 26.3487 40.5726 28.1991 39.1474 30.3261C36.5464 34.1998 35.7803 36.1539 35.2459 40.2524C34.7649 44.0396 35.5665 49.4177 36.7602 50.3688C37.0274 50.5764 37.1343 50.5591 37.5797 50.2478C37.8647 50.0403 38.1497 49.8673 38.2032 49.8673C38.2566 49.8673 37.7044 50.6628 36.9739 51.6312C35.6022 53.4989 32.5736 58.1334 31.4512 60.1049C31.0771 60.762 30.7564 61.2808 30.7386 61.2808C30.703 61.2808 30.7564 60.8658 30.8633 60.3643C30.9524 59.8801 31.0415 58.0643 31.0415 56.3523C31.0415 51.8215 30.7386 50.3343 27.9595 41.7742C27.229 39.5606 26.5877 37.814 26.5342 37.8832C26.4095 38.0216 24.7705 42.9155 23.4344 47.1004C22.5614 49.85 21.4391 54.1214 21.0828 56.0929C20.8868 57.1477 20.7621 58.6695 20.7621 60.3297C20.7621 63.2176 21.065 64.8259 22.1161 67.2296C22.7218 68.5958 24.9309 72.5732 25.1268 72.6597C25.1981 72.6943 25.0556 73.2303 24.8062 73.8702C24.0401 75.7897 22.3299 80.822 21.9735 82.1536C21.7954 82.8453 21.5994 83.416 21.5282 83.416C21.4569 83.416 21.35 83.0528 21.2788 82.5859C21.1006 81.3581 19.4972 76.8619 18.4283 74.5619C17.9117 73.4379 17.11 72.0371 16.6646 71.4146C16.2192 70.792 14.9366 68.8206 13.8142 67.0394C11.231 62.8718 10.8569 62.7334 10.8569 65.8635C10.8569 66.6244 10.7678 68.4574 10.6787 69.9274C9.84141 82.2746 10.3224 87.134 12.7809 91.8031C13.7964 93.7054 15.5066 95.4693 17.4307 96.5587C18.7312 97.3024 18.7312 97.3196 18.6243 97.9422C18.3571 99.5505 17.9651 104.375 17.8582 107.315L17.7513 110.566L16.8784 108.975C15.7204 106.9 13.6004 103.58 12.2286 101.747C10.2333 99.049 9.03972 97.7693 7.04442 96.2129C5.9577 95.3655 4.51467 94.2415 3.8555 93.7227C2.0918 92.3219 1.75331 92.4257 2.19869 94.1896C2.34121 94.7776 2.87567 97.4407 3.37449 100.104C4.74626 107.54 5.65484 110.756 7.40073 114.353C9.57418 118.832 13.1016 122.343 17.6445 124.591L18.6599 125.075L18.8559 126.51C19.2835 129.398 20.2098 134.016 20.8334 136.402C21.0115 137.077 21.1362 137.647 21.1184 137.664C21.0828 137.699 20.7977 137.353 20.4771 136.921C19.4438 135.52 17.4129 133.67 15.667 132.528C14.7406 131.923 12.7809 130.609 11.3023 129.589C7.08005 126.683 0.452804 122.498 0.078685 122.498C-0.188543 122.498 0.167761 123.328 2.03836 127.15C4.88879 132.995 8.00644 138.927 9.34258 141.089C12.5671 146.328 17.2347 149.96 23.2919 151.983C24.3073 152.312 25.4297 152.588 25.7682 152.588C26.3561 152.588 26.4095 152.64 26.8549 153.678C27.5319 155.252 31.3443 162.515 32.2173 163.881C33.0011 165.126 32.9655 165.143 31.7541 164.244C29.8122 162.809 25.9285 160.716 22.704 159.35C20.2989 158.33 18.5708 157.776 15.5957 157.085C14.3308 156.791 12.1752 156.151 10.8212 155.701C7.16913 154.439 7.02661 154.681 9.57418 157.707C10.5184 158.849 12.1218 160.82 13.1016 162.1C15.4176 165.091 17.4485 167.27 19.9782 169.484C25.0378 173.911 27.2468 175.225 31.665 176.453C35.2993 177.473 37.1877 177.646 40.145 177.3L41.7306 177.11L42.1938 177.698C43.9753 179.912 48.2331 184.2 51.9209 187.503L53.3461 188.783L50.6382 187.451C47.5918 185.964 47.1286 185.843 41.2318 185.03C32.5914 183.837 23.47 183.111 22.3833 183.509C22.1161 183.63 22.1517 183.716 22.7396 184.252C24.0045 185.428 31.5937 190.789 34.4442 192.536C36.7067 193.919 38.8623 194.939 41.6771 195.96C46.701 197.775 48.732 198.139 53.0967 198.017C56.6953 197.914 57.8711 197.706 60.7394 196.599L62.806 195.804L65.2644 197.291C67.9367 198.917 72.2658 201.269 74.1008 202.099C77.0937 203.447 77.4322 203.62 76.7731 203.517C76.4346 203.465 74.2789 203.378 71.9986 203.309C66.3334 203.171 64.9972 203.326 55.9293 205.056C53.2392 205.575 49.5336 206.249 47.6987 206.578C43.7615 207.252 43.5121 207.442 45.7568 208.065C46.5229 208.272 49.3555 209.12 52.0278 209.932C61.1848 212.699 62.9663 213.011 69.2907 213.028C73.3525 213.028 74.0473 212.993 75.7576 212.63C79.8551 211.8 82.6343 210.52 85.1284 208.341C86.2329 207.373 86.7139 207.044 86.999 207.114C87.1949 207.148 88.5845 207.511 90.0632 207.909C91.5418 208.307 94.0538 208.895 95.6393 209.206C97.2071 209.517 98.5432 209.811 98.5967 209.863C98.6323 209.898 98.2582 210.036 97.7415 210.157C95.3721 210.745 88.9408 213.668 79.4453 218.458C74.0651 221.173 72.4262 222.124 72.729 222.314C73.2813 222.66 82.4561 222.314 87.7294 221.744C94.2319 221.052 102.587 218.233 106.008 215.57C107.273 214.584 108.591 213.305 109.927 211.783L110.568 211.039H114.221H117.891L120.438 213.408C124.838 217.489 125.533 217.853 133.425 220.17C137.95 221.501 139.304 221.709 148.052 222.297C155.908 222.833 156.407 222.833 156.407 222.262C156.407 221.83 151.686 219.357 148.746 218.25C147.82 217.905 146.288 217.144 145.362 216.556C142.939 215.034 140.926 213.979 138.503 212.941C136.294 212.008 130.361 210.002 129.827 210.002C129.649 210.002 129.506 209.95 129.506 209.863C129.506 209.794 130.326 209.587 131.341 209.414C133.497 209.033 137.933 207.961 140.516 207.2C141.513 206.906 142.351 206.699 142.386 206.733C142.404 206.768 142.547 207.027 142.689 207.321C143.58 208.999 149.548 211.99 153.557 212.751C156.674 213.356 163.319 213.305 166.74 212.682C169.822 212.094 180.742 208.86 182.417 208.013C183.148 207.65 183.112 207.148 182.381 206.906C181.455 206.629 175.22 205.402 170.837 204.658C163.711 203.43 161.627 203.188 158.01 203.188C154.821 203.188 154.038 203.275 149.851 204.035C149.584 204.087 149.78 203.949 150.261 203.741C154.501 201.943 161.057 198.432 165.261 195.683C167.345 194.317 167.417 194.299 167.203 194.836C166.775 195.839 167.274 196.444 169.091 197.101C171.158 197.862 173.135 198.139 176.36 198.139C179.585 198.139 180.867 197.948 184.288 196.945C187.405 196.029 189.81 194.974 192.768 193.227C197.703 190.322 204.508 185.791 205.559 184.684C206.093 184.131 205.951 183.768 205.131 183.612C204.08 183.422 192.501 184.269 188.207 184.857C182.952 185.566 178.159 187.036 174.578 189.06L173.599 189.613L174.578 188.783C178.444 185.515 182.275 181.727 185.695 177.802C186.657 176.695 186.728 176.643 187.103 176.868C188.759 177.871 193.338 177.542 198.077 176.072C200.428 175.346 201.907 174.585 204.419 172.839C210.298 168.757 212.543 166.561 216.052 161.477C217.531 159.333 218.724 157.949 220.061 156.894C221.308 155.891 221.628 155.425 221.236 155.165C220.898 154.94 220.15 155.079 217.424 155.874C216.159 156.237 213.95 156.825 212.525 157.188C209.87 157.846 207.911 158.503 205.577 159.558C202.37 160.993 198.094 163.552 195.44 165.627C193.997 166.751 193.961 166.769 194.371 166.129C196.562 162.688 200.001 156.341 201.212 153.488C201.479 152.865 201.729 152.537 201.871 152.588C203.207 153.038 208.196 151.188 211.848 148.87C214.021 147.47 217.121 144.582 218.279 142.818C220.47 139.48 226.652 127.531 227.775 124.453C228.291 123.035 228.024 123.017 225.868 124.262C223.356 125.732 215.536 130.782 213.237 132.442C211.117 133.981 208.516 136.419 207.305 138.045C206.842 138.65 206.468 139.1 206.468 139.065C206.468 139.013 206.699 138.097 207.002 137.007C207.643 134.569 208.481 130.592 208.962 127.513C209.176 126.234 209.354 125.179 209.371 125.179C209.389 125.162 209.728 125.058 210.138 124.954C211.171 124.66 214.591 122.637 215.892 121.547C218.137 119.628 219.74 117.553 221.272 114.544C222.982 111.206 224.069 107.54 225.174 101.366C225.565 99.1527 226.153 96.3512 226.456 95.158C227.222 92.1144 227.026 91.7858 225.227 93.2385C222.929 95.1234 216.48 101.885 214.306 104.704C212.988 106.416 211.741 108.543 210.921 110.445L210.262 111.95L210.155 108.197C210.048 104.911 209.728 100.675 209.389 98.0805C209.282 97.3196 209.3 97.2851 209.639 97.3715C210.334 97.5445 211.67 96.7144 213.433 95.0197C214.93 93.567 215.251 93.152 215.945 91.7167C217.353 88.846 218.083 86.0445 218.404 82.2573C218.707 78.6085 218.618 75.6168 217.958 67.5063C217.531 62.3011 217.816 62.4567 215.482 66.1402C211.741 72.0717 208.908 77.2769 208.053 79.8709C207.732 80.8739 207.643 81.6002 207.572 84.1596C207.537 85.8543 207.465 87.2205 207.43 87.1859C207.394 87.1513 207.091 86.0272 206.735 84.713C205.933 81.6867 204.259 76.5852 203.101 73.68C202.513 72.1927 202.334 71.5529 202.53 71.7258C203.332 72.4349 204.241 71.7258 205.488 69.374C206.414 67.6274 207.554 64.4281 208 62.3184C208.516 59.7936 208.142 57.0786 206.361 50.6455C205.452 47.3598 203.029 40.114 202.726 39.7509C202.139 39.0591 201.283 40.5982 199.342 45.8035C198.469 48.1726 198.255 49.4523 198.059 54.035C197.916 57.1823 197.899 59.1192 198.041 60.6928C198.13 61.9206 198.201 62.9409 198.184 62.9755C198.148 63.0101 197.685 62.2146 197.15 61.2289C195.102 57.5282 192.055 52.9109 189.383 49.4523C187.975 47.6192 187.922 47.2907 189.276 48.6568C189.668 49.0546 190.381 49.6598 190.862 50.0057L191.734 50.6282L192.144 50.1613C192.999 49.1929 193.516 46.3741 193.516 42.6907C193.516 36.69 191.948 32.9028 186.8 26.4352C185.784 25.1555 181.705 20.2961 181.134 19.6909C180.974 19.5179 181.063 23.3743 181.366 30.8622C181.526 35.1336 181.776 37.105 182.328 38.7133C182.667 39.6817 183.931 42.293 184.644 43.4689C184.911 43.9012 185 44.0914 184.84 43.9185C182.898 41.6012 177.732 36.5689 174.881 34.1652C174.276 33.6637 174.222 33.5772 174.472 33.3351C174.97 32.8682 175.184 31.6577 175.184 29.4615C175.184 26.954 174.953 25.8645 174.097 24.1871C172.548 21.1608 168.913 17.0969 165.172 14.2089C162.945 12.4969 158.58 9.74731 158.064 9.74731C157.529 9.74731 158.046 12.5142 159.525 17.339C160.665 21.0743 161.413 22.5096 163.693 25.3803C164.495 26.3833 164.566 26.5389 164.139 26.2622C163.854 26.0893 162.5 25.3457 161.128 24.6021C158.01 22.942 155.481 21.5239 155.267 21.3337C155.178 21.2472 155.035 20.6939 154.946 20.0886C154.608 17.7021 152.594 14.7969 149.94 12.8428C147.446 11.0097 145.094 10.1105 136.472 7.65485C133.728 6.87666 133.247 6.82478 133.247 7.32628C133.247 8.08718 138.039 14.2781 141.032 17.3563C143.491 19.8984 146.876 21.7314 150.421 22.475C151.561 22.6999 151.953 22.9247 155.374 25.2592C157.405 26.6427 159.061 27.8186 159.026 27.8532C158.99 27.8705 158.046 27.8359 156.941 27.7494C154.501 27.5592 152.345 27.7322 149.495 28.3547C146.911 28.9081 143.295 29.963 141.175 30.7584C136.632 32.4705 137.149 32.7472 146.876 33.7847C149.619 34.0787 151.989 34.3554 152.131 34.39C152.274 34.4419 153.877 34.5456 155.677 34.6494C159.311 34.8569 164.905 34.6321 166.918 34.2344L168.076 33.9923L170.125 35.6178C171.247 36.4998 172.69 37.693 173.331 38.2464L174.489 39.284L172.886 38.8689C169.661 38.0388 167.737 37.8486 162.464 37.8659C157.137 37.8832 156.015 38.0216 155.908 38.7306C155.837 39.2494 156.282 39.5434 158.723 40.5809C159.952 41.0997 162.749 42.3621 164.958 43.3824C168.913 45.2155 172.833 46.7892 174.792 47.3425C176.289 47.7576 179.602 48.2764 181.669 48.4147L183.522 48.5358L185.392 50.9049C186.408 52.2192 187.744 53.9831 188.35 54.8132C189.294 56.1447 189.383 56.3004 188.92 56.0064C184.983 53.4816 176.307 50.4207 172.156 50.0921C170.802 49.9884 170.499 50.1267 170.819 50.7147C171.176 51.3373 183.807 61.7131 186.354 63.4597C190.006 65.9845 194.246 68.3364 195.85 68.7341L196.651 68.9244L197.489 70.7747C198.344 72.6424 200.589 78.2972 200.589 78.5739C200.589 78.6604 199.68 77.8303 198.593 76.7235C196.081 74.2333 194.068 72.7461 190.683 70.8612C185.659 68.0597 182.417 66.6935 182.417 67.368C182.417 67.7311 183.29 68.9589 184.573 70.3597C186.711 72.7461 189.312 76.4814 191.574 80.4589C192.144 81.4446 192.892 82.6551 193.267 83.1393C195.404 85.9408 199.431 89.728 202.406 91.7513C203.279 92.3565 204.116 92.9099 204.259 93.0137C204.65 93.2731 205.417 98.4956 205.915 104.168C205.987 105.067 206.04 105.828 206.022 105.862C206.004 105.88 205.719 105.188 205.399 104.306C204.633 102.127 203.475 100 202.281 98.5475C201.034 97.043 191.164 87.134 190.897 87.134C190.523 87.134 190.755 88.2062 192.02 92.4084C194.656 101.107 196.384 105.69 198.629 109.961C200.41 113.385 202.584 116.498 204.864 118.919L205.808 119.922L205.684 121.34C205.399 124.47 204.205 132.01 203.973 132.01C203.902 132.01 203.795 131.525 203.742 130.92C203.403 127.41 201.372 122.965 196.527 115.149C194.514 111.88 193.498 110.532 193.142 110.601C192.696 110.687 192.679 112.209 193.017 117.743C193.623 127.894 194.157 133.514 194.745 135.728C195.547 138.875 197.845 143.821 199.359 145.688L199.858 146.311L198.825 148.801C197.15 152.813 193.997 159.194 193.997 158.555C193.997 158.451 194.086 157.258 194.175 155.891C194.531 150.755 193.498 143.821 191.485 137.976C190.701 135.676 190.078 134.604 189.543 134.604C189.062 134.604 188.884 135.019 188.742 136.592C188.581 138.373 187.975 141.434 186.782 146.536C184.822 154.871 184.466 157.258 184.608 161.373C184.715 164.469 184.911 165.524 186.016 168.619L186.586 170.21L185.054 172.164C183.468 174.188 180.101 178.061 179.727 178.286C179.567 178.372 179.549 178.286 179.638 177.992C179.87 177.162 180.457 173.565 180.636 171.801C180.903 169.19 180.849 163.379 180.547 159.592C180.386 157.794 180.244 156.22 180.208 156.134C180.172 156.03 179.531 157.171 178.765 158.641C176.681 162.688 173.955 167.495 172.583 169.588C169.109 174.897 168.307 177.802 167.88 186.569L167.773 189.008L166.668 189.786C164.246 191.55 158.723 195.129 158.456 195.129C158.402 195.129 158.687 194.628 159.079 194.023C161.039 191.031 162.999 186.137 163.961 181.848C164.353 180.136 165.136 175.191 165.029 175.087C164.905 174.948 155.356 184.252 152.612 187.175C147.375 192.778 145.076 196.617 144.56 200.681L144.435 201.649L142.012 202.444C140.053 203.084 135.189 204.468 134.904 204.468C134.868 204.468 135.634 203.69 136.614 202.738C140.32 199.142 143.847 193.902 144.702 190.72C145.29 188.472 145.54 188.558 142.565 190.011C140.213 191.135 138.004 192.051 133.336 193.781C132.552 194.075 130.949 194.784 129.773 195.372C127.849 196.323 127.457 196.599 125.836 198.156C122.879 201.026 120.402 204.589 120.349 206.024L120.331 206.664L119.013 206.785C117.018 206.941 109.446 206.906 108.983 206.733C108.698 206.629 108.448 206.249 108.146 205.488C107.576 204.001 106.471 201.857 105.776 200.871C104.85 199.539 102.801 197.672 101.126 196.617C99.3093 195.458 97.1714 194.455 94.0538 193.314C89.8672 191.792 85.9301 190.045 83.9169 188.869L83.329 188.506L83.4537 189.094C84.3623 193.054 87.6759 198.087 92.5395 202.877C93.6262 203.949 94.3923 204.779 94.2498 204.744C94.0894 204.693 92.8424 204.381 91.4706 204.035C90.0988 203.69 87.8897 203.067 86.5536 202.635L84.1307 201.874L84.006 200.784C83.5072 196.478 82.0998 193.884 77.3788 188.731C75.6863 186.898 63.7502 174.862 63.6789 174.931C63.5186 175.069 64.5518 180.534 65.1932 182.972C66.6362 188.541 68.2752 192.397 70.4843 195.441C70.7337 195.787 70.6268 195.752 69.6292 195.199C68.1149 194.351 63.8392 191.619 62.1112 190.374C61.1135 189.665 60.7394 189.302 60.8285 189.111C60.8819 188.973 61.0244 188.247 61.1135 187.538C61.6123 184.166 60.5434 178.874 58.3343 173.755C57.4436 171.697 56.8201 170.573 55.0207 167.685C53.8449 165.818 50.9767 160.647 49.5871 157.897C49.213 157.171 48.821 156.566 48.6963 156.566C48.3757 156.566 48.2688 158.9 48.2688 165.991C48.2688 174.654 48.3935 175.969 49.6227 179.566C49.8009 180.067 45.8993 175.83 43.4052 172.77L41.8731 170.919L42.3185 169.933C43.2627 167.858 44.1713 162.912 44.1713 159.8C44.1713 156.808 43.5299 153.021 41.6059 144.685C40.4301 139.584 39.7709 136.195 39.6818 134.777C39.6462 134.189 39.5571 133.981 39.3077 133.946C39.0761 133.895 38.8267 134.223 38.3101 135.33C37.1699 137.699 35.8872 142.489 34.7827 148.438C34.1591 151.862 34.1235 155.563 34.6936 158.641C34.9074 159.73 35.0321 160.647 35.0143 160.682C34.9786 160.699 34.0344 158.952 32.9121 156.791C31.1127 153.315 29.1709 149.078 28.4761 147.193L28.2623 146.57L29.349 145.395C31.2018 143.44 33.5356 138.408 34.1057 135.157C34.8361 130.989 36.2079 112.434 35.8694 111.396C35.7269 110.947 35.4062 111.016 34.8005 111.638C32.7874 113.731 27.2825 123.259 26.1067 126.666C25.4831 128.482 24.9487 131.266 24.8062 133.341C24.7527 134.327 24.6636 135.105 24.628 135.071C24.343 134.777 22.8465 126.372 22.4189 122.637L22.2051 120.769L22.6683 120.423C23.9688 119.42 29.7053 111.396 31.0058 108.75C32.5201 105.672 38.1497 88.2926 37.9003 87.5317C37.7934 87.2551 35.3349 89.434 31.7897 92.9445C25.5366 99.1008 24.1648 101.245 22.0983 107.972C21.5994 109.563 22.2408 101.193 23.0068 96.161L23.3809 93.6016L24.1114 93.2385C25.3584 92.6332 28.1198 90.5407 29.8835 88.8806C33.1793 85.7851 35.4953 82.9145 39.86 76.4987C41.3743 74.2679 43.3874 71.4146 44.3494 70.1695C45.3114 68.9244 46.1844 67.7311 46.2913 67.5409C46.5763 67.0394 46.5407 66.6417 46.22 66.6417C45.4896 66.6417 38.8267 70.2732 34.5511 73.0228C32.4311 74.3717 29.545 76.9138 28.1198 78.6777C27.6922 79.2138 27.1934 79.819 27.0331 80.0265C26.463 80.701 29.6341 72.3657 30.8633 69.9274C31.2196 69.2529 31.3443 69.1319 32.1282 68.9416C33.2684 68.665 36.2613 67.2642 38.6486 65.8635C42.5145 63.5981 46.1488 60.9522 49.7831 57.753C50.9589 56.7154 52.8829 55.0899 54.0587 54.1387C57.1764 51.6312 57.9246 50.9222 57.8533 50.4899C57.7821 49.9711 57.016 49.9538 54.7713 50.3861C48.9814 51.5275 43.815 53.5508 39.5571 56.3696C38.6486 56.9748 37.8647 57.4763 37.8291 57.4763C37.544 57.4763 43.5477 49.435 44.2782 48.8125C44.5454 48.5876 45.1689 48.5012 46.9326 48.432C52.0634 48.2072 56.4994 46.9102 63.0554 43.7283C64.6765 42.9501 67.2419 41.7742 68.7562 41.1343C70.2705 40.4945 71.7848 39.7682 72.1055 39.5434C73.7623 38.3328 71.8026 37.7622 65.9949 37.7622C60.9175 37.7622 56.4103 38.3674 53.453 39.4569C53.061 39.5952 56.25 36.8629 58.459 35.1509C59.6705 34.2171 60.3475 33.802 60.5434 33.8712C61.4876 34.2344 63.9996 34.6667 65.9949 34.8396C68.8631 35.0644 71.8382 34.8742 78.9109 34.0441C81.7079 33.6983 85.2709 33.3351 86.8386 33.2141C89.6356 32.9893 90.5798 32.7644 90.4373 32.3494C90.1523 31.5021 84.2554 29.3231 79.8016 28.4239C76.3099 27.7322 71.3929 27.5592 68.7562 28.0607C68.3108 28.1472 67.9367 28.1991 67.9011 28.1818C67.8833 28.1472 69.4154 26.954 71.3038 25.5359L74.7421 22.9247L76.7018 22.7344C80.9774 22.3194 83.9526 20.7284 88.1926 16.63C90.5798 14.3127 92.7176 11.8571 94.0538 9.88566C95.1761 8.26011 95.4256 7.60297 95.1049 7.22252C94.8377 6.91124 94.7486 6.92854 93.2521 7.43004Z" fill="white"/>
</svg>
