<svg width="248" height="236" viewBox="0 0 248 236" fill="none" xmlns="http://www.w3.org/2000/svg">
<path d="M103.252 10.43C102.575 10.6721 100.366 11.312 98.3529 11.8827C89.0712 14.4766 86.1317 16.4999 84.2967 21.5322L83.8335 22.8119L79.7004 25.475C77.4201 26.9277 75.5495 28.1036 75.5495 28.0517C75.5495 28.0171 75.8702 27.481 76.2799 26.8931C77.2776 25.3886 78.2752 23.2961 79.0056 21.1864C79.647 19.3014 81.4998 12.4015 81.3751 12.2977C81.3394 12.2631 80.4487 12.7473 79.3976 13.3526C71.4342 18.0044 66.3925 22.8465 64.3259 27.8615C63.2036 30.5592 62.9898 32.8073 63.6133 35.1246L63.9874 36.4735L63.2214 37.1133C61.4577 38.5659 58.3044 41.4712 56.7188 43.0967C55.3114 44.5494 55.0977 44.7223 55.3827 44.1343C56.3982 42.111 57.378 38.5659 57.7343 35.6607C58.055 32.8592 57.8768 27.948 57.2889 23.6939L57.182 22.9503L55.1689 25.4232C51.98 29.3487 50.5726 31.1991 49.1474 33.3261C46.5464 37.1998 45.7803 39.1539 45.2459 43.2524C44.7649 47.0396 45.5665 52.4177 46.7602 53.3688C47.0274 53.5764 47.1343 53.5591 47.5797 53.2478C47.8647 53.0403 48.1497 52.8673 48.2032 52.8673C48.2566 52.8673 47.7044 53.6628 46.9739 54.6312C45.6022 56.4989 42.5736 61.1334 41.4512 63.1049C41.0771 63.762 40.7564 64.2808 40.7386 64.2808C40.703 64.2808 40.7564 63.8658 40.8633 63.3643C40.9524 62.8801 41.0415 61.0643 41.0415 59.3523C41.0415 54.8215 40.7386 53.3343 37.9595 44.7742C37.229 42.5606 36.5877 40.814 36.5342 40.8832C36.4095 41.0216 34.7705 45.9155 33.4344 50.1004C32.5614 52.85 31.4391 57.1214 31.0828 59.0929C30.8868 60.1477 30.7621 61.6695 30.7621 63.3297C30.7621 66.2176 31.065 67.8259 32.1161 70.2296C32.7218 71.5958 34.9309 75.5732 35.1268 75.6597C35.1981 75.6943 35.0556 76.2303 34.8062 76.8702C34.0401 78.7897 32.3299 83.822 31.9735 85.1536C31.7954 85.8453 31.5994 86.416 31.5282 86.416C31.4569 86.416 31.35 86.0528 31.2788 85.5859C31.1006 84.3581 29.4972 79.8619 28.4283 77.5619C27.9117 76.4379 27.11 75.0371 26.6646 74.4146C26.2192 73.792 24.9366 71.8206 23.8142 70.0394C21.231 65.8718 20.8569 65.7334 20.8569 68.8635C20.8569 69.6244 20.7678 71.4574 20.6787 72.9274C19.8414 85.2746 20.3224 90.134 22.7809 94.8031C23.7964 96.7054 25.5066 98.4693 27.4307 99.5587C28.7312 100.302 28.7312 100.32 28.6243 100.942C28.3571 102.55 27.9651 107.375 27.8582 110.315L27.7513 113.566L26.8784 111.975C25.7204 109.9 23.6004 106.58 22.2286 104.747C20.2333 102.049 19.0397 100.769 17.0444 99.2129C15.9577 98.3655 14.5147 97.2415 13.8555 96.7227C12.0918 95.3219 11.7533 95.4257 12.1987 97.1896C12.3412 97.7776 12.8757 100.441 13.3745 103.104C14.7463 110.54 15.6548 113.756 17.4007 117.353C19.5742 121.832 23.1016 125.343 27.6445 127.591L28.6599 128.075L28.8559 129.51C29.2835 132.398 30.2098 137.016 30.8334 139.402C31.0115 140.077 31.1362 140.647 31.1184 140.664C31.0828 140.699 30.7977 140.353 30.4771 139.921C29.4438 138.52 27.4129 136.67 25.667 135.528C24.7406 134.923 22.7809 133.609 21.3023 132.589C17.0801 129.683 10.4528 125.498 10.0787 125.498C9.81146 125.498 10.1678 126.328 12.0384 130.15C14.8888 135.995 18.0064 141.927 19.3426 144.089C22.5671 149.328 27.2347 152.96 33.2919 154.983C34.3073 155.312 35.4297 155.588 35.7682 155.588C36.3561 155.588 36.4095 155.64 36.8549 156.678C37.5319 158.252 41.3443 165.515 42.2173 166.881C43.0011 168.126 42.9655 168.143 41.7541 167.244C39.8122 165.809 35.9285 163.716 32.704 162.35C30.2989 161.33 28.5708 160.776 25.5957 160.085C24.3308 159.791 22.1752 159.151 20.8212 158.701C17.1691 157.439 17.0266 157.681 19.5742 160.707C20.5184 161.849 22.1218 163.82 23.1016 165.1C25.4176 168.091 27.4485 170.27 29.9782 172.484C35.0378 176.911 37.2468 178.225 41.665 179.453C45.2993 180.473 47.1877 180.646 50.145 180.3L51.7306 180.11L52.1938 180.698C53.9753 182.912 58.2331 187.2 61.9209 190.503L63.3461 191.783L60.6382 190.451C57.5918 188.964 57.1286 188.843 51.2318 188.03C42.5914 186.837 33.47 186.111 32.3833 186.509C32.1161 186.63 32.1517 186.716 32.7396 187.252C34.0045 188.428 41.5937 193.789 44.4442 195.536C46.7067 196.919 48.8623 197.939 51.6771 198.96C56.701 200.775 58.732 201.139 63.0967 201.017C66.6953 200.914 67.8711 200.706 70.7394 199.599L72.806 198.804L75.2644 200.291C77.9367 201.917 82.2658 204.269 84.1008 205.099C87.0937 206.447 87.4322 206.62 86.7731 206.517C86.4346 206.465 84.2789 206.378 81.9986 206.309C76.3334 206.171 74.9972 206.326 65.9293 208.056C63.2392 208.575 59.5336 209.249 57.6987 209.578C53.7615 210.252 53.5121 210.442 55.7568 211.065C56.5229 211.272 59.3555 212.12 62.0278 212.932C71.1848 215.699 72.9663 216.011 79.2907 216.028C83.3525 216.028 84.0473 215.993 85.7576 215.63C89.8551 214.8 92.6343 213.52 95.1284 211.341C96.2329 210.373 96.7139 210.044 96.999 210.114C97.1949 210.148 98.5845 210.511 100.063 210.909C101.542 211.307 104.054 211.895 105.639 212.206C107.207 212.517 108.543 212.811 108.597 212.863C108.632 212.898 108.258 213.036 107.742 213.157C105.372 213.745 98.9408 216.668 89.4453 221.458C84.0651 224.173 82.4262 225.124 82.729 225.314C83.2813 225.66 92.4561 225.314 97.7294 224.744C104.232 224.052 112.587 221.233 116.008 218.57C117.273 217.584 118.591 216.305 119.927 214.783L120.568 214.039H124.221H127.891L130.438 216.408C134.838 220.489 135.533 220.853 143.425 223.17C147.95 224.501 149.304 224.709 158.052 225.297C165.908 225.833 166.407 225.833 166.407 225.262C166.407 224.83 161.686 222.357 158.746 221.25C157.82 220.905 156.288 220.144 155.362 219.556C152.939 218.034 150.926 216.979 148.503 215.941C146.294 215.008 140.361 213.002 139.827 213.002C139.649 213.002 139.506 212.95 139.506 212.863C139.506 212.794 140.326 212.587 141.341 212.414C143.497 212.033 147.933 210.961 150.516 210.2C151.513 209.906 152.351 209.699 152.386 209.733C152.404 209.768 152.547 210.027 152.689 210.321C153.58 211.999 159.548 214.99 163.557 215.751C166.674 216.356 173.319 216.305 176.74 215.682C179.822 215.094 190.742 211.86 192.417 211.013C193.148 210.65 193.112 210.148 192.381 209.906C191.455 209.629 185.22 208.402 180.837 207.658C173.711 206.43 171.627 206.188 168.01 206.188C164.821 206.188 164.038 206.275 159.851 207.035C159.584 207.087 159.78 206.949 160.261 206.741C164.501 204.943 171.057 201.432 175.261 198.683C177.345 197.317 177.417 197.299 177.203 197.836C176.775 198.839 177.274 199.444 179.091 200.101C181.158 200.862 183.135 201.139 186.36 201.139C189.585 201.139 190.867 200.948 194.288 199.945C197.405 199.029 199.81 197.974 202.768 196.227C207.703 193.322 214.508 188.791 215.559 187.684C216.093 187.131 215.951 186.768 215.131 186.612C214.08 186.422 202.501 187.269 198.207 187.857C192.952 188.566 188.159 190.036 184.578 192.06L183.599 192.613L184.578 191.783C188.444 188.515 192.275 184.727 195.695 180.802C196.657 179.695 196.728 179.643 197.103 179.868C198.759 180.871 203.338 180.542 208.077 179.072C210.428 178.346 211.907 177.585 214.419 175.839C220.298 171.757 222.543 169.561 226.052 164.477C227.531 162.333 228.724 160.949 230.061 159.894C231.308 158.891 231.628 158.425 231.236 158.165C230.898 157.94 230.15 158.079 227.424 158.874C226.159 159.237 223.95 159.825 222.525 160.188C219.87 160.846 217.911 161.503 215.577 162.558C212.37 163.993 208.094 166.552 205.44 168.627C203.997 169.751 203.961 169.769 204.371 169.129C206.562 165.688 210.001 159.341 211.212 156.488C211.479 155.865 211.729 155.537 211.871 155.588C213.207 156.038 218.196 154.188 221.848 151.87C224.021 150.47 227.121 147.582 228.279 145.818C230.47 142.48 236.652 130.531 237.775 127.453C238.291 126.035 238.024 126.017 235.868 127.262C233.356 128.732 225.536 133.782 223.237 135.442C221.117 136.981 218.516 139.419 217.305 141.045C216.842 141.65 216.468 142.1 216.468 142.065C216.468 142.013 216.699 141.097 217.002 140.007C217.643 137.569 218.481 133.592 218.962 130.513C219.176 129.234 219.354 128.179 219.371 128.179C219.389 128.162 219.728 128.058 220.138 127.954C221.171 127.66 224.591 125.637 225.892 124.547C228.137 122.628 229.74 120.553 231.272 117.544C232.982 114.206 234.069 110.54 235.174 104.366C235.565 102.153 236.153 99.3512 236.456 98.158C237.222 95.1144 237.026 94.7858 235.227 96.2385C232.929 98.1234 226.48 104.885 224.306 107.704C222.988 109.416 221.741 111.543 220.921 113.445L220.262 114.95L220.155 111.197C220.048 107.911 219.728 103.675 219.389 101.081C219.282 100.32 219.3 100.285 219.639 100.372C220.334 100.544 221.67 99.7144 223.433 98.0197C224.93 96.567 225.251 96.152 225.945 94.7167C227.353 91.846 228.083 89.0445 228.404 85.2573C228.707 81.6085 228.618 78.6168 227.958 70.5063C227.531 65.3011 227.816 65.4567 225.482 69.1402C221.741 75.0717 218.908 80.2769 218.053 82.8709C217.732 83.8739 217.643 84.6002 217.572 87.1596C217.537 88.8543 217.465 90.2205 217.43 90.1859C217.394 90.1513 217.091 89.0272 216.735 87.713C215.933 84.6867 214.259 79.5852 213.101 76.68C212.513 75.1927 212.334 74.5529 212.53 74.7258C213.332 75.4349 214.241 74.7258 215.488 72.374C216.414 70.6274 217.554 67.4281 218 65.3184C218.516 62.7936 218.142 60.0786 216.361 53.6455C215.452 50.3598 213.029 43.114 212.726 42.7509C212.139 42.0591 211.283 43.5982 209.342 48.8035C208.469 51.1726 208.255 52.4523 208.059 57.035C207.916 60.1823 207.899 62.1192 208.041 63.6928C208.13 64.9206 208.201 65.9409 208.184 65.9755C208.148 66.0101 207.685 65.2146 207.15 64.2289C205.102 60.5282 202.055 55.9109 199.383 52.4523C197.975 50.6192 197.922 50.2907 199.276 51.6568C199.668 52.0546 200.381 52.6598 200.862 53.0057L201.734 53.6282L202.144 53.1613C202.999 52.1929 203.516 49.3741 203.516 45.6907C203.516 39.69 201.948 35.9028 196.8 29.4352C195.784 28.1555 191.705 23.2961 191.134 22.6909C190.974 22.5179 191.063 26.3743 191.366 33.8622C191.526 38.1336 191.776 40.105 192.328 41.7133C192.667 42.6817 193.931 45.293 194.644 46.4689C194.911 46.9012 195 47.0914 194.84 46.9185C192.898 44.6012 187.732 39.5689 184.881 37.1652C184.276 36.6637 184.222 36.5772 184.472 36.3351C184.97 35.8682 185.184 34.6577 185.184 32.4615C185.184 29.954 184.953 28.8645 184.097 27.1871C182.548 24.1608 178.913 20.0969 175.172 17.2089C172.945 15.4969 168.58 12.7473 168.064 12.7473C167.529 12.7473 168.046 15.5142 169.525 20.339C170.665 24.0743 171.413 25.5096 173.693 28.3803C174.495 29.3833 174.566 29.5389 174.139 29.2622C173.854 29.0893 172.5 28.3457 171.128 27.6021C168.01 25.942 165.481 24.5239 165.267 24.3337C165.178 24.2472 165.035 23.6939 164.946 23.0886C164.608 20.7021 162.594 17.7969 159.94 15.8428C157.446 14.0097 155.094 13.1105 146.472 10.6548C143.728 9.87666 143.247 9.82478 143.247 10.3263C143.247 11.0872 148.039 17.2781 151.032 20.3563C153.491 22.8984 156.876 24.7314 160.421 25.475C161.561 25.6999 161.953 25.9247 165.374 28.2592C167.405 29.6427 169.061 30.8186 169.026 30.8532C168.99 30.8705 168.046 30.8359 166.941 30.7494C164.501 30.5592 162.345 30.7322 159.495 31.3547C156.911 31.9081 153.295 32.963 151.175 33.7584C146.632 35.4705 147.149 35.7472 156.876 36.7847C159.619 37.0787 161.989 37.3554 162.131 37.39C162.274 37.4419 163.877 37.5456 165.677 37.6494C169.311 37.8569 174.905 37.6321 176.918 37.2344L178.076 36.9923L180.125 38.6178C181.247 39.4998 182.69 40.693 183.331 41.2464L184.489 42.284L182.886 41.8689C179.661 41.0388 177.737 40.8486 172.464 40.8659C167.137 40.8832 166.015 41.0216 165.908 41.7306C165.837 42.2494 166.282 42.5434 168.723 43.5809C169.952 44.0997 172.749 45.3621 174.958 46.3824C178.913 48.2155 182.833 49.7892 184.792 50.3425C186.289 50.7576 189.602 51.2764 191.669 51.4147L193.522 51.5358L195.392 53.9049C196.408 55.2192 197.744 56.9831 198.35 57.8132C199.294 59.1447 199.383 59.3004 198.92 59.0064C194.983 56.4816 186.307 53.4207 182.156 53.0921C180.802 52.9884 180.499 53.1267 180.819 53.7147C181.176 54.3373 193.807 64.7131 196.354 66.4597C200.006 68.9845 204.246 71.3364 205.85 71.7341L206.651 71.9244L207.489 73.7747C208.344 75.6424 210.589 81.2972 210.589 81.5739C210.589 81.6604 209.68 80.8303 208.593 79.7235C206.081 77.2333 204.068 75.7461 200.683 73.8612C195.659 71.0597 192.417 69.6935 192.417 70.368C192.417 70.7311 193.29 71.9589 194.573 73.3597C196.711 75.7461 199.312 79.4814 201.574 83.4589C202.144 84.4446 202.892 85.6551 203.267 86.1393C205.404 88.9408 209.431 92.728 212.406 94.7513C213.279 95.3565 214.116 95.9099 214.259 96.0137C214.65 96.2731 215.417 101.496 215.915 107.168C215.987 108.067 216.04 108.828 216.022 108.862C216.004 108.88 215.719 108.188 215.399 107.306C214.633 105.127 213.475 103 212.281 101.547C211.034 100.043 201.164 90.134 200.897 90.134C200.523 90.134 200.755 91.2062 202.02 95.4084C204.656 104.107 206.384 108.69 208.629 112.961C210.41 116.385 212.584 119.498 214.864 121.919L215.808 122.922L215.684 124.34C215.399 127.47 214.205 135.01 213.973 135.01C213.902 135.01 213.795 134.525 213.742 133.92C213.403 130.41 211.372 125.965 206.527 118.149C204.514 114.88 203.498 113.532 203.142 113.601C202.696 113.687 202.679 115.209 203.017 120.743C203.623 130.894 204.157 136.514 204.745 138.728C205.547 141.875 207.845 146.821 209.359 148.688L209.858 149.311L208.825 151.801C207.15 155.813 203.997 162.194 203.997 161.555C203.997 161.451 204.086 160.258 204.175 158.891C204.531 153.755 203.498 146.821 201.485 140.976C200.701 138.676 200.078 137.604 199.543 137.604C199.062 137.604 198.884 138.019 198.742 139.592C198.581 141.373 197.975 144.434 196.782 149.536C194.822 157.871 194.466 160.258 194.608 164.373C194.715 167.469 194.911 168.524 196.016 171.619L196.586 173.21L195.054 175.164C193.468 177.188 190.101 181.061 189.727 181.286C189.567 181.372 189.549 181.286 189.638 180.992C189.87 180.162 190.457 176.565 190.636 174.801C190.903 172.19 190.849 166.379 190.547 162.592C190.386 160.794 190.244 159.22 190.208 159.134C190.172 159.03 189.531 160.171 188.765 161.641C186.681 165.688 183.955 170.495 182.583 172.588C179.109 177.897 178.307 180.802 177.88 189.569L177.773 192.008L176.668 192.786C174.246 194.55 168.723 198.129 168.456 198.129C168.402 198.129 168.687 197.628 169.079 197.023C171.039 194.031 172.999 189.137 173.961 184.848C174.353 183.136 175.136 178.191 175.029 178.087C174.905 177.948 165.356 187.252 162.612 190.175C157.375 195.778 155.076 199.617 154.56 203.681L154.435 204.649L152.012 205.444C150.053 206.084 145.189 207.468 144.904 207.468C144.868 207.468 145.634 206.69 146.614 205.738C150.32 202.142 153.847 196.902 154.702 193.72C155.29 191.472 155.54 191.558 152.565 193.011C150.213 194.135 148.004 195.051 143.336 196.781C142.552 197.075 140.949 197.784 139.773 198.372C137.849 199.323 137.457 199.599 135.836 201.156C132.879 204.026 130.402 207.589 130.349 209.024L130.331 209.664L129.013 209.785C127.018 209.941 119.446 209.906 118.983 209.733C118.698 209.629 118.448 209.249 118.146 208.488C117.576 207.001 116.471 204.857 115.776 203.871C114.85 202.539 112.801 200.672 111.126 199.617C109.309 198.458 107.171 197.455 104.054 196.314C99.8672 194.792 95.9301 193.045 93.9169 191.869L93.329 191.506L93.4537 192.094C94.3623 196.054 97.6759 201.087 102.539 205.877C103.626 206.949 104.392 207.779 104.25 207.744C104.089 207.693 102.842 207.381 101.471 207.035C100.099 206.69 97.8897 206.067 96.5536 205.635L94.1307 204.874L94.006 203.784C93.5072 199.478 92.0998 196.884 87.3788 191.731C85.6863 189.898 73.7502 177.862 73.6789 177.931C73.5186 178.069 74.5518 183.534 75.1932 185.972C76.6362 191.541 78.2752 195.397 80.4843 198.441C80.7337 198.787 80.6268 198.752 79.6292 198.199C78.1149 197.351 73.8392 194.619 72.1112 193.374C71.1135 192.665 70.7394 192.302 70.8285 192.111C70.8819 191.973 71.0244 191.247 71.1135 190.538C71.6123 187.166 70.5434 181.874 68.3343 176.755C67.4436 174.697 66.8201 173.573 65.0207 170.685C63.8449 168.818 60.9767 163.647 59.5871 160.897C59.213 160.171 58.821 159.566 58.6963 159.566C58.3757 159.566 58.2688 161.9 58.2688 168.991C58.2688 177.654 58.3935 178.969 59.6227 182.566C59.8009 183.067 55.8993 178.83 53.4052 175.77L51.8731 173.919L52.3185 172.933C53.2627 170.858 54.1713 165.912 54.1713 162.8C54.1713 159.808 53.5299 156.021 51.6059 147.685C50.4301 142.584 49.7709 139.195 49.6818 137.777C49.6462 137.189 49.5571 136.981 49.3077 136.946C49.0761 136.895 48.8267 137.223 48.3101 138.33C47.1699 140.699 45.8872 145.489 44.7827 151.438C44.1591 154.862 44.1235 158.563 44.6936 161.641C44.9074 162.73 45.0321 163.647 45.0143 163.682C44.9786 163.699 44.0344 161.952 42.9121 159.791C41.1127 156.315 39.1709 152.078 38.4761 150.193L38.2623 149.57L39.349 148.395C41.2018 146.44 43.5356 141.408 44.1057 138.157C44.8361 133.989 46.2079 115.434 45.8694 114.396C45.7269 113.947 45.4062 114.016 44.8005 114.638C42.7874 116.731 37.2825 126.259 36.1067 129.666C35.4831 131.482 34.9487 134.266 34.8062 136.341C34.7527 137.327 34.6636 138.105 34.628 138.071C34.343 137.777 32.8465 129.372 32.4189 125.637L32.2051 123.769L32.6683 123.423C33.9688 122.42 39.7053 114.396 41.0058 111.75C42.5201 108.672 48.1497 91.2926 47.9003 90.5317C47.7934 90.2551 45.3349 92.434 41.7897 95.9445C35.5366 102.101 34.1648 104.245 32.0983 110.972C31.5994 112.563 32.2408 104.193 33.0068 99.161L33.3809 96.6016L34.1114 96.2385C35.3584 95.6332 38.1198 93.5407 39.8835 91.8806C43.1793 88.7851 45.4953 85.9145 49.86 79.4987C51.3743 77.2679 53.3874 74.4146 54.3494 73.1695C55.3114 71.9244 56.1844 70.7311 56.2913 70.5409C56.5763 70.0394 56.5407 69.6417 56.22 69.6417C55.4896 69.6417 48.8267 73.2732 44.5511 76.0228C42.4311 77.3717 39.545 79.9138 38.1198 81.6777C37.6922 82.2138 37.1934 82.819 37.0331 83.0265C36.463 83.701 39.6341 75.3657 40.8633 72.9274C41.2196 72.2529 41.3443 72.1319 42.1282 71.9416C43.2684 71.665 46.2613 70.2642 48.6486 68.8635C52.5145 66.5981 56.1488 63.9522 59.7831 60.753C60.9589 59.7154 62.8829 58.0899 64.0587 57.1387C67.1764 54.6312 67.9246 53.9222 67.8533 53.4899C67.7821 52.9711 67.016 52.9538 64.7713 53.3861C58.9814 54.5275 53.815 56.5508 49.5571 59.3696C48.6486 59.9748 47.8647 60.4763 47.8291 60.4763C47.544 60.4763 53.5477 52.435 54.2782 51.8125C54.5454 51.5876 55.1689 51.5012 56.9326 51.432C62.0634 51.2072 66.4994 49.9102 73.0554 46.7283C74.6765 45.9501 77.2419 44.7742 78.7562 44.1343C80.2705 43.4945 81.7848 42.7682 82.1055 42.5434C83.7623 41.3328 81.8026 40.7622 75.9949 40.7622C70.9175 40.7622 66.4103 41.3674 63.453 42.4569C63.061 42.5952 66.25 39.8629 68.459 38.1509C69.6705 37.2171 70.3475 36.802 70.5434 36.8712C71.4876 37.2344 73.9996 37.6667 75.9949 37.8396C78.8631 38.0644 81.8382 37.8742 88.9109 37.0441C91.7079 36.6983 95.2709 36.3351 96.8386 36.2141C99.6356 35.9893 100.58 35.7644 100.437 35.3494C100.152 34.5021 94.2554 32.3231 89.8016 31.4239C86.3099 30.7322 81.3929 30.5592 78.7562 31.0607C78.3108 31.1472 77.9367 31.1991 77.9011 31.1818C77.8833 31.1472 79.4154 29.954 81.3038 28.5359L84.7421 25.9247L86.7018 25.7344C90.9774 25.3194 93.9526 23.7284 98.1926 19.63C100.58 17.3127 102.718 14.8571 104.054 12.8857C105.176 11.2601 105.426 10.603 105.105 10.2225C104.838 9.91124 104.749 9.92854 103.252 10.43Z" fill="white"/>
<path d="M62.7442 99.168C62.7122 98.112 62.6962 97.0987 62.6962 96.128C62.6962 94.3787 62.7495 92.7947 62.8562 91.376C62.9629 89.9573 63.1175 88.752 63.3202 87.76C63.4162 87.3013 63.5495 86.8587 63.7202 86.432C63.9015 86.0053 64.1522 85.6587 64.4722 85.392C64.8029 85.1147 65.2349 84.976 65.7682 84.976C66.2909 84.976 66.7335 85.1147 67.0962 85.392C67.4589 85.6587 67.7522 85.984 67.9762 86.368C68.2109 86.752 68.3815 87.12 68.4882 87.472C68.7655 88.304 69.0002 89.136 69.1922 89.968C69.3842 90.8 69.5549 91.5947 69.7042 92.352C69.8109 91.7973 69.9335 91.216 70.0722 90.608C70.2109 89.9893 70.3495 89.408 70.4882 88.864C70.6269 88.3093 70.7549 87.8507 70.8722 87.488C71.4162 85.8133 72.2535 84.976 73.3842 84.976C74.0135 84.976 74.5469 85.2053 74.9842 85.664C75.4215 86.112 75.7415 86.7627 75.9442 87.616C76.0402 88 76.1362 88.56 76.2322 89.296C76.3389 90.032 76.4349 90.9067 76.5202 91.92C76.6162 92.9227 76.6962 94.032 76.7602 95.248C76.8349 96.464 76.8935 97.7547 76.9362 99.12L74.1202 99.056C74.1202 98.4907 74.1042 97.8347 74.0722 97.088C74.0509 96.3413 74.0135 95.568 73.9602 94.768C73.9175 93.9573 73.8642 93.168 73.8002 92.4C73.7469 91.632 73.6882 90.9387 73.6242 90.32C73.5709 89.7013 73.5175 89.2107 73.4642 88.848C73.4109 88.4747 73.3629 88.288 73.3202 88.288C73.3095 88.288 73.2509 88.48 73.1442 88.864C73.0482 89.2373 72.9255 89.7387 72.7762 90.368C72.6375 90.9973 72.4829 91.6907 72.3122 92.448C72.1415 93.2053 71.9709 93.968 71.8002 94.736C71.6402 95.4933 71.4962 96.1973 71.3682 96.848C71.2402 97.488 71.1389 98.0107 71.0642 98.416L68.5522 98.48C68.4242 97.8827 68.2695 97.2267 68.0882 96.512C67.9175 95.7867 67.7362 95.0507 67.5442 94.304C67.3629 93.5467 67.1815 92.8213 67.0002 92.128C66.8189 91.424 66.6482 90.7947 66.4882 90.24C66.3389 89.6853 66.2162 89.248 66.1202 88.928C66.0242 88.5973 65.9655 88.432 65.9442 88.432C65.9015 88.432 65.8535 88.6667 65.8002 89.136C65.7575 89.5947 65.7149 90.2187 65.6722 91.008C65.6295 91.7973 65.5922 92.688 65.5602 93.68C65.5389 94.672 65.5282 95.696 65.5282 96.752C65.5282 97.2533 65.5282 97.712 65.5282 98.128C65.5389 98.544 65.5495 98.8853 65.5602 99.152L62.7442 99.168ZM82.4793 99.264C81.6793 99.264 80.954 99.056 80.3033 98.64C79.6526 98.2347 79.1353 97.6853 78.7513 96.992C78.378 96.288 78.1913 95.504 78.1913 94.64C78.1913 93.8293 78.3406 93.0987 78.6393 92.448C78.938 91.7867 79.3433 91.2213 79.8553 90.752C80.378 90.2827 80.97 89.9253 81.6313 89.68C82.2926 89.424 82.986 89.296 83.7113 89.296C84.3193 89.296 84.9166 89.3813 85.5033 89.552C85.546 89.328 85.5833 89.104 85.6153 88.88L88.3513 89.344C88.2766 89.5467 88.202 89.8507 88.1273 90.256C88.0526 90.6613 87.9886 91.1147 87.9353 91.616C87.8926 92.1173 87.8553 92.6187 87.8233 93.12C87.7913 93.6213 87.7753 94.0747 87.7753 94.48C87.7753 94.8107 87.7966 95.136 87.8393 95.456C87.8926 95.7653 87.9993 96.0213 88.1593 96.224C88.3193 96.416 88.5646 96.512 88.8953 96.512H89.1193L88.7193 99.296C88.0153 99.296 87.434 99.1733 86.9753 98.928C86.5166 98.6933 86.1486 98.3733 85.8713 97.968C85.4126 98.48 84.89 98.8213 84.3033 98.992C83.7166 99.1733 83.1086 99.264 82.4793 99.264ZM80.8153 94.96C80.8686 95.472 81.0766 95.8827 81.4393 96.192C81.8126 96.4907 82.282 96.64 82.8473 96.64C83.3913 96.64 83.8446 96.496 84.2073 96.208C84.57 95.9093 84.8686 95.504 85.1033 94.992C85.0926 94.8213 85.0873 94.6453 85.0873 94.464C85.0873 94.0907 85.098 93.7067 85.1193 93.312C85.1406 92.9173 85.1673 92.528 85.1993 92.144C84.7513 91.9733 84.282 91.888 83.7913 91.888C83.2153 91.888 82.698 92.0053 82.2393 92.24C81.7913 92.464 81.4393 92.7787 81.1833 93.184C80.9273 93.5893 80.7993 94.0587 80.7993 94.592C80.7993 94.656 80.7993 94.72 80.7993 94.784C80.7993 94.848 80.8046 94.9067 80.8153 94.96ZM91.9916 99.36L89.9756 97.616C90.4876 97.0187 91.0369 96.416 91.6236 95.808C92.2102 95.1893 92.8129 94.576 93.4316 93.968C92.6849 93.3173 91.9862 92.736 91.3356 92.224C90.6956 91.7013 90.1996 91.3333 89.8476 91.12L91.4476 89.008C92.0236 89.424 92.6476 89.8987 93.3196 90.432C93.9916 90.9653 94.6689 91.5307 95.3516 92.128C95.9809 91.552 96.5996 90.992 97.2076 90.448C97.8156 89.8933 98.3969 89.3707 98.9516 88.88L100.808 90.8C100.466 91.0453 99.9809 91.4507 99.3516 92.016C98.7222 92.5707 98.0396 93.1893 97.3036 93.872C98.0076 94.512 98.6689 95.1467 99.2876 95.776C99.9169 96.3947 100.472 96.9707 100.952 97.504L98.9996 99.28C98.8076 99.0453 98.5302 98.7413 98.1676 98.368C97.8049 97.9947 97.3836 97.5787 96.9036 97.12C96.4342 96.6613 95.9329 96.192 95.3996 95.712C94.8876 96.2133 94.4022 96.6987 93.9436 97.168C93.4956 97.6373 93.1009 98.0587 92.7596 98.432C92.4182 98.816 92.1622 99.1253 91.9916 99.36ZM102.165 87.664C102.165 87.568 102.16 87.472 102.149 87.376C102.149 87.2693 102.149 87.152 102.149 87.024C102.149 86.6827 102.16 86.32 102.181 85.936C102.203 85.552 102.224 85.2267 102.245 84.96L105.093 85.008C105.061 85.3707 105.024 85.7813 104.981 86.24C104.949 86.6987 104.928 87.1733 104.917 87.664H102.165ZM102.101 99.12C102.069 98.4587 102.048 97.7547 102.037 97.008C102.027 96.2507 102.021 95.4933 102.021 94.736C102.021 93.744 102.032 92.7787 102.053 91.84C102.075 90.9013 102.101 90.048 102.133 89.28L104.885 89.264C104.843 89.7547 104.816 90.3627 104.805 91.088C104.795 91.8027 104.789 92.5547 104.789 93.344C104.789 94.1227 104.795 94.8907 104.805 95.648C104.816 96.4053 104.827 97.0933 104.837 97.712C104.859 98.32 104.875 98.7893 104.885 99.12H102.101ZM106.432 99.248C106.421 99.088 106.411 98.8213 106.4 98.448C106.389 98.0853 106.379 97.648 106.368 97.136C106.357 96.624 106.352 96.0747 106.352 95.488C106.352 94.8907 106.352 94.2933 106.352 93.696C106.352 93.0347 106.352 92.4053 106.352 91.808C106.363 91.2107 106.368 90.6933 106.368 90.256C106.379 89.8187 106.384 89.504 106.384 89.312L109.088 89.264C109.067 89.5627 109.051 89.9253 109.04 90.352C109.317 89.9787 109.637 89.6853 110 89.472C110.363 89.2587 110.779 89.152 111.248 89.152C111.813 89.152 112.277 89.3173 112.64 89.648C113.013 89.9787 113.317 90.4107 113.552 90.944C114.32 89.7493 115.264 89.152 116.384 89.152C117.013 89.152 117.531 89.2907 117.936 89.568C118.352 89.8347 118.677 90.1973 118.912 90.656C119.147 91.1147 119.317 91.632 119.424 92.208C119.541 92.784 119.616 93.376 119.648 93.984C119.68 94.592 119.696 95.1787 119.696 95.744C119.696 96.416 119.685 97.0293 119.664 97.584C119.643 98.1387 119.637 98.6667 119.648 99.168H116.88C116.88 98.912 116.88 98.5867 116.88 98.192C116.88 97.808 116.88 97.4187 116.88 97.024C116.891 96.6187 116.896 96.272 116.896 95.984C116.896 95.6853 116.896 95.5093 116.896 95.456C116.896 94.816 116.88 94.2133 116.848 93.648C116.816 93.0827 116.736 92.624 116.608 92.272C116.48 91.92 116.272 91.744 115.984 91.744C115.707 91.744 115.461 91.8773 115.248 92.144C115.035 92.4107 114.843 92.7573 114.672 93.184C114.512 93.6107 114.373 94.064 114.256 94.544C114.277 94.96 114.293 95.376 114.304 95.792C114.315 96.1973 114.32 96.592 114.32 96.976C114.32 97.4133 114.315 97.792 114.304 98.112C114.304 98.4427 114.304 98.7947 114.304 99.168H111.616C111.616 98.304 111.611 97.5413 111.6 96.88C111.589 96.2187 111.568 95.5787 111.536 94.96C111.483 93.8507 111.365 93.04 111.184 92.528C111.013 92.0053 110.773 91.744 110.464 91.744C110.123 91.744 109.835 91.952 109.6 92.368C109.365 92.7733 109.173 93.2693 109.024 93.856C109.035 94.7093 109.056 95.6 109.088 96.528C109.12 97.456 109.163 98.352 109.216 99.216L106.432 99.248ZM124.64 99.312C123.958 99.312 123.392 99.1893 122.944 98.944C122.507 98.7093 122.155 98.384 121.888 97.968C121.632 97.552 121.44 97.088 121.312 96.576C121.195 96.0533 121.115 95.5147 121.072 94.96C121.04 94.3947 121.024 93.8507 121.024 93.328C121.024 92.7307 121.04 92.1227 121.072 91.504C121.115 90.8853 121.158 90.208 121.2 89.472L124.128 89.296C124.096 89.52 124.048 89.856 123.984 90.304C123.92 90.752 123.862 91.264 123.808 91.84C123.755 92.416 123.728 93.0187 123.728 93.648C123.728 94.6827 123.819 95.4507 124 95.952C124.182 96.4427 124.454 96.688 124.816 96.688C125.542 96.688 126.075 96.16 126.416 95.104C126.758 94.048 126.928 92.3787 126.928 90.096V89.36L128.288 89.328L129.936 89.296C129.787 90.2987 129.675 91.2213 129.6 92.064C129.526 92.9067 129.478 93.616 129.456 94.192C129.435 94.7573 129.424 95.136 129.424 95.328C129.424 95.8187 129.467 96.1707 129.552 96.384C129.638 96.5867 129.787 96.688 130 96.688C130.107 96.688 130.224 96.6667 130.352 96.624C130.48 96.5813 130.63 96.5067 130.8 96.4L130.688 99.152C130.283 99.216 129.931 99.248 129.632 99.248C129.12 99.248 128.699 99.152 128.368 98.96C128.048 98.768 127.792 98.512 127.6 98.192C127.27 98.544 126.859 98.816 126.368 99.008C125.888 99.2107 125.312 99.312 124.64 99.312ZM132.12 99.248C132.109 99.088 132.098 98.8213 132.088 98.448C132.077 98.0853 132.066 97.648 132.056 97.136C132.045 96.624 132.04 96.0747 132.04 95.488C132.04 94.8907 132.04 94.2933 132.04 93.696C132.04 93.0347 132.04 92.4053 132.04 91.808C132.05 91.2107 132.056 90.6933 132.056 90.256C132.066 89.8187 132.072 89.504 132.072 89.312L134.776 89.264C134.754 89.5627 134.738 89.9253 134.728 90.352C135.005 89.9787 135.325 89.6853 135.688 89.472C136.05 89.2587 136.466 89.152 136.936 89.152C137.501 89.152 137.965 89.3173 138.328 89.648C138.701 89.9787 139.005 90.4107 139.24 90.944C140.008 89.7493 140.952 89.152 142.072 89.152C142.701 89.152 143.218 89.2907 143.624 89.568C144.04 89.8347 144.365 90.1973 144.6 90.656C144.834 91.1147 145.005 91.632 145.112 92.208C145.229 92.784 145.304 93.376 145.336 93.984C145.368 94.592 145.384 95.1787 145.384 95.744C145.384 96.416 145.373 97.0293 145.352 97.584C145.33 98.1387 145.325 98.6667 145.336 99.168H142.568C142.568 98.912 142.568 98.5867 142.568 98.192C142.568 97.808 142.568 97.4187 142.568 97.024C142.578 96.6187 142.584 96.272 142.584 95.984C142.584 95.6853 142.584 95.5093 142.584 95.456C142.584 94.816 142.568 94.2133 142.536 93.648C142.504 93.0827 142.424 92.624 142.296 92.272C142.168 91.92 141.96 91.744 141.672 91.744C141.394 91.744 141.149 91.8773 140.936 92.144C140.722 92.4107 140.53 92.7573 140.36 93.184C140.2 93.6107 140.061 94.064 139.944 94.544C139.965 94.96 139.981 95.376 139.992 95.792C140.002 96.1973 140.008 96.592 140.008 96.976C140.008 97.4133 140.002 97.792 139.992 98.112C139.992 98.4427 139.992 98.7947 139.992 99.168H137.304C137.304 98.304 137.298 97.5413 137.288 96.88C137.277 96.2187 137.256 95.5787 137.224 94.96C137.17 93.8507 137.053 93.04 136.872 92.528C136.701 92.0053 136.461 91.744 136.152 91.744C135.81 91.744 135.522 91.952 135.288 92.368C135.053 92.7733 134.861 93.2693 134.712 93.856C134.722 94.7093 134.744 95.6 134.776 96.528C134.808 97.456 134.85 98.352 134.904 99.216L132.12 99.248ZM150.768 99.104C150.757 99.0187 150.747 98.9067 150.736 98.768C150.736 98.6293 150.736 98.4693 150.736 98.288C150.736 97.8507 150.747 97.3173 150.768 96.688C150.8 96.048 150.837 95.3547 150.88 94.608C150.923 93.8507 150.971 93.088 151.024 92.32C151.077 91.5413 151.131 90.7947 151.184 90.08C151.248 89.3547 151.307 88.7093 151.36 88.144C151.189 88.1653 151.024 88.1867 150.864 88.208L150.512 85.488C151.621 85.3387 152.8 85.232 154.048 85.168C155.307 85.104 156.533 85.072 157.728 85.072C158.624 85.072 159.483 85.0933 160.304 85.136C161.136 85.168 161.883 85.216 162.544 85.28L162.304 87.936C161.813 87.84 161.253 87.776 160.624 87.744C159.995 87.7013 159.317 87.68 158.592 87.68C157.845 87.68 157.072 87.7013 156.272 87.744C155.483 87.776 154.715 87.8187 153.968 87.872C153.925 88.2987 153.883 88.7413 153.84 89.2C153.808 89.6587 153.776 90.1333 153.744 90.624C154.299 90.5493 154.912 90.496 155.584 90.464C156.267 90.432 156.944 90.416 157.616 90.416C158.384 90.416 159.104 90.4373 159.776 90.48C160.459 90.5227 160.981 90.5973 161.344 90.704L161.152 93.28C160.405 93.1947 159.707 93.136 159.056 93.104C158.405 93.0613 157.771 93.04 157.152 93.04C155.947 93.04 154.757 93.12 153.584 93.28C153.52 94.4 153.467 95.4667 153.424 96.48C153.392 97.4933 153.365 98.3467 153.344 99.04L150.768 99.104ZM167.437 99.312C166.755 99.312 166.189 99.1893 165.741 98.944C165.304 98.7093 164.952 98.384 164.685 97.968C164.429 97.552 164.237 97.088 164.109 96.576C163.992 96.0533 163.912 95.5147 163.869 94.96C163.837 94.3947 163.821 93.8507 163.821 93.328C163.821 92.7307 163.837 92.1227 163.869 91.504C163.912 90.8853 163.955 90.208 163.997 89.472L166.925 89.296C166.893 89.52 166.845 89.856 166.781 90.304C166.717 90.752 166.659 91.264 166.605 91.84C166.552 92.416 166.525 93.0187 166.525 93.648C166.525 94.6827 166.616 95.4507 166.797 95.952C166.979 96.4427 167.251 96.688 167.613 96.688C168.339 96.688 168.872 96.16 169.213 95.104C169.555 94.048 169.725 92.3787 169.725 90.096V89.36L171.085 89.328L172.733 89.296C172.584 90.2987 172.472 91.2213 172.397 92.064C172.323 92.9067 172.275 93.616 172.253 94.192C172.232 94.7573 172.221 95.136 172.221 95.328C172.221 95.8187 172.264 96.1707 172.349 96.384C172.435 96.5867 172.584 96.688 172.797 96.688C172.904 96.688 173.021 96.6667 173.149 96.624C173.277 96.5813 173.427 96.5067 173.597 96.4L173.485 99.152C173.08 99.216 172.728 99.248 172.429 99.248C171.917 99.248 171.496 99.152 171.165 98.96C170.845 98.768 170.589 98.512 170.397 98.192C170.067 98.544 169.656 98.816 169.165 99.008C168.685 99.2107 168.109 99.312 167.437 99.312ZM175.044 99.152C175.012 98.2133 174.986 97.344 174.964 96.544C174.954 95.744 174.948 94.9547 174.948 94.176C174.948 93.3973 174.954 92.6187 174.964 91.84C174.986 91.0507 175.018 90.208 175.06 89.312H177.764C177.722 89.792 177.684 90.2773 177.652 90.768C178.015 90.3093 178.447 89.9307 178.948 89.632C179.45 89.3227 180.042 89.168 180.724 89.168C181.396 89.168 181.946 89.28 182.372 89.504C182.81 89.728 183.151 90.0373 183.396 90.432C183.652 90.8267 183.834 91.28 183.94 91.792C184.058 92.2933 184.132 92.8373 184.164 93.424C184.196 94 184.212 94.5813 184.212 95.168C184.212 95.808 184.202 96.4213 184.18 97.008C184.159 97.5947 184.138 98.0853 184.116 98.48C184.095 98.8747 184.079 99.1093 184.068 99.184H181.38C181.402 98.7467 181.423 98.2827 181.444 97.792C181.466 97.2907 181.487 96.8 181.508 96.32C181.53 95.8293 181.54 95.3867 181.54 94.992C181.54 92.72 181.172 91.584 180.436 91.584C179.828 91.584 179.274 91.8507 178.772 92.384C178.282 92.9067 177.871 93.568 177.54 94.368C177.54 94.4747 177.54 94.5813 177.54 94.688C177.54 95.2 177.54 95.7333 177.54 96.288C177.551 96.832 177.562 97.3547 177.572 97.856C177.594 98.3467 177.61 98.7733 177.62 99.136L175.044 99.152ZM67.8529 122.136L65.1169 121.624C65.6289 119.555 66.1622 117.683 66.7169 116.008C67.2822 114.333 67.8635 112.899 68.4609 111.704C69.0582 110.509 69.6662 109.592 70.2849 108.952C70.9142 108.301 71.5435 107.976 72.1729 107.976C73.4422 107.976 74.6102 109.155 75.6769 111.512C76.7435 113.859 77.6502 117.261 78.3969 121.72L75.5649 122.104C75.4369 121.4 75.2982 120.68 75.1489 119.944C74.9995 119.197 74.8449 118.472 74.6849 117.768C74.4289 117.757 74.1515 117.752 73.8529 117.752C73.3302 117.752 72.7755 117.763 72.1889 117.784C71.6129 117.805 71.0422 117.843 70.4769 117.896C69.9222 117.939 69.4049 117.987 68.9249 118.04C68.7222 118.723 68.5249 119.416 68.3329 120.12C68.1515 120.813 67.9915 121.485 67.8529 122.136ZM70.7969 112.792C70.5622 113.293 70.2475 114.104 69.8529 115.224C70.3115 115.171 70.7969 115.133 71.3089 115.112C71.8209 115.08 72.3222 115.064 72.8129 115.064C73.2289 115.064 73.6289 115.075 74.0129 115.096C73.8635 114.552 73.7195 114.067 73.5809 113.64C73.4529 113.213 73.3355 112.877 73.2289 112.632C73.0049 112.056 72.8075 111.651 72.6369 111.416C72.4662 111.171 72.2902 111.048 72.1089 111.048C71.9169 111.048 71.7249 111.176 71.5329 111.432C71.3409 111.677 71.0955 112.131 70.7969 112.792ZM83.0075 122.312C82.1222 122.312 81.3702 121.624 80.7515 120.248C80.5382 119.757 80.3515 119.219 80.1915 118.632C80.0315 118.045 79.8928 117.448 79.7755 116.84C79.6688 116.232 79.5782 115.651 79.5035 115.096C79.4395 114.531 79.3862 114.035 79.3435 113.608C79.3115 113.171 79.2848 112.84 79.2635 112.616L81.8875 112.008C82.0155 114.429 82.2075 116.269 82.4635 117.528C82.7302 118.787 82.9328 119.416 83.0715 119.416C83.1462 119.416 83.2368 119.267 83.3435 118.968C83.4608 118.669 83.5888 118.275 83.7275 117.784C83.8662 117.283 83.9995 116.733 84.1275 116.136C84.2555 115.539 84.3675 114.936 84.4635 114.328C84.3355 113.549 84.2502 112.931 84.2075 112.472L86.9115 112.376V112.568C86.9115 113.005 86.9435 113.517 87.0075 114.104C87.0715 114.691 87.1515 115.299 87.2475 115.928C87.3435 116.547 87.4448 117.123 87.5515 117.656C87.6688 118.189 87.7808 118.621 87.8875 118.952C87.9942 119.283 88.0848 119.448 88.1595 119.448C88.2235 119.448 88.3142 119.304 88.4315 119.016C88.5488 118.728 88.6768 118.333 88.8155 117.832C88.9648 117.331 89.1142 116.76 89.2635 116.12C89.4128 115.469 89.5568 114.787 89.6955 114.072C89.8342 113.347 89.9462 112.627 90.0315 111.912L92.6715 112.472C92.4902 113.485 92.2715 114.493 92.0155 115.496C91.7702 116.488 91.5088 117.411 91.2315 118.264C90.9542 119.107 90.6822 119.816 90.4155 120.392C89.8182 121.661 89.0768 122.296 88.1915 122.296C87.9035 122.296 87.5728 122.205 87.1995 122.024C86.8368 121.853 86.5008 121.491 86.1915 120.936C86.0848 120.733 85.9782 120.488 85.8715 120.2C85.7648 119.912 85.6635 119.592 85.5675 119.24C85.4395 119.635 85.3115 119.987 85.1835 120.296C84.6182 121.64 83.8928 122.312 83.0075 122.312ZM98.0184 122.264C97.2184 122.264 96.493 122.056 95.8424 121.64C95.1917 121.235 94.6744 120.685 94.2904 119.992C93.917 119.288 93.7304 118.504 93.7304 117.64C93.7304 116.829 93.8797 116.099 94.1784 115.448C94.477 114.787 94.8824 114.221 95.3944 113.752C95.917 113.283 96.509 112.925 97.1704 112.68C97.8317 112.424 98.525 112.296 99.2504 112.296C99.8584 112.296 100.456 112.381 101.042 112.552C101.085 112.328 101.122 112.104 101.154 111.88L103.89 112.344C103.816 112.547 103.741 112.851 103.666 113.256C103.592 113.661 103.528 114.115 103.474 114.616C103.432 115.117 103.394 115.619 103.362 116.12C103.33 116.621 103.314 117.075 103.314 117.48C103.314 117.811 103.336 118.136 103.378 118.456C103.432 118.765 103.538 119.021 103.698 119.224C103.858 119.416 104.104 119.512 104.434 119.512H104.658L104.258 122.296C103.554 122.296 102.973 122.173 102.514 121.928C102.056 121.693 101.688 121.373 101.41 120.968C100.952 121.48 100.429 121.821 99.8424 121.992C99.2557 122.173 98.6477 122.264 98.0184 122.264ZM96.3544 117.96C96.4077 118.472 96.6157 118.883 96.9784 119.192C97.3517 119.491 97.821 119.64 98.3864 119.64C98.9304 119.64 99.3837 119.496 99.7464 119.208C100.109 118.909 100.408 118.504 100.642 117.992C100.632 117.821 100.626 117.645 100.626 117.464C100.626 117.091 100.637 116.707 100.658 116.312C100.68 115.917 100.706 115.528 100.738 115.144C100.29 114.973 99.821 114.888 99.3304 114.888C98.7544 114.888 98.237 115.005 97.7784 115.24C97.3304 115.464 96.9784 115.779 96.7224 116.184C96.4664 116.589 96.3384 117.059 96.3384 117.592C96.3384 117.656 96.3384 117.72 96.3384 117.784C96.3384 117.848 96.3437 117.907 96.3544 117.96ZM105.595 122.248C105.637 121.363 105.669 120.477 105.691 119.592C105.712 118.707 105.723 117.832 105.723 116.968C105.712 116.179 105.696 115.4 105.675 114.632C105.664 113.853 105.637 113.101 105.595 112.376L108.283 112.296C108.293 112.691 108.309 113.096 108.331 113.512C108.672 113.085 109.067 112.744 109.515 112.488C109.973 112.221 110.496 112.088 111.083 112.088C111.307 112.088 111.595 112.12 111.947 112.184C112.299 112.248 112.656 112.371 113.019 112.552L112.715 115.256C112.448 115.096 112.16 114.984 111.851 114.92C111.552 114.845 111.301 114.808 111.099 114.808C110.416 114.808 109.835 115.117 109.355 115.736C108.885 116.344 108.565 117.192 108.395 118.28C108.395 119.027 108.384 119.741 108.363 120.424C108.352 121.096 108.325 121.704 108.283 122.248H105.595ZM117.706 122.264C117.152 122.264 116.608 122.168 116.074 121.976C115.552 121.784 115.077 121.485 114.65 121.08C114.234 120.685 113.904 120.189 113.658 119.592C113.413 118.984 113.29 118.275 113.29 117.464C113.29 116.547 113.429 115.757 113.706 115.096C113.994 114.424 114.373 113.875 114.842 113.448C115.312 113.011 115.834 112.685 116.41 112.472C116.986 112.259 117.562 112.152 118.138 112.152C118.48 112.152 118.805 112.179 119.114 112.232C119.424 112.275 119.712 112.339 119.978 112.424C120.01 111.645 120.048 110.861 120.09 110.072C120.144 109.283 120.202 108.504 120.266 107.736L122.954 107.912C122.869 108.797 122.794 109.752 122.73 110.776C122.666 111.789 122.618 112.824 122.586 113.88C122.565 114.936 122.554 115.965 122.554 116.968C122.554 117.907 122.565 118.803 122.586 119.656C122.618 120.499 122.656 121.267 122.698 121.96L119.93 122.168C119.92 121.965 119.914 121.768 119.914 121.576C119.605 121.779 119.264 121.944 118.89 122.072C118.528 122.2 118.133 122.264 117.706 122.264ZM115.866 117.32C115.866 117.875 115.973 118.312 116.186 118.632C116.4 118.941 116.661 119.16 116.97 119.288C117.28 119.416 117.578 119.48 117.866 119.48C118.208 119.48 118.549 119.405 118.89 119.256C119.232 119.107 119.552 118.845 119.85 118.472C119.85 118.344 119.85 118.221 119.85 118.104C119.85 117.24 119.861 116.355 119.882 115.448C119.381 115.011 118.837 114.792 118.25 114.792C118.005 114.792 117.744 114.829 117.466 114.904C117.189 114.979 116.928 115.112 116.682 115.304C116.448 115.485 116.25 115.741 116.09 116.072C115.941 116.392 115.866 116.808 115.866 117.32ZM127.973 118.28L127.925 116.008C128.352 115.965 128.885 115.933 129.525 115.912C130.165 115.891 130.81 115.88 131.461 115.88C131.92 115.88 132.352 115.885 132.757 115.896C133.173 115.907 133.53 115.923 133.829 115.944L133.797 118.184C133.53 118.184 133.242 118.184 132.933 118.184C132.624 118.173 132.298 118.168 131.957 118.168C131.274 118.168 130.581 118.179 129.877 118.2C129.173 118.211 128.538 118.237 127.973 118.28ZM144.073 122.168C143.017 122.168 142.18 122.077 141.561 121.896C140.943 121.715 140.484 121.459 140.185 121.128C139.887 120.808 139.689 120.429 139.593 119.992C139.508 119.544 139.465 119.064 139.465 118.552C139.465 117.699 139.487 116.723 139.529 115.624C139.583 114.525 139.647 113.347 139.721 112.088C139.807 110.819 139.897 109.507 139.993 108.152L142.905 108.44C142.799 109.261 142.703 110.104 142.617 110.968C142.543 111.821 142.479 112.653 142.425 113.464C142.372 114.275 142.329 115.011 142.297 115.672C142.265 116.333 142.239 116.888 142.217 117.336C142.207 117.773 142.201 118.056 142.201 118.184C142.201 118.557 142.244 118.84 142.329 119.032C142.415 119.213 142.585 119.336 142.841 119.4C143.097 119.464 143.471 119.496 143.961 119.496C144.58 119.496 145.279 119.459 146.057 119.384C146.836 119.299 147.625 119.176 148.425 119.016C149.225 118.856 149.956 118.664 150.617 118.44L151.241 121.192C150.516 121.373 149.732 121.539 148.889 121.688C148.057 121.837 147.225 121.955 146.393 122.04C145.561 122.125 144.788 122.168 144.073 122.168ZM158.171 122.248C157.147 122.248 156.299 122.083 155.627 121.752C154.955 121.432 154.416 120.989 154.011 120.424C153.616 119.848 153.317 119.187 153.115 118.44C152.923 117.693 152.795 116.893 152.731 116.04C152.677 115.187 152.651 114.323 152.651 113.448C152.651 112.456 152.683 111.491 152.747 110.552C152.811 109.603 152.88 108.808 152.955 108.168L155.899 108.344C155.792 109.123 155.707 109.821 155.643 110.44C155.589 111.048 155.552 111.624 155.531 112.168C155.509 112.712 155.499 113.272 155.499 113.848C155.499 114.296 155.504 114.781 155.515 115.304C155.536 115.816 155.584 116.328 155.659 116.84C155.744 117.341 155.872 117.8 156.043 118.216C156.224 118.621 156.475 118.952 156.795 119.208C157.125 119.453 157.547 119.576 158.059 119.576C158.613 119.576 159.061 119.453 159.403 119.208C159.755 118.952 160.027 118.616 160.219 118.2C160.411 117.773 160.549 117.304 160.635 116.792C160.72 116.269 160.768 115.741 160.779 115.208C160.8 114.664 160.811 114.152 160.811 113.672C160.811 112.765 160.784 111.885 160.731 111.032C160.677 110.179 160.608 109.272 160.523 108.312L163.467 108.088C163.552 109.112 163.616 110.051 163.659 110.904C163.701 111.747 163.723 112.525 163.723 113.24C163.723 114.211 163.685 115.144 163.611 116.04C163.547 116.936 163.408 117.763 163.195 118.52C162.981 119.267 162.672 119.923 162.267 120.488C161.861 121.043 161.323 121.475 160.651 121.784C159.989 122.093 159.163 122.248 158.171 122.248ZM168.157 122.264L165.469 122.024L166.061 111.032C165.783 111.096 165.527 111.171 165.293 111.256L164.812 108.536C165.378 108.419 166.077 108.296 166.909 108.168C167.741 108.04 168.599 107.976 169.485 107.976C170.167 107.976 170.861 108.051 171.565 108.2C172.269 108.339 172.941 108.573 173.581 108.904C174.231 109.224 174.807 109.656 175.309 110.2C175.821 110.744 176.221 111.411 176.509 112.2C176.807 112.989 176.957 113.923 176.957 115C176.957 116.515 176.711 117.811 176.221 118.888C175.741 119.955 175.037 120.771 174.109 121.336C173.191 121.901 172.082 122.184 170.781 122.184C169.917 122.184 169.063 122.024 168.221 121.704C168.199 121.917 168.178 122.104 168.157 122.264ZM169.373 110.664C169.223 110.664 169.069 110.664 168.909 110.664C168.802 112.648 168.706 114.339 168.621 115.736C168.535 117.123 168.461 118.28 168.397 119.208C168.717 119.315 169.069 119.411 169.453 119.496C169.847 119.571 170.258 119.608 170.685 119.608C171.549 119.608 172.242 119.389 172.765 118.952C173.298 118.515 173.682 117.939 173.917 117.224C174.151 116.499 174.269 115.715 174.269 114.872C174.269 114.2 174.167 113.629 173.965 113.16C173.762 112.691 173.495 112.301 173.165 111.992C172.845 111.683 172.493 111.443 172.109 111.272C171.725 111.091 171.346 110.957 170.973 110.872C170.61 110.787 170.285 110.733 169.997 110.712C169.709 110.68 169.501 110.664 169.373 110.664ZM178.683 122.104C178.597 121.549 178.523 120.877 178.459 120.088C178.405 119.299 178.363 118.44 178.331 117.512C178.309 116.584 178.299 115.64 178.299 114.68C178.299 113.475 178.32 112.301 178.363 111.16C178.405 110.019 178.469 109.016 178.555 108.152L181.499 108.2C181.381 108.957 181.291 109.848 181.227 110.872C181.173 111.896 181.147 113.059 181.147 114.36C181.147 115.683 181.168 117.011 181.211 118.344C181.264 119.677 181.323 120.899 181.387 122.008L178.683 122.104ZM69.0574 145.264C68.2574 145.264 67.5321 145.056 66.8814 144.64C66.2308 144.235 65.7134 143.685 65.3294 142.992C64.9561 142.288 64.7694 141.504 64.7694 140.64C64.7694 139.829 64.9188 139.099 65.2174 138.448C65.5161 137.787 65.9214 137.221 66.4334 136.752C66.9561 136.283 67.5481 135.925 68.2094 135.68C68.8708 135.424 69.5641 135.296 70.2894 135.296C70.8974 135.296 71.4948 135.381 72.0814 135.552C72.1241 135.328 72.1614 135.104 72.1934 134.88L74.9294 135.344C74.8548 135.547 74.7801 135.851 74.7054 136.256C74.6308 136.661 74.5668 137.115 74.5134 137.616C74.4708 138.117 74.4334 138.619 74.4014 139.12C74.3694 139.621 74.3534 140.075 74.3534 140.48C74.3534 140.811 74.3748 141.136 74.4174 141.456C74.4708 141.765 74.5774 142.021 74.7374 142.224C74.8974 142.416 75.1428 142.512 75.4734 142.512H75.6974L75.2974 145.296C74.5934 145.296 74.0121 145.173 73.5534 144.928C73.0948 144.693 72.7268 144.373 72.4494 143.968C71.9908 144.48 71.4681 144.821 70.8814 144.992C70.2948 145.173 69.6868 145.264 69.0574 145.264ZM67.3934 140.96C67.4468 141.472 67.6548 141.883 68.0174 142.192C68.3908 142.491 68.8601 142.64 69.4254 142.64C69.9694 142.64 70.4228 142.496 70.7854 142.208C71.1481 141.909 71.4468 141.504 71.6814 140.992C71.6708 140.821 71.6654 140.645 71.6654 140.464C71.6654 140.091 71.6761 139.707 71.6974 139.312C71.7188 138.917 71.7454 138.528 71.7774 138.144C71.3294 137.973 70.8601 137.888 70.3694 137.888C69.7934 137.888 69.2761 138.005 68.8174 138.24C68.3694 138.464 68.0174 138.779 67.7614 139.184C67.5054 139.589 67.3774 140.059 67.3774 140.592C67.3774 140.656 67.3774 140.72 67.3774 140.784C67.3774 140.848 67.3828 140.907 67.3934 140.96ZM80.2497 145.312C79.3644 145.312 78.6124 144.624 77.9937 143.248C77.7804 142.757 77.5937 142.219 77.4337 141.632C77.2737 141.045 77.135 140.448 77.0177 139.84C76.911 139.232 76.8204 138.651 76.7457 138.096C76.6817 137.531 76.6284 137.035 76.5857 136.608C76.5537 136.171 76.527 135.84 76.5057 135.616L79.1297 135.008C79.2577 137.429 79.4497 139.269 79.7057 140.528C79.9724 141.787 80.175 142.416 80.3137 142.416C80.3884 142.416 80.479 142.267 80.5857 141.968C80.703 141.669 80.831 141.275 80.9697 140.784C81.1084 140.283 81.2417 139.733 81.3697 139.136C81.4977 138.539 81.6097 137.936 81.7057 137.328C81.5777 136.549 81.4924 135.931 81.4497 135.472L84.1537 135.376V135.568C84.1537 136.005 84.1857 136.517 84.2497 137.104C84.3137 137.691 84.3937 138.299 84.4897 138.928C84.5857 139.547 84.687 140.123 84.7937 140.656C84.911 141.189 85.023 141.621 85.1297 141.952C85.2364 142.283 85.327 142.448 85.4017 142.448C85.4657 142.448 85.5564 142.304 85.6737 142.016C85.791 141.728 85.919 141.333 86.0577 140.832C86.207 140.331 86.3564 139.76 86.5057 139.12C86.655 138.469 86.799 137.787 86.9377 137.072C87.0764 136.347 87.1884 135.627 87.2737 134.912L89.9137 135.472C89.7324 136.485 89.5137 137.493 89.2577 138.496C89.0124 139.488 88.751 140.411 88.4737 141.264C88.1964 142.107 87.9244 142.816 87.6577 143.392C87.0604 144.661 86.319 145.296 85.4337 145.296C85.1457 145.296 84.815 145.205 84.4417 145.024C84.079 144.853 83.743 144.491 83.4337 143.936C83.327 143.733 83.2204 143.488 83.1137 143.2C83.007 142.912 82.9057 142.592 82.8097 142.24C82.6817 142.635 82.5537 142.987 82.4257 143.296C81.8604 144.64 81.135 145.312 80.2497 145.312ZM95.2606 145.264C94.4606 145.264 93.7352 145.056 93.0846 144.64C92.4339 144.235 91.9166 143.685 91.5326 142.992C91.1592 142.288 90.9726 141.504 90.9726 140.64C90.9726 139.829 91.1219 139.099 91.4206 138.448C91.7192 137.787 92.1246 137.221 92.6366 136.752C93.1592 136.283 93.7512 135.925 94.4126 135.68C95.0739 135.424 95.7672 135.296 96.4926 135.296C97.1006 135.296 97.6979 135.381 98.2846 135.552C98.3272 135.328 98.3646 135.104 98.3966 134.88L101.133 135.344C101.058 135.547 100.983 135.851 100.909 136.256C100.834 136.661 100.77 137.115 100.717 137.616C100.674 138.117 100.637 138.619 100.605 139.12C100.573 139.621 100.557 140.075 100.557 140.48C100.557 140.811 100.578 141.136 100.621 141.456C100.674 141.765 100.781 142.021 100.941 142.224C101.101 142.416 101.346 142.512 101.677 142.512H101.901L101.501 145.296C100.797 145.296 100.215 145.173 99.7566 144.928C99.2979 144.693 98.9299 144.373 98.6526 143.968C98.1939 144.48 97.6712 144.821 97.0846 144.992C96.4979 145.173 95.8899 145.264 95.2606 145.264ZM93.5966 140.96C93.6499 141.472 93.8579 141.883 94.2206 142.192C94.5939 142.491 95.0632 142.64 95.6286 142.64C96.1726 142.64 96.6259 142.496 96.9886 142.208C97.3512 141.909 97.6499 141.504 97.8846 140.992C97.8739 140.821 97.8686 140.645 97.8686 140.464C97.8686 140.091 97.8792 139.707 97.9006 139.312C97.9219 138.917 97.9486 138.528 97.9806 138.144C97.5326 137.973 97.0632 137.888 96.5726 137.888C95.9966 137.888 95.4792 138.005 95.0206 138.24C94.5726 138.464 94.2206 138.779 93.9646 139.184C93.7086 139.589 93.5806 140.059 93.5806 140.592C93.5806 140.656 93.5806 140.72 93.5806 140.784C93.5806 140.848 93.5859 140.907 93.5966 140.96ZM102.837 145.248C102.879 144.363 102.911 143.477 102.933 142.592C102.954 141.707 102.965 140.832 102.965 139.968C102.954 139.179 102.938 138.4 102.917 137.632C102.906 136.853 102.879 136.101 102.837 135.376L105.525 135.296C105.535 135.691 105.551 136.096 105.573 136.512C105.914 136.085 106.309 135.744 106.757 135.488C107.215 135.221 107.738 135.088 108.325 135.088C108.549 135.088 108.837 135.12 109.189 135.184C109.541 135.248 109.898 135.371 110.261 135.552L109.957 138.256C109.69 138.096 109.402 137.984 109.093 137.92C108.794 137.845 108.543 137.808 108.341 137.808C107.658 137.808 107.077 138.117 106.597 138.736C106.127 139.344 105.807 140.192 105.637 141.28C105.637 142.027 105.626 142.741 105.605 143.424C105.594 144.096 105.567 144.704 105.525 145.248H102.837ZM114.948 145.264C114.394 145.264 113.85 145.168 113.316 144.976C112.794 144.784 112.319 144.485 111.892 144.08C111.476 143.685 111.146 143.189 110.9 142.592C110.655 141.984 110.532 141.275 110.532 140.464C110.532 139.547 110.671 138.757 110.948 138.096C111.236 137.424 111.615 136.875 112.084 136.448C112.554 136.011 113.076 135.685 113.652 135.472C114.228 135.259 114.804 135.152 115.38 135.152C115.722 135.152 116.047 135.179 116.356 135.232C116.666 135.275 116.954 135.339 117.22 135.424C117.252 134.645 117.29 133.861 117.332 133.072C117.386 132.283 117.444 131.504 117.508 130.736L120.196 130.912C120.111 131.797 120.036 132.752 119.972 133.776C119.908 134.789 119.86 135.824 119.828 136.88C119.807 137.936 119.796 138.965 119.796 139.968C119.796 140.907 119.807 141.803 119.828 142.656C119.86 143.499 119.898 144.267 119.94 144.96L117.172 145.168C117.162 144.965 117.156 144.768 117.156 144.576C116.847 144.779 116.506 144.944 116.132 145.072C115.77 145.2 115.375 145.264 114.948 145.264ZM113.108 140.32C113.108 140.875 113.215 141.312 113.428 141.632C113.642 141.941 113.903 142.16 114.212 142.288C114.522 142.416 114.82 142.48 115.108 142.48C115.45 142.48 115.791 142.405 116.132 142.256C116.474 142.107 116.794 141.845 117.092 141.472C117.092 141.344 117.092 141.221 117.092 141.104C117.092 140.24 117.103 139.355 117.124 138.448C116.623 138.011 116.079 137.792 115.492 137.792C115.247 137.792 114.986 137.829 114.708 137.904C114.431 137.979 114.17 138.112 113.924 138.304C113.69 138.485 113.492 138.741 113.332 139.072C113.183 139.392 113.108 139.808 113.108 140.32ZM126.183 145.328C125.458 145.328 124.786 145.243 124.167 145.072C123.548 144.901 122.988 144.683 122.487 144.416C121.986 144.149 121.538 143.867 121.143 143.568L122.583 141.248C123.031 141.664 123.463 141.984 123.879 142.208C124.295 142.432 124.727 142.587 125.175 142.672C125.634 142.757 126.13 142.8 126.663 142.8C127.122 142.8 127.49 142.741 127.767 142.624C128.044 142.496 128.183 142.336 128.183 142.144C128.183 141.984 128.05 141.861 127.783 141.776C127.516 141.68 127.175 141.6 126.759 141.536C126.343 141.461 125.906 141.371 125.447 141.264C124.796 141.093 124.188 140.896 123.623 140.672C123.058 140.448 122.599 140.144 122.247 139.76C121.906 139.376 121.735 138.864 121.735 138.224C121.735 137.712 121.858 137.264 122.103 136.88C122.348 136.485 122.674 136.16 123.079 135.904C123.495 135.637 123.964 135.44 124.487 135.312C125.01 135.184 125.548 135.12 126.103 135.12C127.063 135.12 127.89 135.237 128.583 135.472C129.287 135.696 129.959 135.995 130.599 136.368L129.143 138.576C128.823 138.352 128.455 138.16 128.039 138C127.634 137.829 127.223 137.701 126.807 137.616C126.402 137.52 126.023 137.472 125.671 137.472C125.287 137.472 124.983 137.531 124.759 137.648C124.546 137.765 124.439 137.931 124.439 138.144C124.439 138.272 124.572 138.395 124.839 138.512C125.116 138.619 125.639 138.763 126.407 138.944C126.866 139.051 127.351 139.163 127.863 139.28C128.375 139.387 128.855 139.541 129.303 139.744C129.762 139.936 130.13 140.219 130.407 140.592C130.695 140.955 130.839 141.44 130.839 142.048C130.839 143.072 130.428 143.872 129.607 144.448C128.786 145.035 127.644 145.328 126.183 145.328ZM136.561 145.216C136.454 144.8 136.337 144.373 136.209 143.936C136.092 143.499 135.985 143.115 135.889 142.784C137.073 142.123 138.102 141.408 138.977 140.64C139.862 139.872 140.588 139.109 141.153 138.352C141.729 137.595 142.156 136.907 142.433 136.288C142.721 135.669 142.865 135.184 142.865 134.832C142.865 134.427 142.726 134.112 142.449 133.888C142.182 133.653 141.82 133.536 141.361 133.536C140.732 133.536 140.092 133.76 139.441 134.208C138.801 134.656 138.204 135.291 137.649 136.112L135.969 134.096C136.449 133.52 136.956 133.003 137.489 132.544C138.033 132.085 138.614 131.723 139.233 131.456C139.852 131.179 140.513 131.04 141.217 131.04C141.985 131.04 142.689 131.173 143.329 131.44C143.969 131.707 144.481 132.107 144.865 132.64C145.249 133.173 145.441 133.835 145.441 134.624C145.441 135.371 145.249 136.181 144.865 137.056C144.481 137.92 143.948 138.789 143.265 139.664C142.582 140.528 141.804 141.333 140.929 142.08C141.281 142.069 141.638 142.064 142.001 142.064C142.705 142.064 143.35 142.107 143.937 142.192C144.524 142.267 145.132 142.384 145.761 142.544L145.233 145.008C144.71 144.88 144.156 144.773 143.569 144.688C142.982 144.603 142.31 144.56 141.553 144.56C140.657 144.56 139.766 144.608 138.881 144.704C137.996 144.811 137.222 144.981 136.561 145.216ZM152.583 145.248C151.772 145.248 151.047 145.056 150.407 144.672C149.767 144.299 149.223 143.787 148.775 143.136C148.337 142.485 148.001 141.749 147.767 140.928C147.532 140.107 147.415 139.253 147.415 138.368C147.415 137.312 147.559 136.32 147.847 135.392C148.145 134.453 148.572 133.616 149.127 132.88C149.681 132.144 150.348 131.536 151.127 131.056L151.351 131.536C151.873 131.269 152.439 131.136 153.047 131.136C153.921 131.136 154.684 131.328 155.335 131.712C155.996 132.085 156.54 132.597 156.967 133.248C157.404 133.888 157.729 134.608 157.943 135.408C158.167 136.208 158.279 137.035 158.279 137.888C158.279 139.157 158.113 140.256 157.783 141.184C157.463 142.112 157.031 142.875 156.487 143.472C155.943 144.069 155.329 144.512 154.647 144.8C153.975 145.099 153.287 145.248 152.583 145.248ZM150.039 138.512C150.039 138.896 150.076 139.328 150.151 139.808C150.236 140.288 150.38 140.747 150.583 141.184C150.785 141.611 151.057 141.968 151.399 142.256C151.751 142.533 152.199 142.672 152.743 142.672C153.329 142.672 153.841 142.475 154.279 142.08C154.716 141.675 155.057 141.115 155.303 140.4C155.559 139.685 155.687 138.859 155.687 137.92C155.687 136.981 155.543 136.213 155.255 135.616C154.977 135.008 154.625 134.56 154.199 134.272C153.783 133.973 153.361 133.824 152.935 133.824C152.711 133.824 152.497 133.888 152.295 134.016C152.092 134.144 151.932 134.315 151.815 134.528L151.591 134.048C151.089 134.549 150.732 135.056 150.519 135.568C150.305 136.08 150.172 136.587 150.119 137.088C150.065 137.579 150.039 138.053 150.039 138.512ZM160.561 145.216C160.454 144.8 160.337 144.373 160.209 143.936C160.092 143.499 159.985 143.115 159.889 142.784C161.073 142.123 162.102 141.408 162.977 140.64C163.862 139.872 164.588 139.109 165.153 138.352C165.729 137.595 166.156 136.907 166.433 136.288C166.721 135.669 166.865 135.184 166.865 134.832C166.865 134.427 166.726 134.112 166.449 133.888C166.182 133.653 165.82 133.536 165.361 133.536C164.732 133.536 164.092 133.76 163.441 134.208C162.801 134.656 162.204 135.291 161.649 136.112L159.969 134.096C160.449 133.52 160.956 133.003 161.489 132.544C162.033 132.085 162.614 131.723 163.233 131.456C163.852 131.179 164.513 131.04 165.217 131.04C165.985 131.04 166.689 131.173 167.329 131.44C167.969 131.707 168.481 132.107 168.865 132.64C169.249 133.173 169.441 133.835 169.441 134.624C169.441 135.371 169.249 136.181 168.865 137.056C168.481 137.92 167.948 138.789 167.265 139.664C166.582 140.528 165.804 141.333 164.929 142.08C165.281 142.069 165.638 142.064 166.001 142.064C166.705 142.064 167.35 142.107 167.937 142.192C168.524 142.267 169.132 142.384 169.761 142.544L169.233 145.008C168.71 144.88 168.156 144.773 167.569 144.688C166.982 144.603 166.31 144.56 165.553 144.56C164.657 144.56 163.766 144.608 162.881 144.704C161.996 144.811 161.222 144.981 160.561 145.216ZM176.135 141.728C175.591 141.728 175.041 141.717 174.487 141.696C173.932 141.664 173.42 141.579 172.951 141.44C172.492 141.301 172.124 141.072 171.847 140.752C171.569 140.432 171.431 139.984 171.431 139.408C171.431 139.024 171.527 138.555 171.719 138C171.911 137.445 172.156 136.853 172.455 136.224C172.764 135.584 173.095 134.944 173.447 134.304C173.809 133.653 174.161 133.035 174.503 132.448C174.844 131.851 175.143 131.328 175.399 130.88L177.543 132.096C177.553 131.765 177.559 131.456 177.559 131.168L180.151 131.2C180.087 132.288 180.017 133.515 179.943 134.88C179.879 136.245 179.809 137.616 179.735 138.992C180.183 138.949 180.631 138.891 181.079 138.816C181.527 138.741 181.969 138.651 182.407 138.544L182.551 141.2C182.039 141.275 181.532 141.344 181.031 141.408C180.54 141.472 180.06 141.525 179.591 141.568C179.559 142.229 179.527 142.869 179.495 143.488C179.463 144.096 179.431 144.661 179.399 145.184L176.679 145.12C176.743 144.619 176.801 144.08 176.855 143.504C176.919 142.928 176.977 142.331 177.031 141.712C176.721 141.723 176.423 141.728 176.135 141.728ZM175.223 139.168C175.436 139.179 175.644 139.184 175.847 139.184C176.049 139.184 176.247 139.184 176.439 139.184C176.695 139.184 176.951 139.179 177.207 139.168C177.292 137.941 177.361 136.725 177.415 135.52C177.468 134.315 177.511 133.227 177.543 132.256C177.255 132.661 176.94 133.141 176.599 133.696C176.268 134.24 175.943 134.805 175.623 135.392C175.303 135.979 175.02 136.523 174.775 137.024C174.572 137.451 174.407 137.803 174.279 138.08C174.151 138.347 174.087 138.555 174.087 138.704C174.087 138.853 174.172 138.965 174.343 139.04C174.513 139.104 174.807 139.147 175.223 139.168Z" fill="white"/>
</svg>
