<svg width="228" height="229" viewBox="0 0 228 229" fill="none" xmlns="http://www.w3.org/2000/svg">
<path d="M93.2521 13.43C92.5751 13.6721 90.366 14.312 88.3529 14.8827C79.0712 17.4766 76.1317 19.4999 74.2967 24.5322L73.8335 25.8119L69.7004 28.475C67.4201 29.9277 65.5495 31.1036 65.5495 31.0517C65.5495 31.0171 65.8702 30.481 66.2799 29.8931C67.2776 28.3886 68.2752 26.2961 69.0056 24.1864C69.647 22.3014 71.4998 15.4015 71.3751 15.2977C71.3394 15.2631 70.4487 15.7473 69.3976 16.3526C61.4342 21.0044 56.3925 25.8465 54.3259 30.8615C53.2036 33.5592 52.9898 35.8073 53.6133 38.1246L53.9874 39.4735L53.2214 40.1133C51.4577 41.5659 48.3044 44.4712 46.7188 46.0967C45.3114 47.5494 45.0977 47.7223 45.3827 47.1343C46.3982 45.111 47.378 41.5659 47.7343 38.6607C48.055 35.8592 47.8768 30.948 47.2889 26.6939L47.182 25.9503L45.1689 28.4232C41.98 32.3487 40.5726 34.1991 39.1474 36.3261C36.5464 40.1998 35.7803 42.1539 35.2459 46.2524C34.7649 50.0396 35.5665 55.4177 36.7602 56.3688C37.0274 56.5764 37.1343 56.5591 37.5797 56.2478C37.8647 56.0403 38.1497 55.8673 38.2032 55.8673C38.2566 55.8673 37.7044 56.6628 36.9739 57.6312C35.6022 59.4989 32.5736 64.1334 31.4512 66.1049C31.0771 66.762 30.7564 67.2808 30.7386 67.2808C30.703 67.2808 30.7564 66.8658 30.8633 66.3643C30.9524 65.8801 31.0415 64.0643 31.0415 62.3523C31.0415 57.8215 30.7386 56.3343 27.9595 47.7742C27.229 45.5606 26.5877 43.814 26.5342 43.8832C26.4095 44.0216 24.7705 48.9155 23.4344 53.1004C22.5614 55.85 21.4391 60.1214 21.0828 62.0929C20.8868 63.1477 20.7621 64.6695 20.7621 66.3297C20.7621 69.2176 21.065 70.8259 22.1161 73.2296C22.7218 74.5958 24.9309 78.5732 25.1268 78.6597C25.1981 78.6943 25.0556 79.2303 24.8062 79.8702C24.0401 81.7897 22.3299 86.822 21.9735 88.1536C21.7954 88.8453 21.5994 89.416 21.5282 89.416C21.4569 89.416 21.35 89.0528 21.2788 88.5859C21.1006 87.3581 19.4972 82.8619 18.4283 80.5619C17.9117 79.4379 17.11 78.0371 16.6646 77.4146C16.2192 76.792 14.9366 74.8206 13.8142 73.0394C11.231 68.8718 10.8569 68.7334 10.8569 71.8635C10.8569 72.6244 10.7678 74.4574 10.6787 75.9274C9.84141 88.2746 10.3224 93.134 12.7809 97.8031C13.7964 99.7054 15.5066 101.469 17.4307 102.559C18.7312 103.302 18.7312 103.32 18.6243 103.942C18.3571 105.55 17.9651 110.375 17.8582 113.315L17.7513 116.566L16.8784 114.975C15.7204 112.9 13.6004 109.58 12.2286 107.747C10.2333 105.049 9.03972 103.769 7.04442 102.213C5.9577 101.366 4.51467 100.241 3.8555 99.7227C2.0918 98.3219 1.75331 98.4257 2.19869 100.19C2.34121 100.778 2.87567 103.441 3.37449 106.104C4.74626 113.54 5.65484 116.756 7.40073 120.353C9.57418 124.832 13.1016 128.343 17.6445 130.591L18.6599 131.075L18.8559 132.51C19.2835 135.398 20.2098 140.016 20.8334 142.402C21.0115 143.077 21.1362 143.647 21.1184 143.664C21.0828 143.699 20.7977 143.353 20.4771 142.921C19.4438 141.52 17.4129 139.67 15.667 138.528C14.7406 137.923 12.7809 136.609 11.3023 135.589C7.08005 132.683 0.452804 128.498 0.078685 128.498C-0.188543 128.498 0.167761 129.328 2.03836 133.15C4.88879 138.995 8.00644 144.927 9.34258 147.089C12.5671 152.328 17.2347 155.96 23.2919 157.983C24.3073 158.312 25.4297 158.588 25.7682 158.588C26.3561 158.588 26.4095 158.64 26.8549 159.678C27.5319 161.252 31.3443 168.515 32.2173 169.881C33.0011 171.126 32.9655 171.143 31.7541 170.244C29.8122 168.809 25.9285 166.716 22.704 165.35C20.2989 164.33 18.5708 163.776 15.5957 163.085C14.3308 162.791 12.1752 162.151 10.8212 161.701C7.16913 160.439 7.02661 160.681 9.57418 163.707C10.5184 164.849 12.1218 166.82 13.1016 168.1C15.4176 171.091 17.4485 173.27 19.9782 175.484C25.0378 179.911 27.2468 181.225 31.665 182.453C35.2993 183.473 37.1877 183.646 40.145 183.3L41.7306 183.11L42.1938 183.698C43.9753 185.912 48.2331 190.2 51.9209 193.503L53.3461 194.783L50.6382 193.451C47.5918 191.964 47.1286 191.843 41.2318 191.03C32.5914 189.837 23.47 189.111 22.3833 189.509C22.1161 189.63 22.1517 189.716 22.7396 190.252C24.0045 191.428 31.5937 196.789 34.4442 198.536C36.7067 199.919 38.8623 200.939 41.6771 201.96C46.701 203.775 48.732 204.139 53.0967 204.017C56.6953 203.914 57.8711 203.706 60.7394 202.599L62.806 201.804L65.2644 203.291C67.9367 204.917 72.2658 207.269 74.1008 208.099C77.0937 209.447 77.4322 209.62 76.7731 209.517C76.4346 209.465 74.2789 209.378 71.9986 209.309C66.3334 209.171 64.9972 209.326 55.9293 211.056C53.2392 211.575 49.5336 212.249 47.6987 212.578C43.7615 213.252 43.5121 213.442 45.7568 214.065C46.5229 214.272 49.3555 215.12 52.0278 215.932C61.1848 218.699 62.9663 219.011 69.2907 219.028C73.3525 219.028 74.0473 218.993 75.7576 218.63C79.8551 217.8 82.6343 216.52 85.1284 214.341C86.2329 213.373 86.7139 213.044 86.999 213.114C87.1949 213.148 88.5845 213.511 90.0632 213.909C91.5418 214.307 94.0538 214.895 95.6393 215.206C97.2071 215.517 98.5432 215.811 98.5967 215.863C98.6323 215.898 98.2582 216.036 97.7415 216.157C95.3721 216.745 88.9408 219.668 79.4453 224.458C74.0651 227.173 72.4262 228.124 72.729 228.314C73.2813 228.66 82.4561 228.314 87.7294 227.744C94.2319 227.052 102.587 224.233 106.008 221.57C107.273 220.584 108.591 219.305 109.927 217.783L110.568 217.039H114.221H117.891L120.438 219.408C124.838 223.489 125.533 223.853 133.425 226.17C137.95 227.501 139.304 227.709 148.052 228.297C155.908 228.833 156.407 228.833 156.407 228.262C156.407 227.83 151.686 225.357 148.746 224.25C147.82 223.905 146.288 223.144 145.362 222.556C142.939 221.034 140.926 219.979 138.503 218.941C136.294 218.008 130.361 216.002 129.827 216.002C129.649 216.002 129.506 215.95 129.506 215.863C129.506 215.794 130.326 215.587 131.341 215.414C133.497 215.033 137.933 213.961 140.516 213.2C141.513 212.906 142.351 212.699 142.386 212.733C142.404 212.768 142.547 213.027 142.689 213.321C143.58 214.999 149.548 217.99 153.557 218.751C156.674 219.356 163.319 219.305 166.74 218.682C169.822 218.094 180.742 214.86 182.417 214.013C183.148 213.65 183.112 213.148 182.381 212.906C181.455 212.629 175.22 211.402 170.837 210.658C163.711 209.43 161.627 209.188 158.01 209.188C154.821 209.188 154.038 209.275 149.851 210.035C149.584 210.087 149.78 209.949 150.261 209.741C154.501 207.943 161.057 204.432 165.261 201.683C167.345 200.317 167.417 200.299 167.203 200.836C166.775 201.839 167.274 202.444 169.091 203.101C171.158 203.862 173.135 204.139 176.36 204.139C179.585 204.139 180.867 203.948 184.288 202.945C187.405 202.029 189.81 200.974 192.768 199.227C197.703 196.322 204.508 191.791 205.559 190.684C206.093 190.131 205.951 189.768 205.131 189.612C204.08 189.422 192.501 190.269 188.207 190.857C182.952 191.566 178.159 193.036 174.578 195.06L173.599 195.613L174.578 194.783C178.444 191.515 182.275 187.727 185.695 183.802C186.657 182.695 186.728 182.643 187.103 182.868C188.759 183.871 193.338 183.542 198.077 182.072C200.428 181.346 201.907 180.585 204.419 178.839C210.298 174.757 212.543 172.561 216.052 167.477C217.531 165.333 218.724 163.949 220.061 162.894C221.308 161.891 221.628 161.425 221.236 161.165C220.898 160.94 220.15 161.079 217.424 161.874C216.159 162.237 213.95 162.825 212.525 163.188C209.87 163.846 207.911 164.503 205.577 165.558C202.37 166.993 198.094 169.552 195.44 171.627C193.997 172.751 193.961 172.769 194.371 172.129C196.562 168.688 200.001 162.341 201.212 159.488C201.479 158.865 201.729 158.537 201.871 158.588C203.207 159.038 208.196 157.188 211.848 154.87C214.021 153.47 217.121 150.582 218.279 148.818C220.47 145.48 226.652 133.531 227.775 130.453C228.291 129.035 228.024 129.017 225.868 130.262C223.356 131.732 215.536 136.782 213.237 138.442C211.117 139.981 208.516 142.419 207.305 144.045C206.842 144.65 206.468 145.1 206.468 145.065C206.468 145.013 206.699 144.097 207.002 143.007C207.643 140.569 208.481 136.592 208.962 133.513C209.176 132.234 209.354 131.179 209.371 131.179C209.389 131.162 209.728 131.058 210.138 130.954C211.171 130.66 214.591 128.637 215.892 127.547C218.137 125.628 219.74 123.553 221.272 120.544C222.982 117.206 224.069 113.54 225.174 107.366C225.565 105.153 226.153 102.351 226.456 101.158C227.222 98.1144 227.026 97.7858 225.227 99.2385C222.929 101.123 216.48 107.885 214.306 110.704C212.988 112.416 211.741 114.543 210.921 116.445L210.262 117.95L210.155 114.197C210.048 110.911 209.728 106.675 209.389 104.081C209.282 103.32 209.3 103.285 209.639 103.372C210.334 103.544 211.67 102.714 213.433 101.02C214.93 99.567 215.251 99.152 215.945 97.7167C217.353 94.846 218.083 92.0445 218.404 88.2573C218.707 84.6085 218.618 81.6168 217.958 73.5063C217.531 68.3011 217.816 68.4567 215.482 72.1402C211.741 78.0717 208.908 83.2769 208.053 85.8709C207.732 86.8739 207.643 87.6002 207.572 90.1596C207.537 91.8543 207.465 93.2205 207.43 93.1859C207.394 93.1513 207.091 92.0272 206.735 90.713C205.933 87.6867 204.259 82.5852 203.101 79.68C202.513 78.1927 202.334 77.5529 202.53 77.7258C203.332 78.4349 204.241 77.7258 205.488 75.374C206.414 73.6274 207.554 70.4281 208 68.3184C208.516 65.7936 208.142 63.0786 206.361 56.6455C205.452 53.3598 203.029 46.114 202.726 45.7509C202.139 45.0591 201.283 46.5982 199.342 51.8035C198.469 54.1726 198.255 55.4523 198.059 60.035C197.916 63.1823 197.899 65.1192 198.041 66.6928C198.13 67.9206 198.201 68.9409 198.184 68.9755C198.148 69.0101 197.685 68.2146 197.15 67.2289C195.102 63.5282 192.055 58.9109 189.383 55.4523C187.975 53.6192 187.922 53.2907 189.276 54.6568C189.668 55.0546 190.381 55.6598 190.862 56.0057L191.734 56.6282L192.144 56.1613C192.999 55.1929 193.516 52.3741 193.516 48.6907C193.516 42.69 191.948 38.9028 186.8 32.4352C185.784 31.1555 181.705 26.2961 181.134 25.6909C180.974 25.5179 181.063 29.3743 181.366 36.8622C181.526 41.1336 181.776 43.105 182.328 44.7133C182.667 45.6817 183.931 48.293 184.644 49.4689C184.911 49.9012 185 50.0914 184.84 49.9185C182.898 47.6012 177.732 42.5689 174.881 40.1652C174.276 39.6637 174.222 39.5772 174.472 39.3351C174.97 38.8682 175.184 37.6577 175.184 35.4615C175.184 32.954 174.953 31.8645 174.097 30.1871C172.548 27.1608 168.913 23.0969 165.172 20.2089C162.945 18.4969 158.58 15.7473 158.064 15.7473C157.529 15.7473 158.046 18.5142 159.525 23.339C160.665 27.0743 161.413 28.5096 163.693 31.3803C164.495 32.3833 164.566 32.5389 164.139 32.2622C163.854 32.0893 162.5 31.3457 161.128 30.6021C158.01 28.942 155.481 27.5239 155.267 27.3337C155.178 27.2472 155.035 26.6939 154.946 26.0886C154.608 23.7021 152.594 20.7969 149.94 18.8428C147.446 17.0097 145.094 16.1105 136.472 13.6548C133.728 12.8767 133.247 12.8248 133.247 13.3263C133.247 14.0872 138.039 20.2781 141.032 23.3563C143.491 25.8984 146.876 27.7314 150.421 28.475C151.561 28.6999 151.953 28.9247 155.374 31.2592C157.405 32.6427 159.061 33.8186 159.026 33.8532C158.99 33.8705 158.046 33.8359 156.941 33.7494C154.501 33.5592 152.345 33.7322 149.495 34.3547C146.911 34.9081 143.295 35.963 141.175 36.7584C136.632 38.4705 137.149 38.7472 146.876 39.7847C149.619 40.0787 151.989 40.3554 152.131 40.39C152.274 40.4419 153.877 40.5456 155.677 40.6494C159.311 40.8569 164.905 40.6321 166.918 40.2344L168.076 39.9923L170.125 41.6178C171.247 42.4998 172.69 43.693 173.331 44.2464L174.489 45.284L172.886 44.8689C169.661 44.0388 167.737 43.8486 162.464 43.8659C157.137 43.8832 156.015 44.0216 155.908 44.7306C155.837 45.2494 156.282 45.5434 158.723 46.5809C159.952 47.0997 162.749 48.3621 164.958 49.3824C168.913 51.2155 172.833 52.7892 174.792 53.3425C176.289 53.7576 179.602 54.2764 181.669 54.4147L183.522 54.5358L185.392 56.9049C186.408 58.2192 187.744 59.9831 188.35 60.8132C189.294 62.1447 189.383 62.3004 188.92 62.0064C184.983 59.4816 176.307 56.4207 172.156 56.0921C170.802 55.9884 170.499 56.1267 170.819 56.7147C171.176 57.3373 183.807 67.7131 186.354 69.4597C190.006 71.9845 194.246 74.3364 195.85 74.7341L196.651 74.9244L197.489 76.7747C198.344 78.6424 200.589 84.2972 200.589 84.5739C200.589 84.6604 199.68 83.8303 198.593 82.7235C196.081 80.2333 194.068 78.7461 190.683 76.8612C185.659 74.0597 182.417 72.6935 182.417 73.368C182.417 73.7311 183.29 74.9589 184.573 76.3597C186.711 78.7461 189.312 82.4814 191.574 86.4589C192.144 87.4446 192.892 88.6551 193.267 89.1393C195.404 91.9408 199.431 95.728 202.406 97.7513C203.279 98.3565 204.116 98.9099 204.259 99.0137C204.65 99.2731 205.417 104.496 205.915 110.168C205.987 111.067 206.04 111.828 206.022 111.862C206.004 111.88 205.719 111.188 205.399 110.306C204.633 108.127 203.475 106 202.281 104.547C201.034 103.043 191.164 93.134 190.897 93.134C190.523 93.134 190.755 94.2062 192.02 98.4084C194.656 107.107 196.384 111.69 198.629 115.961C200.41 119.385 202.584 122.498 204.864 124.919L205.808 125.922L205.684 127.34C205.399 130.47 204.205 138.01 203.973 138.01C203.902 138.01 203.795 137.525 203.742 136.92C203.403 133.41 201.372 128.965 196.527 121.149C194.514 117.88 193.498 116.532 193.142 116.601C192.696 116.687 192.679 118.209 193.017 123.743C193.623 133.894 194.157 139.514 194.745 141.728C195.547 144.875 197.845 149.821 199.359 151.688L199.858 152.311L198.825 154.801C197.15 158.813 193.997 165.194 193.997 164.555C193.997 164.451 194.086 163.258 194.175 161.891C194.531 156.755 193.498 149.821 191.485 143.976C190.701 141.676 190.078 140.604 189.543 140.604C189.062 140.604 188.884 141.019 188.742 142.592C188.581 144.373 187.975 147.434 186.782 152.536C184.822 160.871 184.466 163.258 184.608 167.373C184.715 170.469 184.911 171.524 186.016 174.619L186.586 176.21L185.054 178.164C183.468 180.188 180.101 184.061 179.727 184.286C179.567 184.372 179.549 184.286 179.638 183.992C179.87 183.162 180.457 179.565 180.636 177.801C180.903 175.19 180.849 169.379 180.547 165.592C180.386 163.794 180.244 162.22 180.208 162.134C180.172 162.03 179.531 163.171 178.765 164.641C176.681 168.688 173.955 173.495 172.583 175.588C169.109 180.897 168.307 183.802 167.88 192.569L167.773 195.008L166.668 195.786C164.246 197.55 158.723 201.129 158.456 201.129C158.402 201.129 158.687 200.628 159.079 200.023C161.039 197.031 162.999 192.137 163.961 187.848C164.353 186.136 165.136 181.191 165.029 181.087C164.905 180.948 155.356 190.252 152.612 193.175C147.375 198.778 145.076 202.617 144.56 206.681L144.435 207.649L142.012 208.444C140.053 209.084 135.189 210.468 134.904 210.468C134.868 210.468 135.634 209.69 136.614 208.738C140.32 205.142 143.847 199.902 144.702 196.72C145.29 194.472 145.54 194.558 142.565 196.011C140.213 197.135 138.004 198.051 133.336 199.781C132.552 200.075 130.949 200.784 129.773 201.372C127.849 202.323 127.457 202.599 125.836 204.156C122.879 207.026 120.402 210.589 120.349 212.024L120.331 212.664L119.013 212.785C117.018 212.941 109.446 212.906 108.983 212.733C108.698 212.629 108.448 212.249 108.146 211.488C107.576 210.001 106.471 207.857 105.776 206.871C104.85 205.539 102.801 203.672 101.126 202.617C99.3093 201.458 97.1714 200.455 94.0538 199.314C89.8672 197.792 85.9301 196.045 83.9169 194.869L83.329 194.506L83.4537 195.094C84.3623 199.054 87.6759 204.087 92.5395 208.877C93.6262 209.949 94.3923 210.779 94.2498 210.744C94.0894 210.693 92.8424 210.381 91.4706 210.035C90.0988 209.69 87.8897 209.067 86.5536 208.635L84.1307 207.874L84.006 206.784C83.5072 202.478 82.0998 199.884 77.3788 194.731C75.6863 192.898 63.7502 180.862 63.6789 180.931C63.5186 181.069 64.5518 186.534 65.1932 188.972C66.6362 194.541 68.2752 198.397 70.4843 201.441C70.7337 201.787 70.6268 201.752 69.6292 201.199C68.1149 200.351 63.8392 197.619 62.1112 196.374C61.1135 195.665 60.7394 195.302 60.8285 195.111C60.8819 194.973 61.0244 194.247 61.1135 193.538C61.6123 190.166 60.5434 184.874 58.3343 179.755C57.4436 177.697 56.8201 176.573 55.0207 173.685C53.8449 171.818 50.9767 166.647 49.5871 163.897C49.213 163.171 48.821 162.566 48.6963 162.566C48.3757 162.566 48.2688 164.9 48.2688 171.991C48.2688 180.654 48.3935 181.969 49.6227 185.566C49.8009 186.067 45.8993 181.83 43.4052 178.77L41.8731 176.919L42.3185 175.933C43.2627 173.858 44.1713 168.912 44.1713 165.8C44.1713 162.808 43.5299 159.021 41.6059 150.685C40.4301 145.584 39.7709 142.195 39.6818 140.777C39.6462 140.189 39.5571 139.981 39.3077 139.946C39.0761 139.895 38.8267 140.223 38.3101 141.33C37.1699 143.699 35.8872 148.489 34.7827 154.438C34.1591 157.862 34.1235 161.563 34.6936 164.641C34.9074 165.73 35.0321 166.647 35.0143 166.682C34.9786 166.699 34.0344 164.952 32.9121 162.791C31.1127 159.315 29.1709 155.078 28.4761 153.193L28.2623 152.57L29.349 151.395C31.2018 149.44 33.5356 144.408 34.1057 141.157C34.8361 136.989 36.2079 118.434 35.8694 117.396C35.7269 116.947 35.4062 117.016 34.8005 117.638C32.7874 119.731 27.2825 129.259 26.1067 132.666C25.4831 134.482 24.9487 137.266 24.8062 139.341C24.7527 140.327 24.6636 141.105 24.628 141.071C24.343 140.777 22.8465 132.372 22.4189 128.637L22.2051 126.769L22.6683 126.423C23.9688 125.42 29.7053 117.396 31.0058 114.75C32.5201 111.672 38.1497 94.2926 37.9003 93.5317C37.7934 93.2551 35.3349 95.434 31.7897 98.9445C25.5366 105.101 24.1648 107.245 22.0983 113.972C21.5994 115.563 22.2408 107.193 23.0068 102.161L23.3809 99.6016L24.1114 99.2385C25.3584 98.6332 28.1198 96.5407 29.8835 94.8806C33.1793 91.7851 35.4953 88.9145 39.86 82.4987C41.3743 80.2679 43.3874 77.4146 44.3494 76.1695C45.3114 74.9244 46.1844 73.7311 46.2913 73.5409C46.5763 73.0394 46.5407 72.6417 46.22 72.6417C45.4896 72.6417 38.8267 76.2732 34.5511 79.0228C32.4311 80.3717 29.545 82.9138 28.1198 84.6777C27.6922 85.2138 27.1934 85.819 27.0331 86.0265C26.463 86.701 29.6341 78.3657 30.8633 75.9274C31.2196 75.2529 31.3443 75.1319 32.1282 74.9416C33.2684 74.665 36.2613 73.2642 38.6486 71.8635C42.5145 69.5981 46.1488 66.9522 49.7831 63.753C50.9589 62.7154 52.8829 61.0899 54.0587 60.1387C57.1764 57.6312 57.9246 56.9222 57.8533 56.4899C57.7821 55.9711 57.016 55.9538 54.7713 56.3861C48.9814 57.5275 43.815 59.5508 39.5571 62.3696C38.6486 62.9748 37.8647 63.4763 37.8291 63.4763C37.544 63.4763 43.5477 55.435 44.2782 54.8125C44.5454 54.5876 45.1689 54.5012 46.9326 54.432C52.0634 54.2072 56.4994 52.9102 63.0554 49.7283C64.6765 48.9501 67.2419 47.7742 68.7562 47.1343C70.2705 46.4945 71.7848 45.7682 72.1055 45.5434C73.7623 44.3328 71.8026 43.7622 65.9949 43.7622C60.9175 43.7622 56.4103 44.3674 53.453 45.4569C53.061 45.5952 56.25 42.8629 58.459 41.1509C59.6705 40.2171 60.3475 39.802 60.5434 39.8712C61.4876 40.2344 63.9996 40.6667 65.9949 40.8396C68.8631 41.0644 71.8382 40.8742 78.9109 40.0441C81.7079 39.6983 85.2709 39.3351 86.8386 39.2141C89.6356 38.9893 90.5798 38.7644 90.4373 38.3494C90.1523 37.5021 84.2554 35.3231 79.8016 34.4239C76.3099 33.7322 71.3929 33.5592 68.7562 34.0607C68.3108 34.1472 67.9367 34.1991 67.9011 34.1818C67.8833 34.1472 69.4154 32.954 71.3038 31.5359L74.7421 28.9247L76.7018 28.7344C80.9774 28.3194 83.9526 26.7284 88.1926 22.63C90.5798 20.3127 92.7176 17.8571 94.0538 15.8857C95.1761 14.2601 95.4256 13.603 95.1049 13.2225C94.8377 12.9112 94.7486 12.9285 93.2521 13.43Z" fill="white"/>
<path d="M78.4073 73.104C78.3966 72.9867 78.3913 72.8587 78.3913 72.72C78.3913 72.5813 78.3913 72.4213 78.3913 72.24C78.3913 71.7813 78.4019 71.2373 78.4233 70.608C78.4446 69.968 78.4766 69.2907 78.5193 68.576C78.5619 67.8507 78.6046 67.1253 78.6473 66.4C78.6899 65.664 78.7326 64.96 78.7753 64.288C78.8286 63.616 78.8766 63.0133 78.9193 62.48C78.6846 62.5547 78.4766 62.624 78.2953 62.688L77.8793 60C79.0846 59.6587 80.2046 59.4027 81.2393 59.232C82.2846 59.0613 83.2286 58.976 84.0713 58.976C85.7886 58.976 87.1006 59.3013 88.0073 59.952C88.9139 60.6027 89.3673 61.5467 89.3673 62.784C89.3673 63.488 89.2126 64.08 88.9033 64.56C88.5939 65.0293 88.1566 65.4187 87.5913 65.728C88.9779 66.432 89.6713 67.5787 89.6713 69.168C89.6713 69.872 89.5379 70.464 89.2713 70.944C89.0153 71.4133 88.6846 71.792 88.2793 72.08C87.8739 72.368 87.4419 72.5813 86.9833 72.72C86.5353 72.8693 86.1086 72.9653 85.7033 73.008C85.3086 73.0613 84.9993 73.088 84.7753 73.088C84.2206 73.088 83.6286 73.0347 82.9993 72.928C82.3699 72.8213 81.7566 72.6613 81.1593 72.448C81.1593 72.6613 81.1593 72.864 81.1593 73.056L78.4073 73.104ZM84.1353 61.648C83.7513 61.648 83.3459 61.6693 82.9193 61.712C82.5033 61.744 82.0873 61.7973 81.6713 61.872C81.6073 62.6507 81.5433 63.5573 81.4793 64.592C81.6179 64.6027 81.7566 64.608 81.8953 64.608C82.0446 64.608 82.1939 64.608 82.3433 64.608C85.1593 64.608 86.5673 64.032 86.5673 62.88C86.5673 62.496 86.3486 62.1973 85.9113 61.984C85.4846 61.76 84.8926 61.648 84.1353 61.648ZM82.7113 67.136C82.4873 67.136 82.2579 67.136 82.0233 67.136C81.7993 67.136 81.5699 67.1413 81.3353 67.152C81.3139 67.6213 81.2926 68.0907 81.2713 68.56C81.2606 69.0293 81.2446 69.4933 81.2233 69.952C81.8206 70.1333 82.4073 70.2667 82.9833 70.352C83.5593 70.4267 84.0553 70.464 84.4713 70.464C85.3566 70.464 85.9913 70.3573 86.3753 70.144C86.7593 69.92 86.9513 69.5573 86.9513 69.056C86.9513 68.4373 86.5833 67.9627 85.8472 67.632C85.1219 67.3013 84.0766 67.136 82.7113 67.136ZM95.9594 73.28C94.9354 73.28 94.034 73.0773 93.2554 72.672C92.4874 72.2773 91.8847 71.7227 91.4474 71.008C91.0207 70.2933 90.8074 69.4667 90.8074 68.528C90.8074 67.9627 90.9034 67.3707 91.0954 66.752C91.2874 66.1227 91.5967 65.536 92.0234 64.992C92.45 64.448 93.01 64.0053 93.7034 63.664C94.4074 63.3227 95.2607 63.152 96.2634 63.152C96.9887 63.152 97.5967 63.232 98.0874 63.392C98.5887 63.552 98.994 63.76 99.3034 64.016C99.6234 64.272 99.8634 64.544 100.023 64.832C100.194 65.12 100.306 65.3973 100.359 65.664C100.423 65.92 100.455 66.1333 100.455 66.304C100.455 67.3387 100.018 68.1387 99.1434 68.704C98.2794 69.2587 97.0527 69.536 95.4634 69.536C95.1007 69.536 94.754 69.52 94.4234 69.488C94.1034 69.456 93.8047 69.4187 93.5274 69.376C93.73 69.9093 94.066 70.304 94.5354 70.56C95.0047 70.8053 95.49 70.928 95.9914 70.928C96.7167 70.928 97.3567 70.8 97.9114 70.544C98.466 70.2773 98.9887 69.872 99.4794 69.328L100.903 71.376C100.562 71.6533 100.178 71.9413 99.7514 72.24C99.3354 72.5387 98.8234 72.784 98.2154 72.976C97.6074 73.1787 96.8554 73.28 95.9594 73.28ZM96.3114 65.552C95.682 65.552 95.1274 65.712 94.6474 66.032C94.1674 66.352 93.8154 66.7733 93.5914 67.296C93.858 67.3387 94.1194 67.376 94.3754 67.408C94.642 67.4293 94.9034 67.44 95.1594 67.44C95.394 67.44 95.6607 67.4187 95.9594 67.376C96.2687 67.3333 96.5674 67.2693 96.8554 67.184C97.154 67.0987 97.3994 66.992 97.5914 66.864C97.7834 66.7253 97.8794 66.5653 97.8794 66.384C97.8794 66.2987 97.8367 66.192 97.7514 66.064C97.666 65.936 97.5114 65.8187 97.2874 65.712C97.0634 65.6053 96.738 65.552 96.3114 65.552ZM106.847 73.328C106.122 73.328 105.45 73.2427 104.831 73.072C104.212 72.9013 103.652 72.6827 103.151 72.416C102.65 72.1493 102.202 71.8667 101.807 71.568L103.247 69.248C103.695 69.664 104.127 69.984 104.543 70.208C104.959 70.432 105.391 70.5867 105.839 70.672C106.298 70.7573 106.794 70.8 107.327 70.8C107.786 70.8 108.154 70.7413 108.431 70.624C108.708 70.496 108.847 70.336 108.847 70.144C108.847 69.984 108.714 69.8613 108.447 69.776C108.18 69.68 107.839 69.6 107.423 69.536C107.007 69.4613 106.57 69.3707 106.111 69.264C105.46 69.0933 104.852 68.896 104.287 68.672C103.722 68.448 103.263 68.144 102.911 67.76C102.57 67.376 102.399 66.864 102.399 66.224C102.399 65.712 102.522 65.264 102.767 64.88C103.012 64.4853 103.338 64.16 103.743 63.904C104.159 63.6373 104.628 63.44 105.151 63.312C105.674 63.184 106.212 63.12 106.767 63.12C107.727 63.12 108.554 63.2373 109.247 63.472C109.951 63.696 110.623 63.9947 111.263 64.368L109.807 66.576C109.487 66.352 109.119 66.16 108.703 66C108.298 65.8293 107.887 65.7013 107.471 65.616C107.066 65.52 106.687 65.472 106.335 65.472C105.951 65.472 105.647 65.5307 105.423 65.648C105.21 65.7653 105.103 65.9307 105.103 66.144C105.103 66.272 105.236 66.3947 105.503 66.512C105.78 66.6187 106.303 66.7627 107.071 66.944C107.53 67.0507 108.015 67.1627 108.527 67.28C109.039 67.3867 109.519 67.5413 109.967 67.744C110.426 67.936 110.794 68.2187 111.071 68.592C111.359 68.9547 111.503 69.44 111.503 70.048C111.503 71.072 111.092 71.872 110.271 72.448C109.45 73.0347 108.308 73.328 106.847 73.328ZM117.537 73.264C116.897 73.264 116.39 73.1253 116.017 72.848C115.643 72.5813 115.371 72.208 115.201 71.728C115.03 71.248 114.918 70.6987 114.865 70.08C114.822 69.4613 114.801 68.8107 114.801 68.128C114.801 67.424 114.827 66.6933 114.881 65.936C114.166 66.032 113.478 66.1547 112.817 66.304L112.321 63.792C113.206 63.5573 114.15 63.3867 115.153 63.28C115.227 62.736 115.307 62.1653 115.393 61.568C115.478 60.96 115.574 60.32 115.681 59.648L118.433 59.888C118.305 60.4427 118.193 60.9973 118.097 61.552C118.001 62.096 117.915 62.624 117.841 63.136C118.438 63.136 118.998 63.152 119.521 63.184C120.054 63.2053 120.545 63.248 120.993 63.312L120.673 65.824C120.299 65.7813 119.91 65.7547 119.505 65.744C119.11 65.7227 118.71 65.712 118.305 65.712C118.059 65.712 117.814 65.7173 117.569 65.728C117.505 66.5067 117.462 67.1733 117.441 67.728C117.43 68.2827 117.425 68.6773 117.425 68.912C117.425 69.4987 117.457 69.92 117.521 70.176C117.595 70.432 117.713 70.56 117.873 70.56C118.054 70.56 118.257 70.5013 118.481 70.384C118.705 70.256 118.923 70.0853 119.137 69.872C119.361 69.6587 119.547 69.4293 119.697 69.184L120.929 71.76C119.873 72.7627 118.742 73.264 117.537 73.264ZM131.064 73.232C129.922 73.232 128.946 73.0453 128.136 72.672C127.325 72.3093 126.621 71.888 126.024 71.408L127.288 69.12C127.65 69.504 128.056 69.808 128.504 70.032C128.962 70.2453 129.416 70.4 129.864 70.496C130.322 70.5813 130.722 70.624 131.064 70.624C131.725 70.624 132.269 70.4693 132.696 70.16C133.133 69.84 133.352 69.4347 133.352 68.944C133.352 68.592 133.229 68.2773 132.984 68C132.749 67.7227 132.424 67.5093 132.008 67.36C131.592 67.2 131.117 67.12 130.584 67.12H130.36C130.178 67.12 129.992 67.1253 129.8 67.136C129.618 67.1467 129.437 67.1627 129.256 67.184L129.208 66L129.096 64.656C130.397 64.6027 131.394 64.4053 132.088 64.064C132.781 63.712 133.128 63.248 133.128 62.672C133.128 62.3627 132.93 62.1067 132.536 61.904C132.152 61.6907 131.656 61.584 131.048 61.584C129.938 61.584 128.834 61.984 127.736 62.784L126.424 60.48C126.893 60.1387 127.4 59.8613 127.944 59.648C128.488 59.424 129.032 59.2587 129.576 59.152C130.12 59.0453 130.621 58.992 131.08 58.992C132.018 58.992 132.834 59.1413 133.528 59.44C134.221 59.728 134.76 60.1387 135.144 60.672C135.528 61.2053 135.72 61.8347 135.72 62.56C135.72 63.392 135.538 64.064 135.176 64.576C134.824 65.088 134.338 65.488 133.72 65.776C134.424 66.0747 134.994 66.5013 135.432 67.056C135.88 67.6107 136.104 68.2667 136.104 69.024C136.104 69.6747 135.965 70.2613 135.688 70.784C135.41 71.296 135.032 71.7333 134.552 72.096C134.082 72.4693 133.544 72.752 132.936 72.944C132.338 73.136 131.714 73.232 131.064 73.232ZM140.563 73.264L137.875 73.024L138.467 62.032C138.189 62.096 137.933 62.1707 137.699 62.256L137.219 59.536C137.784 59.4187 138.483 59.296 139.315 59.168C140.147 59.04 141.005 58.976 141.891 58.976C142.573 58.976 143.267 59.0507 143.971 59.2C144.675 59.3387 145.347 59.5733 145.987 59.904C146.637 60.224 147.213 60.656 147.715 61.2C148.227 61.744 148.627 62.4107 148.915 63.2C149.213 63.9893 149.363 64.9227 149.363 66C149.363 67.5147 149.117 68.8107 148.627 69.888C148.147 70.9547 147.443 71.7707 146.515 72.336C145.597 72.9013 144.488 73.184 143.187 73.184C142.323 73.184 141.469 73.024 140.627 72.704C140.605 72.9173 140.584 73.104 140.563 73.264ZM141.779 61.664C141.629 61.664 141.475 61.664 141.315 61.664C141.208 63.648 141.112 65.3387 141.027 66.736C140.941 68.1227 140.867 69.28 140.803 70.208C141.123 70.3147 141.475 70.4107 141.859 70.496C142.253 70.5707 142.664 70.608 143.091 70.608C143.955 70.608 144.648 70.3893 145.171 69.952C145.704 69.5147 146.088 68.9387 146.323 68.224C146.557 67.4987 146.675 66.7147 146.675 65.872C146.675 65.2 146.573 64.6293 146.371 64.16C146.168 63.6907 145.901 63.3013 145.571 62.992C145.251 62.6827 144.899 62.4427 144.515 62.272C144.131 62.0907 143.752 61.9573 143.379 61.872C143.016 61.7867 142.691 61.7333 142.403 61.712C142.115 61.68 141.907 61.664 141.779 61.664ZM80.3398 96.28C79.4438 96.28 78.6118 96.1467 77.8438 95.88C77.0758 95.6133 76.3825 95.2613 75.7638 94.824C75.1558 94.376 74.6225 93.896 74.1638 93.384L75.7638 90.84C75.9025 91.2027 76.1318 91.5493 76.4518 91.88C76.7825 92.2107 77.1665 92.504 77.6038 92.76C78.0411 93.016 78.4998 93.2187 78.9798 93.368C79.4705 93.5173 79.9505 93.592 80.4198 93.592C81.1238 93.592 81.6838 93.48 82.0998 93.256C82.5158 93.0213 82.7238 92.712 82.7238 92.328C82.7238 92.0293 82.6278 91.784 82.4358 91.592C82.2545 91.3893 82.0411 91.2293 81.7958 91.112C81.5611 90.984 81.3585 90.872 81.1878 90.776C81.0598 90.712 80.8251 90.616 80.4838 90.488C80.1531 90.3493 79.7798 90.2 79.3638 90.04C78.9478 89.88 78.5531 89.7307 78.1798 89.592C77.8065 89.4427 77.5131 89.32 77.2998 89.224C75.7105 88.5093 74.9158 87.4053 74.9158 85.912C74.9158 85.432 75.0065 84.9627 75.1878 84.504C75.3798 84.0347 75.6678 83.608 76.0518 83.224C76.4358 82.84 76.9265 82.536 77.5238 82.312C78.1211 82.088 78.8358 81.976 79.6678 81.976C80.5745 81.976 81.3798 82.0773 82.0838 82.28C82.7878 82.472 83.4065 82.7173 83.9398 83.016C84.4838 83.3147 84.9478 83.6293 85.3318 83.96L83.8598 86.424C82.6758 85.2507 81.3371 84.664 79.8438 84.664C79.2145 84.664 78.7345 84.7333 78.4038 84.872C78.0838 85 77.8651 85.1493 77.7478 85.32C77.6411 85.48 77.5878 85.6133 77.5878 85.72C77.5878 85.9013 77.6518 86.0827 77.7798 86.264C77.9185 86.4453 78.2225 86.6373 78.6918 86.84C78.8838 86.9253 79.1398 87.032 79.4598 87.16C79.7905 87.2773 80.1531 87.4107 80.5478 87.56C80.9531 87.7093 81.3478 87.8693 81.7318 88.04C82.1265 88.2 82.4838 88.3653 82.8038 88.536C83.1878 88.7493 83.5825 89.0107 83.9878 89.32C84.3931 89.6293 84.7345 90.0133 85.0118 90.472C85.2998 90.92 85.4438 91.4693 85.4438 92.12C85.4438 92.5147 85.3691 92.952 85.2198 93.432C85.0705 93.9013 84.8091 94.3547 84.4358 94.792C84.0625 95.2293 83.5451 95.5867 82.8838 95.864C82.2225 96.1413 81.3745 96.28 80.3398 96.28ZM91.6048 96.296C90.7088 96.296 89.8821 96.1093 89.1248 95.736C88.3675 95.3627 87.7595 94.8293 87.3008 94.136C86.8421 93.432 86.6128 92.5947 86.6128 91.624C86.6128 90.536 86.8261 89.5813 87.2528 88.76C87.6795 87.9387 88.2768 87.304 89.0448 86.856C89.8128 86.3973 90.7088 86.168 91.7328 86.168C92.7141 86.168 93.5461 86.3707 94.2288 86.776C94.9115 87.1707 95.5195 87.8 96.0528 88.664L93.8288 90.2C93.5301 89.72 93.2261 89.3573 92.9168 89.112C92.6075 88.856 92.1861 88.728 91.6528 88.728C90.9275 88.728 90.3408 88.984 89.8928 89.496C89.4448 89.9973 89.2208 90.6693 89.2208 91.512C89.2208 92.0027 89.3381 92.4027 89.5728 92.712C89.8181 93.0213 90.1168 93.2507 90.4688 93.4C90.8208 93.5493 91.1515 93.624 91.4608 93.624C91.7808 93.624 92.0901 93.5867 92.3888 93.512C92.6875 93.4267 92.9701 93.2453 93.2368 92.968C93.5035 92.6907 93.7435 92.2693 93.9568 91.704L96.3568 92.984C96.0368 93.5707 95.6795 94.1147 95.2848 94.616C94.8901 95.1173 94.3995 95.5227 93.8128 95.832C93.2368 96.1413 92.5008 96.296 91.6048 96.296ZM102.248 96.28C101.224 96.28 100.323 96.0773 99.5444 95.672C98.7764 95.2773 98.1738 94.7227 97.7364 94.008C97.3098 93.2933 97.0964 92.4667 97.0964 91.528C97.0964 90.9627 97.1924 90.3707 97.3844 89.752C97.5764 89.1227 97.8858 88.536 98.3124 87.992C98.7391 87.448 99.2991 87.0053 99.9924 86.664C100.696 86.3227 101.55 86.152 102.552 86.152C103.278 86.152 103.886 86.232 104.376 86.392C104.878 86.552 105.283 86.76 105.592 87.016C105.912 87.272 106.152 87.544 106.312 87.832C106.483 88.12 106.595 88.3973 106.648 88.664C106.712 88.92 106.744 89.1333 106.744 89.304C106.744 90.3387 106.307 91.1387 105.432 91.704C104.568 92.2587 103.342 92.536 101.752 92.536C101.39 92.536 101.043 92.52 100.712 92.488C100.392 92.456 100.094 92.4187 99.8164 92.376C100.019 92.9093 100.355 93.304 100.824 93.56C101.294 93.8053 101.779 93.928 102.28 93.928C103.006 93.928 103.646 93.8 104.2 93.544C104.755 93.2773 105.278 92.872 105.768 92.328L107.192 94.376C106.851 94.6533 106.467 94.9413 106.04 95.24C105.624 95.5387 105.112 95.784 104.504 95.976C103.896 96.1787 103.144 96.28 102.248 96.28ZM102.6 88.552C101.971 88.552 101.416 88.712 100.936 89.032C100.456 89.352 100.104 89.7733 99.8804 90.296C100.147 90.3387 100.408 90.376 100.664 90.408C100.931 90.4293 101.192 90.44 101.448 90.44C101.683 90.44 101.95 90.4187 102.248 90.376C102.558 90.3333 102.856 90.2693 103.144 90.184C103.443 90.0987 103.688 89.992 103.88 89.864C104.072 89.7253 104.168 89.5653 104.168 89.384C104.168 89.2987 104.126 89.192 104.04 89.064C103.955 88.936 103.8 88.8187 103.576 88.712C103.352 88.6053 103.027 88.552 102.6 88.552ZM108.56 96.152C108.528 95.2133 108.501 94.344 108.48 93.544C108.469 92.744 108.464 91.9547 108.464 91.176C108.464 90.3973 108.469 89.6187 108.48 88.84C108.501 88.0507 108.533 87.208 108.576 86.312H111.28C111.237 86.792 111.2 87.2773 111.168 87.768C111.531 87.3093 111.963 86.9307 112.464 86.632C112.965 86.3227 113.557 86.168 114.24 86.168C114.912 86.168 115.461 86.28 115.888 86.504C116.325 86.728 116.667 87.0373 116.912 87.432C117.168 87.8267 117.349 88.28 117.456 88.792C117.573 89.2933 117.648 89.8373 117.68 90.424C117.712 91 117.728 91.5813 117.728 92.168C117.728 92.808 117.717 93.4213 117.696 94.008C117.675 94.5947 117.653 95.0853 117.632 95.48C117.611 95.8747 117.595 96.1093 117.584 96.184H114.896C114.917 95.7467 114.939 95.2827 114.96 94.792C114.981 94.2907 115.003 93.8 115.024 93.32C115.045 92.8293 115.056 92.3867 115.056 91.992C115.056 89.72 114.688 88.584 113.952 88.584C113.344 88.584 112.789 88.8507 112.288 89.384C111.797 89.9067 111.387 90.568 111.056 91.368C111.056 91.4747 111.056 91.5813 111.056 91.688C111.056 92.2 111.056 92.7333 111.056 93.288C111.067 93.832 111.077 94.3547 111.088 94.856C111.109 95.3467 111.125 95.7733 111.136 96.136L108.56 96.152ZM123.307 96.264C122.507 96.264 121.782 96.056 121.131 95.64C120.481 95.2347 119.963 94.6853 119.579 93.992C119.206 93.288 119.019 92.504 119.019 91.64C119.019 90.8293 119.169 90.0987 119.467 89.448C119.766 88.7867 120.171 88.2213 120.683 87.752C121.206 87.2827 121.798 86.9253 122.459 86.68C123.121 86.424 123.814 86.296 124.539 86.296C125.147 86.296 125.745 86.3813 126.331 86.552C126.374 86.328 126.411 86.104 126.443 85.88L129.179 86.344C129.105 86.5467 129.03 86.8507 128.955 87.256C128.881 87.6613 128.817 88.1147 128.763 88.616C128.721 89.1173 128.683 89.6187 128.651 90.12C128.619 90.6213 128.603 91.0747 128.603 91.48C128.603 91.8107 128.625 92.136 128.667 92.456C128.721 92.7653 128.827 93.0213 128.987 93.224C129.147 93.416 129.393 93.512 129.723 93.512H129.947L129.547 96.296C128.843 96.296 128.262 96.1733 127.803 95.928C127.345 95.6933 126.977 95.3733 126.699 94.968C126.241 95.48 125.718 95.8213 125.131 95.992C124.545 96.1733 123.937 96.264 123.307 96.264ZM121.643 91.96C121.697 92.472 121.905 92.8827 122.267 93.192C122.641 93.4907 123.11 93.64 123.675 93.64C124.219 93.64 124.673 93.496 125.035 93.208C125.398 92.9093 125.697 92.504 125.931 91.992C125.921 91.8213 125.915 91.6453 125.915 91.464C125.915 91.0907 125.926 90.7067 125.947 90.312C125.969 89.9173 125.995 89.528 126.027 89.144C125.579 88.9733 125.11 88.888 124.619 88.888C124.043 88.888 123.526 89.0053 123.067 89.24C122.619 89.464 122.267 89.7787 122.011 90.184C121.755 90.5893 121.627 91.0587 121.627 91.592C121.627 91.656 121.627 91.72 121.627 91.784C121.627 91.848 121.633 91.9067 121.643 91.96ZM130.884 96.248C130.926 95.3627 130.958 94.4773 130.98 93.592C131.001 92.7067 131.012 91.832 131.012 90.968C131.001 90.1787 130.985 89.4 130.964 88.632C130.953 87.8533 130.926 87.1013 130.884 86.376L133.572 86.296C133.582 86.6907 133.598 87.096 133.62 87.512C133.961 87.0853 134.356 86.744 134.804 86.488C135.262 86.2213 135.785 86.088 136.372 86.088C136.596 86.088 136.884 86.12 137.236 86.184C137.588 86.248 137.945 86.3707 138.308 86.552L138.004 89.256C137.737 89.096 137.449 88.984 137.14 88.92C136.841 88.8453 136.59 88.808 136.388 88.808C135.705 88.808 135.124 89.1173 134.644 89.736C134.174 90.344 133.854 91.192 133.684 92.28C133.684 93.0267 133.673 93.7413 133.652 94.424C133.641 95.096 133.614 95.704 133.572 96.248H130.884ZM138.915 84.664C138.915 84.568 138.91 84.472 138.899 84.376C138.899 84.2693 138.899 84.152 138.899 84.024C138.899 83.6827 138.91 83.32 138.931 82.936C138.953 82.552 138.974 82.2267 138.995 81.96L141.843 82.008C141.811 82.3707 141.774 82.7813 141.731 83.24C141.699 83.6987 141.678 84.1733 141.667 84.664H138.915ZM138.851 96.12C138.819 95.4587 138.798 94.7547 138.787 94.008C138.777 93.2507 138.771 92.4933 138.771 91.736C138.771 90.744 138.782 89.7787 138.803 88.84C138.825 87.9013 138.851 87.048 138.883 86.28L141.635 86.264C141.593 86.7547 141.566 87.3627 141.555 88.088C141.545 88.8027 141.539 89.5547 141.539 90.344C141.539 91.1227 141.545 91.8907 141.555 92.648C141.566 93.4053 141.577 94.0933 141.587 94.712C141.609 95.32 141.625 95.7893 141.635 96.12H138.851ZM147.934 96.312C147.081 96.312 146.334 96.1733 145.694 95.896C145.065 95.6187 144.542 95.24 144.126 94.76C143.71 94.2693 143.401 93.7093 143.198 93.08C142.995 92.4507 142.894 91.7893 142.894 91.096C142.894 90.392 143.017 89.7413 143.262 89.144C143.518 88.536 143.865 88.008 144.302 87.56C144.75 87.112 145.273 86.7653 145.87 86.52C146.467 86.264 147.118 86.136 147.822 86.136C148.558 86.136 149.241 86.264 149.87 86.52C150.499 86.776 151.049 87.1333 151.518 87.592C151.987 88.0507 152.35 88.5893 152.606 89.208C152.873 89.8267 153.006 90.4987 153.006 91.224C153.006 92.8347 152.563 94.088 151.678 94.984C150.793 95.8693 149.545 96.312 147.934 96.312ZM147.918 93.72C148.697 93.72 149.289 93.5013 149.694 93.064C150.11 92.6267 150.318 91.9973 150.318 91.176C150.318 90.44 150.094 89.848 149.646 89.4C149.198 88.952 148.611 88.728 147.886 88.728C147.449 88.728 147.049 88.8453 146.686 89.08C146.323 89.304 146.03 89.608 145.806 89.992C145.593 90.3653 145.486 90.7813 145.486 91.24C145.486 91.6453 145.566 92.04 145.726 92.424C145.897 92.808 146.163 93.1227 146.526 93.368C146.889 93.6027 147.353 93.72 147.918 93.72ZM81.6419 119.136L78.9059 118.624C79.4179 116.555 79.9513 114.683 80.5059 113.008C81.0713 111.333 81.6526 109.899 82.2499 108.704C82.8473 107.509 83.4553 106.592 84.0739 105.952C84.7033 105.301 85.3326 104.976 85.9619 104.976C87.2313 104.976 88.3993 106.155 89.4659 108.512C90.5326 110.859 91.4393 114.261 92.1859 118.72L89.3539 119.104C89.2259 118.4 89.0873 117.68 88.9379 116.944C88.7886 116.197 88.6339 115.472 88.4739 114.768C88.2179 114.757 87.9406 114.752 87.6419 114.752C87.1193 114.752 86.5646 114.763 85.9779 114.784C85.4019 114.805 84.8313 114.843 84.2659 114.896C83.7113 114.939 83.1939 114.987 82.7139 115.04C82.5113 115.723 82.3139 116.416 82.1219 117.12C81.9406 117.813 81.7806 118.485 81.6419 119.136ZM84.5859 109.792C84.3513 110.293 84.0366 111.104 83.6419 112.224C84.1006 112.171 84.5859 112.133 85.0979 112.112C85.6099 112.08 86.1113 112.064 86.6019 112.064C87.0179 112.064 87.4179 112.075 87.8019 112.096C87.6526 111.552 87.5086 111.067 87.3699 110.64C87.2419 110.213 87.1246 109.877 87.0179 109.632C86.7939 109.056 86.5966 108.651 86.4259 108.416C86.2553 108.171 86.0793 108.048 85.8979 108.048C85.7059 108.048 85.5139 108.176 85.3219 108.432C85.1299 108.677 84.8846 109.131 84.5859 109.792ZM96.7966 119.312C95.9112 119.312 95.1592 118.624 94.5406 117.248C94.3272 116.757 94.1406 116.219 93.9806 115.632C93.8206 115.045 93.6819 114.448 93.5646 113.84C93.4579 113.232 93.3672 112.651 93.2926 112.096C93.2286 111.531 93.1752 111.035 93.1326 110.608C93.1006 110.171 93.0739 109.84 93.0526 109.616L95.6766 109.008C95.8046 111.429 95.9966 113.269 96.2526 114.528C96.5192 115.787 96.7219 116.416 96.8606 116.416C96.9352 116.416 97.0259 116.267 97.1326 115.968C97.2499 115.669 97.3779 115.275 97.5166 114.784C97.6552 114.283 97.7886 113.733 97.9166 113.136C98.0446 112.539 98.1566 111.936 98.2526 111.328C98.1246 110.549 98.0392 109.931 97.9966 109.472L100.701 109.376V109.568C100.701 110.005 100.733 110.517 100.797 111.104C100.861 111.691 100.941 112.299 101.037 112.928C101.133 113.547 101.234 114.123 101.341 114.656C101.458 115.189 101.57 115.621 101.677 115.952C101.783 116.283 101.874 116.448 101.949 116.448C102.013 116.448 102.103 116.304 102.221 116.016C102.338 115.728 102.466 115.333 102.605 114.832C102.754 114.331 102.903 113.76 103.053 113.12C103.202 112.469 103.346 111.787 103.485 111.072C103.623 110.347 103.735 109.627 103.821 108.912L106.461 109.472C106.279 110.485 106.061 111.493 105.805 112.496C105.559 113.488 105.298 114.411 105.021 115.264C104.743 116.107 104.471 116.816 104.205 117.392C103.607 118.661 102.866 119.296 101.981 119.296C101.693 119.296 101.362 119.205 100.989 119.024C100.626 118.853 100.29 118.491 99.9806 117.936C99.8739 117.733 99.7672 117.488 99.6606 117.2C99.5539 116.912 99.4526 116.592 99.3566 116.24C99.2286 116.635 99.1006 116.987 98.9726 117.296C98.4072 118.64 97.6819 119.312 96.7966 119.312ZM111.807 119.264C111.007 119.264 110.282 119.056 109.631 118.64C108.981 118.235 108.463 117.685 108.079 116.992C107.706 116.288 107.519 115.504 107.519 114.64C107.519 113.829 107.669 113.099 107.967 112.448C108.266 111.787 108.671 111.221 109.183 110.752C109.706 110.283 110.298 109.925 110.959 109.68C111.621 109.424 112.314 109.296 113.039 109.296C113.647 109.296 114.245 109.381 114.831 109.552C114.874 109.328 114.911 109.104 114.943 108.88L117.679 109.344C117.605 109.547 117.53 109.851 117.455 110.256C117.381 110.661 117.317 111.115 117.263 111.616C117.221 112.117 117.183 112.619 117.151 113.12C117.119 113.621 117.103 114.075 117.103 114.48C117.103 114.811 117.125 115.136 117.167 115.456C117.221 115.765 117.327 116.021 117.487 116.224C117.647 116.416 117.893 116.512 118.223 116.512H118.447L118.047 119.296C117.343 119.296 116.762 119.173 116.303 118.928C115.845 118.693 115.477 118.373 115.199 117.968C114.741 118.48 114.218 118.821 113.631 118.992C113.045 119.173 112.437 119.264 111.807 119.264ZM110.143 114.96C110.197 115.472 110.405 115.883 110.767 116.192C111.141 116.491 111.61 116.64 112.175 116.64C112.719 116.64 113.173 116.496 113.535 116.208C113.898 115.909 114.197 115.504 114.431 114.992C114.421 114.821 114.415 114.645 114.415 114.464C114.415 114.091 114.426 113.707 114.447 113.312C114.469 112.917 114.495 112.528 114.527 112.144C114.079 111.973 113.61 111.888 113.119 111.888C112.543 111.888 112.026 112.005 111.567 112.24C111.119 112.464 110.767 112.779 110.511 113.184C110.255 113.589 110.127 114.059 110.127 114.592C110.127 114.656 110.127 114.72 110.127 114.784C110.127 114.848 110.133 114.907 110.143 114.96ZM119.384 119.248C119.426 118.363 119.458 117.477 119.48 116.592C119.501 115.707 119.512 114.832 119.512 113.968C119.501 113.179 119.485 112.4 119.464 111.632C119.453 110.853 119.426 110.101 119.384 109.376L122.072 109.296C122.082 109.691 122.098 110.096 122.12 110.512C122.461 110.085 122.856 109.744 123.304 109.488C123.762 109.221 124.285 109.088 124.872 109.088C125.096 109.088 125.384 109.12 125.736 109.184C126.088 109.248 126.445 109.371 126.808 109.552L126.504 112.256C126.237 112.096 125.949 111.984 125.64 111.92C125.341 111.845 125.09 111.808 124.888 111.808C124.205 111.808 123.624 112.117 123.144 112.736C122.674 113.344 122.354 114.192 122.184 115.28C122.184 116.027 122.173 116.741 122.152 117.424C122.141 118.096 122.114 118.704 122.072 119.248H119.384ZM131.495 119.264C130.941 119.264 130.397 119.168 129.863 118.976C129.341 118.784 128.866 118.485 128.439 118.08C128.023 117.685 127.693 117.189 127.447 116.592C127.202 115.984 127.079 115.275 127.079 114.464C127.079 113.547 127.218 112.757 127.495 112.096C127.783 111.424 128.162 110.875 128.631 110.448C129.101 110.011 129.623 109.685 130.199 109.472C130.775 109.259 131.351 109.152 131.927 109.152C132.269 109.152 132.594 109.179 132.903 109.232C133.213 109.275 133.501 109.339 133.767 109.424C133.799 108.645 133.837 107.861 133.879 107.072C133.933 106.283 133.991 105.504 134.055 104.736L136.743 104.912C136.658 105.797 136.583 106.752 136.519 107.776C136.455 108.789 136.407 109.824 136.375 110.88C136.354 111.936 136.343 112.965 136.343 113.968C136.343 114.907 136.354 115.803 136.375 116.656C136.407 117.499 136.445 118.267 136.487 118.96L133.719 119.168C133.709 118.965 133.703 118.768 133.703 118.576C133.394 118.779 133.053 118.944 132.679 119.072C132.317 119.2 131.922 119.264 131.495 119.264ZM129.655 114.32C129.655 114.875 129.762 115.312 129.975 115.632C130.189 115.941 130.45 116.16 130.759 116.288C131.069 116.416 131.367 116.48 131.655 116.48C131.997 116.48 132.338 116.405 132.679 116.256C133.021 116.107 133.341 115.845 133.639 115.472C133.639 115.344 133.639 115.221 133.639 115.104C133.639 114.24 133.65 113.355 133.671 112.448C133.17 112.011 132.626 111.792 132.039 111.792C131.794 111.792 131.533 111.829 131.255 111.904C130.978 111.979 130.717 112.112 130.471 112.304C130.237 112.485 130.039 112.741 129.879 113.072C129.73 113.392 129.655 113.808 129.655 114.32ZM138.106 115.28L138.058 113.008C138.484 112.965 139.018 112.933 139.658 112.912C140.298 112.891 140.943 112.88 141.594 112.88C142.052 112.88 142.484 112.885 142.89 112.896C143.306 112.907 143.663 112.923 143.962 112.944L143.93 115.184C143.663 115.184 143.375 115.184 143.066 115.184C142.756 115.173 142.431 115.168 142.09 115.168C141.407 115.168 140.714 115.179 140.01 115.2C139.306 115.211 138.671 115.237 138.106 115.28ZM57.1421 142.072C57.1315 141.731 57.1261 141.384 57.1261 141.032C57.1261 140.691 57.1261 140.349 57.1261 140.008C57.1261 138.44 57.1581 136.92 57.2221 135.448C57.2861 133.965 57.3608 132.552 57.4461 131.208C57.0195 131.315 56.6621 131.416 56.3741 131.512L55.7501 128.952C56.2728 128.792 56.8221 128.653 57.3981 128.536C57.9848 128.408 58.5555 128.307 59.1101 128.232C59.6755 128.147 60.1928 128.088 60.6621 128.056C61.1421 128.013 61.5368 127.992 61.8461 127.992C62.1768 127.992 62.5821 128.019 63.0621 128.072C63.5528 128.125 64.0541 128.237 64.5661 128.408C65.0888 128.568 65.5741 128.813 66.0221 129.144C66.4701 129.475 66.8328 129.923 67.1101 130.488C67.3981 131.043 67.5421 131.741 67.5421 132.584C67.5421 133.459 67.3501 134.189 66.9661 134.776C66.5821 135.352 66.0755 135.816 65.4461 136.168C64.8168 136.509 64.1235 136.755 63.3661 136.904C62.6088 137.053 61.8621 137.128 61.1261 137.128C60.6568 137.128 60.2088 137.107 59.7821 137.064C59.7715 137.576 59.7661 138.083 59.7661 138.584C59.7661 139.267 59.7715 139.901 59.7821 140.488C59.7928 141.064 59.8141 141.571 59.8461 142.008L57.1421 142.072ZM61.7661 130.616C61.4888 130.616 61.2008 130.627 60.9021 130.648C60.6141 130.669 60.3261 130.696 60.0381 130.728C59.9848 131.293 59.9421 131.907 59.9101 132.568C59.8781 133.229 59.8515 133.907 59.8301 134.6C60.2248 134.632 60.6355 134.648 61.0621 134.648C63.6221 134.648 64.9021 133.891 64.9021 132.376C64.9021 131.779 64.6461 131.336 64.1341 131.048C63.6221 130.76 62.8328 130.616 61.7661 130.616ZM68.9384 142.248C68.981 141.363 69.013 140.477 69.0344 139.592C69.0557 138.707 69.0664 137.832 69.0664 136.968C69.0557 136.179 69.0397 135.4 69.0184 134.632C69.0077 133.853 68.981 133.101 68.9384 132.376L71.6264 132.296C71.637 132.691 71.653 133.096 71.6744 133.512C72.0157 133.085 72.4104 132.744 72.8584 132.488C73.317 132.221 73.8397 132.088 74.4264 132.088C74.6504 132.088 74.9384 132.12 75.2904 132.184C75.6424 132.248 75.9997 132.371 76.3624 132.552L76.0584 135.256C75.7917 135.096 75.5037 134.984 75.1944 134.92C74.8957 134.845 74.645 134.808 74.4424 134.808C73.7597 134.808 73.1784 135.117 72.6984 135.736C72.229 136.344 71.909 137.192 71.7384 138.28C71.7384 139.027 71.7277 139.741 71.7064 140.424C71.6957 141.096 71.669 141.704 71.6264 142.248H68.9384ZM81.85 142.28C80.826 142.28 79.9247 142.077 79.146 141.672C78.378 141.277 77.7753 140.723 77.338 140.008C76.9113 139.293 76.698 138.467 76.698 137.528C76.698 136.963 76.794 136.371 76.986 135.752C77.178 135.123 77.4873 134.536 77.914 133.992C78.3407 133.448 78.9007 133.005 79.594 132.664C80.298 132.323 81.1513 132.152 82.154 132.152C82.8793 132.152 83.4873 132.232 83.978 132.392C84.4793 132.552 84.8847 132.76 85.194 133.016C85.514 133.272 85.754 133.544 85.914 133.832C86.0847 134.12 86.1967 134.397 86.25 134.664C86.314 134.92 86.346 135.133 86.346 135.304C86.346 136.339 85.9087 137.139 85.034 137.704C84.17 138.259 82.9433 138.536 81.354 138.536C80.9913 138.536 80.6447 138.52 80.314 138.488C79.994 138.456 79.6953 138.419 79.418 138.376C79.6207 138.909 79.9567 139.304 80.426 139.56C80.8953 139.805 81.3807 139.928 81.882 139.928C82.6073 139.928 83.2473 139.8 83.802 139.544C84.3567 139.277 84.8793 138.872 85.37 138.328L86.794 140.376C86.4527 140.653 86.0687 140.941 85.642 141.24C85.226 141.539 84.714 141.784 84.106 141.976C83.498 142.179 82.746 142.28 81.85 142.28ZM82.202 134.552C81.5727 134.552 81.018 134.712 80.538 135.032C80.058 135.352 79.706 135.773 79.482 136.296C79.7487 136.339 80.01 136.376 80.266 136.408C80.5327 136.429 80.794 136.44 81.05 136.44C81.2847 136.44 81.5513 136.419 81.85 136.376C82.1593 136.333 82.458 136.269 82.746 136.184C83.0447 136.099 83.29 135.992 83.482 135.864C83.674 135.725 83.77 135.565 83.77 135.384C83.77 135.299 83.7273 135.192 83.642 135.064C83.5567 134.936 83.402 134.819 83.178 134.712C82.954 134.605 82.6287 134.552 82.202 134.552ZM88.0336 142.248C88.023 142.088 88.0123 141.821 88.0016 141.448C87.991 141.085 87.9803 140.648 87.9696 140.136C87.959 139.624 87.9536 139.075 87.9536 138.488C87.9536 137.891 87.9536 137.293 87.9536 136.696C87.9536 136.035 87.9536 135.405 87.9536 134.808C87.9643 134.211 87.9696 133.693 87.9696 133.256C87.9803 132.819 87.9856 132.504 87.9856 132.312L90.6896 132.264C90.6683 132.563 90.6523 132.925 90.6416 133.352C90.919 132.979 91.239 132.685 91.6016 132.472C91.9643 132.259 92.3803 132.152 92.8496 132.152C93.415 132.152 93.879 132.317 94.2416 132.648C94.615 132.979 94.919 133.411 95.1536 133.944C95.9216 132.749 96.8656 132.152 97.9856 132.152C98.615 132.152 99.1323 132.291 99.5376 132.568C99.9536 132.835 100.279 133.197 100.514 133.656C100.748 134.115 100.919 134.632 101.026 135.208C101.143 135.784 101.218 136.376 101.25 136.984C101.282 137.592 101.298 138.179 101.298 138.744C101.298 139.416 101.287 140.029 101.266 140.584C101.244 141.139 101.239 141.667 101.25 142.168H98.4816C98.4816 141.912 98.4816 141.587 98.4816 141.192C98.4816 140.808 98.4816 140.419 98.4816 140.024C98.4923 139.619 98.4976 139.272 98.4976 138.984C98.4976 138.685 98.4976 138.509 98.4976 138.456C98.4976 137.816 98.4816 137.213 98.4496 136.648C98.4176 136.083 98.3376 135.624 98.2096 135.272C98.0816 134.92 97.8736 134.744 97.5856 134.744C97.3083 134.744 97.063 134.877 96.8496 135.144C96.6363 135.411 96.4443 135.757 96.2736 136.184C96.1136 136.611 95.975 137.064 95.8576 137.544C95.879 137.96 95.895 138.376 95.9056 138.792C95.9163 139.197 95.9216 139.592 95.9216 139.976C95.9216 140.413 95.9163 140.792 95.9056 141.112C95.9056 141.443 95.9056 141.795 95.9056 142.168H93.2176C93.2176 141.304 93.2123 140.541 93.2016 139.88C93.191 139.219 93.1696 138.579 93.1376 137.96C93.0843 136.851 92.967 136.04 92.7856 135.528C92.615 135.005 92.375 134.744 92.0656 134.744C91.7243 134.744 91.4363 134.952 91.2016 135.368C90.967 135.773 90.775 136.269 90.6256 136.856C90.6363 137.709 90.6576 138.6 90.6896 139.528C90.7216 140.456 90.7643 141.352 90.8176 142.216L88.0336 142.248ZM102.642 130.664C102.642 130.568 102.637 130.472 102.626 130.376C102.626 130.269 102.626 130.152 102.626 130.024C102.626 129.683 102.637 129.32 102.658 128.936C102.679 128.552 102.701 128.227 102.722 127.96L105.57 128.008C105.538 128.371 105.501 128.781 105.458 129.24C105.426 129.699 105.405 130.173 105.394 130.664H102.642ZM102.578 142.12C102.546 141.459 102.525 140.755 102.514 140.008C102.503 139.251 102.498 138.493 102.498 137.736C102.498 136.744 102.509 135.779 102.53 134.84C102.551 133.901 102.578 133.048 102.61 132.28L105.362 132.264C105.319 132.755 105.293 133.363 105.282 134.088C105.271 134.803 105.266 135.555 105.266 136.344C105.266 137.123 105.271 137.891 105.282 138.648C105.293 139.405 105.303 140.093 105.314 140.712C105.335 141.32 105.351 141.789 105.362 142.12H102.578ZM111.613 142.328C110.887 142.328 110.215 142.243 109.597 142.072C108.978 141.901 108.418 141.683 107.917 141.416C107.415 141.149 106.967 140.867 106.573 140.568L108.013 138.248C108.461 138.664 108.893 138.984 109.309 139.208C109.725 139.432 110.157 139.587 110.605 139.672C111.063 139.757 111.559 139.8 112.093 139.8C112.551 139.8 112.919 139.741 113.197 139.624C113.474 139.496 113.613 139.336 113.613 139.144C113.613 138.984 113.479 138.861 113.213 138.776C112.946 138.68 112.605 138.6 112.189 138.536C111.773 138.461 111.335 138.371 110.877 138.264C110.226 138.093 109.618 137.896 109.053 137.672C108.487 137.448 108.029 137.144 107.677 136.76C107.335 136.376 107.165 135.864 107.165 135.224C107.165 134.712 107.287 134.264 107.533 133.88C107.778 133.485 108.103 133.16 108.509 132.904C108.925 132.637 109.394 132.44 109.917 132.312C110.439 132.184 110.978 132.12 111.533 132.12C112.493 132.12 113.319 132.237 114.013 132.472C114.717 132.696 115.389 132.995 116.029 133.368L114.573 135.576C114.253 135.352 113.885 135.16 113.469 135C113.063 134.829 112.653 134.701 112.237 134.616C111.831 134.52 111.453 134.472 111.101 134.472C110.717 134.472 110.413 134.531 110.189 134.648C109.975 134.765 109.869 134.931 109.869 135.144C109.869 135.272 110.002 135.395 110.269 135.512C110.546 135.619 111.069 135.763 111.837 135.944C112.295 136.051 112.781 136.163 113.293 136.28C113.805 136.387 114.285 136.541 114.733 136.744C115.191 136.936 115.559 137.219 115.837 137.592C116.125 137.955 116.269 138.44 116.269 139.048C116.269 140.072 115.858 140.872 115.037 141.448C114.215 142.035 113.074 142.328 111.613 142.328ZM122.455 142.072C122.444 141.731 122.439 141.384 122.439 141.032C122.439 140.691 122.439 140.349 122.439 140.008C122.439 138.44 122.471 136.92 122.535 135.448C122.599 133.965 122.673 132.552 122.759 131.208C122.332 131.315 121.975 131.416 121.687 131.512L121.063 128.952C121.585 128.792 122.135 128.653 122.711 128.536C123.297 128.408 123.868 128.307 124.423 128.232C124.988 128.147 125.505 128.088 125.975 128.056C126.455 128.013 126.849 127.992 127.159 127.992C127.489 127.992 127.895 128.019 128.375 128.072C128.865 128.125 129.367 128.237 129.879 128.408C130.401 128.568 130.887 128.813 131.335 129.144C131.783 129.475 132.145 129.923 132.423 130.488C132.711 131.043 132.855 131.741 132.855 132.584C132.855 133.459 132.663 134.189 132.279 134.776C131.895 135.352 131.388 135.816 130.759 136.168C130.129 136.509 129.436 136.755 128.679 136.904C127.921 137.053 127.175 137.128 126.439 137.128C125.969 137.128 125.521 137.107 125.095 137.064C125.084 137.576 125.079 138.083 125.079 138.584C125.079 139.267 125.084 139.901 125.095 140.488C125.105 141.064 125.127 141.571 125.159 142.008L122.455 142.072ZM127.079 130.616C126.801 130.616 126.513 130.627 126.215 130.648C125.927 130.669 125.639 130.696 125.351 130.728C125.297 131.293 125.255 131.907 125.223 132.568C125.191 133.229 125.164 133.907 125.143 134.6C125.537 134.632 125.948 134.648 126.375 134.648C128.935 134.648 130.215 133.891 130.215 132.376C130.215 131.779 129.959 131.336 129.447 131.048C128.935 130.76 128.145 130.616 127.079 130.616ZM134.267 130.664C134.267 130.568 134.262 130.472 134.251 130.376C134.251 130.269 134.251 130.152 134.251 130.024C134.251 129.683 134.262 129.32 134.283 128.936C134.304 128.552 134.326 128.227 134.347 127.96L137.195 128.008C137.163 128.371 137.126 128.781 137.083 129.24C137.051 129.699 137.03 130.173 137.019 130.664H134.267ZM134.203 142.12C134.171 141.459 134.15 140.755 134.139 140.008C134.128 139.251 134.123 138.493 134.123 137.736C134.123 136.744 134.134 135.779 134.155 134.84C134.176 133.901 134.203 133.048 134.235 132.28L136.987 132.264C136.944 132.755 136.918 133.363 136.907 134.088C136.896 134.803 136.891 135.555 136.891 136.344C136.891 137.123 136.896 137.891 136.907 138.648C136.918 139.405 136.928 140.093 136.939 140.712C136.96 141.32 136.976 141.789 136.987 142.12H134.203ZM140.406 142.36L138.39 140.616C138.902 140.019 139.451 139.416 140.038 138.808C140.624 138.189 141.227 137.576 141.846 136.968C141.099 136.317 140.4 135.736 139.75 135.224C139.11 134.701 138.614 134.333 138.262 134.12L139.862 132.008C140.438 132.424 141.062 132.899 141.734 133.432C142.406 133.965 143.083 134.531 143.766 135.128C144.395 134.552 145.014 133.992 145.622 133.448C146.23 132.893 146.811 132.371 147.366 131.88L149.222 133.8C148.88 134.045 148.395 134.451 147.766 135.016C147.136 135.571 146.454 136.189 145.718 136.872C146.422 137.512 147.083 138.147 147.702 138.776C148.331 139.395 148.886 139.971 149.366 140.504L147.414 142.28C147.222 142.045 146.944 141.741 146.582 141.368C146.219 140.995 145.798 140.579 145.318 140.12C144.848 139.661 144.347 139.192 143.814 138.712C143.302 139.213 142.816 139.699 142.358 140.168C141.91 140.637 141.515 141.059 141.174 141.432C140.832 141.816 140.576 142.125 140.406 142.36ZM155.459 142.28C154.435 142.28 153.534 142.077 152.755 141.672C151.987 141.277 151.385 140.723 150.947 140.008C150.521 139.293 150.307 138.467 150.307 137.528C150.307 136.963 150.403 136.371 150.595 135.752C150.787 135.123 151.097 134.536 151.523 133.992C151.95 133.448 152.51 133.005 153.203 132.664C153.907 132.323 154.761 132.152 155.763 132.152C156.489 132.152 157.097 132.232 157.587 132.392C158.089 132.552 158.494 132.76 158.803 133.016C159.123 133.272 159.363 133.544 159.523 133.832C159.694 134.12 159.806 134.397 159.859 134.664C159.923 134.92 159.955 135.133 159.955 135.304C159.955 136.339 159.518 137.139 158.643 137.704C157.779 138.259 156.553 138.536 154.963 138.536C154.601 138.536 154.254 138.52 153.923 138.488C153.603 138.456 153.305 138.419 153.027 138.376C153.23 138.909 153.566 139.304 154.035 139.56C154.505 139.805 154.99 139.928 155.491 139.928C156.217 139.928 156.857 139.8 157.411 139.544C157.966 139.277 158.489 138.872 158.979 138.328L160.403 140.376C160.062 140.653 159.678 140.941 159.251 141.24C158.835 141.539 158.323 141.784 157.715 141.976C157.107 142.179 156.355 142.28 155.459 142.28ZM155.811 134.552C155.182 134.552 154.627 134.712 154.147 135.032C153.667 135.352 153.315 135.773 153.091 136.296C153.358 136.339 153.619 136.376 153.875 136.408C154.142 136.429 154.403 136.44 154.659 136.44C154.894 136.44 155.161 136.419 155.459 136.376C155.769 136.333 156.067 136.269 156.355 136.184C156.654 136.099 156.899 135.992 157.091 135.864C157.283 135.725 157.379 135.565 157.379 135.384C157.379 135.299 157.337 135.192 157.251 135.064C157.166 134.936 157.011 134.819 156.787 134.712C156.563 134.605 156.238 134.552 155.811 134.552ZM164.763 142.264C164.176 142.264 163.691 142.136 163.307 141.88C162.934 141.635 162.635 141.293 162.411 140.856C162.198 140.419 162.038 139.917 161.931 139.352C161.835 138.787 161.771 138.184 161.739 137.544C161.718 136.893 161.707 136.243 161.707 135.592C161.707 135.027 161.723 134.408 161.755 133.736C161.787 133.053 161.824 132.365 161.867 131.672C161.92 130.968 161.974 130.307 162.027 129.688C162.091 129.069 162.15 128.531 162.203 128.072L165.099 128.104C165.014 128.648 164.934 129.267 164.859 129.96C164.784 130.643 164.72 131.336 164.667 132.04C164.624 132.744 164.587 133.395 164.555 133.992C164.534 134.589 164.523 135.064 164.523 135.416C164.523 136.387 164.539 137.149 164.571 137.704C164.614 138.259 164.672 138.653 164.747 138.888C164.832 139.112 164.944 139.224 165.083 139.224C165.264 139.224 165.462 139.112 165.675 138.888C165.888 138.653 166.096 138.392 166.299 138.104L167.659 140.808C167.328 141.171 166.934 141.501 166.475 141.8C166.016 142.109 165.446 142.264 164.763 142.264ZM91.2172 165.216C91.1105 164.8 90.9932 164.373 90.8652 163.936C90.7479 163.499 90.6412 163.115 90.5452 162.784C91.7292 162.123 92.7585 161.408 93.6332 160.64C94.5185 159.872 95.2439 159.109 95.8092 158.352C96.3852 157.595 96.8119 156.907 97.0892 156.288C97.3772 155.669 97.5212 155.184 97.5212 154.832C97.5212 154.427 97.3825 154.112 97.1052 153.888C96.8385 153.653 96.4759 153.536 96.0172 153.536C95.3879 153.536 94.7479 153.76 94.0972 154.208C93.4572 154.656 92.8599 155.291 92.3052 156.112L90.6252 154.096C91.1052 153.52 91.6119 153.003 92.1452 152.544C92.6892 152.085 93.2705 151.723 93.8892 151.456C94.5079 151.179 95.1692 151.04 95.8732 151.04C96.6412 151.04 97.3452 151.173 97.9852 151.44C98.6252 151.707 99.1372 152.107 99.5212 152.64C99.9052 153.173 100.097 153.835 100.097 154.624C100.097 155.371 99.9052 156.181 99.5212 157.056C99.1372 157.92 98.6039 158.789 97.9212 159.664C97.2385 160.528 96.4599 161.333 95.5852 162.08C95.9372 162.069 96.2945 162.064 96.6572 162.064C97.3612 162.064 98.0065 162.107 98.5932 162.192C99.1799 162.267 99.7879 162.384 100.417 162.544L99.8892 165.008C99.3665 164.88 98.8119 164.773 98.2252 164.688C97.6385 164.603 96.9665 164.56 96.2092 164.56C95.3132 164.56 94.4225 164.608 93.5372 164.704C92.6519 164.811 91.8785 164.981 91.2172 165.216ZM107.239 165.248C106.428 165.248 105.703 165.056 105.063 164.672C104.423 164.299 103.879 163.787 103.431 163.136C102.993 162.485 102.657 161.749 102.423 160.928C102.188 160.107 102.071 159.253 102.071 158.368C102.071 157.312 102.215 156.32 102.503 155.392C102.801 154.453 103.228 153.616 103.783 152.88C104.337 152.144 105.004 151.536 105.783 151.056L106.007 151.536C106.529 151.269 107.095 151.136 107.703 151.136C108.577 151.136 109.34 151.328 109.991 151.712C110.652 152.085 111.196 152.597 111.623 153.248C112.06 153.888 112.385 154.608 112.599 155.408C112.823 156.208 112.935 157.035 112.935 157.888C112.935 159.157 112.769 160.256 112.439 161.184C112.119 162.112 111.687 162.875 111.143 163.472C110.599 164.069 109.985 164.512 109.303 164.8C108.631 165.099 107.943 165.248 107.239 165.248ZM104.695 158.512C104.695 158.896 104.732 159.328 104.807 159.808C104.892 160.288 105.036 160.747 105.239 161.184C105.441 161.611 105.713 161.968 106.055 162.256C106.407 162.533 106.855 162.672 107.399 162.672C107.985 162.672 108.497 162.475 108.935 162.08C109.372 161.675 109.713 161.115 109.959 160.4C110.215 159.685 110.343 158.859 110.343 157.92C110.343 156.981 110.199 156.213 109.911 155.616C109.633 155.008 109.281 154.56 108.855 154.272C108.439 153.973 108.017 153.824 107.591 153.824C107.367 153.824 107.153 153.888 106.951 154.016C106.748 154.144 106.588 154.315 106.471 154.528L106.247 154.048C105.745 154.549 105.388 155.056 105.175 155.568C104.961 156.08 104.828 156.587 104.775 157.088C104.721 157.579 104.695 158.053 104.695 158.512ZM115.217 165.216C115.111 164.8 114.993 164.373 114.865 163.936C114.748 163.499 114.641 163.115 114.545 162.784C115.729 162.123 116.759 161.408 117.633 160.64C118.519 159.872 119.244 159.109 119.809 158.352C120.385 157.595 120.812 156.907 121.089 156.288C121.377 155.669 121.521 155.184 121.521 154.832C121.521 154.427 121.383 154.112 121.105 153.888C120.839 153.653 120.476 153.536 120.017 153.536C119.388 153.536 118.748 153.76 118.097 154.208C117.457 154.656 116.86 155.291 116.305 156.112L114.625 154.096C115.105 153.52 115.612 153.003 116.145 152.544C116.689 152.085 117.271 151.723 117.889 151.456C118.508 151.179 119.169 151.04 119.873 151.04C120.641 151.04 121.345 151.173 121.985 151.44C122.625 151.707 123.137 152.107 123.521 152.64C123.905 153.173 124.097 153.835 124.097 154.624C124.097 155.371 123.905 156.181 123.521 157.056C123.137 157.92 122.604 158.789 121.921 159.664C121.239 160.528 120.46 161.333 119.585 162.08C119.937 162.069 120.295 162.064 120.657 162.064C121.361 162.064 122.007 162.107 122.593 162.192C123.18 162.267 123.788 162.384 124.417 162.544L123.889 165.008C123.367 164.88 122.812 164.773 122.225 164.688C121.639 164.603 120.967 164.56 120.209 164.56C119.313 164.56 118.423 164.608 117.537 164.704C116.652 164.811 115.879 164.981 115.217 165.216ZM130.791 161.728C130.247 161.728 129.697 161.717 129.143 161.696C128.588 161.664 128.076 161.579 127.607 161.44C127.148 161.301 126.78 161.072 126.503 160.752C126.225 160.432 126.087 159.984 126.087 159.408C126.087 159.024 126.183 158.555 126.375 158C126.567 157.445 126.812 156.853 127.111 156.224C127.42 155.584 127.751 154.944 128.103 154.304C128.465 153.653 128.817 153.035 129.159 152.448C129.5 151.851 129.799 151.328 130.055 150.88L132.199 152.096C132.209 151.765 132.215 151.456 132.215 151.168L134.807 151.2C134.743 152.288 134.673 153.515 134.599 154.88C134.535 156.245 134.465 157.616 134.391 158.992C134.839 158.949 135.287 158.891 135.735 158.816C136.183 158.741 136.625 158.651 137.063 158.544L137.207 161.2C136.695 161.275 136.188 161.344 135.687 161.408C135.196 161.472 134.716 161.525 134.247 161.568C134.215 162.229 134.183 162.869 134.151 163.488C134.119 164.096 134.087 164.661 134.055 165.184L131.335 165.12C131.399 164.619 131.457 164.08 131.511 163.504C131.575 162.928 131.633 162.331 131.687 161.712C131.377 161.723 131.079 161.728 130.791 161.728ZM129.879 159.168C130.092 159.179 130.3 159.184 130.503 159.184C130.705 159.184 130.903 159.184 131.095 159.184C131.351 159.184 131.607 159.179 131.863 159.168C131.948 157.941 132.017 156.725 132.071 155.52C132.124 154.315 132.167 153.227 132.199 152.256C131.911 152.661 131.596 153.141 131.255 153.696C130.924 154.24 130.599 154.805 130.279 155.392C129.959 155.979 129.676 156.523 129.431 157.024C129.228 157.451 129.063 157.803 128.935 158.08C128.807 158.347 128.743 158.555 128.743 158.704C128.743 158.853 128.828 158.965 128.999 159.04C129.169 159.104 129.463 159.147 129.879 159.168Z" fill="white"/>
</svg>
