<svg width="248" height="236" viewBox="0 0 248 236" fill="none" xmlns="http://www.w3.org/2000/svg">
<path d="M103.252 10.43C102.575 10.6721 100.366 11.312 98.3529 11.8827C89.0712 14.4766 86.1317 16.4999 84.2967 21.5322L83.8335 22.8119L79.7004 25.475C77.4201 26.9277 75.5495 28.1036 75.5495 28.0517C75.5495 28.0171 75.8702 27.481 76.2799 26.8931C77.2776 25.3886 78.2752 23.2961 79.0056 21.1864C79.647 19.3014 81.4998 12.4015 81.3751 12.2977C81.3394 12.2631 80.4487 12.7473 79.3976 13.3526C71.4342 18.0044 66.3925 22.8465 64.3259 27.8615C63.2036 30.5592 62.9898 32.8073 63.6133 35.1246L63.9874 36.4735L63.2214 37.1133C61.4577 38.5659 58.3044 41.4712 56.7188 43.0967C55.3114 44.5494 55.0977 44.7223 55.3827 44.1343C56.3982 42.111 57.378 38.5659 57.7343 35.6607C58.055 32.8592 57.8768 27.948 57.2889 23.6939L57.182 22.9503L55.1689 25.4232C51.98 29.3487 50.5726 31.1991 49.1474 33.3261C46.5464 37.1998 45.7803 39.1539 45.2459 43.2524C44.7649 47.0396 45.5665 52.4177 46.7602 53.3688C47.0274 53.5764 47.1343 53.5591 47.5797 53.2478C47.8647 53.0403 48.1497 52.8673 48.2032 52.8673C48.2566 52.8673 47.7044 53.6628 46.9739 54.6312C45.6022 56.4989 42.5736 61.1334 41.4512 63.1049C41.0771 63.762 40.7564 64.2808 40.7386 64.2808C40.703 64.2808 40.7564 63.8658 40.8633 63.3643C40.9524 62.8801 41.0415 61.0643 41.0415 59.3523C41.0415 54.8215 40.7386 53.3343 37.9595 44.7742C37.229 42.5606 36.5877 40.814 36.5342 40.8832C36.4095 41.0216 34.7705 45.9155 33.4344 50.1004C32.5614 52.85 31.4391 57.1214 31.0828 59.0929C30.8868 60.1477 30.7621 61.6695 30.7621 63.3297C30.7621 66.2176 31.065 67.8259 32.1161 70.2296C32.7218 71.5958 34.9309 75.5732 35.1268 75.6597C35.1981 75.6943 35.0556 76.2303 34.8062 76.8702C34.0401 78.7897 32.3299 83.822 31.9735 85.1536C31.7954 85.8453 31.5994 86.416 31.5282 86.416C31.4569 86.416 31.35 86.0528 31.2788 85.5859C31.1006 84.3581 29.4972 79.8619 28.4283 77.5619C27.9117 76.4379 27.11 75.0371 26.6646 74.4146C26.2192 73.792 24.9366 71.8206 23.8142 70.0394C21.231 65.8718 20.8569 65.7334 20.8569 68.8635C20.8569 69.6244 20.7678 71.4574 20.6787 72.9274C19.8414 85.2746 20.3224 90.134 22.7809 94.8031C23.7964 96.7054 25.5066 98.4693 27.4307 99.5587C28.7312 100.302 28.7312 100.32 28.6243 100.942C28.3571 102.55 27.9651 107.375 27.8582 110.315L27.7513 113.566L26.8784 111.975C25.7204 109.9 23.6004 106.58 22.2286 104.747C20.2333 102.049 19.0397 100.769 17.0444 99.2129C15.9577 98.3655 14.5147 97.2415 13.8555 96.7227C12.0918 95.3219 11.7533 95.4257 12.1987 97.1896C12.3412 97.7776 12.8757 100.441 13.3745 103.104C14.7463 110.54 15.6548 113.756 17.4007 117.353C19.5742 121.832 23.1016 125.343 27.6445 127.591L28.6599 128.075L28.8559 129.51C29.2835 132.398 30.2098 137.016 30.8334 139.402C31.0115 140.077 31.1362 140.647 31.1184 140.664C31.0828 140.699 30.7977 140.353 30.4771 139.921C29.4438 138.52 27.4129 136.67 25.667 135.528C24.7406 134.923 22.7809 133.609 21.3023 132.589C17.0801 129.683 10.4528 125.498 10.0787 125.498C9.81146 125.498 10.1678 126.328 12.0384 130.15C14.8888 135.995 18.0064 141.927 19.3426 144.089C22.5671 149.328 27.2347 152.96 33.2919 154.983C34.3073 155.312 35.4297 155.588 35.7682 155.588C36.3561 155.588 36.4095 155.64 36.8549 156.678C37.5319 158.252 41.3443 165.515 42.2173 166.881C43.0011 168.126 42.9655 168.143 41.7541 167.244C39.8122 165.809 35.9285 163.716 32.704 162.35C30.2989 161.33 28.5708 160.776 25.5957 160.085C24.3308 159.791 22.1752 159.151 20.8212 158.701C17.1691 157.439 17.0266 157.681 19.5742 160.707C20.5184 161.849 22.1218 163.82 23.1016 165.1C25.4176 168.091 27.4485 170.27 29.9782 172.484C35.0378 176.911 37.2468 178.225 41.665 179.453C45.2993 180.473 47.1877 180.646 50.145 180.3L51.7306 180.11L52.1938 180.698C53.9753 182.912 58.2331 187.2 61.9209 190.503L63.3461 191.783L60.6382 190.451C57.5918 188.964 57.1286 188.843 51.2318 188.03C42.5914 186.837 33.47 186.111 32.3833 186.509C32.1161 186.63 32.1517 186.716 32.7396 187.252C34.0045 188.428 41.5937 193.789 44.4442 195.536C46.7067 196.919 48.8623 197.939 51.6771 198.96C56.701 200.775 58.732 201.139 63.0967 201.017C66.6953 200.914 67.8711 200.706 70.7394 199.599L72.806 198.804L75.2644 200.291C77.9367 201.917 82.2658 204.269 84.1008 205.099C87.0937 206.447 87.4322 206.62 86.7731 206.517C86.4346 206.465 84.2789 206.378 81.9986 206.309C76.3334 206.171 74.9972 206.326 65.9293 208.056C63.2392 208.575 59.5336 209.249 57.6987 209.578C53.7615 210.252 53.5121 210.442 55.7568 211.065C56.5229 211.272 59.3555 212.12 62.0278 212.932C71.1848 215.699 72.9663 216.011 79.2907 216.028C83.3525 216.028 84.0473 215.993 85.7576 215.63C89.8551 214.8 92.6343 213.52 95.1284 211.341C96.2329 210.373 96.7139 210.044 96.999 210.114C97.1949 210.148 98.5845 210.511 100.063 210.909C101.542 211.307 104.054 211.895 105.639 212.206C107.207 212.517 108.543 212.811 108.597 212.863C108.632 212.898 108.258 213.036 107.742 213.157C105.372 213.745 98.9408 216.668 89.4453 221.458C84.0651 224.173 82.4262 225.124 82.729 225.314C83.2813 225.66 92.4561 225.314 97.7294 224.744C104.232 224.052 112.587 221.233 116.008 218.57C117.273 217.584 118.591 216.305 119.927 214.783L120.568 214.039H124.221H127.891L130.438 216.408C134.838 220.489 135.533 220.853 143.425 223.17C147.95 224.501 149.304 224.709 158.052 225.297C165.908 225.833 166.407 225.833 166.407 225.262C166.407 224.83 161.686 222.357 158.746 221.25C157.82 220.905 156.288 220.144 155.362 219.556C152.939 218.034 150.926 216.979 148.503 215.941C146.294 215.008 140.361 213.002 139.827 213.002C139.649 213.002 139.506 212.95 139.506 212.863C139.506 212.794 140.326 212.587 141.341 212.414C143.497 212.033 147.933 210.961 150.516 210.2C151.513 209.906 152.351 209.699 152.386 209.733C152.404 209.768 152.547 210.027 152.689 210.321C153.58 211.999 159.548 214.99 163.557 215.751C166.674 216.356 173.319 216.305 176.74 215.682C179.822 215.094 190.742 211.86 192.417 211.013C193.148 210.65 193.112 210.148 192.381 209.906C191.455 209.629 185.22 208.402 180.837 207.658C173.711 206.43 171.627 206.188 168.01 206.188C164.821 206.188 164.038 206.275 159.851 207.035C159.584 207.087 159.78 206.949 160.261 206.741C164.501 204.943 171.057 201.432 175.261 198.683C177.345 197.317 177.417 197.299 177.203 197.836C176.775 198.839 177.274 199.444 179.091 200.101C181.158 200.862 183.135 201.139 186.36 201.139C189.585 201.139 190.867 200.948 194.288 199.945C197.405 199.029 199.81 197.974 202.768 196.227C207.703 193.322 214.508 188.791 215.559 187.684C216.093 187.131 215.951 186.768 215.131 186.612C214.08 186.422 202.501 187.269 198.207 187.857C192.952 188.566 188.159 190.036 184.578 192.06L183.599 192.613L184.578 191.783C188.444 188.515 192.275 184.727 195.695 180.802C196.657 179.695 196.728 179.643 197.103 179.868C198.759 180.871 203.338 180.542 208.077 179.072C210.428 178.346 211.907 177.585 214.419 175.839C220.298 171.757 222.543 169.561 226.052 164.477C227.531 162.333 228.724 160.949 230.061 159.894C231.308 158.891 231.628 158.425 231.236 158.165C230.898 157.94 230.15 158.079 227.424 158.874C226.159 159.237 223.95 159.825 222.525 160.188C219.87 160.846 217.911 161.503 215.577 162.558C212.37 163.993 208.094 166.552 205.44 168.627C203.997 169.751 203.961 169.769 204.371 169.129C206.562 165.688 210.001 159.341 211.212 156.488C211.479 155.865 211.729 155.537 211.871 155.588C213.207 156.038 218.196 154.188 221.848 151.87C224.021 150.47 227.121 147.582 228.279 145.818C230.47 142.48 236.652 130.531 237.775 127.453C238.291 126.035 238.024 126.017 235.868 127.262C233.356 128.732 225.536 133.782 223.237 135.442C221.117 136.981 218.516 139.419 217.305 141.045C216.842 141.65 216.468 142.1 216.468 142.065C216.468 142.013 216.699 141.097 217.002 140.007C217.643 137.569 218.481 133.592 218.962 130.513C219.176 129.234 219.354 128.179 219.371 128.179C219.389 128.162 219.728 128.058 220.138 127.954C221.171 127.66 224.591 125.637 225.892 124.547C228.137 122.628 229.74 120.553 231.272 117.544C232.982 114.206 234.069 110.54 235.174 104.366C235.565 102.153 236.153 99.3512 236.456 98.158C237.222 95.1144 237.026 94.7858 235.227 96.2385C232.929 98.1234 226.48 104.885 224.306 107.704C222.988 109.416 221.741 111.543 220.921 113.445L220.262 114.95L220.155 111.197C220.048 107.911 219.728 103.675 219.389 101.081C219.282 100.32 219.3 100.285 219.639 100.372C220.334 100.544 221.67 99.7144 223.433 98.0197C224.93 96.567 225.251 96.152 225.945 94.7167C227.353 91.846 228.083 89.0445 228.404 85.2573C228.707 81.6085 228.618 78.6168 227.958 70.5063C227.531 65.3011 227.816 65.4567 225.482 69.1402C221.741 75.0717 218.908 80.2769 218.053 82.8709C217.732 83.8739 217.643 84.6002 217.572 87.1596C217.537 88.8543 217.465 90.2205 217.43 90.1859C217.394 90.1513 217.091 89.0272 216.735 87.713C215.933 84.6867 214.259 79.5852 213.101 76.68C212.513 75.1927 212.334 74.5529 212.53 74.7258C213.332 75.4349 214.241 74.7258 215.488 72.374C216.414 70.6274 217.554 67.4281 218 65.3184C218.516 62.7936 218.142 60.0786 216.361 53.6455C215.452 50.3598 213.029 43.114 212.726 42.7509C212.139 42.0591 211.283 43.5982 209.342 48.8035C208.469 51.1726 208.255 52.4523 208.059 57.035C207.916 60.1823 207.899 62.1192 208.041 63.6928C208.13 64.9206 208.201 65.9409 208.184 65.9755C208.148 66.0101 207.685 65.2146 207.15 64.2289C205.102 60.5282 202.055 55.9109 199.383 52.4523C197.975 50.6192 197.922 50.2907 199.276 51.6568C199.668 52.0546 200.381 52.6598 200.862 53.0057L201.734 53.6282L202.144 53.1613C202.999 52.1929 203.516 49.3741 203.516 45.6907C203.516 39.69 201.948 35.9028 196.8 29.4352C195.784 28.1555 191.705 23.2961 191.134 22.6909C190.974 22.5179 191.063 26.3743 191.366 33.8622C191.526 38.1336 191.776 40.105 192.328 41.7133C192.667 42.6817 193.931 45.293 194.644 46.4689C194.911 46.9012 195 47.0914 194.84 46.9185C192.898 44.6012 187.732 39.5689 184.881 37.1652C184.276 36.6637 184.222 36.5772 184.472 36.3351C184.97 35.8682 185.184 34.6577 185.184 32.4615C185.184 29.954 184.953 28.8645 184.097 27.1871C182.548 24.1608 178.913 20.0969 175.172 17.2089C172.945 15.4969 168.58 12.7473 168.064 12.7473C167.529 12.7473 168.046 15.5142 169.525 20.339C170.665 24.0743 171.413 25.5096 173.693 28.3803C174.495 29.3833 174.566 29.5389 174.139 29.2622C173.854 29.0893 172.5 28.3457 171.128 27.6021C168.01 25.942 165.481 24.5239 165.267 24.3337C165.178 24.2472 165.035 23.6939 164.946 23.0886C164.608 20.7021 162.594 17.7969 159.94 15.8428C157.446 14.0097 155.094 13.1105 146.472 10.6548C143.728 9.87666 143.247 9.82478 143.247 10.3263C143.247 11.0872 148.039 17.2781 151.032 20.3563C153.491 22.8984 156.876 24.7314 160.421 25.475C161.561 25.6999 161.953 25.9247 165.374 28.2592C167.405 29.6427 169.061 30.8186 169.026 30.8532C168.99 30.8705 168.046 30.8359 166.941 30.7494C164.501 30.5592 162.345 30.7322 159.495 31.3547C156.911 31.9081 153.295 32.963 151.175 33.7584C146.632 35.4705 147.149 35.7472 156.876 36.7847C159.619 37.0787 161.989 37.3554 162.131 37.39C162.274 37.4419 163.877 37.5456 165.677 37.6494C169.311 37.8569 174.905 37.6321 176.918 37.2344L178.076 36.9923L180.125 38.6178C181.247 39.4998 182.69 40.693 183.331 41.2464L184.489 42.284L182.886 41.8689C179.661 41.0388 177.737 40.8486 172.464 40.8659C167.137 40.8832 166.015 41.0216 165.908 41.7306C165.837 42.2494 166.282 42.5434 168.723 43.5809C169.952 44.0997 172.749 45.3621 174.958 46.3824C178.913 48.2155 182.833 49.7892 184.792 50.3425C186.289 50.7576 189.602 51.2764 191.669 51.4147L193.522 51.5358L195.392 53.9049C196.408 55.2192 197.744 56.9831 198.35 57.8132C199.294 59.1447 199.383 59.3004 198.92 59.0064C194.983 56.4816 186.307 53.4207 182.156 53.0921C180.802 52.9884 180.499 53.1267 180.819 53.7147C181.176 54.3373 193.807 64.7131 196.354 66.4597C200.006 68.9845 204.246 71.3364 205.85 71.7341L206.651 71.9244L207.489 73.7747C208.344 75.6424 210.589 81.2972 210.589 81.5739C210.589 81.6604 209.68 80.8303 208.593 79.7235C206.081 77.2333 204.068 75.7461 200.683 73.8612C195.659 71.0597 192.417 69.6935 192.417 70.368C192.417 70.7311 193.29 71.9589 194.573 73.3597C196.711 75.7461 199.312 79.4814 201.574 83.4589C202.144 84.4446 202.892 85.6551 203.267 86.1393C205.404 88.9408 209.431 92.728 212.406 94.7513C213.279 95.3565 214.116 95.9099 214.259 96.0137C214.65 96.2731 215.417 101.496 215.915 107.168C215.987 108.067 216.04 108.828 216.022 108.862C216.004 108.88 215.719 108.188 215.399 107.306C214.633 105.127 213.475 103 212.281 101.547C211.034 100.043 201.164 90.134 200.897 90.134C200.523 90.134 200.755 91.2062 202.02 95.4084C204.656 104.107 206.384 108.69 208.629 112.961C210.41 116.385 212.584 119.498 214.864 121.919L215.808 122.922L215.684 124.34C215.399 127.47 214.205 135.01 213.973 135.01C213.902 135.01 213.795 134.525 213.742 133.92C213.403 130.41 211.372 125.965 206.527 118.149C204.514 114.88 203.498 113.532 203.142 113.601C202.696 113.687 202.679 115.209 203.017 120.743C203.623 130.894 204.157 136.514 204.745 138.728C205.547 141.875 207.845 146.821 209.359 148.688L209.858 149.311L208.825 151.801C207.15 155.813 203.997 162.194 203.997 161.555C203.997 161.451 204.086 160.258 204.175 158.891C204.531 153.755 203.498 146.821 201.485 140.976C200.701 138.676 200.078 137.604 199.543 137.604C199.062 137.604 198.884 138.019 198.742 139.592C198.581 141.373 197.975 144.434 196.782 149.536C194.822 157.871 194.466 160.258 194.608 164.373C194.715 167.469 194.911 168.524 196.016 171.619L196.586 173.21L195.054 175.164C193.468 177.188 190.101 181.061 189.727 181.286C189.567 181.372 189.549 181.286 189.638 180.992C189.87 180.162 190.457 176.565 190.636 174.801C190.903 172.19 190.849 166.379 190.547 162.592C190.386 160.794 190.244 159.22 190.208 159.134C190.172 159.03 189.531 160.171 188.765 161.641C186.681 165.688 183.955 170.495 182.583 172.588C179.109 177.897 178.307 180.802 177.88 189.569L177.773 192.008L176.668 192.786C174.246 194.55 168.723 198.129 168.456 198.129C168.402 198.129 168.687 197.628 169.079 197.023C171.039 194.031 172.999 189.137 173.961 184.848C174.353 183.136 175.136 178.191 175.029 178.087C174.905 177.948 165.356 187.252 162.612 190.175C157.375 195.778 155.076 199.617 154.56 203.681L154.435 204.649L152.012 205.444C150.053 206.084 145.189 207.468 144.904 207.468C144.868 207.468 145.634 206.69 146.614 205.738C150.32 202.142 153.847 196.902 154.702 193.72C155.29 191.472 155.54 191.558 152.565 193.011C150.213 194.135 148.004 195.051 143.336 196.781C142.552 197.075 140.949 197.784 139.773 198.372C137.849 199.323 137.457 199.599 135.836 201.156C132.879 204.026 130.402 207.589 130.349 209.024L130.331 209.664L129.013 209.785C127.018 209.941 119.446 209.906 118.983 209.733C118.698 209.629 118.448 209.249 118.146 208.488C117.576 207.001 116.471 204.857 115.776 203.871C114.85 202.539 112.801 200.672 111.126 199.617C109.309 198.458 107.171 197.455 104.054 196.314C99.8672 194.792 95.9301 193.045 93.9169 191.869L93.329 191.506L93.4537 192.094C94.3623 196.054 97.6759 201.087 102.539 205.877C103.626 206.949 104.392 207.779 104.25 207.744C104.089 207.693 102.842 207.381 101.471 207.035C100.099 206.69 97.8897 206.067 96.5536 205.635L94.1307 204.874L94.006 203.784C93.5072 199.478 92.0998 196.884 87.3788 191.731C85.6863 189.898 73.7502 177.862 73.6789 177.931C73.5186 178.069 74.5518 183.534 75.1932 185.972C76.6362 191.541 78.2752 195.397 80.4843 198.441C80.7337 198.787 80.6268 198.752 79.6292 198.199C78.1149 197.351 73.8392 194.619 72.1112 193.374C71.1135 192.665 70.7394 192.302 70.8285 192.111C70.8819 191.973 71.0244 191.247 71.1135 190.538C71.6123 187.166 70.5434 181.874 68.3343 176.755C67.4436 174.697 66.8201 173.573 65.0207 170.685C63.8449 168.818 60.9767 163.647 59.5871 160.897C59.213 160.171 58.821 159.566 58.6963 159.566C58.3757 159.566 58.2688 161.9 58.2688 168.991C58.2688 177.654 58.3935 178.969 59.6227 182.566C59.8009 183.067 55.8993 178.83 53.4052 175.77L51.8731 173.919L52.3185 172.933C53.2627 170.858 54.1713 165.912 54.1713 162.8C54.1713 159.808 53.5299 156.021 51.6059 147.685C50.4301 142.584 49.7709 139.195 49.6818 137.777C49.6462 137.189 49.5571 136.981 49.3077 136.946C49.0761 136.895 48.8267 137.223 48.3101 138.33C47.1699 140.699 45.8872 145.489 44.7827 151.438C44.1591 154.862 44.1235 158.563 44.6936 161.641C44.9074 162.73 45.0321 163.647 45.0143 163.682C44.9786 163.699 44.0344 161.952 42.9121 159.791C41.1127 156.315 39.1709 152.078 38.4761 150.193L38.2623 149.57L39.349 148.395C41.2018 146.44 43.5356 141.408 44.1057 138.157C44.8361 133.989 46.2079 115.434 45.8694 114.396C45.7269 113.947 45.4062 114.016 44.8005 114.638C42.7874 116.731 37.2825 126.259 36.1067 129.666C35.4831 131.482 34.9487 134.266 34.8062 136.341C34.7527 137.327 34.6636 138.105 34.628 138.071C34.343 137.777 32.8465 129.372 32.4189 125.637L32.2051 123.769L32.6683 123.423C33.9688 122.42 39.7053 114.396 41.0058 111.75C42.5201 108.672 48.1497 91.2926 47.9003 90.5317C47.7934 90.2551 45.3349 92.434 41.7897 95.9445C35.5366 102.101 34.1648 104.245 32.0983 110.972C31.5994 112.563 32.2408 104.193 33.0068 99.161L33.3809 96.6016L34.1114 96.2385C35.3584 95.6332 38.1198 93.5407 39.8835 91.8806C43.1793 88.7851 45.4953 85.9145 49.86 79.4987C51.3743 77.2679 53.3874 74.4146 54.3494 73.1695C55.3114 71.9244 56.1844 70.7311 56.2913 70.5409C56.5763 70.0394 56.5407 69.6417 56.22 69.6417C55.4896 69.6417 48.8267 73.2732 44.5511 76.0228C42.4311 77.3717 39.545 79.9138 38.1198 81.6777C37.6922 82.2138 37.1934 82.819 37.0331 83.0265C36.463 83.701 39.6341 75.3657 40.8633 72.9274C41.2196 72.2529 41.3443 72.1319 42.1282 71.9416C43.2684 71.665 46.2613 70.2642 48.6486 68.8635C52.5145 66.5981 56.1488 63.9522 59.7831 60.753C60.9589 59.7154 62.8829 58.0899 64.0587 57.1387C67.1764 54.6312 67.9246 53.9222 67.8533 53.4899C67.7821 52.9711 67.016 52.9538 64.7713 53.3861C58.9814 54.5275 53.815 56.5508 49.5571 59.3696C48.6486 59.9748 47.8647 60.4763 47.8291 60.4763C47.544 60.4763 53.5477 52.435 54.2782 51.8125C54.5454 51.5876 55.1689 51.5012 56.9326 51.432C62.0634 51.2072 66.4994 49.9102 73.0554 46.7283C74.6765 45.9501 77.2419 44.7742 78.7562 44.1343C80.2705 43.4945 81.7848 42.7682 82.1055 42.5434C83.7623 41.3328 81.8026 40.7622 75.9949 40.7622C70.9175 40.7622 66.4103 41.3674 63.453 42.4569C63.061 42.5952 66.25 39.8629 68.459 38.1509C69.6705 37.2171 70.3475 36.802 70.5434 36.8712C71.4876 37.2344 73.9996 37.6667 75.9949 37.8396C78.8631 38.0644 81.8382 37.8742 88.9109 37.0441C91.7079 36.6983 95.2709 36.3351 96.8386 36.2141C99.6356 35.9893 100.58 35.7644 100.437 35.3494C100.152 34.5021 94.2554 32.3231 89.8016 31.4239C86.3099 30.7322 81.3929 30.5592 78.7562 31.0607C78.3108 31.1472 77.9367 31.1991 77.9011 31.1818C77.8833 31.1472 79.4154 29.954 81.3038 28.5359L84.7421 25.9247L86.7018 25.7344C90.9774 25.3194 93.9526 23.7284 98.1926 19.63C100.58 17.3127 102.718 14.8571 104.054 12.8857C105.176 11.2601 105.426 10.603 105.105 10.2225C104.838 9.91124 104.749 9.92854 103.252 10.43Z" fill="white"/>
<path d="M82.2442 88.168C82.2122 87.112 82.1962 86.0987 82.1962 85.128C82.1962 83.3787 82.2495 81.7947 82.3562 80.376C82.4629 78.9573 82.6175 77.752 82.8202 76.76C82.9162 76.3013 83.0495 75.8587 83.2202 75.432C83.4015 75.0053 83.6522 74.6587 83.9722 74.392C84.3029 74.1147 84.7349 73.976 85.2682 73.976C85.7909 73.976 86.2335 74.1147 86.5962 74.392C86.9589 74.6587 87.2522 74.984 87.4762 75.368C87.7109 75.752 87.8815 76.12 87.9882 76.472C88.2655 77.304 88.5002 78.136 88.6922 78.968C88.8842 79.8 89.0549 80.5947 89.2042 81.352C89.3109 80.7973 89.4335 80.216 89.5722 79.608C89.7109 78.9893 89.8495 78.408 89.9882 77.864C90.1269 77.3093 90.2549 76.8507 90.3722 76.488C90.9162 74.8133 91.7535 73.976 92.8842 73.976C93.5135 73.976 94.0469 74.2053 94.4842 74.664C94.9215 75.112 95.2415 75.7627 95.4442 76.616C95.5402 77 95.6362 77.56 95.7322 78.296C95.8389 79.032 95.9349 79.9067 96.0202 80.92C96.1162 81.9227 96.1962 83.032 96.2602 84.248C96.3349 85.464 96.3935 86.7547 96.4362 88.12L93.6202 88.056C93.6202 87.4907 93.6042 86.8347 93.5722 86.088C93.5509 85.3413 93.5135 84.568 93.4602 83.768C93.4175 82.9573 93.3642 82.168 93.3002 81.4C93.2469 80.632 93.1882 79.9387 93.1242 79.32C93.0709 78.7013 93.0175 78.2107 92.9642 77.848C92.9109 77.4747 92.8629 77.288 92.8202 77.288C92.8095 77.288 92.7509 77.48 92.6442 77.864C92.5482 78.2373 92.4255 78.7387 92.2762 79.368C92.1375 79.9973 91.9829 80.6907 91.8122 81.448C91.6415 82.2053 91.4709 82.968 91.3002 83.736C91.1402 84.4933 90.9962 85.1973 90.8682 85.848C90.7402 86.488 90.6389 87.0107 90.5642 87.416L88.0522 87.48C87.9242 86.8827 87.7695 86.2267 87.5882 85.512C87.4175 84.7867 87.2362 84.0507 87.0442 83.304C86.8629 82.5467 86.6815 81.8213 86.5002 81.128C86.3189 80.424 86.1482 79.7947 85.9882 79.24C85.8389 78.6853 85.7162 78.248 85.6202 77.928C85.5242 77.5973 85.4655 77.432 85.4442 77.432C85.4015 77.432 85.3535 77.6667 85.3002 78.136C85.2575 78.5947 85.2149 79.2187 85.1722 80.008C85.1295 80.7973 85.0922 81.688 85.0602 82.68C85.0389 83.672 85.0282 84.696 85.0282 85.752C85.0282 86.2533 85.0282 86.712 85.0282 87.128C85.0389 87.544 85.0495 87.8853 85.0602 88.152L82.2442 88.168ZM101.979 88.264C101.179 88.264 100.454 88.056 99.8033 87.64C99.1526 87.2347 98.6353 86.6853 98.2513 85.992C97.878 85.288 97.6913 84.504 97.6913 83.64C97.6913 82.8293 97.8406 82.0987 98.1393 81.448C98.438 80.7867 98.8433 80.2213 99.3553 79.752C99.878 79.2827 100.47 78.9253 101.131 78.68C101.793 78.424 102.486 78.296 103.211 78.296C103.819 78.296 104.417 78.3813 105.003 78.552C105.046 78.328 105.083 78.104 105.115 77.88L107.851 78.344C107.777 78.5467 107.702 78.8507 107.627 79.256C107.553 79.6613 107.489 80.1147 107.435 80.616C107.393 81.1173 107.355 81.6187 107.323 82.12C107.291 82.6213 107.275 83.0747 107.275 83.48C107.275 83.8107 107.297 84.136 107.339 84.456C107.393 84.7653 107.499 85.0213 107.659 85.224C107.819 85.416 108.065 85.512 108.395 85.512H108.619L108.219 88.296C107.515 88.296 106.934 88.1733 106.475 87.928C106.017 87.6933 105.649 87.3733 105.371 86.968C104.913 87.48 104.39 87.8213 103.803 87.992C103.217 88.1733 102.609 88.264 101.979 88.264ZM100.315 83.96C100.369 84.472 100.577 84.8827 100.939 85.192C101.313 85.4907 101.782 85.64 102.347 85.64C102.891 85.64 103.345 85.496 103.707 85.208C104.07 84.9093 104.369 84.504 104.603 83.992C104.593 83.8213 104.587 83.6453 104.587 83.464C104.587 83.0907 104.598 82.7067 104.619 82.312C104.641 81.9173 104.667 81.528 104.699 81.144C104.251 80.9733 103.782 80.888 103.291 80.888C102.715 80.888 102.198 81.0053 101.739 81.24C101.291 81.464 100.939 81.7787 100.683 82.184C100.427 82.5893 100.299 83.0587 100.299 83.592C100.299 83.656 100.299 83.72 100.299 83.784C100.299 83.848 100.305 83.9067 100.315 83.96ZM111.492 88.36L109.476 86.616C109.988 86.0187 110.537 85.416 111.124 84.808C111.71 84.1893 112.313 83.576 112.932 82.968C112.185 82.3173 111.486 81.736 110.836 81.224C110.196 80.7013 109.7 80.3333 109.348 80.12L110.948 78.008C111.524 78.424 112.148 78.8987 112.82 79.432C113.492 79.9653 114.169 80.5307 114.852 81.128C115.481 80.552 116.1 79.992 116.708 79.448C117.316 78.8933 117.897 78.3707 118.452 77.88L120.308 79.8C119.966 80.0453 119.481 80.4507 118.852 81.016C118.222 81.5707 117.54 82.1893 116.804 82.872C117.508 83.512 118.169 84.1467 118.788 84.776C119.417 85.3947 119.972 85.9707 120.452 86.504L118.5 88.28C118.308 88.0453 118.03 87.7413 117.668 87.368C117.305 86.9947 116.884 86.5787 116.404 86.12C115.934 85.6613 115.433 85.192 114.9 84.712C114.388 85.2133 113.902 85.6987 113.444 86.168C112.996 86.6373 112.601 87.0587 112.26 87.432C111.918 87.816 111.662 88.1253 111.492 88.36ZM121.665 76.664C121.665 76.568 121.66 76.472 121.649 76.376C121.649 76.2693 121.649 76.152 121.649 76.024C121.649 75.6827 121.66 75.32 121.681 74.936C121.703 74.552 121.724 74.2267 121.745 73.96L124.593 74.008C124.561 74.3707 124.524 74.7813 124.481 75.24C124.449 75.6987 124.428 76.1733 124.417 76.664H121.665ZM121.601 88.12C121.569 87.4587 121.548 86.7547 121.537 86.008C121.527 85.2507 121.521 84.4933 121.521 83.736C121.521 82.744 121.532 81.7787 121.553 80.84C121.575 79.9013 121.601 79.048 121.633 78.28L124.385 78.264C124.343 78.7547 124.316 79.3627 124.305 80.088C124.295 80.8027 124.289 81.5547 124.289 82.344C124.289 83.1227 124.295 83.8907 124.305 84.648C124.316 85.4053 124.327 86.0933 124.337 86.712C124.359 87.32 124.375 87.7893 124.385 88.12H121.601ZM125.932 88.248C125.921 88.088 125.911 87.8213 125.9 87.448C125.889 87.0853 125.879 86.648 125.868 86.136C125.857 85.624 125.852 85.0747 125.852 84.488C125.852 83.8907 125.852 83.2933 125.852 82.696C125.852 82.0347 125.852 81.4053 125.852 80.808C125.863 80.2107 125.868 79.6933 125.868 79.256C125.879 78.8187 125.884 78.504 125.884 78.312L128.588 78.264C128.567 78.5627 128.551 78.9253 128.54 79.352C128.817 78.9787 129.137 78.6853 129.5 78.472C129.863 78.2587 130.279 78.152 130.748 78.152C131.313 78.152 131.777 78.3173 132.14 78.648C132.513 78.9787 132.817 79.4107 133.052 79.944C133.82 78.7493 134.764 78.152 135.884 78.152C136.513 78.152 137.031 78.2907 137.436 78.568C137.852 78.8347 138.177 79.1973 138.412 79.656C138.647 80.1147 138.817 80.632 138.924 81.208C139.041 81.784 139.116 82.376 139.148 82.984C139.18 83.592 139.196 84.1787 139.196 84.744C139.196 85.416 139.185 86.0293 139.164 86.584C139.143 87.1387 139.137 87.6667 139.148 88.168H136.38C136.38 87.912 136.38 87.5867 136.38 87.192C136.38 86.808 136.38 86.4187 136.38 86.024C136.391 85.6187 136.396 85.272 136.396 84.984C136.396 84.6853 136.396 84.5093 136.396 84.456C136.396 83.816 136.38 83.2133 136.348 82.648C136.316 82.0827 136.236 81.624 136.108 81.272C135.98 80.92 135.772 80.744 135.484 80.744C135.207 80.744 134.961 80.8773 134.748 81.144C134.535 81.4107 134.343 81.7573 134.172 82.184C134.012 82.6107 133.873 83.064 133.756 83.544C133.777 83.96 133.793 84.376 133.804 84.792C133.815 85.1973 133.82 85.592 133.82 85.976C133.82 86.4133 133.815 86.792 133.804 87.112C133.804 87.4427 133.804 87.7947 133.804 88.168H131.116C131.116 87.304 131.111 86.5413 131.1 85.88C131.089 85.2187 131.068 84.5787 131.036 83.96C130.983 82.8507 130.865 82.04 130.684 81.528C130.513 81.0053 130.273 80.744 129.964 80.744C129.623 80.744 129.335 80.952 129.1 81.368C128.865 81.7733 128.673 82.2693 128.524 82.856C128.535 83.7093 128.556 84.6 128.588 85.528C128.62 86.456 128.663 87.352 128.716 88.216L125.932 88.248ZM144.14 88.312C143.458 88.312 142.892 88.1893 142.444 87.944C142.007 87.7093 141.655 87.384 141.388 86.968C141.132 86.552 140.94 86.088 140.812 85.576C140.695 85.0533 140.615 84.5147 140.572 83.96C140.54 83.3947 140.524 82.8507 140.524 82.328C140.524 81.7307 140.54 81.1227 140.572 80.504C140.615 79.8853 140.658 79.208 140.7 78.472L143.628 78.296C143.596 78.52 143.548 78.856 143.484 79.304C143.42 79.752 143.362 80.264 143.308 80.84C143.255 81.416 143.228 82.0187 143.228 82.648C143.228 83.6827 143.319 84.4507 143.5 84.952C143.682 85.4427 143.954 85.688 144.316 85.688C145.042 85.688 145.575 85.16 145.916 84.104C146.258 83.048 146.428 81.3787 146.428 79.096V78.36L147.788 78.328L149.436 78.296C149.287 79.2987 149.175 80.2213 149.1 81.064C149.026 81.9067 148.978 82.616 148.956 83.192C148.935 83.7573 148.924 84.136 148.924 84.328C148.924 84.8187 148.967 85.1707 149.052 85.384C149.138 85.5867 149.287 85.688 149.5 85.688C149.607 85.688 149.724 85.6667 149.852 85.624C149.98 85.5813 150.13 85.5067 150.3 85.4L150.188 88.152C149.783 88.216 149.431 88.248 149.132 88.248C148.62 88.248 148.199 88.152 147.868 87.96C147.548 87.768 147.292 87.512 147.1 87.192C146.77 87.544 146.359 87.816 145.868 88.008C145.388 88.2107 144.812 88.312 144.14 88.312ZM151.62 88.248C151.609 88.088 151.598 87.8213 151.588 87.448C151.577 87.0853 151.566 86.648 151.556 86.136C151.545 85.624 151.54 85.0747 151.54 84.488C151.54 83.8907 151.54 83.2933 151.54 82.696C151.54 82.0347 151.54 81.4053 151.54 80.808C151.55 80.2107 151.556 79.6933 151.556 79.256C151.566 78.8187 151.572 78.504 151.572 78.312L154.276 78.264C154.254 78.5627 154.238 78.9253 154.228 79.352C154.505 78.9787 154.825 78.6853 155.188 78.472C155.55 78.2587 155.966 78.152 156.436 78.152C157.001 78.152 157.465 78.3173 157.828 78.648C158.201 78.9787 158.505 79.4107 158.74 79.944C159.508 78.7493 160.452 78.152 161.572 78.152C162.201 78.152 162.718 78.2907 163.124 78.568C163.54 78.8347 163.865 79.1973 164.1 79.656C164.334 80.1147 164.505 80.632 164.612 81.208C164.729 81.784 164.804 82.376 164.836 82.984C164.868 83.592 164.884 84.1787 164.884 84.744C164.884 85.416 164.873 86.0293 164.852 86.584C164.83 87.1387 164.825 87.6667 164.836 88.168H162.068C162.068 87.912 162.068 87.5867 162.068 87.192C162.068 86.808 162.068 86.4187 162.068 86.024C162.078 85.6187 162.084 85.272 162.084 84.984C162.084 84.6853 162.084 84.5093 162.084 84.456C162.084 83.816 162.068 83.2133 162.036 82.648C162.004 82.0827 161.924 81.624 161.796 81.272C161.668 80.92 161.46 80.744 161.172 80.744C160.894 80.744 160.649 80.8773 160.436 81.144C160.222 81.4107 160.03 81.7573 159.86 82.184C159.7 82.6107 159.561 83.064 159.444 83.544C159.465 83.96 159.481 84.376 159.492 84.792C159.502 85.1973 159.508 85.592 159.508 85.976C159.508 86.4133 159.502 86.792 159.492 87.112C159.492 87.4427 159.492 87.7947 159.492 88.168H156.804C156.804 87.304 156.798 86.5413 156.788 85.88C156.777 85.2187 156.756 84.5787 156.724 83.96C156.67 82.8507 156.553 82.04 156.372 81.528C156.201 81.0053 155.961 80.744 155.652 80.744C155.31 80.744 155.022 80.952 154.788 81.368C154.553 81.7733 154.361 82.2693 154.212 82.856C154.222 83.7093 154.244 84.6 154.276 85.528C154.308 86.456 154.35 87.352 154.404 88.216L151.62 88.248ZM62.4062 111.104C62.3743 110.379 62.3583 109.579 62.3583 108.704C62.3583 107.861 62.3743 106.965 62.4062 106.016C62.4383 105.067 62.4863 104.107 62.5503 103.136C62.6143 102.155 62.6996 101.2 62.8063 100.272C62.6356 100.315 62.4703 100.357 62.3103 100.4C62.1609 100.432 62.0223 100.469 61.8943 100.512L61.0783 97.968C63.6596 97.36 65.8089 97.056 67.5263 97.056C71.0143 97.056 72.7583 98.384 72.7583 101.04C72.7583 102.288 72.3423 103.28 71.5103 104.016C70.6783 104.741 69.4569 105.2 67.8463 105.392C68.8169 106.213 69.7929 106.891 70.7743 107.424C71.7663 107.947 72.7689 108.389 73.7823 108.752L72.0223 111.104C71.4569 110.901 70.8649 110.619 70.2463 110.256C69.6276 109.893 69.0143 109.493 68.4062 109.056C67.7983 108.619 67.2169 108.176 66.6623 107.728C66.1183 107.28 65.6329 106.864 65.2063 106.48C65.1956 107.216 65.1849 107.963 65.1743 108.72C65.1743 109.467 65.1743 110.24 65.1743 111.04L65.0783 111.136C64.6729 111.136 64.2356 111.136 63.7663 111.136C63.3076 111.147 62.8916 111.168 62.5182 111.2L62.4062 111.104ZM67.3823 99.6C67.0836 99.6 66.7743 99.616 66.4543 99.648C66.1343 99.6693 65.8143 99.7013 65.4943 99.744C65.4516 100.341 65.4143 100.933 65.3823 101.52C65.3503 102.096 65.3236 102.672 65.3023 103.248C65.7716 103.237 66.2783 103.211 66.8223 103.168C67.3769 103.115 67.8996 103.019 68.3903 102.88C68.8809 102.731 69.2809 102.517 69.5903 102.24C69.9103 101.963 70.0703 101.595 70.0703 101.136C70.0703 100.603 69.8516 100.213 69.4143 99.968C68.9769 99.7227 68.2996 99.6 67.3823 99.6ZM79.9281 111.28C78.9041 111.28 78.0028 111.077 77.2241 110.672C76.4561 110.277 75.8535 109.723 75.4161 109.008C74.9895 108.293 74.7761 107.467 74.7761 106.528C74.7761 105.963 74.8721 105.371 75.0641 104.752C75.2561 104.123 75.5655 103.536 75.9921 102.992C76.4188 102.448 76.9788 102.005 77.6721 101.664C78.3761 101.323 79.2295 101.152 80.2321 101.152C80.9575 101.152 81.5655 101.232 82.0561 101.392C82.5575 101.552 82.9628 101.76 83.2721 102.016C83.5921 102.272 83.8321 102.544 83.9921 102.832C84.1628 103.12 84.2748 103.397 84.3281 103.664C84.3921 103.92 84.4241 104.133 84.4241 104.304C84.4241 105.339 83.9868 106.139 83.1121 106.704C82.2481 107.259 81.0215 107.536 79.4321 107.536C79.0695 107.536 78.7228 107.52 78.3921 107.488C78.0721 107.456 77.7735 107.419 77.4961 107.376C77.6988 107.909 78.0348 108.304 78.5041 108.56C78.9735 108.805 79.4588 108.928 79.9601 108.928C80.6855 108.928 81.3255 108.8 81.8801 108.544C82.4348 108.277 82.9575 107.872 83.4481 107.328L84.8721 109.376C84.5308 109.653 84.1468 109.941 83.7201 110.24C83.3041 110.539 82.7921 110.784 82.1841 110.976C81.5761 111.179 80.8241 111.28 79.9281 111.28ZM80.2801 103.552C79.6508 103.552 79.0961 103.712 78.6161 104.032C78.1361 104.352 77.7841 104.773 77.5601 105.296C77.8268 105.339 78.0881 105.376 78.3441 105.408C78.6108 105.429 78.8721 105.44 79.1281 105.44C79.3628 105.44 79.6295 105.419 79.9281 105.376C80.2375 105.333 80.5361 105.269 80.8241 105.184C81.1228 105.099 81.3681 104.992 81.5601 104.864C81.7521 104.725 81.8481 104.565 81.8481 104.384C81.8481 104.299 81.8055 104.192 81.7201 104.064C81.6348 103.936 81.4801 103.819 81.2561 103.712C81.0321 103.605 80.7068 103.552 80.2801 103.552ZM86.2398 114.544C86.1651 113.691 86.1118 112.832 86.0798 111.968C86.0478 111.104 86.0318 110.107 86.0318 108.976C86.0318 107.6 86.0531 106.229 86.0958 104.864C86.1384 103.499 86.2024 102.251 86.2878 101.12L89.0398 101.2C89.0078 101.445 88.9811 101.707 88.9598 101.984C89.3438 101.728 89.7544 101.541 90.1918 101.424C90.6398 101.307 91.0931 101.248 91.5518 101.248C92.1384 101.248 92.7091 101.344 93.2638 101.536C93.8184 101.717 94.3198 102.011 94.7678 102.416C95.2158 102.811 95.5678 103.323 95.8238 103.952C96.0904 104.581 96.2238 105.339 96.2238 106.224C96.2238 107.099 96.0904 107.861 95.8238 108.512C95.5571 109.163 95.1998 109.696 94.7517 110.112C94.3038 110.539 93.8024 110.853 93.2478 111.056C92.6931 111.269 92.1224 111.376 91.5358 111.376C90.4584 111.376 89.5091 111.056 88.6878 110.416C88.7091 111.099 88.7411 111.755 88.7838 112.384C88.8264 113.024 88.8798 113.675 88.9438 114.336L86.2398 114.544ZM91.1198 103.904C90.0638 103.904 89.2691 104.421 88.7358 105.456C88.7038 106.096 88.6824 106.747 88.6718 107.408C88.9278 107.749 89.2584 108.048 89.6638 108.304C90.0691 108.549 90.5864 108.672 91.2158 108.672C92.7198 108.672 93.4718 107.813 93.4718 106.096C93.4718 105.637 93.3864 105.264 93.2158 104.976C93.0451 104.688 92.8318 104.469 92.5758 104.32C92.3198 104.16 92.0584 104.053 91.7918 104C91.5251 103.936 91.3011 103.904 91.1198 103.904ZM100.513 111.264C99.9263 111.264 99.441 111.136 99.057 110.88C98.6837 110.635 98.385 110.293 98.161 109.856C97.9477 109.419 97.7877 108.917 97.681 108.352C97.585 107.787 97.521 107.184 97.489 106.544C97.4677 105.893 97.457 105.243 97.457 104.592C97.457 104.027 97.473 103.408 97.505 102.736C97.537 102.053 97.5743 101.365 97.617 100.672C97.6703 99.968 97.7237 99.3067 97.777 98.688C97.841 98.0693 97.8997 97.5307 97.953 97.072L100.849 97.104C100.764 97.648 100.684 98.2667 100.609 98.96C100.534 99.6427 100.47 100.336 100.417 101.04C100.374 101.744 100.337 102.395 100.305 102.992C100.284 103.589 100.273 104.064 100.273 104.416C100.273 105.387 100.289 106.149 100.321 106.704C100.364 107.259 100.422 107.653 100.497 107.888C100.582 108.112 100.694 108.224 100.833 108.224C101.014 108.224 101.212 108.112 101.425 107.888C101.638 107.653 101.846 107.392 102.049 107.104L103.409 109.808C103.078 110.171 102.684 110.501 102.225 110.8C101.766 111.109 101.196 111.264 100.513 111.264ZM108.8 111.264C108 111.264 107.274 111.056 106.624 110.64C105.973 110.235 105.456 109.685 105.072 108.992C104.698 108.288 104.512 107.504 104.512 106.64C104.512 105.829 104.661 105.099 104.96 104.448C105.258 103.787 105.664 103.221 106.176 102.752C106.698 102.283 107.29 101.925 107.952 101.68C108.613 101.424 109.306 101.296 110.032 101.296C110.64 101.296 111.237 101.381 111.824 101.552C111.866 101.328 111.904 101.104 111.936 100.88L114.672 101.344C114.597 101.547 114.522 101.851 114.448 102.256C114.373 102.661 114.309 103.115 114.256 103.616C114.213 104.117 114.176 104.619 114.144 105.12C114.112 105.621 114.096 106.075 114.096 106.48C114.096 106.811 114.117 107.136 114.16 107.456C114.213 107.765 114.32 108.021 114.48 108.224C114.64 108.416 114.885 108.512 115.216 108.512H115.44L115.04 111.296C114.336 111.296 113.754 111.173 113.296 110.928C112.837 110.693 112.469 110.373 112.192 109.968C111.733 110.48 111.21 110.821 110.624 110.992C110.037 111.173 109.429 111.264 108.8 111.264ZM107.136 106.96C107.189 107.472 107.397 107.883 107.76 108.192C108.133 108.491 108.602 108.64 109.168 108.64C109.712 108.64 110.165 108.496 110.528 108.208C110.89 107.909 111.189 107.504 111.424 106.992C111.413 106.821 111.408 106.645 111.408 106.464C111.408 106.091 111.418 105.707 111.44 105.312C111.461 104.917 111.488 104.528 111.52 104.144C111.072 103.973 110.602 103.888 110.112 103.888C109.536 103.888 109.018 104.005 108.56 104.24C108.112 104.464 107.76 104.779 107.504 105.184C107.248 105.589 107.12 106.059 107.12 106.592C107.12 106.656 107.12 106.72 107.12 106.784C107.12 106.848 107.125 106.907 107.136 106.96ZM119 114.336L116.6 113.056C117.197 112.395 117.779 111.712 118.344 111.008C118.909 110.315 119.448 109.6 119.96 108.864C119.459 108.192 118.957 107.472 118.456 106.704C117.955 105.925 117.491 105.163 117.064 104.416C116.637 103.669 116.291 103.003 116.024 102.416L118.584 101.296C118.776 101.808 119.021 102.363 119.32 102.96C119.629 103.557 119.965 104.165 120.328 104.784C120.701 105.403 121.085 105.995 121.48 106.56C122.632 104.693 123.581 102.853 124.328 101.04L126.984 102.096C126.504 103.013 125.96 104 125.352 105.056C124.755 106.101 124.109 107.168 123.416 108.256C122.733 109.333 122.019 110.389 121.272 111.424C120.525 112.469 119.768 113.44 119 114.336ZM132.097 111.264C131.297 111.264 130.571 111.056 129.921 110.64C129.27 110.235 128.753 109.685 128.368 108.992C127.995 108.288 127.809 107.504 127.809 106.64C127.809 105.829 127.958 105.099 128.257 104.448C128.555 103.787 128.961 103.221 129.473 102.752C129.995 102.283 130.587 101.925 131.249 101.68C131.91 101.424 132.603 101.296 133.329 101.296C133.937 101.296 134.534 101.381 135.121 101.552C135.163 101.328 135.201 101.104 135.233 100.88L137.969 101.344C137.894 101.547 137.819 101.851 137.745 102.256C137.67 102.661 137.606 103.115 137.553 103.616C137.51 104.117 137.473 104.619 137.441 105.12C137.409 105.621 137.393 106.075 137.393 106.48C137.393 106.811 137.414 107.136 137.457 107.456C137.51 107.765 137.617 108.021 137.777 108.224C137.937 108.416 138.182 108.512 138.513 108.512H138.737L138.337 111.296C137.633 111.296 137.051 111.173 136.593 110.928C136.134 110.693 135.766 110.373 135.489 109.968C135.03 110.48 134.507 110.821 133.921 110.992C133.334 111.173 132.726 111.264 132.097 111.264ZM130.433 106.96C130.486 107.472 130.694 107.883 131.057 108.192C131.43 108.491 131.899 108.64 132.465 108.64C133.009 108.64 133.462 108.496 133.825 108.208C134.187 107.909 134.486 107.504 134.721 106.992C134.71 106.821 134.705 106.645 134.705 106.464C134.705 106.091 134.715 105.707 134.737 105.312C134.758 104.917 134.785 104.528 134.817 104.144C134.369 103.973 133.899 103.888 133.409 103.888C132.833 103.888 132.315 104.005 131.857 104.24C131.409 104.464 131.057 104.779 130.801 105.184C130.545 105.589 130.417 106.059 130.417 106.592C130.417 106.656 130.417 106.72 130.417 106.784C130.417 106.848 130.422 106.907 130.433 106.96ZM139.881 111.152C139.881 110.277 139.897 109.339 139.929 108.336C139.961 107.333 140.003 106.315 140.057 105.28C140.11 104.245 140.163 103.232 140.217 102.24C140.281 101.248 140.345 100.315 140.409 99.44C140.473 98.5547 140.526 97.7707 140.569 97.088L143.241 97.12C143.177 97.728 143.113 98.4107 143.049 99.168C142.995 99.9253 142.942 100.731 142.889 101.584C143.198 101.456 143.529 101.36 143.881 101.296C144.243 101.221 144.633 101.184 145.049 101.184C145.614 101.184 146.153 101.28 146.665 101.472C147.187 101.653 147.657 101.936 148.073 102.32C148.489 102.704 148.814 103.2 149.049 103.808C149.294 104.416 149.417 105.147 149.417 106C149.417 106.907 149.289 107.691 149.033 108.352C148.777 109.013 148.43 109.557 147.993 109.984C147.555 110.411 147.059 110.725 146.505 110.928C145.961 111.141 145.401 111.248 144.825 111.248C144.387 111.248 143.977 111.189 143.593 111.072C143.219 110.955 142.873 110.8 142.553 110.608C142.553 110.779 142.553 110.949 142.553 111.12L139.881 111.152ZM144.681 103.872C143.881 103.872 143.23 104.107 142.729 104.576C142.686 105.557 142.649 106.517 142.617 107.456C143.139 108.149 143.87 108.496 144.809 108.496C145.118 108.496 145.427 108.427 145.737 108.288C146.057 108.139 146.323 107.888 146.537 107.536C146.75 107.184 146.857 106.693 146.857 106.064C146.857 105.349 146.67 104.805 146.297 104.432C145.934 104.059 145.395 103.872 144.681 103.872ZM150.454 99.664C150.454 99.568 150.449 99.472 150.438 99.376C150.438 99.2693 150.438 99.152 150.438 99.024C150.438 98.6827 150.449 98.32 150.47 97.936C150.492 97.552 150.513 97.2267 150.534 96.96L153.382 97.008C153.35 97.3707 153.313 97.7813 153.27 98.24C153.238 98.6987 153.217 99.1733 153.206 99.664H150.454ZM150.39 111.12C150.358 110.459 150.337 109.755 150.326 109.008C150.316 108.251 150.31 107.493 150.31 106.736C150.31 105.744 150.321 104.779 150.342 103.84C150.364 102.901 150.39 102.048 150.422 101.28L153.174 101.264C153.132 101.755 153.105 102.363 153.094 103.088C153.084 103.803 153.078 104.555 153.078 105.344C153.078 106.123 153.084 106.891 153.094 107.648C153.105 108.405 153.116 109.093 153.126 109.712C153.148 110.32 153.164 110.789 153.174 111.12H150.39ZM157.841 111.264C157.254 111.264 156.769 111.136 156.385 110.88C156.012 110.635 155.713 110.293 155.489 109.856C155.276 109.419 155.116 108.917 155.009 108.352C154.913 107.787 154.849 107.184 154.817 106.544C154.796 105.893 154.785 105.243 154.785 104.592C154.785 104.027 154.801 103.408 154.833 102.736C154.865 102.053 154.902 101.365 154.945 100.672C154.998 99.968 155.052 99.3067 155.105 98.688C155.169 98.0693 155.228 97.5307 155.281 97.072L158.177 97.104C158.092 97.648 158.012 98.2667 157.937 98.96C157.862 99.6427 157.798 100.336 157.745 101.04C157.702 101.744 157.665 102.395 157.633 102.992C157.612 103.589 157.601 104.064 157.601 104.416C157.601 105.387 157.617 106.149 157.649 106.704C157.692 107.259 157.75 107.653 157.825 107.888C157.91 108.112 158.022 108.224 158.161 108.224C158.342 108.224 158.54 108.112 158.753 107.888C158.966 107.653 159.174 107.392 159.377 107.104L160.737 109.808C160.406 110.171 160.012 110.501 159.553 110.8C159.094 111.109 158.524 111.264 157.841 111.264ZM162.064 99.664C162.064 99.568 162.058 99.472 162.048 99.376C162.048 99.2693 162.048 99.152 162.048 99.024C162.048 98.6827 162.058 98.32 162.08 97.936C162.101 97.552 162.122 97.2267 162.144 96.96L164.992 97.008C164.96 97.3707 164.922 97.7813 164.88 98.24C164.848 98.6987 164.826 99.1733 164.816 99.664H162.064ZM162 111.12C161.968 110.459 161.946 109.755 161.936 109.008C161.925 108.251 161.92 107.493 161.92 106.736C161.92 105.744 161.93 104.779 161.952 103.84C161.973 102.901 162 102.048 162.032 101.28L164.784 101.264C164.741 101.755 164.714 102.363 164.704 103.088C164.693 103.803 164.688 104.555 164.688 105.344C164.688 106.123 164.693 106.891 164.704 107.648C164.714 108.405 164.725 109.093 164.736 109.712C164.757 110.32 164.773 110.789 164.784 111.12H162ZM171.131 111.264C170.491 111.264 169.984 111.125 169.611 110.848C169.237 110.581 168.965 110.208 168.795 109.728C168.624 109.248 168.512 108.699 168.459 108.08C168.416 107.461 168.395 106.811 168.395 106.128C168.395 105.424 168.421 104.693 168.475 103.936C167.76 104.032 167.072 104.155 166.411 104.304L165.915 101.792C166.8 101.557 167.744 101.387 168.747 101.28C168.821 100.736 168.901 100.165 168.987 99.568C169.072 98.96 169.168 98.32 169.275 97.648L172.027 97.888C171.899 98.4427 171.787 98.9973 171.691 99.552C171.595 100.096 171.509 100.624 171.435 101.136C172.032 101.136 172.592 101.152 173.115 101.184C173.648 101.205 174.139 101.248 174.587 101.312L174.267 103.824C173.893 103.781 173.504 103.755 173.099 103.744C172.704 103.723 172.304 103.712 171.899 103.712C171.653 103.712 171.408 103.717 171.163 103.728C171.099 104.507 171.056 105.173 171.035 105.728C171.024 106.283 171.019 106.677 171.019 106.912C171.019 107.499 171.051 107.92 171.115 108.176C171.189 108.432 171.307 108.56 171.467 108.56C171.648 108.56 171.851 108.501 172.075 108.384C172.299 108.256 172.517 108.085 172.731 107.872C172.955 107.659 173.141 107.429 173.291 107.184L174.523 109.76C173.467 110.763 172.336 111.264 171.131 111.264ZM178.281 114.336L175.881 113.056C176.478 112.395 177.06 111.712 177.625 111.008C178.19 110.315 178.729 109.6 179.241 108.864C178.74 108.192 178.238 107.472 177.737 106.704C177.236 105.925 176.772 105.163 176.345 104.416C175.918 103.669 175.572 103.003 175.305 102.416L177.865 101.296C178.057 101.808 178.302 102.363 178.601 102.96C178.91 103.557 179.246 104.165 179.609 104.784C179.982 105.403 180.366 105.995 180.761 106.56C181.913 104.693 182.862 102.853 183.609 101.04L186.265 102.096C185.785 103.013 185.241 104 184.633 105.056C184.036 106.101 183.39 107.168 182.697 108.256C182.014 109.333 181.3 110.389 180.553 111.424C179.806 112.469 179.049 113.44 178.281 114.336ZM67.8529 134.136L65.1169 133.624C65.6289 131.555 66.1622 129.683 66.7169 128.008C67.2822 126.333 67.8635 124.899 68.4609 123.704C69.0582 122.509 69.6662 121.592 70.2849 120.952C70.9142 120.301 71.5435 119.976 72.1729 119.976C73.4422 119.976 74.6102 121.155 75.6769 123.512C76.7435 125.859 77.6502 129.261 78.3969 133.72L75.5649 134.104C75.4369 133.4 75.2982 132.68 75.1489 131.944C74.9995 131.197 74.8449 130.472 74.6849 129.768C74.4289 129.757 74.1515 129.752 73.8529 129.752C73.3302 129.752 72.7755 129.763 72.1889 129.784C71.6129 129.805 71.0422 129.843 70.4769 129.896C69.9222 129.939 69.4049 129.987 68.9249 130.04C68.7222 130.723 68.5249 131.416 68.3329 132.12C68.1515 132.813 67.9915 133.485 67.8529 134.136ZM70.7969 124.792C70.5622 125.293 70.2475 126.104 69.8529 127.224C70.3115 127.171 70.7969 127.133 71.3089 127.112C71.8209 127.08 72.3222 127.064 72.8129 127.064C73.2289 127.064 73.6289 127.075 74.0129 127.096C73.8635 126.552 73.7195 126.067 73.5809 125.64C73.4529 125.213 73.3355 124.877 73.2289 124.632C73.0049 124.056 72.8075 123.651 72.6369 123.416C72.4662 123.171 72.2902 123.048 72.1089 123.048C71.9169 123.048 71.7249 123.176 71.5329 123.432C71.3409 123.677 71.0955 124.131 70.7969 124.792ZM83.0075 134.312C82.1222 134.312 81.3702 133.624 80.7515 132.248C80.5382 131.757 80.3515 131.219 80.1915 130.632C80.0315 130.045 79.8928 129.448 79.7755 128.84C79.6688 128.232 79.5782 127.651 79.5035 127.096C79.4395 126.531 79.3862 126.035 79.3435 125.608C79.3115 125.171 79.2848 124.84 79.2635 124.616L81.8875 124.008C82.0155 126.429 82.2075 128.269 82.4635 129.528C82.7302 130.787 82.9328 131.416 83.0715 131.416C83.1462 131.416 83.2368 131.267 83.3435 130.968C83.4608 130.669 83.5888 130.275 83.7275 129.784C83.8662 129.283 83.9995 128.733 84.1275 128.136C84.2555 127.539 84.3675 126.936 84.4635 126.328C84.3355 125.549 84.2502 124.931 84.2075 124.472L86.9115 124.376V124.568C86.9115 125.005 86.9435 125.517 87.0075 126.104C87.0715 126.691 87.1515 127.299 87.2475 127.928C87.3435 128.547 87.4448 129.123 87.5515 129.656C87.6688 130.189 87.7808 130.621 87.8875 130.952C87.9942 131.283 88.0848 131.448 88.1595 131.448C88.2235 131.448 88.3142 131.304 88.4315 131.016C88.5488 130.728 88.6768 130.333 88.8155 129.832C88.9648 129.331 89.1142 128.76 89.2635 128.12C89.4128 127.469 89.5568 126.787 89.6955 126.072C89.8342 125.347 89.9462 124.627 90.0315 123.912L92.6715 124.472C92.4902 125.485 92.2715 126.493 92.0155 127.496C91.7702 128.488 91.5088 129.411 91.2315 130.264C90.9542 131.107 90.6822 131.816 90.4155 132.392C89.8182 133.661 89.0768 134.296 88.1915 134.296C87.9035 134.296 87.5728 134.205 87.1995 134.024C86.8368 133.853 86.5008 133.491 86.1915 132.936C86.0848 132.733 85.9782 132.488 85.8715 132.2C85.7648 131.912 85.6635 131.592 85.5675 131.24C85.4395 131.635 85.3115 131.987 85.1835 132.296C84.6182 133.64 83.8928 134.312 83.0075 134.312ZM98.0184 134.264C97.2184 134.264 96.493 134.056 95.8424 133.64C95.1917 133.235 94.6744 132.685 94.2904 131.992C93.917 131.288 93.7304 130.504 93.7304 129.64C93.7304 128.829 93.8797 128.099 94.1784 127.448C94.477 126.787 94.8824 126.221 95.3944 125.752C95.917 125.283 96.509 124.925 97.1704 124.68C97.8317 124.424 98.525 124.296 99.2504 124.296C99.8584 124.296 100.456 124.381 101.042 124.552C101.085 124.328 101.122 124.104 101.154 123.88L103.89 124.344C103.816 124.547 103.741 124.851 103.666 125.256C103.592 125.661 103.528 126.115 103.474 126.616C103.432 127.117 103.394 127.619 103.362 128.12C103.33 128.621 103.314 129.075 103.314 129.48C103.314 129.811 103.336 130.136 103.378 130.456C103.432 130.765 103.538 131.021 103.698 131.224C103.858 131.416 104.104 131.512 104.434 131.512H104.658L104.258 134.296C103.554 134.296 102.973 134.173 102.514 133.928C102.056 133.693 101.688 133.373 101.41 132.968C100.952 133.48 100.429 133.821 99.8424 133.992C99.2557 134.173 98.6477 134.264 98.0184 134.264ZM96.3544 129.96C96.4077 130.472 96.6157 130.883 96.9784 131.192C97.3517 131.491 97.821 131.64 98.3864 131.64C98.9304 131.64 99.3837 131.496 99.7464 131.208C100.109 130.909 100.408 130.504 100.642 129.992C100.632 129.821 100.626 129.645 100.626 129.464C100.626 129.091 100.637 128.707 100.658 128.312C100.68 127.917 100.706 127.528 100.738 127.144C100.29 126.973 99.821 126.888 99.3304 126.888C98.7544 126.888 98.237 127.005 97.7784 127.24C97.3304 127.464 96.9784 127.779 96.7224 128.184C96.4664 128.589 96.3384 129.059 96.3384 129.592C96.3384 129.656 96.3384 129.72 96.3384 129.784C96.3384 129.848 96.3437 129.907 96.3544 129.96ZM105.595 134.248C105.637 133.363 105.669 132.477 105.691 131.592C105.712 130.707 105.723 129.832 105.723 128.968C105.712 128.179 105.696 127.4 105.675 126.632C105.664 125.853 105.637 125.101 105.595 124.376L108.283 124.296C108.293 124.691 108.309 125.096 108.331 125.512C108.672 125.085 109.067 124.744 109.515 124.488C109.973 124.221 110.496 124.088 111.083 124.088C111.307 124.088 111.595 124.12 111.947 124.184C112.299 124.248 112.656 124.371 113.019 124.552L112.715 127.256C112.448 127.096 112.16 126.984 111.851 126.92C111.552 126.845 111.301 126.808 111.099 126.808C110.416 126.808 109.835 127.117 109.355 127.736C108.885 128.344 108.565 129.192 108.395 130.28C108.395 131.027 108.384 131.741 108.363 132.424C108.352 133.096 108.325 133.704 108.283 134.248H105.595ZM117.706 134.264C117.152 134.264 116.608 134.168 116.074 133.976C115.552 133.784 115.077 133.485 114.65 133.08C114.234 132.685 113.904 132.189 113.658 131.592C113.413 130.984 113.29 130.275 113.29 129.464C113.29 128.547 113.429 127.757 113.706 127.096C113.994 126.424 114.373 125.875 114.842 125.448C115.312 125.011 115.834 124.685 116.41 124.472C116.986 124.259 117.562 124.152 118.138 124.152C118.48 124.152 118.805 124.179 119.114 124.232C119.424 124.275 119.712 124.339 119.978 124.424C120.01 123.645 120.048 122.861 120.09 122.072C120.144 121.283 120.202 120.504 120.266 119.736L122.954 119.912C122.869 120.797 122.794 121.752 122.73 122.776C122.666 123.789 122.618 124.824 122.586 125.88C122.565 126.936 122.554 127.965 122.554 128.968C122.554 129.907 122.565 130.803 122.586 131.656C122.618 132.499 122.656 133.267 122.698 133.96L119.93 134.168C119.92 133.965 119.914 133.768 119.914 133.576C119.605 133.779 119.264 133.944 118.89 134.072C118.528 134.2 118.133 134.264 117.706 134.264ZM115.866 129.32C115.866 129.875 115.973 130.312 116.186 130.632C116.4 130.941 116.661 131.16 116.97 131.288C117.28 131.416 117.578 131.48 117.866 131.48C118.208 131.48 118.549 131.405 118.89 131.256C119.232 131.107 119.552 130.845 119.85 130.472C119.85 130.344 119.85 130.221 119.85 130.104C119.85 129.24 119.861 128.355 119.882 127.448C119.381 127.011 118.837 126.792 118.25 126.792C118.005 126.792 117.744 126.829 117.466 126.904C117.189 126.979 116.928 127.112 116.682 127.304C116.448 127.485 116.25 127.741 116.09 128.072C115.941 128.392 115.866 128.808 115.866 129.32ZM127.973 130.28L127.925 128.008C128.352 127.965 128.885 127.933 129.525 127.912C130.165 127.891 130.81 127.88 131.461 127.88C131.92 127.88 132.352 127.885 132.757 127.896C133.173 127.907 133.53 127.923 133.829 127.944L133.797 130.184C133.53 130.184 133.242 130.184 132.933 130.184C132.624 130.173 132.298 130.168 131.957 130.168C131.274 130.168 130.581 130.179 129.877 130.2C129.173 130.211 128.538 130.237 127.973 130.28ZM144.073 134.168C143.017 134.168 142.18 134.077 141.561 133.896C140.943 133.715 140.484 133.459 140.185 133.128C139.887 132.808 139.689 132.429 139.593 131.992C139.508 131.544 139.465 131.064 139.465 130.552C139.465 129.699 139.487 128.723 139.529 127.624C139.583 126.525 139.647 125.347 139.721 124.088C139.807 122.819 139.897 121.507 139.993 120.152L142.905 120.44C142.799 121.261 142.703 122.104 142.617 122.968C142.543 123.821 142.479 124.653 142.425 125.464C142.372 126.275 142.329 127.011 142.297 127.672C142.265 128.333 142.239 128.888 142.217 129.336C142.207 129.773 142.201 130.056 142.201 130.184C142.201 130.557 142.244 130.84 142.329 131.032C142.415 131.213 142.585 131.336 142.841 131.4C143.097 131.464 143.471 131.496 143.961 131.496C144.58 131.496 145.279 131.459 146.057 131.384C146.836 131.299 147.625 131.176 148.425 131.016C149.225 130.856 149.956 130.664 150.617 130.44L151.241 133.192C150.516 133.373 149.732 133.539 148.889 133.688C148.057 133.837 147.225 133.955 146.393 134.04C145.561 134.125 144.788 134.168 144.073 134.168ZM158.171 134.248C157.147 134.248 156.299 134.083 155.627 133.752C154.955 133.432 154.416 132.989 154.011 132.424C153.616 131.848 153.317 131.187 153.115 130.44C152.923 129.693 152.795 128.893 152.731 128.04C152.677 127.187 152.651 126.323 152.651 125.448C152.651 124.456 152.683 123.491 152.747 122.552C152.811 121.603 152.88 120.808 152.955 120.168L155.899 120.344C155.792 121.123 155.707 121.821 155.643 122.44C155.589 123.048 155.552 123.624 155.531 124.168C155.509 124.712 155.499 125.272 155.499 125.848C155.499 126.296 155.504 126.781 155.515 127.304C155.536 127.816 155.584 128.328 155.659 128.84C155.744 129.341 155.872 129.8 156.043 130.216C156.224 130.621 156.475 130.952 156.795 131.208C157.125 131.453 157.547 131.576 158.059 131.576C158.613 131.576 159.061 131.453 159.403 131.208C159.755 130.952 160.027 130.616 160.219 130.2C160.411 129.773 160.549 129.304 160.635 128.792C160.72 128.269 160.768 127.741 160.779 127.208C160.8 126.664 160.811 126.152 160.811 125.672C160.811 124.765 160.784 123.885 160.731 123.032C160.677 122.179 160.608 121.272 160.523 120.312L163.467 120.088C163.552 121.112 163.616 122.051 163.659 122.904C163.701 123.747 163.723 124.525 163.723 125.24C163.723 126.211 163.685 127.144 163.611 128.04C163.547 128.936 163.408 129.763 163.195 130.52C162.981 131.267 162.672 131.923 162.267 132.488C161.861 133.043 161.323 133.475 160.651 133.784C159.989 134.093 159.163 134.248 158.171 134.248ZM168.157 134.264L165.469 134.024L166.061 123.032C165.783 123.096 165.527 123.171 165.293 123.256L164.812 120.536C165.378 120.419 166.077 120.296 166.909 120.168C167.741 120.04 168.599 119.976 169.485 119.976C170.167 119.976 170.861 120.051 171.565 120.2C172.269 120.339 172.941 120.573 173.581 120.904C174.231 121.224 174.807 121.656 175.309 122.2C175.821 122.744 176.221 123.411 176.509 124.2C176.807 124.989 176.957 125.923 176.957 127C176.957 128.515 176.711 129.811 176.221 130.888C175.741 131.955 175.037 132.771 174.109 133.336C173.191 133.901 172.082 134.184 170.781 134.184C169.917 134.184 169.063 134.024 168.221 133.704C168.199 133.917 168.178 134.104 168.157 134.264ZM169.373 122.664C169.223 122.664 169.069 122.664 168.909 122.664C168.802 124.648 168.706 126.339 168.621 127.736C168.535 129.123 168.461 130.28 168.397 131.208C168.717 131.315 169.069 131.411 169.453 131.496C169.847 131.571 170.258 131.608 170.685 131.608C171.549 131.608 172.242 131.389 172.765 130.952C173.298 130.515 173.682 129.939 173.917 129.224C174.151 128.499 174.269 127.715 174.269 126.872C174.269 126.2 174.167 125.629 173.965 125.16C173.762 124.691 173.495 124.301 173.165 123.992C172.845 123.683 172.493 123.443 172.109 123.272C171.725 123.091 171.346 122.957 170.973 122.872C170.61 122.787 170.285 122.733 169.997 122.712C169.709 122.68 169.501 122.664 169.373 122.664ZM178.683 134.104C178.597 133.549 178.523 132.877 178.459 132.088C178.405 131.299 178.363 130.44 178.331 129.512C178.309 128.584 178.299 127.64 178.299 126.68C178.299 125.475 178.32 124.301 178.363 123.16C178.405 122.019 178.469 121.016 178.555 120.152L181.499 120.2C181.381 120.957 181.291 121.848 181.227 122.872C181.173 123.896 181.147 125.059 181.147 126.36C181.147 127.683 181.168 129.011 181.211 130.344C181.264 131.677 181.323 132.899 181.387 134.008L178.683 134.104ZM68.8621 157.264C68.0621 157.264 67.3368 157.056 66.6861 156.64C66.0355 156.235 65.5181 155.685 65.1341 154.992C64.7608 154.288 64.5741 153.504 64.5741 152.64C64.5741 151.829 64.7235 151.099 65.0221 150.448C65.3208 149.787 65.7261 149.221 66.2381 148.752C66.7608 148.283 67.3528 147.925 68.0141 147.68C68.6755 147.424 69.3688 147.296 70.0941 147.296C70.7021 147.296 71.2995 147.381 71.8861 147.552C71.9288 147.328 71.9661 147.104 71.9981 146.88L74.7341 147.344C74.6595 147.547 74.5848 147.851 74.5101 148.256C74.4355 148.661 74.3715 149.115 74.3181 149.616C74.2755 150.117 74.2381 150.619 74.2061 151.12C74.1741 151.621 74.1581 152.075 74.1581 152.48C74.1581 152.811 74.1795 153.136 74.2221 153.456C74.2755 153.765 74.3821 154.021 74.5421 154.224C74.7021 154.416 74.9475 154.512 75.2781 154.512H75.5021L75.1021 157.296C74.3981 157.296 73.8168 157.173 73.3581 156.928C72.8995 156.693 72.5315 156.373 72.2541 155.968C71.7955 156.48 71.2728 156.821 70.6861 156.992C70.0995 157.173 69.4915 157.264 68.8621 157.264ZM67.1981 152.96C67.2515 153.472 67.4595 153.883 67.8221 154.192C68.1955 154.491 68.6648 154.64 69.2301 154.64C69.7741 154.64 70.2275 154.496 70.5901 154.208C70.9528 153.909 71.2515 153.504 71.4861 152.992C71.4755 152.821 71.4701 152.645 71.4701 152.464C71.4701 152.091 71.4808 151.707 71.5021 151.312C71.5235 150.917 71.5501 150.528 71.5821 150.144C71.1341 149.973 70.6648 149.888 70.1741 149.888C69.5981 149.888 69.0808 150.005 68.6221 150.24C68.1741 150.464 67.8221 150.779 67.5661 151.184C67.3101 151.589 67.1821 152.059 67.1821 152.592C67.1821 152.656 67.1821 152.72 67.1821 152.784C67.1821 152.848 67.1875 152.907 67.1981 152.96ZM80.0544 157.312C79.169 157.312 78.417 156.624 77.7984 155.248C77.585 154.757 77.3984 154.219 77.2384 153.632C77.0784 153.045 76.9397 152.448 76.8224 151.84C76.7157 151.232 76.625 150.651 76.5504 150.096C76.4864 149.531 76.433 149.035 76.3904 148.608C76.3584 148.171 76.3317 147.84 76.3104 147.616L78.9344 147.008C79.0624 149.429 79.2544 151.269 79.5104 152.528C79.777 153.787 79.9797 154.416 80.1184 154.416C80.193 154.416 80.2837 154.267 80.3904 153.968C80.5077 153.669 80.6357 153.275 80.7744 152.784C80.913 152.283 81.0464 151.733 81.1744 151.136C81.3024 150.539 81.4144 149.936 81.5104 149.328C81.3824 148.549 81.297 147.931 81.2544 147.472L83.9584 147.376V147.568C83.9584 148.005 83.9904 148.517 84.0544 149.104C84.1184 149.691 84.1984 150.299 84.2944 150.928C84.3904 151.547 84.4917 152.123 84.5984 152.656C84.7157 153.189 84.8277 153.621 84.9344 153.952C85.041 154.283 85.1317 154.448 85.2064 154.448C85.2704 154.448 85.361 154.304 85.4784 154.016C85.5957 153.728 85.7237 153.333 85.8624 152.832C86.0117 152.331 86.161 151.76 86.3104 151.12C86.4597 150.469 86.6037 149.787 86.7424 149.072C86.881 148.347 86.993 147.627 87.0784 146.912L89.7184 147.472C89.537 148.485 89.3184 149.493 89.0624 150.496C88.817 151.488 88.5557 152.411 88.2784 153.264C88.001 154.107 87.729 154.816 87.4624 155.392C86.865 156.661 86.1237 157.296 85.2384 157.296C84.9504 157.296 84.6197 157.205 84.2464 157.024C83.8837 156.853 83.5477 156.491 83.2384 155.936C83.1317 155.733 83.025 155.488 82.9184 155.2C82.8117 154.912 82.7104 154.592 82.6144 154.24C82.4864 154.635 82.3584 154.987 82.2304 155.296C81.665 156.64 80.9397 157.312 80.0544 157.312ZM95.0653 157.264C94.2653 157.264 93.5399 157.056 92.8893 156.64C92.2386 156.235 91.7213 155.685 91.3372 154.992C90.9639 154.288 90.7773 153.504 90.7773 152.64C90.7773 151.829 90.9266 151.099 91.2253 150.448C91.5239 149.787 91.9293 149.221 92.4413 148.752C92.9639 148.283 93.5559 147.925 94.2173 147.68C94.8786 147.424 95.5719 147.296 96.2973 147.296C96.9053 147.296 97.5026 147.381 98.0893 147.552C98.1319 147.328 98.1693 147.104 98.2013 146.88L100.937 147.344C100.863 147.547 100.788 147.851 100.713 148.256C100.639 148.661 100.575 149.115 100.521 149.616C100.479 150.117 100.441 150.619 100.409 151.12C100.377 151.621 100.361 152.075 100.361 152.48C100.361 152.811 100.383 153.136 100.425 153.456C100.479 153.765 100.585 154.021 100.745 154.224C100.905 154.416 101.151 154.512 101.481 154.512H101.705L101.305 157.296C100.601 157.296 100.02 157.173 99.5613 156.928C99.1026 156.693 98.7346 156.373 98.4573 155.968C97.9986 156.48 97.4759 156.821 96.8893 156.992C96.3026 157.173 95.6946 157.264 95.0653 157.264ZM93.4013 152.96C93.4546 153.472 93.6626 153.883 94.0253 154.192C94.3986 154.491 94.8679 154.64 95.4333 154.64C95.9773 154.64 96.4306 154.496 96.7933 154.208C97.1559 153.909 97.4546 153.504 97.6893 152.992C97.6786 152.821 97.6733 152.645 97.6733 152.464C97.6733 152.091 97.6839 151.707 97.7053 151.312C97.7266 150.917 97.7533 150.528 97.7853 150.144C97.3373 149.973 96.8679 149.888 96.3773 149.888C95.8013 149.888 95.2839 150.005 94.8253 150.24C94.3773 150.464 94.0253 150.779 93.7693 151.184C93.5133 151.589 93.3853 152.059 93.3853 152.592C93.3853 152.656 93.3853 152.72 93.3853 152.784C93.3853 152.848 93.3906 152.907 93.4013 152.96ZM102.642 157.248C102.684 156.363 102.716 155.477 102.738 154.592C102.759 153.707 102.77 152.832 102.77 151.968C102.759 151.179 102.743 150.4 102.722 149.632C102.711 148.853 102.684 148.101 102.642 147.376L105.33 147.296C105.34 147.691 105.356 148.096 105.378 148.512C105.719 148.085 106.114 147.744 106.562 147.488C107.02 147.221 107.543 147.088 108.13 147.088C108.354 147.088 108.642 147.12 108.994 147.184C109.346 147.248 109.703 147.371 110.066 147.552L109.762 150.256C109.495 150.096 109.207 149.984 108.898 149.92C108.599 149.845 108.348 149.808 108.146 149.808C107.463 149.808 106.882 150.117 106.402 150.736C105.932 151.344 105.612 152.192 105.442 153.28C105.442 154.027 105.431 154.741 105.41 155.424C105.399 156.096 105.372 156.704 105.33 157.248H102.642ZM114.753 157.264C114.198 157.264 113.654 157.168 113.121 156.976C112.598 156.784 112.124 156.485 111.697 156.08C111.281 155.685 110.95 155.189 110.705 154.592C110.46 153.984 110.337 153.275 110.337 152.464C110.337 151.547 110.476 150.757 110.753 150.096C111.041 149.424 111.42 148.875 111.889 148.448C112.358 148.011 112.881 147.685 113.457 147.472C114.033 147.259 114.609 147.152 115.185 147.152C115.526 147.152 115.852 147.179 116.161 147.232C116.47 147.275 116.758 147.339 117.025 147.424C117.057 146.645 117.094 145.861 117.137 145.072C117.19 144.283 117.249 143.504 117.313 142.736L120.001 142.912C119.916 143.797 119.841 144.752 119.777 145.776C119.713 146.789 119.665 147.824 119.633 148.88C119.612 149.936 119.601 150.965 119.601 151.968C119.601 152.907 119.612 153.803 119.633 154.656C119.665 155.499 119.702 156.267 119.745 156.96L116.977 157.168C116.966 156.965 116.961 156.768 116.961 156.576C116.652 156.779 116.31 156.944 115.937 157.072C115.574 157.2 115.18 157.264 114.753 157.264ZM112.913 152.32C112.913 152.875 113.02 153.312 113.233 153.632C113.446 153.941 113.708 154.16 114.017 154.288C114.326 154.416 114.625 154.48 114.913 154.48C115.254 154.48 115.596 154.405 115.937 154.256C116.278 154.107 116.598 153.845 116.897 153.472C116.897 153.344 116.897 153.221 116.897 153.104C116.897 152.24 116.908 151.355 116.929 150.448C116.428 150.011 115.884 149.792 115.297 149.792C115.052 149.792 114.79 149.829 114.513 149.904C114.236 149.979 113.974 150.112 113.729 150.304C113.494 150.485 113.297 150.741 113.137 151.072C112.988 151.392 112.913 151.808 112.913 152.32ZM125.988 157.328C125.262 157.328 124.59 157.243 123.972 157.072C123.353 156.901 122.793 156.683 122.292 156.416C121.79 156.149 121.342 155.867 120.948 155.568L122.388 153.248C122.836 153.664 123.268 153.984 123.684 154.208C124.1 154.432 124.532 154.587 124.98 154.672C125.438 154.757 125.934 154.8 126.468 154.8C126.926 154.8 127.294 154.741 127.572 154.624C127.849 154.496 127.988 154.336 127.988 154.144C127.988 153.984 127.854 153.861 127.588 153.776C127.321 153.68 126.98 153.6 126.564 153.536C126.148 153.461 125.71 153.371 125.252 153.264C124.601 153.093 123.993 152.896 123.428 152.672C122.862 152.448 122.404 152.144 122.052 151.76C121.71 151.376 121.54 150.864 121.54 150.224C121.54 149.712 121.662 149.264 121.908 148.88C122.153 148.485 122.478 148.16 122.884 147.904C123.3 147.637 123.769 147.44 124.292 147.312C124.814 147.184 125.353 147.12 125.908 147.12C126.868 147.12 127.694 147.237 128.388 147.472C129.092 147.696 129.764 147.995 130.404 148.368L128.948 150.576C128.628 150.352 128.26 150.16 127.844 150C127.438 149.829 127.028 149.701 126.612 149.616C126.206 149.52 125.828 149.472 125.476 149.472C125.092 149.472 124.788 149.531 124.564 149.648C124.35 149.765 124.244 149.931 124.244 150.144C124.244 150.272 124.377 150.395 124.644 150.512C124.921 150.619 125.444 150.763 126.212 150.944C126.67 151.051 127.156 151.163 127.668 151.28C128.18 151.387 128.66 151.541 129.108 151.744C129.566 151.936 129.934 152.219 130.212 152.592C130.5 152.955 130.644 153.44 130.644 154.048C130.644 155.072 130.233 155.872 129.412 156.448C128.59 157.035 127.449 157.328 125.988 157.328ZM136.366 157.216C136.259 156.8 136.142 156.373 136.014 155.936C135.896 155.499 135.79 155.115 135.694 154.784C136.878 154.123 137.907 153.408 138.782 152.64C139.667 151.872 140.392 151.109 140.958 150.352C141.534 149.595 141.96 148.907 142.238 148.288C142.526 147.669 142.67 147.184 142.67 146.832C142.67 146.427 142.531 146.112 142.254 145.888C141.987 145.653 141.624 145.536 141.166 145.536C140.536 145.536 139.896 145.76 139.246 146.208C138.606 146.656 138.008 147.291 137.454 148.112L135.774 146.096C136.254 145.52 136.76 145.003 137.294 144.544C137.838 144.085 138.419 143.723 139.038 143.456C139.656 143.179 140.318 143.04 141.022 143.04C141.79 143.04 142.494 143.173 143.134 143.44C143.774 143.707 144.286 144.107 144.67 144.64C145.054 145.173 145.246 145.835 145.246 146.624C145.246 147.371 145.054 148.181 144.67 149.056C144.286 149.92 143.752 150.789 143.07 151.664C142.387 152.528 141.608 153.333 140.734 154.08C141.086 154.069 141.443 154.064 141.806 154.064C142.51 154.064 143.155 154.107 143.742 154.192C144.328 154.267 144.936 154.384 145.566 154.544L145.038 157.008C144.515 156.88 143.96 156.773 143.374 156.688C142.787 156.603 142.115 156.56 141.358 156.56C140.462 156.56 139.571 156.608 138.686 156.704C137.8 156.811 137.027 156.981 136.366 157.216ZM152.387 157.248C151.577 157.248 150.851 157.056 150.211 156.672C149.571 156.299 149.027 155.787 148.579 155.136C148.142 154.485 147.806 153.749 147.571 152.928C147.337 152.107 147.219 151.253 147.219 150.368C147.219 149.312 147.363 148.32 147.651 147.392C147.95 146.453 148.377 145.616 148.931 144.88C149.486 144.144 150.153 143.536 150.931 143.056L151.155 143.536C151.678 143.269 152.243 143.136 152.851 143.136C153.726 143.136 154.489 143.328 155.139 143.712C155.801 144.085 156.345 144.597 156.771 145.248C157.209 145.888 157.534 146.608 157.747 147.408C157.971 148.208 158.083 149.035 158.083 149.888C158.083 151.157 157.918 152.256 157.587 153.184C157.267 154.112 156.835 154.875 156.291 155.472C155.747 156.069 155.134 156.512 154.451 156.8C153.779 157.099 153.091 157.248 152.387 157.248ZM149.843 150.512C149.843 150.896 149.881 151.328 149.955 151.808C150.041 152.288 150.185 152.747 150.387 153.184C150.59 153.611 150.862 153.968 151.203 154.256C151.555 154.533 152.003 154.672 152.547 154.672C153.134 154.672 153.646 154.475 154.083 154.08C154.521 153.675 154.862 153.115 155.107 152.4C155.363 151.685 155.491 150.859 155.491 149.92C155.491 148.981 155.347 148.213 155.059 147.616C154.782 147.008 154.43 146.56 154.003 146.272C153.587 145.973 153.166 145.824 152.739 145.824C152.515 145.824 152.302 145.888 152.099 146.016C151.897 146.144 151.737 146.315 151.619 146.528L151.395 146.048C150.894 146.549 150.537 147.056 150.323 147.568C150.11 148.08 149.977 148.587 149.923 149.088C149.87 149.579 149.843 150.053 149.843 150.512ZM160.366 157.216C160.259 156.8 160.142 156.373 160.014 155.936C159.896 155.499 159.79 155.115 159.694 154.784C160.878 154.123 161.907 153.408 162.782 152.64C163.667 151.872 164.392 151.109 164.958 150.352C165.534 149.595 165.96 148.907 166.238 148.288C166.526 147.669 166.67 147.184 166.67 146.832C166.67 146.427 166.531 146.112 166.254 145.888C165.987 145.653 165.624 145.536 165.166 145.536C164.536 145.536 163.896 145.76 163.246 146.208C162.606 146.656 162.008 147.291 161.454 148.112L159.774 146.096C160.254 145.52 160.76 145.003 161.294 144.544C161.838 144.085 162.419 143.723 163.038 143.456C163.656 143.179 164.318 143.04 165.022 143.04C165.79 143.04 166.494 143.173 167.134 143.44C167.774 143.707 168.286 144.107 168.67 144.64C169.054 145.173 169.246 145.835 169.246 146.624C169.246 147.371 169.054 148.181 168.67 149.056C168.286 149.92 167.752 150.789 167.07 151.664C166.387 152.528 165.608 153.333 164.734 154.08C165.086 154.069 165.443 154.064 165.806 154.064C166.51 154.064 167.155 154.107 167.742 154.192C168.328 154.267 168.936 154.384 169.566 154.544L169.038 157.008C168.515 156.88 167.96 156.773 167.374 156.688C166.787 156.603 166.115 156.56 165.358 156.56C164.462 156.56 163.571 156.608 162.686 156.704C161.8 156.811 161.027 156.981 160.366 157.216ZM174.947 151.552L172.323 151.392C172.377 150.795 172.446 150.149 172.531 149.456C172.617 148.752 172.702 148.037 172.787 147.312C172.883 146.576 172.979 145.856 173.075 145.152C173.171 144.448 173.262 143.797 173.347 143.2L175.987 143.264C175.966 143.371 175.945 143.488 175.923 143.616C176.435 143.584 176.979 143.557 177.555 143.536C178.131 143.504 178.691 143.483 179.235 143.472C179.779 143.461 180.254 143.456 180.659 143.456C180.862 143.456 181.043 143.461 181.203 143.472C181.363 143.472 181.491 143.472 181.587 143.472L181.459 146.096C181.257 146.085 181.049 146.08 180.835 146.08C180.622 146.08 180.393 146.08 180.147 146.08C179.422 146.08 178.659 146.096 177.859 146.128C177.059 146.16 176.286 146.208 175.539 146.272C175.497 146.613 175.454 146.96 175.411 147.312C175.379 147.664 175.342 148.011 175.299 148.352C175.683 148.16 176.073 148.032 176.467 147.968C176.873 147.904 177.257 147.872 177.619 147.872C178.494 147.872 179.257 148.053 179.907 148.416C180.569 148.768 181.081 149.264 181.443 149.904C181.806 150.544 181.987 151.291 181.987 152.144C181.987 153.2 181.774 154.112 181.347 154.88C180.931 155.637 180.329 156.219 179.539 156.624C178.761 157.04 177.827 157.248 176.739 157.248C175.737 157.248 174.771 157.019 173.843 156.56C172.926 156.112 172.179 155.493 171.603 154.704L173.379 152.768C174.435 154.016 175.561 154.64 176.755 154.64C177.609 154.64 178.259 154.427 178.707 154C179.155 153.573 179.379 152.971 179.379 152.192C179.379 151.573 179.198 151.099 178.835 150.768C178.473 150.437 177.95 150.272 177.267 150.272C176.691 150.272 176.243 150.357 175.923 150.528C175.603 150.699 175.369 150.885 175.219 151.088C175.081 151.291 174.99 151.445 174.947 151.552Z" fill="white"/>
</svg>
