<svg width="248" height="236" viewBox="0 0 248 236" fill="none" xmlns="http://www.w3.org/2000/svg">
<path d="M103.252 10.43C102.575 10.6721 100.366 11.312 98.3529 11.8827C89.0712 14.4766 86.1317 16.4999 84.2967 21.5322L83.8335 22.8119L79.7004 25.475C77.4201 26.9277 75.5495 28.1036 75.5495 28.0517C75.5495 28.0171 75.8702 27.481 76.2799 26.8931C77.2776 25.3886 78.2752 23.2961 79.0056 21.1864C79.647 19.3014 81.4998 12.4015 81.3751 12.2977C81.3394 12.2631 80.4487 12.7473 79.3976 13.3526C71.4342 18.0044 66.3925 22.8465 64.3259 27.8615C63.2036 30.5592 62.9898 32.8073 63.6133 35.1246L63.9874 36.4735L63.2214 37.1133C61.4577 38.5659 58.3044 41.4712 56.7188 43.0967C55.3114 44.5494 55.0977 44.7223 55.3827 44.1343C56.3982 42.111 57.378 38.5659 57.7343 35.6607C58.055 32.8592 57.8768 27.948 57.2889 23.6939L57.182 22.9503L55.1689 25.4232C51.98 29.3487 50.5726 31.1991 49.1474 33.3261C46.5464 37.1998 45.7803 39.1539 45.2459 43.2524C44.7649 47.0396 45.5665 52.4177 46.7602 53.3688C47.0274 53.5764 47.1343 53.5591 47.5797 53.2478C47.8647 53.0403 48.1497 52.8673 48.2032 52.8673C48.2566 52.8673 47.7044 53.6628 46.9739 54.6312C45.6022 56.4989 42.5736 61.1334 41.4512 63.1049C41.0771 63.762 40.7564 64.2808 40.7386 64.2808C40.703 64.2808 40.7564 63.8658 40.8633 63.3643C40.9524 62.8801 41.0415 61.0643 41.0415 59.3523C41.0415 54.8215 40.7386 53.3343 37.9595 44.7742C37.229 42.5606 36.5877 40.814 36.5342 40.8832C36.4095 41.0216 34.7705 45.9155 33.4344 50.1004C32.5614 52.85 31.4391 57.1214 31.0828 59.0929C30.8868 60.1477 30.7621 61.6695 30.7621 63.3297C30.7621 66.2176 31.065 67.8259 32.1161 70.2296C32.7218 71.5958 34.9309 75.5732 35.1268 75.6597C35.1981 75.6943 35.0556 76.2303 34.8062 76.8702C34.0401 78.7897 32.3299 83.822 31.9735 85.1536C31.7954 85.8453 31.5994 86.416 31.5282 86.416C31.4569 86.416 31.35 86.0528 31.2788 85.5859C31.1006 84.3581 29.4972 79.8619 28.4283 77.5619C27.9117 76.4379 27.11 75.0371 26.6646 74.4146C26.2192 73.792 24.9366 71.8206 23.8142 70.0394C21.231 65.8718 20.8569 65.7334 20.8569 68.8635C20.8569 69.6244 20.7678 71.4574 20.6787 72.9274C19.8414 85.2746 20.3224 90.134 22.7809 94.8031C23.7964 96.7054 25.5066 98.4693 27.4307 99.5587C28.7312 100.302 28.7312 100.32 28.6243 100.942C28.3571 102.55 27.9651 107.375 27.8582 110.315L27.7513 113.566L26.8784 111.975C25.7204 109.9 23.6004 106.58 22.2286 104.747C20.2333 102.049 19.0397 100.769 17.0444 99.2129C15.9577 98.3655 14.5147 97.2415 13.8555 96.7227C12.0918 95.3219 11.7533 95.4257 12.1987 97.1896C12.3412 97.7776 12.8757 100.441 13.3745 103.104C14.7463 110.54 15.6548 113.756 17.4007 117.353C19.5742 121.832 23.1016 125.343 27.6445 127.591L28.6599 128.075L28.8559 129.51C29.2835 132.398 30.2098 137.016 30.8334 139.402C31.0115 140.077 31.1362 140.647 31.1184 140.664C31.0828 140.699 30.7977 140.353 30.4771 139.921C29.4438 138.52 27.4129 136.67 25.667 135.528C24.7406 134.923 22.7809 133.609 21.3023 132.589C17.0801 129.683 10.4528 125.498 10.0787 125.498C9.81146 125.498 10.1678 126.328 12.0384 130.15C14.8888 135.995 18.0064 141.927 19.3426 144.089C22.5671 149.328 27.2347 152.96 33.2919 154.983C34.3073 155.312 35.4297 155.588 35.7682 155.588C36.3561 155.588 36.4095 155.64 36.8549 156.678C37.5319 158.252 41.3443 165.515 42.2173 166.881C43.0011 168.126 42.9655 168.143 41.7541 167.244C39.8122 165.809 35.9285 163.716 32.704 162.35C30.2989 161.33 28.5708 160.776 25.5957 160.085C24.3308 159.791 22.1752 159.151 20.8212 158.701C17.1691 157.439 17.0266 157.681 19.5742 160.707C20.5184 161.849 22.1218 163.82 23.1016 165.1C25.4176 168.091 27.4485 170.27 29.9782 172.484C35.0378 176.911 37.2468 178.225 41.665 179.453C45.2993 180.473 47.1877 180.646 50.145 180.3L51.7306 180.11L52.1938 180.698C53.9753 182.912 58.2331 187.2 61.9209 190.503L63.3461 191.783L60.6382 190.451C57.5918 188.964 57.1286 188.843 51.2318 188.03C42.5914 186.837 33.47 186.111 32.3833 186.509C32.1161 186.63 32.1517 186.716 32.7396 187.252C34.0045 188.428 41.5937 193.789 44.4442 195.536C46.7067 196.919 48.8623 197.939 51.6771 198.96C56.701 200.775 58.732 201.139 63.0967 201.017C66.6953 200.914 67.8711 200.706 70.7394 199.599L72.806 198.804L75.2644 200.291C77.9367 201.917 82.2658 204.269 84.1008 205.099C87.0937 206.447 87.4322 206.62 86.7731 206.517C86.4346 206.465 84.2789 206.378 81.9986 206.309C76.3334 206.171 74.9972 206.326 65.9293 208.056C63.2392 208.575 59.5336 209.249 57.6987 209.578C53.7615 210.252 53.5121 210.442 55.7568 211.065C56.5229 211.272 59.3555 212.12 62.0278 212.932C71.1848 215.699 72.9663 216.011 79.2907 216.028C83.3525 216.028 84.0473 215.993 85.7576 215.63C89.8551 214.8 92.6343 213.52 95.1284 211.341C96.2329 210.373 96.7139 210.044 96.999 210.114C97.1949 210.148 98.5845 210.511 100.063 210.909C101.542 211.307 104.054 211.895 105.639 212.206C107.207 212.517 108.543 212.811 108.597 212.863C108.632 212.898 108.258 213.036 107.742 213.157C105.372 213.745 98.9408 216.668 89.4453 221.458C84.0651 224.173 82.4262 225.124 82.729 225.314C83.2813 225.66 92.4561 225.314 97.7294 224.744C104.232 224.052 112.587 221.233 116.008 218.57C117.273 217.584 118.591 216.305 119.927 214.783L120.568 214.039H124.221H127.891L130.438 216.408C134.838 220.489 135.533 220.853 143.425 223.17C147.95 224.501 149.304 224.709 158.052 225.297C165.908 225.833 166.407 225.833 166.407 225.262C166.407 224.83 161.686 222.357 158.746 221.25C157.82 220.905 156.288 220.144 155.362 219.556C152.939 218.034 150.926 216.979 148.503 215.941C146.294 215.008 140.361 213.002 139.827 213.002C139.649 213.002 139.506 212.95 139.506 212.863C139.506 212.794 140.326 212.587 141.341 212.414C143.497 212.033 147.933 210.961 150.516 210.2C151.513 209.906 152.351 209.699 152.386 209.733C152.404 209.768 152.547 210.027 152.689 210.321C153.58 211.999 159.548 214.99 163.557 215.751C166.674 216.356 173.319 216.305 176.74 215.682C179.822 215.094 190.742 211.86 192.417 211.013C193.148 210.65 193.112 210.148 192.381 209.906C191.455 209.629 185.22 208.402 180.837 207.658C173.711 206.43 171.627 206.188 168.01 206.188C164.821 206.188 164.038 206.275 159.851 207.035C159.584 207.087 159.78 206.949 160.261 206.741C164.501 204.943 171.057 201.432 175.261 198.683C177.345 197.317 177.417 197.299 177.203 197.836C176.775 198.839 177.274 199.444 179.091 200.101C181.158 200.862 183.135 201.139 186.36 201.139C189.585 201.139 190.867 200.948 194.288 199.945C197.405 199.029 199.81 197.974 202.768 196.227C207.703 193.322 214.508 188.791 215.559 187.684C216.093 187.131 215.951 186.768 215.131 186.612C214.08 186.422 202.501 187.269 198.207 187.857C192.952 188.566 188.159 190.036 184.578 192.06L183.599 192.613L184.578 191.783C188.444 188.515 192.275 184.727 195.695 180.802C196.657 179.695 196.728 179.643 197.103 179.868C198.759 180.871 203.338 180.542 208.077 179.072C210.428 178.346 211.907 177.585 214.419 175.839C220.298 171.757 222.543 169.561 226.052 164.477C227.531 162.333 228.724 160.949 230.061 159.894C231.308 158.891 231.628 158.425 231.236 158.165C230.898 157.94 230.15 158.079 227.424 158.874C226.159 159.237 223.95 159.825 222.525 160.188C219.87 160.846 217.911 161.503 215.577 162.558C212.37 163.993 208.094 166.552 205.44 168.627C203.997 169.751 203.961 169.769 204.371 169.129C206.562 165.688 210.001 159.341 211.212 156.488C211.479 155.865 211.729 155.537 211.871 155.588C213.207 156.038 218.196 154.188 221.848 151.87C224.021 150.47 227.121 147.582 228.279 145.818C230.47 142.48 236.652 130.531 237.775 127.453C238.291 126.035 238.024 126.017 235.868 127.262C233.356 128.732 225.536 133.782 223.237 135.442C221.117 136.981 218.516 139.419 217.305 141.045C216.842 141.65 216.468 142.1 216.468 142.065C216.468 142.013 216.699 141.097 217.002 140.007C217.643 137.569 218.481 133.592 218.962 130.513C219.176 129.234 219.354 128.179 219.371 128.179C219.389 128.162 219.728 128.058 220.138 127.954C221.171 127.66 224.591 125.637 225.892 124.547C228.137 122.628 229.74 120.553 231.272 117.544C232.982 114.206 234.069 110.54 235.174 104.366C235.565 102.153 236.153 99.3512 236.456 98.158C237.222 95.1144 237.026 94.7858 235.227 96.2385C232.929 98.1234 226.48 104.885 224.306 107.704C222.988 109.416 221.741 111.543 220.921 113.445L220.262 114.95L220.155 111.197C220.048 107.911 219.728 103.675 219.389 101.081C219.282 100.32 219.3 100.285 219.639 100.372C220.334 100.544 221.67 99.7144 223.433 98.0197C224.93 96.567 225.251 96.152 225.945 94.7167C227.353 91.846 228.083 89.0445 228.404 85.2573C228.707 81.6085 228.618 78.6168 227.958 70.5063C227.531 65.3011 227.816 65.4567 225.482 69.1402C221.741 75.0717 218.908 80.2769 218.053 82.8709C217.732 83.8739 217.643 84.6002 217.572 87.1596C217.537 88.8543 217.465 90.2205 217.43 90.1859C217.394 90.1513 217.091 89.0272 216.735 87.713C215.933 84.6867 214.259 79.5852 213.101 76.68C212.513 75.1927 212.334 74.5529 212.53 74.7258C213.332 75.4349 214.241 74.7258 215.488 72.374C216.414 70.6274 217.554 67.4281 218 65.3184C218.516 62.7936 218.142 60.0786 216.361 53.6455C215.452 50.3598 213.029 43.114 212.726 42.7509C212.139 42.0591 211.283 43.5982 209.342 48.8035C208.469 51.1726 208.255 52.4523 208.059 57.035C207.916 60.1823 207.899 62.1192 208.041 63.6928C208.13 64.9206 208.201 65.9409 208.184 65.9755C208.148 66.0101 207.685 65.2146 207.15 64.2289C205.102 60.5282 202.055 55.9109 199.383 52.4523C197.975 50.6192 197.922 50.2907 199.276 51.6568C199.668 52.0546 200.381 52.6598 200.862 53.0057L201.734 53.6282L202.144 53.1613C202.999 52.1929 203.516 49.3741 203.516 45.6907C203.516 39.69 201.948 35.9028 196.8 29.4352C195.784 28.1555 191.705 23.2961 191.134 22.6909C190.974 22.5179 191.063 26.3743 191.366 33.8622C191.526 38.1336 191.776 40.105 192.328 41.7133C192.667 42.6817 193.931 45.293 194.644 46.4689C194.911 46.9012 195 47.0914 194.84 46.9185C192.898 44.6012 187.732 39.5689 184.881 37.1652C184.276 36.6637 184.222 36.5772 184.472 36.3351C184.97 35.8682 185.184 34.6577 185.184 32.4615C185.184 29.954 184.953 28.8645 184.097 27.1871C182.548 24.1608 178.913 20.0969 175.172 17.2089C172.945 15.4969 168.58 12.7473 168.064 12.7473C167.529 12.7473 168.046 15.5142 169.525 20.339C170.665 24.0743 171.413 25.5096 173.693 28.3803C174.495 29.3833 174.566 29.5389 174.139 29.2622C173.854 29.0893 172.5 28.3457 171.128 27.6021C168.01 25.942 165.481 24.5239 165.267 24.3337C165.178 24.2472 165.035 23.6939 164.946 23.0886C164.608 20.7021 162.594 17.7969 159.94 15.8428C157.446 14.0097 155.094 13.1105 146.472 10.6548C143.728 9.87666 143.247 9.82478 143.247 10.3263C143.247 11.0872 148.039 17.2781 151.032 20.3563C153.491 22.8984 156.876 24.7314 160.421 25.475C161.561 25.6999 161.953 25.9247 165.374 28.2592C167.405 29.6427 169.061 30.8186 169.026 30.8532C168.99 30.8705 168.046 30.8359 166.941 30.7494C164.501 30.5592 162.345 30.7322 159.495 31.3547C156.911 31.9081 153.295 32.963 151.175 33.7584C146.632 35.4705 147.149 35.7472 156.876 36.7847C159.619 37.0787 161.989 37.3554 162.131 37.39C162.274 37.4419 163.877 37.5456 165.677 37.6494C169.311 37.8569 174.905 37.6321 176.918 37.2344L178.076 36.9923L180.125 38.6178C181.247 39.4998 182.69 40.693 183.331 41.2464L184.489 42.284L182.886 41.8689C179.661 41.0388 177.737 40.8486 172.464 40.8659C167.137 40.8832 166.015 41.0216 165.908 41.7306C165.837 42.2494 166.282 42.5434 168.723 43.5809C169.952 44.0997 172.749 45.3621 174.958 46.3824C178.913 48.2155 182.833 49.7892 184.792 50.3425C186.289 50.7576 189.602 51.2764 191.669 51.4147L193.522 51.5358L195.392 53.9049C196.408 55.2192 197.744 56.9831 198.35 57.8132C199.294 59.1447 199.383 59.3004 198.92 59.0064C194.983 56.4816 186.307 53.4207 182.156 53.0921C180.802 52.9884 180.499 53.1267 180.819 53.7147C181.176 54.3373 193.807 64.7131 196.354 66.4597C200.006 68.9845 204.246 71.3364 205.85 71.7341L206.651 71.9244L207.489 73.7747C208.344 75.6424 210.589 81.2972 210.589 81.5739C210.589 81.6604 209.68 80.8303 208.593 79.7235C206.081 77.2333 204.068 75.7461 200.683 73.8612C195.659 71.0597 192.417 69.6935 192.417 70.368C192.417 70.7311 193.29 71.9589 194.573 73.3597C196.711 75.7461 199.312 79.4814 201.574 83.4589C202.144 84.4446 202.892 85.6551 203.267 86.1393C205.404 88.9408 209.431 92.728 212.406 94.7513C213.279 95.3565 214.116 95.9099 214.259 96.0137C214.65 96.2731 215.417 101.496 215.915 107.168C215.987 108.067 216.04 108.828 216.022 108.862C216.004 108.88 215.719 108.188 215.399 107.306C214.633 105.127 213.475 103 212.281 101.547C211.034 100.043 201.164 90.134 200.897 90.134C200.523 90.134 200.755 91.2062 202.02 95.4084C204.656 104.107 206.384 108.69 208.629 112.961C210.41 116.385 212.584 119.498 214.864 121.919L215.808 122.922L215.684 124.34C215.399 127.47 214.205 135.01 213.973 135.01C213.902 135.01 213.795 134.525 213.742 133.92C213.403 130.41 211.372 125.965 206.527 118.149C204.514 114.88 203.498 113.532 203.142 113.601C202.696 113.687 202.679 115.209 203.017 120.743C203.623 130.894 204.157 136.514 204.745 138.728C205.547 141.875 207.845 146.821 209.359 148.688L209.858 149.311L208.825 151.801C207.15 155.813 203.997 162.194 203.997 161.555C203.997 161.451 204.086 160.258 204.175 158.891C204.531 153.755 203.498 146.821 201.485 140.976C200.701 138.676 200.078 137.604 199.543 137.604C199.062 137.604 198.884 138.019 198.742 139.592C198.581 141.373 197.975 144.434 196.782 149.536C194.822 157.871 194.466 160.258 194.608 164.373C194.715 167.469 194.911 168.524 196.016 171.619L196.586 173.21L195.054 175.164C193.468 177.188 190.101 181.061 189.727 181.286C189.567 181.372 189.549 181.286 189.638 180.992C189.87 180.162 190.457 176.565 190.636 174.801C190.903 172.19 190.849 166.379 190.547 162.592C190.386 160.794 190.244 159.22 190.208 159.134C190.172 159.03 189.531 160.171 188.765 161.641C186.681 165.688 183.955 170.495 182.583 172.588C179.109 177.897 178.307 180.802 177.88 189.569L177.773 192.008L176.668 192.786C174.246 194.55 168.723 198.129 168.456 198.129C168.402 198.129 168.687 197.628 169.079 197.023C171.039 194.031 172.999 189.137 173.961 184.848C174.353 183.136 175.136 178.191 175.029 178.087C174.905 177.948 165.356 187.252 162.612 190.175C157.375 195.778 155.076 199.617 154.56 203.681L154.435 204.649L152.012 205.444C150.053 206.084 145.189 207.468 144.904 207.468C144.868 207.468 145.634 206.69 146.614 205.738C150.32 202.142 153.847 196.902 154.702 193.72C155.29 191.472 155.54 191.558 152.565 193.011C150.213 194.135 148.004 195.051 143.336 196.781C142.552 197.075 140.949 197.784 139.773 198.372C137.849 199.323 137.457 199.599 135.836 201.156C132.879 204.026 130.402 207.589 130.349 209.024L130.331 209.664L129.013 209.785C127.018 209.941 119.446 209.906 118.983 209.733C118.698 209.629 118.448 209.249 118.146 208.488C117.576 207.001 116.471 204.857 115.776 203.871C114.85 202.539 112.801 200.672 111.126 199.617C109.309 198.458 107.171 197.455 104.054 196.314C99.8672 194.792 95.9301 193.045 93.9169 191.869L93.329 191.506L93.4537 192.094C94.3623 196.054 97.6759 201.087 102.539 205.877C103.626 206.949 104.392 207.779 104.25 207.744C104.089 207.693 102.842 207.381 101.471 207.035C100.099 206.69 97.8897 206.067 96.5536 205.635L94.1307 204.874L94.006 203.784C93.5072 199.478 92.0998 196.884 87.3788 191.731C85.6863 189.898 73.7502 177.862 73.6789 177.931C73.5186 178.069 74.5518 183.534 75.1932 185.972C76.6362 191.541 78.2752 195.397 80.4843 198.441C80.7337 198.787 80.6268 198.752 79.6292 198.199C78.1149 197.351 73.8392 194.619 72.1112 193.374C71.1135 192.665 70.7394 192.302 70.8285 192.111C70.8819 191.973 71.0244 191.247 71.1135 190.538C71.6123 187.166 70.5434 181.874 68.3343 176.755C67.4436 174.697 66.8201 173.573 65.0207 170.685C63.8449 168.818 60.9767 163.647 59.5871 160.897C59.213 160.171 58.821 159.566 58.6963 159.566C58.3757 159.566 58.2688 161.9 58.2688 168.991C58.2688 177.654 58.3935 178.969 59.6227 182.566C59.8009 183.067 55.8993 178.83 53.4052 175.77L51.8731 173.919L52.3185 172.933C53.2627 170.858 54.1713 165.912 54.1713 162.8C54.1713 159.808 53.5299 156.021 51.6059 147.685C50.4301 142.584 49.7709 139.195 49.6818 137.777C49.6462 137.189 49.5571 136.981 49.3077 136.946C49.0761 136.895 48.8267 137.223 48.3101 138.33C47.1699 140.699 45.8872 145.489 44.7827 151.438C44.1591 154.862 44.1235 158.563 44.6936 161.641C44.9074 162.73 45.0321 163.647 45.0143 163.682C44.9786 163.699 44.0344 161.952 42.9121 159.791C41.1127 156.315 39.1709 152.078 38.4761 150.193L38.2623 149.57L39.349 148.395C41.2018 146.44 43.5356 141.408 44.1057 138.157C44.8361 133.989 46.2079 115.434 45.8694 114.396C45.7269 113.947 45.4062 114.016 44.8005 114.638C42.7874 116.731 37.2825 126.259 36.1067 129.666C35.4831 131.482 34.9487 134.266 34.8062 136.341C34.7527 137.327 34.6636 138.105 34.628 138.071C34.343 137.777 32.8465 129.372 32.4189 125.637L32.2051 123.769L32.6683 123.423C33.9688 122.42 39.7053 114.396 41.0058 111.75C42.5201 108.672 48.1497 91.2926 47.9003 90.5317C47.7934 90.2551 45.3349 92.434 41.7897 95.9445C35.5366 102.101 34.1648 104.245 32.0983 110.972C31.5994 112.563 32.2408 104.193 33.0068 99.161L33.3809 96.6016L34.1114 96.2385C35.3584 95.6332 38.1198 93.5407 39.8835 91.8806C43.1793 88.7851 45.4953 85.9145 49.86 79.4987C51.3743 77.2679 53.3874 74.4146 54.3494 73.1695C55.3114 71.9244 56.1844 70.7311 56.2913 70.5409C56.5763 70.0394 56.5407 69.6417 56.22 69.6417C55.4896 69.6417 48.8267 73.2732 44.5511 76.0228C42.4311 77.3717 39.545 79.9138 38.1198 81.6777C37.6922 82.2138 37.1934 82.819 37.0331 83.0265C36.463 83.701 39.6341 75.3657 40.8633 72.9274C41.2196 72.2529 41.3443 72.1319 42.1282 71.9416C43.2684 71.665 46.2613 70.2642 48.6486 68.8635C52.5145 66.5981 56.1488 63.9522 59.7831 60.753C60.9589 59.7154 62.8829 58.0899 64.0587 57.1387C67.1764 54.6312 67.9246 53.9222 67.8533 53.4899C67.7821 52.9711 67.016 52.9538 64.7713 53.3861C58.9814 54.5275 53.815 56.5508 49.5571 59.3696C48.6486 59.9748 47.8647 60.4763 47.8291 60.4763C47.544 60.4763 53.5477 52.435 54.2782 51.8125C54.5454 51.5876 55.1689 51.5012 56.9326 51.432C62.0634 51.2072 66.4994 49.9102 73.0554 46.7283C74.6765 45.9501 77.2419 44.7742 78.7562 44.1343C80.2705 43.4945 81.7848 42.7682 82.1055 42.5434C83.7623 41.3328 81.8026 40.7622 75.9949 40.7622C70.9175 40.7622 66.4103 41.3674 63.453 42.4569C63.061 42.5952 66.25 39.8629 68.459 38.1509C69.6705 37.2171 70.3475 36.802 70.5434 36.8712C71.4876 37.2344 73.9996 37.6667 75.9949 37.8396C78.8631 38.0644 81.8382 37.8742 88.9109 37.0441C91.7079 36.6983 95.2709 36.3351 96.8386 36.2141C99.6356 35.9893 100.58 35.7644 100.437 35.3494C100.152 34.5021 94.2554 32.3231 89.8016 31.4239C86.3099 30.7322 81.3929 30.5592 78.7562 31.0607C78.3108 31.1472 77.9367 31.1991 77.9011 31.1818C77.8833 31.1472 79.4154 29.954 81.3038 28.5359L84.7421 25.9247L86.7018 25.7344C90.9774 25.3194 93.9526 23.7284 98.1926 19.63C100.58 17.3127 102.718 14.8571 104.054 12.8857C105.176 11.2601 105.426 10.603 105.105 10.2225C104.838 9.91124 104.749 9.92854 103.252 10.43Z" fill="white"/>
<path d="M72.6992 76.28C71.8032 76.28 70.9712 76.1467 70.2032 75.88C69.4352 75.6133 68.7419 75.2613 68.1232 74.824C67.5152 74.376 66.9819 73.896 66.5232 73.384L68.1232 70.84C68.2619 71.2027 68.4912 71.5493 68.8112 71.88C69.1419 72.2107 69.5259 72.504 69.9632 72.76C70.4005 73.016 70.8592 73.2187 71.3392 73.368C71.8299 73.5173 72.3099 73.592 72.7792 73.592C73.4832 73.592 74.0432 73.48 74.4592 73.256C74.8752 73.0213 75.0832 72.712 75.0832 72.328C75.0832 72.0293 74.9872 71.784 74.7952 71.592C74.6139 71.3893 74.4005 71.2293 74.1552 71.112C73.9205 70.984 73.7179 70.872 73.5472 70.776C73.4192 70.712 73.1845 70.616 72.8432 70.488C72.5125 70.3493 72.1392 70.2 71.7232 70.04C71.3072 69.88 70.9125 69.7307 70.5392 69.592C70.1659 69.4427 69.8725 69.32 69.6592 69.224C68.0699 68.5093 67.2752 67.4053 67.2752 65.912C67.2752 65.432 67.3659 64.9627 67.5472 64.504C67.7392 64.0347 68.0272 63.608 68.4112 63.224C68.7952 62.84 69.2859 62.536 69.8832 62.312C70.4805 62.088 71.1952 61.976 72.0272 61.976C72.9339 61.976 73.7392 62.0773 74.4432 62.28C75.1472 62.472 75.7659 62.7173 76.2992 63.016C76.8432 63.3147 77.3072 63.6293 77.6912 63.96L76.2192 66.424C75.0352 65.2507 73.6965 64.664 72.2032 64.664C71.5739 64.664 71.0939 64.7333 70.7632 64.872C70.4432 65 70.2245 65.1493 70.1072 65.32C70.0005 65.48 69.9472 65.6133 69.9472 65.72C69.9472 65.9013 70.0112 66.0827 70.1392 66.264C70.2779 66.4453 70.5819 66.6373 71.0512 66.84C71.2432 66.9253 71.4992 67.032 71.8192 67.16C72.1499 67.2773 72.5125 67.4107 72.9072 67.56C73.3125 67.7093 73.7072 67.8693 74.0912 68.04C74.4859 68.2 74.8432 68.3653 75.1632 68.536C75.5472 68.7493 75.9419 69.0107 76.3472 69.32C76.7525 69.6293 77.0939 70.0133 77.3712 70.472C77.6592 70.92 77.8032 71.4693 77.8032 72.12C77.8032 72.5147 77.7285 72.952 77.5792 73.432C77.4299 73.9013 77.1685 74.3547 76.7952 74.792C76.4219 75.2293 75.9045 75.5867 75.2432 75.864C74.5819 76.1413 73.7339 76.28 72.6992 76.28ZM84.0922 76.28C83.0682 76.28 82.1669 76.0773 81.3882 75.672C80.6202 75.2773 80.0175 74.7227 79.5802 74.008C79.1535 73.2933 78.9402 72.4667 78.9402 71.528C78.9402 70.9627 79.0362 70.3707 79.2282 69.752C79.4202 69.1227 79.7295 68.536 80.1562 67.992C80.5829 67.448 81.1429 67.0053 81.8362 66.664C82.5402 66.3227 83.3935 66.152 84.3962 66.152C85.1215 66.152 85.7295 66.232 86.2202 66.392C86.7215 66.552 87.1269 66.76 87.4362 67.016C87.7562 67.272 87.9962 67.544 88.1562 67.832C88.3269 68.12 88.4389 68.3973 88.4922 68.664C88.5562 68.92 88.5882 69.1333 88.5882 69.304C88.5882 70.3387 88.1509 71.1387 87.2762 71.704C86.4122 72.2587 85.1855 72.536 83.5962 72.536C83.2335 72.536 82.8869 72.52 82.5562 72.488C82.2362 72.456 81.9375 72.4187 81.6602 72.376C81.8629 72.9093 82.1989 73.304 82.6682 73.56C83.1375 73.8053 83.6229 73.928 84.1242 73.928C84.8495 73.928 85.4895 73.8 86.0442 73.544C86.5989 73.2773 87.1215 72.872 87.6122 72.328L89.0362 74.376C88.6949 74.6533 88.3109 74.9413 87.8842 75.24C87.4682 75.5387 86.9562 75.784 86.3482 75.976C85.7402 76.1787 84.9882 76.28 84.0922 76.28ZM84.4442 68.552C83.8149 68.552 83.2602 68.712 82.7802 69.032C82.3002 69.352 81.9482 69.7733 81.7242 70.296C81.9909 70.3387 82.2522 70.376 82.5082 70.408C82.7749 70.4293 83.0362 70.44 83.2922 70.44C83.5269 70.44 83.7935 70.4187 84.0922 70.376C84.4015 70.3333 84.7002 70.2693 84.9882 70.184C85.2869 70.0987 85.5322 69.992 85.7242 69.864C85.9162 69.7253 86.0122 69.5653 86.0122 69.384C86.0122 69.2987 85.9695 69.192 85.8842 69.064C85.7989 68.936 85.6442 68.8187 85.4202 68.712C85.1962 68.6053 84.8709 68.552 84.4442 68.552ZM93.3958 76.264C92.8091 76.264 92.3238 76.136 91.9398 75.88C91.5665 75.6347 91.2678 75.2933 91.0438 74.856C90.8305 74.4187 90.6705 73.9173 90.5638 73.352C90.4678 72.7867 90.4038 72.184 90.3718 71.544C90.3505 70.8933 90.3398 70.2427 90.3398 69.592C90.3398 69.0267 90.3558 68.408 90.3878 67.736C90.4198 67.0533 90.4571 66.3653 90.4998 65.672C90.5531 64.968 90.6065 64.3067 90.6598 63.688C90.7238 63.0693 90.7825 62.5307 90.8358 62.072L93.7318 62.104C93.6465 62.648 93.5665 63.2667 93.4918 63.96C93.4171 64.6427 93.3531 65.336 93.2998 66.04C93.2571 66.744 93.2198 67.3947 93.1878 67.992C93.1665 68.5893 93.1558 69.064 93.1558 69.416C93.1558 70.3867 93.1718 71.1493 93.2038 71.704C93.2465 72.2587 93.3051 72.6533 93.3798 72.888C93.4651 73.112 93.5771 73.224 93.7158 73.224C93.8971 73.224 94.0945 73.112 94.3078 72.888C94.5211 72.6533 94.7291 72.392 94.9318 72.104L96.2918 74.808C95.9611 75.1707 95.5665 75.5013 95.1078 75.8C94.6491 76.1093 94.0785 76.264 93.3958 76.264ZM102.498 76.28C101.474 76.28 100.573 76.0773 99.7944 75.672C99.0264 75.2773 98.4238 74.7227 97.9864 74.008C97.5598 73.2933 97.3464 72.4667 97.3464 71.528C97.3464 70.9627 97.4424 70.3707 97.6344 69.752C97.8264 69.1227 98.1358 68.536 98.5624 67.992C98.9891 67.448 99.5491 67.0053 100.242 66.664C100.946 66.3227 101.8 66.152 102.802 66.152C103.528 66.152 104.136 66.232 104.626 66.392C105.128 66.552 105.533 66.76 105.842 67.016C106.162 67.272 106.402 67.544 106.562 67.832C106.733 68.12 106.845 68.3973 106.898 68.664C106.962 68.92 106.994 69.1333 106.994 69.304C106.994 70.3387 106.557 71.1387 105.682 71.704C104.818 72.2587 103.592 72.536 102.002 72.536C101.64 72.536 101.293 72.52 100.962 72.488C100.642 72.456 100.344 72.4187 100.066 72.376C100.269 72.9093 100.605 73.304 101.074 73.56C101.544 73.8053 102.029 73.928 102.53 73.928C103.256 73.928 103.896 73.8 104.45 73.544C105.005 73.2773 105.528 72.872 106.018 72.328L107.442 74.376C107.101 74.6533 106.717 74.9413 106.29 75.24C105.874 75.5387 105.362 75.784 104.754 75.976C104.146 76.1787 103.394 76.28 102.498 76.28ZM102.85 68.552C102.221 68.552 101.666 68.712 101.186 69.032C100.706 69.352 100.354 69.7733 100.13 70.296C100.397 70.3387 100.658 70.376 100.914 70.408C101.181 70.4293 101.442 70.44 101.698 70.44C101.933 70.44 102.2 70.4187 102.498 70.376C102.808 70.3333 103.106 70.2693 103.394 70.184C103.693 70.0987 103.938 69.992 104.13 69.864C104.322 69.7253 104.418 69.5653 104.418 69.384C104.418 69.2987 104.376 69.192 104.29 69.064C104.205 68.936 104.05 68.8187 103.826 68.712C103.602 68.6053 103.277 68.552 102.85 68.552ZM113.386 76.296C112.49 76.296 111.663 76.1093 110.906 75.736C110.149 75.3627 109.541 74.8293 109.082 74.136C108.623 73.432 108.394 72.5947 108.394 71.624C108.394 70.536 108.607 69.5813 109.034 68.76C109.461 67.9387 110.058 67.304 110.826 66.856C111.594 66.3973 112.49 66.168 113.514 66.168C114.495 66.168 115.327 66.3707 116.01 66.776C116.693 67.1707 117.301 67.8 117.834 68.664L115.61 70.2C115.311 69.72 115.007 69.3573 114.698 69.112C114.389 68.856 113.967 68.728 113.434 68.728C112.709 68.728 112.122 68.984 111.674 69.496C111.226 69.9973 111.002 70.6693 111.002 71.512C111.002 72.0027 111.119 72.4027 111.354 72.712C111.599 73.0213 111.898 73.2507 112.25 73.4C112.602 73.5493 112.933 73.624 113.242 73.624C113.562 73.624 113.871 73.5867 114.17 73.512C114.469 73.4267 114.751 73.2453 115.018 72.968C115.285 72.6907 115.525 72.2693 115.738 71.704L118.138 72.984C117.818 73.5707 117.461 74.1147 117.066 74.616C116.671 75.1173 116.181 75.5227 115.594 75.832C115.018 76.1413 114.282 76.296 113.386 76.296ZM123.998 76.264C123.358 76.264 122.851 76.1253 122.478 75.848C122.104 75.5813 121.832 75.208 121.662 74.728C121.491 74.248 121.379 73.6987 121.326 73.08C121.283 72.4613 121.262 71.8107 121.262 71.128C121.262 70.424 121.288 69.6933 121.342 68.936C120.627 69.032 119.939 69.1547 119.278 69.304L118.782 66.792C119.667 66.5573 120.611 66.3867 121.614 66.28C121.688 65.736 121.768 65.1653 121.854 64.568C121.939 63.96 122.035 63.32 122.142 62.648L124.894 62.888C124.766 63.4427 124.654 63.9973 124.558 64.552C124.462 65.096 124.376 65.624 124.302 66.136C124.899 66.136 125.459 66.152 125.982 66.184C126.515 66.2053 127.006 66.248 127.454 66.312L127.134 68.824C126.76 68.7813 126.371 68.7547 125.966 68.744C125.571 68.7227 125.171 68.712 124.766 68.712C124.52 68.712 124.275 68.7173 124.03 68.728C123.966 69.5067 123.923 70.1733 123.902 70.728C123.891 71.2827 123.886 71.6773 123.886 71.912C123.886 72.4987 123.918 72.92 123.982 73.176C124.056 73.432 124.174 73.56 124.334 73.56C124.515 73.56 124.718 73.5013 124.942 73.384C125.166 73.256 125.384 73.0853 125.598 72.872C125.822 72.6587 126.008 72.4293 126.158 72.184L127.39 74.76C126.334 75.7627 125.203 76.264 123.998 76.264ZM133.42 76.28C132.396 76.28 131.495 76.0773 130.716 75.672C129.948 75.2773 129.346 74.7227 128.908 74.008C128.482 73.2933 128.268 72.4667 128.268 71.528C128.268 70.9627 128.364 70.3707 128.556 69.752C128.748 69.1227 129.058 68.536 129.484 67.992C129.911 67.448 130.471 67.0053 131.164 66.664C131.868 66.3227 132.722 66.152 133.724 66.152C134.45 66.152 135.058 66.232 135.548 66.392C136.05 66.552 136.455 66.76 136.764 67.016C137.084 67.272 137.324 67.544 137.484 67.832C137.655 68.12 137.767 68.3973 137.82 68.664C137.884 68.92 137.916 69.1333 137.916 69.304C137.916 70.3387 137.479 71.1387 136.604 71.704C135.74 72.2587 134.514 72.536 132.924 72.536C132.562 72.536 132.215 72.52 131.884 72.488C131.564 72.456 131.266 72.4187 130.988 72.376C131.191 72.9093 131.527 73.304 131.996 73.56C132.466 73.8053 132.951 73.928 133.452 73.928C134.178 73.928 134.818 73.8 135.372 73.544C135.927 73.2773 136.45 72.872 136.94 72.328L138.364 74.376C138.023 74.6533 137.639 74.9413 137.212 75.24C136.796 75.5387 136.284 75.784 135.676 75.976C135.068 76.1787 134.316 76.28 133.42 76.28ZM133.772 68.552C133.143 68.552 132.588 68.712 132.108 69.032C131.628 69.352 131.276 69.7733 131.052 70.296C131.319 70.3387 131.58 70.376 131.836 70.408C132.103 70.4293 132.364 70.44 132.62 70.44C132.855 70.44 133.122 70.4187 133.42 70.376C133.73 70.3333 134.028 70.2693 134.316 70.184C134.615 70.0987 134.86 69.992 135.052 69.864C135.244 69.7253 135.34 69.5653 135.34 69.384C135.34 69.2987 135.298 69.192 135.212 69.064C135.127 68.936 134.972 68.8187 134.748 68.712C134.524 68.6053 134.199 68.552 133.772 68.552ZM143.636 76.264C143.081 76.264 142.537 76.168 142.004 75.976C141.481 75.784 141.007 75.4853 140.58 75.08C140.164 74.6853 139.833 74.1893 139.588 73.592C139.343 72.984 139.22 72.2747 139.22 71.464C139.22 70.5467 139.359 69.7573 139.636 69.096C139.924 68.424 140.303 67.8747 140.772 67.448C141.241 67.0107 141.764 66.6853 142.34 66.472C142.916 66.2587 143.492 66.152 144.068 66.152C144.409 66.152 144.735 66.1787 145.044 66.232C145.353 66.2747 145.641 66.3387 145.908 66.424C145.94 65.6453 145.977 64.8613 146.02 64.072C146.073 63.2827 146.132 62.504 146.196 61.736L148.884 61.912C148.799 62.7973 148.724 63.752 148.66 64.776C148.596 65.7893 148.548 66.824 148.516 67.88C148.495 68.936 148.484 69.9653 148.484 70.968C148.484 71.9067 148.495 72.8027 148.516 73.656C148.548 74.4987 148.585 75.2667 148.628 75.96L145.86 76.168C145.849 75.9653 145.844 75.768 145.844 75.576C145.535 75.7787 145.193 75.944 144.82 76.072C144.457 76.2 144.063 76.264 143.636 76.264ZM141.796 71.32C141.796 71.8747 141.903 72.312 142.116 72.632C142.329 72.9413 142.591 73.16 142.9 73.288C143.209 73.416 143.508 73.48 143.796 73.48C144.137 73.48 144.479 73.4053 144.82 73.256C145.161 73.1067 145.481 72.8453 145.78 72.472C145.78 72.344 145.78 72.2213 145.78 72.104C145.78 71.24 145.791 70.3547 145.812 69.448C145.311 69.0107 144.767 68.792 144.18 68.792C143.935 68.792 143.673 68.8293 143.396 68.904C143.119 68.9787 142.857 69.112 142.612 69.304C142.377 69.4853 142.18 69.7413 142.02 70.072C141.871 70.392 141.796 70.808 141.796 71.32ZM156.079 76.152C156.068 75.5547 156.063 74.9467 156.063 74.328C156.063 73.6987 156.063 73.0907 156.063 72.504V68.712C155.615 68.744 155.183 68.792 154.767 68.856C154.361 68.92 153.983 69 153.631 69.096L153.295 66.536C153.679 66.4507 154.116 66.376 154.607 66.312C155.108 66.248 155.625 66.2 156.159 66.168C156.223 65.5813 156.329 65.0107 156.479 64.456C156.639 63.9013 156.863 63.4053 157.151 62.968C157.439 62.52 157.817 62.1627 158.287 61.896C158.756 61.6293 159.337 61.496 160.031 61.496C160.916 61.496 161.769 61.6773 162.591 62.04L162.047 64.584C161.343 64.264 160.761 64.104 160.303 64.104C159.812 64.104 159.471 64.28 159.279 64.632C159.087 64.9733 158.964 65.4587 158.911 66.088C159.487 66.0987 160.031 66.1253 160.543 66.168C161.065 66.2 161.519 66.2427 161.903 66.296L161.647 68.808C161.273 68.744 160.836 68.696 160.335 68.664C159.844 68.6213 159.327 68.6 158.783 68.6C158.761 69.144 158.745 69.6773 158.735 70.2C158.724 70.712 158.719 71.224 158.719 71.736C158.719 72.4187 158.724 73.1227 158.735 73.848C158.756 74.5627 158.777 75.3307 158.799 76.152H156.079ZM167.559 76.312C166.706 76.312 165.959 76.1733 165.319 75.896C164.69 75.6187 164.167 75.24 163.751 74.76C163.335 74.2693 163.026 73.7093 162.823 73.08C162.62 72.4507 162.519 71.7893 162.519 71.096C162.519 70.392 162.642 69.7413 162.887 69.144C163.143 68.536 163.49 68.008 163.927 67.56C164.375 67.112 164.898 66.7653 165.495 66.52C166.092 66.264 166.743 66.136 167.447 66.136C168.183 66.136 168.866 66.264 169.495 66.52C170.124 66.776 170.674 67.1333 171.143 67.592C171.612 68.0507 171.975 68.5893 172.231 69.208C172.498 69.8267 172.631 70.4987 172.631 71.224C172.631 72.8347 172.188 74.088 171.303 74.984C170.418 75.8693 169.17 76.312 167.559 76.312ZM167.543 73.72C168.322 73.72 168.914 73.5013 169.319 73.064C169.735 72.6267 169.943 71.9973 169.943 71.176C169.943 70.44 169.719 69.848 169.271 69.4C168.823 68.952 168.236 68.728 167.511 68.728C167.074 68.728 166.674 68.8453 166.311 69.08C165.948 69.304 165.655 69.608 165.431 69.992C165.218 70.3653 165.111 70.7813 165.111 71.24C165.111 71.6453 165.191 72.04 165.351 72.424C165.522 72.808 165.788 73.1227 166.151 73.368C166.514 73.6027 166.978 73.72 167.543 73.72ZM173.821 76.248C173.864 75.3627 173.896 74.4773 173.917 73.592C173.939 72.7067 173.949 71.832 173.949 70.968C173.939 70.1787 173.923 69.4 173.901 68.632C173.891 67.8533 173.864 67.1013 173.821 66.376L176.509 66.296C176.52 66.6907 176.536 67.096 176.557 67.512C176.899 67.0853 177.293 66.744 177.741 66.488C178.2 66.2213 178.723 66.088 179.309 66.088C179.533 66.088 179.821 66.12 180.173 66.184C180.525 66.248 180.883 66.3707 181.245 66.552L180.941 69.256C180.675 69.096 180.387 68.984 180.077 68.92C179.779 68.8453 179.528 68.808 179.325 68.808C178.643 68.808 178.061 69.1173 177.581 69.736C177.112 70.344 176.792 71.192 176.621 72.28C176.621 73.0267 176.611 73.7413 176.589 74.424C176.579 75.096 176.552 75.704 176.509 76.248H173.821ZM93.0396 99.152C93.029 98.5547 93.0236 97.9467 93.0236 97.328C93.0236 96.6987 93.0236 96.0907 93.0236 95.504V91.712C92.5756 91.744 92.1436 91.792 91.7276 91.856C91.3223 91.92 90.9436 92 90.5916 92.096L90.2556 89.536C90.6396 89.4507 91.077 89.376 91.5676 89.312C92.069 89.248 92.5863 89.2 93.1196 89.168C93.1836 88.5813 93.2903 88.0107 93.4396 87.456C93.5996 86.9013 93.8236 86.4053 94.1116 85.968C94.3996 85.52 94.7783 85.1627 95.2476 84.896C95.717 84.6293 96.2983 84.496 96.9916 84.496C97.877 84.496 98.7303 84.6773 99.5516 85.04L99.0076 87.584C98.3036 87.264 97.7223 87.104 97.2636 87.104C96.773 87.104 96.4316 87.28 96.2396 87.632C96.0476 87.9733 95.925 88.4587 95.8716 89.088C96.4476 89.0987 96.9916 89.1253 97.5036 89.168C98.0263 89.2 98.4796 89.2427 98.8636 89.296L98.6076 91.808C98.2343 91.744 97.797 91.696 97.2956 91.664C96.805 91.6213 96.2876 91.6 95.7436 91.6C95.7223 92.144 95.7063 92.6773 95.6956 93.2C95.685 93.712 95.6796 94.224 95.6796 94.736C95.6796 95.4187 95.685 96.1227 95.6956 96.848C95.717 97.5627 95.7383 98.3307 95.7596 99.152H93.0396ZM103.32 99.312C102.637 99.312 102.072 99.1893 101.624 98.944C101.187 98.7093 100.835 98.384 100.568 97.968C100.312 97.552 100.12 97.088 99.992 96.576C99.8747 96.0533 99.7947 95.5147 99.752 94.96C99.72 94.3947 99.704 93.8507 99.704 93.328C99.704 92.7307 99.72 92.1227 99.752 91.504C99.7947 90.8853 99.8373 90.208 99.88 89.472L102.808 89.296C102.776 89.52 102.728 89.856 102.664 90.304C102.6 90.752 102.541 91.264 102.488 91.84C102.435 92.416 102.408 93.0187 102.408 93.648C102.408 94.6827 102.499 95.4507 102.68 95.952C102.861 96.4427 103.133 96.688 103.496 96.688C104.221 96.688 104.755 96.16 105.096 95.104C105.437 94.048 105.608 92.3787 105.608 90.096V89.36L106.968 89.328L108.616 89.296C108.467 90.2987 108.355 91.2213 108.28 92.064C108.205 92.9067 108.157 93.616 108.136 94.192C108.115 94.7573 108.104 95.136 108.104 95.328C108.104 95.8187 108.147 96.1707 108.232 96.384C108.317 96.5867 108.467 96.688 108.68 96.688C108.787 96.688 108.904 96.6667 109.032 96.624C109.16 96.5813 109.309 96.5067 109.48 96.4L109.368 99.152C108.963 99.216 108.611 99.248 108.312 99.248C107.8 99.248 107.379 99.152 107.048 98.96C106.728 98.768 106.472 98.512 106.28 98.192C105.949 98.544 105.539 98.816 105.048 99.008C104.568 99.2107 103.992 99.312 103.32 99.312ZM110.735 99.248C110.778 98.3627 110.81 97.4773 110.831 96.592C110.853 95.7067 110.863 94.832 110.863 93.968C110.853 93.1787 110.837 92.4 110.815 91.632C110.805 90.8533 110.778 90.1013 110.735 89.376L113.423 89.296C113.434 89.6907 113.45 90.096 113.471 90.512C113.813 90.0853 114.207 89.744 114.655 89.488C115.114 89.2213 115.637 89.088 116.223 89.088C116.447 89.088 116.735 89.12 117.087 89.184C117.439 89.248 117.797 89.3707 118.159 89.552L117.855 92.256C117.589 92.096 117.301 91.984 116.991 91.92C116.693 91.8453 116.442 91.808 116.239 91.808C115.557 91.808 114.975 92.1173 114.495 92.736C114.026 93.344 113.706 94.192 113.535 95.28C113.535 96.0267 113.525 96.7413 113.503 97.424C113.493 98.096 113.466 98.704 113.423 99.248H110.735ZM123.615 99.264C122.975 99.264 122.468 99.1253 122.095 98.848C121.722 98.5813 121.45 98.208 121.279 97.728C121.108 97.248 120.996 96.6987 120.943 96.08C120.9 95.4613 120.879 94.8107 120.879 94.128C120.879 93.424 120.906 92.6933 120.959 91.936C120.244 92.032 119.556 92.1547 118.895 92.304L118.399 89.792C119.284 89.5573 120.228 89.3867 121.231 89.28C121.306 88.736 121.386 88.1653 121.471 87.568C121.556 86.96 121.652 86.32 121.759 85.648L124.511 85.888C124.383 86.4427 124.271 86.9973 124.175 87.552C124.079 88.096 123.994 88.624 123.919 89.136C124.516 89.136 125.076 89.152 125.599 89.184C126.132 89.2053 126.623 89.248 127.071 89.312L126.751 91.824C126.378 91.7813 125.988 91.7547 125.583 91.744C125.188 91.7227 124.788 91.712 124.383 91.712C124.138 91.712 123.892 91.7173 123.647 91.728C123.583 92.5067 123.54 93.1733 123.519 93.728C123.508 94.2827 123.503 94.6773 123.503 94.912C123.503 95.4987 123.535 95.92 123.599 96.176C123.674 96.432 123.791 96.56 123.951 96.56C124.132 96.56 124.335 96.5013 124.559 96.384C124.783 96.256 125.002 96.0853 125.215 95.872C125.439 95.6587 125.626 95.4293 125.775 95.184L127.007 97.76C125.951 98.7627 124.82 99.264 123.615 99.264ZM128.238 99.104C128.238 98.4533 128.238 97.6213 128.238 96.608C128.248 95.584 128.259 94.448 128.27 93.2C128.291 91.952 128.318 90.64 128.35 89.264C128.392 87.888 128.44 86.512 128.493 85.136L131.214 85.12C131.171 85.728 131.128 86.4693 131.086 87.344C131.043 88.2187 131.006 89.1573 130.974 90.16C131.71 89.4773 132.552 89.136 133.502 89.136C134.152 89.136 134.691 89.2533 135.118 89.488C135.555 89.7227 135.907 90.032 136.174 90.416C136.44 90.7893 136.643 91.2 136.782 91.648C136.92 92.096 137.016 92.5387 137.07 92.976C137.123 93.4027 137.15 93.7813 137.15 94.112C137.15 94.816 137.144 95.5147 137.134 96.208C137.123 96.9013 137.112 97.5093 137.102 98.032C137.102 98.5547 137.102 98.9227 137.102 99.136L134.302 99.152C134.344 98.736 134.371 98.256 134.382 97.712C134.403 97.168 134.414 96.608 134.414 96.032C134.424 95.4453 134.43 94.8907 134.43 94.368C134.43 92.64 134.024 91.776 133.214 91.776C132.968 91.776 132.696 91.84 132.398 91.968C132.099 92.096 131.811 92.2987 131.534 92.576C131.267 92.8533 131.054 93.2213 130.894 93.68C130.883 94.384 130.878 95.0667 130.878 95.728C130.878 96.336 130.883 96.9067 130.894 97.44C130.915 97.9627 130.931 98.4907 130.942 99.024L128.238 99.104ZM143.553 99.28C142.529 99.28 141.628 99.0773 140.849 98.672C140.081 98.2773 139.478 97.7227 139.041 97.008C138.614 96.2933 138.401 95.4667 138.401 94.528C138.401 93.9627 138.497 93.3707 138.689 92.752C138.881 92.1227 139.19 91.536 139.617 90.992C140.044 90.448 140.604 90.0053 141.297 89.664C142.001 89.3227 142.854 89.152 143.857 89.152C144.582 89.152 145.19 89.232 145.681 89.392C146.182 89.552 146.588 89.76 146.897 90.016C147.217 90.272 147.457 90.544 147.617 90.832C147.788 91.12 147.9 91.3973 147.953 91.664C148.017 91.92 148.049 92.1333 148.049 92.304C148.049 93.3387 147.612 94.1387 146.737 94.704C145.873 95.2587 144.646 95.536 143.057 95.536C142.694 95.536 142.348 95.52 142.017 95.488C141.697 95.456 141.398 95.4187 141.121 95.376C141.324 95.9093 141.66 96.304 142.129 96.56C142.598 96.8053 143.084 96.928 143.585 96.928C144.31 96.928 144.95 96.8 145.505 96.544C146.06 96.2773 146.582 95.872 147.073 95.328L148.497 97.376C148.156 97.6533 147.772 97.9413 147.345 98.24C146.929 98.5387 146.417 98.784 145.809 98.976C145.201 99.1787 144.449 99.28 143.553 99.28ZM143.905 91.552C143.276 91.552 142.721 91.712 142.241 92.032C141.761 92.352 141.409 92.7733 141.185 93.296C141.452 93.3387 141.713 93.376 141.969 93.408C142.236 93.4293 142.497 93.44 142.753 93.44C142.988 93.44 143.254 93.4187 143.553 93.376C143.862 93.3333 144.161 93.2693 144.449 93.184C144.748 93.0987 144.993 92.992 145.185 92.864C145.377 92.7253 145.473 92.5653 145.473 92.384C145.473 92.2987 145.43 92.192 145.345 92.064C145.26 91.936 145.105 91.8187 144.881 91.712C144.657 91.6053 144.332 91.552 143.905 91.552ZM149.673 99.248C149.715 98.3627 149.747 97.4773 149.769 96.592C149.79 95.7067 149.801 94.832 149.801 93.968C149.79 93.1787 149.774 92.4 149.753 91.632C149.742 90.8533 149.715 90.1013 149.673 89.376L152.361 89.296C152.371 89.6907 152.387 90.096 152.409 90.512C152.75 90.0853 153.145 89.744 153.593 89.488C154.051 89.2213 154.574 89.088 155.161 89.088C155.385 89.088 155.673 89.12 156.025 89.184C156.377 89.248 156.734 89.3707 157.097 89.552L156.793 92.256C156.526 92.096 156.238 91.984 155.929 91.92C155.63 91.8453 155.379 91.808 155.177 91.808C154.494 91.808 153.913 92.1173 153.433 92.736C152.963 93.344 152.643 94.192 152.473 95.28C152.473 96.0267 152.462 96.7413 152.441 97.424C152.43 98.096 152.403 98.704 152.361 99.248H149.673ZM62.8859 122.264C62.3313 122.264 61.7873 122.168 61.2539 121.976C60.7313 121.784 60.2566 121.485 59.8299 121.08C59.4139 120.685 59.0833 120.189 58.8379 119.592C58.5926 118.984 58.4699 118.275 58.4699 117.464C58.4699 116.547 58.6086 115.757 58.8859 115.096C59.1739 114.424 59.5526 113.875 60.0219 113.448C60.4913 113.011 61.0139 112.685 61.5899 112.472C62.1659 112.259 62.7419 112.152 63.3179 112.152C63.6593 112.152 63.9846 112.179 64.2939 112.232C64.6033 112.275 64.8913 112.339 65.1579 112.424C65.1899 111.645 65.2273 110.861 65.2699 110.072C65.3233 109.283 65.3819 108.504 65.4459 107.736L68.1339 107.912C68.0486 108.797 67.9739 109.752 67.9099 110.776C67.8459 111.789 67.7979 112.824 67.7659 113.88C67.7446 114.936 67.7339 115.965 67.7339 116.968C67.7339 117.907 67.7446 118.803 67.7659 119.656C67.7979 120.499 67.8353 121.267 67.8779 121.96L65.1099 122.168C65.0993 121.965 65.0939 121.768 65.0939 121.576C64.7846 121.779 64.4433 121.944 64.0699 122.072C63.7073 122.2 63.3126 122.264 62.8859 122.264ZM61.0459 117.32C61.0459 117.875 61.1526 118.312 61.3659 118.632C61.5793 118.941 61.8406 119.16 62.1499 119.288C62.4593 119.416 62.7579 119.48 63.0459 119.48C63.3873 119.48 63.7286 119.405 64.0699 119.256C64.4113 119.107 64.7313 118.845 65.0299 118.472C65.0299 118.344 65.0299 118.221 65.0299 118.104C65.0299 117.24 65.0406 116.355 65.0619 115.448C64.5606 115.011 64.0166 114.792 63.4299 114.792C63.1846 114.792 62.9233 114.829 62.6459 114.904C62.3686 114.979 62.1073 115.112 61.8619 115.304C61.6273 115.485 61.4299 115.741 61.2699 116.072C61.1206 116.392 61.0459 116.808 61.0459 117.32ZM74.2484 122.28C73.2244 122.28 72.3231 122.077 71.5444 121.672C70.7764 121.277 70.1738 120.723 69.7364 120.008C69.3098 119.293 69.0964 118.467 69.0964 117.528C69.0964 116.963 69.1924 116.371 69.3844 115.752C69.5764 115.123 69.8858 114.536 70.3124 113.992C70.7391 113.448 71.2991 113.005 71.9924 112.664C72.6964 112.323 73.5498 112.152 74.5524 112.152C75.2778 112.152 75.8858 112.232 76.3764 112.392C76.8778 112.552 77.2831 112.76 77.5924 113.016C77.9124 113.272 78.1524 113.544 78.3124 113.832C78.4831 114.12 78.5951 114.397 78.6484 114.664C78.7124 114.92 78.7444 115.133 78.7444 115.304C78.7444 116.339 78.3071 117.139 77.4324 117.704C76.5684 118.259 75.3418 118.536 73.7524 118.536C73.3898 118.536 73.0431 118.52 72.7124 118.488C72.3924 118.456 72.0938 118.419 71.8164 118.376C72.0191 118.909 72.3551 119.304 72.8244 119.56C73.2938 119.805 73.7791 119.928 74.2804 119.928C75.0058 119.928 75.6458 119.8 76.2004 119.544C76.7551 119.277 77.2778 118.872 77.7684 118.328L79.1924 120.376C78.8511 120.653 78.4671 120.941 78.0404 121.24C77.6244 121.539 77.1124 121.784 76.5044 121.976C75.8964 122.179 75.1444 122.28 74.2484 122.28ZM74.6004 114.552C73.9711 114.552 73.4164 114.712 72.9364 115.032C72.4564 115.352 72.1044 115.773 71.8804 116.296C72.1471 116.339 72.4084 116.376 72.6644 116.408C72.9311 116.429 73.1924 116.44 73.4484 116.44C73.6831 116.44 73.9498 116.419 74.2484 116.376C74.5578 116.333 74.8564 116.269 75.1444 116.184C75.4431 116.099 75.6884 115.992 75.8804 115.864C76.0724 115.725 76.1684 115.565 76.1684 115.384C76.1684 115.299 76.1258 115.192 76.0404 115.064C75.9551 114.936 75.8004 114.819 75.5764 114.712C75.3524 114.605 75.0271 114.552 74.6004 114.552ZM85.0241 122.248C84.5867 122.248 84.2081 122.12 83.8881 121.864C83.5681 121.608 83.2907 121.293 83.0561 120.92C82.8214 120.547 82.6134 120.184 82.4321 119.832C82.1014 119.16 81.7867 118.424 81.4881 117.624C81.1894 116.824 80.9281 115.992 80.7041 115.128C80.4801 114.264 80.3094 113.411 80.1921 112.568L83.0881 112.152C83.1734 113.144 83.3067 114.077 83.4881 114.952C83.6694 115.827 83.8827 116.605 84.1281 117.288C84.3734 117.971 84.6241 118.525 84.8801 118.952C84.9334 119.027 84.9814 119.101 85.0241 119.176C85.0774 119.251 85.1041 119.288 85.1041 119.288C85.1254 119.288 85.2107 119.176 85.3601 118.952C85.8294 118.131 86.2667 117.171 86.6721 116.072C87.0774 114.973 87.4294 113.645 87.7281 112.088L90.5441 112.648C90.2667 113.651 90.0107 114.525 89.7761 115.272C89.5414 116.008 89.3121 116.653 89.0881 117.208C88.8641 117.763 88.6401 118.264 88.4161 118.712C88.1921 119.149 87.9574 119.576 87.7121 119.992C87.5521 120.28 87.3441 120.6 87.0881 120.952C86.8427 121.304 86.5494 121.608 86.2081 121.864C85.8667 122.12 85.4721 122.248 85.0241 122.248ZM96.6703 122.28C95.6463 122.28 94.745 122.077 93.9663 121.672C93.1983 121.277 92.5956 120.723 92.1583 120.008C91.7316 119.293 91.5183 118.467 91.5183 117.528C91.5183 116.963 91.6143 116.371 91.8063 115.752C91.9983 115.123 92.3076 114.536 92.7343 113.992C93.161 113.448 93.721 113.005 94.4143 112.664C95.1183 112.323 95.9716 112.152 96.9743 112.152C97.6996 112.152 98.3076 112.232 98.7983 112.392C99.2996 112.552 99.705 112.76 100.014 113.016C100.334 113.272 100.574 113.544 100.734 113.832C100.905 114.12 101.017 114.397 101.07 114.664C101.134 114.92 101.166 115.133 101.166 115.304C101.166 116.339 100.729 117.139 99.8543 117.704C98.9903 118.259 97.7636 118.536 96.1743 118.536C95.8116 118.536 95.465 118.52 95.1343 118.488C94.8143 118.456 94.5156 118.419 94.2383 118.376C94.441 118.909 94.777 119.304 95.2463 119.56C95.7156 119.805 96.201 119.928 96.7023 119.928C97.4276 119.928 98.0676 119.8 98.6223 119.544C99.177 119.277 99.6996 118.872 100.19 118.328L101.614 120.376C101.273 120.653 100.889 120.941 100.462 121.24C100.046 121.539 99.5343 121.784 98.9263 121.976C98.3183 122.179 97.5663 122.28 96.6703 122.28ZM97.0223 114.552C96.393 114.552 95.8383 114.712 95.3583 115.032C94.8783 115.352 94.5263 115.773 94.3023 116.296C94.569 116.339 94.8303 116.376 95.0863 116.408C95.353 116.429 95.6143 116.44 95.8703 116.44C96.105 116.44 96.3716 116.419 96.6703 116.376C96.9796 116.333 97.2783 116.269 97.5663 116.184C97.865 116.099 98.1103 115.992 98.3023 115.864C98.4943 115.725 98.5903 115.565 98.5903 115.384C98.5903 115.299 98.5476 115.192 98.4623 115.064C98.377 114.936 98.2223 114.819 97.9983 114.712C97.7743 114.605 97.449 114.552 97.0223 114.552ZM105.974 122.264C105.387 122.264 104.902 122.136 104.518 121.88C104.145 121.635 103.846 121.293 103.622 120.856C103.409 120.419 103.249 119.917 103.142 119.352C103.046 118.787 102.982 118.184 102.95 117.544C102.929 116.893 102.918 116.243 102.918 115.592C102.918 115.027 102.934 114.408 102.966 113.736C102.998 113.053 103.035 112.365 103.078 111.672C103.131 110.968 103.185 110.307 103.238 109.688C103.302 109.069 103.361 108.531 103.414 108.072L106.31 108.104C106.225 108.648 106.145 109.267 106.07 109.96C105.995 110.643 105.931 111.336 105.878 112.04C105.835 112.744 105.798 113.395 105.766 113.992C105.745 114.589 105.734 115.064 105.734 115.416C105.734 116.387 105.75 117.149 105.782 117.704C105.825 118.259 105.883 118.653 105.958 118.888C106.043 119.112 106.155 119.224 106.294 119.224C106.475 119.224 106.673 119.112 106.886 118.888C107.099 118.653 107.307 118.392 107.51 118.104L108.87 120.808C108.539 121.171 108.145 121.501 107.686 121.8C107.227 122.109 106.657 122.264 105.974 122.264ZM114.997 122.312C114.143 122.312 113.397 122.173 112.757 121.896C112.127 121.619 111.605 121.24 111.189 120.76C110.773 120.269 110.463 119.709 110.261 119.08C110.058 118.451 109.957 117.789 109.957 117.096C109.957 116.392 110.079 115.741 110.325 115.144C110.581 114.536 110.927 114.008 111.365 113.56C111.813 113.112 112.335 112.765 112.933 112.52C113.53 112.264 114.181 112.136 114.885 112.136C115.621 112.136 116.303 112.264 116.933 112.52C117.562 112.776 118.111 113.133 118.581 113.592C119.05 114.051 119.413 114.589 119.669 115.208C119.935 115.827 120.069 116.499 120.069 117.224C120.069 118.835 119.626 120.088 118.741 120.984C117.855 121.869 116.607 122.312 114.997 122.312ZM114.981 119.72C115.759 119.72 116.351 119.501 116.757 119.064C117.173 118.627 117.381 117.997 117.381 117.176C117.381 116.44 117.157 115.848 116.709 115.4C116.261 114.952 115.674 114.728 114.949 114.728C114.511 114.728 114.111 114.845 113.749 115.08C113.386 115.304 113.093 115.608 112.869 115.992C112.655 116.365 112.549 116.781 112.549 117.24C112.549 117.645 112.629 118.04 112.789 118.424C112.959 118.808 113.226 119.123 113.589 119.368C113.951 119.603 114.415 119.72 114.981 119.72ZM121.451 125.544C121.376 124.691 121.323 123.832 121.291 122.968C121.259 122.104 121.243 121.107 121.243 119.976C121.243 118.6 121.264 117.229 121.307 115.864C121.349 114.499 121.413 113.251 121.499 112.12L124.251 112.2C124.219 112.445 124.192 112.707 124.171 112.984C124.555 112.728 124.965 112.541 125.403 112.424C125.851 112.307 126.304 112.248 126.763 112.248C127.349 112.248 127.92 112.344 128.475 112.536C129.029 112.717 129.531 113.011 129.979 113.416C130.427 113.811 130.779 114.323 131.035 114.952C131.301 115.581 131.435 116.339 131.435 117.224C131.435 118.099 131.301 118.861 131.035 119.512C130.768 120.163 130.411 120.696 129.963 121.112C129.515 121.539 129.013 121.853 128.459 122.056C127.904 122.269 127.333 122.376 126.747 122.376C125.669 122.376 124.72 122.056 123.899 121.416C123.92 122.099 123.952 122.755 123.995 123.384C124.037 124.024 124.091 124.675 124.155 125.336L121.451 125.544ZM126.331 114.904C125.275 114.904 124.48 115.421 123.947 116.456C123.915 117.096 123.893 117.747 123.883 118.408C124.139 118.749 124.469 119.048 124.875 119.304C125.28 119.549 125.797 119.672 126.427 119.672C127.931 119.672 128.683 118.813 128.683 117.096C128.683 116.637 128.597 116.264 128.427 115.976C128.256 115.688 128.043 115.469 127.787 115.32C127.531 115.16 127.269 115.053 127.003 115C126.736 114.936 126.512 114.904 126.331 114.904ZM132.604 122.248C132.593 122.088 132.583 121.821 132.572 121.448C132.561 121.085 132.551 120.648 132.54 120.136C132.529 119.624 132.524 119.075 132.524 118.488C132.524 117.891 132.524 117.293 132.524 116.696C132.524 116.035 132.524 115.405 132.524 114.808C132.535 114.211 132.54 113.693 132.54 113.256C132.551 112.819 132.556 112.504 132.556 112.312L135.26 112.264C135.239 112.563 135.223 112.925 135.212 113.352C135.489 112.979 135.809 112.685 136.172 112.472C136.535 112.259 136.951 112.152 137.42 112.152C137.985 112.152 138.449 112.317 138.812 112.648C139.185 112.979 139.489 113.411 139.724 113.944C140.492 112.749 141.436 112.152 142.556 112.152C143.185 112.152 143.703 112.291 144.108 112.568C144.524 112.835 144.849 113.197 145.084 113.656C145.319 114.115 145.489 114.632 145.596 115.208C145.713 115.784 145.788 116.376 145.82 116.984C145.852 117.592 145.868 118.179 145.868 118.744C145.868 119.416 145.857 120.029 145.836 120.584C145.815 121.139 145.809 121.667 145.82 122.168H143.052C143.052 121.912 143.052 121.587 143.052 121.192C143.052 120.808 143.052 120.419 143.052 120.024C143.063 119.619 143.068 119.272 143.068 118.984C143.068 118.685 143.068 118.509 143.068 118.456C143.068 117.816 143.052 117.213 143.02 116.648C142.988 116.083 142.908 115.624 142.78 115.272C142.652 114.92 142.444 114.744 142.156 114.744C141.879 114.744 141.633 114.877 141.42 115.144C141.207 115.411 141.015 115.757 140.844 116.184C140.684 116.611 140.545 117.064 140.428 117.544C140.449 117.96 140.465 118.376 140.476 118.792C140.487 119.197 140.492 119.592 140.492 119.976C140.492 120.413 140.487 120.792 140.476 121.112C140.476 121.443 140.476 121.795 140.476 122.168H137.788C137.788 121.304 137.783 120.541 137.772 119.88C137.761 119.219 137.74 118.579 137.708 117.96C137.655 116.851 137.537 116.04 137.356 115.528C137.185 115.005 136.945 114.744 136.636 114.744C136.295 114.744 136.007 114.952 135.772 115.368C135.537 115.773 135.345 116.269 135.196 116.856C135.207 117.709 135.228 118.6 135.26 119.528C135.292 120.456 135.335 121.352 135.388 122.216L132.604 122.248ZM152.092 122.28C151.068 122.28 150.167 122.077 149.388 121.672C148.62 121.277 148.018 120.723 147.58 120.008C147.154 119.293 146.94 118.467 146.94 117.528C146.94 116.963 147.036 116.371 147.228 115.752C147.42 115.123 147.73 114.536 148.156 113.992C148.583 113.448 149.143 113.005 149.836 112.664C150.54 112.323 151.394 112.152 152.396 112.152C153.122 112.152 153.73 112.232 154.22 112.392C154.722 112.552 155.127 112.76 155.436 113.016C155.756 113.272 155.996 113.544 156.156 113.832C156.327 114.12 156.439 114.397 156.492 114.664C156.556 114.92 156.588 115.133 156.588 115.304C156.588 116.339 156.151 117.139 155.276 117.704C154.412 118.259 153.186 118.536 151.596 118.536C151.234 118.536 150.887 118.52 150.556 118.488C150.236 118.456 149.938 118.419 149.66 118.376C149.863 118.909 150.199 119.304 150.668 119.56C151.138 119.805 151.623 119.928 152.124 119.928C152.85 119.928 153.49 119.8 154.044 119.544C154.599 119.277 155.122 118.872 155.612 118.328L157.036 120.376C156.695 120.653 156.311 120.941 155.884 121.24C155.468 121.539 154.956 121.784 154.348 121.976C153.74 122.179 152.988 122.28 152.092 122.28ZM152.444 114.552C151.815 114.552 151.26 114.712 150.78 115.032C150.3 115.352 149.948 115.773 149.724 116.296C149.991 116.339 150.252 116.376 150.508 116.408C150.775 116.429 151.036 116.44 151.292 116.44C151.527 116.44 151.794 116.419 152.092 116.376C152.402 116.333 152.7 116.269 152.988 116.184C153.287 116.099 153.532 115.992 153.724 115.864C153.916 115.725 154.012 115.565 154.012 115.384C154.012 115.299 153.97 115.192 153.884 115.064C153.799 114.936 153.644 114.819 153.42 114.712C153.196 114.605 152.871 114.552 152.444 114.552ZM158.404 122.152C158.372 121.213 158.345 120.344 158.324 119.544C158.313 118.744 158.308 117.955 158.308 117.176C158.308 116.397 158.313 115.619 158.324 114.84C158.345 114.051 158.377 113.208 158.42 112.312H161.124C161.081 112.792 161.044 113.277 161.012 113.768C161.374 113.309 161.806 112.931 162.308 112.632C162.809 112.323 163.401 112.168 164.084 112.168C164.756 112.168 165.305 112.28 165.732 112.504C166.169 112.728 166.51 113.037 166.756 113.432C167.012 113.827 167.193 114.28 167.3 114.792C167.417 115.293 167.492 115.837 167.524 116.424C167.556 117 167.572 117.581 167.572 118.168C167.572 118.808 167.561 119.421 167.54 120.008C167.518 120.595 167.497 121.085 167.476 121.48C167.454 121.875 167.438 122.109 167.428 122.184H164.74C164.761 121.747 164.782 121.283 164.804 120.792C164.825 120.291 164.846 119.8 164.868 119.32C164.889 118.829 164.9 118.387 164.9 117.992C164.9 115.72 164.532 114.584 163.796 114.584C163.188 114.584 162.633 114.851 162.132 115.384C161.641 115.907 161.23 116.568 160.9 117.368C160.9 117.475 160.9 117.581 160.9 117.688C160.9 118.2 160.9 118.733 160.9 119.288C160.91 119.832 160.921 120.355 160.932 120.856C160.953 121.347 160.969 121.773 160.98 122.136L158.404 122.152ZM173.935 122.264C173.295 122.264 172.789 122.125 172.415 121.848C172.042 121.581 171.77 121.208 171.599 120.728C171.429 120.248 171.317 119.699 171.263 119.08C171.221 118.461 171.199 117.811 171.199 117.128C171.199 116.424 171.226 115.693 171.279 114.936C170.565 115.032 169.877 115.155 169.215 115.304L168.719 112.792C169.605 112.557 170.549 112.387 171.551 112.28C171.626 111.736 171.706 111.165 171.791 110.568C171.877 109.96 171.973 109.32 172.079 108.648L174.831 108.888C174.703 109.443 174.591 109.997 174.495 110.552C174.399 111.096 174.314 111.624 174.239 112.136C174.837 112.136 175.397 112.152 175.919 112.184C176.453 112.205 176.943 112.248 177.391 112.312L177.071 114.824C176.698 114.781 176.309 114.755 175.903 114.744C175.509 114.723 175.109 114.712 174.703 114.712C174.458 114.712 174.213 114.717 173.967 114.728C173.903 115.507 173.861 116.173 173.839 116.728C173.829 117.283 173.823 117.677 173.823 117.912C173.823 118.499 173.855 118.92 173.919 119.176C173.994 119.432 174.111 119.56 174.271 119.56C174.453 119.56 174.655 119.501 174.879 119.384C175.103 119.256 175.322 119.085 175.535 118.872C175.759 118.659 175.946 118.429 176.095 118.184L177.327 120.76C176.271 121.763 175.141 122.264 173.935 122.264ZM182.262 118.28L182.214 116.008C182.641 115.965 183.174 115.933 183.814 115.912C184.454 115.891 185.099 115.88 185.75 115.88C186.209 115.88 186.641 115.885 187.046 115.896C187.462 115.907 187.819 115.923 188.118 115.944L188.086 118.184C187.819 118.184 187.531 118.184 187.222 118.184C186.913 118.173 186.587 118.168 186.246 118.168C185.563 118.168 184.87 118.179 184.166 118.2C183.462 118.211 182.827 118.237 182.262 118.28ZM71.9873 145.168C70.9313 145.168 70.094 145.077 69.4753 144.896C68.8566 144.715 68.398 144.459 68.0993 144.128C67.8006 143.808 67.6033 143.429 67.5073 142.992C67.422 142.544 67.3793 142.064 67.3793 141.552C67.3793 140.699 67.4006 139.723 67.4433 138.624C67.4966 137.525 67.5606 136.347 67.6353 135.088C67.7206 133.819 67.8113 132.507 67.9073 131.152L70.8193 131.44C70.7126 132.261 70.6166 133.104 70.5313 133.968C70.4566 134.821 70.3926 135.653 70.3393 136.464C70.286 137.275 70.2433 138.011 70.2113 138.672C70.1793 139.333 70.1526 139.888 70.1313 140.336C70.1206 140.773 70.1153 141.056 70.1153 141.184C70.1153 141.557 70.158 141.84 70.2433 142.032C70.3286 142.213 70.4993 142.336 70.7553 142.4C71.0113 142.464 71.3846 142.496 71.8753 142.496C72.494 142.496 73.1926 142.459 73.9713 142.384C74.75 142.299 75.5393 142.176 76.3393 142.016C77.1393 141.856 77.87 141.664 78.5313 141.44L79.1553 144.192C78.43 144.373 77.646 144.539 76.8033 144.688C75.9713 144.837 75.1393 144.955 74.3073 145.04C73.4753 145.125 72.702 145.168 71.9873 145.168ZM86.0846 145.248C85.0606 145.248 84.2126 145.083 83.5406 144.752C82.8686 144.432 82.3299 143.989 81.9246 143.424C81.5299 142.848 81.2312 142.187 81.0286 141.44C80.8366 140.693 80.7086 139.893 80.6446 139.04C80.5912 138.187 80.5646 137.323 80.5646 136.448C80.5646 135.456 80.5966 134.491 80.6606 133.552C80.7246 132.603 80.7939 131.808 80.8686 131.168L83.8126 131.344C83.7059 132.123 83.6206 132.821 83.5566 133.44C83.5032 134.048 83.4659 134.624 83.4446 135.168C83.4232 135.712 83.4126 136.272 83.4126 136.848C83.4126 137.296 83.4179 137.781 83.4286 138.304C83.4499 138.816 83.4979 139.328 83.5726 139.84C83.6579 140.341 83.7859 140.8 83.9566 141.216C84.1379 141.621 84.3886 141.952 84.7086 142.208C85.0392 142.453 85.4606 142.576 85.9726 142.576C86.5272 142.576 86.9752 142.453 87.3166 142.208C87.6686 141.952 87.9406 141.616 88.1326 141.2C88.3246 140.773 88.4632 140.304 88.5486 139.792C88.6339 139.269 88.6819 138.741 88.6926 138.208C88.7139 137.664 88.7246 137.152 88.7246 136.672C88.7246 135.765 88.6979 134.885 88.6446 134.032C88.5912 133.179 88.5219 132.272 88.4366 131.312L91.3806 131.088C91.4659 132.112 91.5299 133.051 91.5726 133.904C91.6152 134.747 91.6366 135.525 91.6366 136.24C91.6366 137.211 91.5992 138.144 91.5246 139.04C91.4606 139.936 91.3219 140.763 91.1086 141.52C90.8952 142.267 90.5859 142.923 90.1806 143.488C89.7752 144.043 89.2366 144.475 88.5646 144.784C87.9032 145.093 87.0766 145.248 86.0846 145.248ZM96.0706 145.264L93.3826 145.024L93.9746 134.032C93.6972 134.096 93.4412 134.171 93.2066 134.256L92.7266 131.536C93.2919 131.419 93.9906 131.296 94.8226 131.168C95.6546 131.04 96.5132 130.976 97.3986 130.976C98.0812 130.976 98.7746 131.051 99.4786 131.2C100.183 131.339 100.855 131.573 101.495 131.904C102.145 132.224 102.721 132.656 103.223 133.2C103.735 133.744 104.135 134.411 104.423 135.2C104.721 135.989 104.871 136.923 104.871 138C104.871 139.515 104.625 140.811 104.135 141.888C103.655 142.955 102.951 143.771 102.023 144.336C101.105 144.901 99.9959 145.184 98.6946 145.184C97.8306 145.184 96.9772 145.024 96.1346 144.704C96.1132 144.917 96.0919 145.104 96.0706 145.264ZM97.2866 133.664C97.1372 133.664 96.9826 133.664 96.8226 133.664C96.7159 135.648 96.6199 137.339 96.5346 138.736C96.4492 140.123 96.3746 141.28 96.3106 142.208C96.6306 142.315 96.9826 142.411 97.3666 142.496C97.7612 142.571 98.1719 142.608 98.5986 142.608C99.4626 142.608 100.156 142.389 100.679 141.952C101.212 141.515 101.596 140.939 101.831 140.224C102.065 139.499 102.183 138.715 102.183 137.872C102.183 137.2 102.081 136.629 101.879 136.16C101.676 135.691 101.409 135.301 101.079 134.992C100.759 134.683 100.407 134.443 100.023 134.272C99.6386 134.091 99.2599 133.957 98.8866 133.872C98.5239 133.787 98.1986 133.733 97.9106 133.712C97.6226 133.68 97.4146 133.664 97.2866 133.664ZM106.597 145.104C106.511 144.549 106.437 143.877 106.373 143.088C106.319 142.299 106.277 141.44 106.245 140.512C106.223 139.584 106.213 138.64 106.213 137.68C106.213 136.475 106.234 135.301 106.277 134.16C106.319 133.019 106.383 132.016 106.469 131.152L109.413 131.2C109.295 131.957 109.205 132.848 109.141 133.872C109.087 134.896 109.061 136.059 109.061 137.36C109.061 138.683 109.082 140.011 109.125 141.344C109.178 142.677 109.237 143.899 109.301 145.008L106.597 145.104ZM118.557 145.264C117.757 145.264 117.032 145.056 116.381 144.64C115.731 144.235 115.213 143.685 114.829 142.992C114.456 142.288 114.269 141.504 114.269 140.64C114.269 139.829 114.419 139.099 114.717 138.448C115.016 137.787 115.421 137.221 115.933 136.752C116.456 136.283 117.048 135.925 117.709 135.68C118.371 135.424 119.064 135.296 119.789 135.296C120.397 135.296 120.995 135.381 121.581 135.552C121.624 135.328 121.661 135.104 121.693 134.88L124.429 135.344C124.355 135.547 124.28 135.851 124.205 136.256C124.131 136.661 124.067 137.115 124.013 137.616C123.971 138.117 123.933 138.619 123.901 139.12C123.869 139.621 123.853 140.075 123.853 140.48C123.853 140.811 123.875 141.136 123.917 141.456C123.971 141.765 124.077 142.021 124.237 142.224C124.397 142.416 124.643 142.512 124.973 142.512H125.197L124.797 145.296C124.093 145.296 123.512 145.173 123.053 144.928C122.595 144.693 122.227 144.373 121.949 143.968C121.491 144.48 120.968 144.821 120.381 144.992C119.795 145.173 119.187 145.264 118.557 145.264ZM116.893 140.96C116.947 141.472 117.155 141.883 117.517 142.192C117.891 142.491 118.36 142.64 118.925 142.64C119.469 142.64 119.923 142.496 120.285 142.208C120.648 141.909 120.947 141.504 121.181 140.992C121.171 140.821 121.165 140.645 121.165 140.464C121.165 140.091 121.176 139.707 121.197 139.312C121.219 138.917 121.245 138.528 121.277 138.144C120.829 137.973 120.36 137.888 119.869 137.888C119.293 137.888 118.776 138.005 118.317 138.24C117.869 138.464 117.517 138.779 117.261 139.184C117.005 139.589 116.877 140.059 116.877 140.592C116.877 140.656 116.877 140.72 116.877 140.784C116.877 140.848 116.883 140.907 116.893 140.96ZM129.75 145.312C128.864 145.312 128.112 144.624 127.494 143.248C127.28 142.757 127.094 142.219 126.934 141.632C126.774 141.045 126.635 140.448 126.518 139.84C126.411 139.232 126.32 138.651 126.246 138.096C126.182 137.531 126.128 137.035 126.086 136.608C126.054 136.171 126.027 135.84 126.006 135.616L128.63 135.008C128.758 137.429 128.95 139.269 129.206 140.528C129.472 141.787 129.675 142.416 129.814 142.416C129.888 142.416 129.979 142.267 130.086 141.968C130.203 141.669 130.331 141.275 130.47 140.784C130.608 140.283 130.742 139.733 130.87 139.136C130.998 138.539 131.11 137.936 131.206 137.328C131.078 136.549 130.992 135.931 130.95 135.472L133.654 135.376V135.568C133.654 136.005 133.686 136.517 133.75 137.104C133.814 137.691 133.894 138.299 133.99 138.928C134.086 139.547 134.187 140.123 134.294 140.656C134.411 141.189 134.523 141.621 134.63 141.952C134.736 142.283 134.827 142.448 134.902 142.448C134.966 142.448 135.056 142.304 135.174 142.016C135.291 141.728 135.419 141.333 135.558 140.832C135.707 140.331 135.856 139.76 136.006 139.12C136.155 138.469 136.299 137.787 136.438 137.072C136.576 136.347 136.688 135.627 136.774 134.912L139.414 135.472C139.232 136.485 139.014 137.493 138.758 138.496C138.512 139.488 138.251 140.411 137.974 141.264C137.696 142.107 137.424 142.816 137.158 143.392C136.56 144.661 135.819 145.296 134.934 145.296C134.646 145.296 134.315 145.205 133.942 145.024C133.579 144.853 133.243 144.491 132.934 143.936C132.827 143.733 132.72 143.488 132.614 143.2C132.507 142.912 132.406 142.592 132.31 142.24C132.182 142.635 132.054 142.987 131.926 143.296C131.36 144.64 130.635 145.312 129.75 145.312ZM144.761 145.264C143.961 145.264 143.235 145.056 142.585 144.64C141.934 144.235 141.417 143.685 141.033 142.992C140.659 142.288 140.473 141.504 140.473 140.64C140.473 139.829 140.622 139.099 140.921 138.448C141.219 137.787 141.625 137.221 142.137 136.752C142.659 136.283 143.251 135.925 143.913 135.68C144.574 135.424 145.267 135.296 145.993 135.296C146.601 135.296 147.198 135.381 147.785 135.552C147.827 135.328 147.865 135.104 147.897 134.88L150.633 135.344C150.558 135.547 150.483 135.851 150.409 136.256C150.334 136.661 150.27 137.115 150.217 137.616C150.174 138.117 150.137 138.619 150.105 139.12C150.073 139.621 150.057 140.075 150.057 140.48C150.057 140.811 150.078 141.136 150.121 141.456C150.174 141.765 150.281 142.021 150.441 142.224C150.601 142.416 150.846 142.512 151.177 142.512H151.401L151.001 145.296C150.297 145.296 149.715 145.173 149.257 144.928C148.798 144.693 148.43 144.373 148.153 143.968C147.694 144.48 147.171 144.821 146.585 144.992C145.998 145.173 145.39 145.264 144.761 145.264ZM143.097 140.96C143.15 141.472 143.358 141.883 143.721 142.192C144.094 142.491 144.563 142.64 145.129 142.64C145.673 142.64 146.126 142.496 146.489 142.208C146.851 141.909 147.15 141.504 147.385 140.992C147.374 140.821 147.369 140.645 147.369 140.464C147.369 140.091 147.379 139.707 147.401 139.312C147.422 138.917 147.449 138.528 147.481 138.144C147.033 137.973 146.563 137.888 146.073 137.888C145.497 137.888 144.979 138.005 144.521 138.24C144.073 138.464 143.721 138.779 143.465 139.184C143.209 139.589 143.081 140.059 143.081 140.592C143.081 140.656 143.081 140.72 143.081 140.784C143.081 140.848 143.086 140.907 143.097 140.96ZM152.337 145.248C152.379 144.363 152.411 143.477 152.433 142.592C152.454 141.707 152.465 140.832 152.465 139.968C152.454 139.179 152.438 138.4 152.417 137.632C152.406 136.853 152.379 136.101 152.337 135.376L155.025 135.296C155.035 135.691 155.051 136.096 155.073 136.512C155.414 136.085 155.809 135.744 156.257 135.488C156.715 135.221 157.238 135.088 157.825 135.088C158.049 135.088 158.337 135.12 158.689 135.184C159.041 135.248 159.398 135.371 159.761 135.552L159.457 138.256C159.19 138.096 158.902 137.984 158.593 137.92C158.294 137.845 158.043 137.808 157.841 137.808C157.158 137.808 156.577 138.117 156.097 138.736C155.627 139.344 155.307 140.192 155.137 141.28C155.137 142.027 155.126 142.741 155.105 143.424C155.094 144.096 155.067 144.704 155.025 145.248H152.337ZM164.448 145.264C163.894 145.264 163.35 145.168 162.816 144.976C162.294 144.784 161.819 144.485 161.392 144.08C160.976 143.685 160.646 143.189 160.4 142.592C160.155 141.984 160.032 141.275 160.032 140.464C160.032 139.547 160.171 138.757 160.448 138.096C160.736 137.424 161.115 136.875 161.584 136.448C162.054 136.011 162.576 135.685 163.152 135.472C163.728 135.259 164.304 135.152 164.88 135.152C165.222 135.152 165.547 135.179 165.856 135.232C166.166 135.275 166.454 135.339 166.72 135.424C166.752 134.645 166.79 133.861 166.832 133.072C166.886 132.283 166.944 131.504 167.008 130.736L169.696 130.912C169.611 131.797 169.536 132.752 169.472 133.776C169.408 134.789 169.36 135.824 169.328 136.88C169.307 137.936 169.296 138.965 169.296 139.968C169.296 140.907 169.307 141.803 169.328 142.656C169.36 143.499 169.398 144.267 169.44 144.96L166.672 145.168C166.662 144.965 166.656 144.768 166.656 144.576C166.347 144.779 166.006 144.944 165.632 145.072C165.27 145.2 164.875 145.264 164.448 145.264ZM162.608 140.32C162.608 140.875 162.715 141.312 162.928 141.632C163.142 141.941 163.403 142.16 163.712 142.288C164.022 142.416 164.32 142.48 164.608 142.48C164.95 142.48 165.291 142.405 165.632 142.256C165.974 142.107 166.294 141.845 166.592 141.472C166.592 141.344 166.592 141.221 166.592 141.104C166.592 140.24 166.603 139.355 166.624 138.448C166.123 138.011 165.579 137.792 164.992 137.792C164.747 137.792 164.486 137.829 164.208 137.904C163.931 137.979 163.67 138.112 163.424 138.304C163.19 138.485 162.992 138.741 162.832 139.072C162.683 139.392 162.608 139.808 162.608 140.32ZM175.683 145.328C174.958 145.328 174.286 145.243 173.667 145.072C173.048 144.901 172.488 144.683 171.987 144.416C171.486 144.149 171.038 143.867 170.643 143.568L172.083 141.248C172.531 141.664 172.963 141.984 173.379 142.208C173.795 142.432 174.227 142.587 174.675 142.672C175.134 142.757 175.63 142.8 176.163 142.8C176.622 142.8 176.99 142.741 177.267 142.624C177.544 142.496 177.683 142.336 177.683 142.144C177.683 141.984 177.55 141.861 177.283 141.776C177.016 141.68 176.675 141.6 176.259 141.536C175.843 141.461 175.406 141.371 174.947 141.264C174.296 141.093 173.688 140.896 173.123 140.672C172.558 140.448 172.099 140.144 171.747 139.76C171.406 139.376 171.235 138.864 171.235 138.224C171.235 137.712 171.358 137.264 171.603 136.88C171.848 136.485 172.174 136.16 172.579 135.904C172.995 135.637 173.464 135.44 173.987 135.312C174.51 135.184 175.048 135.12 175.603 135.12C176.563 135.12 177.39 135.237 178.083 135.472C178.787 135.696 179.459 135.995 180.099 136.368L178.643 138.576C178.323 138.352 177.955 138.16 177.539 138C177.134 137.829 176.723 137.701 176.307 137.616C175.902 137.52 175.523 137.472 175.171 137.472C174.787 137.472 174.483 137.531 174.259 137.648C174.046 137.765 173.939 137.931 173.939 138.144C173.939 138.272 174.072 138.395 174.339 138.512C174.616 138.619 175.139 138.763 175.907 138.944C176.366 139.051 176.851 139.163 177.363 139.28C177.875 139.387 178.355 139.541 178.803 139.744C179.262 139.936 179.63 140.219 179.907 140.592C180.195 140.955 180.339 141.44 180.339 142.048C180.339 143.072 179.928 143.872 179.107 144.448C178.286 145.035 177.144 145.328 175.683 145.328ZM101.217 168.216C101.111 167.8 100.993 167.373 100.865 166.936C100.748 166.499 100.641 166.115 100.545 165.784C101.729 165.123 102.759 164.408 103.633 163.64C104.519 162.872 105.244 162.109 105.809 161.352C106.385 160.595 106.812 159.907 107.089 159.288C107.377 158.669 107.521 158.184 107.521 157.832C107.521 157.427 107.383 157.112 107.105 156.888C106.839 156.653 106.476 156.536 106.017 156.536C105.388 156.536 104.748 156.76 104.097 157.208C103.457 157.656 102.86 158.291 102.305 159.112L100.625 157.096C101.105 156.52 101.612 156.003 102.145 155.544C102.689 155.085 103.271 154.723 103.889 154.456C104.508 154.179 105.169 154.04 105.873 154.04C106.641 154.04 107.345 154.173 107.985 154.44C108.625 154.707 109.137 155.107 109.521 155.64C109.905 156.173 110.097 156.835 110.097 157.624C110.097 158.371 109.905 159.181 109.521 160.056C109.137 160.92 108.604 161.789 107.921 162.664C107.239 163.528 106.46 164.333 105.585 165.08C105.937 165.069 106.295 165.064 106.657 165.064C107.361 165.064 108.007 165.107 108.593 165.192C109.18 165.267 109.788 165.384 110.417 165.544L109.889 168.008C109.367 167.88 108.812 167.773 108.225 167.688C107.639 167.603 106.967 167.56 106.209 167.56C105.313 167.56 104.423 167.608 103.537 167.704C102.652 167.811 101.879 167.981 101.217 168.216ZM117.239 168.248C116.428 168.248 115.703 168.056 115.063 167.672C114.423 167.299 113.879 166.787 113.431 166.136C112.993 165.485 112.657 164.749 112.423 163.928C112.188 163.107 112.071 162.253 112.071 161.368C112.071 160.312 112.215 159.32 112.503 158.392C112.801 157.453 113.228 156.616 113.783 155.88C114.337 155.144 115.004 154.536 115.783 154.056L116.007 154.536C116.529 154.269 117.095 154.136 117.703 154.136C118.577 154.136 119.34 154.328 119.991 154.712C120.652 155.085 121.196 155.597 121.623 156.248C122.06 156.888 122.385 157.608 122.599 158.408C122.823 159.208 122.935 160.035 122.935 160.888C122.935 162.157 122.769 163.256 122.439 164.184C122.119 165.112 121.687 165.875 121.143 166.472C120.599 167.069 119.985 167.512 119.303 167.8C118.631 168.099 117.943 168.248 117.239 168.248ZM114.695 161.512C114.695 161.896 114.732 162.328 114.807 162.808C114.892 163.288 115.036 163.747 115.239 164.184C115.441 164.611 115.713 164.968 116.055 165.256C116.407 165.533 116.855 165.672 117.399 165.672C117.985 165.672 118.497 165.475 118.935 165.08C119.372 164.675 119.713 164.115 119.959 163.4C120.215 162.685 120.343 161.859 120.343 160.92C120.343 159.981 120.199 159.213 119.911 158.616C119.633 158.008 119.281 157.56 118.855 157.272C118.439 156.973 118.017 156.824 117.591 156.824C117.367 156.824 117.153 156.888 116.951 157.016C116.748 157.144 116.588 157.315 116.471 157.528L116.247 157.048C115.745 157.549 115.388 158.056 115.175 158.568C114.961 159.08 114.828 159.587 114.775 160.088C114.721 160.579 114.695 161.053 114.695 161.512ZM125.217 168.216C125.111 167.8 124.993 167.373 124.865 166.936C124.748 166.499 124.641 166.115 124.545 165.784C125.729 165.123 126.759 164.408 127.633 163.64C128.519 162.872 129.244 162.109 129.809 161.352C130.385 160.595 130.812 159.907 131.089 159.288C131.377 158.669 131.521 158.184 131.521 157.832C131.521 157.427 131.383 157.112 131.105 156.888C130.839 156.653 130.476 156.536 130.017 156.536C129.388 156.536 128.748 156.76 128.097 157.208C127.457 157.656 126.86 158.291 126.305 159.112L124.625 157.096C125.105 156.52 125.612 156.003 126.145 155.544C126.689 155.085 127.271 154.723 127.889 154.456C128.508 154.179 129.169 154.04 129.873 154.04C130.641 154.04 131.345 154.173 131.985 154.44C132.625 154.707 133.137 155.107 133.521 155.64C133.905 156.173 134.097 156.835 134.097 157.624C134.097 158.371 133.905 159.181 133.521 160.056C133.137 160.92 132.604 161.789 131.921 162.664C131.239 163.528 130.46 164.333 129.585 165.08C129.937 165.069 130.295 165.064 130.657 165.064C131.361 165.064 132.007 165.107 132.593 165.192C133.18 165.267 133.788 165.384 134.417 165.544L133.889 168.008C133.367 167.88 132.812 167.773 132.225 167.688C131.639 167.603 130.967 167.56 130.209 167.56C129.313 167.56 128.423 167.608 127.537 167.704C126.652 167.811 125.879 167.981 125.217 168.216ZM140.791 164.728C140.247 164.728 139.697 164.717 139.143 164.696C138.588 164.664 138.076 164.579 137.607 164.44C137.148 164.301 136.78 164.072 136.503 163.752C136.225 163.432 136.087 162.984 136.087 162.408C136.087 162.024 136.183 161.555 136.375 161C136.567 160.445 136.812 159.853 137.111 159.224C137.42 158.584 137.751 157.944 138.103 157.304C138.465 156.653 138.817 156.035 139.159 155.448C139.5 154.851 139.799 154.328 140.055 153.88L142.199 155.096C142.209 154.765 142.215 154.456 142.215 154.168L144.807 154.2C144.743 155.288 144.673 156.515 144.599 157.88C144.535 159.245 144.465 160.616 144.391 161.992C144.839 161.949 145.287 161.891 145.735 161.816C146.183 161.741 146.625 161.651 147.063 161.544L147.207 164.2C146.695 164.275 146.188 164.344 145.687 164.408C145.196 164.472 144.716 164.525 144.247 164.568C144.215 165.229 144.183 165.869 144.151 166.488C144.119 167.096 144.087 167.661 144.055 168.184L141.335 168.12C141.399 167.619 141.457 167.08 141.511 166.504C141.575 165.928 141.633 165.331 141.687 164.712C141.377 164.723 141.079 164.728 140.791 164.728ZM139.879 162.168C140.092 162.179 140.3 162.184 140.503 162.184C140.705 162.184 140.903 162.184 141.095 162.184C141.351 162.184 141.607 162.179 141.863 162.168C141.948 160.941 142.017 159.725 142.071 158.52C142.124 157.315 142.167 156.227 142.199 155.256C141.911 155.661 141.596 156.141 141.255 156.696C140.924 157.24 140.599 157.805 140.279 158.392C139.959 158.979 139.676 159.523 139.431 160.024C139.228 160.451 139.063 160.803 138.935 161.08C138.807 161.347 138.743 161.555 138.743 161.704C138.743 161.853 138.828 161.965 138.999 162.04C139.169 162.104 139.463 162.147 139.879 162.168Z" fill="white"/>
</svg>
