<svg width="228" height="223" viewBox="0 0 228 223" fill="none" xmlns="http://www.w3.org/2000/svg">
<path d="M93.2521 4.43004C92.5751 4.67214 90.366 5.31199 88.3529 5.88266C79.0712 8.47663 76.1317 10.4999 74.2967 15.5322L73.8335 16.8119L69.7004 19.475C67.4201 20.9277 65.5495 22.1036 65.5495 22.0517C65.5495 22.0171 65.8702 21.481 66.2799 20.8931C67.2776 19.3886 68.2752 17.2961 69.0056 15.1864C69.647 13.3014 71.4998 6.40145 71.3751 6.29769C71.3394 6.26311 70.4487 6.74731 69.3976 7.35257C61.4342 12.0044 56.3925 16.8465 54.3259 21.8615C53.2036 24.5592 52.9898 26.8073 53.6133 29.1246L53.9874 30.4735L53.2214 31.1133C51.4577 32.5659 48.3044 35.4712 46.7188 37.0967C45.3114 38.5494 45.0977 38.7223 45.3827 38.1343C46.3982 36.111 47.378 32.5659 47.7343 29.6607C48.055 26.8592 47.8768 21.948 47.2889 17.6939L47.182 16.9503L45.1689 19.4232C41.98 23.3487 40.5726 25.1991 39.1474 27.3261C36.5464 31.1998 35.7803 33.1539 35.2459 37.2524C34.7649 41.0396 35.5665 46.4177 36.7602 47.3688C37.0274 47.5764 37.1343 47.5591 37.5797 47.2478C37.8647 47.0403 38.1497 46.8673 38.2032 46.8673C38.2566 46.8673 37.7044 47.6628 36.9739 48.6312C35.6022 50.4989 32.5736 55.1334 31.4512 57.1049C31.0771 57.762 30.7564 58.2808 30.7386 58.2808C30.703 58.2808 30.7564 57.8658 30.8633 57.3643C30.9524 56.8801 31.0415 55.0643 31.0415 53.3523C31.0415 48.8215 30.7386 47.3343 27.9595 38.7742C27.229 36.5606 26.5877 34.814 26.5342 34.8832C26.4095 35.0216 24.7705 39.9155 23.4344 44.1004C22.5614 46.85 21.4391 51.1214 21.0828 53.0929C20.8868 54.1477 20.7621 55.6695 20.7621 57.3297C20.7621 60.2176 21.065 61.8259 22.1161 64.2296C22.7218 65.5958 24.9309 69.5732 25.1268 69.6597C25.1981 69.6943 25.0556 70.2303 24.8062 70.8702C24.0401 72.7897 22.3299 77.822 21.9735 79.1536C21.7954 79.8453 21.5994 80.416 21.5282 80.416C21.4569 80.416 21.35 80.0528 21.2788 79.5859C21.1006 78.3581 19.4972 73.8619 18.4283 71.5619C17.9117 70.4379 17.11 69.0371 16.6646 68.4146C16.2192 67.792 14.9366 65.8206 13.8142 64.0394C11.231 59.8718 10.8569 59.7334 10.8569 62.8635C10.8569 63.6244 10.7678 65.4574 10.6787 66.9274C9.84141 79.2746 10.3224 84.134 12.7809 88.8031C13.7964 90.7054 15.5066 92.4693 17.4307 93.5587C18.7312 94.3024 18.7312 94.3196 18.6243 94.9422C18.3571 96.5505 17.9651 101.375 17.8582 104.315L17.7513 107.566L16.8784 105.975C15.7204 103.9 13.6004 100.58 12.2286 98.7467C10.2333 96.049 9.03972 94.7693 7.04442 93.2129C5.9577 92.3655 4.51467 91.2415 3.8555 90.7227C2.0918 89.3219 1.75331 89.4257 2.19869 91.1896C2.34121 91.7776 2.87567 94.4407 3.37449 97.1038C4.74626 104.54 5.65484 107.756 7.40073 111.353C9.57418 115.832 13.1016 119.343 17.6445 121.591L18.6599 122.075L18.8559 123.51C19.2835 126.398 20.2098 131.016 20.8334 133.402C21.0115 134.077 21.1362 134.647 21.1184 134.664C21.0828 134.699 20.7977 134.353 20.4771 133.921C19.4438 132.52 17.4129 130.67 15.667 129.528C14.7406 128.923 12.7809 127.609 11.3023 126.589C7.08005 123.683 0.452804 119.498 0.078685 119.498C-0.188543 119.498 0.167761 120.328 2.03836 124.15C4.88879 129.995 8.00644 135.927 9.34258 138.089C12.5671 143.328 17.2347 146.96 23.2919 148.983C24.3073 149.312 25.4297 149.588 25.7682 149.588C26.3561 149.588 26.4095 149.64 26.8549 150.678C27.5319 152.252 31.3443 159.515 32.2173 160.881C33.0011 162.126 32.9655 162.143 31.7541 161.244C29.8122 159.809 25.9285 157.716 22.704 156.35C20.2989 155.33 18.5708 154.776 15.5957 154.085C14.3308 153.791 12.1752 153.151 10.8212 152.701C7.16913 151.439 7.02661 151.681 9.57418 154.707C10.5184 155.849 12.1218 157.82 13.1016 159.1C15.4176 162.091 17.4485 164.27 19.9782 166.484C25.0378 170.911 27.2468 172.225 31.665 173.453C35.2993 174.473 37.1877 174.646 40.145 174.3L41.7306 174.11L42.1938 174.698C43.9753 176.912 48.2331 181.2 51.9209 184.503L53.3461 185.783L50.6382 184.451C47.5918 182.964 47.1286 182.843 41.2318 182.03C32.5914 180.837 23.47 180.111 22.3833 180.509C22.1161 180.63 22.1517 180.716 22.7396 181.252C24.0045 182.428 31.5937 187.789 34.4442 189.536C36.7067 190.919 38.8623 191.939 41.6771 192.96C46.701 194.775 48.732 195.139 53.0967 195.017C56.6953 194.914 57.8711 194.706 60.7394 193.599L62.806 192.804L65.2644 194.291C67.9367 195.917 72.2658 198.269 74.1008 199.099C77.0937 200.447 77.4322 200.62 76.7731 200.517C76.4346 200.465 74.2789 200.378 71.9986 200.309C66.3334 200.171 64.9972 200.326 55.9293 202.056C53.2392 202.575 49.5336 203.249 47.6987 203.578C43.7615 204.252 43.5121 204.442 45.7568 205.065C46.5229 205.272 49.3555 206.12 52.0278 206.932C61.1848 209.699 62.9663 210.011 69.2907 210.028C73.3525 210.028 74.0473 209.993 75.7576 209.63C79.8551 208.8 82.6343 207.52 85.1284 205.341C86.2329 204.373 86.7139 204.044 86.999 204.114C87.1949 204.148 88.5845 204.511 90.0632 204.909C91.5418 205.307 94.0538 205.895 95.6393 206.206C97.2071 206.517 98.5432 206.811 98.5967 206.863C98.6323 206.898 98.2582 207.036 97.7415 207.157C95.3721 207.745 88.9408 210.668 79.4453 215.458C74.0651 218.173 72.4262 219.124 72.729 219.314C73.2813 219.66 82.4561 219.314 87.7294 218.744C94.2319 218.052 102.587 215.233 106.008 212.57C107.273 211.584 108.591 210.305 109.927 208.783L110.568 208.039H114.221H117.891L120.438 210.408C124.838 214.489 125.533 214.853 133.425 217.17C137.95 218.501 139.304 218.709 148.052 219.297C155.908 219.833 156.407 219.833 156.407 219.262C156.407 218.83 151.686 216.357 148.746 215.25C147.82 214.905 146.288 214.144 145.362 213.556C142.939 212.034 140.926 210.979 138.503 209.941C136.294 209.008 130.361 207.002 129.827 207.002C129.649 207.002 129.506 206.95 129.506 206.863C129.506 206.794 130.326 206.587 131.341 206.414C133.497 206.033 137.933 204.961 140.516 204.2C141.513 203.906 142.351 203.699 142.386 203.733C142.404 203.768 142.547 204.027 142.689 204.321C143.58 205.999 149.548 208.99 153.557 209.751C156.674 210.356 163.319 210.305 166.74 209.682C169.822 209.094 180.742 205.86 182.417 205.013C183.148 204.65 183.112 204.148 182.381 203.906C181.455 203.629 175.22 202.402 170.837 201.658C163.711 200.43 161.627 200.188 158.01 200.188C154.821 200.188 154.038 200.275 149.851 201.035C149.584 201.087 149.78 200.949 150.261 200.741C154.501 198.943 161.057 195.432 165.261 192.683C167.345 191.317 167.417 191.299 167.203 191.836C166.775 192.839 167.274 193.444 169.091 194.101C171.158 194.862 173.135 195.139 176.36 195.139C179.585 195.139 180.867 194.948 184.288 193.945C187.405 193.029 189.81 191.974 192.768 190.227C197.703 187.322 204.508 182.791 205.559 181.684C206.093 181.131 205.951 180.768 205.131 180.612C204.08 180.422 192.501 181.269 188.207 181.857C182.952 182.566 178.159 184.036 174.578 186.06L173.599 186.613L174.578 185.783C178.444 182.515 182.275 178.727 185.695 174.802C186.657 173.695 186.728 173.643 187.103 173.868C188.759 174.871 193.338 174.542 198.077 173.072C200.428 172.346 201.907 171.585 204.419 169.839C210.298 165.757 212.543 163.561 216.052 158.477C217.531 156.333 218.724 154.949 220.061 153.894C221.308 152.891 221.628 152.425 221.236 152.165C220.898 151.94 220.15 152.079 217.424 152.874C216.159 153.237 213.95 153.825 212.525 154.188C209.87 154.846 207.911 155.503 205.577 156.558C202.37 157.993 198.094 160.552 195.44 162.627C193.997 163.751 193.961 163.769 194.371 163.129C196.562 159.688 200.001 153.341 201.212 150.488C201.479 149.865 201.729 149.537 201.871 149.588C203.207 150.038 208.196 148.188 211.848 145.87C214.021 144.47 217.121 141.582 218.279 139.818C220.47 136.48 226.652 124.531 227.775 121.453C228.291 120.035 228.024 120.017 225.868 121.262C223.356 122.732 215.536 127.782 213.237 129.442C211.117 130.981 208.516 133.419 207.305 135.045C206.842 135.65 206.468 136.1 206.468 136.065C206.468 136.013 206.699 135.097 207.002 134.007C207.643 131.569 208.481 127.592 208.962 124.513C209.176 123.234 209.354 122.179 209.371 122.179C209.389 122.162 209.728 122.058 210.138 121.954C211.171 121.66 214.591 119.637 215.892 118.547C218.137 116.628 219.74 114.553 221.272 111.544C222.982 108.206 224.069 104.54 225.174 98.3662C225.565 96.1527 226.153 93.3512 226.456 92.158C227.222 89.1144 227.026 88.7858 225.227 90.2385C222.929 92.1234 216.48 98.885 214.306 101.704C212.988 103.416 211.741 105.543 210.921 107.445L210.262 108.95L210.155 105.197C210.048 101.911 209.728 97.6745 209.389 95.0805C209.282 94.3196 209.3 94.2851 209.639 94.3715C210.334 94.5445 211.67 93.7144 213.433 92.0197C214.93 90.567 215.251 90.152 215.945 88.7167C217.353 85.846 218.083 83.0445 218.404 79.2573C218.707 75.6085 218.618 72.6168 217.958 64.5063C217.531 59.3011 217.816 59.4567 215.482 63.1402C211.741 69.0717 208.908 74.2769 208.053 76.8709C207.732 77.8739 207.643 78.6002 207.572 81.1596C207.537 82.8543 207.465 84.2205 207.43 84.1859C207.394 84.1513 207.091 83.0272 206.735 81.713C205.933 78.6867 204.259 73.5852 203.101 70.68C202.513 69.1927 202.334 68.5529 202.53 68.7258C203.332 69.4349 204.241 68.7258 205.488 66.374C206.414 64.6274 207.554 61.4281 208 59.3184C208.516 56.7936 208.142 54.0786 206.361 47.6455C205.452 44.3598 203.029 37.114 202.726 36.7509C202.139 36.0591 201.283 37.5982 199.342 42.8035C198.469 45.1726 198.255 46.4523 198.059 51.035C197.916 54.1823 197.899 56.1192 198.041 57.6928C198.13 58.9206 198.201 59.9409 198.184 59.9755C198.148 60.0101 197.685 59.2146 197.15 58.2289C195.102 54.5282 192.055 49.9109 189.383 46.4523C187.975 44.6192 187.922 44.2907 189.276 45.6568C189.668 46.0546 190.381 46.6598 190.862 47.0057L191.734 47.6282L192.144 47.1613C192.999 46.1929 193.516 43.3741 193.516 39.6907C193.516 33.69 191.948 29.9028 186.8 23.4352C185.784 22.1555 181.705 17.2961 181.134 16.6909C180.974 16.5179 181.063 20.3743 181.366 27.8622C181.526 32.1336 181.776 34.105 182.328 35.7133C182.667 36.6817 183.931 39.293 184.644 40.4689C184.911 40.9012 185 41.0914 184.84 40.9185C182.898 38.6012 177.732 33.5689 174.881 31.1652C174.276 30.6637 174.222 30.5772 174.472 30.3351C174.97 29.8682 175.184 28.6577 175.184 26.4615C175.184 23.954 174.953 22.8645 174.097 21.1871C172.548 18.1608 168.913 14.0969 165.172 11.2089C162.945 9.49692 158.58 6.74731 158.064 6.74731C157.529 6.74731 158.046 9.51421 159.525 14.339C160.665 18.0743 161.413 19.5096 163.693 22.3803C164.495 23.3833 164.566 23.5389 164.139 23.2622C163.854 23.0893 162.5 22.3457 161.128 21.6021C158.01 19.942 155.481 18.5239 155.267 18.3337C155.178 18.2472 155.035 17.6939 154.946 17.0886C154.608 14.7021 152.594 11.7969 149.94 9.84278C147.446 8.00971 145.094 7.11047 136.472 4.65485C133.728 3.87666 133.247 3.82478 133.247 4.32628C133.247 5.08718 138.039 11.2781 141.032 14.3563C143.491 16.8984 146.876 18.7314 150.421 19.475C151.561 19.6999 151.953 19.9247 155.374 22.2592C157.405 23.6427 159.061 24.8186 159.026 24.8532C158.99 24.8705 158.046 24.8359 156.941 24.7494C154.501 24.5592 152.345 24.7322 149.495 25.3547C146.911 25.9081 143.295 26.963 141.175 27.7584C136.632 29.4705 137.149 29.7472 146.876 30.7847C149.619 31.0787 151.989 31.3554 152.131 31.39C152.274 31.4419 153.877 31.5456 155.677 31.6494C159.311 31.8569 164.905 31.6321 166.918 31.2344L168.076 30.9923L170.125 32.6178C171.247 33.4998 172.69 34.693 173.331 35.2464L174.489 36.284L172.886 35.8689C169.661 35.0388 167.737 34.8486 162.464 34.8659C157.137 34.8832 156.015 35.0216 155.908 35.7306C155.837 36.2494 156.282 36.5434 158.723 37.5809C159.952 38.0997 162.749 39.3621 164.958 40.3824C168.913 42.2155 172.833 43.7892 174.792 44.3425C176.289 44.7576 179.602 45.2764 181.669 45.4147L183.522 45.5358L185.392 47.9049C186.408 49.2192 187.744 50.9831 188.35 51.8132C189.294 53.1447 189.383 53.3004 188.92 53.0064C184.983 50.4816 176.307 47.4207 172.156 47.0921C170.802 46.9884 170.499 47.1267 170.819 47.7147C171.176 48.3373 183.807 58.7131 186.354 60.4597C190.006 62.9845 194.246 65.3364 195.85 65.7341L196.651 65.9244L197.489 67.7747C198.344 69.6424 200.589 75.2972 200.589 75.5739C200.589 75.6604 199.68 74.8303 198.593 73.7235C196.081 71.2333 194.068 69.7461 190.683 67.8612C185.659 65.0597 182.417 63.6935 182.417 64.368C182.417 64.7311 183.29 65.9589 184.573 67.3597C186.711 69.7461 189.312 73.4814 191.574 77.4589C192.144 78.4446 192.892 79.6551 193.267 80.1393C195.404 82.9408 199.431 86.728 202.406 88.7513C203.279 89.3565 204.116 89.9099 204.259 90.0137C204.65 90.2731 205.417 95.4956 205.915 101.168C205.987 102.067 206.04 102.828 206.022 102.862C206.004 102.88 205.719 102.188 205.399 101.306C204.633 99.1271 203.475 97.0001 202.281 95.5475C201.034 94.043 191.164 84.134 190.897 84.134C190.523 84.134 190.755 85.2062 192.02 89.4084C194.656 98.1068 196.384 102.69 198.629 106.961C200.41 110.385 202.584 113.498 204.864 115.919L205.808 116.922L205.684 118.34C205.399 121.47 204.205 129.01 203.973 129.01C203.902 129.01 203.795 128.525 203.742 127.92C203.403 124.41 201.372 119.965 196.527 112.149C194.514 108.88 193.498 107.532 193.142 107.601C192.696 107.687 192.679 109.209 193.017 114.743C193.623 124.894 194.157 130.514 194.745 132.728C195.547 135.875 197.845 140.821 199.359 142.688L199.858 143.311L198.825 145.801C197.15 149.813 193.997 156.194 193.997 155.555C193.997 155.451 194.086 154.258 194.175 152.891C194.531 147.755 193.498 140.821 191.485 134.976C190.701 132.676 190.078 131.604 189.543 131.604C189.062 131.604 188.884 132.019 188.742 133.592C188.581 135.373 187.975 138.434 186.782 143.536C184.822 151.871 184.466 154.258 184.608 158.373C184.715 161.469 184.911 162.524 186.016 165.619L186.586 167.21L185.054 169.164C183.468 171.188 180.101 175.061 179.727 175.286C179.567 175.372 179.549 175.286 179.638 174.992C179.87 174.162 180.457 170.565 180.636 168.801C180.903 166.19 180.849 160.379 180.547 156.592C180.386 154.794 180.244 153.22 180.208 153.134C180.172 153.03 179.531 154.171 178.765 155.641C176.681 159.688 173.955 164.495 172.583 166.588C169.109 171.897 168.307 174.802 167.88 183.569L167.773 186.008L166.668 186.786C164.246 188.55 158.723 192.129 158.456 192.129C158.402 192.129 158.687 191.628 159.079 191.023C161.039 188.031 162.999 183.137 163.961 178.848C164.353 177.136 165.136 172.191 165.029 172.087C164.905 171.948 155.356 181.252 152.612 184.175C147.375 189.778 145.076 193.617 144.56 197.681L144.435 198.649L142.012 199.444C140.053 200.084 135.189 201.468 134.904 201.468C134.868 201.468 135.634 200.69 136.614 199.738C140.32 196.142 143.847 190.902 144.702 187.72C145.29 185.472 145.54 185.558 142.565 187.011C140.213 188.135 138.004 189.051 133.336 190.781C132.552 191.075 130.949 191.784 129.773 192.372C127.849 193.323 127.457 193.599 125.836 195.156C122.879 198.026 120.402 201.589 120.349 203.024L120.331 203.664L119.013 203.785C117.018 203.941 109.446 203.906 108.983 203.733C108.698 203.629 108.448 203.249 108.146 202.488C107.576 201.001 106.471 198.857 105.776 197.871C104.85 196.539 102.801 194.672 101.126 193.617C99.3093 192.458 97.1714 191.455 94.0538 190.314C89.8672 188.792 85.9301 187.045 83.9169 185.869L83.329 185.506L83.4537 186.094C84.3623 190.054 87.6759 195.087 92.5395 199.877C93.6262 200.949 94.3923 201.779 94.2498 201.744C94.0894 201.693 92.8424 201.381 91.4706 201.035C90.0988 200.69 87.8897 200.067 86.5536 199.635L84.1307 198.874L84.006 197.784C83.5072 193.478 82.0998 190.884 77.3788 185.731C75.6863 183.898 63.7502 171.862 63.6789 171.931C63.5186 172.069 64.5518 177.534 65.1932 179.972C66.6362 185.541 68.2752 189.397 70.4843 192.441C70.7337 192.787 70.6268 192.752 69.6292 192.199C68.1149 191.351 63.8392 188.619 62.1112 187.374C61.1135 186.665 60.7394 186.302 60.8285 186.111C60.8819 185.973 61.0244 185.247 61.1135 184.538C61.6123 181.166 60.5434 175.874 58.3343 170.755C57.4436 168.697 56.8201 167.573 55.0207 164.685C53.8449 162.818 50.9767 157.647 49.5871 154.897C49.213 154.171 48.821 153.566 48.6963 153.566C48.3757 153.566 48.2688 155.9 48.2688 162.991C48.2688 171.654 48.3935 172.969 49.6227 176.566C49.8009 177.067 45.8993 172.83 43.4052 169.77L41.8731 167.919L42.3185 166.933C43.2627 164.858 44.1713 159.912 44.1713 156.8C44.1713 153.808 43.5299 150.021 41.6059 141.685C40.4301 136.584 39.7709 133.195 39.6818 131.777C39.6462 131.189 39.5571 130.981 39.3077 130.946C39.0761 130.895 38.8267 131.223 38.3101 132.33C37.1699 134.699 35.8872 139.489 34.7827 145.438C34.1591 148.862 34.1235 152.563 34.6936 155.641C34.9074 156.73 35.0321 157.647 35.0143 157.682C34.9786 157.699 34.0344 155.952 32.9121 153.791C31.1127 150.315 29.1709 146.078 28.4761 144.193L28.2623 143.57L29.349 142.395C31.2018 140.44 33.5356 135.408 34.1057 132.157C34.8361 127.989 36.2079 109.434 35.8694 108.396C35.7269 107.947 35.4062 108.016 34.8005 108.638C32.7874 110.731 27.2825 120.259 26.1067 123.666C25.4831 125.482 24.9487 128.266 24.8062 130.341C24.7527 131.327 24.6636 132.105 24.628 132.071C24.343 131.777 22.8465 123.372 22.4189 119.637L22.2051 117.769L22.6683 117.423C23.9688 116.42 29.7053 108.396 31.0058 105.75C32.5201 102.672 38.1497 85.2926 37.9003 84.5317C37.7934 84.2551 35.3349 86.434 31.7897 89.9445C25.5366 96.1008 24.1648 98.2452 22.0983 104.972C21.5994 106.563 22.2408 98.1933 23.0068 93.161L23.3809 90.6016L24.1114 90.2385C25.3584 89.6332 28.1198 87.5407 29.8835 85.8806C33.1793 82.7851 35.4953 79.9145 39.86 73.4987C41.3743 71.2679 43.3874 68.4146 44.3494 67.1695C45.3114 65.9244 46.1844 64.7311 46.2913 64.5409C46.5763 64.0394 46.5407 63.6417 46.22 63.6417C45.4896 63.6417 38.8267 67.2732 34.5511 70.0228C32.4311 71.3717 29.545 73.9138 28.1198 75.6777C27.6922 76.2138 27.1934 76.819 27.0331 77.0265C26.463 77.701 29.6341 69.3657 30.8633 66.9274C31.2196 66.2529 31.3443 66.1319 32.1282 65.9416C33.2684 65.665 36.2613 64.2642 38.6486 62.8635C42.5145 60.5981 46.1488 57.9522 49.7831 54.753C50.9589 53.7154 52.8829 52.0899 54.0587 51.1387C57.1764 48.6312 57.9246 47.9222 57.8533 47.4899C57.7821 46.9711 57.016 46.9538 54.7713 47.3861C48.9814 48.5275 43.815 50.5508 39.5571 53.3696C38.6486 53.9748 37.8647 54.4763 37.8291 54.4763C37.544 54.4763 43.5477 46.435 44.2782 45.8125C44.5454 45.5876 45.1689 45.5012 46.9326 45.432C52.0634 45.2072 56.4994 43.9102 63.0554 40.7283C64.6765 39.9501 67.2419 38.7742 68.7562 38.1343C70.2705 37.4945 71.7848 36.7682 72.1055 36.5434C73.7623 35.3328 71.8026 34.7622 65.9949 34.7622C60.9175 34.7622 56.4103 35.3674 53.453 36.4569C53.061 36.5952 56.25 33.8629 58.459 32.1509C59.6705 31.2171 60.3475 30.802 60.5434 30.8712C61.4876 31.2344 63.9996 31.6667 65.9949 31.8396C68.8631 32.0644 71.8382 31.8742 78.9109 31.0441C81.7079 30.6983 85.2709 30.3351 86.8386 30.2141C89.6356 29.9893 90.5798 29.7644 90.4373 29.3494C90.1523 28.5021 84.2554 26.3231 79.8016 25.4239C76.3099 24.7322 71.3929 24.5592 68.7562 25.0607C68.3108 25.1472 67.9367 25.1991 67.9011 25.1818C67.8833 25.1472 69.4154 23.954 71.3038 22.5359L74.7421 19.9247L76.7018 19.7344C80.9774 19.3194 83.9526 17.7284 88.1926 13.63C90.5798 11.3127 92.7176 8.85707 94.0538 6.88566C95.1761 5.26011 95.4256 4.60297 95.1049 4.22252C94.8377 3.91124 94.7486 3.92854 93.2521 4.43004Z" fill="white"/>
<path d="M50.4203 85.184C50.3456 84.256 50.2923 83.3547 50.2603 82.48C50.239 81.6053 50.2283 80.7787 50.2283 80C50.2283 78.7093 50.255 77.552 50.3083 76.528C50.3616 75.4933 50.415 74.6027 50.4683 73.856C49.551 73.9093 48.6603 73.9787 47.7963 74.064C46.9323 74.1493 46.1323 74.2613 45.3963 74.4L45.4283 71.728C46.6763 71.504 47.9563 71.344 49.2683 71.248C50.5803 71.1413 51.8923 71.088 53.2043 71.088C54.143 71.088 55.039 71.1093 55.8923 71.152C56.7563 71.1947 57.583 71.2587 58.3723 71.344L58.3563 74.112C57.6096 73.9947 56.799 73.9147 55.9243 73.872C55.0603 73.8187 54.175 73.792 53.2683 73.792C53.215 74.5173 53.167 75.328 53.1243 76.224C53.0816 77.1093 53.0603 78.0587 53.0603 79.072C53.0603 79.9787 53.0816 80.9333 53.1243 81.936C53.1776 82.9387 53.2416 83.9947 53.3163 85.104L50.4203 85.184ZM64.5453 85.28C63.5213 85.28 62.62 85.0773 61.8413 84.672C61.0733 84.2773 60.4706 83.7227 60.0333 83.008C59.6066 82.2933 59.3933 81.4667 59.3933 80.528C59.3933 79.9627 59.4893 79.3707 59.6813 78.752C59.8733 78.1227 60.1826 77.536 60.6093 76.992C61.036 76.448 61.596 76.0053 62.2893 75.664C62.9933 75.3227 63.8466 75.152 64.8493 75.152C65.5746 75.152 66.1826 75.232 66.6733 75.392C67.1746 75.552 67.58 75.76 67.8893 76.016C68.2093 76.272 68.4493 76.544 68.6093 76.832C68.78 77.12 68.892 77.3973 68.9453 77.664C69.0093 77.92 69.0413 78.1333 69.0413 78.304C69.0413 79.3387 68.604 80.1387 67.7293 80.704C66.8653 81.2587 65.6386 81.536 64.0493 81.536C63.6866 81.536 63.34 81.52 63.0093 81.488C62.6893 81.456 62.3906 81.4187 62.1133 81.376C62.316 81.9093 62.652 82.304 63.1213 82.56C63.5906 82.8053 64.076 82.928 64.5773 82.928C65.3026 82.928 65.9426 82.8 66.4973 82.544C67.052 82.2773 67.5746 81.872 68.0653 81.328L69.4893 83.376C69.148 83.6533 68.764 83.9413 68.3373 84.24C67.9213 84.5387 67.4093 84.784 66.8013 84.976C66.1933 85.1787 65.4413 85.28 64.5453 85.28ZM64.8973 77.552C64.268 77.552 63.7133 77.712 63.2333 78.032C62.7533 78.352 62.4013 78.7733 62.1773 79.296C62.444 79.3387 62.7053 79.376 62.9613 79.408C63.228 79.4293 63.4893 79.44 63.7453 79.44C63.98 79.44 64.2466 79.4187 64.5453 79.376C64.8546 79.3333 65.1533 79.2693 65.4413 79.184C65.74 79.0987 65.9853 78.992 66.1773 78.864C66.3693 78.7253 66.4653 78.5653 66.4653 78.384C66.4653 78.2987 66.4226 78.192 66.3373 78.064C66.252 77.936 66.0973 77.8187 65.8733 77.712C65.6493 77.6053 65.324 77.552 64.8973 77.552ZM70.6649 85.248C70.7076 84.3627 70.7396 83.4773 70.7609 82.592C70.7823 81.7067 70.7929 80.832 70.7929 79.968C70.7823 79.1787 70.7663 78.4 70.7449 77.632C70.7343 76.8533 70.7076 76.1013 70.6649 75.376L73.3529 75.296C73.3636 75.6907 73.3796 76.096 73.4009 76.512C73.7423 76.0853 74.1369 75.744 74.5849 75.488C75.0436 75.2213 75.5663 75.088 76.1529 75.088C76.3769 75.088 76.6649 75.12 77.0169 75.184C77.3689 75.248 77.7263 75.3707 78.0889 75.552L77.7849 78.256C77.5183 78.096 77.2303 77.984 76.9209 77.92C76.6223 77.8453 76.3716 77.808 76.1689 77.808C75.4863 77.808 74.9049 78.1173 74.4249 78.736C73.9556 79.344 73.6356 80.192 73.4649 81.28C73.4649 82.0267 73.4543 82.7413 73.4329 83.424C73.4223 84.096 73.3956 84.704 73.3529 85.248H70.6649ZM78.6806 85.248C78.7232 84.3627 78.7552 83.4773 78.7766 82.592C78.7979 81.7067 78.8086 80.832 78.8086 79.968C78.7979 79.1787 78.7819 78.4 78.7606 77.632C78.7499 76.8533 78.7232 76.1013 78.6806 75.376L81.3686 75.296C81.3792 75.6907 81.3952 76.096 81.4166 76.512C81.7579 76.0853 82.1526 75.744 82.6006 75.488C83.0592 75.2213 83.5819 75.088 84.1686 75.088C84.3926 75.088 84.6806 75.12 85.0326 75.184C85.3846 75.248 85.7419 75.3707 86.1046 75.552L85.8006 78.256C85.5339 78.096 85.2459 77.984 84.9366 77.92C84.6379 77.8453 84.3872 77.808 84.1846 77.808C83.5019 77.808 82.9206 78.1173 82.4406 78.736C81.9712 79.344 81.6512 80.192 81.4806 81.28C81.4806 82.0267 81.4699 82.7413 81.4486 83.424C81.4379 84.096 81.4112 84.704 81.3686 85.248H78.6806ZM90.7762 85.264C89.9762 85.264 89.2509 85.056 88.6002 84.64C87.9495 84.2347 87.4322 83.6853 87.0482 82.992C86.6749 82.288 86.4882 81.504 86.4882 80.64C86.4882 79.8293 86.6375 79.0987 86.9362 78.448C87.2349 77.7867 87.6402 77.2213 88.1522 76.752C88.6749 76.2827 89.2669 75.9253 89.9282 75.68C90.5895 75.424 91.2829 75.296 92.0082 75.296C92.6162 75.296 93.2135 75.3813 93.8002 75.552C93.8429 75.328 93.8802 75.104 93.9122 74.88L96.6482 75.344C96.5735 75.5467 96.4989 75.8507 96.4242 76.256C96.3495 76.6613 96.2855 77.1147 96.2322 77.616C96.1895 78.1173 96.1522 78.6187 96.1202 79.12C96.0882 79.6213 96.0722 80.0747 96.0722 80.48C96.0722 80.8107 96.0935 81.136 96.1362 81.456C96.1895 81.7653 96.2962 82.0213 96.4562 82.224C96.6162 82.416 96.8615 82.512 97.1922 82.512H97.4162L97.0162 85.296C96.3122 85.296 95.7309 85.1733 95.2722 84.928C94.8135 84.6933 94.4455 84.3733 94.1682 83.968C93.7095 84.48 93.1869 84.8213 92.6002 84.992C92.0135 85.1733 91.4055 85.264 90.7762 85.264ZM89.1122 80.96C89.1655 81.472 89.3735 81.8827 89.7362 82.192C90.1095 82.4907 90.5789 82.64 91.1442 82.64C91.6882 82.64 92.1415 82.496 92.5042 82.208C92.8669 81.9093 93.1655 81.504 93.4002 80.992C93.3895 80.8213 93.3842 80.6453 93.3842 80.464C93.3842 80.0907 93.3949 79.7067 93.4162 79.312C93.4375 78.9173 93.4642 78.528 93.4962 78.144C93.0482 77.9733 92.5789 77.888 92.0882 77.888C91.5122 77.888 90.9949 78.0053 90.5362 78.24C90.0882 78.464 89.7362 78.7787 89.4802 79.184C89.2242 79.5893 89.0962 80.0587 89.0962 80.592C89.0962 80.656 89.0962 80.72 89.0962 80.784C89.0962 80.848 89.1015 80.9067 89.1122 80.96ZM103.12 85.328C102.395 85.328 101.723 85.2427 101.104 85.072C100.486 84.9013 99.9258 84.6827 99.4244 84.416C98.9231 84.1493 98.4751 83.8667 98.0804 83.568L99.5204 81.248C99.9684 81.664 100.4 81.984 100.816 82.208C101.232 82.432 101.664 82.5867 102.112 82.672C102.571 82.7573 103.067 82.8 103.6 82.8C104.059 82.8 104.427 82.7413 104.704 82.624C104.982 82.496 105.12 82.336 105.12 82.144C105.12 81.984 104.987 81.8613 104.72 81.776C104.454 81.68 104.112 81.6 103.696 81.536C103.28 81.4613 102.843 81.3707 102.384 81.264C101.734 81.0933 101.126 80.896 100.56 80.672C99.9951 80.448 99.5364 80.144 99.1844 79.76C98.8431 79.376 98.6724 78.864 98.6724 78.224C98.6724 77.712 98.7951 77.264 99.0404 76.88C99.2858 76.4853 99.6111 76.16 100.016 75.904C100.432 75.6373 100.902 75.44 101.424 75.312C101.947 75.184 102.486 75.12 103.04 75.12C104 75.12 104.827 75.2373 105.52 75.472C106.224 75.696 106.896 75.9947 107.536 76.368L106.08 78.576C105.76 78.352 105.392 78.16 104.976 78C104.571 77.8293 104.16 77.7013 103.744 77.616C103.339 77.52 102.96 77.472 102.608 77.472C102.224 77.472 101.92 77.5307 101.696 77.648C101.483 77.7653 101.376 77.9307 101.376 78.144C101.376 78.272 101.51 78.3947 101.776 78.512C102.054 78.6187 102.576 78.7627 103.344 78.944C103.803 79.0507 104.288 79.1627 104.8 79.28C105.312 79.3867 105.792 79.5413 106.24 79.744C106.699 79.936 107.067 80.2187 107.344 80.592C107.632 80.9547 107.776 81.44 107.776 82.048C107.776 83.072 107.366 83.872 106.544 84.448C105.723 85.0347 104.582 85.328 103.12 85.328ZM113.714 85.328C112.989 85.328 112.317 85.2427 111.698 85.072C111.08 84.9013 110.52 84.6827 110.018 84.416C109.517 84.1493 109.069 83.8667 108.674 83.568L110.114 81.248C110.562 81.664 110.994 81.984 111.41 82.208C111.826 82.432 112.258 82.5867 112.706 82.672C113.165 82.7573 113.661 82.8 114.194 82.8C114.653 82.8 115.021 82.7413 115.298 82.624C115.576 82.496 115.714 82.336 115.714 82.144C115.714 81.984 115.581 81.8613 115.314 81.776C115.048 81.68 114.706 81.6 114.29 81.536C113.874 81.4613 113.437 81.3707 112.978 81.264C112.328 81.0933 111.72 80.896 111.154 80.672C110.589 80.448 110.13 80.144 109.778 79.76C109.437 79.376 109.266 78.864 109.266 78.224C109.266 77.712 109.389 77.264 109.634 76.88C109.88 76.4853 110.205 76.16 110.61 75.904C111.026 75.6373 111.496 75.44 112.018 75.312C112.541 75.184 113.08 75.12 113.634 75.12C114.594 75.12 115.421 75.2373 116.114 75.472C116.818 75.696 117.49 75.9947 118.13 76.368L116.674 78.576C116.354 78.352 115.986 78.16 115.57 78C115.165 77.8293 114.754 77.7013 114.338 77.616C113.933 77.52 113.554 77.472 113.202 77.472C112.818 77.472 112.514 77.5307 112.29 77.648C112.077 77.7653 111.97 77.9307 111.97 78.144C111.97 78.272 112.104 78.3947 112.37 78.512C112.648 78.6187 113.17 78.7627 113.938 78.944C114.397 79.0507 114.882 79.1627 115.394 79.28C115.906 79.3867 116.386 79.5413 116.834 79.744C117.293 79.936 117.661 80.2187 117.938 80.592C118.226 80.9547 118.37 81.44 118.37 82.048C118.37 83.072 117.96 83.872 117.138 84.448C116.317 85.0347 115.176 85.328 113.714 85.328ZM123.62 85.264C122.82 85.264 122.095 85.056 121.444 84.64C120.793 84.2347 120.276 83.6853 119.892 82.992C119.519 82.288 119.332 81.504 119.332 80.64C119.332 79.8293 119.481 79.0987 119.78 78.448C120.079 77.7867 120.484 77.2213 120.996 76.752C121.519 76.2827 122.111 75.9253 122.772 75.68C123.433 75.424 124.127 75.296 124.852 75.296C125.46 75.296 126.057 75.3813 126.644 75.552C126.687 75.328 126.724 75.104 126.756 74.88L129.492 75.344C129.417 75.5467 129.343 75.8507 129.268 76.256C129.193 76.6613 129.129 77.1147 129.076 77.616C129.033 78.1173 128.996 78.6187 128.964 79.12C128.932 79.6213 128.916 80.0747 128.916 80.48C128.916 80.8107 128.937 81.136 128.98 81.456C129.033 81.7653 129.14 82.0213 129.3 82.224C129.46 82.416 129.705 82.512 130.036 82.512H130.26L129.86 85.296C129.156 85.296 128.575 85.1733 128.116 84.928C127.657 84.6933 127.289 84.3733 127.012 83.968C126.553 84.48 126.031 84.8213 125.444 84.992C124.857 85.1733 124.249 85.264 123.62 85.264ZM121.956 80.96C122.009 81.472 122.217 81.8827 122.58 82.192C122.953 82.4907 123.423 82.64 123.988 82.64C124.532 82.64 124.985 82.496 125.348 82.208C125.711 81.9093 126.009 81.504 126.244 80.992C126.233 80.8213 126.228 80.6453 126.228 80.464C126.228 80.0907 126.239 79.7067 126.26 79.312C126.281 78.9173 126.308 78.528 126.34 78.144C125.892 77.9733 125.423 77.888 124.932 77.888C124.356 77.888 123.839 78.0053 123.38 78.24C122.932 78.464 122.58 78.7787 122.324 79.184C122.068 79.5893 121.94 80.0587 121.94 80.592C121.94 80.656 121.94 80.72 121.94 80.784C121.94 80.848 121.945 80.9067 121.956 80.96ZM140.724 84.752C139.615 84.752 138.682 84.5547 137.924 84.16C137.167 83.776 136.559 83.264 136.1 82.624C135.652 81.984 135.327 81.2853 135.124 80.528C134.922 79.7707 134.82 79.0187 134.82 78.272C134.82 77.3867 134.964 76.512 135.252 75.648C135.54 74.784 135.972 74 136.548 73.296C137.135 72.592 137.86 72.0267 138.724 71.6C139.599 71.1733 140.618 70.96 141.78 70.96C142.762 70.96 143.62 71.104 144.356 71.392C145.092 71.6693 145.722 72.0107 146.244 72.416C146.778 72.8107 147.204 73.184 147.524 73.536L145.524 75.696C145.226 75.344 144.906 75.0133 144.564 74.704C144.234 74.3947 143.839 74.144 143.38 73.952C142.922 73.76 142.356 73.664 141.684 73.664C140.959 73.664 140.335 73.7973 139.812 74.064C139.29 74.32 138.863 74.6667 138.532 75.104C138.202 75.5413 137.956 76.032 137.796 76.576C137.647 77.12 137.572 77.68 137.572 78.256C137.572 78.9387 137.684 79.568 137.908 80.144C138.143 80.72 138.49 81.184 138.948 81.536C139.418 81.888 139.999 82.064 140.692 82.064C141.546 82.064 142.25 81.8667 142.804 81.472C143.359 81.0773 143.743 80.512 143.956 79.776C143.498 79.808 143.055 79.8507 142.628 79.904C142.212 79.9467 141.839 79.9947 141.508 80.048L141.236 77.456C141.866 77.3173 142.591 77.216 143.412 77.152C144.244 77.0773 145.039 77.04 145.796 77.04C146.842 77.04 147.626 77.104 148.148 77.232L148.084 79.856C147.86 79.792 147.503 79.744 147.012 79.712C147.012 79.9467 147.012 80.192 147.012 80.448C147.023 80.704 147.028 80.9653 147.028 81.232C147.028 81.968 147.018 82.6933 146.996 83.408C146.975 84.1227 146.954 84.6933 146.932 85.12L144.196 85.056C144.207 84.9173 144.223 84.704 144.244 84.416C144.276 84.128 144.308 83.8027 144.34 83.44C143.978 83.824 143.503 84.1387 142.916 84.384C142.34 84.6293 141.61 84.752 140.724 84.752ZM153.636 85.264C152.836 85.264 152.11 85.056 151.46 84.64C150.809 84.2347 150.292 83.6853 149.908 82.992C149.534 82.288 149.348 81.504 149.348 80.64C149.348 79.8293 149.497 79.0987 149.796 78.448C150.094 77.7867 150.5 77.2213 151.012 76.752C151.534 76.2827 152.126 75.9253 152.788 75.68C153.449 75.424 154.142 75.296 154.868 75.296C155.476 75.296 156.073 75.3813 156.66 75.552C156.702 75.328 156.74 75.104 156.772 74.88L159.508 75.344C159.433 75.5467 159.358 75.8507 159.284 76.256C159.209 76.6613 159.145 77.1147 159.092 77.616C159.049 78.1173 159.012 78.6187 158.98 79.12C158.948 79.6213 158.932 80.0747 158.932 80.48C158.932 80.8107 158.953 81.136 158.996 81.456C159.049 81.7653 159.156 82.0213 159.316 82.224C159.476 82.416 159.721 82.512 160.052 82.512H160.276L159.876 85.296C159.172 85.296 158.59 85.1733 158.132 84.928C157.673 84.6933 157.305 84.3733 157.028 83.968C156.569 84.48 156.046 84.8213 155.46 84.992C154.873 85.1733 154.265 85.264 153.636 85.264ZM151.972 80.96C152.025 81.472 152.233 81.8827 152.596 82.192C152.969 82.4907 153.438 82.64 154.004 82.64C154.548 82.64 155.001 82.496 155.364 82.208C155.726 81.9093 156.025 81.504 156.26 80.992C156.249 80.8213 156.244 80.6453 156.244 80.464C156.244 80.0907 156.254 79.7067 156.276 79.312C156.297 78.9173 156.324 78.528 156.356 78.144C155.908 77.9733 155.438 77.888 154.948 77.888C154.372 77.888 153.854 78.0053 153.396 78.24C152.948 78.464 152.596 78.7787 152.34 79.184C152.084 79.5893 151.956 80.0587 151.956 80.592C151.956 80.656 151.956 80.72 151.956 80.784C151.956 80.848 151.961 80.9067 151.972 80.96ZM161.276 85.248C161.265 85.088 161.254 84.8213 161.244 84.448C161.233 84.0853 161.222 83.648 161.212 83.136C161.201 82.624 161.196 82.0747 161.196 81.488C161.196 80.8907 161.196 80.2933 161.196 79.696C161.196 79.0347 161.196 78.4053 161.196 77.808C161.206 77.2107 161.212 76.6933 161.212 76.256C161.222 75.8187 161.228 75.504 161.228 75.312L163.932 75.264C163.91 75.5627 163.894 75.9253 163.884 76.352C164.161 75.9787 164.481 75.6853 164.844 75.472C165.206 75.2587 165.622 75.152 166.092 75.152C166.657 75.152 167.121 75.3173 167.484 75.648C167.857 75.9787 168.161 76.4107 168.396 76.944C169.164 75.7493 170.108 75.152 171.228 75.152C171.857 75.152 172.374 75.2907 172.78 75.568C173.196 75.8347 173.521 76.1973 173.756 76.656C173.99 77.1147 174.161 77.632 174.268 78.208C174.385 78.784 174.46 79.376 174.492 79.984C174.524 80.592 174.54 81.1787 174.54 81.744C174.54 82.416 174.529 83.0293 174.508 83.584C174.486 84.1387 174.481 84.6667 174.492 85.168H171.724C171.724 84.912 171.724 84.5867 171.724 84.192C171.724 83.808 171.724 83.4187 171.724 83.024C171.734 82.6187 171.74 82.272 171.74 81.984C171.74 81.6853 171.74 81.5093 171.74 81.456C171.74 80.816 171.724 80.2133 171.692 79.648C171.66 79.0827 171.58 78.624 171.452 78.272C171.324 77.92 171.116 77.744 170.828 77.744C170.55 77.744 170.305 77.8773 170.092 78.144C169.878 78.4107 169.686 78.7573 169.516 79.184C169.356 79.6107 169.217 80.064 169.1 80.544C169.121 80.96 169.137 81.376 169.148 81.792C169.158 82.1973 169.164 82.592 169.164 82.976C169.164 83.4133 169.158 83.792 169.148 84.112C169.148 84.4427 169.148 84.7947 169.148 85.168H166.46C166.46 84.304 166.454 83.5413 166.444 82.88C166.433 82.2187 166.412 81.5787 166.38 80.96C166.326 79.8507 166.209 79.04 166.028 78.528C165.857 78.0053 165.617 77.744 165.308 77.744C164.966 77.744 164.678 77.952 164.444 78.368C164.209 78.7733 164.017 79.2693 163.868 79.856C163.878 80.7093 163.9 81.6 163.932 82.528C163.964 83.456 164.006 84.352 164.06 85.216L161.276 85.248ZM180.764 85.28C179.74 85.28 178.839 85.0773 178.06 84.672C177.292 84.2773 176.689 83.7227 176.252 83.008C175.825 82.2933 175.612 81.4667 175.612 80.528C175.612 79.9627 175.708 79.3707 175.9 78.752C176.092 78.1227 176.401 77.536 176.828 76.992C177.255 76.448 177.815 76.0053 178.508 75.664C179.212 75.3227 180.065 75.152 181.068 75.152C181.793 75.152 182.401 75.232 182.892 75.392C183.393 75.552 183.799 75.76 184.108 76.016C184.428 76.272 184.668 76.544 184.828 76.832C184.999 77.12 185.111 77.3973 185.164 77.664C185.228 77.92 185.26 78.1333 185.26 78.304C185.26 79.3387 184.823 80.1387 183.948 80.704C183.084 81.2587 181.857 81.536 180.268 81.536C179.905 81.536 179.559 81.52 179.228 81.488C178.908 81.456 178.609 81.4187 178.332 81.376C178.535 81.9093 178.871 82.304 179.34 82.56C179.809 82.8053 180.295 82.928 180.796 82.928C181.521 82.928 182.161 82.8 182.716 82.544C183.271 82.2773 183.793 81.872 184.284 81.328L185.708 83.376C185.367 83.6533 184.983 83.9413 184.556 84.24C184.14 84.5387 183.628 84.784 183.02 84.976C182.412 85.1787 181.66 85.28 180.764 85.28ZM181.116 77.552C180.487 77.552 179.932 77.712 179.452 78.032C178.972 78.352 178.62 78.7733 178.396 79.296C178.663 79.3387 178.924 79.376 179.18 79.408C179.447 79.4293 179.708 79.44 179.964 79.44C180.199 79.44 180.465 79.4187 180.764 79.376C181.073 79.3333 181.372 79.2693 181.66 79.184C181.959 79.0987 182.204 78.992 182.396 78.864C182.588 78.7253 182.684 78.5653 182.684 78.384C182.684 78.2987 182.641 78.192 182.556 78.064C182.471 77.936 182.316 77.8187 182.092 77.712C181.868 77.6053 181.543 77.552 181.116 77.552ZM83.6419 108.136L80.9059 107.624C81.4179 105.555 81.9513 103.683 82.5059 102.008C83.0713 100.333 83.6526 98.8987 84.2499 97.704C84.8473 96.5093 85.4553 95.592 86.0739 94.952C86.7033 94.3013 87.3326 93.976 87.9619 93.976C89.2313 93.976 90.3993 95.1547 91.4659 97.512C92.5326 99.8587 93.4393 103.261 94.1859 107.72L91.3539 108.104C91.2259 107.4 91.0873 106.68 90.9379 105.944C90.7886 105.197 90.6339 104.472 90.4739 103.768C90.2179 103.757 89.9406 103.752 89.6419 103.752C89.1193 103.752 88.5646 103.763 87.9779 103.784C87.4019 103.805 86.8313 103.843 86.2659 103.896C85.7113 103.939 85.1939 103.987 84.7139 104.04C84.5113 104.723 84.3139 105.416 84.1219 106.12C83.9406 106.813 83.7806 107.485 83.6419 108.136ZM86.5859 98.792C86.3513 99.2933 86.0366 100.104 85.6419 101.224C86.1006 101.171 86.5859 101.133 87.0979 101.112C87.6099 101.08 88.1113 101.064 88.6019 101.064C89.0179 101.064 89.4179 101.075 89.8019 101.096C89.6526 100.552 89.5086 100.067 89.3699 99.64C89.2419 99.2133 89.1246 98.8773 89.0179 98.632C88.7939 98.056 88.5966 97.6507 88.4259 97.416C88.2553 97.1707 88.0793 97.048 87.8979 97.048C87.7059 97.048 87.5139 97.176 87.3219 97.432C87.1299 97.6773 86.8846 98.1307 86.5859 98.792ZM98.7966 108.312C97.9112 108.312 97.1592 107.624 96.5406 106.248C96.3272 105.757 96.1406 105.219 95.9806 104.632C95.8206 104.045 95.6819 103.448 95.5646 102.84C95.4579 102.232 95.3672 101.651 95.2926 101.096C95.2286 100.531 95.1752 100.035 95.1326 99.608C95.1006 99.1707 95.0739 98.84 95.0526 98.616L97.6766 98.008C97.8046 100.429 97.9966 102.269 98.2526 103.528C98.5192 104.787 98.7219 105.416 98.8606 105.416C98.9352 105.416 99.0259 105.267 99.1326 104.968C99.2499 104.669 99.3779 104.275 99.5166 103.784C99.6552 103.283 99.7886 102.733 99.9166 102.136C100.045 101.539 100.157 100.936 100.253 100.328C100.125 99.5493 100.039 98.9307 99.9966 98.472L102.701 98.376V98.568C102.701 99.0053 102.733 99.5173 102.797 100.104C102.861 100.691 102.941 101.299 103.037 101.928C103.133 102.547 103.234 103.123 103.341 103.656C103.458 104.189 103.57 104.621 103.677 104.952C103.783 105.283 103.874 105.448 103.949 105.448C104.013 105.448 104.103 105.304 104.221 105.016C104.338 104.728 104.466 104.333 104.605 103.832C104.754 103.331 104.903 102.76 105.053 102.12C105.202 101.469 105.346 100.787 105.485 100.072C105.623 99.3467 105.735 98.6267 105.821 97.912L108.461 98.472C108.279 99.4853 108.061 100.493 107.805 101.496C107.559 102.488 107.298 103.411 107.021 104.264C106.743 105.107 106.471 105.816 106.205 106.392C105.607 107.661 104.866 108.296 103.981 108.296C103.693 108.296 103.362 108.205 102.989 108.024C102.626 107.853 102.29 107.491 101.981 106.936C101.874 106.733 101.767 106.488 101.661 106.2C101.554 105.912 101.453 105.592 101.357 105.24C101.229 105.635 101.101 105.987 100.973 106.296C100.407 107.64 99.6819 108.312 98.7966 108.312ZM113.807 108.264C113.007 108.264 112.282 108.056 111.631 107.64C110.981 107.235 110.463 106.685 110.079 105.992C109.706 105.288 109.519 104.504 109.519 103.64C109.519 102.829 109.669 102.099 109.967 101.448C110.266 100.787 110.671 100.221 111.183 99.752C111.706 99.2827 112.298 98.9253 112.959 98.68C113.621 98.424 114.314 98.296 115.039 98.296C115.647 98.296 116.245 98.3813 116.831 98.552C116.874 98.328 116.911 98.104 116.943 97.88L119.679 98.344C119.605 98.5467 119.53 98.8507 119.455 99.256C119.381 99.6613 119.317 100.115 119.263 100.616C119.221 101.117 119.183 101.619 119.151 102.12C119.119 102.621 119.103 103.075 119.103 103.48C119.103 103.811 119.125 104.136 119.167 104.456C119.221 104.765 119.327 105.021 119.487 105.224C119.647 105.416 119.893 105.512 120.223 105.512H120.447L120.047 108.296C119.343 108.296 118.762 108.173 118.303 107.928C117.845 107.693 117.477 107.373 117.199 106.968C116.741 107.48 116.218 107.821 115.631 107.992C115.045 108.173 114.437 108.264 113.807 108.264ZM112.143 103.96C112.197 104.472 112.405 104.883 112.767 105.192C113.141 105.491 113.61 105.64 114.175 105.64C114.719 105.64 115.173 105.496 115.535 105.208C115.898 104.909 116.197 104.504 116.431 103.992C116.421 103.821 116.415 103.645 116.415 103.464C116.415 103.091 116.426 102.707 116.447 102.312C116.469 101.917 116.495 101.528 116.527 101.144C116.079 100.973 115.61 100.888 115.119 100.888C114.543 100.888 114.026 101.005 113.567 101.24C113.119 101.464 112.767 101.779 112.511 102.184C112.255 102.589 112.127 103.059 112.127 103.592C112.127 103.656 112.127 103.72 112.127 103.784C112.127 103.848 112.133 103.907 112.143 103.96ZM121.384 108.248C121.426 107.363 121.458 106.477 121.48 105.592C121.501 104.707 121.512 103.832 121.512 102.968C121.501 102.179 121.485 101.4 121.464 100.632C121.453 99.8533 121.426 99.1013 121.384 98.376L124.072 98.296C124.082 98.6907 124.098 99.096 124.12 99.512C124.461 99.0853 124.856 98.744 125.304 98.488C125.762 98.2213 126.285 98.088 126.872 98.088C127.096 98.088 127.384 98.12 127.736 98.184C128.088 98.248 128.445 98.3707 128.808 98.552L128.504 101.256C128.237 101.096 127.949 100.984 127.64 100.92C127.341 100.845 127.09 100.808 126.888 100.808C126.205 100.808 125.624 101.117 125.144 101.736C124.674 102.344 124.354 103.192 124.184 104.28C124.184 105.027 124.173 105.741 124.152 106.424C124.141 107.096 124.114 107.704 124.072 108.248H121.384ZM133.495 108.264C132.941 108.264 132.397 108.168 131.863 107.976C131.341 107.784 130.866 107.485 130.439 107.08C130.023 106.685 129.693 106.189 129.447 105.592C129.202 104.984 129.079 104.275 129.079 103.464C129.079 102.547 129.218 101.757 129.495 101.096C129.783 100.424 130.162 99.8747 130.631 99.448C131.101 99.0107 131.623 98.6853 132.199 98.472C132.775 98.2587 133.351 98.152 133.927 98.152C134.269 98.152 134.594 98.1787 134.903 98.232C135.213 98.2747 135.501 98.3387 135.767 98.424C135.799 97.6453 135.837 96.8613 135.879 96.072C135.933 95.2827 135.991 94.504 136.055 93.736L138.743 93.912C138.658 94.7973 138.583 95.752 138.519 96.776C138.455 97.7893 138.407 98.824 138.375 99.88C138.354 100.936 138.343 101.965 138.343 102.968C138.343 103.907 138.354 104.803 138.375 105.656C138.407 106.499 138.445 107.267 138.487 107.96L135.719 108.168C135.709 107.965 135.703 107.768 135.703 107.576C135.394 107.779 135.053 107.944 134.679 108.072C134.317 108.2 133.922 108.264 133.495 108.264ZM131.655 103.32C131.655 103.875 131.762 104.312 131.975 104.632C132.189 104.941 132.45 105.16 132.759 105.288C133.069 105.416 133.367 105.48 133.655 105.48C133.997 105.48 134.338 105.405 134.679 105.256C135.021 105.107 135.341 104.845 135.639 104.472C135.639 104.344 135.639 104.221 135.639 104.104C135.639 103.24 135.65 102.355 135.671 101.448C135.17 101.011 134.626 100.792 134.039 100.792C133.794 100.792 133.533 100.829 133.255 100.904C132.978 100.979 132.717 101.112 132.471 101.304C132.237 101.485 132.039 101.741 131.879 102.072C131.73 102.392 131.655 102.808 131.655 103.32ZM143.762 104.28L143.714 102.008C144.141 101.965 144.674 101.933 145.314 101.912C145.954 101.891 146.599 101.88 147.25 101.88C147.709 101.88 148.141 101.885 148.546 101.896C148.962 101.907 149.319 101.923 149.618 101.944L149.586 104.184C149.319 104.184 149.031 104.184 148.722 104.184C148.413 104.173 148.087 104.168 147.746 104.168C147.063 104.168 146.37 104.179 145.666 104.2C144.962 104.211 144.327 104.237 143.762 104.28ZM64.6591 131.104C64.5737 130.549 64.4991 129.877 64.4351 129.088C64.3817 128.299 64.3391 127.44 64.3071 126.512C64.2857 125.584 64.2751 124.64 64.2751 123.68C64.2751 122.475 64.2964 121.301 64.3391 120.16C64.3817 119.019 64.4457 118.016 64.5311 117.152L67.4751 117.2C67.3577 117.957 67.2671 118.848 67.2031 119.872C67.1497 120.896 67.1231 122.059 67.1231 123.36C67.1231 124.683 67.1444 126.011 67.1871 127.344C67.2404 128.677 67.2991 129.899 67.3631 131.008L64.6591 131.104ZM69.0757 131.152C69.0437 130.213 69.017 129.344 68.9957 128.544C68.985 127.744 68.9797 126.955 68.9797 126.176C68.9797 125.397 68.985 124.619 68.9957 123.84C69.017 123.051 69.049 122.208 69.0917 121.312H71.7957C71.753 121.792 71.7157 122.277 71.6837 122.768C72.0464 122.309 72.4784 121.931 72.9797 121.632C73.481 121.323 74.073 121.168 74.7557 121.168C75.4277 121.168 75.977 121.28 76.4037 121.504C76.841 121.728 77.1824 122.037 77.4277 122.432C77.6837 122.827 77.865 123.28 77.9717 123.792C78.089 124.293 78.1637 124.837 78.1957 125.424C78.2277 126 78.2437 126.581 78.2437 127.168C78.2437 127.808 78.233 128.421 78.2117 129.008C78.1904 129.595 78.169 130.085 78.1477 130.48C78.1264 130.875 78.1104 131.109 78.0997 131.184H75.4117C75.433 130.747 75.4544 130.283 75.4757 129.792C75.497 129.291 75.5184 128.8 75.5397 128.32C75.561 127.829 75.5717 127.387 75.5717 126.992C75.5717 124.72 75.2037 123.584 74.4677 123.584C73.8597 123.584 73.305 123.851 72.8037 124.384C72.313 124.907 71.9024 125.568 71.5717 126.368C71.5717 126.475 71.5717 126.581 71.5717 126.688C71.5717 127.2 71.5717 127.733 71.5717 128.288C71.5824 128.832 71.593 129.355 71.6037 129.856C71.625 130.347 71.641 130.773 71.6517 131.136L69.0757 131.152ZM83.8391 131.264C83.2844 131.264 82.7404 131.168 82.2071 130.976C81.6844 130.784 81.2097 130.485 80.7831 130.08C80.3671 129.685 80.0364 129.189 79.7911 128.592C79.5457 127.984 79.4231 127.275 79.4231 126.464C79.4231 125.547 79.5617 124.757 79.8391 124.096C80.1271 123.424 80.5057 122.875 80.9751 122.448C81.4444 122.011 81.9671 121.685 82.5431 121.472C83.1191 121.259 83.6951 121.152 84.2711 121.152C84.6124 121.152 84.9377 121.179 85.2471 121.232C85.5564 121.275 85.8444 121.339 86.1111 121.424C86.1431 120.645 86.1804 119.861 86.2231 119.072C86.2764 118.283 86.3351 117.504 86.3991 116.736L89.0871 116.912C89.0017 117.797 88.9271 118.752 88.8631 119.776C88.7991 120.789 88.7511 121.824 88.7191 122.88C88.6977 123.936 88.6871 124.965 88.6871 125.968C88.6871 126.907 88.6977 127.803 88.7191 128.656C88.7511 129.499 88.7884 130.267 88.8311 130.96L86.0631 131.168C86.0524 130.965 86.0471 130.768 86.0471 130.576C85.7377 130.779 85.3964 130.944 85.0231 131.072C84.6604 131.2 84.2657 131.264 83.8391 131.264ZM81.9991 126.32C81.9991 126.875 82.1057 127.312 82.3191 127.632C82.5324 127.941 82.7937 128.16 83.1031 128.288C83.4124 128.416 83.7111 128.48 83.9991 128.48C84.3404 128.48 84.6817 128.405 85.0231 128.256C85.3644 128.107 85.6844 127.845 85.9831 127.472C85.9831 127.344 85.9831 127.221 85.9831 127.104C85.9831 126.24 85.9937 125.355 86.0151 124.448C85.5137 124.011 84.9697 123.792 84.3831 123.792C84.1377 123.792 83.8764 123.829 83.5991 123.904C83.3217 123.979 83.0604 124.112 82.8151 124.304C82.5804 124.485 82.3831 124.741 82.2231 125.072C82.0737 125.392 81.9991 125.808 81.9991 126.32ZM90.3216 119.664C90.3216 119.568 90.3162 119.472 90.3056 119.376C90.3056 119.269 90.3056 119.152 90.3056 119.024C90.3056 118.683 90.3162 118.32 90.3376 117.936C90.3589 117.552 90.3802 117.227 90.4016 116.96L93.2496 117.008C93.2176 117.371 93.1802 117.781 93.1376 118.24C93.1056 118.699 93.0842 119.173 93.0736 119.664H90.3216ZM90.2576 131.12C90.2256 130.459 90.2042 129.755 90.1936 129.008C90.1829 128.251 90.1776 127.493 90.1776 126.736C90.1776 125.744 90.1882 124.779 90.2096 123.84C90.2309 122.901 90.2576 122.048 90.2896 121.28L93.0416 121.264C92.9989 121.755 92.9722 122.363 92.9616 123.088C92.9509 123.803 92.9456 124.555 92.9456 125.344C92.9456 126.123 92.9509 126.891 92.9616 127.648C92.9722 128.405 92.9829 129.093 92.9936 129.712C93.0149 130.32 93.0309 130.789 93.0416 131.12H90.2576ZM99.4203 131.28C98.3963 131.28 97.495 131.077 96.7163 130.672C95.9483 130.277 95.3456 129.723 94.9083 129.008C94.4816 128.293 94.2683 127.467 94.2683 126.528C94.2683 125.963 94.3643 125.371 94.5563 124.752C94.7483 124.123 95.0576 123.536 95.4843 122.992C95.911 122.448 96.471 122.005 97.1643 121.664C97.8683 121.323 98.7216 121.152 99.7243 121.152C100.45 121.152 101.058 121.232 101.548 121.392C102.05 121.552 102.455 121.76 102.764 122.016C103.084 122.272 103.324 122.544 103.484 122.832C103.655 123.12 103.767 123.397 103.82 123.664C103.884 123.92 103.916 124.133 103.916 124.304C103.916 125.339 103.479 126.139 102.604 126.704C101.74 127.259 100.514 127.536 98.9243 127.536C98.5616 127.536 98.215 127.52 97.8843 127.488C97.5643 127.456 97.2656 127.419 96.9883 127.376C97.191 127.909 97.527 128.304 97.9963 128.56C98.4656 128.805 98.951 128.928 99.4523 128.928C100.178 128.928 100.818 128.8 101.372 128.544C101.927 128.277 102.45 127.872 102.94 127.328L104.364 129.376C104.023 129.653 103.639 129.941 103.212 130.24C102.796 130.539 102.284 130.784 101.676 130.976C101.068 131.179 100.316 131.28 99.4203 131.28ZM99.7723 123.552C99.143 123.552 98.5883 123.712 98.1083 124.032C97.6283 124.352 97.2763 124.773 97.0523 125.296C97.319 125.339 97.5803 125.376 97.8363 125.408C98.103 125.429 98.3643 125.44 98.6203 125.44C98.855 125.44 99.1216 125.419 99.4203 125.376C99.7296 125.333 100.028 125.269 100.316 125.184C100.615 125.099 100.86 124.992 101.052 124.864C101.244 124.725 101.34 124.565 101.34 124.384C101.34 124.299 101.298 124.192 101.212 124.064C101.127 123.936 100.972 123.819 100.748 123.712C100.524 123.605 100.199 123.552 99.7723 123.552ZM111.412 130.752C110.303 130.752 109.369 130.555 108.612 130.16C107.855 129.776 107.247 129.264 106.788 128.624C106.34 127.984 106.015 127.285 105.812 126.528C105.609 125.771 105.508 125.019 105.508 124.272C105.508 123.387 105.652 122.512 105.94 121.648C106.228 120.784 106.66 120 107.236 119.296C107.823 118.592 108.548 118.027 109.412 117.6C110.287 117.173 111.305 116.96 112.468 116.96C113.449 116.96 114.308 117.104 115.044 117.392C115.78 117.669 116.409 118.011 116.932 118.416C117.465 118.811 117.892 119.184 118.212 119.536L116.212 121.696C115.913 121.344 115.593 121.013 115.252 120.704C114.921 120.395 114.527 120.144 114.068 119.952C113.609 119.76 113.044 119.664 112.372 119.664C111.647 119.664 111.023 119.797 110.5 120.064C109.977 120.32 109.551 120.667 109.22 121.104C108.889 121.541 108.644 122.032 108.484 122.576C108.335 123.12 108.26 123.68 108.26 124.256C108.26 124.939 108.372 125.568 108.596 126.144C108.831 126.72 109.177 127.184 109.636 127.536C110.105 127.888 110.687 128.064 111.38 128.064C112.233 128.064 112.937 127.867 113.492 127.472C114.047 127.077 114.431 126.512 114.644 125.776C114.185 125.808 113.743 125.851 113.316 125.904C112.9 125.947 112.527 125.995 112.196 126.048L111.924 123.456C112.553 123.317 113.279 123.216 114.1 123.152C114.932 123.077 115.727 123.04 116.484 123.04C117.529 123.04 118.313 123.104 118.836 123.232L118.772 125.856C118.548 125.792 118.191 125.744 117.7 125.712C117.7 125.947 117.7 126.192 117.7 126.448C117.711 126.704 117.716 126.965 117.716 127.232C117.716 127.968 117.705 128.693 117.684 129.408C117.663 130.123 117.641 130.693 117.62 131.12L114.884 131.056C114.895 130.917 114.911 130.704 114.932 130.416C114.964 130.128 114.996 129.803 115.028 129.44C114.665 129.824 114.191 130.139 113.604 130.384C113.028 130.629 112.297 130.752 111.412 130.752ZM124.323 131.264C123.523 131.264 122.798 131.056 122.147 130.64C121.496 130.235 120.979 129.685 120.595 128.992C120.222 128.288 120.035 127.504 120.035 126.64C120.035 125.829 120.184 125.099 120.483 124.448C120.782 123.787 121.187 123.221 121.699 122.752C122.222 122.283 122.814 121.925 123.475 121.68C124.136 121.424 124.83 121.296 125.555 121.296C126.163 121.296 126.76 121.381 127.347 121.552C127.39 121.328 127.427 121.104 127.459 120.88L130.195 121.344C130.12 121.547 130.046 121.851 129.971 122.256C129.896 122.661 129.832 123.115 129.779 123.616C129.736 124.117 129.699 124.619 129.667 125.12C129.635 125.621 129.619 126.075 129.619 126.48C129.619 126.811 129.64 127.136 129.683 127.456C129.736 127.765 129.843 128.021 130.003 128.224C130.163 128.416 130.408 128.512 130.739 128.512H130.963L130.563 131.296C129.859 131.296 129.278 131.173 128.819 130.928C128.36 130.693 127.992 130.373 127.715 129.968C127.256 130.48 126.734 130.821 126.147 130.992C125.56 131.173 124.952 131.264 124.323 131.264ZM122.659 126.96C122.712 127.472 122.92 127.883 123.283 128.192C123.656 128.491 124.126 128.64 124.691 128.64C125.235 128.64 125.688 128.496 126.051 128.208C126.414 127.909 126.712 127.504 126.947 126.992C126.936 126.821 126.931 126.645 126.931 126.464C126.931 126.091 126.942 125.707 126.963 125.312C126.984 124.917 127.011 124.528 127.043 124.144C126.595 123.973 126.126 123.888 125.635 123.888C125.059 123.888 124.542 124.005 124.083 124.24C123.635 124.464 123.283 124.779 123.027 125.184C122.771 125.589 122.643 126.059 122.643 126.592C122.643 126.656 122.643 126.72 122.643 126.784C122.643 126.848 122.648 126.907 122.659 126.96ZM131.963 131.248C131.953 131.088 131.942 130.821 131.931 130.448C131.921 130.085 131.91 129.648 131.899 129.136C131.889 128.624 131.883 128.075 131.883 127.488C131.883 126.891 131.883 126.293 131.883 125.696C131.883 125.035 131.883 124.405 131.883 123.808C131.894 123.211 131.899 122.693 131.899 122.256C131.91 121.819 131.915 121.504 131.915 121.312L134.619 121.264C134.598 121.563 134.582 121.925 134.571 122.352C134.849 121.979 135.169 121.685 135.531 121.472C135.894 121.259 136.31 121.152 136.779 121.152C137.345 121.152 137.809 121.317 138.171 121.648C138.545 121.979 138.849 122.411 139.083 122.944C139.851 121.749 140.795 121.152 141.915 121.152C142.545 121.152 143.062 121.291 143.467 121.568C143.883 121.835 144.209 122.197 144.443 122.656C144.678 123.115 144.849 123.632 144.955 124.208C145.073 124.784 145.147 125.376 145.179 125.984C145.211 126.592 145.227 127.179 145.227 127.744C145.227 128.416 145.217 129.029 145.195 129.584C145.174 130.139 145.169 130.667 145.179 131.168H142.411C142.411 130.912 142.411 130.587 142.411 130.192C142.411 129.808 142.411 129.419 142.411 129.024C142.422 128.619 142.427 128.272 142.427 127.984C142.427 127.685 142.427 127.509 142.427 127.456C142.427 126.816 142.411 126.213 142.379 125.648C142.347 125.083 142.267 124.624 142.139 124.272C142.011 123.92 141.803 123.744 141.515 123.744C141.238 123.744 140.993 123.877 140.779 124.144C140.566 124.411 140.374 124.757 140.203 125.184C140.043 125.611 139.905 126.064 139.787 126.544C139.809 126.96 139.825 127.376 139.835 127.792C139.846 128.197 139.851 128.592 139.851 128.976C139.851 129.413 139.846 129.792 139.835 130.112C139.835 130.443 139.835 130.795 139.835 131.168H137.147C137.147 130.304 137.142 129.541 137.131 128.88C137.121 128.219 137.099 127.579 137.067 126.96C137.014 125.851 136.897 125.04 136.715 124.528C136.545 124.005 136.305 123.744 135.995 123.744C135.654 123.744 135.366 123.952 135.131 124.368C134.897 124.773 134.705 125.269 134.555 125.856C134.566 126.709 134.587 127.6 134.619 128.528C134.651 129.456 134.694 130.352 134.747 131.216L131.963 131.248ZM151.452 131.28C150.428 131.28 149.526 131.077 148.748 130.672C147.98 130.277 147.377 129.723 146.94 129.008C146.513 128.293 146.3 127.467 146.3 126.528C146.3 125.963 146.396 125.371 146.588 124.752C146.78 124.123 147.089 123.536 147.516 122.992C147.942 122.448 148.502 122.005 149.196 121.664C149.9 121.323 150.753 121.152 151.756 121.152C152.481 121.152 153.089 121.232 153.58 121.392C154.081 121.552 154.486 121.76 154.796 122.016C155.116 122.272 155.356 122.544 155.516 122.832C155.686 123.12 155.798 123.397 155.852 123.664C155.916 123.92 155.948 124.133 155.948 124.304C155.948 125.339 155.51 126.139 154.636 126.704C153.772 127.259 152.545 127.536 150.956 127.536C150.593 127.536 150.246 127.52 149.916 127.488C149.596 127.456 149.297 127.419 149.02 127.376C149.222 127.909 149.558 128.304 150.028 128.56C150.497 128.805 150.982 128.928 151.484 128.928C152.209 128.928 152.849 128.8 153.404 128.544C153.958 128.277 154.481 127.872 154.972 127.328L156.396 129.376C156.054 129.653 155.67 129.941 155.244 130.24C154.828 130.539 154.316 130.784 153.708 130.976C153.1 131.179 152.348 131.28 151.452 131.28ZM151.804 123.552C151.174 123.552 150.62 123.712 150.14 124.032C149.66 124.352 149.308 124.773 149.084 125.296C149.35 125.339 149.612 125.376 149.868 125.408C150.134 125.429 150.396 125.44 150.652 125.44C150.886 125.44 151.153 125.419 151.452 125.376C151.761 125.333 152.06 125.269 152.348 125.184C152.646 125.099 152.892 124.992 153.084 124.864C153.276 124.725 153.372 124.565 153.372 124.384C153.372 124.299 153.329 124.192 153.244 124.064C153.158 123.936 153.004 123.819 152.78 123.712C152.556 123.605 152.23 123.552 151.804 123.552ZM162.339 131.328C161.614 131.328 160.942 131.243 160.323 131.072C159.705 130.901 159.145 130.683 158.643 130.416C158.142 130.149 157.694 129.867 157.299 129.568L158.739 127.248C159.187 127.664 159.619 127.984 160.035 128.208C160.451 128.432 160.883 128.587 161.331 128.672C161.79 128.757 162.286 128.8 162.819 128.8C163.278 128.8 163.646 128.741 163.923 128.624C164.201 128.496 164.339 128.336 164.339 128.144C164.339 127.984 164.206 127.861 163.939 127.776C163.673 127.68 163.331 127.6 162.915 127.536C162.499 127.461 162.062 127.371 161.603 127.264C160.953 127.093 160.345 126.896 159.779 126.672C159.214 126.448 158.755 126.144 158.403 125.76C158.062 125.376 157.891 124.864 157.891 124.224C157.891 123.712 158.014 123.264 158.259 122.88C158.505 122.485 158.83 122.16 159.235 121.904C159.651 121.637 160.121 121.44 160.643 121.312C161.166 121.184 161.705 121.12 162.259 121.12C163.219 121.12 164.046 121.237 164.739 121.472C165.443 121.696 166.115 121.995 166.755 122.368L165.299 124.576C164.979 124.352 164.611 124.16 164.195 124C163.79 123.829 163.379 123.701 162.963 123.616C162.558 123.52 162.179 123.472 161.827 123.472C161.443 123.472 161.139 123.531 160.915 123.648C160.702 123.765 160.595 123.931 160.595 124.144C160.595 124.272 160.729 124.395 160.995 124.512C161.273 124.619 161.795 124.763 162.563 124.944C163.022 125.051 163.507 125.163 164.019 125.28C164.531 125.387 165.011 125.541 165.459 125.744C165.918 125.936 166.286 126.219 166.563 126.592C166.851 126.955 166.995 127.44 166.995 128.048C166.995 129.072 166.585 129.872 165.763 130.448C164.942 131.035 163.801 131.328 162.339 131.328ZM74.9516 154.184C74.8769 153.256 74.8236 152.355 74.7916 151.48C74.7702 150.605 74.7596 149.779 74.7596 149C74.7596 147.709 74.7862 146.552 74.8396 145.528C74.8929 144.493 74.9462 143.603 74.9996 142.856C74.0822 142.909 73.1916 142.979 72.3276 143.064C71.4636 143.149 70.6636 143.261 69.9276 143.4L69.9596 140.728C71.2076 140.504 72.4876 140.344 73.7996 140.248C75.1116 140.141 76.4236 140.088 77.7356 140.088C78.6742 140.088 79.5702 140.109 80.4236 140.152C81.2876 140.195 82.1142 140.259 82.9036 140.344L82.8876 143.112C82.1409 142.995 81.3302 142.915 80.4556 142.872C79.5916 142.819 78.7062 142.792 77.7996 142.792C77.7462 143.517 77.6982 144.328 77.6556 145.224C77.6129 146.109 77.5916 147.059 77.5916 148.072C77.5916 148.979 77.6129 149.933 77.6556 150.936C77.7089 151.939 77.7729 152.995 77.8476 154.104L74.9516 154.184ZM85.4766 154.104C85.4446 153.379 85.4286 152.579 85.4286 151.704C85.4286 150.861 85.4446 149.965 85.4766 149.016C85.5086 148.067 85.5566 147.107 85.6206 146.136C85.6846 145.155 85.7699 144.2 85.8766 143.272C85.7059 143.315 85.5406 143.357 85.3806 143.4C85.2312 143.432 85.0926 143.469 84.9646 143.512L84.1486 140.968C86.7299 140.36 88.8792 140.056 90.5966 140.056C94.0846 140.056 95.8286 141.384 95.8286 144.04C95.8286 145.288 95.4126 146.28 94.5806 147.016C93.7486 147.741 92.5272 148.2 90.9166 148.392C91.8872 149.213 92.8632 149.891 93.8446 150.424C94.8366 150.947 95.8392 151.389 96.8526 151.752L95.0926 154.104C94.5272 153.901 93.9352 153.619 93.3166 153.256C92.6979 152.893 92.0846 152.493 91.4766 152.056C90.8686 151.619 90.2872 151.176 89.7326 150.728C89.1886 150.28 88.7032 149.864 88.2766 149.48C88.2659 150.216 88.2552 150.963 88.2446 151.72C88.2446 152.467 88.2446 153.24 88.2446 154.04L88.1486 154.136C87.7432 154.136 87.3059 154.136 86.8366 154.136C86.3779 154.147 85.9619 154.168 85.5886 154.2L85.4766 154.104ZM90.4526 142.6C90.1539 142.6 89.8446 142.616 89.5246 142.648C89.2046 142.669 88.8846 142.701 88.5646 142.744C88.5219 143.341 88.4846 143.933 88.4526 144.52C88.4206 145.096 88.3939 145.672 88.3726 146.248C88.8419 146.237 89.3486 146.211 89.8926 146.168C90.4472 146.115 90.9699 146.019 91.4606 145.88C91.9512 145.731 92.3512 145.517 92.6606 145.24C92.9806 144.963 93.1406 144.595 93.1406 144.136C93.1406 143.603 92.9219 143.213 92.4846 142.968C92.0472 142.723 91.3699 142.6 90.4526 142.6ZM104.23 154.28C103.334 154.28 102.502 154.147 101.734 153.88C100.966 153.613 100.273 153.261 99.6544 152.824C99.0464 152.376 98.5131 151.896 98.0544 151.384L99.6544 148.84C99.7931 149.203 100.022 149.549 100.342 149.88C100.673 150.211 101.057 150.504 101.494 150.76C101.932 151.016 102.39 151.219 102.87 151.368C103.361 151.517 103.841 151.592 104.31 151.592C105.014 151.592 105.574 151.48 105.99 151.256C106.406 151.021 106.614 150.712 106.614 150.328C106.614 150.029 106.518 149.784 106.326 149.592C106.145 149.389 105.932 149.229 105.686 149.112C105.452 148.984 105.249 148.872 105.078 148.776C104.95 148.712 104.716 148.616 104.374 148.488C104.044 148.349 103.67 148.2 103.254 148.04C102.838 147.88 102.444 147.731 102.07 147.592C101.697 147.443 101.404 147.32 101.19 147.224C99.6011 146.509 98.8064 145.405 98.8064 143.912C98.8064 143.432 98.8971 142.963 99.0784 142.504C99.2704 142.035 99.5584 141.608 99.9424 141.224C100.326 140.84 100.817 140.536 101.414 140.312C102.012 140.088 102.726 139.976 103.558 139.976C104.465 139.976 105.27 140.077 105.974 140.28C106.678 140.472 107.297 140.717 107.83 141.016C108.374 141.315 108.838 141.629 109.222 141.96L107.75 144.424C106.566 143.251 105.228 142.664 103.734 142.664C103.105 142.664 102.625 142.733 102.294 142.872C101.974 143 101.756 143.149 101.638 143.32C101.532 143.48 101.478 143.613 101.478 143.72C101.478 143.901 101.542 144.083 101.67 144.264C101.809 144.445 102.113 144.637 102.582 144.84C102.774 144.925 103.03 145.032 103.35 145.16C103.681 145.277 104.044 145.411 104.438 145.56C104.844 145.709 105.238 145.869 105.622 146.04C106.017 146.2 106.374 146.365 106.694 146.536C107.078 146.749 107.473 147.011 107.878 147.32C108.284 147.629 108.625 148.013 108.902 148.472C109.19 148.92 109.334 149.469 109.334 150.12C109.334 150.515 109.26 150.952 109.11 151.432C108.961 151.901 108.7 152.355 108.326 152.792C107.953 153.229 107.436 153.587 106.774 153.864C106.113 154.141 105.265 154.28 104.23 154.28ZM115.28 154.216C115.173 153.8 115.056 153.373 114.928 152.936C114.81 152.499 114.704 152.115 114.608 151.784C115.792 151.123 116.821 150.408 117.696 149.64C118.581 148.872 119.306 148.109 119.872 147.352C120.448 146.595 120.874 145.907 121.152 145.288C121.44 144.669 121.584 144.184 121.584 143.832C121.584 143.427 121.445 143.112 121.168 142.888C120.901 142.653 120.538 142.536 120.08 142.536C119.45 142.536 118.81 142.76 118.16 143.208C117.52 143.656 116.922 144.291 116.368 145.112L114.688 143.096C115.168 142.52 115.674 142.003 116.208 141.544C116.752 141.085 117.333 140.723 117.952 140.456C118.57 140.179 119.232 140.04 119.936 140.04C120.704 140.04 121.408 140.173 122.048 140.44C122.688 140.707 123.2 141.107 123.584 141.64C123.968 142.173 124.16 142.835 124.16 143.624C124.16 144.371 123.968 145.181 123.584 146.056C123.2 146.92 122.666 147.789 121.984 148.664C121.301 149.528 120.522 150.333 119.648 151.08C120 151.069 120.357 151.064 120.72 151.064C121.424 151.064 122.069 151.107 122.656 151.192C123.242 151.267 123.85 151.384 124.48 151.544L123.952 154.008C123.429 153.88 122.874 153.773 122.288 153.688C121.701 153.603 121.029 153.56 120.272 153.56C119.376 153.56 118.485 153.608 117.6 153.704C116.714 153.811 115.941 153.981 115.28 154.216ZM131.301 154.248C130.491 154.248 129.765 154.056 129.125 153.672C128.485 153.299 127.941 152.787 127.493 152.136C127.056 151.485 126.72 150.749 126.485 149.928C126.251 149.107 126.133 148.253 126.133 147.368C126.133 146.312 126.277 145.32 126.565 144.392C126.864 143.453 127.291 142.616 127.845 141.88C128.4 141.144 129.067 140.536 129.845 140.056L130.069 140.536C130.592 140.269 131.157 140.136 131.765 140.136C132.64 140.136 133.403 140.328 134.053 140.712C134.715 141.085 135.259 141.597 135.685 142.248C136.123 142.888 136.448 143.608 136.661 144.408C136.885 145.208 136.997 146.035 136.997 146.888C136.997 148.157 136.832 149.256 136.501 150.184C136.181 151.112 135.749 151.875 135.205 152.472C134.661 153.069 134.048 153.512 133.365 153.8C132.693 154.099 132.005 154.248 131.301 154.248ZM128.757 147.512C128.757 147.896 128.795 148.328 128.869 148.808C128.955 149.288 129.099 149.747 129.301 150.184C129.504 150.611 129.776 150.968 130.117 151.256C130.469 151.533 130.917 151.672 131.461 151.672C132.048 151.672 132.56 151.475 132.997 151.08C133.435 150.675 133.776 150.115 134.021 149.4C134.277 148.685 134.405 147.859 134.405 146.92C134.405 145.981 134.261 145.213 133.973 144.616C133.696 144.008 133.344 143.56 132.917 143.272C132.501 142.973 132.08 142.824 131.653 142.824C131.429 142.824 131.216 142.888 131.013 143.016C130.811 143.144 130.651 143.315 130.533 143.528L130.309 143.048C129.808 143.549 129.451 144.056 129.237 144.568C129.024 145.08 128.891 145.587 128.837 146.088C128.784 146.579 128.757 147.053 128.757 147.512ZM139.28 154.216C139.173 153.8 139.056 153.373 138.928 152.936C138.81 152.499 138.704 152.115 138.608 151.784C139.792 151.123 140.821 150.408 141.696 149.64C142.581 148.872 143.306 148.109 143.872 147.352C144.448 146.595 144.874 145.907 145.152 145.288C145.44 144.669 145.584 144.184 145.584 143.832C145.584 143.427 145.445 143.112 145.168 142.888C144.901 142.653 144.538 142.536 144.08 142.536C143.45 142.536 142.81 142.76 142.16 143.208C141.52 143.656 140.922 144.291 140.368 145.112L138.688 143.096C139.168 142.52 139.674 142.003 140.208 141.544C140.752 141.085 141.333 140.723 141.952 140.456C142.57 140.179 143.232 140.04 143.936 140.04C144.704 140.04 145.408 140.173 146.048 140.44C146.688 140.707 147.2 141.107 147.584 141.64C147.968 142.173 148.16 142.835 148.16 143.624C148.16 144.371 147.968 145.181 147.584 146.056C147.2 146.92 146.666 147.789 145.984 148.664C145.301 149.528 144.522 150.333 143.648 151.08C144 151.069 144.357 151.064 144.72 151.064C145.424 151.064 146.069 151.107 146.656 151.192C147.242 151.267 147.85 151.384 148.48 151.544L147.952 154.008C147.429 153.88 146.874 153.773 146.288 153.688C145.701 153.603 145.029 153.56 144.272 153.56C143.376 153.56 142.485 153.608 141.6 153.704C140.714 153.811 139.941 153.981 139.28 154.216ZM155.493 154.232C154.352 154.232 153.376 154.045 152.565 153.672C151.755 153.309 151.051 152.888 150.453 152.408L151.717 150.12C152.08 150.504 152.485 150.808 152.933 151.032C153.392 151.245 153.845 151.4 154.293 151.496C154.752 151.581 155.152 151.624 155.493 151.624C156.155 151.624 156.699 151.469 157.125 151.16C157.563 150.84 157.781 150.435 157.781 149.944C157.781 149.592 157.659 149.277 157.413 149C157.179 148.723 156.853 148.509 156.437 148.36C156.021 148.2 155.547 148.12 155.013 148.12H154.789C154.608 148.12 154.421 148.125 154.229 148.136C154.048 148.147 153.867 148.163 153.685 148.184L153.637 147L153.525 145.656C154.827 145.603 155.824 145.405 156.517 145.064C157.211 144.712 157.557 144.248 157.557 143.672C157.557 143.363 157.36 143.107 156.965 142.904C156.581 142.691 156.085 142.584 155.477 142.584C154.368 142.584 153.264 142.984 152.165 143.784L150.853 141.48C151.323 141.139 151.829 140.861 152.373 140.648C152.917 140.424 153.461 140.259 154.005 140.152C154.549 140.045 155.051 139.992 155.509 139.992C156.448 139.992 157.264 140.141 157.957 140.44C158.651 140.728 159.189 141.139 159.573 141.672C159.957 142.205 160.149 142.835 160.149 143.56C160.149 144.392 159.968 145.064 159.605 145.576C159.253 146.088 158.768 146.488 158.149 146.776C158.853 147.075 159.424 147.501 159.861 148.056C160.309 148.611 160.533 149.267 160.533 150.024C160.533 150.675 160.395 151.261 160.117 151.784C159.84 152.296 159.461 152.733 158.981 153.096C158.512 153.469 157.973 153.752 157.365 153.944C156.768 154.136 156.144 154.232 155.493 154.232Z" fill="white"/>
</svg>
